<?xml version="1.0" encoding="utf-8" standalone="no"?>
<!DOCTYPE svg PUBLIC "-//W3C//DTD SVG 1.1//EN"
  "http://www.w3.org/Graphics/SVG/1.1/DTD/svg11.dtd">
<svg xmlns:xlink="http://www.w3.org/1999/xlink" width="712.9075pt" height="425.7075pt" viewBox="0 0 712.9075 425.7075" xmlns="http://www.w3.org/2000/svg" version="1.1">
 <metadata>
  <rdf:RDF xmlns:dc="http://purl.org/dc/elements/1.1/" xmlns:cc="http://creativecommons.org/ns#" xmlns:rdf="http://www.w3.org/1999/02/22-rdf-syntax-ns#">
   <cc:Work>
    <dc:type rdf:resource="http://purl.org/dc/dcmitype/StillImage"/>
    <dc:date>2026-06-11T18:29:01.426140</dc:date>
    <dc:format>image/svg+xml</dc:format>
    <dc:creator>
     <cc:Agent>
      <dc:title>Matplotlib v3.10.0, https://matplotlib.org/</dc:title>
     </cc:Agent>
    </dc:creator>
   </cc:Work>
  </rdf:RDF>
 </metadata>
 <defs>
  <style type="text/css">*{stroke-linejoin: round; stroke-linecap: butt}</style>
 </defs>
 <g id="figure_1">
  <g id="patch_1">
   <path d="M -0 425.7075 
L 712.9075 425.7075 
L 712.9075 0 
L -0 0 
z
" style="fill: #ffffff"/>
  </g>
  <g id="axes_1">
   <g id="patch_2">
    <path d="M 43.0575 387.100937 
L 705.7075 387.100937 
L 705.7075 23.220937 
L 43.0575 23.220937 
z
" style="fill: #ffffff"/>
   </g>
   <g id="matplotlib.axis_1">
    <g id="xtick_1">
     <g id="line2d_1">
      <path d="M 43.0575 387.100937 
L 43.0575 23.220937 
" clip-path="url(#pa225f24f96)" style="fill: none; stroke-dasharray: 2.96,1.28; stroke-dashoffset: 0; stroke: #b0b0b0; stroke-opacity: 0.5; stroke-width: 0.8"/>
     </g>
     <g id="line2d_2">
      <defs>
       <path id="m4c8a74662f" d="M 0 0 
L 0 3.5 
" style="stroke: #000000; stroke-width: 0.8"/>
      </defs>
      <g>
       <use xlink:href="#m4c8a74662f" x="43.0575" y="387.100937" style="stroke: #000000; stroke-width: 0.8"/>
      </g>
     </g>
     <g id="text_1">
      <!-- 0 -->
      <g transform="translate(40.277031 401.25875) scale(0.1 -0.1)">
       <defs>
        <path id="ArialMT-30" d="M 266 2259 
Q 266 3072 433 3567 
Q 600 4063 929 4331 
Q 1259 4600 1759 4600 
Q 2128 4600 2406 4451 
Q 2684 4303 2865 4023 
Q 3047 3744 3150 3342 
Q 3253 2941 3253 2259 
Q 3253 1453 3087 958 
Q 2922 463 2592 192 
Q 2263 -78 1759 -78 
Q 1097 -78 719 397 
Q 266 969 266 2259 
z
M 844 2259 
Q 844 1131 1108 757 
Q 1372 384 1759 384 
Q 2147 384 2411 759 
Q 2675 1134 2675 2259 
Q 2675 3391 2411 3762 
Q 2147 4134 1753 4134 
Q 1366 4134 1134 3806 
Q 844 3388 844 2259 
z
" transform="scale(0.015625)"/>
       </defs>
       <use xlink:href="#ArialMT-30"/>
      </g>
     </g>
    </g>
    <g id="xtick_2">
     <g id="line2d_3">
      <path d="M 189.661482 387.100937 
L 189.661482 23.220937 
" clip-path="url(#pa225f24f96)" style="fill: none; stroke-dasharray: 2.96,1.28; stroke-dashoffset: 0; stroke: #b0b0b0; stroke-opacity: 0.5; stroke-width: 0.8"/>
     </g>
     <g id="line2d_4">
      <g>
       <use xlink:href="#m4c8a74662f" x="189.661482" y="387.100937" style="stroke: #000000; stroke-width: 0.8"/>
      </g>
     </g>
     <g id="text_2">
      <!-- 100 -->
      <g transform="translate(181.320076 401.25875) scale(0.1 -0.1)">
       <defs>
        <path id="ArialMT-31" d="M 2384 0 
L 1822 0 
L 1822 3584 
Q 1619 3391 1289 3197 
Q 959 3003 697 2906 
L 697 3450 
Q 1169 3672 1522 3987 
Q 1875 4303 2022 4600 
L 2384 4600 
L 2384 0 
z
" transform="scale(0.015625)"/>
       </defs>
       <use xlink:href="#ArialMT-31"/>
       <use xlink:href="#ArialMT-30" transform="translate(55.615234 0)"/>
       <use xlink:href="#ArialMT-30" transform="translate(111.230469 0)"/>
      </g>
     </g>
    </g>
    <g id="xtick_3">
     <g id="line2d_5">
      <path d="M 336.265465 387.100937 
L 336.265465 23.220937 
" clip-path="url(#pa225f24f96)" style="fill: none; stroke-dasharray: 2.96,1.28; stroke-dashoffset: 0; stroke: #b0b0b0; stroke-opacity: 0.5; stroke-width: 0.8"/>
     </g>
     <g id="line2d_6">
      <g>
       <use xlink:href="#m4c8a74662f" x="336.265465" y="387.100937" style="stroke: #000000; stroke-width: 0.8"/>
      </g>
     </g>
     <g id="text_3">
      <!-- 200 -->
      <g transform="translate(327.924058 401.25875) scale(0.1 -0.1)">
       <defs>
        <path id="ArialMT-32" d="M 3222 541 
L 3222 0 
L 194 0 
Q 188 203 259 391 
Q 375 700 629 1000 
Q 884 1300 1366 1694 
Q 2113 2306 2375 2664 
Q 2638 3022 2638 3341 
Q 2638 3675 2398 3904 
Q 2159 4134 1775 4134 
Q 1369 4134 1125 3890 
Q 881 3647 878 3216 
L 300 3275 
Q 359 3922 746 4261 
Q 1134 4600 1788 4600 
Q 2447 4600 2831 4234 
Q 3216 3869 3216 3328 
Q 3216 3053 3103 2787 
Q 2991 2522 2730 2228 
Q 2469 1934 1863 1422 
Q 1356 997 1212 845 
Q 1069 694 975 541 
L 3222 541 
z
" transform="scale(0.015625)"/>
       </defs>
       <use xlink:href="#ArialMT-32"/>
       <use xlink:href="#ArialMT-30" transform="translate(55.615234 0)"/>
       <use xlink:href="#ArialMT-30" transform="translate(111.230469 0)"/>
      </g>
     </g>
    </g>
    <g id="xtick_4">
     <g id="line2d_7">
      <path d="M 482.869447 387.100937 
L 482.869447 23.220937 
" clip-path="url(#pa225f24f96)" style="fill: none; stroke-dasharray: 2.96,1.28; stroke-dashoffset: 0; stroke: #b0b0b0; stroke-opacity: 0.5; stroke-width: 0.8"/>
     </g>
     <g id="line2d_8">
      <g>
       <use xlink:href="#m4c8a74662f" x="482.869447" y="387.100937" style="stroke: #000000; stroke-width: 0.8"/>
      </g>
     </g>
     <g id="text_4">
      <!-- 300 -->
      <g transform="translate(474.528041 401.25875) scale(0.1 -0.1)">
       <defs>
        <path id="ArialMT-33" d="M 269 1209 
L 831 1284 
Q 928 806 1161 595 
Q 1394 384 1728 384 
Q 2125 384 2398 659 
Q 2672 934 2672 1341 
Q 2672 1728 2419 1979 
Q 2166 2231 1775 2231 
Q 1616 2231 1378 2169 
L 1441 2663 
Q 1497 2656 1531 2656 
Q 1891 2656 2178 2843 
Q 2466 3031 2466 3422 
Q 2466 3731 2256 3934 
Q 2047 4138 1716 4138 
Q 1388 4138 1169 3931 
Q 950 3725 888 3313 
L 325 3413 
Q 428 3978 793 4289 
Q 1159 4600 1703 4600 
Q 2078 4600 2393 4439 
Q 2709 4278 2876 4000 
Q 3044 3722 3044 3409 
Q 3044 3113 2884 2869 
Q 2725 2625 2413 2481 
Q 2819 2388 3044 2092 
Q 3269 1797 3269 1353 
Q 3269 753 2831 336 
Q 2394 -81 1725 -81 
Q 1122 -81 723 278 
Q 325 638 269 1209 
z
" transform="scale(0.015625)"/>
       </defs>
       <use xlink:href="#ArialMT-33"/>
       <use xlink:href="#ArialMT-30" transform="translate(55.615234 0)"/>
       <use xlink:href="#ArialMT-30" transform="translate(111.230469 0)"/>
      </g>
     </g>
    </g>
    <g id="xtick_5">
     <g id="line2d_9">
      <path d="M 629.473429 387.100937 
L 629.473429 23.220937 
" clip-path="url(#pa225f24f96)" style="fill: none; stroke-dasharray: 2.96,1.28; stroke-dashoffset: 0; stroke: #b0b0b0; stroke-opacity: 0.5; stroke-width: 0.8"/>
     </g>
     <g id="line2d_10">
      <g>
       <use xlink:href="#m4c8a74662f" x="629.473429" y="387.100937" style="stroke: #000000; stroke-width: 0.8"/>
      </g>
     </g>
     <g id="text_5">
      <!-- 400 -->
      <g transform="translate(621.132023 401.25875) scale(0.1 -0.1)">
       <defs>
        <path id="ArialMT-34" d="M 2069 0 
L 2069 1097 
L 81 1097 
L 81 1613 
L 2172 4581 
L 2631 4581 
L 2631 1613 
L 3250 1613 
L 3250 1097 
L 2631 1097 
L 2631 0 
L 2069 0 
z
M 2069 1613 
L 2069 3678 
L 634 1613 
L 2069 1613 
z
" transform="scale(0.015625)"/>
       </defs>
       <use xlink:href="#ArialMT-34"/>
       <use xlink:href="#ArialMT-30" transform="translate(55.615234 0)"/>
       <use xlink:href="#ArialMT-30" transform="translate(111.230469 0)"/>
      </g>
     </g>
    </g>
    <g id="text_6">
     <!-- k (Threshold Index) -->
     <g transform="translate(319.048438 415.981875) scale(0.12 -0.12)">
      <defs>
       <path id="Arial-BoldMT-6b" d="M 428 0 
L 428 4581 
L 1306 4581 
L 1306 2150 
L 2334 3319 
L 3416 3319 
L 2281 2106 
L 3497 0 
L 2550 0 
L 1716 1491 
L 1306 1063 
L 1306 0 
L 428 0 
z
" transform="scale(0.015625)"/>
       <path id="Arial-BoldMT-20" transform="scale(0.015625)"/>
       <path id="Arial-BoldMT-28" d="M 1916 -1347 
L 1313 -1347 
Q 834 -625 584 153 
Q 334 931 334 1659 
Q 334 2563 644 3369 
Q 913 4069 1325 4659 
L 1925 4659 
Q 1497 3713 1336 3048 
Q 1175 2384 1175 1641 
Q 1175 1128 1270 590 
Q 1366 53 1531 -431 
Q 1641 -750 1916 -1347 
z
" transform="scale(0.015625)"/>
       <path id="Arial-BoldMT-54" d="M 1497 0 
L 1497 3806 
L 138 3806 
L 138 4581 
L 3778 4581 
L 3778 3806 
L 2422 3806 
L 2422 0 
L 1497 0 
z
" transform="scale(0.015625)"/>
       <path id="Arial-BoldMT-68" d="M 1334 4581 
L 1334 2897 
Q 1759 3394 2350 3394 
Q 2653 3394 2897 3281 
Q 3141 3169 3264 2994 
Q 3388 2819 3433 2606 
Q 3478 2394 3478 1947 
L 3478 0 
L 2600 0 
L 2600 1753 
Q 2600 2275 2550 2415 
Q 2500 2556 2373 2639 
Q 2247 2722 2056 2722 
Q 1838 2722 1666 2615 
Q 1494 2509 1414 2295 
Q 1334 2081 1334 1663 
L 1334 0 
L 456 0 
L 456 4581 
L 1334 4581 
z
" transform="scale(0.015625)"/>
       <path id="Arial-BoldMT-72" d="M 1300 0 
L 422 0 
L 422 3319 
L 1238 3319 
L 1238 2847 
Q 1447 3181 1614 3287 
Q 1781 3394 1994 3394 
Q 2294 3394 2572 3228 
L 2300 2463 
Q 2078 2606 1888 2606 
Q 1703 2606 1575 2504 
Q 1447 2403 1373 2137 
Q 1300 1872 1300 1025 
L 1300 0 
z
" transform="scale(0.015625)"/>
       <path id="Arial-BoldMT-65" d="M 2381 1056 
L 3256 909 
Q 3088 428 2723 176 
Q 2359 -75 1813 -75 
Q 947 -75 531 491 
Q 203 944 203 1634 
Q 203 2459 634 2926 
Q 1066 3394 1725 3394 
Q 2466 3394 2894 2905 
Q 3322 2416 3303 1406 
L 1103 1406 
Q 1113 1016 1316 798 
Q 1519 581 1822 581 
Q 2028 581 2168 693 
Q 2309 806 2381 1056 
z
M 2431 1944 
Q 2422 2325 2234 2523 
Q 2047 2722 1778 2722 
Q 1491 2722 1303 2513 
Q 1116 2303 1119 1944 
L 2431 1944 
z
" transform="scale(0.015625)"/>
       <path id="Arial-BoldMT-73" d="M 150 947 
L 1031 1081 
Q 1088 825 1259 692 
Q 1431 559 1741 559 
Q 2081 559 2253 684 
Q 2369 772 2369 919 
Q 2369 1019 2306 1084 
Q 2241 1147 2013 1200 
Q 950 1434 666 1628 
Q 272 1897 272 2375 
Q 272 2806 612 3100 
Q 953 3394 1669 3394 
Q 2350 3394 2681 3172 
Q 3013 2950 3138 2516 
L 2309 2363 
Q 2256 2556 2107 2659 
Q 1959 2763 1684 2763 
Q 1338 2763 1188 2666 
Q 1088 2597 1088 2488 
Q 1088 2394 1175 2328 
Q 1294 2241 1995 2081 
Q 2697 1922 2975 1691 
Q 3250 1456 3250 1038 
Q 3250 581 2869 253 
Q 2488 -75 1741 -75 
Q 1063 -75 667 200 
Q 272 475 150 947 
z
" transform="scale(0.015625)"/>
       <path id="Arial-BoldMT-6f" d="M 256 1706 
Q 256 2144 472 2553 
Q 688 2963 1083 3178 
Q 1478 3394 1966 3394 
Q 2719 3394 3200 2905 
Q 3681 2416 3681 1669 
Q 3681 916 3195 420 
Q 2709 -75 1972 -75 
Q 1516 -75 1102 131 
Q 688 338 472 736 
Q 256 1134 256 1706 
z
M 1156 1659 
Q 1156 1166 1390 903 
Q 1625 641 1969 641 
Q 2313 641 2545 903 
Q 2778 1166 2778 1666 
Q 2778 2153 2545 2415 
Q 2313 2678 1969 2678 
Q 1625 2678 1390 2415 
Q 1156 2153 1156 1659 
z
" transform="scale(0.015625)"/>
       <path id="Arial-BoldMT-6c" d="M 459 0 
L 459 4581 
L 1338 4581 
L 1338 0 
L 459 0 
z
" transform="scale(0.015625)"/>
       <path id="Arial-BoldMT-64" d="M 3503 0 
L 2688 0 
L 2688 488 
Q 2484 203 2207 64 
Q 1931 -75 1650 -75 
Q 1078 -75 670 386 
Q 263 847 263 1672 
Q 263 2516 659 2955 
Q 1056 3394 1663 3394 
Q 2219 3394 2625 2931 
L 2625 4581 
L 3503 4581 
L 3503 0 
z
M 1159 1731 
Q 1159 1200 1306 963 
Q 1519 619 1900 619 
Q 2203 619 2415 876 
Q 2628 1134 2628 1647 
Q 2628 2219 2422 2470 
Q 2216 2722 1894 2722 
Q 1581 2722 1370 2473 
Q 1159 2225 1159 1731 
z
" transform="scale(0.015625)"/>
       <path id="Arial-BoldMT-49" d="M 438 0 
L 438 4581 
L 1363 4581 
L 1363 0 
L 438 0 
z
" transform="scale(0.015625)"/>
       <path id="Arial-BoldMT-6e" d="M 3478 0 
L 2600 0 
L 2600 1694 
Q 2600 2231 2544 2389 
Q 2488 2547 2361 2634 
Q 2234 2722 2056 2722 
Q 1828 2722 1647 2597 
Q 1466 2472 1398 2265 
Q 1331 2059 1331 1503 
L 1331 0 
L 453 0 
L 453 3319 
L 1269 3319 
L 1269 2831 
Q 1703 3394 2363 3394 
Q 2653 3394 2893 3289 
Q 3134 3184 3257 3021 
Q 3381 2859 3429 2653 
Q 3478 2447 3478 2063 
L 3478 0 
z
" transform="scale(0.015625)"/>
       <path id="Arial-BoldMT-78" d="M 38 0 
L 1234 1709 
L 88 3319 
L 1159 3319 
L 1747 2406 
L 2366 3319 
L 3397 3319 
L 2272 1747 
L 3500 0 
L 2422 0 
L 1747 1028 
L 1066 0 
L 38 0 
z
" transform="scale(0.015625)"/>
       <path id="Arial-BoldMT-29" d="M 216 -1347 
Q 475 -791 581 -494 
Q 688 -197 778 190 
Q 869 578 912 926 
Q 956 1275 956 1641 
Q 956 2384 797 3048 
Q 638 3713 209 4659 
L 806 4659 
Q 1278 3988 1539 3234 
Q 1800 2481 1800 1706 
Q 1800 1053 1594 306 
Q 1359 -531 822 -1347 
L 216 -1347 
z
" transform="scale(0.015625)"/>
      </defs>
      <use xlink:href="#Arial-BoldMT-6b"/>
      <use xlink:href="#Arial-BoldMT-20" transform="translate(55.615234 0)"/>
      <use xlink:href="#Arial-BoldMT-28" transform="translate(83.398438 0)"/>
      <use xlink:href="#Arial-BoldMT-54" transform="translate(116.699219 0)"/>
      <use xlink:href="#Arial-BoldMT-68" transform="translate(177.783203 0)"/>
      <use xlink:href="#Arial-BoldMT-72" transform="translate(238.867188 0)"/>
      <use xlink:href="#Arial-BoldMT-65" transform="translate(277.783203 0)"/>
      <use xlink:href="#Arial-BoldMT-73" transform="translate(333.398438 0)"/>
      <use xlink:href="#Arial-BoldMT-68" transform="translate(389.013672 0)"/>
      <use xlink:href="#Arial-BoldMT-6f" transform="translate(450.097656 0)"/>
      <use xlink:href="#Arial-BoldMT-6c" transform="translate(511.181641 0)"/>
      <use xlink:href="#Arial-BoldMT-64" transform="translate(538.964844 0)"/>
      <use xlink:href="#Arial-BoldMT-20" transform="translate(600.048828 0)"/>
      <use xlink:href="#Arial-BoldMT-49" transform="translate(627.832031 0)"/>
      <use xlink:href="#Arial-BoldMT-6e" transform="translate(655.615234 0)"/>
      <use xlink:href="#Arial-BoldMT-64" transform="translate(716.699219 0)"/>
      <use xlink:href="#Arial-BoldMT-65" transform="translate(777.783203 0)"/>
      <use xlink:href="#Arial-BoldMT-78" transform="translate(833.398438 0)"/>
      <use xlink:href="#Arial-BoldMT-29" transform="translate(889.013672 0)"/>
     </g>
    </g>
   </g>
   <g id="matplotlib.axis_2">
    <g id="ytick_1">
     <g id="line2d_11">
      <path d="M 43.0575 387.100937 
L 705.7075 387.100937 
" clip-path="url(#pa225f24f96)" style="fill: none; stroke-dasharray: 2.96,1.28; stroke-dashoffset: 0; stroke: #b0b0b0; stroke-opacity: 0.5; stroke-width: 0.8"/>
     </g>
     <g id="line2d_12">
      <defs>
       <path id="m44def04a27" d="M 0 0 
L -3.5 0 
" style="stroke: #000000; stroke-width: 0.8"/>
      </defs>
      <g>
       <use xlink:href="#m44def04a27" x="43.0575" y="387.100937" style="stroke: #000000; stroke-width: 0.8"/>
      </g>
     </g>
     <g id="text_7">
      <!-- 0.0 -->
      <g transform="translate(22.1575 390.679844) scale(0.1 -0.1)">
       <defs>
        <path id="ArialMT-2e" d="M 581 0 
L 581 641 
L 1222 641 
L 1222 0 
L 581 0 
z
" transform="scale(0.015625)"/>
       </defs>
       <use xlink:href="#ArialMT-30"/>
       <use xlink:href="#ArialMT-2e" transform="translate(55.615234 0)"/>
       <use xlink:href="#ArialMT-30" transform="translate(83.398438 0)"/>
      </g>
     </g>
    </g>
    <g id="ytick_2">
     <g id="line2d_13">
      <path d="M 43.0575 317.790461 
L 705.7075 317.790461 
" clip-path="url(#pa225f24f96)" style="fill: none; stroke-dasharray: 2.96,1.28; stroke-dashoffset: 0; stroke: #b0b0b0; stroke-opacity: 0.5; stroke-width: 0.8"/>
     </g>
     <g id="line2d_14">
      <g>
       <use xlink:href="#m44def04a27" x="43.0575" y="317.790461" style="stroke: #000000; stroke-width: 0.8"/>
      </g>
     </g>
     <g id="text_8">
      <!-- 0.2 -->
      <g transform="translate(22.1575 321.369368) scale(0.1 -0.1)">
       <use xlink:href="#ArialMT-30"/>
       <use xlink:href="#ArialMT-2e" transform="translate(55.615234 0)"/>
       <use xlink:href="#ArialMT-32" transform="translate(83.398438 0)"/>
      </g>
     </g>
    </g>
    <g id="ytick_3">
     <g id="line2d_15">
      <path d="M 43.0575 248.479985 
L 705.7075 248.479985 
" clip-path="url(#pa225f24f96)" style="fill: none; stroke-dasharray: 2.96,1.28; stroke-dashoffset: 0; stroke: #b0b0b0; stroke-opacity: 0.5; stroke-width: 0.8"/>
     </g>
     <g id="line2d_16">
      <g>
       <use xlink:href="#m44def04a27" x="43.0575" y="248.479985" style="stroke: #000000; stroke-width: 0.8"/>
      </g>
     </g>
     <g id="text_9">
      <!-- 0.4 -->
      <g transform="translate(22.1575 252.058891) scale(0.1 -0.1)">
       <use xlink:href="#ArialMT-30"/>
       <use xlink:href="#ArialMT-2e" transform="translate(55.615234 0)"/>
       <use xlink:href="#ArialMT-34" transform="translate(83.398438 0)"/>
      </g>
     </g>
    </g>
    <g id="ytick_4">
     <g id="line2d_17">
      <path d="M 43.0575 179.169509 
L 705.7075 179.169509 
" clip-path="url(#pa225f24f96)" style="fill: none; stroke-dasharray: 2.96,1.28; stroke-dashoffset: 0; stroke: #b0b0b0; stroke-opacity: 0.5; stroke-width: 0.8"/>
     </g>
     <g id="line2d_18">
      <g>
       <use xlink:href="#m44def04a27" x="43.0575" y="179.169509" style="stroke: #000000; stroke-width: 0.8"/>
      </g>
     </g>
     <g id="text_10">
      <!-- 0.6 -->
      <g transform="translate(22.1575 182.748415) scale(0.1 -0.1)">
       <defs>
        <path id="ArialMT-36" d="M 3184 3459 
L 2625 3416 
Q 2550 3747 2413 3897 
Q 2184 4138 1850 4138 
Q 1581 4138 1378 3988 
Q 1113 3794 959 3422 
Q 806 3050 800 2363 
Q 1003 2672 1297 2822 
Q 1591 2972 1913 2972 
Q 2475 2972 2870 2558 
Q 3266 2144 3266 1488 
Q 3266 1056 3080 686 
Q 2894 316 2569 119 
Q 2244 -78 1831 -78 
Q 1128 -78 684 439 
Q 241 956 241 2144 
Q 241 3472 731 4075 
Q 1159 4600 1884 4600 
Q 2425 4600 2770 4297 
Q 3116 3994 3184 3459 
z
M 888 1484 
Q 888 1194 1011 928 
Q 1134 663 1356 523 
Q 1578 384 1822 384 
Q 2178 384 2434 671 
Q 2691 959 2691 1453 
Q 2691 1928 2437 2201 
Q 2184 2475 1800 2475 
Q 1419 2475 1153 2201 
Q 888 1928 888 1484 
z
" transform="scale(0.015625)"/>
       </defs>
       <use xlink:href="#ArialMT-30"/>
       <use xlink:href="#ArialMT-2e" transform="translate(55.615234 0)"/>
       <use xlink:href="#ArialMT-36" transform="translate(83.398438 0)"/>
      </g>
     </g>
    </g>
    <g id="ytick_5">
     <g id="line2d_19">
      <path d="M 43.0575 109.859033 
L 705.7075 109.859033 
" clip-path="url(#pa225f24f96)" style="fill: none; stroke-dasharray: 2.96,1.28; stroke-dashoffset: 0; stroke: #b0b0b0; stroke-opacity: 0.5; stroke-width: 0.8"/>
     </g>
     <g id="line2d_20">
      <g>
       <use xlink:href="#m44def04a27" x="43.0575" y="109.859033" style="stroke: #000000; stroke-width: 0.8"/>
      </g>
     </g>
     <g id="text_11">
      <!-- 0.8 -->
      <g transform="translate(22.1575 113.437939) scale(0.1 -0.1)">
       <defs>
        <path id="ArialMT-38" d="M 1131 2484 
Q 781 2613 612 2850 
Q 444 3088 444 3419 
Q 444 3919 803 4259 
Q 1163 4600 1759 4600 
Q 2359 4600 2725 4251 
Q 3091 3903 3091 3403 
Q 3091 3084 2923 2848 
Q 2756 2613 2416 2484 
Q 2838 2347 3058 2040 
Q 3278 1734 3278 1309 
Q 3278 722 2862 322 
Q 2447 -78 1769 -78 
Q 1091 -78 675 323 
Q 259 725 259 1325 
Q 259 1772 486 2073 
Q 713 2375 1131 2484 
z
M 1019 3438 
Q 1019 3113 1228 2906 
Q 1438 2700 1772 2700 
Q 2097 2700 2305 2904 
Q 2513 3109 2513 3406 
Q 2513 3716 2298 3927 
Q 2084 4138 1766 4138 
Q 1444 4138 1231 3931 
Q 1019 3725 1019 3438 
z
M 838 1322 
Q 838 1081 952 856 
Q 1066 631 1291 507 
Q 1516 384 1775 384 
Q 2178 384 2440 643 
Q 2703 903 2703 1303 
Q 2703 1709 2433 1975 
Q 2163 2241 1756 2241 
Q 1359 2241 1098 1978 
Q 838 1716 838 1322 
z
" transform="scale(0.015625)"/>
       </defs>
       <use xlink:href="#ArialMT-30"/>
       <use xlink:href="#ArialMT-2e" transform="translate(55.615234 0)"/>
       <use xlink:href="#ArialMT-38" transform="translate(83.398438 0)"/>
      </g>
     </g>
    </g>
    <g id="ytick_6">
     <g id="line2d_21">
      <path d="M 43.0575 40.548557 
L 705.7075 40.548557 
" clip-path="url(#pa225f24f96)" style="fill: none; stroke-dasharray: 2.96,1.28; stroke-dashoffset: 0; stroke: #b0b0b0; stroke-opacity: 0.5; stroke-width: 0.8"/>
     </g>
     <g id="line2d_22">
      <g>
       <use xlink:href="#m44def04a27" x="43.0575" y="40.548557" style="stroke: #000000; stroke-width: 0.8"/>
      </g>
     </g>
     <g id="text_12">
      <!-- 1.0 -->
      <g transform="translate(22.1575 44.127463) scale(0.1 -0.1)">
       <use xlink:href="#ArialMT-31"/>
       <use xlink:href="#ArialMT-2e" transform="translate(55.615234 0)"/>
       <use xlink:href="#ArialMT-30" transform="translate(83.398438 0)"/>
      </g>
     </g>
    </g>
    <g id="text_13">
     <!-- Recall -->
     <g transform="translate(15.789375 222.8375) rotate(-90) scale(0.12 -0.12)">
      <defs>
       <path id="Arial-BoldMT-52" d="M 469 0 
L 469 4581 
L 2416 4581 
Q 3150 4581 3483 4457 
Q 3816 4334 4016 4018 
Q 4216 3703 4216 3297 
Q 4216 2781 3912 2445 
Q 3609 2109 3006 2022 
Q 3306 1847 3501 1637 
Q 3697 1428 4028 894 
L 4588 0 
L 3481 0 
L 2813 997 
Q 2456 1531 2325 1670 
Q 2194 1809 2047 1861 
Q 1900 1913 1581 1913 
L 1394 1913 
L 1394 0 
L 469 0 
z
M 1394 2644 
L 2078 2644 
Q 2744 2644 2909 2700 
Q 3075 2756 3169 2893 
Q 3263 3031 3263 3238 
Q 3263 3469 3139 3611 
Q 3016 3753 2791 3791 
Q 2678 3806 2116 3806 
L 1394 3806 
L 1394 2644 
z
" transform="scale(0.015625)"/>
       <path id="Arial-BoldMT-63" d="M 3353 2338 
L 2488 2181 
Q 2444 2441 2289 2572 
Q 2134 2703 1888 2703 
Q 1559 2703 1364 2476 
Q 1169 2250 1169 1719 
Q 1169 1128 1367 884 
Q 1566 641 1900 641 
Q 2150 641 2309 783 
Q 2469 925 2534 1272 
L 3397 1125 
Q 3263 531 2881 228 
Q 2500 -75 1859 -75 
Q 1131 -75 698 384 
Q 266 844 266 1656 
Q 266 2478 700 2936 
Q 1134 3394 1875 3394 
Q 2481 3394 2839 3133 
Q 3197 2872 3353 2338 
z
" transform="scale(0.015625)"/>
       <path id="Arial-BoldMT-61" d="M 1116 2306 
L 319 2450 
Q 453 2931 781 3162 
Q 1109 3394 1756 3394 
Q 2344 3394 2631 3255 
Q 2919 3116 3036 2902 
Q 3153 2688 3153 2116 
L 3144 1091 
Q 3144 653 3186 445 
Q 3228 238 3344 0 
L 2475 0 
Q 2441 88 2391 259 
Q 2369 338 2359 363 
Q 2134 144 1878 34 
Q 1622 -75 1331 -75 
Q 819 -75 523 203 
Q 228 481 228 906 
Q 228 1188 362 1408 
Q 497 1628 739 1745 
Q 981 1863 1438 1950 
Q 2053 2066 2291 2166 
L 2291 2253 
Q 2291 2506 2166 2614 
Q 2041 2722 1694 2722 
Q 1459 2722 1328 2630 
Q 1197 2538 1116 2306 
z
M 2291 1594 
Q 2122 1538 1756 1459 
Q 1391 1381 1278 1306 
Q 1106 1184 1106 997 
Q 1106 813 1243 678 
Q 1381 544 1594 544 
Q 1831 544 2047 700 
Q 2206 819 2256 991 
Q 2291 1103 2291 1419 
L 2291 1594 
z
" transform="scale(0.015625)"/>
      </defs>
      <use xlink:href="#Arial-BoldMT-52"/>
      <use xlink:href="#Arial-BoldMT-65" transform="translate(72.216797 0)"/>
      <use xlink:href="#Arial-BoldMT-63" transform="translate(127.832031 0)"/>
      <use xlink:href="#Arial-BoldMT-61" transform="translate(183.447266 0)"/>
      <use xlink:href="#Arial-BoldMT-6c" transform="translate(239.0625 0)"/>
      <use xlink:href="#Arial-BoldMT-6c" transform="translate(266.845703 0)"/>
     </g>
    </g>
   </g>
   <g id="line2d_23">
    <path d="M 44.52354 381.850144 
L 45.98958 376.59935 
L 48.921659 376.59935 
L 51.853739 366.097763 
L 53.319779 366.097763 
L 54.785819 360.846969 
L 56.251858 360.846969 
L 62.116018 339.843795 
L 63.582058 339.843795 
L 65.048097 334.593001 
L 67.980177 334.593001 
L 70.912257 324.091414 
L 75.310376 324.091414 
L 84.106615 292.586652 
L 85.572655 292.586652 
L 88.504735 282.085064 
L 89.970774 282.085064 
L 92.902854 271.583477 
L 95.834934 271.583477 
L 97.300973 266.332684 
L 100.233053 266.332684 
L 101.699093 261.08189 
L 106.097212 261.08189 
L 107.563252 255.831096 
L 111.961372 255.831096 
L 113.427412 250.580303 
L 117.825531 250.580303 
L 119.291571 245.329509 
L 122.22365 245.329509 
L 128.08781 224.326334 
L 131.019889 224.326334 
L 132.485929 219.075541 
L 133.951969 219.075541 
L 135.418009 213.824747 
L 138.350088 213.824747 
L 139.816128 208.573953 
L 145.680288 208.573953 
L 147.146327 203.32316 
L 151.544447 203.32316 
L 154.476527 192.821572 
L 155.942566 192.821572 
L 157.408606 187.570779 
L 172.069004 187.570779 
L 175.001084 177.069191 
L 182.331283 177.069191 
L 183.797323 171.818398 
L 189.661482 171.818398 
L 191.127522 166.567604 
L 192.593562 166.567604 
L 195.525642 156.066017 
L 223.380398 156.066017 
L 224.846438 150.815223 
L 236.574757 150.815223 
L 238.040796 145.56443 
L 243.904956 145.56443 
L 245.370996 140.313636 
L 248.303075 140.313636 
L 249.769115 135.062842 
L 262.963473 135.062842 
L 264.429513 129.812049 
L 268.827633 129.812049 
L 270.293673 124.561255 
L 292.28427 124.561255 
L 293.75031 119.310461 
L 309.876748 119.310461 
L 311.342788 114.059668 
L 318.672987 114.059668 
L 320.139027 108.808874 
L 323.071106 108.808874 
L 324.537146 103.55808 
L 337.731504 103.55808 
L 340.663584 93.056493 
L 343.595664 93.056493 
L 345.061704 87.805699 
L 353.857942 87.805699 
L 355.323982 82.554906 
L 356.790022 82.554906 
L 358.256062 77.304112 
L 405.169336 77.304112 
L 406.635376 72.053318 
L 411.033496 72.053318 
L 412.499535 66.802525 
L 482.869447 66.802525 
L 484.335487 61.551731 
L 589.890354 61.551731 
L 591.356394 56.300937 
L 616.279071 56.300937 
L 617.745111 51.050144 
L 660.260265 51.050144 
L 661.726305 45.79935 
L 670.522544 45.79935 
L 671.988584 40.548557 
L 705.7075 40.548557 
L 705.7075 40.548557 
" clip-path="url(#pa225f24f96)" style="fill: none; stroke: #1f77b4; stroke-width: 2; stroke-linecap: square"/>
    <defs>
     <path id="m87e50d2a81" d="M 0 1.5 
C 0.397805 1.5 0.77937 1.341951 1.06066 1.06066 
C 1.341951 0.77937 1.5 0.397805 1.5 0 
C 1.5 -0.397805 1.341951 -0.77937 1.06066 -1.06066 
C 0.77937 -1.341951 0.397805 -1.5 0 -1.5 
C -0.397805 -1.5 -0.77937 -1.341951 -1.06066 -1.06066 
C -1.341951 -0.77937 -1.5 -0.397805 -1.5 0 
C -1.5 0.397805 -1.341951 0.77937 -1.06066 1.06066 
C -0.77937 1.341951 -0.397805 1.5 0 1.5 
z
" style="stroke: #1f77b4"/>
    </defs>
    <g clip-path="url(#pa225f24f96)">
     <use xlink:href="#m87e50d2a81" x="44.52354" y="381.850144" style="fill: #1f77b4; stroke: #1f77b4"/>
     <use xlink:href="#m87e50d2a81" x="60.649978" y="345.094588" style="fill: #1f77b4; stroke: #1f77b4"/>
     <use xlink:href="#m87e50d2a81" x="76.776416" y="318.84062" style="fill: #1f77b4; stroke: #1f77b4"/>
     <use xlink:href="#m87e50d2a81" x="92.902854" y="271.583477" style="fill: #1f77b4; stroke: #1f77b4"/>
     <use xlink:href="#m87e50d2a81" x="109.029292" y="255.831096" style="fill: #1f77b4; stroke: #1f77b4"/>
     <use xlink:href="#m87e50d2a81" x="125.15573" y="234.827922" style="fill: #1f77b4; stroke: #1f77b4"/>
     <use xlink:href="#m87e50d2a81" x="141.282168" y="208.573953" style="fill: #1f77b4; stroke: #1f77b4"/>
     <use xlink:href="#m87e50d2a81" x="157.408606" y="187.570779" style="fill: #1f77b4; stroke: #1f77b4"/>
     <use xlink:href="#m87e50d2a81" x="173.535044" y="182.319985" style="fill: #1f77b4; stroke: #1f77b4"/>
     <use xlink:href="#m87e50d2a81" x="189.661482" y="171.818398" style="fill: #1f77b4; stroke: #1f77b4"/>
     <use xlink:href="#m87e50d2a81" x="205.78792" y="156.066017" style="fill: #1f77b4; stroke: #1f77b4"/>
     <use xlink:href="#m87e50d2a81" x="221.914358" y="156.066017" style="fill: #1f77b4; stroke: #1f77b4"/>
     <use xlink:href="#m87e50d2a81" x="238.040796" y="145.56443" style="fill: #1f77b4; stroke: #1f77b4"/>
     <use xlink:href="#m87e50d2a81" x="254.167235" y="135.062842" style="fill: #1f77b4; stroke: #1f77b4"/>
     <use xlink:href="#m87e50d2a81" x="270.293673" y="124.561255" style="fill: #1f77b4; stroke: #1f77b4"/>
     <use xlink:href="#m87e50d2a81" x="286.420111" y="124.561255" style="fill: #1f77b4; stroke: #1f77b4"/>
     <use xlink:href="#m87e50d2a81" x="302.546549" y="119.310461" style="fill: #1f77b4; stroke: #1f77b4"/>
     <use xlink:href="#m87e50d2a81" x="318.672987" y="114.059668" style="fill: #1f77b4; stroke: #1f77b4"/>
     <use xlink:href="#m87e50d2a81" x="334.799425" y="103.55808" style="fill: #1f77b4; stroke: #1f77b4"/>
     <use xlink:href="#m87e50d2a81" x="350.925863" y="87.805699" style="fill: #1f77b4; stroke: #1f77b4"/>
     <use xlink:href="#m87e50d2a81" x="367.052301" y="77.304112" style="fill: #1f77b4; stroke: #1f77b4"/>
     <use xlink:href="#m87e50d2a81" x="383.178739" y="77.304112" style="fill: #1f77b4; stroke: #1f77b4"/>
     <use xlink:href="#m87e50d2a81" x="399.305177" y="77.304112" style="fill: #1f77b4; stroke: #1f77b4"/>
     <use xlink:href="#m87e50d2a81" x="415.431615" y="66.802525" style="fill: #1f77b4; stroke: #1f77b4"/>
     <use xlink:href="#m87e50d2a81" x="431.558053" y="66.802525" style="fill: #1f77b4; stroke: #1f77b4"/>
     <use xlink:href="#m87e50d2a81" x="447.684491" y="66.802525" style="fill: #1f77b4; stroke: #1f77b4"/>
     <use xlink:href="#m87e50d2a81" x="463.810929" y="66.802525" style="fill: #1f77b4; stroke: #1f77b4"/>
     <use xlink:href="#m87e50d2a81" x="479.937367" y="66.802525" style="fill: #1f77b4; stroke: #1f77b4"/>
     <use xlink:href="#m87e50d2a81" x="496.063805" y="61.551731" style="fill: #1f77b4; stroke: #1f77b4"/>
     <use xlink:href="#m87e50d2a81" x="512.190243" y="61.551731" style="fill: #1f77b4; stroke: #1f77b4"/>
     <use xlink:href="#m87e50d2a81" x="528.316681" y="61.551731" style="fill: #1f77b4; stroke: #1f77b4"/>
     <use xlink:href="#m87e50d2a81" x="544.443119" y="61.551731" style="fill: #1f77b4; stroke: #1f77b4"/>
     <use xlink:href="#m87e50d2a81" x="560.569558" y="61.551731" style="fill: #1f77b4; stroke: #1f77b4"/>
     <use xlink:href="#m87e50d2a81" x="576.695996" y="61.551731" style="fill: #1f77b4; stroke: #1f77b4"/>
     <use xlink:href="#m87e50d2a81" x="592.822434" y="56.300937" style="fill: #1f77b4; stroke: #1f77b4"/>
     <use xlink:href="#m87e50d2a81" x="608.948872" y="56.300937" style="fill: #1f77b4; stroke: #1f77b4"/>
     <use xlink:href="#m87e50d2a81" x="625.07531" y="51.050144" style="fill: #1f77b4; stroke: #1f77b4"/>
     <use xlink:href="#m87e50d2a81" x="641.201748" y="51.050144" style="fill: #1f77b4; stroke: #1f77b4"/>
     <use xlink:href="#m87e50d2a81" x="657.328186" y="51.050144" style="fill: #1f77b4; stroke: #1f77b4"/>
     <use xlink:href="#m87e50d2a81" x="673.454624" y="40.548557" style="fill: #1f77b4; stroke: #1f77b4"/>
     <use xlink:href="#m87e50d2a81" x="689.581062" y="40.548557" style="fill: #1f77b4; stroke: #1f77b4"/>
     <use xlink:href="#m87e50d2a81" x="705.7075" y="40.548557" style="fill: #1f77b4; stroke: #1f77b4"/>
    </g>
   </g>
   <g id="line2d_24">
    <path d="M 44.52354 381.850144 
L 45.98958 381.850144 
L 50.387699 366.097763 
L 51.853739 366.097763 
L 53.319779 360.846969 
L 54.785819 360.846969 
L 57.717898 350.345382 
L 63.582058 350.345382 
L 73.844336 313.589826 
L 76.776416 313.589826 
L 79.708496 303.088239 
L 84.106615 303.088239 
L 85.572655 297.837445 
L 92.902854 297.837445 
L 94.368894 292.586652 
L 95.834934 292.586652 
L 97.300973 287.335858 
L 98.767013 287.335858 
L 100.233053 282.085064 
L 103.165133 282.085064 
L 104.631173 276.834271 
L 106.097212 276.834271 
L 113.427412 250.580303 
L 114.893451 250.580303 
L 117.825531 240.078715 
L 120.757611 240.078715 
L 122.22365 234.827922 
L 135.418009 234.827922 
L 141.282168 213.824747 
L 145.680288 213.824747 
L 148.612367 203.32316 
L 154.476527 203.32316 
L 155.942566 198.072366 
L 160.340686 198.072366 
L 164.738805 182.319985 
L 173.535044 182.319985 
L 175.001084 177.069191 
L 194.059602 177.069191 
L 196.991681 166.567604 
L 199.923761 166.567604 
L 201.389801 161.316811 
L 224.846438 161.316811 
L 226.312478 156.066017 
L 233.642677 156.066017 
L 235.108717 150.815223 
L 240.972876 150.815223 
L 245.370996 135.062842 
L 255.633274 135.062842 
L 257.099314 129.812049 
L 282.021991 129.812049 
L 284.954071 119.310461 
L 302.546549 119.310461 
L 305.478628 108.808874 
L 306.944668 108.808874 
L 308.410708 103.55808 
L 346.527743 103.55808 
L 347.993783 98.307287 
L 349.459823 98.307287 
L 350.925863 93.056493 
L 365.586261 93.056493 
L 367.052301 87.805699 
L 375.84854 87.805699 
L 377.31458 82.554906 
L 378.780619 82.554906 
L 380.246659 77.304112 
L 413.965575 77.304112 
L 415.431615 72.053318 
L 447.684491 72.053318 
L 449.150531 66.802525 
L 487.267566 66.802525 
L 488.733606 61.551731 
L 516.588363 61.551731 
L 518.054403 56.300937 
L 540.045 56.300937 
L 541.51104 51.050144 
L 591.356394 51.050144 
L 592.822434 45.79935 
L 671.988584 45.79935 
L 673.454624 40.548557 
L 705.7075 40.548557 
L 705.7075 40.548557 
" clip-path="url(#pa225f24f96)" style="fill: none; stroke: #ff7f0e; stroke-width: 2; stroke-linecap: square"/>
    <defs>
     <path id="m2d76363491" d="M 0 1.5 
C 0.397805 1.5 0.77937 1.341951 1.06066 1.06066 
C 1.341951 0.77937 1.5 0.397805 1.5 0 
C 1.5 -0.397805 1.341951 -0.77937 1.06066 -1.06066 
C 0.77937 -1.341951 0.397805 -1.5 0 -1.5 
C -0.397805 -1.5 -0.77937 -1.341951 -1.06066 -1.06066 
C -1.341951 -0.77937 -1.5 -0.397805 -1.5 0 
C -1.5 0.397805 -1.341951 0.77937 -1.06066 1.06066 
C -0.77937 1.341951 -0.397805 1.5 0 1.5 
z
" style="stroke: #ff7f0e"/>
    </defs>
    <g clip-path="url(#pa225f24f96)">
     <use xlink:href="#m2d76363491" x="44.52354" y="381.850144" style="fill: #ff7f0e; stroke: #ff7f0e"/>
     <use xlink:href="#m2d76363491" x="60.649978" y="350.345382" style="fill: #ff7f0e; stroke: #ff7f0e"/>
     <use xlink:href="#m2d76363491" x="76.776416" y="313.589826" style="fill: #ff7f0e; stroke: #ff7f0e"/>
     <use xlink:href="#m2d76363491" x="92.902854" y="297.837445" style="fill: #ff7f0e; stroke: #ff7f0e"/>
     <use xlink:href="#m2d76363491" x="109.029292" y="266.332684" style="fill: #ff7f0e; stroke: #ff7f0e"/>
     <use xlink:href="#m2d76363491" x="125.15573" y="234.827922" style="fill: #ff7f0e; stroke: #ff7f0e"/>
     <use xlink:href="#m2d76363491" x="141.282168" y="213.824747" style="fill: #ff7f0e; stroke: #ff7f0e"/>
     <use xlink:href="#m2d76363491" x="157.408606" y="198.072366" style="fill: #ff7f0e; stroke: #ff7f0e"/>
     <use xlink:href="#m2d76363491" x="173.535044" y="182.319985" style="fill: #ff7f0e; stroke: #ff7f0e"/>
     <use xlink:href="#m2d76363491" x="189.661482" y="177.069191" style="fill: #ff7f0e; stroke: #ff7f0e"/>
     <use xlink:href="#m2d76363491" x="205.78792" y="161.316811" style="fill: #ff7f0e; stroke: #ff7f0e"/>
     <use xlink:href="#m2d76363491" x="221.914358" y="161.316811" style="fill: #ff7f0e; stroke: #ff7f0e"/>
     <use xlink:href="#m2d76363491" x="238.040796" y="150.815223" style="fill: #ff7f0e; stroke: #ff7f0e"/>
     <use xlink:href="#m2d76363491" x="254.167235" y="135.062842" style="fill: #ff7f0e; stroke: #ff7f0e"/>
     <use xlink:href="#m2d76363491" x="270.293673" y="129.812049" style="fill: #ff7f0e; stroke: #ff7f0e"/>
     <use xlink:href="#m2d76363491" x="286.420111" y="119.310461" style="fill: #ff7f0e; stroke: #ff7f0e"/>
     <use xlink:href="#m2d76363491" x="302.546549" y="119.310461" style="fill: #ff7f0e; stroke: #ff7f0e"/>
     <use xlink:href="#m2d76363491" x="318.672987" y="103.55808" style="fill: #ff7f0e; stroke: #ff7f0e"/>
     <use xlink:href="#m2d76363491" x="334.799425" y="103.55808" style="fill: #ff7f0e; stroke: #ff7f0e"/>
     <use xlink:href="#m2d76363491" x="350.925863" y="93.056493" style="fill: #ff7f0e; stroke: #ff7f0e"/>
     <use xlink:href="#m2d76363491" x="367.052301" y="87.805699" style="fill: #ff7f0e; stroke: #ff7f0e"/>
     <use xlink:href="#m2d76363491" x="383.178739" y="77.304112" style="fill: #ff7f0e; stroke: #ff7f0e"/>
     <use xlink:href="#m2d76363491" x="399.305177" y="77.304112" style="fill: #ff7f0e; stroke: #ff7f0e"/>
     <use xlink:href="#m2d76363491" x="415.431615" y="72.053318" style="fill: #ff7f0e; stroke: #ff7f0e"/>
     <use xlink:href="#m2d76363491" x="431.558053" y="72.053318" style="fill: #ff7f0e; stroke: #ff7f0e"/>
     <use xlink:href="#m2d76363491" x="447.684491" y="72.053318" style="fill: #ff7f0e; stroke: #ff7f0e"/>
     <use xlink:href="#m2d76363491" x="463.810929" y="66.802525" style="fill: #ff7f0e; stroke: #ff7f0e"/>
     <use xlink:href="#m2d76363491" x="479.937367" y="66.802525" style="fill: #ff7f0e; stroke: #ff7f0e"/>
     <use xlink:href="#m2d76363491" x="496.063805" y="61.551731" style="fill: #ff7f0e; stroke: #ff7f0e"/>
     <use xlink:href="#m2d76363491" x="512.190243" y="61.551731" style="fill: #ff7f0e; stroke: #ff7f0e"/>
     <use xlink:href="#m2d76363491" x="528.316681" y="56.300937" style="fill: #ff7f0e; stroke: #ff7f0e"/>
     <use xlink:href="#m2d76363491" x="544.443119" y="51.050144" style="fill: #ff7f0e; stroke: #ff7f0e"/>
     <use xlink:href="#m2d76363491" x="560.569558" y="51.050144" style="fill: #ff7f0e; stroke: #ff7f0e"/>
     <use xlink:href="#m2d76363491" x="576.695996" y="51.050144" style="fill: #ff7f0e; stroke: #ff7f0e"/>
     <use xlink:href="#m2d76363491" x="592.822434" y="45.79935" style="fill: #ff7f0e; stroke: #ff7f0e"/>
     <use xlink:href="#m2d76363491" x="608.948872" y="45.79935" style="fill: #ff7f0e; stroke: #ff7f0e"/>
     <use xlink:href="#m2d76363491" x="625.07531" y="45.79935" style="fill: #ff7f0e; stroke: #ff7f0e"/>
     <use xlink:href="#m2d76363491" x="641.201748" y="45.79935" style="fill: #ff7f0e; stroke: #ff7f0e"/>
     <use xlink:href="#m2d76363491" x="657.328186" y="45.79935" style="fill: #ff7f0e; stroke: #ff7f0e"/>
     <use xlink:href="#m2d76363491" x="673.454624" y="40.548557" style="fill: #ff7f0e; stroke: #ff7f0e"/>
     <use xlink:href="#m2d76363491" x="689.581062" y="40.548557" style="fill: #ff7f0e; stroke: #ff7f0e"/>
     <use xlink:href="#m2d76363491" x="705.7075" y="40.548557" style="fill: #ff7f0e; stroke: #ff7f0e"/>
    </g>
   </g>
   <g id="line2d_25">
    <path d="M 44.52354 381.850144 
L 53.319779 381.850144 
L 54.785819 376.59935 
L 60.649978 376.59935 
L 62.116018 371.348557 
L 63.582058 371.348557 
L 65.048097 366.097763 
L 69.446217 366.097763 
L 70.912257 360.846969 
L 73.844336 360.846969 
L 75.310376 355.596176 
L 82.640575 355.596176 
L 85.572655 345.094588 
L 92.902854 345.094588 
L 95.834934 334.593001 
L 101.699093 334.593001 
L 103.165133 329.342207 
L 109.029292 329.342207 
L 110.495332 324.091414 
L 120.757611 324.091414 
L 122.22365 318.84062 
L 128.08781 318.84062 
L 129.55385 313.589826 
L 135.418009 313.589826 
L 136.884049 308.339033 
L 142.748208 308.339033 
L 144.214248 303.088239 
L 148.612367 303.088239 
L 150.078407 297.837445 
L 154.476527 297.837445 
L 155.942566 292.586652 
L 164.738805 292.586652 
L 167.670885 282.085064 
L 173.535044 282.085064 
L 175.001084 276.834271 
L 176.467124 276.834271 
L 179.399204 266.332684 
L 204.321881 266.332684 
L 205.78792 261.08189 
L 218.982279 261.08189 
L 221.914358 250.580303 
L 249.769115 250.580303 
L 251.235155 245.329509 
L 254.167235 245.329509 
L 255.633274 240.078715 
L 262.963473 240.078715 
L 264.429513 234.827922 
L 265.895553 234.827922 
L 267.361593 229.577128 
L 283.488031 229.577128 
L 284.954071 224.326334 
L 301.080509 224.326334 
L 302.546549 219.075541 
L 304.012588 219.075541 
L 305.478628 213.824747 
L 312.808827 213.824747 
L 314.274867 208.573953 
L 326.003186 208.573953 
L 327.469226 203.32316 
L 330.401305 203.32316 
L 331.867345 198.072366 
L 339.197544 198.072366 
L 340.663584 192.821572 
L 377.31458 192.821572 
L 378.780619 187.570779 
L 394.907058 187.570779 
L 397.839137 177.069191 
L 411.033496 177.069191 
L 412.499535 171.818398 
L 416.897655 171.818398 
L 419.829735 161.316811 
L 422.761814 161.316811 
L 424.227854 156.066017 
L 440.354292 156.066017 
L 441.820332 150.815223 
L 444.752412 150.815223 
L 446.218451 145.56443 
L 452.082611 145.56443 
L 453.54865 140.313636 
L 456.48073 140.313636 
L 457.94677 135.062842 
L 459.41281 135.062842 
L 460.87885 129.812049 
L 472.607168 129.812049 
L 474.073208 124.561255 
L 479.937367 124.561255 
L 481.403407 119.310461 
L 494.597765 119.310461 
L 496.063805 114.059668 
L 498.995885 114.059668 
L 500.461925 108.808874 
L 519.520442 108.808874 
L 520.986482 103.55808 
L 559.103518 103.55808 
L 560.569558 98.307287 
L 576.695996 98.307287 
L 578.162035 93.056493 
L 581.094115 93.056493 
L 582.560155 87.805699 
L 610.414912 87.805699 
L 613.346991 77.304112 
L 628.007389 77.304112 
L 629.473429 72.053318 
L 670.522544 72.053318 
L 673.454624 61.551731 
L 674.920664 61.551731 
L 676.386704 56.300937 
L 683.716903 56.300937 
L 685.182942 51.050144 
L 699.843341 51.050144 
L 702.77542 40.548557 
L 705.7075 40.548557 
L 705.7075 40.548557 
" clip-path="url(#pa225f24f96)" style="fill: none; stroke: #2ca02c; stroke-width: 2; stroke-linecap: square"/>
    <defs>
     <path id="mab97929ac6" d="M 0 1.5 
C 0.397805 1.5 0.77937 1.341951 1.06066 1.06066 
C 1.341951 0.77937 1.5 0.397805 1.5 0 
C 1.5 -0.397805 1.341951 -0.77937 1.06066 -1.06066 
C 0.77937 -1.341951 0.397805 -1.5 0 -1.5 
C -0.397805 -1.5 -0.77937 -1.341951 -1.06066 -1.06066 
C -1.341951 -0.77937 -1.5 -0.397805 -1.5 0 
C -1.5 0.397805 -1.341951 0.77937 -1.06066 1.06066 
C -0.77937 1.341951 -0.397805 1.5 0 1.5 
z
" style="stroke: #2ca02c"/>
    </defs>
    <g clip-path="url(#pa225f24f96)">
     <use xlink:href="#mab97929ac6" x="44.52354" y="381.850144" style="fill: #2ca02c; stroke: #2ca02c"/>
     <use xlink:href="#mab97929ac6" x="60.649978" y="376.59935" style="fill: #2ca02c; stroke: #2ca02c"/>
     <use xlink:href="#mab97929ac6" x="76.776416" y="355.596176" style="fill: #2ca02c; stroke: #2ca02c"/>
     <use xlink:href="#mab97929ac6" x="92.902854" y="345.094588" style="fill: #2ca02c; stroke: #2ca02c"/>
     <use xlink:href="#mab97929ac6" x="109.029292" y="329.342207" style="fill: #2ca02c; stroke: #2ca02c"/>
     <use xlink:href="#mab97929ac6" x="125.15573" y="318.84062" style="fill: #2ca02c; stroke: #2ca02c"/>
     <use xlink:href="#mab97929ac6" x="141.282168" y="308.339033" style="fill: #2ca02c; stroke: #2ca02c"/>
     <use xlink:href="#mab97929ac6" x="157.408606" y="292.586652" style="fill: #2ca02c; stroke: #2ca02c"/>
     <use xlink:href="#mab97929ac6" x="173.535044" y="282.085064" style="fill: #2ca02c; stroke: #2ca02c"/>
     <use xlink:href="#mab97929ac6" x="189.661482" y="266.332684" style="fill: #2ca02c; stroke: #2ca02c"/>
     <use xlink:href="#mab97929ac6" x="205.78792" y="261.08189" style="fill: #2ca02c; stroke: #2ca02c"/>
     <use xlink:href="#mab97929ac6" x="221.914358" y="250.580303" style="fill: #2ca02c; stroke: #2ca02c"/>
     <use xlink:href="#mab97929ac6" x="238.040796" y="250.580303" style="fill: #2ca02c; stroke: #2ca02c"/>
     <use xlink:href="#mab97929ac6" x="254.167235" y="245.329509" style="fill: #2ca02c; stroke: #2ca02c"/>
     <use xlink:href="#mab97929ac6" x="270.293673" y="229.577128" style="fill: #2ca02c; stroke: #2ca02c"/>
     <use xlink:href="#mab97929ac6" x="286.420111" y="224.326334" style="fill: #2ca02c; stroke: #2ca02c"/>
     <use xlink:href="#mab97929ac6" x="302.546549" y="219.075541" style="fill: #2ca02c; stroke: #2ca02c"/>
     <use xlink:href="#mab97929ac6" x="318.672987" y="208.573953" style="fill: #2ca02c; stroke: #2ca02c"/>
     <use xlink:href="#mab97929ac6" x="334.799425" y="198.072366" style="fill: #2ca02c; stroke: #2ca02c"/>
     <use xlink:href="#mab97929ac6" x="350.925863" y="192.821572" style="fill: #2ca02c; stroke: #2ca02c"/>
     <use xlink:href="#mab97929ac6" x="367.052301" y="192.821572" style="fill: #2ca02c; stroke: #2ca02c"/>
     <use xlink:href="#mab97929ac6" x="383.178739" y="187.570779" style="fill: #2ca02c; stroke: #2ca02c"/>
     <use xlink:href="#mab97929ac6" x="399.305177" y="177.069191" style="fill: #2ca02c; stroke: #2ca02c"/>
     <use xlink:href="#mab97929ac6" x="415.431615" y="171.818398" style="fill: #2ca02c; stroke: #2ca02c"/>
     <use xlink:href="#mab97929ac6" x="431.558053" y="156.066017" style="fill: #2ca02c; stroke: #2ca02c"/>
     <use xlink:href="#mab97929ac6" x="447.684491" y="145.56443" style="fill: #2ca02c; stroke: #2ca02c"/>
     <use xlink:href="#mab97929ac6" x="463.810929" y="129.812049" style="fill: #2ca02c; stroke: #2ca02c"/>
     <use xlink:href="#mab97929ac6" x="479.937367" y="124.561255" style="fill: #2ca02c; stroke: #2ca02c"/>
     <use xlink:href="#mab97929ac6" x="496.063805" y="114.059668" style="fill: #2ca02c; stroke: #2ca02c"/>
     <use xlink:href="#mab97929ac6" x="512.190243" y="108.808874" style="fill: #2ca02c; stroke: #2ca02c"/>
     <use xlink:href="#mab97929ac6" x="528.316681" y="103.55808" style="fill: #2ca02c; stroke: #2ca02c"/>
     <use xlink:href="#mab97929ac6" x="544.443119" y="103.55808" style="fill: #2ca02c; stroke: #2ca02c"/>
     <use xlink:href="#mab97929ac6" x="560.569558" y="98.307287" style="fill: #2ca02c; stroke: #2ca02c"/>
     <use xlink:href="#mab97929ac6" x="576.695996" y="98.307287" style="fill: #2ca02c; stroke: #2ca02c"/>
     <use xlink:href="#mab97929ac6" x="592.822434" y="87.805699" style="fill: #2ca02c; stroke: #2ca02c"/>
     <use xlink:href="#mab97929ac6" x="608.948872" y="87.805699" style="fill: #2ca02c; stroke: #2ca02c"/>
     <use xlink:href="#mab97929ac6" x="625.07531" y="77.304112" style="fill: #2ca02c; stroke: #2ca02c"/>
     <use xlink:href="#mab97929ac6" x="641.201748" y="72.053318" style="fill: #2ca02c; stroke: #2ca02c"/>
     <use xlink:href="#mab97929ac6" x="657.328186" y="72.053318" style="fill: #2ca02c; stroke: #2ca02c"/>
     <use xlink:href="#mab97929ac6" x="673.454624" y="61.551731" style="fill: #2ca02c; stroke: #2ca02c"/>
     <use xlink:href="#mab97929ac6" x="689.581062" y="51.050144" style="fill: #2ca02c; stroke: #2ca02c"/>
     <use xlink:href="#mab97929ac6" x="705.7075" y="40.548557" style="fill: #2ca02c; stroke: #2ca02c"/>
    </g>
   </g>
   <g id="line2d_26">
    <path d="M 44.52354 381.850144 
L 45.98958 376.59935 
L 47.455619 376.59935 
L 48.921659 371.348557 
L 50.387699 371.348557 
L 54.785819 355.596176 
L 60.649978 355.596176 
L 63.582058 345.094588 
L 65.048097 345.094588 
L 70.912257 324.091414 
L 72.378296 324.091414 
L 73.844336 318.84062 
L 75.310376 318.84062 
L 76.776416 313.589826 
L 78.242456 313.589826 
L 79.708496 308.339033 
L 81.174535 308.339033 
L 84.106615 297.837445 
L 85.572655 297.837445 
L 87.038695 292.586652 
L 89.970774 292.586652 
L 94.368894 276.834271 
L 95.834934 276.834271 
L 97.300973 271.583477 
L 100.233053 271.583477 
L 101.699093 266.332684 
L 103.165133 266.332684 
L 106.097212 255.831096 
L 107.563252 255.831096 
L 110.495332 245.329509 
L 111.961372 245.329509 
L 114.893451 234.827922 
L 126.62177 234.827922 
L 128.08781 229.577128 
L 131.019889 229.577128 
L 132.485929 224.326334 
L 133.951969 224.326334 
L 136.884049 213.824747 
L 138.350088 213.824747 
L 141.282168 203.32316 
L 150.078407 203.32316 
L 151.544447 198.072366 
L 163.272765 198.072366 
L 164.738805 192.821572 
L 166.204845 192.821572 
L 167.670885 187.570779 
L 175.001084 187.570779 
L 176.467124 182.319985 
L 180.865243 182.319985 
L 182.331283 177.069191 
L 208.72 177.069191 
L 210.18604 171.818398 
L 211.65208 171.818398 
L 213.118119 166.567604 
L 214.584159 166.567604 
L 216.050199 161.316811 
L 226.312478 161.316811 
L 227.778518 156.066017 
L 233.642677 156.066017 
L 235.108717 150.815223 
L 249.769115 150.815223 
L 251.235155 145.56443 
L 257.099314 145.56443 
L 258.565354 140.313636 
L 261.497434 140.313636 
L 262.963473 135.062842 
L 265.895553 135.062842 
L 267.361593 129.812049 
L 268.827633 129.812049 
L 270.293673 124.561255 
L 280.555951 124.561255 
L 282.021991 119.310461 
L 305.478628 119.310461 
L 306.944668 114.059668 
L 308.410708 114.059668 
L 309.876748 108.808874 
L 311.342788 108.808874 
L 312.808827 103.55808 
L 356.790022 103.55808 
L 358.256062 98.307287 
L 405.169336 98.307287 
L 406.635376 93.056493 
L 409.567456 93.056493 
L 411.033496 87.805699 
L 443.286372 87.805699 
L 444.752412 82.554906 
L 453.54865 82.554906 
L 455.01469 77.304112 
L 456.48073 77.304112 
L 457.94677 72.053318 
L 478.471327 72.053318 
L 479.937367 66.802525 
L 515.122323 66.802525 
L 516.588363 61.551731 
L 528.316681 61.551731 
L 529.782721 56.300937 
L 540.045 56.300937 
L 541.51104 51.050144 
L 639.735708 51.050144 
L 641.201748 45.79935 
L 667.590465 45.79935 
L 669.056504 40.548557 
L 705.7075 40.548557 
L 705.7075 40.548557 
" clip-path="url(#pa225f24f96)" style="fill: none; stroke: #9467bd; stroke-width: 2; stroke-linecap: square"/>
    <defs>
     <path id="m98ebc3b0a8" d="M 0 1.5 
C 0.397805 1.5 0.77937 1.341951 1.06066 1.06066 
C 1.341951 0.77937 1.5 0.397805 1.5 0 
C 1.5 -0.397805 1.341951 -0.77937 1.06066 -1.06066 
C 0.77937 -1.341951 0.397805 -1.5 0 -1.5 
C -0.397805 -1.5 -0.77937 -1.341951 -1.06066 -1.06066 
C -1.341951 -0.77937 -1.5 -0.397805 -1.5 0 
C -1.5 0.397805 -1.341951 0.77937 -1.06066 1.06066 
C -0.77937 1.341951 -0.397805 1.5 0 1.5 
z
" style="stroke: #9467bd"/>
    </defs>
    <g clip-path="url(#pa225f24f96)">
     <use xlink:href="#m98ebc3b0a8" x="44.52354" y="381.850144" style="fill: #9467bd; stroke: #9467bd"/>
     <use xlink:href="#m98ebc3b0a8" x="60.649978" y="355.596176" style="fill: #9467bd; stroke: #9467bd"/>
     <use xlink:href="#m98ebc3b0a8" x="76.776416" y="313.589826" style="fill: #9467bd; stroke: #9467bd"/>
     <use xlink:href="#m98ebc3b0a8" x="92.902854" y="282.085064" style="fill: #9467bd; stroke: #9467bd"/>
     <use xlink:href="#m98ebc3b0a8" x="109.029292" y="250.580303" style="fill: #9467bd; stroke: #9467bd"/>
     <use xlink:href="#m98ebc3b0a8" x="125.15573" y="234.827922" style="fill: #9467bd; stroke: #9467bd"/>
     <use xlink:href="#m98ebc3b0a8" x="141.282168" y="203.32316" style="fill: #9467bd; stroke: #9467bd"/>
     <use xlink:href="#m98ebc3b0a8" x="157.408606" y="198.072366" style="fill: #9467bd; stroke: #9467bd"/>
     <use xlink:href="#m98ebc3b0a8" x="173.535044" y="187.570779" style="fill: #9467bd; stroke: #9467bd"/>
     <use xlink:href="#m98ebc3b0a8" x="189.661482" y="177.069191" style="fill: #9467bd; stroke: #9467bd"/>
     <use xlink:href="#m98ebc3b0a8" x="205.78792" y="177.069191" style="fill: #9467bd; stroke: #9467bd"/>
     <use xlink:href="#m98ebc3b0a8" x="221.914358" y="161.316811" style="fill: #9467bd; stroke: #9467bd"/>
     <use xlink:href="#m98ebc3b0a8" x="238.040796" y="150.815223" style="fill: #9467bd; stroke: #9467bd"/>
     <use xlink:href="#m98ebc3b0a8" x="254.167235" y="145.56443" style="fill: #9467bd; stroke: #9467bd"/>
     <use xlink:href="#m98ebc3b0a8" x="270.293673" y="124.561255" style="fill: #9467bd; stroke: #9467bd"/>
     <use xlink:href="#m98ebc3b0a8" x="286.420111" y="119.310461" style="fill: #9467bd; stroke: #9467bd"/>
     <use xlink:href="#m98ebc3b0a8" x="302.546549" y="119.310461" style="fill: #9467bd; stroke: #9467bd"/>
     <use xlink:href="#m98ebc3b0a8" x="318.672987" y="103.55808" style="fill: #9467bd; stroke: #9467bd"/>
     <use xlink:href="#m98ebc3b0a8" x="334.799425" y="103.55808" style="fill: #9467bd; stroke: #9467bd"/>
     <use xlink:href="#m98ebc3b0a8" x="350.925863" y="103.55808" style="fill: #9467bd; stroke: #9467bd"/>
     <use xlink:href="#m98ebc3b0a8" x="367.052301" y="98.307287" style="fill: #9467bd; stroke: #9467bd"/>
     <use xlink:href="#m98ebc3b0a8" x="383.178739" y="98.307287" style="fill: #9467bd; stroke: #9467bd"/>
     <use xlink:href="#m98ebc3b0a8" x="399.305177" y="98.307287" style="fill: #9467bd; stroke: #9467bd"/>
     <use xlink:href="#m98ebc3b0a8" x="415.431615" y="87.805699" style="fill: #9467bd; stroke: #9467bd"/>
     <use xlink:href="#m98ebc3b0a8" x="431.558053" y="87.805699" style="fill: #9467bd; stroke: #9467bd"/>
     <use xlink:href="#m98ebc3b0a8" x="447.684491" y="82.554906" style="fill: #9467bd; stroke: #9467bd"/>
     <use xlink:href="#m98ebc3b0a8" x="463.810929" y="72.053318" style="fill: #9467bd; stroke: #9467bd"/>
     <use xlink:href="#m98ebc3b0a8" x="479.937367" y="66.802525" style="fill: #9467bd; stroke: #9467bd"/>
     <use xlink:href="#m98ebc3b0a8" x="496.063805" y="66.802525" style="fill: #9467bd; stroke: #9467bd"/>
     <use xlink:href="#m98ebc3b0a8" x="512.190243" y="66.802525" style="fill: #9467bd; stroke: #9467bd"/>
     <use xlink:href="#m98ebc3b0a8" x="528.316681" y="61.551731" style="fill: #9467bd; stroke: #9467bd"/>
     <use xlink:href="#m98ebc3b0a8" x="544.443119" y="51.050144" style="fill: #9467bd; stroke: #9467bd"/>
     <use xlink:href="#m98ebc3b0a8" x="560.569558" y="51.050144" style="fill: #9467bd; stroke: #9467bd"/>
     <use xlink:href="#m98ebc3b0a8" x="576.695996" y="51.050144" style="fill: #9467bd; stroke: #9467bd"/>
     <use xlink:href="#m98ebc3b0a8" x="592.822434" y="51.050144" style="fill: #9467bd; stroke: #9467bd"/>
     <use xlink:href="#m98ebc3b0a8" x="608.948872" y="51.050144" style="fill: #9467bd; stroke: #9467bd"/>
     <use xlink:href="#m98ebc3b0a8" x="625.07531" y="51.050144" style="fill: #9467bd; stroke: #9467bd"/>
     <use xlink:href="#m98ebc3b0a8" x="641.201748" y="45.79935" style="fill: #9467bd; stroke: #9467bd"/>
     <use xlink:href="#m98ebc3b0a8" x="657.328186" y="45.79935" style="fill: #9467bd; stroke: #9467bd"/>
     <use xlink:href="#m98ebc3b0a8" x="673.454624" y="40.548557" style="fill: #9467bd; stroke: #9467bd"/>
     <use xlink:href="#m98ebc3b0a8" x="689.581062" y="40.548557" style="fill: #9467bd; stroke: #9467bd"/>
     <use xlink:href="#m98ebc3b0a8" x="705.7075" y="40.548557" style="fill: #9467bd; stroke: #9467bd"/>
    </g>
   </g>
   <g id="line2d_27">
    <path d="M 44.52354 387.100937 
L 45.98958 381.850144 
L 47.455619 381.850144 
L 48.921659 376.59935 
L 53.319779 376.59935 
L 56.251858 366.097763 
L 57.717898 366.097763 
L 60.649978 355.596176 
L 69.446217 355.596176 
L 76.776416 329.342207 
L 81.174535 329.342207 
L 82.640575 324.091414 
L 85.572655 324.091414 
L 88.504735 313.589826 
L 92.902854 313.589826 
L 94.368894 308.339033 
L 100.233053 308.339033 
L 101.699093 303.088239 
L 106.097212 303.088239 
L 107.563252 297.837445 
L 110.495332 297.837445 
L 111.961372 292.586652 
L 113.427412 292.586652 
L 119.291571 271.583477 
L 122.22365 271.583477 
L 126.62177 255.831096 
L 136.884049 255.831096 
L 138.350088 250.580303 
L 139.816128 250.580303 
L 142.748208 240.078715 
L 145.680288 240.078715 
L 147.146327 234.827922 
L 153.010487 234.827922 
L 154.476527 229.577128 
L 157.408606 229.577128 
L 160.340686 219.075541 
L 163.272765 219.075541 
L 164.738805 213.824747 
L 166.204845 213.824747 
L 167.670885 208.573953 
L 173.535044 208.573953 
L 175.001084 203.32316 
L 179.399204 203.32316 
L 180.865243 198.072366 
L 183.797323 198.072366 
L 185.263363 192.821572 
L 189.661482 192.821572 
L 191.127522 187.570779 
L 192.593562 187.570779 
L 194.059602 182.319985 
L 210.18604 182.319985 
L 211.65208 177.069191 
L 221.914358 177.069191 
L 223.380398 171.818398 
L 242.438916 171.818398 
L 243.904956 166.567604 
L 249.769115 166.567604 
L 251.235155 161.316811 
L 260.031394 161.316811 
L 262.963473 150.815223 
L 265.895553 150.815223 
L 268.827633 140.313636 
L 279.089912 140.313636 
L 280.555951 135.062842 
L 282.021991 135.062842 
L 283.488031 129.812049 
L 287.88615 129.812049 
L 289.35219 124.561255 
L 308.410708 124.561255 
L 309.876748 119.310461 
L 317.206947 119.310461 
L 318.672987 114.059668 
L 342.129624 114.059668 
L 343.595664 108.808874 
L 345.061704 108.808874 
L 346.527743 103.55808 
L 352.391903 103.55808 
L 353.857942 98.307287 
L 362.654181 98.307287 
L 364.120221 93.056493 
L 365.586261 93.056493 
L 367.052301 87.805699 
L 372.91646 87.805699 
L 374.3825 82.554906 
L 391.974978 82.554906 
L 393.441018 77.304112 
L 397.839137 77.304112 
L 399.305177 72.053318 
L 402.237257 72.053318 
L 403.703296 66.802525 
L 412.499535 66.802525 
L 413.965575 61.551731 
L 437.422212 61.551731 
L 438.888252 56.300937 
L 441.820332 56.300937 
L 443.286372 51.050144 
L 544.443119 51.050144 
L 545.909159 45.79935 
L 584.026195 45.79935 
L 585.492235 40.548557 
L 705.7075 40.548557 
L 705.7075 40.548557 
" clip-path="url(#pa225f24f96)" style="fill: none; stroke: #8c564b; stroke-width: 2; stroke-linecap: square"/>
    <defs>
     <path id="m6f6331532d" d="M 0 1.5 
C 0.397805 1.5 0.77937 1.341951 1.06066 1.06066 
C 1.341951 0.77937 1.5 0.397805 1.5 0 
C 1.5 -0.397805 1.341951 -0.77937 1.06066 -1.06066 
C 0.77937 -1.341951 0.397805 -1.5 0 -1.5 
C -0.397805 -1.5 -0.77937 -1.341951 -1.06066 -1.06066 
C -1.341951 -0.77937 -1.5 -0.397805 -1.5 0 
C -1.5 0.397805 -1.341951 0.77937 -1.06066 1.06066 
C -0.77937 1.341951 -0.397805 1.5 0 1.5 
z
" style="stroke: #8c564b"/>
    </defs>
    <g clip-path="url(#pa225f24f96)">
     <use xlink:href="#m6f6331532d" x="44.52354" y="387.100937" style="fill: #8c564b; stroke: #8c564b"/>
     <use xlink:href="#m6f6331532d" x="60.649978" y="355.596176" style="fill: #8c564b; stroke: #8c564b"/>
     <use xlink:href="#m6f6331532d" x="76.776416" y="329.342207" style="fill: #8c564b; stroke: #8c564b"/>
     <use xlink:href="#m6f6331532d" x="92.902854" y="313.589826" style="fill: #8c564b; stroke: #8c564b"/>
     <use xlink:href="#m6f6331532d" x="109.029292" y="297.837445" style="fill: #8c564b; stroke: #8c564b"/>
     <use xlink:href="#m6f6331532d" x="125.15573" y="261.08189" style="fill: #8c564b; stroke: #8c564b"/>
     <use xlink:href="#m6f6331532d" x="141.282168" y="245.329509" style="fill: #8c564b; stroke: #8c564b"/>
     <use xlink:href="#m6f6331532d" x="157.408606" y="229.577128" style="fill: #8c564b; stroke: #8c564b"/>
     <use xlink:href="#m6f6331532d" x="173.535044" y="208.573953" style="fill: #8c564b; stroke: #8c564b"/>
     <use xlink:href="#m6f6331532d" x="189.661482" y="192.821572" style="fill: #8c564b; stroke: #8c564b"/>
     <use xlink:href="#m6f6331532d" x="205.78792" y="182.319985" style="fill: #8c564b; stroke: #8c564b"/>
     <use xlink:href="#m6f6331532d" x="221.914358" y="177.069191" style="fill: #8c564b; stroke: #8c564b"/>
     <use xlink:href="#m6f6331532d" x="238.040796" y="171.818398" style="fill: #8c564b; stroke: #8c564b"/>
     <use xlink:href="#m6f6331532d" x="254.167235" y="161.316811" style="fill: #8c564b; stroke: #8c564b"/>
     <use xlink:href="#m6f6331532d" x="270.293673" y="140.313636" style="fill: #8c564b; stroke: #8c564b"/>
     <use xlink:href="#m6f6331532d" x="286.420111" y="129.812049" style="fill: #8c564b; stroke: #8c564b"/>
     <use xlink:href="#m6f6331532d" x="302.546549" y="124.561255" style="fill: #8c564b; stroke: #8c564b"/>
     <use xlink:href="#m6f6331532d" x="318.672987" y="114.059668" style="fill: #8c564b; stroke: #8c564b"/>
     <use xlink:href="#m6f6331532d" x="334.799425" y="114.059668" style="fill: #8c564b; stroke: #8c564b"/>
     <use xlink:href="#m6f6331532d" x="350.925863" y="103.55808" style="fill: #8c564b; stroke: #8c564b"/>
     <use xlink:href="#m6f6331532d" x="367.052301" y="87.805699" style="fill: #8c564b; stroke: #8c564b"/>
     <use xlink:href="#m6f6331532d" x="383.178739" y="82.554906" style="fill: #8c564b; stroke: #8c564b"/>
     <use xlink:href="#m6f6331532d" x="399.305177" y="72.053318" style="fill: #8c564b; stroke: #8c564b"/>
     <use xlink:href="#m6f6331532d" x="415.431615" y="61.551731" style="fill: #8c564b; stroke: #8c564b"/>
     <use xlink:href="#m6f6331532d" x="431.558053" y="61.551731" style="fill: #8c564b; stroke: #8c564b"/>
     <use xlink:href="#m6f6331532d" x="447.684491" y="51.050144" style="fill: #8c564b; stroke: #8c564b"/>
     <use xlink:href="#m6f6331532d" x="463.810929" y="51.050144" style="fill: #8c564b; stroke: #8c564b"/>
     <use xlink:href="#m6f6331532d" x="479.937367" y="51.050144" style="fill: #8c564b; stroke: #8c564b"/>
     <use xlink:href="#m6f6331532d" x="496.063805" y="51.050144" style="fill: #8c564b; stroke: #8c564b"/>
     <use xlink:href="#m6f6331532d" x="512.190243" y="51.050144" style="fill: #8c564b; stroke: #8c564b"/>
     <use xlink:href="#m6f6331532d" x="528.316681" y="51.050144" style="fill: #8c564b; stroke: #8c564b"/>
     <use xlink:href="#m6f6331532d" x="544.443119" y="51.050144" style="fill: #8c564b; stroke: #8c564b"/>
     <use xlink:href="#m6f6331532d" x="560.569558" y="45.79935" style="fill: #8c564b; stroke: #8c564b"/>
     <use xlink:href="#m6f6331532d" x="576.695996" y="45.79935" style="fill: #8c564b; stroke: #8c564b"/>
     <use xlink:href="#m6f6331532d" x="592.822434" y="40.548557" style="fill: #8c564b; stroke: #8c564b"/>
     <use xlink:href="#m6f6331532d" x="608.948872" y="40.548557" style="fill: #8c564b; stroke: #8c564b"/>
     <use xlink:href="#m6f6331532d" x="625.07531" y="40.548557" style="fill: #8c564b; stroke: #8c564b"/>
     <use xlink:href="#m6f6331532d" x="641.201748" y="40.548557" style="fill: #8c564b; stroke: #8c564b"/>
     <use xlink:href="#m6f6331532d" x="657.328186" y="40.548557" style="fill: #8c564b; stroke: #8c564b"/>
     <use xlink:href="#m6f6331532d" x="673.454624" y="40.548557" style="fill: #8c564b; stroke: #8c564b"/>
     <use xlink:href="#m6f6331532d" x="689.581062" y="40.548557" style="fill: #8c564b; stroke: #8c564b"/>
     <use xlink:href="#m6f6331532d" x="705.7075" y="40.548557" style="fill: #8c564b; stroke: #8c564b"/>
    </g>
   </g>
   <g id="line2d_28">
    <path d="M 44.52354 381.850144 
L 45.98958 381.850144 
L 48.921659 371.348557 
L 51.853739 371.348557 
L 56.251858 355.596176 
L 59.183938 355.596176 
L 63.582058 339.843795 
L 69.446217 339.843795 
L 70.912257 334.593001 
L 73.844336 334.593001 
L 75.310376 329.342207 
L 79.708496 329.342207 
L 81.174535 324.091414 
L 89.970774 324.091414 
L 91.436814 318.84062 
L 92.902854 318.84062 
L 94.368894 313.589826 
L 95.834934 313.589826 
L 101.699093 292.586652 
L 106.097212 292.586652 
L 107.563252 287.335858 
L 109.029292 287.335858 
L 110.495332 282.085064 
L 113.427412 282.085064 
L 114.893451 276.834271 
L 117.825531 276.834271 
L 119.291571 271.583477 
L 122.22365 271.583477 
L 125.15573 261.08189 
L 126.62177 261.08189 
L 128.08781 255.831096 
L 135.418009 255.831096 
L 136.884049 250.580303 
L 138.350088 250.580303 
L 141.282168 240.078715 
L 144.214248 240.078715 
L 145.680288 234.827922 
L 150.078407 234.827922 
L 151.544447 229.577128 
L 155.942566 229.577128 
L 157.408606 224.326334 
L 158.874646 224.326334 
L 160.340686 219.075541 
L 167.670885 219.075541 
L 169.136925 213.824747 
L 170.602965 213.824747 
L 172.069004 208.573953 
L 175.001084 208.573953 
L 176.467124 203.32316 
L 182.331283 203.32316 
L 185.263363 192.821572 
L 188.195442 192.821572 
L 189.661482 187.570779 
L 191.127522 187.570779 
L 192.593562 182.319985 
L 195.525642 182.319985 
L 196.991681 177.069191 
L 205.78792 177.069191 
L 207.25396 171.818398 
L 210.18604 171.818398 
L 211.65208 166.567604 
L 213.118119 166.567604 
L 214.584159 161.316811 
L 252.701195 161.316811 
L 254.167235 156.066017 
L 257.099314 156.066017 
L 258.565354 150.815223 
L 261.497434 150.815223 
L 262.963473 145.56443 
L 271.759712 145.56443 
L 273.225752 140.313636 
L 274.691792 140.313636 
L 276.157832 135.062842 
L 308.410708 135.062842 
L 311.342788 124.561255 
L 330.401305 124.561255 
L 333.333385 114.059668 
L 334.799425 114.059668 
L 336.265465 108.808874 
L 350.925863 108.808874 
L 352.391903 103.55808 
L 367.052301 103.55808 
L 368.518341 98.307287 
L 381.712699 98.307287 
L 384.644779 87.805699 
L 402.237257 87.805699 
L 403.703296 82.554906 
L 419.829735 82.554906 
L 421.295774 77.304112 
L 428.625973 77.304112 
L 430.092013 72.053318 
L 501.927965 72.053318 
L 503.394004 66.802525 
L 551.773319 66.802525 
L 553.239358 61.551731 
L 569.365796 61.551731 
L 570.831836 56.300937 
L 592.822434 56.300937 
L 594.288473 51.050144 
L 613.346991 51.050144 
L 614.813031 45.79935 
L 685.182942 45.79935 
L 686.648982 40.548557 
L 705.7075 40.548557 
L 705.7075 40.548557 
" clip-path="url(#pa225f24f96)" style="fill: none; stroke: #e377c2; stroke-width: 2; stroke-linecap: square"/>
    <defs>
     <path id="mdd29fd4f3c" d="M 0 1.5 
C 0.397805 1.5 0.77937 1.341951 1.06066 1.06066 
C 1.341951 0.77937 1.5 0.397805 1.5 0 
C 1.5 -0.397805 1.341951 -0.77937 1.06066 -1.06066 
C 0.77937 -1.341951 0.397805 -1.5 0 -1.5 
C -0.397805 -1.5 -0.77937 -1.341951 -1.06066 -1.06066 
C -1.341951 -0.77937 -1.5 -0.397805 -1.5 0 
C -1.5 0.397805 -1.341951 0.77937 -1.06066 1.06066 
C -0.77937 1.341951 -0.397805 1.5 0 1.5 
z
" style="stroke: #e377c2"/>
    </defs>
    <g clip-path="url(#pa225f24f96)">
     <use xlink:href="#mdd29fd4f3c" x="44.52354" y="381.850144" style="fill: #e377c2; stroke: #e377c2"/>
     <use xlink:href="#mdd29fd4f3c" x="60.649978" y="350.345382" style="fill: #e377c2; stroke: #e377c2"/>
     <use xlink:href="#mdd29fd4f3c" x="76.776416" y="329.342207" style="fill: #e377c2; stroke: #e377c2"/>
     <use xlink:href="#mdd29fd4f3c" x="92.902854" y="318.84062" style="fill: #e377c2; stroke: #e377c2"/>
     <use xlink:href="#mdd29fd4f3c" x="109.029292" y="287.335858" style="fill: #e377c2; stroke: #e377c2"/>
     <use xlink:href="#mdd29fd4f3c" x="125.15573" y="261.08189" style="fill: #e377c2; stroke: #e377c2"/>
     <use xlink:href="#mdd29fd4f3c" x="141.282168" y="240.078715" style="fill: #e377c2; stroke: #e377c2"/>
     <use xlink:href="#mdd29fd4f3c" x="157.408606" y="224.326334" style="fill: #e377c2; stroke: #e377c2"/>
     <use xlink:href="#mdd29fd4f3c" x="173.535044" y="208.573953" style="fill: #e377c2; stroke: #e377c2"/>
     <use xlink:href="#mdd29fd4f3c" x="189.661482" y="187.570779" style="fill: #e377c2; stroke: #e377c2"/>
     <use xlink:href="#mdd29fd4f3c" x="205.78792" y="177.069191" style="fill: #e377c2; stroke: #e377c2"/>
     <use xlink:href="#mdd29fd4f3c" x="221.914358" y="161.316811" style="fill: #e377c2; stroke: #e377c2"/>
     <use xlink:href="#mdd29fd4f3c" x="238.040796" y="161.316811" style="fill: #e377c2; stroke: #e377c2"/>
     <use xlink:href="#mdd29fd4f3c" x="254.167235" y="156.066017" style="fill: #e377c2; stroke: #e377c2"/>
     <use xlink:href="#mdd29fd4f3c" x="270.293673" y="145.56443" style="fill: #e377c2; stroke: #e377c2"/>
     <use xlink:href="#mdd29fd4f3c" x="286.420111" y="135.062842" style="fill: #e377c2; stroke: #e377c2"/>
     <use xlink:href="#mdd29fd4f3c" x="302.546549" y="135.062842" style="fill: #e377c2; stroke: #e377c2"/>
     <use xlink:href="#mdd29fd4f3c" x="318.672987" y="124.561255" style="fill: #e377c2; stroke: #e377c2"/>
     <use xlink:href="#mdd29fd4f3c" x="334.799425" y="114.059668" style="fill: #e377c2; stroke: #e377c2"/>
     <use xlink:href="#mdd29fd4f3c" x="350.925863" y="108.808874" style="fill: #e377c2; stroke: #e377c2"/>
     <use xlink:href="#mdd29fd4f3c" x="367.052301" y="103.55808" style="fill: #e377c2; stroke: #e377c2"/>
     <use xlink:href="#mdd29fd4f3c" x="383.178739" y="93.056493" style="fill: #e377c2; stroke: #e377c2"/>
     <use xlink:href="#mdd29fd4f3c" x="399.305177" y="87.805699" style="fill: #e377c2; stroke: #e377c2"/>
     <use xlink:href="#mdd29fd4f3c" x="415.431615" y="82.554906" style="fill: #e377c2; stroke: #e377c2"/>
     <use xlink:href="#mdd29fd4f3c" x="431.558053" y="72.053318" style="fill: #e377c2; stroke: #e377c2"/>
     <use xlink:href="#mdd29fd4f3c" x="447.684491" y="72.053318" style="fill: #e377c2; stroke: #e377c2"/>
     <use xlink:href="#mdd29fd4f3c" x="463.810929" y="72.053318" style="fill: #e377c2; stroke: #e377c2"/>
     <use xlink:href="#mdd29fd4f3c" x="479.937367" y="72.053318" style="fill: #e377c2; stroke: #e377c2"/>
     <use xlink:href="#mdd29fd4f3c" x="496.063805" y="72.053318" style="fill: #e377c2; stroke: #e377c2"/>
     <use xlink:href="#mdd29fd4f3c" x="512.190243" y="66.802525" style="fill: #e377c2; stroke: #e377c2"/>
     <use xlink:href="#mdd29fd4f3c" x="528.316681" y="66.802525" style="fill: #e377c2; stroke: #e377c2"/>
     <use xlink:href="#mdd29fd4f3c" x="544.443119" y="66.802525" style="fill: #e377c2; stroke: #e377c2"/>
     <use xlink:href="#mdd29fd4f3c" x="560.569558" y="61.551731" style="fill: #e377c2; stroke: #e377c2"/>
     <use xlink:href="#mdd29fd4f3c" x="576.695996" y="56.300937" style="fill: #e377c2; stroke: #e377c2"/>
     <use xlink:href="#mdd29fd4f3c" x="592.822434" y="56.300937" style="fill: #e377c2; stroke: #e377c2"/>
     <use xlink:href="#mdd29fd4f3c" x="608.948872" y="51.050144" style="fill: #e377c2; stroke: #e377c2"/>
     <use xlink:href="#mdd29fd4f3c" x="625.07531" y="45.79935" style="fill: #e377c2; stroke: #e377c2"/>
     <use xlink:href="#mdd29fd4f3c" x="641.201748" y="45.79935" style="fill: #e377c2; stroke: #e377c2"/>
     <use xlink:href="#mdd29fd4f3c" x="657.328186" y="45.79935" style="fill: #e377c2; stroke: #e377c2"/>
     <use xlink:href="#mdd29fd4f3c" x="673.454624" y="45.79935" style="fill: #e377c2; stroke: #e377c2"/>
     <use xlink:href="#mdd29fd4f3c" x="689.581062" y="40.548557" style="fill: #e377c2; stroke: #e377c2"/>
     <use xlink:href="#mdd29fd4f3c" x="705.7075" y="40.548557" style="fill: #e377c2; stroke: #e377c2"/>
    </g>
   </g>
   <g id="line2d_29">
    <path d="M 44.52354 381.850144 
L 45.98958 381.850144 
L 51.853739 360.846969 
L 54.785819 360.846969 
L 59.183938 345.094588 
L 60.649978 345.094588 
L 62.116018 339.843795 
L 65.048097 339.843795 
L 67.980177 329.342207 
L 70.912257 329.342207 
L 76.776416 308.339033 
L 78.242456 308.339033 
L 79.708496 303.088239 
L 81.174535 303.088239 
L 85.572655 287.335858 
L 87.038695 287.335858 
L 94.368894 261.08189 
L 95.834934 261.08189 
L 98.767013 250.580303 
L 103.165133 250.580303 
L 104.631173 245.329509 
L 111.961372 245.329509 
L 113.427412 240.078715 
L 116.359491 240.078715 
L 117.825531 234.827922 
L 123.68969 234.827922 
L 125.15573 229.577128 
L 126.62177 229.577128 
L 128.08781 224.326334 
L 142.748208 224.326334 
L 145.680288 213.824747 
L 150.078407 213.824747 
L 153.010487 203.32316 
L 166.204845 203.32316 
L 169.136925 192.821572 
L 170.602965 192.821572 
L 176.467124 171.818398 
L 201.389801 171.818398 
L 202.855841 166.567604 
L 216.050199 166.567604 
L 217.516239 161.316811 
L 220.448319 161.316811 
L 223.380398 150.815223 
L 224.846438 150.815223 
L 226.312478 145.56443 
L 227.778518 145.56443 
L 229.244558 140.313636 
L 257.099314 140.313636 
L 258.565354 135.062842 
L 262.963473 135.062842 
L 264.429513 129.812049 
L 267.361593 129.812049 
L 268.827633 124.561255 
L 283.488031 124.561255 
L 284.954071 119.310461 
L 305.478628 119.310461 
L 306.944668 114.059668 
L 318.672987 114.059668 
L 320.139027 108.808874 
L 340.663584 108.808874 
L 342.129624 103.55808 
L 352.391903 103.55808 
L 353.857942 98.307287 
L 381.712699 98.307287 
L 383.178739 93.056493 
L 396.373097 93.056493 
L 397.839137 87.805699 
L 399.305177 87.805699 
L 400.771217 82.554906 
L 415.431615 82.554906 
L 416.897655 77.304112 
L 479.937367 77.304112 
L 482.869447 66.802525 
L 501.927965 66.802525 
L 503.394004 61.551731 
L 542.97708 61.551731 
L 544.443119 56.300937 
L 567.899757 56.300937 
L 569.365796 51.050144 
L 636.803628 51.050144 
L 638.269668 45.79935 
L 670.522544 45.79935 
L 671.988584 40.548557 
L 705.7075 40.548557 
L 705.7075 40.548557 
" clip-path="url(#pa225f24f96)" style="fill: none; stroke: #17becf; stroke-width: 2; stroke-linecap: square"/>
    <defs>
     <path id="m81344cb54d" d="M 0 1.5 
C 0.397805 1.5 0.77937 1.341951 1.06066 1.06066 
C 1.341951 0.77937 1.5 0.397805 1.5 0 
C 1.5 -0.397805 1.341951 -0.77937 1.06066 -1.06066 
C 0.77937 -1.341951 0.397805 -1.5 0 -1.5 
C -0.397805 -1.5 -0.77937 -1.341951 -1.06066 -1.06066 
C -1.341951 -0.77937 -1.5 -0.397805 -1.5 0 
C -1.5 0.397805 -1.341951 0.77937 -1.06066 1.06066 
C -0.77937 1.341951 -0.397805 1.5 0 1.5 
z
" style="stroke: #17becf"/>
    </defs>
    <g clip-path="url(#pa225f24f96)">
     <use xlink:href="#m81344cb54d" x="44.52354" y="381.850144" style="fill: #17becf; stroke: #17becf"/>
     <use xlink:href="#m81344cb54d" x="60.649978" y="345.094588" style="fill: #17becf; stroke: #17becf"/>
     <use xlink:href="#m81344cb54d" x="76.776416" y="308.339033" style="fill: #17becf; stroke: #17becf"/>
     <use xlink:href="#m81344cb54d" x="92.902854" y="266.332684" style="fill: #17becf; stroke: #17becf"/>
     <use xlink:href="#m81344cb54d" x="109.029292" y="245.329509" style="fill: #17becf; stroke: #17becf"/>
     <use xlink:href="#m81344cb54d" x="125.15573" y="229.577128" style="fill: #17becf; stroke: #17becf"/>
     <use xlink:href="#m81344cb54d" x="141.282168" y="224.326334" style="fill: #17becf; stroke: #17becf"/>
     <use xlink:href="#m81344cb54d" x="157.408606" y="203.32316" style="fill: #17becf; stroke: #17becf"/>
     <use xlink:href="#m81344cb54d" x="173.535044" y="182.319985" style="fill: #17becf; stroke: #17becf"/>
     <use xlink:href="#m81344cb54d" x="189.661482" y="171.818398" style="fill: #17becf; stroke: #17becf"/>
     <use xlink:href="#m81344cb54d" x="205.78792" y="166.567604" style="fill: #17becf; stroke: #17becf"/>
     <use xlink:href="#m81344cb54d" x="221.914358" y="156.066017" style="fill: #17becf; stroke: #17becf"/>
     <use xlink:href="#m81344cb54d" x="238.040796" y="140.313636" style="fill: #17becf; stroke: #17becf"/>
     <use xlink:href="#m81344cb54d" x="254.167235" y="140.313636" style="fill: #17becf; stroke: #17becf"/>
     <use xlink:href="#m81344cb54d" x="270.293673" y="124.561255" style="fill: #17becf; stroke: #17becf"/>
     <use xlink:href="#m81344cb54d" x="286.420111" y="119.310461" style="fill: #17becf; stroke: #17becf"/>
     <use xlink:href="#m81344cb54d" x="302.546549" y="119.310461" style="fill: #17becf; stroke: #17becf"/>
     <use xlink:href="#m81344cb54d" x="318.672987" y="114.059668" style="fill: #17becf; stroke: #17becf"/>
     <use xlink:href="#m81344cb54d" x="334.799425" y="108.808874" style="fill: #17becf; stroke: #17becf"/>
     <use xlink:href="#m81344cb54d" x="350.925863" y="103.55808" style="fill: #17becf; stroke: #17becf"/>
     <use xlink:href="#m81344cb54d" x="367.052301" y="98.307287" style="fill: #17becf; stroke: #17becf"/>
     <use xlink:href="#m81344cb54d" x="383.178739" y="93.056493" style="fill: #17becf; stroke: #17becf"/>
     <use xlink:href="#m81344cb54d" x="399.305177" y="87.805699" style="fill: #17becf; stroke: #17becf"/>
     <use xlink:href="#m81344cb54d" x="415.431615" y="82.554906" style="fill: #17becf; stroke: #17becf"/>
     <use xlink:href="#m81344cb54d" x="431.558053" y="77.304112" style="fill: #17becf; stroke: #17becf"/>
     <use xlink:href="#m81344cb54d" x="447.684491" y="77.304112" style="fill: #17becf; stroke: #17becf"/>
     <use xlink:href="#m81344cb54d" x="463.810929" y="77.304112" style="fill: #17becf; stroke: #17becf"/>
     <use xlink:href="#m81344cb54d" x="479.937367" y="77.304112" style="fill: #17becf; stroke: #17becf"/>
     <use xlink:href="#m81344cb54d" x="496.063805" y="66.802525" style="fill: #17becf; stroke: #17becf"/>
     <use xlink:href="#m81344cb54d" x="512.190243" y="61.551731" style="fill: #17becf; stroke: #17becf"/>
     <use xlink:href="#m81344cb54d" x="528.316681" y="61.551731" style="fill: #17becf; stroke: #17becf"/>
     <use xlink:href="#m81344cb54d" x="544.443119" y="56.300937" style="fill: #17becf; stroke: #17becf"/>
     <use xlink:href="#m81344cb54d" x="560.569558" y="56.300937" style="fill: #17becf; stroke: #17becf"/>
     <use xlink:href="#m81344cb54d" x="576.695996" y="51.050144" style="fill: #17becf; stroke: #17becf"/>
     <use xlink:href="#m81344cb54d" x="592.822434" y="51.050144" style="fill: #17becf; stroke: #17becf"/>
     <use xlink:href="#m81344cb54d" x="608.948872" y="51.050144" style="fill: #17becf; stroke: #17becf"/>
     <use xlink:href="#m81344cb54d" x="625.07531" y="51.050144" style="fill: #17becf; stroke: #17becf"/>
     <use xlink:href="#m81344cb54d" x="641.201748" y="45.79935" style="fill: #17becf; stroke: #17becf"/>
     <use xlink:href="#m81344cb54d" x="657.328186" y="45.79935" style="fill: #17becf; stroke: #17becf"/>
     <use xlink:href="#m81344cb54d" x="673.454624" y="40.548557" style="fill: #17becf; stroke: #17becf"/>
     <use xlink:href="#m81344cb54d" x="689.581062" y="40.548557" style="fill: #17becf; stroke: #17becf"/>
     <use xlink:href="#m81344cb54d" x="705.7075" y="40.548557" style="fill: #17becf; stroke: #17becf"/>
    </g>
   </g>
   <g id="line2d_30">
    <path d="M 44.52354 381.850144 
L 62.116018 318.84062 
L 63.582058 318.84062 
L 70.912257 292.586652 
L 72.378296 292.586652 
L 84.106615 250.580303 
L 87.038695 250.580303 
L 88.504735 245.329509 
L 89.970774 245.329509 
L 94.368894 229.577128 
L 101.699093 229.577128 
L 103.165133 224.326334 
L 107.563252 224.326334 
L 109.029292 219.075541 
L 114.893451 219.075541 
L 116.359491 213.824747 
L 120.757611 213.824747 
L 122.22365 208.573953 
L 128.08781 208.573953 
L 129.55385 203.32316 
L 135.418009 203.32316 
L 136.884049 198.072366 
L 142.748208 198.072366 
L 144.214248 192.821572 
L 148.612367 192.821572 
L 150.078407 187.570779 
L 151.544447 187.570779 
L 153.010487 182.319985 
L 163.272765 182.319985 
L 164.738805 177.069191 
L 173.535044 177.069191 
L 175.001084 171.818398 
L 177.933164 171.818398 
L 180.865243 161.316811 
L 186.729403 161.316811 
L 189.661482 150.815223 
L 208.72 150.815223 
L 210.18604 145.56443 
L 224.846438 145.56443 
L 226.312478 140.313636 
L 229.244558 140.313636 
L 230.710597 135.062842 
L 252.701195 135.062842 
L 254.167235 129.812049 
L 257.099314 129.812049 
L 258.565354 124.561255 
L 271.759712 124.561255 
L 273.225752 119.310461 
L 309.876748 119.310461 
L 311.342788 114.059668 
L 315.740907 114.059668 
L 317.206947 108.808874 
L 326.003186 108.808874 
L 327.469226 103.55808 
L 367.052301 103.55808 
L 368.518341 98.307287 
L 374.3825 98.307287 
L 375.84854 93.056493 
L 394.907058 93.056493 
L 396.373097 87.805699 
L 421.295774 87.805699 
L 422.761814 82.554906 
L 434.490133 82.554906 
L 435.956173 77.304112 
L 443.286372 77.304112 
L 444.752412 72.053318 
L 447.684491 72.053318 
L 449.150531 66.802525 
L 516.588363 66.802525 
L 518.054403 61.551731 
L 522.452522 61.551731 
L 523.918562 56.300937 
L 559.103518 56.300937 
L 560.569558 51.050144 
L 610.414912 51.050144 
L 611.880951 45.79935 
L 625.07531 45.79935 
L 626.54135 40.548557 
L 705.7075 40.548557 
L 705.7075 40.548557 
" clip-path="url(#pa225f24f96)" style="fill: none; stroke: #e31818; stroke-width: 2.5; stroke-linecap: square"/>
    <defs>
     <path id="mccf52cbace" d="M 0 1.5 
C 0.397805 1.5 0.77937 1.341951 1.06066 1.06066 
C 1.341951 0.77937 1.5 0.397805 1.5 0 
C 1.5 -0.397805 1.341951 -0.77937 1.06066 -1.06066 
C 0.77937 -1.341951 0.397805 -1.5 0 -1.5 
C -0.397805 -1.5 -0.77937 -1.341951 -1.06066 -1.06066 
C -1.341951 -0.77937 -1.5 -0.397805 -1.5 0 
C -1.5 0.397805 -1.341951 0.77937 -1.06066 1.06066 
C -0.77937 1.341951 -0.397805 1.5 0 1.5 
z
" style="stroke: #e31818"/>
    </defs>
    <g clip-path="url(#pa225f24f96)">
     <use xlink:href="#mccf52cbace" x="44.52354" y="381.850144" style="fill: #e31818; stroke: #e31818"/>
     <use xlink:href="#mccf52cbace" x="60.649978" y="324.091414" style="fill: #e31818; stroke: #e31818"/>
     <use xlink:href="#mccf52cbace" x="76.776416" y="276.834271" style="fill: #e31818; stroke: #e31818"/>
     <use xlink:href="#mccf52cbace" x="92.902854" y="234.827922" style="fill: #e31818; stroke: #e31818"/>
     <use xlink:href="#mccf52cbace" x="109.029292" y="219.075541" style="fill: #e31818; stroke: #e31818"/>
     <use xlink:href="#mccf52cbace" x="125.15573" y="208.573953" style="fill: #e31818; stroke: #e31818"/>
     <use xlink:href="#mccf52cbace" x="141.282168" y="198.072366" style="fill: #e31818; stroke: #e31818"/>
     <use xlink:href="#mccf52cbace" x="157.408606" y="182.319985" style="fill: #e31818; stroke: #e31818"/>
     <use xlink:href="#mccf52cbace" x="173.535044" y="177.069191" style="fill: #e31818; stroke: #e31818"/>
     <use xlink:href="#mccf52cbace" x="189.661482" y="150.815223" style="fill: #e31818; stroke: #e31818"/>
     <use xlink:href="#mccf52cbace" x="205.78792" y="150.815223" style="fill: #e31818; stroke: #e31818"/>
     <use xlink:href="#mccf52cbace" x="221.914358" y="145.56443" style="fill: #e31818; stroke: #e31818"/>
     <use xlink:href="#mccf52cbace" x="238.040796" y="135.062842" style="fill: #e31818; stroke: #e31818"/>
     <use xlink:href="#mccf52cbace" x="254.167235" y="129.812049" style="fill: #e31818; stroke: #e31818"/>
     <use xlink:href="#mccf52cbace" x="270.293673" y="124.561255" style="fill: #e31818; stroke: #e31818"/>
     <use xlink:href="#mccf52cbace" x="286.420111" y="119.310461" style="fill: #e31818; stroke: #e31818"/>
     <use xlink:href="#mccf52cbace" x="302.546549" y="119.310461" style="fill: #e31818; stroke: #e31818"/>
     <use xlink:href="#mccf52cbace" x="318.672987" y="108.808874" style="fill: #e31818; stroke: #e31818"/>
     <use xlink:href="#mccf52cbace" x="334.799425" y="103.55808" style="fill: #e31818; stroke: #e31818"/>
     <use xlink:href="#mccf52cbace" x="350.925863" y="103.55808" style="fill: #e31818; stroke: #e31818"/>
     <use xlink:href="#mccf52cbace" x="367.052301" y="103.55808" style="fill: #e31818; stroke: #e31818"/>
     <use xlink:href="#mccf52cbace" x="383.178739" y="93.056493" style="fill: #e31818; stroke: #e31818"/>
     <use xlink:href="#mccf52cbace" x="399.305177" y="87.805699" style="fill: #e31818; stroke: #e31818"/>
     <use xlink:href="#mccf52cbace" x="415.431615" y="87.805699" style="fill: #e31818; stroke: #e31818"/>
     <use xlink:href="#mccf52cbace" x="431.558053" y="82.554906" style="fill: #e31818; stroke: #e31818"/>
     <use xlink:href="#mccf52cbace" x="447.684491" y="72.053318" style="fill: #e31818; stroke: #e31818"/>
     <use xlink:href="#mccf52cbace" x="463.810929" y="66.802525" style="fill: #e31818; stroke: #e31818"/>
     <use xlink:href="#mccf52cbace" x="479.937367" y="66.802525" style="fill: #e31818; stroke: #e31818"/>
     <use xlink:href="#mccf52cbace" x="496.063805" y="66.802525" style="fill: #e31818; stroke: #e31818"/>
     <use xlink:href="#mccf52cbace" x="512.190243" y="66.802525" style="fill: #e31818; stroke: #e31818"/>
     <use xlink:href="#mccf52cbace" x="528.316681" y="56.300937" style="fill: #e31818; stroke: #e31818"/>
     <use xlink:href="#mccf52cbace" x="544.443119" y="56.300937" style="fill: #e31818; stroke: #e31818"/>
     <use xlink:href="#mccf52cbace" x="560.569558" y="51.050144" style="fill: #e31818; stroke: #e31818"/>
     <use xlink:href="#mccf52cbace" x="576.695996" y="51.050144" style="fill: #e31818; stroke: #e31818"/>
     <use xlink:href="#mccf52cbace" x="592.822434" y="51.050144" style="fill: #e31818; stroke: #e31818"/>
     <use xlink:href="#mccf52cbace" x="608.948872" y="51.050144" style="fill: #e31818; stroke: #e31818"/>
     <use xlink:href="#mccf52cbace" x="625.07531" y="45.79935" style="fill: #e31818; stroke: #e31818"/>
     <use xlink:href="#mccf52cbace" x="641.201748" y="40.548557" style="fill: #e31818; stroke: #e31818"/>
     <use xlink:href="#mccf52cbace" x="657.328186" y="40.548557" style="fill: #e31818; stroke: #e31818"/>
     <use xlink:href="#mccf52cbace" x="673.454624" y="40.548557" style="fill: #e31818; stroke: #e31818"/>
     <use xlink:href="#mccf52cbace" x="689.581062" y="40.548557" style="fill: #e31818; stroke: #e31818"/>
     <use xlink:href="#mccf52cbace" x="705.7075" y="40.548557" style="fill: #e31818; stroke: #e31818"/>
    </g>
   </g>
   <g id="patch_3">
    <path d="M 43.0575 387.100937 
L 43.0575 23.220937 
" style="fill: none; stroke: #000000; stroke-width: 0.8; stroke-linejoin: miter; stroke-linecap: square"/>
   </g>
   <g id="patch_4">
    <path d="M 705.7075 387.100937 
L 705.7075 23.220937 
" style="fill: none; stroke: #000000; stroke-width: 0.8; stroke-linejoin: miter; stroke-linecap: square"/>
   </g>
   <g id="patch_5">
    <path d="M 43.0575 387.100937 
L 705.7075 387.100937 
" style="fill: none; stroke: #000000; stroke-width: 0.8; stroke-linejoin: miter; stroke-linecap: square"/>
   </g>
   <g id="patch_6">
    <path d="M 43.0575 23.220937 
L 705.7075 23.220937 
" style="fill: none; stroke: #000000; stroke-width: 0.8; stroke-linejoin: miter; stroke-linecap: square"/>
   </g>
   <g id="text_14">
    <!-- Recall vs k - arrhythmia -->
    <g transform="translate(295.794375 17.220937) scale(0.14 -0.14)">
     <defs>
      <path id="Arial-BoldMT-76" d="M 1372 0 
L 34 3319 
L 956 3319 
L 1581 1625 
L 1763 1059 
Q 1834 1275 1853 1344 
Q 1897 1484 1947 1625 
L 2578 3319 
L 3481 3319 
L 2163 0 
L 1372 0 
z
" transform="scale(0.015625)"/>
      <path id="Arial-BoldMT-2d" d="M 359 1222 
L 359 2100 
L 2084 2100 
L 2084 1222 
L 359 1222 
z
" transform="scale(0.015625)"/>
      <path id="Arial-BoldMT-79" d="M 44 3319 
L 978 3319 
L 1772 963 
L 2547 3319 
L 3456 3319 
L 2284 125 
L 2075 -453 
Q 1959 -744 1854 -897 
Q 1750 -1050 1614 -1145 
Q 1478 -1241 1279 -1294 
Q 1081 -1347 831 -1347 
Q 578 -1347 334 -1294 
L 256 -606 
Q 463 -647 628 -647 
Q 934 -647 1081 -467 
Q 1228 -288 1306 -9 
L 44 3319 
z
" transform="scale(0.015625)"/>
      <path id="Arial-BoldMT-74" d="M 1981 3319 
L 1981 2619 
L 1381 2619 
L 1381 1281 
Q 1381 875 1398 808 
Q 1416 741 1477 697 
Q 1538 653 1625 653 
Q 1747 653 1978 738 
L 2053 56 
Q 1747 -75 1359 -75 
Q 1122 -75 931 4 
Q 741 84 652 211 
Q 563 338 528 553 
Q 500 706 500 1172 
L 500 2619 
L 97 2619 
L 97 3319 
L 500 3319 
L 500 3978 
L 1381 4491 
L 1381 3319 
L 1981 3319 
z
" transform="scale(0.015625)"/>
      <path id="Arial-BoldMT-6d" d="M 394 3319 
L 1203 3319 
L 1203 2866 
Q 1638 3394 2238 3394 
Q 2556 3394 2790 3262 
Q 3025 3131 3175 2866 
Q 3394 3131 3647 3262 
Q 3900 3394 4188 3394 
Q 4553 3394 4806 3245 
Q 5059 3097 5184 2809 
Q 5275 2597 5275 2122 
L 5275 0 
L 4397 0 
L 4397 1897 
Q 4397 2391 4306 2534 
Q 4184 2722 3931 2722 
Q 3747 2722 3584 2609 
Q 3422 2497 3350 2280 
Q 3278 2063 3278 1594 
L 3278 0 
L 2400 0 
L 2400 1819 
Q 2400 2303 2353 2443 
Q 2306 2584 2207 2653 
Q 2109 2722 1941 2722 
Q 1738 2722 1575 2612 
Q 1413 2503 1342 2297 
Q 1272 2091 1272 1613 
L 1272 0 
L 394 0 
L 394 3319 
z
" transform="scale(0.015625)"/>
      <path id="Arial-BoldMT-69" d="M 459 3769 
L 459 4581 
L 1338 4581 
L 1338 3769 
L 459 3769 
z
M 459 0 
L 459 3319 
L 1338 3319 
L 1338 0 
L 459 0 
z
" transform="scale(0.015625)"/>
     </defs>
     <use xlink:href="#Arial-BoldMT-52"/>
     <use xlink:href="#Arial-BoldMT-65" transform="translate(72.216797 0)"/>
     <use xlink:href="#Arial-BoldMT-63" transform="translate(127.832031 0)"/>
     <use xlink:href="#Arial-BoldMT-61" transform="translate(183.447266 0)"/>
     <use xlink:href="#Arial-BoldMT-6c" transform="translate(239.0625 0)"/>
     <use xlink:href="#Arial-BoldMT-6c" transform="translate(266.845703 0)"/>
     <use xlink:href="#Arial-BoldMT-20" transform="translate(294.628906 0)"/>
     <use xlink:href="#Arial-BoldMT-76" transform="translate(322.412109 0)"/>
     <use xlink:href="#Arial-BoldMT-73" transform="translate(378.027344 0)"/>
     <use xlink:href="#Arial-BoldMT-20" transform="translate(433.642578 0)"/>
     <use xlink:href="#Arial-BoldMT-6b" transform="translate(461.425781 0)"/>
     <use xlink:href="#Arial-BoldMT-20" transform="translate(517.041016 0)"/>
     <use xlink:href="#Arial-BoldMT-2d" transform="translate(544.824219 0)"/>
     <use xlink:href="#Arial-BoldMT-20" transform="translate(578.125 0)"/>
     <use xlink:href="#Arial-BoldMT-61" transform="translate(605.908203 0)"/>
     <use xlink:href="#Arial-BoldMT-72" transform="translate(661.523438 0)"/>
     <use xlink:href="#Arial-BoldMT-72" transform="translate(700.439453 0)"/>
     <use xlink:href="#Arial-BoldMT-68" transform="translate(739.355469 0)"/>
     <use xlink:href="#Arial-BoldMT-79" transform="translate(800.439453 0)"/>
     <use xlink:href="#Arial-BoldMT-74" transform="translate(856.054688 0)"/>
     <use xlink:href="#Arial-BoldMT-68" transform="translate(889.355469 0)"/>
     <use xlink:href="#Arial-BoldMT-6d" transform="translate(950.439453 0)"/>
     <use xlink:href="#Arial-BoldMT-69" transform="translate(1039.355469 0)"/>
     <use xlink:href="#Arial-BoldMT-61" transform="translate(1067.138672 0)"/>
    </g>
   </g>
   <g id="legend_1">
    <g id="patch_7">
     <path d="M 49.3575 132.267187 
L 115.154531 132.267187 
Q 116.954531 132.267187 116.954531 130.467187 
L 116.954531 29.520938 
Q 116.954531 27.720937 115.154531 27.720937 
L 49.3575 27.720937 
Q 47.5575 27.720937 47.5575 29.520938 
L 47.5575 130.467187 
Q 47.5575 132.267187 49.3575 132.267187 
z
" style="fill: #ffffff; opacity: 0.8; stroke: #cccccc; stroke-linejoin: miter"/>
    </g>
    <g id="line2d_31">
     <path d="M 51.1575 34.612969 
L 60.1575 34.612969 
L 69.1575 34.612969 
" style="fill: none; stroke: #1f77b4; stroke-width: 2; stroke-linecap: square"/>
     <g>
      <use xlink:href="#m87e50d2a81" x="60.1575" y="34.612969" style="fill: #1f77b4; stroke: #1f77b4"/>
     </g>
    </g>
    <g id="text_15">
     <!-- ADFNR -->
     <g transform="translate(76.3575 37.762969) scale(0.09 -0.09)">
      <defs>
       <path id="ArialMT-41" d="M -9 0 
L 1750 4581 
L 2403 4581 
L 4278 0 
L 3588 0 
L 3053 1388 
L 1138 1388 
L 634 0 
L -9 0 
z
M 1313 1881 
L 2866 1881 
L 2388 3150 
Q 2169 3728 2063 4100 
Q 1975 3659 1816 3225 
L 1313 1881 
z
" transform="scale(0.015625)"/>
       <path id="ArialMT-44" d="M 494 0 
L 494 4581 
L 2072 4581 
Q 2606 4581 2888 4516 
Q 3281 4425 3559 4188 
Q 3922 3881 4101 3404 
Q 4281 2928 4281 2316 
Q 4281 1794 4159 1391 
Q 4038 988 3847 723 
Q 3656 459 3429 307 
Q 3203 156 2883 78 
Q 2563 0 2147 0 
L 494 0 
z
M 1100 541 
L 2078 541 
Q 2531 541 2789 625 
Q 3047 709 3200 863 
Q 3416 1078 3536 1442 
Q 3656 1806 3656 2325 
Q 3656 3044 3420 3430 
Q 3184 3816 2847 3947 
Q 2603 4041 2063 4041 
L 1100 4041 
L 1100 541 
z
" transform="scale(0.015625)"/>
       <path id="ArialMT-46" d="M 525 0 
L 525 4581 
L 3616 4581 
L 3616 4041 
L 1131 4041 
L 1131 2622 
L 3281 2622 
L 3281 2081 
L 1131 2081 
L 1131 0 
L 525 0 
z
" transform="scale(0.015625)"/>
       <path id="ArialMT-4e" d="M 488 0 
L 488 4581 
L 1109 4581 
L 3516 984 
L 3516 4581 
L 4097 4581 
L 4097 0 
L 3475 0 
L 1069 3600 
L 1069 0 
L 488 0 
z
" transform="scale(0.015625)"/>
       <path id="ArialMT-52" d="M 503 0 
L 503 4581 
L 2534 4581 
Q 3147 4581 3465 4457 
Q 3784 4334 3975 4021 
Q 4166 3709 4166 3331 
Q 4166 2844 3850 2509 
Q 3534 2175 2875 2084 
Q 3116 1969 3241 1856 
Q 3506 1613 3744 1247 
L 4541 0 
L 3778 0 
L 3172 953 
Q 2906 1366 2734 1584 
Q 2563 1803 2427 1890 
Q 2291 1978 2150 2013 
Q 2047 2034 1813 2034 
L 1109 2034 
L 1109 0 
L 503 0 
z
M 1109 2559 
L 2413 2559 
Q 2828 2559 3062 2645 
Q 3297 2731 3419 2920 
Q 3541 3109 3541 3331 
Q 3541 3656 3305 3865 
Q 3069 4075 2559 4075 
L 1109 4075 
L 1109 2559 
z
" transform="scale(0.015625)"/>
      </defs>
      <use xlink:href="#ArialMT-41"/>
      <use xlink:href="#ArialMT-44" transform="translate(66.699219 0)"/>
      <use xlink:href="#ArialMT-46" transform="translate(138.916016 0)"/>
      <use xlink:href="#ArialMT-4e" transform="translate(200 0)"/>
      <use xlink:href="#ArialMT-52" transform="translate(272.216797 0)"/>
     </g>
    </g>
    <g id="line2d_32">
     <path d="M 51.1575 47.34375 
L 60.1575 47.34375 
L 69.1575 47.34375 
" style="fill: none; stroke: #ff7f0e; stroke-width: 2; stroke-linecap: square"/>
     <g>
      <use xlink:href="#m2d76363491" x="60.1575" y="47.34375" style="fill: #ff7f0e; stroke: #ff7f0e"/>
     </g>
    </g>
    <g id="text_16">
     <!-- DASOD -->
     <g transform="translate(76.3575 50.49375) scale(0.09 -0.09)">
      <defs>
       <path id="ArialMT-53" d="M 288 1472 
L 859 1522 
Q 900 1178 1048 958 
Q 1197 738 1509 602 
Q 1822 466 2213 466 
Q 2559 466 2825 569 
Q 3091 672 3220 851 
Q 3350 1031 3350 1244 
Q 3350 1459 3225 1620 
Q 3100 1781 2813 1891 
Q 2628 1963 1997 2114 
Q 1366 2266 1113 2400 
Q 784 2572 623 2826 
Q 463 3081 463 3397 
Q 463 3744 659 4045 
Q 856 4347 1234 4503 
Q 1613 4659 2075 4659 
Q 2584 4659 2973 4495 
Q 3363 4331 3572 4012 
Q 3781 3694 3797 3291 
L 3216 3247 
Q 3169 3681 2898 3903 
Q 2628 4125 2100 4125 
Q 1550 4125 1298 3923 
Q 1047 3722 1047 3438 
Q 1047 3191 1225 3031 
Q 1400 2872 2139 2705 
Q 2878 2538 3153 2413 
Q 3553 2228 3743 1945 
Q 3934 1663 3934 1294 
Q 3934 928 3725 604 
Q 3516 281 3123 101 
Q 2731 -78 2241 -78 
Q 1619 -78 1198 103 
Q 778 284 539 648 
Q 300 1013 288 1472 
z
" transform="scale(0.015625)"/>
       <path id="ArialMT-4f" d="M 309 2231 
Q 309 3372 921 4017 
Q 1534 4663 2503 4663 
Q 3138 4663 3647 4359 
Q 4156 4056 4423 3514 
Q 4691 2972 4691 2284 
Q 4691 1588 4409 1038 
Q 4128 488 3612 205 
Q 3097 -78 2500 -78 
Q 1853 -78 1343 234 
Q 834 547 571 1087 
Q 309 1628 309 2231 
z
M 934 2222 
Q 934 1394 1379 917 
Q 1825 441 2497 441 
Q 3181 441 3623 922 
Q 4066 1403 4066 2288 
Q 4066 2847 3877 3264 
Q 3688 3681 3323 3911 
Q 2959 4141 2506 4141 
Q 1863 4141 1398 3698 
Q 934 3256 934 2222 
z
" transform="scale(0.015625)"/>
      </defs>
      <use xlink:href="#ArialMT-44"/>
      <use xlink:href="#ArialMT-41" transform="translate(72.216797 0)"/>
      <use xlink:href="#ArialMT-53" transform="translate(138.916016 0)"/>
      <use xlink:href="#ArialMT-4f" transform="translate(205.615234 0)"/>
      <use xlink:href="#ArialMT-44" transform="translate(283.398438 0)"/>
     </g>
    </g>
    <g id="line2d_33">
     <path d="M 51.1575 60.074531 
L 60.1575 60.074531 
L 69.1575 60.074531 
" style="fill: none; stroke: #2ca02c; stroke-width: 2; stroke-linecap: square"/>
     <g>
      <use xlink:href="#mab97929ac6" x="60.1575" y="60.074531" style="fill: #2ca02c; stroke: #2ca02c"/>
     </g>
    </g>
    <g id="text_17">
     <!-- GCN -->
     <g transform="translate(76.3575 63.224531) scale(0.09 -0.09)">
      <defs>
       <path id="ArialMT-47" d="M 2638 1797 
L 2638 2334 
L 4578 2338 
L 4578 638 
Q 4131 281 3656 101 
Q 3181 -78 2681 -78 
Q 2006 -78 1454 211 
Q 903 500 622 1047 
Q 341 1594 341 2269 
Q 341 2938 620 3517 
Q 900 4097 1425 4378 
Q 1950 4659 2634 4659 
Q 3131 4659 3532 4498 
Q 3934 4338 4162 4050 
Q 4391 3763 4509 3300 
L 3963 3150 
Q 3859 3500 3706 3700 
Q 3553 3900 3268 4020 
Q 2984 4141 2638 4141 
Q 2222 4141 1919 4014 
Q 1616 3888 1430 3681 
Q 1244 3475 1141 3228 
Q 966 2803 966 2306 
Q 966 1694 1177 1281 
Q 1388 869 1791 669 
Q 2194 469 2647 469 
Q 3041 469 3416 620 
Q 3791 772 3984 944 
L 3984 1797 
L 2638 1797 
z
" transform="scale(0.015625)"/>
       <path id="ArialMT-43" d="M 3763 1606 
L 4369 1453 
Q 4178 706 3683 314 
Q 3188 -78 2472 -78 
Q 1731 -78 1267 223 
Q 803 525 561 1097 
Q 319 1669 319 2325 
Q 319 3041 592 3573 
Q 866 4106 1370 4382 
Q 1875 4659 2481 4659 
Q 3169 4659 3637 4309 
Q 4106 3959 4291 3325 
L 3694 3184 
Q 3534 3684 3231 3912 
Q 2928 4141 2469 4141 
Q 1941 4141 1586 3887 
Q 1231 3634 1087 3207 
Q 944 2781 944 2328 
Q 944 1744 1114 1308 
Q 1284 872 1643 656 
Q 2003 441 2422 441 
Q 2931 441 3284 734 
Q 3638 1028 3763 1606 
z
" transform="scale(0.015625)"/>
      </defs>
      <use xlink:href="#ArialMT-47"/>
      <use xlink:href="#ArialMT-43" transform="translate(77.783203 0)"/>
      <use xlink:href="#ArialMT-4e" transform="translate(150 0)"/>
     </g>
    </g>
    <g id="line2d_34">
     <path d="M 51.1575 72.805312 
L 60.1575 72.805312 
L 69.1575 72.805312 
" style="fill: none; stroke: #9467bd; stroke-width: 2; stroke-linecap: square"/>
     <g>
      <use xlink:href="#m98ebc3b0a8" x="60.1575" y="72.805312" style="fill: #9467bd; stroke: #9467bd"/>
     </g>
    </g>
    <g id="text_18">
     <!-- GCOD -->
     <g transform="translate(76.3575 75.955312) scale(0.09 -0.09)">
      <use xlink:href="#ArialMT-47"/>
      <use xlink:href="#ArialMT-43" transform="translate(77.783203 0)"/>
      <use xlink:href="#ArialMT-4f" transform="translate(150 0)"/>
      <use xlink:href="#ArialMT-44" transform="translate(227.783203 0)"/>
     </g>
    </g>
    <g id="line2d_35">
     <path d="M 51.1575 85.536094 
L 60.1575 85.536094 
L 69.1575 85.536094 
" style="fill: none; stroke: #8c564b; stroke-width: 2; stroke-linecap: square"/>
     <g>
      <use xlink:href="#m6f6331532d" x="60.1575" y="85.536094" style="fill: #8c564b; stroke: #8c564b"/>
     </g>
    </g>
    <g id="text_19">
     <!-- IE -->
     <g transform="translate(76.3575 88.686094) scale(0.09 -0.09)">
      <defs>
       <path id="ArialMT-49" d="M 597 0 
L 597 4581 
L 1203 4581 
L 1203 0 
L 597 0 
z
" transform="scale(0.015625)"/>
       <path id="ArialMT-45" d="M 506 0 
L 506 4581 
L 3819 4581 
L 3819 4041 
L 1113 4041 
L 1113 2638 
L 3647 2638 
L 3647 2100 
L 1113 2100 
L 1113 541 
L 3925 541 
L 3925 0 
L 506 0 
z
" transform="scale(0.015625)"/>
      </defs>
      <use xlink:href="#ArialMT-49"/>
      <use xlink:href="#ArialMT-45" transform="translate(27.783203 0)"/>
     </g>
    </g>
    <g id="line2d_36">
     <path d="M 51.1575 98.266875 
L 60.1575 98.266875 
L 69.1575 98.266875 
" style="fill: none; stroke: #e377c2; stroke-width: 2; stroke-linecap: square"/>
     <g>
      <use xlink:href="#mdd29fd4f3c" x="60.1575" y="98.266875" style="fill: #e377c2; stroke: #e377c2"/>
     </g>
    </g>
    <g id="text_20">
     <!-- KNN -->
     <g transform="translate(76.3575 101.416875) scale(0.09 -0.09)">
      <defs>
       <path id="ArialMT-4b" d="M 469 0 
L 469 4581 
L 1075 4581 
L 1075 2309 
L 3350 4581 
L 4172 4581 
L 2250 2725 
L 4256 0 
L 3456 0 
L 1825 2319 
L 1075 1588 
L 1075 0 
L 469 0 
z
" transform="scale(0.015625)"/>
      </defs>
      <use xlink:href="#ArialMT-4b"/>
      <use xlink:href="#ArialMT-4e" transform="translate(66.699219 0)"/>
      <use xlink:href="#ArialMT-4e" transform="translate(138.916016 0)"/>
     </g>
    </g>
    <g id="line2d_37">
     <path d="M 51.1575 110.997656 
L 60.1575 110.997656 
L 69.1575 110.997656 
" style="fill: none; stroke: #17becf; stroke-width: 2; stroke-linecap: square"/>
     <g>
      <use xlink:href="#m81344cb54d" x="60.1575" y="110.997656" style="fill: #17becf; stroke: #17becf"/>
     </g>
    </g>
    <g id="text_21">
     <!-- NIEOD -->
     <g transform="translate(76.3575 114.147656) scale(0.09 -0.09)">
      <use xlink:href="#ArialMT-4e"/>
      <use xlink:href="#ArialMT-49" transform="translate(72.216797 0)"/>
      <use xlink:href="#ArialMT-45" transform="translate(100 0)"/>
      <use xlink:href="#ArialMT-4f" transform="translate(166.699219 0)"/>
      <use xlink:href="#ArialMT-44" transform="translate(244.482422 0)"/>
     </g>
    </g>
    <g id="line2d_38">
     <path d="M 51.1575 123.728437 
L 60.1575 123.728437 
L 69.1575 123.728437 
" style="fill: none; stroke: #e31818; stroke-width: 2.5; stroke-linecap: square"/>
     <g>
      <use xlink:href="#mccf52cbace" x="60.1575" y="123.728437" style="fill: #e31818; stroke: #e31818"/>
     </g>
    </g>
    <g id="text_22">
     <!-- NMIGOD -->
     <g transform="translate(76.3575 126.878437) scale(0.09 -0.09)">
      <defs>
       <path id="ArialMT-4d" d="M 475 0 
L 475 4581 
L 1388 4581 
L 2472 1338 
Q 2622 884 2691 659 
Q 2769 909 2934 1394 
L 4031 4581 
L 4847 4581 
L 4847 0 
L 4263 0 
L 4263 3834 
L 2931 0 
L 2384 0 
L 1059 3900 
L 1059 0 
L 475 0 
z
" transform="scale(0.015625)"/>
      </defs>
      <use xlink:href="#ArialMT-4e"/>
      <use xlink:href="#ArialMT-4d" transform="translate(72.216797 0)"/>
      <use xlink:href="#ArialMT-49" transform="translate(155.517578 0)"/>
      <use xlink:href="#ArialMT-47" transform="translate(183.300781 0)"/>
      <use xlink:href="#ArialMT-4f" transform="translate(261.083984 0)"/>
      <use xlink:href="#ArialMT-44" transform="translate(338.867188 0)"/>
     </g>
    </g>
   </g>
  </g>
 </g>
 <defs>
  <clipPath id="pa225f24f96">
   <rect x="43.0575" y="23.220937" width="662.65" height="363.88"/>
  </clipPath>
 </defs>
</svg>
