<?xml version="1.0" encoding="utf-8" standalone="no"?>
<!DOCTYPE svg PUBLIC "-//W3C//DTD SVG 1.1//EN"
  "http://www.w3.org/Graphics/SVG/1.1/DTD/svg11.dtd">
<svg xmlns:xlink="http://www.w3.org/1999/xlink" width="712.9075pt" height="425.7075pt" viewBox="0 0 712.9075 425.7075" xmlns="http://www.w3.org/2000/svg" version="1.1">
 <metadata>
  <rdf:RDF xmlns:dc="http://purl.org/dc/elements/1.1/" xmlns:cc="http://creativecommons.org/ns#" xmlns:rdf="http://www.w3.org/1999/02/22-rdf-syntax-ns#">
   <cc:Work>
    <dc:type rdf:resource="http://purl.org/dc/dcmitype/StillImage"/>
    <dc:date>2026-06-11T18:29:01.769161</dc:date>
    <dc:format>image/svg+xml</dc:format>
    <dc:creator>
     <cc:Agent>
      <dc:title>Matplotlib v3.10.0, https://matplotlib.org/</dc:title>
     </cc:Agent>
    </dc:creator>
   </cc:Work>
  </rdf:RDF>
 </metadata>
 <defs>
  <style type="text/css">*{stroke-linejoin: round; stroke-linecap: butt}</style>
 </defs>
 <g id="figure_1">
  <g id="patch_1">
   <path d="M -0 425.7075 
L 712.9075 425.7075 
L 712.9075 0 
L -0 0 
z
" style="fill: #ffffff"/>
  </g>
  <g id="axes_1">
   <g id="patch_2">
    <path d="M 43.0575 387.100937 
L 705.7075 387.100937 
L 705.7075 23.220937 
L 43.0575 23.220937 
z
" style="fill: #ffffff"/>
   </g>
   <g id="matplotlib.axis_1">
    <g id="xtick_1">
     <g id="line2d_1">
      <path d="M 43.0575 387.100937 
L 43.0575 23.220937 
" clip-path="url(#p780f76c528)" style="fill: none; stroke-dasharray: 2.96,1.28; stroke-dashoffset: 0; stroke: #b0b0b0; stroke-opacity: 0.5; stroke-width: 0.8"/>
     </g>
     <g id="line2d_2">
      <defs>
       <path id="m3d5e16414c" d="M 0 0 
L 0 3.5 
" style="stroke: #000000; stroke-width: 0.8"/>
      </defs>
      <g>
       <use xlink:href="#m3d5e16414c" x="43.0575" y="387.100937" style="stroke: #000000; stroke-width: 0.8"/>
      </g>
     </g>
     <g id="text_1">
      <!-- 0 -->
      <g transform="translate(40.277031 401.25875) scale(0.1 -0.1)">
       <defs>
        <path id="ArialMT-30" d="M 266 2259 
Q 266 3072 433 3567 
Q 600 4063 929 4331 
Q 1259 4600 1759 4600 
Q 2128 4600 2406 4451 
Q 2684 4303 2865 4023 
Q 3047 3744 3150 3342 
Q 3253 2941 3253 2259 
Q 3253 1453 3087 958 
Q 2922 463 2592 192 
Q 2263 -78 1759 -78 
Q 1097 -78 719 397 
Q 266 969 266 2259 
z
M 844 2259 
Q 844 1131 1108 757 
Q 1372 384 1759 384 
Q 2147 384 2411 759 
Q 2675 1134 2675 2259 
Q 2675 3391 2411 3762 
Q 2147 4134 1753 4134 
Q 1366 4134 1134 3806 
Q 844 3388 844 2259 
z
" transform="scale(0.015625)"/>
       </defs>
       <use xlink:href="#ArialMT-30"/>
      </g>
     </g>
    </g>
    <g id="xtick_2">
     <g id="line2d_3">
      <path d="M 184.347479 387.100937 
L 184.347479 23.220937 
" clip-path="url(#p780f76c528)" style="fill: none; stroke-dasharray: 2.96,1.28; stroke-dashoffset: 0; stroke: #b0b0b0; stroke-opacity: 0.5; stroke-width: 0.8"/>
     </g>
     <g id="line2d_4">
      <g>
       <use xlink:href="#m3d5e16414c" x="184.347479" y="387.100937" style="stroke: #000000; stroke-width: 0.8"/>
      </g>
     </g>
     <g id="text_2">
      <!-- 100 -->
      <g transform="translate(176.006072 401.25875) scale(0.1 -0.1)">
       <defs>
        <path id="ArialMT-31" d="M 2384 0 
L 1822 0 
L 1822 3584 
Q 1619 3391 1289 3197 
Q 959 3003 697 2906 
L 697 3450 
Q 1169 3672 1522 3987 
Q 1875 4303 2022 4600 
L 2384 4600 
L 2384 0 
z
" transform="scale(0.015625)"/>
       </defs>
       <use xlink:href="#ArialMT-31"/>
       <use xlink:href="#ArialMT-30" transform="translate(55.615234 0)"/>
       <use xlink:href="#ArialMT-30" transform="translate(111.230469 0)"/>
      </g>
     </g>
    </g>
    <g id="xtick_3">
     <g id="line2d_5">
      <path d="M 325.637457 387.100937 
L 325.637457 23.220937 
" clip-path="url(#p780f76c528)" style="fill: none; stroke-dasharray: 2.96,1.28; stroke-dashoffset: 0; stroke: #b0b0b0; stroke-opacity: 0.5; stroke-width: 0.8"/>
     </g>
     <g id="line2d_6">
      <g>
       <use xlink:href="#m3d5e16414c" x="325.637457" y="387.100937" style="stroke: #000000; stroke-width: 0.8"/>
      </g>
     </g>
     <g id="text_3">
      <!-- 200 -->
      <g transform="translate(317.296051 401.25875) scale(0.1 -0.1)">
       <defs>
        <path id="ArialMT-32" d="M 3222 541 
L 3222 0 
L 194 0 
Q 188 203 259 391 
Q 375 700 629 1000 
Q 884 1300 1366 1694 
Q 2113 2306 2375 2664 
Q 2638 3022 2638 3341 
Q 2638 3675 2398 3904 
Q 2159 4134 1775 4134 
Q 1369 4134 1125 3890 
Q 881 3647 878 3216 
L 300 3275 
Q 359 3922 746 4261 
Q 1134 4600 1788 4600 
Q 2447 4600 2831 4234 
Q 3216 3869 3216 3328 
Q 3216 3053 3103 2787 
Q 2991 2522 2730 2228 
Q 2469 1934 1863 1422 
Q 1356 997 1212 845 
Q 1069 694 975 541 
L 3222 541 
z
" transform="scale(0.015625)"/>
       </defs>
       <use xlink:href="#ArialMT-32"/>
       <use xlink:href="#ArialMT-30" transform="translate(55.615234 0)"/>
       <use xlink:href="#ArialMT-30" transform="translate(111.230469 0)"/>
      </g>
     </g>
    </g>
    <g id="xtick_4">
     <g id="line2d_7">
      <path d="M 466.927436 387.100937 
L 466.927436 23.220937 
" clip-path="url(#p780f76c528)" style="fill: none; stroke-dasharray: 2.96,1.28; stroke-dashoffset: 0; stroke: #b0b0b0; stroke-opacity: 0.5; stroke-width: 0.8"/>
     </g>
     <g id="line2d_8">
      <g>
       <use xlink:href="#m3d5e16414c" x="466.927436" y="387.100937" style="stroke: #000000; stroke-width: 0.8"/>
      </g>
     </g>
     <g id="text_4">
      <!-- 300 -->
      <g transform="translate(458.58603 401.25875) scale(0.1 -0.1)">
       <defs>
        <path id="ArialMT-33" d="M 269 1209 
L 831 1284 
Q 928 806 1161 595 
Q 1394 384 1728 384 
Q 2125 384 2398 659 
Q 2672 934 2672 1341 
Q 2672 1728 2419 1979 
Q 2166 2231 1775 2231 
Q 1616 2231 1378 2169 
L 1441 2663 
Q 1497 2656 1531 2656 
Q 1891 2656 2178 2843 
Q 2466 3031 2466 3422 
Q 2466 3731 2256 3934 
Q 2047 4138 1716 4138 
Q 1388 4138 1169 3931 
Q 950 3725 888 3313 
L 325 3413 
Q 428 3978 793 4289 
Q 1159 4600 1703 4600 
Q 2078 4600 2393 4439 
Q 2709 4278 2876 4000 
Q 3044 3722 3044 3409 
Q 3044 3113 2884 2869 
Q 2725 2625 2413 2481 
Q 2819 2388 3044 2092 
Q 3269 1797 3269 1353 
Q 3269 753 2831 336 
Q 2394 -81 1725 -81 
Q 1122 -81 723 278 
Q 325 638 269 1209 
z
" transform="scale(0.015625)"/>
       </defs>
       <use xlink:href="#ArialMT-33"/>
       <use xlink:href="#ArialMT-30" transform="translate(55.615234 0)"/>
       <use xlink:href="#ArialMT-30" transform="translate(111.230469 0)"/>
      </g>
     </g>
    </g>
    <g id="xtick_5">
     <g id="line2d_9">
      <path d="M 608.217415 387.100937 
L 608.217415 23.220937 
" clip-path="url(#p780f76c528)" style="fill: none; stroke-dasharray: 2.96,1.28; stroke-dashoffset: 0; stroke: #b0b0b0; stroke-opacity: 0.5; stroke-width: 0.8"/>
     </g>
     <g id="line2d_10">
      <g>
       <use xlink:href="#m3d5e16414c" x="608.217415" y="387.100937" style="stroke: #000000; stroke-width: 0.8"/>
      </g>
     </g>
     <g id="text_5">
      <!-- 400 -->
      <g transform="translate(599.876008 401.25875) scale(0.1 -0.1)">
       <defs>
        <path id="ArialMT-34" d="M 2069 0 
L 2069 1097 
L 81 1097 
L 81 1613 
L 2172 4581 
L 2631 4581 
L 2631 1613 
L 3250 1613 
L 3250 1097 
L 2631 1097 
L 2631 0 
L 2069 0 
z
M 2069 1613 
L 2069 3678 
L 634 1613 
L 2069 1613 
z
" transform="scale(0.015625)"/>
       </defs>
       <use xlink:href="#ArialMT-34"/>
       <use xlink:href="#ArialMT-30" transform="translate(55.615234 0)"/>
       <use xlink:href="#ArialMT-30" transform="translate(111.230469 0)"/>
      </g>
     </g>
    </g>
    <g id="text_6">
     <!-- k (Threshold Index) -->
     <g transform="translate(319.048438 415.981875) scale(0.12 -0.12)">
      <defs>
       <path id="Arial-BoldMT-6b" d="M 428 0 
L 428 4581 
L 1306 4581 
L 1306 2150 
L 2334 3319 
L 3416 3319 
L 2281 2106 
L 3497 0 
L 2550 0 
L 1716 1491 
L 1306 1063 
L 1306 0 
L 428 0 
z
" transform="scale(0.015625)"/>
       <path id="Arial-BoldMT-20" transform="scale(0.015625)"/>
       <path id="Arial-BoldMT-28" d="M 1916 -1347 
L 1313 -1347 
Q 834 -625 584 153 
Q 334 931 334 1659 
Q 334 2563 644 3369 
Q 913 4069 1325 4659 
L 1925 4659 
Q 1497 3713 1336 3048 
Q 1175 2384 1175 1641 
Q 1175 1128 1270 590 
Q 1366 53 1531 -431 
Q 1641 -750 1916 -1347 
z
" transform="scale(0.015625)"/>
       <path id="Arial-BoldMT-54" d="M 1497 0 
L 1497 3806 
L 138 3806 
L 138 4581 
L 3778 4581 
L 3778 3806 
L 2422 3806 
L 2422 0 
L 1497 0 
z
" transform="scale(0.015625)"/>
       <path id="Arial-BoldMT-68" d="M 1334 4581 
L 1334 2897 
Q 1759 3394 2350 3394 
Q 2653 3394 2897 3281 
Q 3141 3169 3264 2994 
Q 3388 2819 3433 2606 
Q 3478 2394 3478 1947 
L 3478 0 
L 2600 0 
L 2600 1753 
Q 2600 2275 2550 2415 
Q 2500 2556 2373 2639 
Q 2247 2722 2056 2722 
Q 1838 2722 1666 2615 
Q 1494 2509 1414 2295 
Q 1334 2081 1334 1663 
L 1334 0 
L 456 0 
L 456 4581 
L 1334 4581 
z
" transform="scale(0.015625)"/>
       <path id="Arial-BoldMT-72" d="M 1300 0 
L 422 0 
L 422 3319 
L 1238 3319 
L 1238 2847 
Q 1447 3181 1614 3287 
Q 1781 3394 1994 3394 
Q 2294 3394 2572 3228 
L 2300 2463 
Q 2078 2606 1888 2606 
Q 1703 2606 1575 2504 
Q 1447 2403 1373 2137 
Q 1300 1872 1300 1025 
L 1300 0 
z
" transform="scale(0.015625)"/>
       <path id="Arial-BoldMT-65" d="M 2381 1056 
L 3256 909 
Q 3088 428 2723 176 
Q 2359 -75 1813 -75 
Q 947 -75 531 491 
Q 203 944 203 1634 
Q 203 2459 634 2926 
Q 1066 3394 1725 3394 
Q 2466 3394 2894 2905 
Q 3322 2416 3303 1406 
L 1103 1406 
Q 1113 1016 1316 798 
Q 1519 581 1822 581 
Q 2028 581 2168 693 
Q 2309 806 2381 1056 
z
M 2431 1944 
Q 2422 2325 2234 2523 
Q 2047 2722 1778 2722 
Q 1491 2722 1303 2513 
Q 1116 2303 1119 1944 
L 2431 1944 
z
" transform="scale(0.015625)"/>
       <path id="Arial-BoldMT-73" d="M 150 947 
L 1031 1081 
Q 1088 825 1259 692 
Q 1431 559 1741 559 
Q 2081 559 2253 684 
Q 2369 772 2369 919 
Q 2369 1019 2306 1084 
Q 2241 1147 2013 1200 
Q 950 1434 666 1628 
Q 272 1897 272 2375 
Q 272 2806 612 3100 
Q 953 3394 1669 3394 
Q 2350 3394 2681 3172 
Q 3013 2950 3138 2516 
L 2309 2363 
Q 2256 2556 2107 2659 
Q 1959 2763 1684 2763 
Q 1338 2763 1188 2666 
Q 1088 2597 1088 2488 
Q 1088 2394 1175 2328 
Q 1294 2241 1995 2081 
Q 2697 1922 2975 1691 
Q 3250 1456 3250 1038 
Q 3250 581 2869 253 
Q 2488 -75 1741 -75 
Q 1063 -75 667 200 
Q 272 475 150 947 
z
" transform="scale(0.015625)"/>
       <path id="Arial-BoldMT-6f" d="M 256 1706 
Q 256 2144 472 2553 
Q 688 2963 1083 3178 
Q 1478 3394 1966 3394 
Q 2719 3394 3200 2905 
Q 3681 2416 3681 1669 
Q 3681 916 3195 420 
Q 2709 -75 1972 -75 
Q 1516 -75 1102 131 
Q 688 338 472 736 
Q 256 1134 256 1706 
z
M 1156 1659 
Q 1156 1166 1390 903 
Q 1625 641 1969 641 
Q 2313 641 2545 903 
Q 2778 1166 2778 1666 
Q 2778 2153 2545 2415 
Q 2313 2678 1969 2678 
Q 1625 2678 1390 2415 
Q 1156 2153 1156 1659 
z
" transform="scale(0.015625)"/>
       <path id="Arial-BoldMT-6c" d="M 459 0 
L 459 4581 
L 1338 4581 
L 1338 0 
L 459 0 
z
" transform="scale(0.015625)"/>
       <path id="Arial-BoldMT-64" d="M 3503 0 
L 2688 0 
L 2688 488 
Q 2484 203 2207 64 
Q 1931 -75 1650 -75 
Q 1078 -75 670 386 
Q 263 847 263 1672 
Q 263 2516 659 2955 
Q 1056 3394 1663 3394 
Q 2219 3394 2625 2931 
L 2625 4581 
L 3503 4581 
L 3503 0 
z
M 1159 1731 
Q 1159 1200 1306 963 
Q 1519 619 1900 619 
Q 2203 619 2415 876 
Q 2628 1134 2628 1647 
Q 2628 2219 2422 2470 
Q 2216 2722 1894 2722 
Q 1581 2722 1370 2473 
Q 1159 2225 1159 1731 
z
" transform="scale(0.015625)"/>
       <path id="Arial-BoldMT-49" d="M 438 0 
L 438 4581 
L 1363 4581 
L 1363 0 
L 438 0 
z
" transform="scale(0.015625)"/>
       <path id="Arial-BoldMT-6e" d="M 3478 0 
L 2600 0 
L 2600 1694 
Q 2600 2231 2544 2389 
Q 2488 2547 2361 2634 
Q 2234 2722 2056 2722 
Q 1828 2722 1647 2597 
Q 1466 2472 1398 2265 
Q 1331 2059 1331 1503 
L 1331 0 
L 453 0 
L 453 3319 
L 1269 3319 
L 1269 2831 
Q 1703 3394 2363 3394 
Q 2653 3394 2893 3289 
Q 3134 3184 3257 3021 
Q 3381 2859 3429 2653 
Q 3478 2447 3478 2063 
L 3478 0 
z
" transform="scale(0.015625)"/>
       <path id="Arial-BoldMT-78" d="M 38 0 
L 1234 1709 
L 88 3319 
L 1159 3319 
L 1747 2406 
L 2366 3319 
L 3397 3319 
L 2272 1747 
L 3500 0 
L 2422 0 
L 1747 1028 
L 1066 0 
L 38 0 
z
" transform="scale(0.015625)"/>
       <path id="Arial-BoldMT-29" d="M 216 -1347 
Q 475 -791 581 -494 
Q 688 -197 778 190 
Q 869 578 912 926 
Q 956 1275 956 1641 
Q 956 2384 797 3048 
Q 638 3713 209 4659 
L 806 4659 
Q 1278 3988 1539 3234 
Q 1800 2481 1800 1706 
Q 1800 1053 1594 306 
Q 1359 -531 822 -1347 
L 216 -1347 
z
" transform="scale(0.015625)"/>
      </defs>
      <use xlink:href="#Arial-BoldMT-6b"/>
      <use xlink:href="#Arial-BoldMT-20" transform="translate(55.615234 0)"/>
      <use xlink:href="#Arial-BoldMT-28" transform="translate(83.398438 0)"/>
      <use xlink:href="#Arial-BoldMT-54" transform="translate(116.699219 0)"/>
      <use xlink:href="#Arial-BoldMT-68" transform="translate(177.783203 0)"/>
      <use xlink:href="#Arial-BoldMT-72" transform="translate(238.867188 0)"/>
      <use xlink:href="#Arial-BoldMT-65" transform="translate(277.783203 0)"/>
      <use xlink:href="#Arial-BoldMT-73" transform="translate(333.398438 0)"/>
      <use xlink:href="#Arial-BoldMT-68" transform="translate(389.013672 0)"/>
      <use xlink:href="#Arial-BoldMT-6f" transform="translate(450.097656 0)"/>
      <use xlink:href="#Arial-BoldMT-6c" transform="translate(511.181641 0)"/>
      <use xlink:href="#Arial-BoldMT-64" transform="translate(538.964844 0)"/>
      <use xlink:href="#Arial-BoldMT-20" transform="translate(600.048828 0)"/>
      <use xlink:href="#Arial-BoldMT-49" transform="translate(627.832031 0)"/>
      <use xlink:href="#Arial-BoldMT-6e" transform="translate(655.615234 0)"/>
      <use xlink:href="#Arial-BoldMT-64" transform="translate(716.699219 0)"/>
      <use xlink:href="#Arial-BoldMT-65" transform="translate(777.783203 0)"/>
      <use xlink:href="#Arial-BoldMT-78" transform="translate(833.398438 0)"/>
      <use xlink:href="#Arial-BoldMT-29" transform="translate(889.013672 0)"/>
     </g>
    </g>
   </g>
   <g id="matplotlib.axis_2">
    <g id="ytick_1">
     <g id="line2d_11">
      <path d="M 43.0575 387.100937 
L 705.7075 387.100937 
" clip-path="url(#p780f76c528)" style="fill: none; stroke-dasharray: 2.96,1.28; stroke-dashoffset: 0; stroke: #b0b0b0; stroke-opacity: 0.5; stroke-width: 0.8"/>
     </g>
     <g id="line2d_12">
      <defs>
       <path id="m404c7b0f7d" d="M 0 0 
L -3.5 0 
" style="stroke: #000000; stroke-width: 0.8"/>
      </defs>
      <g>
       <use xlink:href="#m404c7b0f7d" x="43.0575" y="387.100937" style="stroke: #000000; stroke-width: 0.8"/>
      </g>
     </g>
     <g id="text_7">
      <!-- 0.0 -->
      <g transform="translate(22.1575 390.679844) scale(0.1 -0.1)">
       <defs>
        <path id="ArialMT-2e" d="M 581 0 
L 581 641 
L 1222 641 
L 1222 0 
L 581 0 
z
" transform="scale(0.015625)"/>
       </defs>
       <use xlink:href="#ArialMT-30"/>
       <use xlink:href="#ArialMT-2e" transform="translate(55.615234 0)"/>
       <use xlink:href="#ArialMT-30" transform="translate(83.398438 0)"/>
      </g>
     </g>
    </g>
    <g id="ytick_2">
     <g id="line2d_13">
      <path d="M 43.0575 317.790461 
L 705.7075 317.790461 
" clip-path="url(#p780f76c528)" style="fill: none; stroke-dasharray: 2.96,1.28; stroke-dashoffset: 0; stroke: #b0b0b0; stroke-opacity: 0.5; stroke-width: 0.8"/>
     </g>
     <g id="line2d_14">
      <g>
       <use xlink:href="#m404c7b0f7d" x="43.0575" y="317.790461" style="stroke: #000000; stroke-width: 0.8"/>
      </g>
     </g>
     <g id="text_8">
      <!-- 0.2 -->
      <g transform="translate(22.1575 321.369368) scale(0.1 -0.1)">
       <use xlink:href="#ArialMT-30"/>
       <use xlink:href="#ArialMT-2e" transform="translate(55.615234 0)"/>
       <use xlink:href="#ArialMT-32" transform="translate(83.398438 0)"/>
      </g>
     </g>
    </g>
    <g id="ytick_3">
     <g id="line2d_15">
      <path d="M 43.0575 248.479985 
L 705.7075 248.479985 
" clip-path="url(#p780f76c528)" style="fill: none; stroke-dasharray: 2.96,1.28; stroke-dashoffset: 0; stroke: #b0b0b0; stroke-opacity: 0.5; stroke-width: 0.8"/>
     </g>
     <g id="line2d_16">
      <g>
       <use xlink:href="#m404c7b0f7d" x="43.0575" y="248.479985" style="stroke: #000000; stroke-width: 0.8"/>
      </g>
     </g>
     <g id="text_9">
      <!-- 0.4 -->
      <g transform="translate(22.1575 252.058891) scale(0.1 -0.1)">
       <use xlink:href="#ArialMT-30"/>
       <use xlink:href="#ArialMT-2e" transform="translate(55.615234 0)"/>
       <use xlink:href="#ArialMT-34" transform="translate(83.398438 0)"/>
      </g>
     </g>
    </g>
    <g id="ytick_4">
     <g id="line2d_17">
      <path d="M 43.0575 179.169509 
L 705.7075 179.169509 
" clip-path="url(#p780f76c528)" style="fill: none; stroke-dasharray: 2.96,1.28; stroke-dashoffset: 0; stroke: #b0b0b0; stroke-opacity: 0.5; stroke-width: 0.8"/>
     </g>
     <g id="line2d_18">
      <g>
       <use xlink:href="#m404c7b0f7d" x="43.0575" y="179.169509" style="stroke: #000000; stroke-width: 0.8"/>
      </g>
     </g>
     <g id="text_10">
      <!-- 0.6 -->
      <g transform="translate(22.1575 182.748415) scale(0.1 -0.1)">
       <defs>
        <path id="ArialMT-36" d="M 3184 3459 
L 2625 3416 
Q 2550 3747 2413 3897 
Q 2184 4138 1850 4138 
Q 1581 4138 1378 3988 
Q 1113 3794 959 3422 
Q 806 3050 800 2363 
Q 1003 2672 1297 2822 
Q 1591 2972 1913 2972 
Q 2475 2972 2870 2558 
Q 3266 2144 3266 1488 
Q 3266 1056 3080 686 
Q 2894 316 2569 119 
Q 2244 -78 1831 -78 
Q 1128 -78 684 439 
Q 241 956 241 2144 
Q 241 3472 731 4075 
Q 1159 4600 1884 4600 
Q 2425 4600 2770 4297 
Q 3116 3994 3184 3459 
z
M 888 1484 
Q 888 1194 1011 928 
Q 1134 663 1356 523 
Q 1578 384 1822 384 
Q 2178 384 2434 671 
Q 2691 959 2691 1453 
Q 2691 1928 2437 2201 
Q 2184 2475 1800 2475 
Q 1419 2475 1153 2201 
Q 888 1928 888 1484 
z
" transform="scale(0.015625)"/>
       </defs>
       <use xlink:href="#ArialMT-30"/>
       <use xlink:href="#ArialMT-2e" transform="translate(55.615234 0)"/>
       <use xlink:href="#ArialMT-36" transform="translate(83.398438 0)"/>
      </g>
     </g>
    </g>
    <g id="ytick_5">
     <g id="line2d_19">
      <path d="M 43.0575 109.859033 
L 705.7075 109.859033 
" clip-path="url(#p780f76c528)" style="fill: none; stroke-dasharray: 2.96,1.28; stroke-dashoffset: 0; stroke: #b0b0b0; stroke-opacity: 0.5; stroke-width: 0.8"/>
     </g>
     <g id="line2d_20">
      <g>
       <use xlink:href="#m404c7b0f7d" x="43.0575" y="109.859033" style="stroke: #000000; stroke-width: 0.8"/>
      </g>
     </g>
     <g id="text_11">
      <!-- 0.8 -->
      <g transform="translate(22.1575 113.437939) scale(0.1 -0.1)">
       <defs>
        <path id="ArialMT-38" d="M 1131 2484 
Q 781 2613 612 2850 
Q 444 3088 444 3419 
Q 444 3919 803 4259 
Q 1163 4600 1759 4600 
Q 2359 4600 2725 4251 
Q 3091 3903 3091 3403 
Q 3091 3084 2923 2848 
Q 2756 2613 2416 2484 
Q 2838 2347 3058 2040 
Q 3278 1734 3278 1309 
Q 3278 722 2862 322 
Q 2447 -78 1769 -78 
Q 1091 -78 675 323 
Q 259 725 259 1325 
Q 259 1772 486 2073 
Q 713 2375 1131 2484 
z
M 1019 3438 
Q 1019 3113 1228 2906 
Q 1438 2700 1772 2700 
Q 2097 2700 2305 2904 
Q 2513 3109 2513 3406 
Q 2513 3716 2298 3927 
Q 2084 4138 1766 4138 
Q 1444 4138 1231 3931 
Q 1019 3725 1019 3438 
z
M 838 1322 
Q 838 1081 952 856 
Q 1066 631 1291 507 
Q 1516 384 1775 384 
Q 2178 384 2440 643 
Q 2703 903 2703 1303 
Q 2703 1709 2433 1975 
Q 2163 2241 1756 2241 
Q 1359 2241 1098 1978 
Q 838 1716 838 1322 
z
" transform="scale(0.015625)"/>
       </defs>
       <use xlink:href="#ArialMT-30"/>
       <use xlink:href="#ArialMT-2e" transform="translate(55.615234 0)"/>
       <use xlink:href="#ArialMT-38" transform="translate(83.398438 0)"/>
      </g>
     </g>
    </g>
    <g id="ytick_6">
     <g id="line2d_21">
      <path d="M 43.0575 40.548557 
L 705.7075 40.548557 
" clip-path="url(#p780f76c528)" style="fill: none; stroke-dasharray: 2.96,1.28; stroke-dashoffset: 0; stroke: #b0b0b0; stroke-opacity: 0.5; stroke-width: 0.8"/>
     </g>
     <g id="line2d_22">
      <g>
       <use xlink:href="#m404c7b0f7d" x="43.0575" y="40.548557" style="stroke: #000000; stroke-width: 0.8"/>
      </g>
     </g>
     <g id="text_12">
      <!-- 1.0 -->
      <g transform="translate(22.1575 44.127463) scale(0.1 -0.1)">
       <use xlink:href="#ArialMT-31"/>
       <use xlink:href="#ArialMT-2e" transform="translate(55.615234 0)"/>
       <use xlink:href="#ArialMT-30" transform="translate(83.398438 0)"/>
      </g>
     </g>
    </g>
    <g id="text_13">
     <!-- Precision -->
     <g transform="translate(15.789375 232.17125) rotate(-90) scale(0.12 -0.12)">
      <defs>
       <path id="Arial-BoldMT-50" d="M 466 0 
L 466 4581 
L 1950 4581 
Q 2794 4581 3050 4513 
Q 3444 4409 3709 4064 
Q 3975 3719 3975 3172 
Q 3975 2750 3822 2462 
Q 3669 2175 3433 2011 
Q 3197 1847 2953 1794 
Q 2622 1728 1994 1728 
L 1391 1728 
L 1391 0 
L 466 0 
z
M 1391 3806 
L 1391 2506 
L 1897 2506 
Q 2444 2506 2628 2578 
Q 2813 2650 2917 2803 
Q 3022 2956 3022 3159 
Q 3022 3409 2875 3571 
Q 2728 3734 2503 3775 
Q 2338 3806 1838 3806 
L 1391 3806 
z
" transform="scale(0.015625)"/>
       <path id="Arial-BoldMT-63" d="M 3353 2338 
L 2488 2181 
Q 2444 2441 2289 2572 
Q 2134 2703 1888 2703 
Q 1559 2703 1364 2476 
Q 1169 2250 1169 1719 
Q 1169 1128 1367 884 
Q 1566 641 1900 641 
Q 2150 641 2309 783 
Q 2469 925 2534 1272 
L 3397 1125 
Q 3263 531 2881 228 
Q 2500 -75 1859 -75 
Q 1131 -75 698 384 
Q 266 844 266 1656 
Q 266 2478 700 2936 
Q 1134 3394 1875 3394 
Q 2481 3394 2839 3133 
Q 3197 2872 3353 2338 
z
" transform="scale(0.015625)"/>
       <path id="Arial-BoldMT-69" d="M 459 3769 
L 459 4581 
L 1338 4581 
L 1338 3769 
L 459 3769 
z
M 459 0 
L 459 3319 
L 1338 3319 
L 1338 0 
L 459 0 
z
" transform="scale(0.015625)"/>
      </defs>
      <use xlink:href="#Arial-BoldMT-50"/>
      <use xlink:href="#Arial-BoldMT-72" transform="translate(66.699219 0)"/>
      <use xlink:href="#Arial-BoldMT-65" transform="translate(105.615234 0)"/>
      <use xlink:href="#Arial-BoldMT-63" transform="translate(161.230469 0)"/>
      <use xlink:href="#Arial-BoldMT-69" transform="translate(216.845703 0)"/>
      <use xlink:href="#Arial-BoldMT-73" transform="translate(244.628906 0)"/>
      <use xlink:href="#Arial-BoldMT-69" transform="translate(300.244141 0)"/>
      <use xlink:href="#Arial-BoldMT-6f" transform="translate(328.027344 0)"/>
      <use xlink:href="#Arial-BoldMT-6e" transform="translate(389.111328 0)"/>
     </g>
    </g>
   </g>
   <g id="line2d_23">
    <path d="M 44.4704 40.548557 
L 79.792894 40.548557 
L 81.205794 53.38383 
L 85.444494 52.100303 
L 86.857393 62.906775 
L 91.096093 60.933991 
L 92.508993 60.35155 
L 93.921892 69.427922 
L 98.160592 67.206432 
L 99.573491 66.539985 
L 102.399291 81.804792 
L 106.63799 79.054377 
L 108.05089 78.217294 
L 110.87669 91.087445 
L 113.702489 102.927985 
L 116.528289 113.857714 
L 119.354088 123.977833 
L 122.179888 133.375087 
L 125.005688 142.124254 
L 127.831487 150.290144 
L 130.657287 157.929202 
L 133.483086 165.090818 
L 136.308886 171.818398 
L 139.134686 178.150237 
L 143.373385 186.97914 
L 147.612084 195.092186 
L 151.850784 202.573046 
L 156.089483 209.492842 
L 160.328182 215.912412 
L 164.566882 221.884105 
L 168.805581 227.453211 
L 173.04428 232.659116 
L 177.28298 237.536226 
L 181.521679 242.114737 
L 185.760378 246.421258 
L 189.999078 250.479326 
L 195.650677 255.539385 
L 201.302276 260.238012 
L 206.953875 264.612596 
L 212.605474 268.695541 
L 218.257074 272.51507 
L 223.908673 276.095878 
L 230.973172 280.269001 
L 238.037671 284.139723 
L 245.10217 287.739765 
L 252.166668 291.096562 
L 259.231167 294.23396 
L 267.708566 297.738374 
L 276.185965 300.987922 
L 284.663364 304.009431 
L 294.553662 307.277074 
L 304.443961 310.297437 
L 314.334259 313.097564 
L 325.637457 316.057699 
L 336.940656 318.790132 
L 349.656754 321.623299 
L 362.372852 324.230815 
L 376.50185 326.894804 
L 390.630848 329.342207 
L 406.172745 331.814371 
L 423.127543 334.280686 
L 441.49524 336.715662 
L 461.275837 339.09875 
L 482.469334 341.413968 
L 505.07573 343.649416 
L 529.095027 345.796729 
L 554.527223 347.85053 
L 582.785219 349.905525 
L 613.869014 351.931018 
L 646.365709 353.825416 
L 681.688204 355.665876 
L 705.7075 356.805314 
L 705.7075 356.805314 
" clip-path="url(#p780f76c528)" style="fill: none; stroke: #1f77b4; stroke-width: 2; stroke-linecap: square"/>
    <defs>
     <path id="m2ca51ad5da" d="M 0 1.5 
C 0.397805 1.5 0.77937 1.341951 1.06066 1.06066 
C 1.341951 0.77937 1.5 0.397805 1.5 0 
C 1.5 -0.397805 1.341951 -0.77937 1.06066 -1.06066 
C 0.77937 -1.341951 0.397805 -1.5 0 -1.5 
C -0.397805 -1.5 -0.77937 -1.341951 -1.06066 -1.06066 
C -1.341951 -0.77937 -1.5 -0.397805 -1.5 0 
C -1.5 0.397805 -1.341951 0.77937 -1.06066 1.06066 
C -0.77937 1.341951 -0.397805 1.5 0 1.5 
z
" style="stroke: #1f77b4"/>
    </defs>
    <g clip-path="url(#p780f76c528)">
     <use xlink:href="#m2ca51ad5da" x="44.4704" y="40.548557" style="fill: #1f77b4; stroke: #1f77b4"/>
     <use xlink:href="#m2ca51ad5da" x="60.012297" y="40.548557" style="fill: #1f77b4; stroke: #1f77b4"/>
     <use xlink:href="#m2ca51ad5da" x="75.554195" y="40.548557" style="fill: #1f77b4; stroke: #1f77b4"/>
     <use xlink:href="#m2ca51ad5da" x="91.096093" y="60.933991" style="fill: #1f77b4; stroke: #1f77b4"/>
     <use xlink:href="#m2ca51ad5da" x="106.63799" y="79.054377" style="fill: #1f77b4; stroke: #1f77b4"/>
     <use xlink:href="#m2ca51ad5da" x="122.179888" y="133.375087" style="fill: #1f77b4; stroke: #1f77b4"/>
     <use xlink:href="#m2ca51ad5da" x="137.721786" y="175.03157" style="fill: #1f77b4; stroke: #1f77b4"/>
     <use xlink:href="#m2ca51ad5da" x="153.263683" y="204.938789" style="fill: #1f77b4; stroke: #1f77b4"/>
     <use xlink:href="#m2ca51ad5da" x="168.805581" y="227.453211" style="fill: #1f77b4; stroke: #1f77b4"/>
     <use xlink:href="#m2ca51ad5da" x="184.347479" y="245.014461" style="fill: #1f77b4; stroke: #1f77b4"/>
     <use xlink:href="#m2ca51ad5da" x="199.889376" y="259.095103" style="fill: #1f77b4; stroke: #1f77b4"/>
     <use xlink:href="#m2ca51ad5da" x="215.431274" y="270.636613" style="fill: #1f77b4; stroke: #1f77b4"/>
     <use xlink:href="#m2ca51ad5da" x="230.973172" y="280.269001" style="fill: #1f77b4; stroke: #1f77b4"/>
     <use xlink:href="#m2ca51ad5da" x="246.515069" y="288.429773" style="fill: #1f77b4; stroke: #1f77b4"/>
     <use xlink:href="#m2ca51ad5da" x="262.056967" y="295.432243" style="fill: #1f77b4; stroke: #1f77b4"/>
     <use xlink:href="#m2ca51ad5da" x="277.598865" y="301.506675" style="fill: #1f77b4; stroke: #1f77b4"/>
     <use xlink:href="#m2ca51ad5da" x="293.140762" y="306.826092" style="fill: #1f77b4; stroke: #1f77b4"/>
     <use xlink:href="#m2ca51ad5da" x="308.68266" y="311.523025" style="fill: #1f77b4; stroke: #1f77b4"/>
     <use xlink:href="#m2ca51ad5da" x="324.224558" y="315.700698" style="fill: #1f77b4; stroke: #1f77b4"/>
     <use xlink:href="#m2ca51ad5da" x="339.766455" y="319.440711" style="fill: #1f77b4; stroke: #1f77b4"/>
     <use xlink:href="#m2ca51ad5da" x="355.308353" y="322.808414" style="fill: #1f77b4; stroke: #1f77b4"/>
     <use xlink:href="#m2ca51ad5da" x="370.850251" y="325.856767" style="fill: #1f77b4; stroke: #1f77b4"/>
     <use xlink:href="#m2ca51ad5da" x="386.392148" y="328.629137" style="fill: #1f77b4; stroke: #1f77b4"/>
     <use xlink:href="#m2ca51ad5da" x="401.934046" y="331.16138" style="fill: #1f77b4; stroke: #1f77b4"/>
     <use xlink:href="#m2ca51ad5da" x="417.475943" y="333.483399" style="fill: #1f77b4; stroke: #1f77b4"/>
     <use xlink:href="#m2ca51ad5da" x="433.017841" y="335.62033" style="fill: #1f77b4; stroke: #1f77b4"/>
     <use xlink:href="#m2ca51ad5da" x="448.559739" y="337.593455" style="fill: #1f77b4; stroke: #1f77b4"/>
     <use xlink:href="#m2ca51ad5da" x="464.101636" y="339.420912" style="fill: #1f77b4; stroke: #1f77b4"/>
     <use xlink:href="#m2ca51ad5da" x="479.643534" y="341.118259" style="fill: #1f77b4; stroke: #1f77b4"/>
     <use xlink:href="#m2ca51ad5da" x="495.185432" y="342.698914" style="fill: #1f77b4; stroke: #1f77b4"/>
     <use xlink:href="#m2ca51ad5da" x="510.727329" y="344.17451" style="fill: #1f77b4; stroke: #1f77b4"/>
     <use xlink:href="#m2ca51ad5da" x="526.269227" y="345.555184" style="fill: #1f77b4; stroke: #1f77b4"/>
     <use xlink:href="#m2ca51ad5da" x="541.811125" y="346.849811" style="fill: #1f77b4; stroke: #1f77b4"/>
     <use xlink:href="#m2ca51ad5da" x="557.353022" y="348.066191" style="fill: #1f77b4; stroke: #1f77b4"/>
     <use xlink:href="#m2ca51ad5da" x="572.89492" y="349.211211" style="fill: #1f77b4; stroke: #1f77b4"/>
     <use xlink:href="#m2ca51ad5da" x="588.436818" y="350.29097" style="fill: #1f77b4; stroke: #1f77b4"/>
     <use xlink:href="#m2ca51ad5da" x="603.978715" y="351.310893" style="fill: #1f77b4; stroke: #1f77b4"/>
     <use xlink:href="#m2ca51ad5da" x="619.520613" y="352.275821" style="fill: #1f77b4; stroke: #1f77b4"/>
     <use xlink:href="#m2ca51ad5da" x="635.062511" y="353.190084" style="fill: #1f77b4; stroke: #1f77b4"/>
     <use xlink:href="#m2ca51ad5da" x="650.604408" y="354.057571" style="fill: #1f77b4; stroke: #1f77b4"/>
     <use xlink:href="#m2ca51ad5da" x="666.146306" y="354.881782" style="fill: #1f77b4; stroke: #1f77b4"/>
     <use xlink:href="#m2ca51ad5da" x="681.688204" y="355.665876" style="fill: #1f77b4; stroke: #1f77b4"/>
     <use xlink:href="#m2ca51ad5da" x="697.230101" y="356.412714" style="fill: #1f77b4; stroke: #1f77b4"/>
    </g>
   </g>
   <g id="line2d_24">
    <path d="M 44.4704 40.548557 
L 69.902596 40.548557 
L 71.315496 57.876176 
L 74.141295 56.300937 
L 76.967095 54.988239 
L 79.792894 53.877494 
L 84.031594 52.498639 
L 85.444494 63.652049 
L 88.270293 62.20808 
L 89.683193 72.053318 
L 92.508993 70.253046 
L 95.334792 68.647398 
L 98.160592 67.206432 
L 100.986391 82.811042 
L 103.812191 80.845345 
L 106.63799 94.456705 
L 109.46379 92.162741 
L 112.28959 104.201035 
L 115.115389 115.295149 
L 116.528289 113.857714 
L 119.354088 123.977833 
L 122.179888 133.375087 
L 125.005688 142.124254 
L 127.831487 150.290144 
L 130.657287 157.929202 
L 133.483086 165.090818 
L 136.308886 171.818398 
L 139.134686 178.150237 
L 143.373385 186.97914 
L 147.612084 195.092186 
L 151.850784 202.573046 
L 156.089483 209.492842 
L 160.328182 215.912412 
L 164.566882 221.884105 
L 168.805581 227.453211 
L 173.04428 232.659116 
L 177.28298 237.536226 
L 181.521679 242.114737 
L 185.760378 246.421258 
L 189.999078 250.479326 
L 195.650677 255.539385 
L 201.302276 260.238012 
L 206.953875 264.612596 
L 212.605474 268.695541 
L 218.257074 272.51507 
L 223.908673 276.095878 
L 230.973172 280.269001 
L 238.037671 284.139723 
L 245.10217 287.739765 
L 252.166668 291.096562 
L 259.231167 294.23396 
L 267.708566 297.738374 
L 276.185965 300.987922 
L 284.663364 304.009431 
L 294.553662 307.277074 
L 304.443961 310.297437 
L 314.334259 313.097564 
L 325.637457 316.057699 
L 336.940656 318.790132 
L 349.656754 321.623299 
L 362.372852 324.230815 
L 376.50185 326.894804 
L 390.630848 329.342207 
L 406.172745 331.814371 
L 423.127543 334.280686 
L 441.49524 336.715662 
L 461.275837 339.09875 
L 482.469334 341.413968 
L 505.07573 343.649416 
L 529.095027 345.796729 
L 554.527223 347.85053 
L 582.785219 349.905525 
L 613.869014 351.931018 
L 646.365709 353.825416 
L 681.688204 355.665876 
L 705.7075 356.805314 
L 705.7075 356.805314 
" clip-path="url(#p780f76c528)" style="fill: none; stroke: #ff7f0e; stroke-width: 2; stroke-linecap: square"/>
    <defs>
     <path id="mc1b23d7317" d="M 0 1.5 
C 0.397805 1.5 0.77937 1.341951 1.06066 1.06066 
C 1.341951 0.77937 1.5 0.397805 1.5 0 
C 1.5 -0.397805 1.341951 -0.77937 1.06066 -1.06066 
C 0.77937 -1.341951 0.397805 -1.5 0 -1.5 
C -0.397805 -1.5 -0.77937 -1.341951 -1.06066 -1.06066 
C -1.341951 -0.77937 -1.5 -0.397805 -1.5 0 
C -1.5 0.397805 -1.341951 0.77937 -1.06066 1.06066 
C -0.77937 1.341951 -0.397805 1.5 0 1.5 
z
" style="stroke: #ff7f0e"/>
    </defs>
    <g clip-path="url(#p780f76c528)">
     <use xlink:href="#mc1b23d7317" x="44.4704" y="40.548557" style="fill: #ff7f0e; stroke: #ff7f0e"/>
     <use xlink:href="#mc1b23d7317" x="60.012297" y="40.548557" style="fill: #ff7f0e; stroke: #ff7f0e"/>
     <use xlink:href="#mc1b23d7317" x="75.554195" y="55.616051" style="fill: #ff7f0e; stroke: #ff7f0e"/>
     <use xlink:href="#mc1b23d7317" x="91.096093" y="71.126708" style="fill: #ff7f0e; stroke: #ff7f0e"/>
     <use xlink:href="#mc1b23d7317" x="106.63799" y="94.456705" style="fill: #ff7f0e; stroke: #ff7f0e"/>
     <use xlink:href="#mc1b23d7317" x="122.179888" y="133.375087" style="fill: #ff7f0e; stroke: #ff7f0e"/>
     <use xlink:href="#mc1b23d7317" x="137.721786" y="175.03157" style="fill: #ff7f0e; stroke: #ff7f0e"/>
     <use xlink:href="#mc1b23d7317" x="153.263683" y="204.938789" style="fill: #ff7f0e; stroke: #ff7f0e"/>
     <use xlink:href="#mc1b23d7317" x="168.805581" y="227.453211" style="fill: #ff7f0e; stroke: #ff7f0e"/>
     <use xlink:href="#mc1b23d7317" x="184.347479" y="245.014461" style="fill: #ff7f0e; stroke: #ff7f0e"/>
     <use xlink:href="#mc1b23d7317" x="199.889376" y="259.095103" style="fill: #ff7f0e; stroke: #ff7f0e"/>
     <use xlink:href="#mc1b23d7317" x="215.431274" y="270.636613" style="fill: #ff7f0e; stroke: #ff7f0e"/>
     <use xlink:href="#mc1b23d7317" x="230.973172" y="280.269001" style="fill: #ff7f0e; stroke: #ff7f0e"/>
     <use xlink:href="#mc1b23d7317" x="246.515069" y="288.429773" style="fill: #ff7f0e; stroke: #ff7f0e"/>
     <use xlink:href="#mc1b23d7317" x="262.056967" y="295.432243" style="fill: #ff7f0e; stroke: #ff7f0e"/>
     <use xlink:href="#mc1b23d7317" x="277.598865" y="301.506675" style="fill: #ff7f0e; stroke: #ff7f0e"/>
     <use xlink:href="#mc1b23d7317" x="293.140762" y="306.826092" style="fill: #ff7f0e; stroke: #ff7f0e"/>
     <use xlink:href="#mc1b23d7317" x="308.68266" y="311.523025" style="fill: #ff7f0e; stroke: #ff7f0e"/>
     <use xlink:href="#mc1b23d7317" x="324.224558" y="315.700698" style="fill: #ff7f0e; stroke: #ff7f0e"/>
     <use xlink:href="#mc1b23d7317" x="339.766455" y="319.440711" style="fill: #ff7f0e; stroke: #ff7f0e"/>
     <use xlink:href="#mc1b23d7317" x="355.308353" y="322.808414" style="fill: #ff7f0e; stroke: #ff7f0e"/>
     <use xlink:href="#mc1b23d7317" x="370.850251" y="325.856767" style="fill: #ff7f0e; stroke: #ff7f0e"/>
     <use xlink:href="#mc1b23d7317" x="386.392148" y="328.629137" style="fill: #ff7f0e; stroke: #ff7f0e"/>
     <use xlink:href="#mc1b23d7317" x="401.934046" y="331.16138" style="fill: #ff7f0e; stroke: #ff7f0e"/>
     <use xlink:href="#mc1b23d7317" x="417.475943" y="333.483399" style="fill: #ff7f0e; stroke: #ff7f0e"/>
     <use xlink:href="#mc1b23d7317" x="433.017841" y="335.62033" style="fill: #ff7f0e; stroke: #ff7f0e"/>
     <use xlink:href="#mc1b23d7317" x="448.559739" y="337.593455" style="fill: #ff7f0e; stroke: #ff7f0e"/>
     <use xlink:href="#mc1b23d7317" x="464.101636" y="339.420912" style="fill: #ff7f0e; stroke: #ff7f0e"/>
     <use xlink:href="#mc1b23d7317" x="479.643534" y="341.118259" style="fill: #ff7f0e; stroke: #ff7f0e"/>
     <use xlink:href="#mc1b23d7317" x="495.185432" y="342.698914" style="fill: #ff7f0e; stroke: #ff7f0e"/>
     <use xlink:href="#mc1b23d7317" x="510.727329" y="344.17451" style="fill: #ff7f0e; stroke: #ff7f0e"/>
     <use xlink:href="#mc1b23d7317" x="526.269227" y="345.555184" style="fill: #ff7f0e; stroke: #ff7f0e"/>
     <use xlink:href="#mc1b23d7317" x="541.811125" y="346.849811" style="fill: #ff7f0e; stroke: #ff7f0e"/>
     <use xlink:href="#mc1b23d7317" x="557.353022" y="348.066191" style="fill: #ff7f0e; stroke: #ff7f0e"/>
     <use xlink:href="#mc1b23d7317" x="572.89492" y="349.211211" style="fill: #ff7f0e; stroke: #ff7f0e"/>
     <use xlink:href="#mc1b23d7317" x="588.436818" y="350.29097" style="fill: #ff7f0e; stroke: #ff7f0e"/>
     <use xlink:href="#mc1b23d7317" x="603.978715" y="351.310893" style="fill: #ff7f0e; stroke: #ff7f0e"/>
     <use xlink:href="#mc1b23d7317" x="619.520613" y="352.275821" style="fill: #ff7f0e; stroke: #ff7f0e"/>
     <use xlink:href="#mc1b23d7317" x="635.062511" y="353.190084" style="fill: #ff7f0e; stroke: #ff7f0e"/>
     <use xlink:href="#mc1b23d7317" x="650.604408" y="354.057571" style="fill: #ff7f0e; stroke: #ff7f0e"/>
     <use xlink:href="#mc1b23d7317" x="666.146306" y="354.881782" style="fill: #ff7f0e; stroke: #ff7f0e"/>
     <use xlink:href="#mc1b23d7317" x="681.688204" y="355.665876" style="fill: #ff7f0e; stroke: #ff7f0e"/>
     <use xlink:href="#mc1b23d7317" x="697.230101" y="356.412714" style="fill: #ff7f0e; stroke: #ff7f0e"/>
    </g>
   </g>
   <g id="line2d_25">
    <path d="M 44.4704 387.100937 
L 45.8833 387.100937 
L 47.296199 271.583477 
L 48.709099 213.824747 
L 50.121999 248.479985 
L 51.534899 213.824747 
L 52.947799 238.578489 
L 54.360698 213.824747 
L 55.773598 194.571837 
L 57.186498 213.824747 
L 58.599398 198.072366 
L 60.012297 184.945382 
L 61.425197 173.837934 
L 62.838097 189.071006 
L 64.250997 179.169509 
L 65.663897 192.165223 
L 67.076796 183.246596 
L 68.489696 175.318927 
L 69.902596 168.22575 
L 71.315496 179.169509 
L 72.728396 189.071006 
L 74.141295 198.072366 
L 75.554195 191.223505 
L 76.967095 199.385064 
L 79.792894 187.166872 
L 82.618694 176.694135 
L 85.444494 190.721255 
L 88.270293 202.994985 
L 91.096093 213.824747 
L 93.921892 223.451202 
L 95.334792 227.874168 
L 98.160592 218.267726 
L 100.986391 226.503493 
L 103.812191 233.973141 
L 105.225091 237.453318 
L 106.63799 233.077657 
L 109.46379 239.631839 
L 110.87669 242.704112 
L 112.28959 238.578489 
L 115.115389 244.402898 
L 116.528289 247.147091 
L 117.941189 243.249006 
L 119.354088 245.91293 
L 120.766988 242.179033 
L 122.179888 244.766924 
L 123.592788 241.184146 
L 125.005688 243.699952 
L 126.418587 240.256708 
L 129.244387 245.071273 
L 132.070187 249.580151 
L 136.308886 255.831096 
L 140.547585 261.538481 
L 141.960485 258.381482 
L 143.373385 260.194432 
L 144.786285 257.143795 
L 149.024984 262.34208 
L 153.263683 267.140498 
L 157.502383 271.583477 
L 161.741082 275.709101 
L 165.979781 279.550199 
L 167.392681 280.772366 
L 168.805581 278.073222 
L 173.04428 281.628474 
L 178.69588 286.02316 
L 182.934579 289.086123 
L 184.347479 286.600747 
L 185.760378 287.595798 
L 187.173278 285.173767 
L 192.824877 289.020075 
L 198.476477 292.586652 
L 204.128076 295.902943 
L 209.779675 298.9944 
L 216.844174 302.575967 
L 223.908673 305.877723 
L 226.734472 307.127311 
L 228.147372 305.092359 
L 235.211871 308.10738 
L 242.27637 310.90857 
L 250.753769 314.018463 
L 259.231167 316.884442 
L 267.708566 319.534121 
L 269.121466 319.956414 
L 270.534366 318.220961 
L 280.424664 321.09096 
L 290.314963 323.731359 
L 297.379462 325.491625 
L 298.792361 323.917354 
L 310.09556 326.591792 
L 311.508459 325.086301 
L 322.811658 327.591943 
L 335.527756 330.17929 
L 348.243854 332.551026 
L 362.372852 334.964739 
L 366.611551 335.647746 
L 368.024451 334.364706 
L 383.566349 336.771754 
L 400.521146 339.158909 
L 418.888843 341.50194 
L 424.540442 342.177481 
L 427.366242 339.959621 
L 445.733939 342.109927 
L 447.146839 341.055516 
L 465.514536 343.057491 
L 466.927436 342.049128 
L 488.120933 344.194452 
L 512.140229 346.391471 
L 513.553129 345.473024 
L 538.985325 347.607789 
L 550.288523 348.487859 
L 551.701423 347.632472 
L 579.959419 349.70976 
L 609.630314 351.667901 
L 642.12701 353.589976 
L 677.449504 355.455843 
L 705.7075 356.805314 
L 705.7075 356.805314 
" clip-path="url(#p780f76c528)" style="fill: none; stroke: #2ca02c; stroke-width: 2; stroke-linecap: square"/>
    <defs>
     <path id="m68ee363ef9" d="M 0 1.5 
C 0.397805 1.5 0.77937 1.341951 1.06066 1.06066 
C 1.341951 0.77937 1.5 0.397805 1.5 0 
C 1.5 -0.397805 1.341951 -0.77937 1.06066 -1.06066 
C 0.77937 -1.341951 0.397805 -1.5 0 -1.5 
C -0.397805 -1.5 -0.77937 -1.341951 -1.06066 -1.06066 
C -1.341951 -0.77937 -1.5 -0.397805 -1.5 0 
C -1.5 0.397805 -1.341951 0.77937 -1.06066 1.06066 
C -0.77937 1.341951 -0.397805 1.5 0 1.5 
z
" style="stroke: #2ca02c"/>
    </defs>
    <g clip-path="url(#p780f76c528)">
     <use xlink:href="#m68ee363ef9" x="44.4704" y="387.100937" style="fill: #2ca02c; stroke: #2ca02c"/>
     <use xlink:href="#m68ee363ef9" x="60.012297" y="184.945382" style="fill: #2ca02c; stroke: #2ca02c"/>
     <use xlink:href="#m68ee363ef9" x="75.554195" y="191.223505" style="fill: #2ca02c; stroke: #2ca02c"/>
     <use xlink:href="#m68ee363ef9" x="91.096093" y="213.824747" style="fill: #2ca02c; stroke: #2ca02c"/>
     <use xlink:href="#m68ee363ef9" x="106.63799" y="233.077657" style="fill: #2ca02c; stroke: #2ca02c"/>
     <use xlink:href="#m68ee363ef9" x="122.179888" y="244.766924" style="fill: #2ca02c; stroke: #2ca02c"/>
     <use xlink:href="#m68ee363ef9" x="137.721786" y="257.790348" style="fill: #2ca02c; stroke: #2ca02c"/>
     <use xlink:href="#m68ee363ef9" x="153.263683" y="267.140498" style="fill: #2ca02c; stroke: #2ca02c"/>
     <use xlink:href="#m68ee363ef9" x="168.805581" y="278.073222" style="fill: #2ca02c; stroke: #2ca02c"/>
     <use xlink:href="#m68ee363ef9" x="184.347479" y="286.600747" style="fill: #2ca02c; stroke: #2ca02c"/>
     <use xlink:href="#m68ee363ef9" x="199.889376" y="293.438132" style="fill: #2ca02c; stroke: #2ca02c"/>
     <use xlink:href="#m68ee363ef9" x="215.431274" y="301.883139" style="fill: #2ca02c; stroke: #2ca02c"/>
     <use xlink:href="#m68ee363ef9" x="230.973172" y="306.325571" style="fill: #2ca02c; stroke: #2ca02c"/>
     <use xlink:href="#m68ee363ef9" x="246.515069" y="312.495911" style="fill: #2ca02c; stroke: #2ca02c"/>
     <use xlink:href="#m68ee363ef9" x="262.056967" y="317.790461" style="fill: #2ca02c; stroke: #2ca02c"/>
     <use xlink:href="#m68ee363ef9" x="277.598865" y="320.295659" style="fill: #2ca02c; stroke: #2ca02c"/>
     <use xlink:href="#m68ee363ef9" x="293.140762" y="324.4474" style="fill: #2ca02c; stroke: #2ca02c"/>
     <use xlink:href="#m68ee363ef9" x="308.68266" y="326.269934" style="fill: #2ca02c; stroke: #2ca02c"/>
     <use xlink:href="#m68ee363ef9" x="324.224558" y="327.890983" style="fill: #2ca02c; stroke: #2ca02c"/>
     <use xlink:href="#m68ee363ef9" x="339.766455" y="330.992457" style="fill: #2ca02c; stroke: #2ca02c"/>
     <use xlink:href="#m68ee363ef9" x="355.308353" y="333.785187" style="fill: #2ca02c; stroke: #2ca02c"/>
     <use xlink:href="#m68ee363ef9" x="370.850251" y="334.819328" style="fill: #2ca02c; stroke: #2ca02c"/>
     <use xlink:href="#m68ee363ef9" x="386.392148" y="337.185986" style="fill: #2ca02c; stroke: #2ca02c"/>
     <use xlink:href="#m68ee363ef9" x="401.934046" y="339.347657" style="fill: #2ca02c; stroke: #2ca02c"/>
     <use xlink:href="#m68ee363ef9" x="417.475943" y="341.329868" style="fill: #2ca02c; stroke: #2ca02c"/>
     <use xlink:href="#m68ee363ef9" x="433.017841" y="340.642828" style="fill: #2ca02c; stroke: #2ca02c"/>
     <use xlink:href="#m68ee363ef9" x="448.559739" y="341.215953" style="fill: #2ca02c; stroke: #2ca02c"/>
     <use xlink:href="#m68ee363ef9" x="464.101636" y="342.909694" style="fill: #2ca02c; stroke: #2ca02c"/>
     <use xlink:href="#m68ee363ef9" x="479.643534" y="343.361317" style="fill: #2ca02c; stroke: #2ca02c"/>
     <use xlink:href="#m68ee363ef9" x="495.185432" y="344.864866" style="fill: #2ca02c; stroke: #2ca02c"/>
     <use xlink:href="#m68ee363ef9" x="510.727329" y="346.268482" style="fill: #2ca02c; stroke: #2ca02c"/>
     <use xlink:href="#m68ee363ef9" x="526.269227" y="346.568495" style="fill: #2ca02c; stroke: #2ca02c"/>
     <use xlink:href="#m68ee363ef9" x="541.811125" y="347.831546" style="fill: #2ca02c; stroke: #2ca02c"/>
     <use xlink:href="#m68ee363ef9" x="557.353022" y="348.066191" style="fill: #2ca02c; stroke: #2ca02c"/>
     <use xlink:href="#m68ee363ef9" x="572.89492" y="349.211211" style="fill: #2ca02c; stroke: #2ca02c"/>
     <use xlink:href="#m68ee363ef9" x="588.436818" y="350.29097" style="fill: #2ca02c; stroke: #2ca02c"/>
     <use xlink:href="#m68ee363ef9" x="603.978715" y="351.310893" style="fill: #2ca02c; stroke: #2ca02c"/>
     <use xlink:href="#m68ee363ef9" x="619.520613" y="352.275821" style="fill: #2ca02c; stroke: #2ca02c"/>
     <use xlink:href="#m68ee363ef9" x="635.062511" y="353.190084" style="fill: #2ca02c; stroke: #2ca02c"/>
     <use xlink:href="#m68ee363ef9" x="650.604408" y="354.057571" style="fill: #2ca02c; stroke: #2ca02c"/>
     <use xlink:href="#m68ee363ef9" x="666.146306" y="354.881782" style="fill: #2ca02c; stroke: #2ca02c"/>
     <use xlink:href="#m68ee363ef9" x="681.688204" y="355.665876" style="fill: #2ca02c; stroke: #2ca02c"/>
     <use xlink:href="#m68ee363ef9" x="697.230101" y="356.412714" style="fill: #2ca02c; stroke: #2ca02c"/>
    </g>
   </g>
   <g id="line2d_26">
    <path d="M 44.4704 387.100937 
L 324.224558 387.100937 
L 331.289057 378.607007 
L 336.940656 372.105883 
L 363.785752 373.360975 
L 386.392148 374.265664 
L 393.456647 367.537497 
L 394.869547 366.224288 
L 421.714643 367.704349 
L 431.604941 368.19808 
L 440.08234 361.202005 
L 441.49524 360.064936 
L 442.90814 360.16047 
L 448.559739 355.705948 
L 449.972639 355.814959 
L 451.385538 354.724071 
L 455.624238 355.05671 
L 464.101636 348.724332 
L 471.166135 343.638923 
L 473.991935 343.92392 
L 475.404835 342.932497 
L 498.011231 345.127202 
L 499.424131 345.257152 
L 500.837031 344.316693 
L 502.249931 344.448337 
L 503.66283 343.516129 
L 527.682127 345.676309 
L 553.114323 347.741803 
L 581.372319 349.807899 
L 611.043214 351.756043 
L 643.539909 353.668825 
L 678.862404 355.526165 
L 705.7075 356.805314 
L 705.7075 356.805314 
" clip-path="url(#p780f76c528)" style="fill: none; stroke: #9467bd; stroke-width: 2; stroke-linecap: square"/>
    <defs>
     <path id="m07d60489f2" d="M 0 1.5 
C 0.397805 1.5 0.77937 1.341951 1.06066 1.06066 
C 1.341951 0.77937 1.5 0.397805 1.5 0 
C 1.5 -0.397805 1.341951 -0.77937 1.06066 -1.06066 
C 0.77937 -1.341951 0.397805 -1.5 0 -1.5 
C -0.397805 -1.5 -0.77937 -1.341951 -1.06066 -1.06066 
C -1.341951 -0.77937 -1.5 -0.397805 -1.5 0 
C -1.5 0.397805 -1.341951 0.77937 -1.06066 1.06066 
C -0.77937 1.341951 -0.397805 1.5 0 1.5 
z
" style="stroke: #9467bd"/>
    </defs>
    <g clip-path="url(#p780f76c528)">
     <use xlink:href="#m07d60489f2" x="44.4704" y="387.100937" style="fill: #9467bd; stroke: #9467bd"/>
     <use xlink:href="#m07d60489f2" x="60.012297" y="387.100937" style="fill: #9467bd; stroke: #9467bd"/>
     <use xlink:href="#m07d60489f2" x="75.554195" y="387.100937" style="fill: #9467bd; stroke: #9467bd"/>
     <use xlink:href="#m07d60489f2" x="91.096093" y="387.100937" style="fill: #9467bd; stroke: #9467bd"/>
     <use xlink:href="#m07d60489f2" x="106.63799" y="387.100937" style="fill: #9467bd; stroke: #9467bd"/>
     <use xlink:href="#m07d60489f2" x="122.179888" y="387.100937" style="fill: #9467bd; stroke: #9467bd"/>
     <use xlink:href="#m07d60489f2" x="137.721786" y="387.100937" style="fill: #9467bd; stroke: #9467bd"/>
     <use xlink:href="#m07d60489f2" x="153.263683" y="387.100937" style="fill: #9467bd; stroke: #9467bd"/>
     <use xlink:href="#m07d60489f2" x="168.805581" y="387.100937" style="fill: #9467bd; stroke: #9467bd"/>
     <use xlink:href="#m07d60489f2" x="184.347479" y="387.100937" style="fill: #9467bd; stroke: #9467bd"/>
     <use xlink:href="#m07d60489f2" x="199.889376" y="387.100937" style="fill: #9467bd; stroke: #9467bd"/>
     <use xlink:href="#m07d60489f2" x="215.431274" y="387.100937" style="fill: #9467bd; stroke: #9467bd"/>
     <use xlink:href="#m07d60489f2" x="230.973172" y="387.100937" style="fill: #9467bd; stroke: #9467bd"/>
     <use xlink:href="#m07d60489f2" x="246.515069" y="387.100937" style="fill: #9467bd; stroke: #9467bd"/>
     <use xlink:href="#m07d60489f2" x="262.056967" y="387.100937" style="fill: #9467bd; stroke: #9467bd"/>
     <use xlink:href="#m07d60489f2" x="277.598865" y="387.100937" style="fill: #9467bd; stroke: #9467bd"/>
     <use xlink:href="#m07d60489f2" x="293.140762" y="387.100937" style="fill: #9467bd; stroke: #9467bd"/>
     <use xlink:href="#m07d60489f2" x="308.68266" y="387.100937" style="fill: #9467bd; stroke: #9467bd"/>
     <use xlink:href="#m07d60489f2" x="324.224558" y="387.100937" style="fill: #9467bd; stroke: #9467bd"/>
     <use xlink:href="#m07d60489f2" x="339.766455" y="372.248693" style="fill: #9467bd; stroke: #9467bd"/>
     <use xlink:href="#m07d60489f2" x="355.308353" y="372.987945" style="fill: #9467bd; stroke: #9467bd"/>
     <use xlink:href="#m07d60489f2" x="370.850251" y="373.657095" style="fill: #9467bd; stroke: #9467bd"/>
     <use xlink:href="#m07d60489f2" x="386.392148" y="374.265664" style="fill: #9467bd; stroke: #9467bd"/>
     <use xlink:href="#m07d60489f2" x="401.934046" y="366.635246" style="fill: #9467bd; stroke: #9467bd"/>
     <use xlink:href="#m07d60489f2" x="417.475943" y="367.484765" style="fill: #9467bd; stroke: #9467bd"/>
     <use xlink:href="#m07d60489f2" x="433.017841" y="367.010944" style="fill: #9467bd; stroke: #9467bd"/>
     <use xlink:href="#m07d60489f2" x="448.559739" y="355.705948" style="fill: #9467bd; stroke: #9467bd"/>
     <use xlink:href="#m07d60489f2" x="464.101636" y="348.724332" style="fill: #9467bd; stroke: #9467bd"/>
     <use xlink:href="#m07d60489f2" x="479.643534" y="343.361317" style="fill: #9467bd; stroke: #9467bd"/>
     <use xlink:href="#m07d60489f2" x="495.185432" y="344.864866" style="fill: #9467bd; stroke: #9467bd"/>
     <use xlink:href="#m07d60489f2" x="510.727329" y="344.17451" style="fill: #9467bd; stroke: #9467bd"/>
     <use xlink:href="#m07d60489f2" x="526.269227" y="345.555184" style="fill: #9467bd; stroke: #9467bd"/>
     <use xlink:href="#m07d60489f2" x="541.811125" y="346.849811" style="fill: #9467bd; stroke: #9467bd"/>
     <use xlink:href="#m07d60489f2" x="557.353022" y="348.066191" style="fill: #9467bd; stroke: #9467bd"/>
     <use xlink:href="#m07d60489f2" x="572.89492" y="349.211211" style="fill: #9467bd; stroke: #9467bd"/>
     <use xlink:href="#m07d60489f2" x="588.436818" y="350.29097" style="fill: #9467bd; stroke: #9467bd"/>
     <use xlink:href="#m07d60489f2" x="603.978715" y="351.310893" style="fill: #9467bd; stroke: #9467bd"/>
     <use xlink:href="#m07d60489f2" x="619.520613" y="352.275821" style="fill: #9467bd; stroke: #9467bd"/>
     <use xlink:href="#m07d60489f2" x="635.062511" y="353.190084" style="fill: #9467bd; stroke: #9467bd"/>
     <use xlink:href="#m07d60489f2" x="650.604408" y="354.057571" style="fill: #9467bd; stroke: #9467bd"/>
     <use xlink:href="#m07d60489f2" x="666.146306" y="354.881782" style="fill: #9467bd; stroke: #9467bd"/>
     <use xlink:href="#m07d60489f2" x="681.688204" y="355.665876" style="fill: #9467bd; stroke: #9467bd"/>
     <use xlink:href="#m07d60489f2" x="697.230101" y="356.412714" style="fill: #9467bd; stroke: #9467bd"/>
    </g>
   </g>
   <g id="line2d_27">
    <path d="M 44.4704 40.548557 
L 45.8833 40.548557 
L 47.296199 156.066017 
L 48.709099 127.186652 
L 50.121999 109.859033 
L 51.534899 98.307287 
L 52.947799 90.05604 
L 54.360698 83.867604 
L 55.773598 79.054377 
L 57.186498 75.203795 
L 58.599398 72.053318 
L 60.012297 69.427922 
L 61.425197 67.206432 
L 62.838097 65.302298 
L 64.250997 63.652049 
L 65.663897 83.867604 
L 67.076796 81.319425 
L 68.489696 79.054377 
L 69.902596 77.027755 
L 71.315496 92.531414 
L 72.728396 90.05604 
L 75.554195 85.751041 
L 78.379995 82.134842 
L 79.792894 93.864307 
L 82.618694 90.05604 
L 85.444494 86.755541 
L 88.270293 83.867604 
L 89.683193 82.554906 
L 92.508993 99.957536 
L 95.334792 96.74624 
L 98.160592 93.864307 
L 99.573491 92.531414 
L 100.986391 99.716036 
L 103.812191 96.96406 
L 105.225091 95.68189 
L 108.05089 108.352283 
L 110.87669 105.527128 
L 112.28959 104.201035 
L 113.702489 109.859033 
L 115.115389 108.500004 
L 117.941189 119.013247 
L 120.766988 128.76189 
L 123.592788 137.826418 
L 126.418587 146.276402 
L 129.244387 154.172288 
L 132.070187 161.566848 
L 134.895986 168.506359 
L 137.721786 175.03157 
L 141.960485 184.120257 
L 146.199184 192.461929 
L 150.437884 200.145048 
L 154.676583 207.244639 
L 158.915283 213.824747 
L 163.153982 219.940377 
L 167.392681 225.639033 
L 171.631381 230.961953 
L 175.87008 235.945112 
L 180.108779 240.620034 
L 184.347479 245.014461 
L 188.586178 249.152902 
L 194.237777 254.309838 
L 199.889376 259.095103 
L 205.540975 263.54748 
L 211.192575 267.700537 
L 216.844174 271.583477 
L 222.495773 275.221822 
L 228.147372 278.637979 
L 235.211871 282.625587 
L 242.27637 286.330387 
L 249.340869 289.781433 
L 256.405368 293.003933 
L 264.882767 296.599997 
L 273.360165 299.93132 
L 281.837564 303.0261 
L 290.314963 305.908665 
L 300.205261 309.031445 
L 310.09556 311.922908 
L 321.398758 314.975823 
L 332.701956 317.790461 
L 345.418054 320.705388 
L 358.134152 323.385029 
L 372.26315 326.119617 
L 386.392148 328.629137 
L 401.934046 331.16138 
L 418.888843 333.684969 
L 437.256541 336.173885 
L 455.624238 338.441185 
L 475.404835 340.667449 
L 496.598332 342.837238 
L 520.617628 345.063519 
L 546.049824 347.189006 
L 572.89492 349.211211 
L 602.565816 351.220514 
L 635.062511 353.190084 
L 670.385005 355.099479 
L 705.7075 356.805314 
L 705.7075 356.805314 
" clip-path="url(#p780f76c528)" style="fill: none; stroke: #8c564b; stroke-width: 2; stroke-linecap: square"/>
    <defs>
     <path id="m84b3f47df6" d="M 0 1.5 
C 0.397805 1.5 0.77937 1.341951 1.06066 1.06066 
C 1.341951 0.77937 1.5 0.397805 1.5 0 
C 1.5 -0.397805 1.341951 -0.77937 1.06066 -1.06066 
C 0.77937 -1.341951 0.397805 -1.5 0 -1.5 
C -0.397805 -1.5 -0.77937 -1.341951 -1.06066 -1.06066 
C -1.341951 -0.77937 -1.5 -0.397805 -1.5 0 
C -1.5 0.397805 -1.341951 0.77937 -1.06066 1.06066 
C -0.77937 1.341951 -0.397805 1.5 0 1.5 
z
" style="stroke: #8c564b"/>
    </defs>
    <g clip-path="url(#p780f76c528)">
     <use xlink:href="#m84b3f47df6" x="44.4704" y="40.548557" style="fill: #8c564b; stroke: #8c564b"/>
     <use xlink:href="#m84b3f47df6" x="60.012297" y="69.427922" style="fill: #8c564b; stroke: #8c564b"/>
     <use xlink:href="#m84b3f47df6" x="75.554195" y="85.751041" style="fill: #8c564b; stroke: #8c564b"/>
     <use xlink:href="#m84b3f47df6" x="91.096093" y="91.512142" style="fill: #8c564b; stroke: #8c564b"/>
     <use xlink:href="#m84b3f47df6" x="106.63799" y="102.157869" style="fill: #8c564b; stroke: #8c564b"/>
     <use xlink:href="#m84b3f47df6" x="122.179888" y="133.375087" style="fill: #8c564b; stroke: #8c564b"/>
     <use xlink:href="#m84b3f47df6" x="137.721786" y="175.03157" style="fill: #8c564b; stroke: #8c564b"/>
     <use xlink:href="#m84b3f47df6" x="153.263683" y="204.938789" style="fill: #8c564b; stroke: #8c564b"/>
     <use xlink:href="#m84b3f47df6" x="168.805581" y="227.453211" style="fill: #8c564b; stroke: #8c564b"/>
     <use xlink:href="#m84b3f47df6" x="184.347479" y="245.014461" style="fill: #8c564b; stroke: #8c564b"/>
     <use xlink:href="#m84b3f47df6" x="199.889376" y="259.095103" style="fill: #8c564b; stroke: #8c564b"/>
     <use xlink:href="#m84b3f47df6" x="215.431274" y="270.636613" style="fill: #8c564b; stroke: #8c564b"/>
     <use xlink:href="#m84b3f47df6" x="230.973172" y="280.269001" style="fill: #8c564b; stroke: #8c564b"/>
     <use xlink:href="#m84b3f47df6" x="246.515069" y="288.429773" style="fill: #8c564b; stroke: #8c564b"/>
     <use xlink:href="#m84b3f47df6" x="262.056967" y="295.432243" style="fill: #8c564b; stroke: #8c564b"/>
     <use xlink:href="#m84b3f47df6" x="277.598865" y="301.506675" style="fill: #8c564b; stroke: #8c564b"/>
     <use xlink:href="#m84b3f47df6" x="293.140762" y="306.826092" style="fill: #8c564b; stroke: #8c564b"/>
     <use xlink:href="#m84b3f47df6" x="308.68266" y="311.523025" style="fill: #8c564b; stroke: #8c564b"/>
     <use xlink:href="#m84b3f47df6" x="324.224558" y="315.700698" style="fill: #8c564b; stroke: #8c564b"/>
     <use xlink:href="#m84b3f47df6" x="339.766455" y="319.440711" style="fill: #8c564b; stroke: #8c564b"/>
     <use xlink:href="#m84b3f47df6" x="355.308353" y="322.808414" style="fill: #8c564b; stroke: #8c564b"/>
     <use xlink:href="#m84b3f47df6" x="370.850251" y="325.856767" style="fill: #8c564b; stroke: #8c564b"/>
     <use xlink:href="#m84b3f47df6" x="386.392148" y="328.629137" style="fill: #8c564b; stroke: #8c564b"/>
     <use xlink:href="#m84b3f47df6" x="401.934046" y="331.16138" style="fill: #8c564b; stroke: #8c564b"/>
     <use xlink:href="#m84b3f47df6" x="417.475943" y="333.483399" style="fill: #8c564b; stroke: #8c564b"/>
     <use xlink:href="#m84b3f47df6" x="433.017841" y="335.62033" style="fill: #8c564b; stroke: #8c564b"/>
     <use xlink:href="#m84b3f47df6" x="448.559739" y="337.593455" style="fill: #8c564b; stroke: #8c564b"/>
     <use xlink:href="#m84b3f47df6" x="464.101636" y="339.420912" style="fill: #8c564b; stroke: #8c564b"/>
     <use xlink:href="#m84b3f47df6" x="479.643534" y="341.118259" style="fill: #8c564b; stroke: #8c564b"/>
     <use xlink:href="#m84b3f47df6" x="495.185432" y="342.698914" style="fill: #8c564b; stroke: #8c564b"/>
     <use xlink:href="#m84b3f47df6" x="510.727329" y="344.17451" style="fill: #8c564b; stroke: #8c564b"/>
     <use xlink:href="#m84b3f47df6" x="526.269227" y="345.555184" style="fill: #8c564b; stroke: #8c564b"/>
     <use xlink:href="#m84b3f47df6" x="541.811125" y="346.849811" style="fill: #8c564b; stroke: #8c564b"/>
     <use xlink:href="#m84b3f47df6" x="557.353022" y="348.066191" style="fill: #8c564b; stroke: #8c564b"/>
     <use xlink:href="#m84b3f47df6" x="572.89492" y="349.211211" style="fill: #8c564b; stroke: #8c564b"/>
     <use xlink:href="#m84b3f47df6" x="588.436818" y="350.29097" style="fill: #8c564b; stroke: #8c564b"/>
     <use xlink:href="#m84b3f47df6" x="603.978715" y="351.310893" style="fill: #8c564b; stroke: #8c564b"/>
     <use xlink:href="#m84b3f47df6" x="619.520613" y="352.275821" style="fill: #8c564b; stroke: #8c564b"/>
     <use xlink:href="#m84b3f47df6" x="635.062511" y="353.190084" style="fill: #8c564b; stroke: #8c564b"/>
     <use xlink:href="#m84b3f47df6" x="650.604408" y="354.057571" style="fill: #8c564b; stroke: #8c564b"/>
     <use xlink:href="#m84b3f47df6" x="666.146306" y="354.881782" style="fill: #8c564b; stroke: #8c564b"/>
     <use xlink:href="#m84b3f47df6" x="681.688204" y="355.665876" style="fill: #8c564b; stroke: #8c564b"/>
     <use xlink:href="#m84b3f47df6" x="697.230101" y="356.412714" style="fill: #8c564b; stroke: #8c564b"/>
    </g>
   </g>
   <g id="line2d_28">
    <path d="M 44.4704 40.548557 
L 51.534899 40.548557 
L 52.947799 90.05604 
L 54.360698 83.867604 
L 55.773598 79.054377 
L 57.186498 75.203795 
L 58.599398 72.053318 
L 60.012297 69.427922 
L 61.425197 67.206432 
L 62.838097 90.05604 
L 64.250997 86.755541 
L 65.663897 83.867604 
L 67.076796 81.319425 
L 68.489696 79.054377 
L 69.902596 95.267354 
L 71.315496 92.531414 
L 72.728396 90.05604 
L 75.554195 85.751041 
L 76.967095 83.867604 
L 78.379995 95.996938 
L 81.205794 91.88965 
L 84.031594 88.348885 
L 85.444494 98.307287 
L 88.270293 94.697366 
L 91.096093 91.512142 
L 93.921892 88.680832 
L 96.747692 86.147554 
L 98.160592 84.978349 
L 100.986391 99.716036 
L 102.399291 106.558534 
L 103.812191 105.023418 
L 105.225091 111.434271 
L 108.05089 108.352283 
L 110.87669 105.527128 
L 113.702489 116.79008 
L 116.528289 127.186652 
L 117.941189 132.090695 
L 120.766988 128.76189 
L 123.592788 137.826418 
L 126.418587 146.276402 
L 129.244387 154.172288 
L 132.070187 161.566848 
L 134.895986 168.506359 
L 137.721786 175.03157 
L 141.960485 184.120257 
L 146.199184 192.461929 
L 150.437884 200.145048 
L 154.676583 207.244639 
L 158.915283 213.824747 
L 163.153982 219.940377 
L 167.392681 225.639033 
L 171.631381 230.961953 
L 175.87008 235.945112 
L 180.108779 240.620034 
L 184.347479 245.014461 
L 188.586178 249.152902 
L 194.237777 254.309838 
L 199.889376 259.095103 
L 205.540975 263.54748 
L 211.192575 267.700537 
L 216.844174 271.583477 
L 222.495773 275.221822 
L 228.147372 278.637979 
L 235.211871 282.625587 
L 242.27637 286.330387 
L 249.340869 289.781433 
L 256.405368 293.003933 
L 264.882767 296.599997 
L 273.360165 299.93132 
L 281.837564 303.0261 
L 290.314963 305.908665 
L 300.205261 309.031445 
L 310.09556 311.922908 
L 321.398758 314.975823 
L 332.701956 317.790461 
L 345.418054 320.705388 
L 358.134152 323.385029 
L 372.26315 326.119617 
L 386.392148 328.629137 
L 401.934046 331.16138 
L 418.888843 333.684969 
L 437.256541 336.173885 
L 455.624238 338.441185 
L 475.404835 340.667449 
L 496.598332 342.837238 
L 520.617628 345.063519 
L 546.049824 347.189006 
L 572.89492 349.211211 
L 602.565816 351.220514 
L 635.062511 353.190084 
L 670.385005 355.099479 
L 705.7075 356.805314 
L 705.7075 356.805314 
" clip-path="url(#p780f76c528)" style="fill: none; stroke: #e377c2; stroke-width: 2; stroke-linecap: square"/>
    <defs>
     <path id="mf56400ba69" d="M 0 1.5 
C 0.397805 1.5 0.77937 1.341951 1.06066 1.06066 
C 1.341951 0.77937 1.5 0.397805 1.5 0 
C 1.5 -0.397805 1.341951 -0.77937 1.06066 -1.06066 
C 0.77937 -1.341951 0.397805 -1.5 0 -1.5 
C -0.397805 -1.5 -0.77937 -1.341951 -1.06066 -1.06066 
C -1.341951 -0.77937 -1.5 -0.397805 -1.5 0 
C -1.5 0.397805 -1.341951 0.77937 -1.06066 1.06066 
C -0.77937 1.341951 -0.397805 1.5 0 1.5 
z
" style="stroke: #e377c2"/>
    </defs>
    <g clip-path="url(#p780f76c528)">
     <use xlink:href="#mf56400ba69" x="44.4704" y="40.548557" style="fill: #e377c2; stroke: #e377c2"/>
     <use xlink:href="#mf56400ba69" x="60.012297" y="69.427922" style="fill: #e377c2; stroke: #e377c2"/>
     <use xlink:href="#mf56400ba69" x="75.554195" y="85.751041" style="fill: #e377c2; stroke: #e377c2"/>
     <use xlink:href="#mf56400ba69" x="91.096093" y="91.512142" style="fill: #e377c2; stroke: #e377c2"/>
     <use xlink:href="#mf56400ba69" x="106.63799" y="109.859033" style="fill: #e377c2; stroke: #e377c2"/>
     <use xlink:href="#mf56400ba69" x="122.179888" y="133.375087" style="fill: #e377c2; stroke: #e377c2"/>
     <use xlink:href="#mf56400ba69" x="137.721786" y="175.03157" style="fill: #e377c2; stroke: #e377c2"/>
     <use xlink:href="#mf56400ba69" x="153.263683" y="204.938789" style="fill: #e377c2; stroke: #e377c2"/>
     <use xlink:href="#mf56400ba69" x="168.805581" y="227.453211" style="fill: #e377c2; stroke: #e377c2"/>
     <use xlink:href="#mf56400ba69" x="184.347479" y="245.014461" style="fill: #e377c2; stroke: #e377c2"/>
     <use xlink:href="#mf56400ba69" x="199.889376" y="259.095103" style="fill: #e377c2; stroke: #e377c2"/>
     <use xlink:href="#mf56400ba69" x="215.431274" y="270.636613" style="fill: #e377c2; stroke: #e377c2"/>
     <use xlink:href="#mf56400ba69" x="230.973172" y="280.269001" style="fill: #e377c2; stroke: #e377c2"/>
     <use xlink:href="#mf56400ba69" x="246.515069" y="288.429773" style="fill: #e377c2; stroke: #e377c2"/>
     <use xlink:href="#mf56400ba69" x="262.056967" y="295.432243" style="fill: #e377c2; stroke: #e377c2"/>
     <use xlink:href="#mf56400ba69" x="277.598865" y="301.506675" style="fill: #e377c2; stroke: #e377c2"/>
     <use xlink:href="#mf56400ba69" x="293.140762" y="306.826092" style="fill: #e377c2; stroke: #e377c2"/>
     <use xlink:href="#mf56400ba69" x="308.68266" y="311.523025" style="fill: #e377c2; stroke: #e377c2"/>
     <use xlink:href="#mf56400ba69" x="324.224558" y="315.700698" style="fill: #e377c2; stroke: #e377c2"/>
     <use xlink:href="#mf56400ba69" x="339.766455" y="319.440711" style="fill: #e377c2; stroke: #e377c2"/>
     <use xlink:href="#mf56400ba69" x="355.308353" y="322.808414" style="fill: #e377c2; stroke: #e377c2"/>
     <use xlink:href="#mf56400ba69" x="370.850251" y="325.856767" style="fill: #e377c2; stroke: #e377c2"/>
     <use xlink:href="#mf56400ba69" x="386.392148" y="328.629137" style="fill: #e377c2; stroke: #e377c2"/>
     <use xlink:href="#mf56400ba69" x="401.934046" y="331.16138" style="fill: #e377c2; stroke: #e377c2"/>
     <use xlink:href="#mf56400ba69" x="417.475943" y="333.483399" style="fill: #e377c2; stroke: #e377c2"/>
     <use xlink:href="#mf56400ba69" x="433.017841" y="335.62033" style="fill: #e377c2; stroke: #e377c2"/>
     <use xlink:href="#mf56400ba69" x="448.559739" y="337.593455" style="fill: #e377c2; stroke: #e377c2"/>
     <use xlink:href="#mf56400ba69" x="464.101636" y="339.420912" style="fill: #e377c2; stroke: #e377c2"/>
     <use xlink:href="#mf56400ba69" x="479.643534" y="341.118259" style="fill: #e377c2; stroke: #e377c2"/>
     <use xlink:href="#mf56400ba69" x="495.185432" y="342.698914" style="fill: #e377c2; stroke: #e377c2"/>
     <use xlink:href="#mf56400ba69" x="510.727329" y="344.17451" style="fill: #e377c2; stroke: #e377c2"/>
     <use xlink:href="#mf56400ba69" x="526.269227" y="345.555184" style="fill: #e377c2; stroke: #e377c2"/>
     <use xlink:href="#mf56400ba69" x="541.811125" y="346.849811" style="fill: #e377c2; stroke: #e377c2"/>
     <use xlink:href="#mf56400ba69" x="557.353022" y="348.066191" style="fill: #e377c2; stroke: #e377c2"/>
     <use xlink:href="#mf56400ba69" x="572.89492" y="349.211211" style="fill: #e377c2; stroke: #e377c2"/>
     <use xlink:href="#mf56400ba69" x="588.436818" y="350.29097" style="fill: #e377c2; stroke: #e377c2"/>
     <use xlink:href="#mf56400ba69" x="603.978715" y="351.310893" style="fill: #e377c2; stroke: #e377c2"/>
     <use xlink:href="#mf56400ba69" x="619.520613" y="352.275821" style="fill: #e377c2; stroke: #e377c2"/>
     <use xlink:href="#mf56400ba69" x="635.062511" y="353.190084" style="fill: #e377c2; stroke: #e377c2"/>
     <use xlink:href="#mf56400ba69" x="650.604408" y="354.057571" style="fill: #e377c2; stroke: #e377c2"/>
     <use xlink:href="#mf56400ba69" x="666.146306" y="354.881782" style="fill: #e377c2; stroke: #e377c2"/>
     <use xlink:href="#mf56400ba69" x="681.688204" y="355.665876" style="fill: #e377c2; stroke: #e377c2"/>
     <use xlink:href="#mf56400ba69" x="697.230101" y="356.412714" style="fill: #e377c2; stroke: #e377c2"/>
    </g>
   </g>
   <g id="line2d_29">
    <path d="M 44.4704 40.548557 
L 62.838097 40.548557 
L 64.250997 63.652049 
L 65.663897 62.20808 
L 68.489696 59.801467 
L 71.315496 57.876176 
L 74.141295 56.300937 
L 75.554195 70.683546 
L 78.379995 68.272747 
L 81.205794 66.219103 
L 82.618694 65.302298 
L 84.031594 76.398803 
L 86.857393 74.085884 
L 89.683193 72.053318 
L 92.508993 70.253046 
L 93.921892 69.427922 
L 95.334792 78.013679 
L 96.747692 77.027755 
L 98.160592 84.978349 
L 100.986391 82.811042 
L 103.812191 96.96406 
L 105.225091 103.55808 
L 108.05089 100.818536 
L 109.46379 106.909651 
L 112.28959 104.201035 
L 113.702489 109.859033 
L 115.115389 108.500004 
L 117.941189 119.013247 
L 120.766988 128.76189 
L 123.592788 137.826418 
L 126.418587 146.276402 
L 129.244387 154.172288 
L 132.070187 161.566848 
L 134.895986 168.506359 
L 137.721786 175.03157 
L 141.960485 184.120257 
L 146.199184 192.461929 
L 150.437884 200.145048 
L 154.676583 207.244639 
L 158.915283 213.824747 
L 163.153982 219.940377 
L 167.392681 225.639033 
L 171.631381 230.961953 
L 175.87008 235.945112 
L 180.108779 240.620034 
L 184.347479 245.014461 
L 188.586178 249.152902 
L 194.237777 254.309838 
L 199.889376 259.095103 
L 205.540975 263.54748 
L 211.192575 267.700537 
L 216.844174 271.583477 
L 222.495773 275.221822 
L 228.147372 278.637979 
L 235.211871 282.625587 
L 242.27637 286.330387 
L 249.340869 289.781433 
L 256.405368 293.003933 
L 264.882767 296.599997 
L 273.360165 299.93132 
L 281.837564 303.0261 
L 290.314963 305.908665 
L 300.205261 309.031445 
L 310.09556 311.922908 
L 321.398758 314.975823 
L 332.701956 317.790461 
L 345.418054 320.705388 
L 358.134152 323.385029 
L 372.26315 326.119617 
L 386.392148 328.629137 
L 401.934046 331.16138 
L 418.888843 333.684969 
L 437.256541 336.173885 
L 455.624238 338.441185 
L 475.404835 340.667449 
L 496.598332 342.837238 
L 520.617628 345.063519 
L 546.049824 347.189006 
L 572.89492 349.211211 
L 602.565816 351.220514 
L 635.062511 353.190084 
L 670.385005 355.099479 
L 705.7075 356.805314 
L 705.7075 356.805314 
" clip-path="url(#p780f76c528)" style="fill: none; stroke: #17becf; stroke-width: 2; stroke-linecap: square"/>
    <defs>
     <path id="mf647f620d9" d="M 0 1.5 
C 0.397805 1.5 0.77937 1.341951 1.06066 1.06066 
C 1.341951 0.77937 1.5 0.397805 1.5 0 
C 1.5 -0.397805 1.341951 -0.77937 1.06066 -1.06066 
C 0.77937 -1.341951 0.397805 -1.5 0 -1.5 
C -0.397805 -1.5 -0.77937 -1.341951 -1.06066 -1.06066 
C -1.341951 -0.77937 -1.5 -0.397805 -1.5 0 
C -1.5 0.397805 -1.341951 0.77937 -1.06066 1.06066 
C -0.77937 1.341951 -0.397805 1.5 0 1.5 
z
" style="stroke: #17becf"/>
    </defs>
    <g clip-path="url(#p780f76c528)">
     <use xlink:href="#mf647f620d9" x="44.4704" y="40.548557" style="fill: #17becf; stroke: #17becf"/>
     <use xlink:href="#mf647f620d9" x="60.012297" y="40.548557" style="fill: #17becf; stroke: #17becf"/>
     <use xlink:href="#mf647f620d9" x="75.554195" y="70.683546" style="fill: #17becf; stroke: #17becf"/>
     <use xlink:href="#mf647f620d9" x="91.096093" y="71.126708" style="fill: #17becf; stroke: #17becf"/>
     <use xlink:href="#mf647f620d9" x="106.63799" y="102.157869" style="fill: #17becf; stroke: #17becf"/>
     <use xlink:href="#mf647f620d9" x="122.179888" y="133.375087" style="fill: #17becf; stroke: #17becf"/>
     <use xlink:href="#mf647f620d9" x="137.721786" y="175.03157" style="fill: #17becf; stroke: #17becf"/>
     <use xlink:href="#mf647f620d9" x="153.263683" y="204.938789" style="fill: #17becf; stroke: #17becf"/>
     <use xlink:href="#mf647f620d9" x="168.805581" y="227.453211" style="fill: #17becf; stroke: #17becf"/>
     <use xlink:href="#mf647f620d9" x="184.347479" y="245.014461" style="fill: #17becf; stroke: #17becf"/>
     <use xlink:href="#mf647f620d9" x="199.889376" y="259.095103" style="fill: #17becf; stroke: #17becf"/>
     <use xlink:href="#mf647f620d9" x="215.431274" y="270.636613" style="fill: #17becf; stroke: #17becf"/>
     <use xlink:href="#mf647f620d9" x="230.973172" y="280.269001" style="fill: #17becf; stroke: #17becf"/>
     <use xlink:href="#mf647f620d9" x="246.515069" y="288.429773" style="fill: #17becf; stroke: #17becf"/>
     <use xlink:href="#mf647f620d9" x="262.056967" y="295.432243" style="fill: #17becf; stroke: #17becf"/>
     <use xlink:href="#mf647f620d9" x="277.598865" y="301.506675" style="fill: #17becf; stroke: #17becf"/>
     <use xlink:href="#mf647f620d9" x="293.140762" y="306.826092" style="fill: #17becf; stroke: #17becf"/>
     <use xlink:href="#mf647f620d9" x="308.68266" y="311.523025" style="fill: #17becf; stroke: #17becf"/>
     <use xlink:href="#mf647f620d9" x="324.224558" y="315.700698" style="fill: #17becf; stroke: #17becf"/>
     <use xlink:href="#mf647f620d9" x="339.766455" y="319.440711" style="fill: #17becf; stroke: #17becf"/>
     <use xlink:href="#mf647f620d9" x="355.308353" y="322.808414" style="fill: #17becf; stroke: #17becf"/>
     <use xlink:href="#mf647f620d9" x="370.850251" y="325.856767" style="fill: #17becf; stroke: #17becf"/>
     <use xlink:href="#mf647f620d9" x="386.392148" y="328.629137" style="fill: #17becf; stroke: #17becf"/>
     <use xlink:href="#mf647f620d9" x="401.934046" y="331.16138" style="fill: #17becf; stroke: #17becf"/>
     <use xlink:href="#mf647f620d9" x="417.475943" y="333.483399" style="fill: #17becf; stroke: #17becf"/>
     <use xlink:href="#mf647f620d9" x="433.017841" y="335.62033" style="fill: #17becf; stroke: #17becf"/>
     <use xlink:href="#mf647f620d9" x="448.559739" y="337.593455" style="fill: #17becf; stroke: #17becf"/>
     <use xlink:href="#mf647f620d9" x="464.101636" y="339.420912" style="fill: #17becf; stroke: #17becf"/>
     <use xlink:href="#mf647f620d9" x="479.643534" y="341.118259" style="fill: #17becf; stroke: #17becf"/>
     <use xlink:href="#mf647f620d9" x="495.185432" y="342.698914" style="fill: #17becf; stroke: #17becf"/>
     <use xlink:href="#mf647f620d9" x="510.727329" y="344.17451" style="fill: #17becf; stroke: #17becf"/>
     <use xlink:href="#mf647f620d9" x="526.269227" y="345.555184" style="fill: #17becf; stroke: #17becf"/>
     <use xlink:href="#mf647f620d9" x="541.811125" y="346.849811" style="fill: #17becf; stroke: #17becf"/>
     <use xlink:href="#mf647f620d9" x="557.353022" y="348.066191" style="fill: #17becf; stroke: #17becf"/>
     <use xlink:href="#mf647f620d9" x="572.89492" y="349.211211" style="fill: #17becf; stroke: #17becf"/>
     <use xlink:href="#mf647f620d9" x="588.436818" y="350.29097" style="fill: #17becf; stroke: #17becf"/>
     <use xlink:href="#mf647f620d9" x="603.978715" y="351.310893" style="fill: #17becf; stroke: #17becf"/>
     <use xlink:href="#mf647f620d9" x="619.520613" y="352.275821" style="fill: #17becf; stroke: #17becf"/>
     <use xlink:href="#mf647f620d9" x="635.062511" y="353.190084" style="fill: #17becf; stroke: #17becf"/>
     <use xlink:href="#mf647f620d9" x="650.604408" y="354.057571" style="fill: #17becf; stroke: #17becf"/>
     <use xlink:href="#mf647f620d9" x="666.146306" y="354.881782" style="fill: #17becf; stroke: #17becf"/>
     <use xlink:href="#mf647f620d9" x="681.688204" y="355.665876" style="fill: #17becf; stroke: #17becf"/>
     <use xlink:href="#mf647f620d9" x="697.230101" y="356.412714" style="fill: #17becf; stroke: #17becf"/>
    </g>
   </g>
   <g id="line2d_30">
    <path d="M 44.4704 40.548557 
L 82.618694 40.548557 
L 84.031594 52.498639 
L 88.270293 51.378318 
L 91.096093 50.741274 
L 92.508993 60.35155 
L 96.747692 58.788156 
L 99.573491 57.876176 
L 102.399291 73.553545 
L 105.225091 87.805699 
L 108.05089 85.751041 
L 109.46379 92.162741 
L 110.87669 91.087445 
L 113.702489 102.927985 
L 116.528289 113.857714 
L 119.354088 123.977833 
L 122.179888 133.375087 
L 125.005688 142.124254 
L 127.831487 150.290144 
L 130.657287 157.929202 
L 133.483086 165.090818 
L 136.308886 171.818398 
L 139.134686 178.150237 
L 143.373385 186.97914 
L 147.612084 195.092186 
L 151.850784 202.573046 
L 156.089483 209.492842 
L 160.328182 215.912412 
L 164.566882 221.884105 
L 168.805581 227.453211 
L 173.04428 232.659116 
L 177.28298 237.536226 
L 181.521679 242.114737 
L 185.760378 246.421258 
L 189.999078 250.479326 
L 195.650677 255.539385 
L 201.302276 260.238012 
L 206.953875 264.612596 
L 212.605474 268.695541 
L 218.257074 272.51507 
L 223.908673 276.095878 
L 230.973172 280.269001 
L 238.037671 284.139723 
L 245.10217 287.739765 
L 252.166668 291.096562 
L 259.231167 294.23396 
L 267.708566 297.738374 
L 276.185965 300.987922 
L 284.663364 304.009431 
L 294.553662 307.277074 
L 304.443961 310.297437 
L 314.334259 313.097564 
L 325.637457 316.057699 
L 336.940656 318.790132 
L 349.656754 321.623299 
L 362.372852 324.230815 
L 376.50185 326.894804 
L 390.630848 329.342207 
L 406.172745 331.814371 
L 423.127543 334.280686 
L 441.49524 336.715662 
L 461.275837 339.09875 
L 482.469334 341.413968 
L 505.07573 343.649416 
L 529.095027 345.796729 
L 554.527223 347.85053 
L 582.785219 349.905525 
L 613.869014 351.931018 
L 646.365709 353.825416 
L 681.688204 355.665876 
L 705.7075 356.805314 
L 705.7075 356.805314 
" clip-path="url(#p780f76c528)" style="fill: none; stroke: #e31818; stroke-width: 2.5; stroke-linecap: square"/>
    <defs>
     <path id="mac5fb7cdad" d="M 0 1.5 
C 0.397805 1.5 0.77937 1.341951 1.06066 1.06066 
C 1.341951 0.77937 1.5 0.397805 1.5 0 
C 1.5 -0.397805 1.341951 -0.77937 1.06066 -1.06066 
C 0.77937 -1.341951 0.397805 -1.5 0 -1.5 
C -0.397805 -1.5 -0.77937 -1.341951 -1.06066 -1.06066 
C -1.341951 -0.77937 -1.5 -0.397805 -1.5 0 
C -1.5 0.397805 -1.341951 0.77937 -1.06066 1.06066 
C -0.77937 1.341951 -0.397805 1.5 0 1.5 
z
" style="stroke: #e31818"/>
    </defs>
    <g clip-path="url(#p780f76c528)">
     <use xlink:href="#mac5fb7cdad" x="44.4704" y="40.548557" style="fill: #e31818; stroke: #e31818"/>
     <use xlink:href="#mac5fb7cdad" x="60.012297" y="40.548557" style="fill: #e31818; stroke: #e31818"/>
     <use xlink:href="#mac5fb7cdad" x="75.554195" y="40.548557" style="fill: #e31818; stroke: #e31818"/>
     <use xlink:href="#mac5fb7cdad" x="91.096093" y="50.741274" style="fill: #e31818; stroke: #e31818"/>
     <use xlink:href="#mac5fb7cdad" x="106.63799" y="86.755541" style="fill: #e31818; stroke: #e31818"/>
     <use xlink:href="#mac5fb7cdad" x="122.179888" y="133.375087" style="fill: #e31818; stroke: #e31818"/>
     <use xlink:href="#mac5fb7cdad" x="137.721786" y="175.03157" style="fill: #e31818; stroke: #e31818"/>
     <use xlink:href="#mac5fb7cdad" x="153.263683" y="204.938789" style="fill: #e31818; stroke: #e31818"/>
     <use xlink:href="#mac5fb7cdad" x="168.805581" y="227.453211" style="fill: #e31818; stroke: #e31818"/>
     <use xlink:href="#mac5fb7cdad" x="184.347479" y="245.014461" style="fill: #e31818; stroke: #e31818"/>
     <use xlink:href="#mac5fb7cdad" x="199.889376" y="259.095103" style="fill: #e31818; stroke: #e31818"/>
     <use xlink:href="#mac5fb7cdad" x="215.431274" y="270.636613" style="fill: #e31818; stroke: #e31818"/>
     <use xlink:href="#mac5fb7cdad" x="230.973172" y="280.269001" style="fill: #e31818; stroke: #e31818"/>
     <use xlink:href="#mac5fb7cdad" x="246.515069" y="288.429773" style="fill: #e31818; stroke: #e31818"/>
     <use xlink:href="#mac5fb7cdad" x="262.056967" y="295.432243" style="fill: #e31818; stroke: #e31818"/>
     <use xlink:href="#mac5fb7cdad" x="277.598865" y="301.506675" style="fill: #e31818; stroke: #e31818"/>
     <use xlink:href="#mac5fb7cdad" x="293.140762" y="306.826092" style="fill: #e31818; stroke: #e31818"/>
     <use xlink:href="#mac5fb7cdad" x="308.68266" y="311.523025" style="fill: #e31818; stroke: #e31818"/>
     <use xlink:href="#mac5fb7cdad" x="324.224558" y="315.700698" style="fill: #e31818; stroke: #e31818"/>
     <use xlink:href="#mac5fb7cdad" x="339.766455" y="319.440711" style="fill: #e31818; stroke: #e31818"/>
     <use xlink:href="#mac5fb7cdad" x="355.308353" y="322.808414" style="fill: #e31818; stroke: #e31818"/>
     <use xlink:href="#mac5fb7cdad" x="370.850251" y="325.856767" style="fill: #e31818; stroke: #e31818"/>
     <use xlink:href="#mac5fb7cdad" x="386.392148" y="328.629137" style="fill: #e31818; stroke: #e31818"/>
     <use xlink:href="#mac5fb7cdad" x="401.934046" y="331.16138" style="fill: #e31818; stroke: #e31818"/>
     <use xlink:href="#mac5fb7cdad" x="417.475943" y="333.483399" style="fill: #e31818; stroke: #e31818"/>
     <use xlink:href="#mac5fb7cdad" x="433.017841" y="335.62033" style="fill: #e31818; stroke: #e31818"/>
     <use xlink:href="#mac5fb7cdad" x="448.559739" y="337.593455" style="fill: #e31818; stroke: #e31818"/>
     <use xlink:href="#mac5fb7cdad" x="464.101636" y="339.420912" style="fill: #e31818; stroke: #e31818"/>
     <use xlink:href="#mac5fb7cdad" x="479.643534" y="341.118259" style="fill: #e31818; stroke: #e31818"/>
     <use xlink:href="#mac5fb7cdad" x="495.185432" y="342.698914" style="fill: #e31818; stroke: #e31818"/>
     <use xlink:href="#mac5fb7cdad" x="510.727329" y="344.17451" style="fill: #e31818; stroke: #e31818"/>
     <use xlink:href="#mac5fb7cdad" x="526.269227" y="345.555184" style="fill: #e31818; stroke: #e31818"/>
     <use xlink:href="#mac5fb7cdad" x="541.811125" y="346.849811" style="fill: #e31818; stroke: #e31818"/>
     <use xlink:href="#mac5fb7cdad" x="557.353022" y="348.066191" style="fill: #e31818; stroke: #e31818"/>
     <use xlink:href="#mac5fb7cdad" x="572.89492" y="349.211211" style="fill: #e31818; stroke: #e31818"/>
     <use xlink:href="#mac5fb7cdad" x="588.436818" y="350.29097" style="fill: #e31818; stroke: #e31818"/>
     <use xlink:href="#mac5fb7cdad" x="603.978715" y="351.310893" style="fill: #e31818; stroke: #e31818"/>
     <use xlink:href="#mac5fb7cdad" x="619.520613" y="352.275821" style="fill: #e31818; stroke: #e31818"/>
     <use xlink:href="#mac5fb7cdad" x="635.062511" y="353.190084" style="fill: #e31818; stroke: #e31818"/>
     <use xlink:href="#mac5fb7cdad" x="650.604408" y="354.057571" style="fill: #e31818; stroke: #e31818"/>
     <use xlink:href="#mac5fb7cdad" x="666.146306" y="354.881782" style="fill: #e31818; stroke: #e31818"/>
     <use xlink:href="#mac5fb7cdad" x="681.688204" y="355.665876" style="fill: #e31818; stroke: #e31818"/>
     <use xlink:href="#mac5fb7cdad" x="697.230101" y="356.412714" style="fill: #e31818; stroke: #e31818"/>
    </g>
   </g>
   <g id="patch_3">
    <path d="M 43.0575 387.100937 
L 43.0575 23.220937 
" style="fill: none; stroke: #000000; stroke-width: 0.8; stroke-linejoin: miter; stroke-linecap: square"/>
   </g>
   <g id="patch_4">
    <path d="M 705.7075 387.100937 
L 705.7075 23.220937 
" style="fill: none; stroke: #000000; stroke-width: 0.8; stroke-linejoin: miter; stroke-linecap: square"/>
   </g>
   <g id="patch_5">
    <path d="M 43.0575 387.100937 
L 705.7075 387.100937 
" style="fill: none; stroke: #000000; stroke-width: 0.8; stroke-linejoin: miter; stroke-linecap: square"/>
   </g>
   <g id="patch_6">
    <path d="M 43.0575 23.220937 
L 705.7075 23.220937 
" style="fill: none; stroke: #000000; stroke-width: 0.8; stroke-linejoin: miter; stroke-linecap: square"/>
   </g>
   <g id="text_14">
    <!-- Precision vs k - breast-cancer -->
    <g transform="translate(275.172813 17.220937) scale(0.14 -0.14)">
     <defs>
      <path id="Arial-BoldMT-76" d="M 1372 0 
L 34 3319 
L 956 3319 
L 1581 1625 
L 1763 1059 
Q 1834 1275 1853 1344 
Q 1897 1484 1947 1625 
L 2578 3319 
L 3481 3319 
L 2163 0 
L 1372 0 
z
" transform="scale(0.015625)"/>
      <path id="Arial-BoldMT-2d" d="M 359 1222 
L 359 2100 
L 2084 2100 
L 2084 1222 
L 359 1222 
z
" transform="scale(0.015625)"/>
      <path id="Arial-BoldMT-62" d="M 422 0 
L 422 4581 
L 1300 4581 
L 1300 2931 
Q 1706 3394 2263 3394 
Q 2869 3394 3266 2955 
Q 3663 2516 3663 1694 
Q 3663 844 3258 384 
Q 2853 -75 2275 -75 
Q 1991 -75 1714 67 
Q 1438 209 1238 488 
L 1238 0 
L 422 0 
z
M 1294 1731 
Q 1294 1216 1456 969 
Q 1684 619 2063 619 
Q 2353 619 2558 867 
Q 2763 1116 2763 1650 
Q 2763 2219 2556 2470 
Q 2350 2722 2028 2722 
Q 1713 2722 1503 2476 
Q 1294 2231 1294 1731 
z
" transform="scale(0.015625)"/>
      <path id="Arial-BoldMT-61" d="M 1116 2306 
L 319 2450 
Q 453 2931 781 3162 
Q 1109 3394 1756 3394 
Q 2344 3394 2631 3255 
Q 2919 3116 3036 2902 
Q 3153 2688 3153 2116 
L 3144 1091 
Q 3144 653 3186 445 
Q 3228 238 3344 0 
L 2475 0 
Q 2441 88 2391 259 
Q 2369 338 2359 363 
Q 2134 144 1878 34 
Q 1622 -75 1331 -75 
Q 819 -75 523 203 
Q 228 481 228 906 
Q 228 1188 362 1408 
Q 497 1628 739 1745 
Q 981 1863 1438 1950 
Q 2053 2066 2291 2166 
L 2291 2253 
Q 2291 2506 2166 2614 
Q 2041 2722 1694 2722 
Q 1459 2722 1328 2630 
Q 1197 2538 1116 2306 
z
M 2291 1594 
Q 2122 1538 1756 1459 
Q 1391 1381 1278 1306 
Q 1106 1184 1106 997 
Q 1106 813 1243 678 
Q 1381 544 1594 544 
Q 1831 544 2047 700 
Q 2206 819 2256 991 
Q 2291 1103 2291 1419 
L 2291 1594 
z
" transform="scale(0.015625)"/>
      <path id="Arial-BoldMT-74" d="M 1981 3319 
L 1981 2619 
L 1381 2619 
L 1381 1281 
Q 1381 875 1398 808 
Q 1416 741 1477 697 
Q 1538 653 1625 653 
Q 1747 653 1978 738 
L 2053 56 
Q 1747 -75 1359 -75 
Q 1122 -75 931 4 
Q 741 84 652 211 
Q 563 338 528 553 
Q 500 706 500 1172 
L 500 2619 
L 97 2619 
L 97 3319 
L 500 3319 
L 500 3978 
L 1381 4491 
L 1381 3319 
L 1981 3319 
z
" transform="scale(0.015625)"/>
     </defs>
     <use xlink:href="#Arial-BoldMT-50"/>
     <use xlink:href="#Arial-BoldMT-72" transform="translate(66.699219 0)"/>
     <use xlink:href="#Arial-BoldMT-65" transform="translate(105.615234 0)"/>
     <use xlink:href="#Arial-BoldMT-63" transform="translate(161.230469 0)"/>
     <use xlink:href="#Arial-BoldMT-69" transform="translate(216.845703 0)"/>
     <use xlink:href="#Arial-BoldMT-73" transform="translate(244.628906 0)"/>
     <use xlink:href="#Arial-BoldMT-69" transform="translate(300.244141 0)"/>
     <use xlink:href="#Arial-BoldMT-6f" transform="translate(328.027344 0)"/>
     <use xlink:href="#Arial-BoldMT-6e" transform="translate(389.111328 0)"/>
     <use xlink:href="#Arial-BoldMT-20" transform="translate(450.195312 0)"/>
     <use xlink:href="#Arial-BoldMT-76" transform="translate(477.978516 0)"/>
     <use xlink:href="#Arial-BoldMT-73" transform="translate(533.59375 0)"/>
     <use xlink:href="#Arial-BoldMT-20" transform="translate(589.208984 0)"/>
     <use xlink:href="#Arial-BoldMT-6b" transform="translate(616.992188 0)"/>
     <use xlink:href="#Arial-BoldMT-20" transform="translate(672.607422 0)"/>
     <use xlink:href="#Arial-BoldMT-2d" transform="translate(700.390625 0)"/>
     <use xlink:href="#Arial-BoldMT-20" transform="translate(733.691406 0)"/>
     <use xlink:href="#Arial-BoldMT-62" transform="translate(761.474609 0)"/>
     <use xlink:href="#Arial-BoldMT-72" transform="translate(822.558594 0)"/>
     <use xlink:href="#Arial-BoldMT-65" transform="translate(861.474609 0)"/>
     <use xlink:href="#Arial-BoldMT-61" transform="translate(917.089844 0)"/>
     <use xlink:href="#Arial-BoldMT-73" transform="translate(972.705078 0)"/>
     <use xlink:href="#Arial-BoldMT-74" transform="translate(1028.320312 0)"/>
     <use xlink:href="#Arial-BoldMT-2d" transform="translate(1061.621094 0)"/>
     <use xlink:href="#Arial-BoldMT-63" transform="translate(1094.921875 0)"/>
     <use xlink:href="#Arial-BoldMT-61" transform="translate(1150.537109 0)"/>
     <use xlink:href="#Arial-BoldMT-6e" transform="translate(1206.152344 0)"/>
     <use xlink:href="#Arial-BoldMT-63" transform="translate(1267.236328 0)"/>
     <use xlink:href="#Arial-BoldMT-65" transform="translate(1322.851562 0)"/>
     <use xlink:href="#Arial-BoldMT-72" transform="translate(1378.466797 0)"/>
    </g>
   </g>
   <g id="legend_1">
    <g id="patch_7">
     <path d="M 633.610469 132.267187 
L 699.4075 132.267187 
Q 701.2075 132.267187 701.2075 130.467187 
L 701.2075 29.520938 
Q 701.2075 27.720937 699.4075 27.720937 
L 633.610469 27.720937 
Q 631.810469 27.720937 631.810469 29.520938 
L 631.810469 130.467187 
Q 631.810469 132.267187 633.610469 132.267187 
z
" style="fill: #ffffff; opacity: 0.8; stroke: #cccccc; stroke-linejoin: miter"/>
    </g>
    <g id="line2d_31">
     <path d="M 635.410469 34.612969 
L 644.410469 34.612969 
L 653.410469 34.612969 
" style="fill: none; stroke: #1f77b4; stroke-width: 2; stroke-linecap: square"/>
     <g>
      <use xlink:href="#m2ca51ad5da" x="644.410469" y="34.612969" style="fill: #1f77b4; stroke: #1f77b4"/>
     </g>
    </g>
    <g id="text_15">
     <!-- ADFNR -->
     <g transform="translate(660.610469 37.762969) scale(0.09 -0.09)">
      <defs>
       <path id="ArialMT-41" d="M -9 0 
L 1750 4581 
L 2403 4581 
L 4278 0 
L 3588 0 
L 3053 1388 
L 1138 1388 
L 634 0 
L -9 0 
z
M 1313 1881 
L 2866 1881 
L 2388 3150 
Q 2169 3728 2063 4100 
Q 1975 3659 1816 3225 
L 1313 1881 
z
" transform="scale(0.015625)"/>
       <path id="ArialMT-44" d="M 494 0 
L 494 4581 
L 2072 4581 
Q 2606 4581 2888 4516 
Q 3281 4425 3559 4188 
Q 3922 3881 4101 3404 
Q 4281 2928 4281 2316 
Q 4281 1794 4159 1391 
Q 4038 988 3847 723 
Q 3656 459 3429 307 
Q 3203 156 2883 78 
Q 2563 0 2147 0 
L 494 0 
z
M 1100 541 
L 2078 541 
Q 2531 541 2789 625 
Q 3047 709 3200 863 
Q 3416 1078 3536 1442 
Q 3656 1806 3656 2325 
Q 3656 3044 3420 3430 
Q 3184 3816 2847 3947 
Q 2603 4041 2063 4041 
L 1100 4041 
L 1100 541 
z
" transform="scale(0.015625)"/>
       <path id="ArialMT-46" d="M 525 0 
L 525 4581 
L 3616 4581 
L 3616 4041 
L 1131 4041 
L 1131 2622 
L 3281 2622 
L 3281 2081 
L 1131 2081 
L 1131 0 
L 525 0 
z
" transform="scale(0.015625)"/>
       <path id="ArialMT-4e" d="M 488 0 
L 488 4581 
L 1109 4581 
L 3516 984 
L 3516 4581 
L 4097 4581 
L 4097 0 
L 3475 0 
L 1069 3600 
L 1069 0 
L 488 0 
z
" transform="scale(0.015625)"/>
       <path id="ArialMT-52" d="M 503 0 
L 503 4581 
L 2534 4581 
Q 3147 4581 3465 4457 
Q 3784 4334 3975 4021 
Q 4166 3709 4166 3331 
Q 4166 2844 3850 2509 
Q 3534 2175 2875 2084 
Q 3116 1969 3241 1856 
Q 3506 1613 3744 1247 
L 4541 0 
L 3778 0 
L 3172 953 
Q 2906 1366 2734 1584 
Q 2563 1803 2427 1890 
Q 2291 1978 2150 2013 
Q 2047 2034 1813 2034 
L 1109 2034 
L 1109 0 
L 503 0 
z
M 1109 2559 
L 2413 2559 
Q 2828 2559 3062 2645 
Q 3297 2731 3419 2920 
Q 3541 3109 3541 3331 
Q 3541 3656 3305 3865 
Q 3069 4075 2559 4075 
L 1109 4075 
L 1109 2559 
z
" transform="scale(0.015625)"/>
      </defs>
      <use xlink:href="#ArialMT-41"/>
      <use xlink:href="#ArialMT-44" transform="translate(66.699219 0)"/>
      <use xlink:href="#ArialMT-46" transform="translate(138.916016 0)"/>
      <use xlink:href="#ArialMT-4e" transform="translate(200 0)"/>
      <use xlink:href="#ArialMT-52" transform="translate(272.216797 0)"/>
     </g>
    </g>
    <g id="line2d_32">
     <path d="M 635.410469 47.34375 
L 644.410469 47.34375 
L 653.410469 47.34375 
" style="fill: none; stroke: #ff7f0e; stroke-width: 2; stroke-linecap: square"/>
     <g>
      <use xlink:href="#mc1b23d7317" x="644.410469" y="47.34375" style="fill: #ff7f0e; stroke: #ff7f0e"/>
     </g>
    </g>
    <g id="text_16">
     <!-- DASOD -->
     <g transform="translate(660.610469 50.49375) scale(0.09 -0.09)">
      <defs>
       <path id="ArialMT-53" d="M 288 1472 
L 859 1522 
Q 900 1178 1048 958 
Q 1197 738 1509 602 
Q 1822 466 2213 466 
Q 2559 466 2825 569 
Q 3091 672 3220 851 
Q 3350 1031 3350 1244 
Q 3350 1459 3225 1620 
Q 3100 1781 2813 1891 
Q 2628 1963 1997 2114 
Q 1366 2266 1113 2400 
Q 784 2572 623 2826 
Q 463 3081 463 3397 
Q 463 3744 659 4045 
Q 856 4347 1234 4503 
Q 1613 4659 2075 4659 
Q 2584 4659 2973 4495 
Q 3363 4331 3572 4012 
Q 3781 3694 3797 3291 
L 3216 3247 
Q 3169 3681 2898 3903 
Q 2628 4125 2100 4125 
Q 1550 4125 1298 3923 
Q 1047 3722 1047 3438 
Q 1047 3191 1225 3031 
Q 1400 2872 2139 2705 
Q 2878 2538 3153 2413 
Q 3553 2228 3743 1945 
Q 3934 1663 3934 1294 
Q 3934 928 3725 604 
Q 3516 281 3123 101 
Q 2731 -78 2241 -78 
Q 1619 -78 1198 103 
Q 778 284 539 648 
Q 300 1013 288 1472 
z
" transform="scale(0.015625)"/>
       <path id="ArialMT-4f" d="M 309 2231 
Q 309 3372 921 4017 
Q 1534 4663 2503 4663 
Q 3138 4663 3647 4359 
Q 4156 4056 4423 3514 
Q 4691 2972 4691 2284 
Q 4691 1588 4409 1038 
Q 4128 488 3612 205 
Q 3097 -78 2500 -78 
Q 1853 -78 1343 234 
Q 834 547 571 1087 
Q 309 1628 309 2231 
z
M 934 2222 
Q 934 1394 1379 917 
Q 1825 441 2497 441 
Q 3181 441 3623 922 
Q 4066 1403 4066 2288 
Q 4066 2847 3877 3264 
Q 3688 3681 3323 3911 
Q 2959 4141 2506 4141 
Q 1863 4141 1398 3698 
Q 934 3256 934 2222 
z
" transform="scale(0.015625)"/>
      </defs>
      <use xlink:href="#ArialMT-44"/>
      <use xlink:href="#ArialMT-41" transform="translate(72.216797 0)"/>
      <use xlink:href="#ArialMT-53" transform="translate(138.916016 0)"/>
      <use xlink:href="#ArialMT-4f" transform="translate(205.615234 0)"/>
      <use xlink:href="#ArialMT-44" transform="translate(283.398438 0)"/>
     </g>
    </g>
    <g id="line2d_33">
     <path d="M 635.410469 60.074531 
L 644.410469 60.074531 
L 653.410469 60.074531 
" style="fill: none; stroke: #2ca02c; stroke-width: 2; stroke-linecap: square"/>
     <g>
      <use xlink:href="#m68ee363ef9" x="644.410469" y="60.074531" style="fill: #2ca02c; stroke: #2ca02c"/>
     </g>
    </g>
    <g id="text_17">
     <!-- GCN -->
     <g transform="translate(660.610469 63.224531) scale(0.09 -0.09)">
      <defs>
       <path id="ArialMT-47" d="M 2638 1797 
L 2638 2334 
L 4578 2338 
L 4578 638 
Q 4131 281 3656 101 
Q 3181 -78 2681 -78 
Q 2006 -78 1454 211 
Q 903 500 622 1047 
Q 341 1594 341 2269 
Q 341 2938 620 3517 
Q 900 4097 1425 4378 
Q 1950 4659 2634 4659 
Q 3131 4659 3532 4498 
Q 3934 4338 4162 4050 
Q 4391 3763 4509 3300 
L 3963 3150 
Q 3859 3500 3706 3700 
Q 3553 3900 3268 4020 
Q 2984 4141 2638 4141 
Q 2222 4141 1919 4014 
Q 1616 3888 1430 3681 
Q 1244 3475 1141 3228 
Q 966 2803 966 2306 
Q 966 1694 1177 1281 
Q 1388 869 1791 669 
Q 2194 469 2647 469 
Q 3041 469 3416 620 
Q 3791 772 3984 944 
L 3984 1797 
L 2638 1797 
z
" transform="scale(0.015625)"/>
       <path id="ArialMT-43" d="M 3763 1606 
L 4369 1453 
Q 4178 706 3683 314 
Q 3188 -78 2472 -78 
Q 1731 -78 1267 223 
Q 803 525 561 1097 
Q 319 1669 319 2325 
Q 319 3041 592 3573 
Q 866 4106 1370 4382 
Q 1875 4659 2481 4659 
Q 3169 4659 3637 4309 
Q 4106 3959 4291 3325 
L 3694 3184 
Q 3534 3684 3231 3912 
Q 2928 4141 2469 4141 
Q 1941 4141 1586 3887 
Q 1231 3634 1087 3207 
Q 944 2781 944 2328 
Q 944 1744 1114 1308 
Q 1284 872 1643 656 
Q 2003 441 2422 441 
Q 2931 441 3284 734 
Q 3638 1028 3763 1606 
z
" transform="scale(0.015625)"/>
      </defs>
      <use xlink:href="#ArialMT-47"/>
      <use xlink:href="#ArialMT-43" transform="translate(77.783203 0)"/>
      <use xlink:href="#ArialMT-4e" transform="translate(150 0)"/>
     </g>
    </g>
    <g id="line2d_34">
     <path d="M 635.410469 72.805312 
L 644.410469 72.805312 
L 653.410469 72.805312 
" style="fill: none; stroke: #9467bd; stroke-width: 2; stroke-linecap: square"/>
     <g>
      <use xlink:href="#m07d60489f2" x="644.410469" y="72.805312" style="fill: #9467bd; stroke: #9467bd"/>
     </g>
    </g>
    <g id="text_18">
     <!-- GCOD -->
     <g transform="translate(660.610469 75.955312) scale(0.09 -0.09)">
      <use xlink:href="#ArialMT-47"/>
      <use xlink:href="#ArialMT-43" transform="translate(77.783203 0)"/>
      <use xlink:href="#ArialMT-4f" transform="translate(150 0)"/>
      <use xlink:href="#ArialMT-44" transform="translate(227.783203 0)"/>
     </g>
    </g>
    <g id="line2d_35">
     <path d="M 635.410469 85.536094 
L 644.410469 85.536094 
L 653.410469 85.536094 
" style="fill: none; stroke: #8c564b; stroke-width: 2; stroke-linecap: square"/>
     <g>
      <use xlink:href="#m84b3f47df6" x="644.410469" y="85.536094" style="fill: #8c564b; stroke: #8c564b"/>
     </g>
    </g>
    <g id="text_19">
     <!-- IE -->
     <g transform="translate(660.610469 88.686094) scale(0.09 -0.09)">
      <defs>
       <path id="ArialMT-49" d="M 597 0 
L 597 4581 
L 1203 4581 
L 1203 0 
L 597 0 
z
" transform="scale(0.015625)"/>
       <path id="ArialMT-45" d="M 506 0 
L 506 4581 
L 3819 4581 
L 3819 4041 
L 1113 4041 
L 1113 2638 
L 3647 2638 
L 3647 2100 
L 1113 2100 
L 1113 541 
L 3925 541 
L 3925 0 
L 506 0 
z
" transform="scale(0.015625)"/>
      </defs>
      <use xlink:href="#ArialMT-49"/>
      <use xlink:href="#ArialMT-45" transform="translate(27.783203 0)"/>
     </g>
    </g>
    <g id="line2d_36">
     <path d="M 635.410469 98.266875 
L 644.410469 98.266875 
L 653.410469 98.266875 
" style="fill: none; stroke: #e377c2; stroke-width: 2; stroke-linecap: square"/>
     <g>
      <use xlink:href="#mf56400ba69" x="644.410469" y="98.266875" style="fill: #e377c2; stroke: #e377c2"/>
     </g>
    </g>
    <g id="text_20">
     <!-- KNN -->
     <g transform="translate(660.610469 101.416875) scale(0.09 -0.09)">
      <defs>
       <path id="ArialMT-4b" d="M 469 0 
L 469 4581 
L 1075 4581 
L 1075 2309 
L 3350 4581 
L 4172 4581 
L 2250 2725 
L 4256 0 
L 3456 0 
L 1825 2319 
L 1075 1588 
L 1075 0 
L 469 0 
z
" transform="scale(0.015625)"/>
      </defs>
      <use xlink:href="#ArialMT-4b"/>
      <use xlink:href="#ArialMT-4e" transform="translate(66.699219 0)"/>
      <use xlink:href="#ArialMT-4e" transform="translate(138.916016 0)"/>
     </g>
    </g>
    <g id="line2d_37">
     <path d="M 635.410469 110.997656 
L 644.410469 110.997656 
L 653.410469 110.997656 
" style="fill: none; stroke: #17becf; stroke-width: 2; stroke-linecap: square"/>
     <g>
      <use xlink:href="#mf647f620d9" x="644.410469" y="110.997656" style="fill: #17becf; stroke: #17becf"/>
     </g>
    </g>
    <g id="text_21">
     <!-- NIEOD -->
     <g transform="translate(660.610469 114.147656) scale(0.09 -0.09)">
      <use xlink:href="#ArialMT-4e"/>
      <use xlink:href="#ArialMT-49" transform="translate(72.216797 0)"/>
      <use xlink:href="#ArialMT-45" transform="translate(100 0)"/>
      <use xlink:href="#ArialMT-4f" transform="translate(166.699219 0)"/>
      <use xlink:href="#ArialMT-44" transform="translate(244.482422 0)"/>
     </g>
    </g>
    <g id="line2d_38">
     <path d="M 635.410469 123.728437 
L 644.410469 123.728437 
L 653.410469 123.728437 
" style="fill: none; stroke: #e31818; stroke-width: 2.5; stroke-linecap: square"/>
     <g>
      <use xlink:href="#mac5fb7cdad" x="644.410469" y="123.728437" style="fill: #e31818; stroke: #e31818"/>
     </g>
    </g>
    <g id="text_22">
     <!-- NMIGOD -->
     <g transform="translate(660.610469 126.878437) scale(0.09 -0.09)">
      <defs>
       <path id="ArialMT-4d" d="M 475 0 
L 475 4581 
L 1388 4581 
L 2472 1338 
Q 2622 884 2691 659 
Q 2769 909 2934 1394 
L 4031 4581 
L 4847 4581 
L 4847 0 
L 4263 0 
L 4263 3834 
L 2931 0 
L 2384 0 
L 1059 3900 
L 1059 0 
L 475 0 
z
" transform="scale(0.015625)"/>
      </defs>
      <use xlink:href="#ArialMT-4e"/>
      <use xlink:href="#ArialMT-4d" transform="translate(72.216797 0)"/>
      <use xlink:href="#ArialMT-49" transform="translate(155.517578 0)"/>
      <use xlink:href="#ArialMT-47" transform="translate(183.300781 0)"/>
      <use xlink:href="#ArialMT-4f" transform="translate(261.083984 0)"/>
      <use xlink:href="#ArialMT-44" transform="translate(338.867188 0)"/>
     </g>
    </g>
   </g>
  </g>
 </g>
 <defs>
  <clipPath id="p780f76c528">
   <rect x="43.0575" y="23.220937" width="662.65" height="363.88"/>
  </clipPath>
 </defs>
</svg>
