<?xml version="1.0" encoding="utf-8" standalone="no"?>
<!DOCTYPE svg PUBLIC "-//W3C//DTD SVG 1.1//EN"
  "http://www.w3.org/Graphics/SVG/1.1/DTD/svg11.dtd">
<svg xmlns:xlink="http://www.w3.org/1999/xlink" width="712.8825pt" height="569.40375pt" viewBox="0 0 712.8825 569.40375" xmlns="http://www.w3.org/2000/svg" version="1.1">
 <metadata>
  <rdf:RDF xmlns:dc="http://purl.org/dc/elements/1.1/" xmlns:cc="http://creativecommons.org/ns#" xmlns:rdf="http://www.w3.org/1999/02/22-rdf-syntax-ns#">
   <cc:Work>
    <dc:type rdf:resource="http://purl.org/dc/dcmitype/StillImage"/>
    <dc:date>2026-06-11T18:29:05.108658</dc:date>
    <dc:format>image/svg+xml</dc:format>
    <dc:creator>
     <cc:Agent>
      <dc:title>Matplotlib v3.10.0, https://matplotlib.org/</dc:title>
     </cc:Agent>
    </dc:creator>
   </cc:Work>
  </rdf:RDF>
 </metadata>
 <defs>
  <style type="text/css">*{stroke-linejoin: round; stroke-linecap: butt}</style>
 </defs>
 <g id="figure_1">
  <g id="patch_1">
   <path d="M -0 569.40375 
L 712.8825 569.40375 
L 712.8825 0 
L -0 0 
z
" style="fill: #ffffff"/>
  </g>
  <g id="axes_1">
   <g id="patch_2">
    <path d="M 43.0575 531.100937 
L 698.7325 531.100937 
L 698.7325 23.220937 
L 43.0575 23.220937 
z
" style="fill: #ffffff"/>
   </g>
   <g id="matplotlib.axis_1">
    <g id="xtick_1">
     <g id="line2d_1">
      <path d="M 43.0575 531.100937 
L 43.0575 23.220937 
" clip-path="url(#p5283fea19a)" style="fill: none; stroke-dasharray: 2.96,1.28; stroke-dashoffset: 0; stroke: #b0b0b0; stroke-opacity: 0.5; stroke-width: 0.8"/>
     </g>
     <g id="line2d_2">
      <defs>
       <path id="macd0f6bd26" d="M 0 0 
L 0 3.5 
" style="stroke: #000000; stroke-width: 0.8"/>
      </defs>
      <g>
       <use xlink:href="#macd0f6bd26" x="43.0575" y="531.100937" style="stroke: #000000; stroke-width: 0.8"/>
      </g>
     </g>
     <g id="text_1">
      <!-- 0.0 -->
      <g transform="translate(36.1075 545.25875) scale(0.1 -0.1)">
       <defs>
        <path id="ArialMT-30" d="M 266 2259 
Q 266 3072 433 3567 
Q 600 4063 929 4331 
Q 1259 4600 1759 4600 
Q 2128 4600 2406 4451 
Q 2684 4303 2865 4023 
Q 3047 3744 3150 3342 
Q 3253 2941 3253 2259 
Q 3253 1453 3087 958 
Q 2922 463 2592 192 
Q 2263 -78 1759 -78 
Q 1097 -78 719 397 
Q 266 969 266 2259 
z
M 844 2259 
Q 844 1131 1108 757 
Q 1372 384 1759 384 
Q 2147 384 2411 759 
Q 2675 1134 2675 2259 
Q 2675 3391 2411 3762 
Q 2147 4134 1753 4134 
Q 1366 4134 1134 3806 
Q 844 3388 844 2259 
z
" transform="scale(0.015625)"/>
        <path id="ArialMT-2e" d="M 581 0 
L 581 641 
L 1222 641 
L 1222 0 
L 581 0 
z
" transform="scale(0.015625)"/>
       </defs>
       <use xlink:href="#ArialMT-30"/>
       <use xlink:href="#ArialMT-2e" transform="translate(55.615234 0)"/>
       <use xlink:href="#ArialMT-30" transform="translate(83.398438 0)"/>
      </g>
     </g>
    </g>
    <g id="xtick_2">
     <g id="line2d_3">
      <path d="M 174.1925 531.100937 
L 174.1925 23.220937 
" clip-path="url(#p5283fea19a)" style="fill: none; stroke-dasharray: 2.96,1.28; stroke-dashoffset: 0; stroke: #b0b0b0; stroke-opacity: 0.5; stroke-width: 0.8"/>
     </g>
     <g id="line2d_4">
      <g>
       <use xlink:href="#macd0f6bd26" x="174.1925" y="531.100937" style="stroke: #000000; stroke-width: 0.8"/>
      </g>
     </g>
     <g id="text_2">
      <!-- 0.2 -->
      <g transform="translate(167.2425 545.25875) scale(0.1 -0.1)">
       <defs>
        <path id="ArialMT-32" d="M 3222 541 
L 3222 0 
L 194 0 
Q 188 203 259 391 
Q 375 700 629 1000 
Q 884 1300 1366 1694 
Q 2113 2306 2375 2664 
Q 2638 3022 2638 3341 
Q 2638 3675 2398 3904 
Q 2159 4134 1775 4134 
Q 1369 4134 1125 3890 
Q 881 3647 878 3216 
L 300 3275 
Q 359 3922 746 4261 
Q 1134 4600 1788 4600 
Q 2447 4600 2831 4234 
Q 3216 3869 3216 3328 
Q 3216 3053 3103 2787 
Q 2991 2522 2730 2228 
Q 2469 1934 1863 1422 
Q 1356 997 1212 845 
Q 1069 694 975 541 
L 3222 541 
z
" transform="scale(0.015625)"/>
       </defs>
       <use xlink:href="#ArialMT-30"/>
       <use xlink:href="#ArialMT-2e" transform="translate(55.615234 0)"/>
       <use xlink:href="#ArialMT-32" transform="translate(83.398438 0)"/>
      </g>
     </g>
    </g>
    <g id="xtick_3">
     <g id="line2d_5">
      <path d="M 305.3275 531.100937 
L 305.3275 23.220937 
" clip-path="url(#p5283fea19a)" style="fill: none; stroke-dasharray: 2.96,1.28; stroke-dashoffset: 0; stroke: #b0b0b0; stroke-opacity: 0.5; stroke-width: 0.8"/>
     </g>
     <g id="line2d_6">
      <g>
       <use xlink:href="#macd0f6bd26" x="305.3275" y="531.100937" style="stroke: #000000; stroke-width: 0.8"/>
      </g>
     </g>
     <g id="text_3">
      <!-- 0.4 -->
      <g transform="translate(298.3775 545.25875) scale(0.1 -0.1)">
       <defs>
        <path id="ArialMT-34" d="M 2069 0 
L 2069 1097 
L 81 1097 
L 81 1613 
L 2172 4581 
L 2631 4581 
L 2631 1613 
L 3250 1613 
L 3250 1097 
L 2631 1097 
L 2631 0 
L 2069 0 
z
M 2069 1613 
L 2069 3678 
L 634 1613 
L 2069 1613 
z
" transform="scale(0.015625)"/>
       </defs>
       <use xlink:href="#ArialMT-30"/>
       <use xlink:href="#ArialMT-2e" transform="translate(55.615234 0)"/>
       <use xlink:href="#ArialMT-34" transform="translate(83.398438 0)"/>
      </g>
     </g>
    </g>
    <g id="xtick_4">
     <g id="line2d_7">
      <path d="M 436.4625 531.100937 
L 436.4625 23.220937 
" clip-path="url(#p5283fea19a)" style="fill: none; stroke-dasharray: 2.96,1.28; stroke-dashoffset: 0; stroke: #b0b0b0; stroke-opacity: 0.5; stroke-width: 0.8"/>
     </g>
     <g id="line2d_8">
      <g>
       <use xlink:href="#macd0f6bd26" x="436.4625" y="531.100937" style="stroke: #000000; stroke-width: 0.8"/>
      </g>
     </g>
     <g id="text_4">
      <!-- 0.6 -->
      <g transform="translate(429.5125 545.25875) scale(0.1 -0.1)">
       <defs>
        <path id="ArialMT-36" d="M 3184 3459 
L 2625 3416 
Q 2550 3747 2413 3897 
Q 2184 4138 1850 4138 
Q 1581 4138 1378 3988 
Q 1113 3794 959 3422 
Q 806 3050 800 2363 
Q 1003 2672 1297 2822 
Q 1591 2972 1913 2972 
Q 2475 2972 2870 2558 
Q 3266 2144 3266 1488 
Q 3266 1056 3080 686 
Q 2894 316 2569 119 
Q 2244 -78 1831 -78 
Q 1128 -78 684 439 
Q 241 956 241 2144 
Q 241 3472 731 4075 
Q 1159 4600 1884 4600 
Q 2425 4600 2770 4297 
Q 3116 3994 3184 3459 
z
M 888 1484 
Q 888 1194 1011 928 
Q 1134 663 1356 523 
Q 1578 384 1822 384 
Q 2178 384 2434 671 
Q 2691 959 2691 1453 
Q 2691 1928 2437 2201 
Q 2184 2475 1800 2475 
Q 1419 2475 1153 2201 
Q 888 1928 888 1484 
z
" transform="scale(0.015625)"/>
       </defs>
       <use xlink:href="#ArialMT-30"/>
       <use xlink:href="#ArialMT-2e" transform="translate(55.615234 0)"/>
       <use xlink:href="#ArialMT-36" transform="translate(83.398438 0)"/>
      </g>
     </g>
    </g>
    <g id="xtick_5">
     <g id="line2d_9">
      <path d="M 567.5975 531.100937 
L 567.5975 23.220937 
" clip-path="url(#p5283fea19a)" style="fill: none; stroke-dasharray: 2.96,1.28; stroke-dashoffset: 0; stroke: #b0b0b0; stroke-opacity: 0.5; stroke-width: 0.8"/>
     </g>
     <g id="line2d_10">
      <g>
       <use xlink:href="#macd0f6bd26" x="567.5975" y="531.100937" style="stroke: #000000; stroke-width: 0.8"/>
      </g>
     </g>
     <g id="text_5">
      <!-- 0.8 -->
      <g transform="translate(560.6475 545.25875) scale(0.1 -0.1)">
       <defs>
        <path id="ArialMT-38" d="M 1131 2484 
Q 781 2613 612 2850 
Q 444 3088 444 3419 
Q 444 3919 803 4259 
Q 1163 4600 1759 4600 
Q 2359 4600 2725 4251 
Q 3091 3903 3091 3403 
Q 3091 3084 2923 2848 
Q 2756 2613 2416 2484 
Q 2838 2347 3058 2040 
Q 3278 1734 3278 1309 
Q 3278 722 2862 322 
Q 2447 -78 1769 -78 
Q 1091 -78 675 323 
Q 259 725 259 1325 
Q 259 1772 486 2073 
Q 713 2375 1131 2484 
z
M 1019 3438 
Q 1019 3113 1228 2906 
Q 1438 2700 1772 2700 
Q 2097 2700 2305 2904 
Q 2513 3109 2513 3406 
Q 2513 3716 2298 3927 
Q 2084 4138 1766 4138 
Q 1444 4138 1231 3931 
Q 1019 3725 1019 3438 
z
M 838 1322 
Q 838 1081 952 856 
Q 1066 631 1291 507 
Q 1516 384 1775 384 
Q 2178 384 2440 643 
Q 2703 903 2703 1303 
Q 2703 1709 2433 1975 
Q 2163 2241 1756 2241 
Q 1359 2241 1098 1978 
Q 838 1716 838 1322 
z
" transform="scale(0.015625)"/>
       </defs>
       <use xlink:href="#ArialMT-30"/>
       <use xlink:href="#ArialMT-2e" transform="translate(55.615234 0)"/>
       <use xlink:href="#ArialMT-38" transform="translate(83.398438 0)"/>
      </g>
     </g>
    </g>
    <g id="xtick_6">
     <g id="line2d_11">
      <path d="M 698.7325 531.100937 
L 698.7325 23.220937 
" clip-path="url(#p5283fea19a)" style="fill: none; stroke-dasharray: 2.96,1.28; stroke-dashoffset: 0; stroke: #b0b0b0; stroke-opacity: 0.5; stroke-width: 0.8"/>
     </g>
     <g id="line2d_12">
      <g>
       <use xlink:href="#macd0f6bd26" x="698.7325" y="531.100937" style="stroke: #000000; stroke-width: 0.8"/>
      </g>
     </g>
     <g id="text_6">
      <!-- 1.0 -->
      <g transform="translate(691.7825 545.25875) scale(0.1 -0.1)">
       <defs>
        <path id="ArialMT-31" d="M 2384 0 
L 1822 0 
L 1822 3584 
Q 1619 3391 1289 3197 
Q 959 3003 697 2906 
L 697 3450 
Q 1169 3672 1522 3987 
Q 1875 4303 2022 4600 
L 2384 4600 
L 2384 0 
z
" transform="scale(0.015625)"/>
       </defs>
       <use xlink:href="#ArialMT-31"/>
       <use xlink:href="#ArialMT-2e" transform="translate(55.615234 0)"/>
       <use xlink:href="#ArialMT-30" transform="translate(83.398438 0)"/>
      </g>
     </g>
    </g>
    <g id="text_7">
     <!-- False Positive Rate -->
     <g transform="translate(316.207813 559.835625) scale(0.12 -0.12)">
      <defs>
       <path id="Arial-BoldMT-46" d="M 472 0 
L 472 4581 
L 3613 4581 
L 3613 3806 
L 1397 3806 
L 1397 2722 
L 3309 2722 
L 3309 1947 
L 1397 1947 
L 1397 0 
L 472 0 
z
" transform="scale(0.015625)"/>
       <path id="Arial-BoldMT-61" d="M 1116 2306 
L 319 2450 
Q 453 2931 781 3162 
Q 1109 3394 1756 3394 
Q 2344 3394 2631 3255 
Q 2919 3116 3036 2902 
Q 3153 2688 3153 2116 
L 3144 1091 
Q 3144 653 3186 445 
Q 3228 238 3344 0 
L 2475 0 
Q 2441 88 2391 259 
Q 2369 338 2359 363 
Q 2134 144 1878 34 
Q 1622 -75 1331 -75 
Q 819 -75 523 203 
Q 228 481 228 906 
Q 228 1188 362 1408 
Q 497 1628 739 1745 
Q 981 1863 1438 1950 
Q 2053 2066 2291 2166 
L 2291 2253 
Q 2291 2506 2166 2614 
Q 2041 2722 1694 2722 
Q 1459 2722 1328 2630 
Q 1197 2538 1116 2306 
z
M 2291 1594 
Q 2122 1538 1756 1459 
Q 1391 1381 1278 1306 
Q 1106 1184 1106 997 
Q 1106 813 1243 678 
Q 1381 544 1594 544 
Q 1831 544 2047 700 
Q 2206 819 2256 991 
Q 2291 1103 2291 1419 
L 2291 1594 
z
" transform="scale(0.015625)"/>
       <path id="Arial-BoldMT-6c" d="M 459 0 
L 459 4581 
L 1338 4581 
L 1338 0 
L 459 0 
z
" transform="scale(0.015625)"/>
       <path id="Arial-BoldMT-73" d="M 150 947 
L 1031 1081 
Q 1088 825 1259 692 
Q 1431 559 1741 559 
Q 2081 559 2253 684 
Q 2369 772 2369 919 
Q 2369 1019 2306 1084 
Q 2241 1147 2013 1200 
Q 950 1434 666 1628 
Q 272 1897 272 2375 
Q 272 2806 612 3100 
Q 953 3394 1669 3394 
Q 2350 3394 2681 3172 
Q 3013 2950 3138 2516 
L 2309 2363 
Q 2256 2556 2107 2659 
Q 1959 2763 1684 2763 
Q 1338 2763 1188 2666 
Q 1088 2597 1088 2488 
Q 1088 2394 1175 2328 
Q 1294 2241 1995 2081 
Q 2697 1922 2975 1691 
Q 3250 1456 3250 1038 
Q 3250 581 2869 253 
Q 2488 -75 1741 -75 
Q 1063 -75 667 200 
Q 272 475 150 947 
z
" transform="scale(0.015625)"/>
       <path id="Arial-BoldMT-65" d="M 2381 1056 
L 3256 909 
Q 3088 428 2723 176 
Q 2359 -75 1813 -75 
Q 947 -75 531 491 
Q 203 944 203 1634 
Q 203 2459 634 2926 
Q 1066 3394 1725 3394 
Q 2466 3394 2894 2905 
Q 3322 2416 3303 1406 
L 1103 1406 
Q 1113 1016 1316 798 
Q 1519 581 1822 581 
Q 2028 581 2168 693 
Q 2309 806 2381 1056 
z
M 2431 1944 
Q 2422 2325 2234 2523 
Q 2047 2722 1778 2722 
Q 1491 2722 1303 2513 
Q 1116 2303 1119 1944 
L 2431 1944 
z
" transform="scale(0.015625)"/>
       <path id="Arial-BoldMT-20" transform="scale(0.015625)"/>
       <path id="Arial-BoldMT-50" d="M 466 0 
L 466 4581 
L 1950 4581 
Q 2794 4581 3050 4513 
Q 3444 4409 3709 4064 
Q 3975 3719 3975 3172 
Q 3975 2750 3822 2462 
Q 3669 2175 3433 2011 
Q 3197 1847 2953 1794 
Q 2622 1728 1994 1728 
L 1391 1728 
L 1391 0 
L 466 0 
z
M 1391 3806 
L 1391 2506 
L 1897 2506 
Q 2444 2506 2628 2578 
Q 2813 2650 2917 2803 
Q 3022 2956 3022 3159 
Q 3022 3409 2875 3571 
Q 2728 3734 2503 3775 
Q 2338 3806 1838 3806 
L 1391 3806 
z
" transform="scale(0.015625)"/>
       <path id="Arial-BoldMT-6f" d="M 256 1706 
Q 256 2144 472 2553 
Q 688 2963 1083 3178 
Q 1478 3394 1966 3394 
Q 2719 3394 3200 2905 
Q 3681 2416 3681 1669 
Q 3681 916 3195 420 
Q 2709 -75 1972 -75 
Q 1516 -75 1102 131 
Q 688 338 472 736 
Q 256 1134 256 1706 
z
M 1156 1659 
Q 1156 1166 1390 903 
Q 1625 641 1969 641 
Q 2313 641 2545 903 
Q 2778 1166 2778 1666 
Q 2778 2153 2545 2415 
Q 2313 2678 1969 2678 
Q 1625 2678 1390 2415 
Q 1156 2153 1156 1659 
z
" transform="scale(0.015625)"/>
       <path id="Arial-BoldMT-69" d="M 459 3769 
L 459 4581 
L 1338 4581 
L 1338 3769 
L 459 3769 
z
M 459 0 
L 459 3319 
L 1338 3319 
L 1338 0 
L 459 0 
z
" transform="scale(0.015625)"/>
       <path id="Arial-BoldMT-74" d="M 1981 3319 
L 1981 2619 
L 1381 2619 
L 1381 1281 
Q 1381 875 1398 808 
Q 1416 741 1477 697 
Q 1538 653 1625 653 
Q 1747 653 1978 738 
L 2053 56 
Q 1747 -75 1359 -75 
Q 1122 -75 931 4 
Q 741 84 652 211 
Q 563 338 528 553 
Q 500 706 500 1172 
L 500 2619 
L 97 2619 
L 97 3319 
L 500 3319 
L 500 3978 
L 1381 4491 
L 1381 3319 
L 1981 3319 
z
" transform="scale(0.015625)"/>
       <path id="Arial-BoldMT-76" d="M 1372 0 
L 34 3319 
L 956 3319 
L 1581 1625 
L 1763 1059 
Q 1834 1275 1853 1344 
Q 1897 1484 1947 1625 
L 2578 3319 
L 3481 3319 
L 2163 0 
L 1372 0 
z
" transform="scale(0.015625)"/>
       <path id="Arial-BoldMT-52" d="M 469 0 
L 469 4581 
L 2416 4581 
Q 3150 4581 3483 4457 
Q 3816 4334 4016 4018 
Q 4216 3703 4216 3297 
Q 4216 2781 3912 2445 
Q 3609 2109 3006 2022 
Q 3306 1847 3501 1637 
Q 3697 1428 4028 894 
L 4588 0 
L 3481 0 
L 2813 997 
Q 2456 1531 2325 1670 
Q 2194 1809 2047 1861 
Q 1900 1913 1581 1913 
L 1394 1913 
L 1394 0 
L 469 0 
z
M 1394 2644 
L 2078 2644 
Q 2744 2644 2909 2700 
Q 3075 2756 3169 2893 
Q 3263 3031 3263 3238 
Q 3263 3469 3139 3611 
Q 3016 3753 2791 3791 
Q 2678 3806 2116 3806 
L 1394 3806 
L 1394 2644 
z
" transform="scale(0.015625)"/>
      </defs>
      <use xlink:href="#Arial-BoldMT-46"/>
      <use xlink:href="#Arial-BoldMT-61" transform="translate(61.083984 0)"/>
      <use xlink:href="#Arial-BoldMT-6c" transform="translate(116.699219 0)"/>
      <use xlink:href="#Arial-BoldMT-73" transform="translate(144.482422 0)"/>
      <use xlink:href="#Arial-BoldMT-65" transform="translate(200.097656 0)"/>
      <use xlink:href="#Arial-BoldMT-20" transform="translate(255.712891 0)"/>
      <use xlink:href="#Arial-BoldMT-50" transform="translate(283.496094 0)"/>
      <use xlink:href="#Arial-BoldMT-6f" transform="translate(350.195312 0)"/>
      <use xlink:href="#Arial-BoldMT-73" transform="translate(411.279297 0)"/>
      <use xlink:href="#Arial-BoldMT-69" transform="translate(466.894531 0)"/>
      <use xlink:href="#Arial-BoldMT-74" transform="translate(494.677734 0)"/>
      <use xlink:href="#Arial-BoldMT-69" transform="translate(527.978516 0)"/>
      <use xlink:href="#Arial-BoldMT-76" transform="translate(555.761719 0)"/>
      <use xlink:href="#Arial-BoldMT-65" transform="translate(611.376953 0)"/>
      <use xlink:href="#Arial-BoldMT-20" transform="translate(666.992188 0)"/>
      <use xlink:href="#Arial-BoldMT-52" transform="translate(694.775391 0)"/>
      <use xlink:href="#Arial-BoldMT-61" transform="translate(766.992188 0)"/>
      <use xlink:href="#Arial-BoldMT-74" transform="translate(822.607422 0)"/>
      <use xlink:href="#Arial-BoldMT-65" transform="translate(855.908203 0)"/>
     </g>
    </g>
   </g>
   <g id="matplotlib.axis_2">
    <g id="ytick_1">
     <g id="line2d_13">
      <path d="M 43.0575 531.100937 
L 698.7325 531.100937 
" clip-path="url(#p5283fea19a)" style="fill: none; stroke-dasharray: 2.96,1.28; stroke-dashoffset: 0; stroke: #b0b0b0; stroke-opacity: 0.5; stroke-width: 0.8"/>
     </g>
     <g id="line2d_14">
      <defs>
       <path id="m7aa2cefe66" d="M 0 0 
L -3.5 0 
" style="stroke: #000000; stroke-width: 0.8"/>
      </defs>
      <g>
       <use xlink:href="#m7aa2cefe66" x="43.0575" y="531.100937" style="stroke: #000000; stroke-width: 0.8"/>
      </g>
     </g>
     <g id="text_8">
      <!-- 0.0 -->
      <g transform="translate(22.1575 534.679844) scale(0.1 -0.1)">
       <use xlink:href="#ArialMT-30"/>
       <use xlink:href="#ArialMT-2e" transform="translate(55.615234 0)"/>
       <use xlink:href="#ArialMT-30" transform="translate(83.398438 0)"/>
      </g>
     </g>
    </g>
    <g id="ytick_2">
     <g id="line2d_15">
      <path d="M 43.0575 434.36189 
L 698.7325 434.36189 
" clip-path="url(#p5283fea19a)" style="fill: none; stroke-dasharray: 2.96,1.28; stroke-dashoffset: 0; stroke: #b0b0b0; stroke-opacity: 0.5; stroke-width: 0.8"/>
     </g>
     <g id="line2d_16">
      <g>
       <use xlink:href="#m7aa2cefe66" x="43.0575" y="434.36189" style="stroke: #000000; stroke-width: 0.8"/>
      </g>
     </g>
     <g id="text_9">
      <!-- 0.2 -->
      <g transform="translate(22.1575 437.940796) scale(0.1 -0.1)">
       <use xlink:href="#ArialMT-30"/>
       <use xlink:href="#ArialMT-2e" transform="translate(55.615234 0)"/>
       <use xlink:href="#ArialMT-32" transform="translate(83.398438 0)"/>
      </g>
     </g>
    </g>
    <g id="ytick_3">
     <g id="line2d_17">
      <path d="M 43.0575 337.622842 
L 698.7325 337.622842 
" clip-path="url(#p5283fea19a)" style="fill: none; stroke-dasharray: 2.96,1.28; stroke-dashoffset: 0; stroke: #b0b0b0; stroke-opacity: 0.5; stroke-width: 0.8"/>
     </g>
     <g id="line2d_18">
      <g>
       <use xlink:href="#m7aa2cefe66" x="43.0575" y="337.622842" style="stroke: #000000; stroke-width: 0.8"/>
      </g>
     </g>
     <g id="text_10">
      <!-- 0.4 -->
      <g transform="translate(22.1575 341.201749) scale(0.1 -0.1)">
       <use xlink:href="#ArialMT-30"/>
       <use xlink:href="#ArialMT-2e" transform="translate(55.615234 0)"/>
       <use xlink:href="#ArialMT-34" transform="translate(83.398438 0)"/>
      </g>
     </g>
    </g>
    <g id="ytick_4">
     <g id="line2d_19">
      <path d="M 43.0575 240.883795 
L 698.7325 240.883795 
" clip-path="url(#p5283fea19a)" style="fill: none; stroke-dasharray: 2.96,1.28; stroke-dashoffset: 0; stroke: #b0b0b0; stroke-opacity: 0.5; stroke-width: 0.8"/>
     </g>
     <g id="line2d_20">
      <g>
       <use xlink:href="#m7aa2cefe66" x="43.0575" y="240.883795" style="stroke: #000000; stroke-width: 0.8"/>
      </g>
     </g>
     <g id="text_11">
      <!-- 0.6 -->
      <g transform="translate(22.1575 244.462701) scale(0.1 -0.1)">
       <use xlink:href="#ArialMT-30"/>
       <use xlink:href="#ArialMT-2e" transform="translate(55.615234 0)"/>
       <use xlink:href="#ArialMT-36" transform="translate(83.398438 0)"/>
      </g>
     </g>
    </g>
    <g id="ytick_5">
     <g id="line2d_21">
      <path d="M 43.0575 144.144747 
L 698.7325 144.144747 
" clip-path="url(#p5283fea19a)" style="fill: none; stroke-dasharray: 2.96,1.28; stroke-dashoffset: 0; stroke: #b0b0b0; stroke-opacity: 0.5; stroke-width: 0.8"/>
     </g>
     <g id="line2d_22">
      <g>
       <use xlink:href="#m7aa2cefe66" x="43.0575" y="144.144747" style="stroke: #000000; stroke-width: 0.8"/>
      </g>
     </g>
     <g id="text_12">
      <!-- 0.8 -->
      <g transform="translate(22.1575 147.723653) scale(0.1 -0.1)">
       <use xlink:href="#ArialMT-30"/>
       <use xlink:href="#ArialMT-2e" transform="translate(55.615234 0)"/>
       <use xlink:href="#ArialMT-38" transform="translate(83.398438 0)"/>
      </g>
     </g>
    </g>
    <g id="ytick_6">
     <g id="line2d_23">
      <path d="M 43.0575 47.405699 
L 698.7325 47.405699 
" clip-path="url(#p5283fea19a)" style="fill: none; stroke-dasharray: 2.96,1.28; stroke-dashoffset: 0; stroke: #b0b0b0; stroke-opacity: 0.5; stroke-width: 0.8"/>
     </g>
     <g id="line2d_24">
      <g>
       <use xlink:href="#m7aa2cefe66" x="43.0575" y="47.405699" style="stroke: #000000; stroke-width: 0.8"/>
      </g>
     </g>
     <g id="text_13">
      <!-- 1.0 -->
      <g transform="translate(22.1575 50.984606) scale(0.1 -0.1)">
       <use xlink:href="#ArialMT-31"/>
       <use xlink:href="#ArialMT-2e" transform="translate(55.615234 0)"/>
       <use xlink:href="#ArialMT-30" transform="translate(83.398438 0)"/>
      </g>
     </g>
    </g>
    <g id="text_14">
     <!-- True Positive Rate -->
     <g transform="translate(15.789375 329.178125) rotate(-90) scale(0.12 -0.12)">
      <defs>
       <path id="Arial-BoldMT-54" d="M 1497 0 
L 1497 3806 
L 138 3806 
L 138 4581 
L 3778 4581 
L 3778 3806 
L 2422 3806 
L 2422 0 
L 1497 0 
z
" transform="scale(0.015625)"/>
       <path id="Arial-BoldMT-72" d="M 1300 0 
L 422 0 
L 422 3319 
L 1238 3319 
L 1238 2847 
Q 1447 3181 1614 3287 
Q 1781 3394 1994 3394 
Q 2294 3394 2572 3228 
L 2300 2463 
Q 2078 2606 1888 2606 
Q 1703 2606 1575 2504 
Q 1447 2403 1373 2137 
Q 1300 1872 1300 1025 
L 1300 0 
z
" transform="scale(0.015625)"/>
       <path id="Arial-BoldMT-75" d="M 2644 0 
L 2644 497 
Q 2463 231 2167 78 
Q 1872 -75 1544 -75 
Q 1209 -75 943 72 
Q 678 219 559 484 
Q 441 750 441 1219 
L 441 3319 
L 1319 3319 
L 1319 1794 
Q 1319 1094 1367 936 
Q 1416 778 1544 686 
Q 1672 594 1869 594 
Q 2094 594 2272 717 
Q 2450 841 2515 1023 
Q 2581 1206 2581 1919 
L 2581 3319 
L 3459 3319 
L 3459 0 
L 2644 0 
z
" transform="scale(0.015625)"/>
      </defs>
      <use xlink:href="#Arial-BoldMT-54"/>
      <use xlink:href="#Arial-BoldMT-72" transform="translate(55.583984 0)"/>
      <use xlink:href="#Arial-BoldMT-75" transform="translate(94.5 0)"/>
      <use xlink:href="#Arial-BoldMT-65" transform="translate(155.583984 0)"/>
      <use xlink:href="#Arial-BoldMT-20" transform="translate(211.199219 0)"/>
      <use xlink:href="#Arial-BoldMT-50" transform="translate(238.982422 0)"/>
      <use xlink:href="#Arial-BoldMT-6f" transform="translate(305.681641 0)"/>
      <use xlink:href="#Arial-BoldMT-73" transform="translate(366.765625 0)"/>
      <use xlink:href="#Arial-BoldMT-69" transform="translate(422.380859 0)"/>
      <use xlink:href="#Arial-BoldMT-74" transform="translate(450.164062 0)"/>
      <use xlink:href="#Arial-BoldMT-69" transform="translate(483.464844 0)"/>
      <use xlink:href="#Arial-BoldMT-76" transform="translate(511.248047 0)"/>
      <use xlink:href="#Arial-BoldMT-65" transform="translate(566.863281 0)"/>
      <use xlink:href="#Arial-BoldMT-20" transform="translate(622.478516 0)"/>
      <use xlink:href="#Arial-BoldMT-52" transform="translate(650.261719 0)"/>
      <use xlink:href="#Arial-BoldMT-61" transform="translate(722.478516 0)"/>
      <use xlink:href="#Arial-BoldMT-74" transform="translate(778.09375 0)"/>
      <use xlink:href="#Arial-BoldMT-65" transform="translate(811.394531 0)"/>
     </g>
    </g>
   </g>
   <g id="line2d_25">
    <path d="M 43.0575 531.100937 
L 698.7325 47.405699 
" clip-path="url(#p5283fea19a)" style="fill: none; stroke: #1f77b4; stroke-width: 2; stroke-linecap: square"/>
   </g>
   <g id="line2d_26">
    <path d="M 43.0575 531.100937 
L 369.249642 531.100937 
L 369.249642 527.491272 
L 383.646521 527.491272 
L 384.057861 523.881606 
L 404.624831 523.881606 
L 405.03617 520.27194 
L 423.957782 520.27194 
L 424.369122 516.662274 
L 424.780461 516.662274 
L 426.014479 505.833276 
L 426.837158 505.833276 
L 427.248497 502.22361 
L 429.305194 502.22361 
L 429.305194 498.613944 
L 445.347431 498.613944 
L 446.17011 491.394612 
L 448.226807 491.394612 
L 449.460825 480.565614 
L 453.574219 480.565614 
L 453.985558 476.955948 
L 455.630916 476.955948 
L 456.453595 469.736616 
L 456.453595 466.12695 
L 456.864934 466.12695 
L 456.864934 458.907618 
L 462.623686 458.907618 
L 463.035025 455.297952 
L 471.261813 455.297952 
L 471.673152 451.688286 
L 477.431904 451.688286 
L 477.843243 448.078621 
L 485.247353 448.078621 
L 486.070031 440.859289 
L 489.360747 440.859289 
L 489.360747 433.639957 
L 490.594765 433.639957 
L 491.006104 430.030291 
L 498.821553 430.030291 
L 499.232892 426.420625 
L 501.700928 426.420625 
L 502.523607 422.810959 
L 504.991644 422.810959 
L 506.225662 419.201293 
L 511.984413 419.201293 
L 513.218432 415.591627 
L 536.253438 415.591627 
L 536.664777 411.981961 
L 542.423529 411.981961 
L 542.834868 408.372295 
L 549.416299 408.372295 
L 549.827638 404.762629 
L 562.16782 404.762629 
L 562.579159 401.152963 
L 571.628626 401.152963 
L 572.039965 397.543297 
L 575.330681 397.543297 
L 575.74202 393.933631 
L 576.564699 393.933631 
L 576.976038 390.323965 
L 578.621396 390.323965 
L 579.855414 386.714299 
L 609.060511 386.714299 
L 609.471851 383.104633 
L 609.88319 383.104633 
L 611.939887 365.056304 
L 612.351226 365.056304 
L 612.351226 361.446638 
L 612.762566 357.836972 
L 616.46462 357.836972 
L 617.287299 354.227306 
L 617.287299 350.61764 
L 618.932657 350.61764 
L 619.343996 347.007974 
L 620.166675 347.007974 
L 620.578014 343.398308 
L 622.634711 343.398308 
L 623.45739 336.178976 
L 625.102748 336.178976 
L 625.514087 332.56931 
L 626.336766 332.56931 
L 626.336766 328.959644 
L 627.159445 321.740312 
L 639.499627 321.740312 
L 641.144984 307.301648 
L 641.967663 307.301648 
L 641.967663 303.691982 
L 642.790342 303.691982 
L 643.613021 296.47265 
L 644.847039 296.47265 
L 646.903736 278.424321 
L 646.903736 267.595323 
L 647.726415 267.595323 
L 648.549093 260.375991 
L 649.371772 260.375991 
L 650.194451 253.156659 
L 650.194451 249.546993 
L 653.896506 249.546993 
L 654.719184 242.327661 
L 655.953203 242.327661 
L 656.775881 235.108329 
L 657.59856 235.108329 
L 658.0099 231.498663 
L 658.0099 224.279331 
L 658.421239 224.279331 
L 659.243918 217.059999 
L 659.243918 206.231001 
L 669.116063 206.231001 
L 671.17276 188.182672 
L 671.995439 188.182672 
L 671.995439 180.96334 
L 673.229457 180.96334 
L 673.640797 177.353674 
L 674.052136 177.353674 
L 674.874815 170.134342 
L 675.286154 170.134342 
L 676.108833 162.91501 
L 676.108833 155.695678 
L 676.520173 155.695678 
L 676.520173 152.086012 
L 677.342851 152.086012 
L 678.16553 144.86668 
L 678.57687 144.86668 
L 678.57687 137.647348 
L 679.399548 137.647348 
L 679.810888 134.037682 
L 679.810888 130.428016 
L 681.044906 130.428016 
L 681.456245 126.81835 
L 682.690263 126.81835 
L 683.512942 119.599019 
L 683.512942 101.550689 
L 689.271694 101.550689 
L 689.683033 97.941023 
L 691.73973 97.941023 
L 692.973748 87.112025 
L 693.385088 87.112025 
L 693.385088 79.892693 
L 694.207767 79.892693 
L 694.207767 72.673361 
L 694.619106 69.063695 
L 695.030445 69.063695 
L 695.030445 65.454029 
L 695.441785 65.454029 
L 695.441785 58.234697 
L 696.675803 58.234697 
L 697.087142 54.625031 
L 697.909821 54.625031 
L 697.909821 47.405699 
L 698.7325 47.405699 
L 698.7325 47.405699 
" clip-path="url(#p5283fea19a)" style="fill: none; stroke: #ff7f0e; stroke-width: 2; stroke-linecap: square"/>
   </g>
   <g id="line2d_27">
    <path d="M 43.0575 531.100937 
L 48.404912 531.100937 
L 48.404912 527.491272 
L 52.929646 527.491272 
L 52.929646 520.27194 
L 54.163664 520.27194 
L 54.163664 516.662274 
L 61.979112 516.662274 
L 61.979112 513.052608 
L 62.801791 513.052608 
L 62.801791 509.442942 
L 73.496615 509.442942 
L 73.496615 505.833276 
L 78.021349 505.833276 
L 78.021349 502.22361 
L 78.432688 502.22361 
L 78.432688 498.613944 
L 80.900725 498.613944 
L 80.900725 491.394612 
L 83.7801 491.394612 
L 83.7801 487.784946 
L 85.014119 487.784946 
L 85.014119 484.17528 
L 88.716173 484.17528 
L 88.716173 480.565614 
L 103.113052 480.565614 
L 103.113052 476.955948 
L 113.807876 476.955948 
L 113.807876 473.346282 
L 117.509931 473.346282 
L 117.509931 469.736616 
L 119.566628 469.736616 
L 119.566628 466.12695 
L 124.502701 466.12695 
L 124.502701 462.517284 
L 124.91404 462.517284 
L 124.91404 458.907618 
L 126.970737 458.907618 
L 126.970737 455.297952 
L 129.438774 455.297952 
L 129.438774 448.078621 
L 137.254222 448.078621 
L 137.254222 444.468955 
L 142.601634 444.468955 
L 142.601634 440.859289 
L 143.835652 440.859289 
L 143.835652 433.639957 
L 146.303689 433.639957 
L 146.303689 430.030291 
L 159.05521 430.030291 
L 159.05521 422.810959 
L 172.62941 422.810959 
L 172.62941 419.201293 
L 173.04075 419.201293 
L 173.04075 415.591627 
L 177.154144 415.591627 
L 177.154144 411.981961 
L 177.565483 411.981961 
L 177.565483 408.372295 
L 178.388162 408.372295 
L 178.388162 404.762629 
L 184.969592 404.762629 
L 184.969592 401.152963 
L 187.026289 401.152963 
L 187.026289 397.543297 
L 196.075756 397.543297 
L 196.075756 393.933631 
L 196.898435 393.933631 
L 196.898435 390.323965 
L 201.834508 390.323965 
L 201.834508 386.714299 
L 214.174689 386.714299 
L 214.174689 383.104633 
L 218.699423 383.104633 
L 218.699423 379.494967 
L 221.578799 379.494967 
L 221.578799 375.885301 
L 227.33755 375.885301 
L 227.33755 372.275635 
L 228.160229 372.275635 
L 228.160229 365.056304 
L 231.039605 365.056304 
L 231.039605 361.446638 
L 232.273623 361.446638 
L 232.273623 357.836972 
L 240.500411 357.836972 
L 240.500411 354.227306 
L 243.791126 354.227306 
L 243.791126 350.61764 
L 244.202465 350.61764 
L 244.202465 347.007974 
L 244.613805 347.007974 
L 244.613805 343.398308 
L 246.670502 343.398308 
L 246.670502 339.788642 
L 251.606575 339.788642 
L 251.606575 336.178976 
L 254.89729 336.178976 
L 254.89729 332.56931 
L 259.010684 332.56931 
L 259.010684 328.959644 
L 260.244702 328.959644 
L 260.244702 325.349978 
L 261.89006 325.349978 
L 261.89006 321.740312 
L 270.116848 321.740312 
L 270.116848 318.130646 
L 270.939526 318.130646 
L 270.939526 314.52098 
L 289.03846 314.52098 
L 289.03846 310.911314 
L 291.506496 310.911314 
L 291.506496 307.301648 
L 293.974533 307.301648 
L 293.974533 303.691982 
L 303.846678 303.691982 
L 303.846678 300.082316 
L 305.903375 300.082316 
L 305.903375 296.47265 
L 309.19409 296.47265 
L 309.19409 292.862984 
L 312.896145 292.862984 
L 312.896145 289.253318 
L 314.952842 289.253318 
L 314.952842 285.643652 
L 316.18686 285.643652 
L 316.18686 282.033987 
L 319.888915 282.033987 
L 319.888915 278.424321 
L 320.300254 278.424321 
L 320.300254 274.814655 
L 322.356951 274.814655 
L 322.356951 267.595323 
L 324.413648 267.595323 
L 324.413648 263.985657 
L 325.647666 263.985657 
L 325.647666 260.375991 
L 333.463115 260.375991 
L 333.463115 256.766325 
L 333.874454 256.766325 
L 333.874454 253.156659 
L 335.519812 253.156659 
L 335.519812 249.546993 
L 335.931151 249.546993 
L 335.931151 245.937327 
L 345.803297 245.937327 
L 345.803297 242.327661 
L 357.732139 242.327661 
L 357.732139 238.717995 
L 363.490891 238.717995 
L 363.490891 235.108329 
L 366.781606 235.108329 
L 366.781606 231.498663 
L 368.426964 231.498663 
L 368.426964 227.888997 
L 379.944467 227.888997 
L 379.944467 224.279331 
L 382.412503 224.279331 
L 382.412503 220.669665 
L 383.646521 220.669665 
L 383.646521 217.059999 
L 409.149564 217.059999 
L 409.149564 213.450333 
L 420.255728 213.450333 
L 420.255728 209.840667 
L 422.312425 209.840667 
L 422.312425 206.231001 
L 430.950552 206.231001 
L 430.950552 202.621336 
L 444.113413 202.621336 
L 444.113413 199.01167 
L 451.517522 199.01167 
L 451.517522 195.402004 
L 453.985558 195.402004 
L 453.985558 191.792338 
L 455.630916 191.792338 
L 455.630916 188.182672 
L 456.453595 188.182672 
L 456.453595 184.573006 
L 463.035025 184.573006 
L 463.035025 180.96334 
L 467.148419 180.96334 
L 467.148419 177.353674 
L 476.197886 177.353674 
L 476.197886 173.744008 
L 481.545298 173.744008 
L 481.545298 170.134342 
L 482.779316 170.134342 
L 482.779316 166.524676 
L 500.46691 166.524676 
L 500.46691 162.91501 
L 507.45968 162.91501 
L 507.45968 159.305344 
L 508.693698 159.305344 
L 508.693698 155.695678 
L 510.339056 155.695678 
L 510.339056 148.476346 
L 514.45245 148.476346 
L 514.45245 144.86668 
L 526.381292 144.86668 
L 526.381292 137.647348 
L 530.083347 137.647348 
L 530.083347 134.037682 
L 537.076117 134.037682 
L 537.076117 130.428016 
L 538.721474 130.428016 
L 538.721474 126.81835 
L 550.238977 126.81835 
L 550.238977 123.208684 
L 554.763711 123.208684 
L 554.763711 119.599019 
L 556.409068 119.599019 
L 556.409068 115.989353 
L 568.337911 115.989353 
L 568.337911 112.379687 
L 569.983269 112.379687 
L 569.983269 108.770021 
L 582.32345 108.770021 
L 582.32345 105.160355 
L 584.380147 105.160355 
L 584.380147 101.550689 
L 588.493541 101.550689 
L 588.493541 97.941023 
L 602.067742 97.941023 
L 602.067742 94.331357 
L 622.634711 94.331357 
L 622.634711 90.721691 
L 623.86873 90.721691 
L 623.86873 87.112025 
L 625.925427 87.112025 
L 625.925427 83.502359 
L 651.01713 83.502359 
L 651.01713 79.892693 
L 655.953203 79.892693 
L 655.953203 76.283027 
L 663.357312 76.283027 
L 663.357312 72.673361 
L 664.59133 72.673361 
L 664.59133 69.063695 
L 671.17276 69.063695 
L 671.17276 65.454029 
L 672.406779 65.454029 
L 672.406779 61.844363 
L 675.286154 61.844363 
L 675.286154 58.234697 
L 677.342851 58.234697 
L 677.342851 54.625031 
L 678.988209 54.625031 
L 678.988209 51.015365 
L 681.867585 51.015365 
L 681.867585 47.405699 
L 698.7325 47.405699 
L 698.7325 47.405699 
" clip-path="url(#p5283fea19a)" style="fill: none; stroke: #2ca02c; stroke-width: 2; stroke-linecap: square"/>
   </g>
   <g id="line2d_28">
    <path d="M 43.0575 531.100937 
L 90.361531 473.346282 
L 602.067742 105.160355 
L 698.7325 47.405699 
" clip-path="url(#p5283fea19a)" style="fill: none; stroke: #9467bd; stroke-width: 2; stroke-linecap: square"/>
   </g>
   <g id="line2d_29">
    <path d="M 43.0575 531.100937 
L 698.7325 47.405699 
" clip-path="url(#p5283fea19a)" style="fill: none; stroke: #8c564b; stroke-width: 2; stroke-linecap: square"/>
   </g>
   <g id="line2d_30">
    <path d="M 43.0575 531.100937 
L 698.7325 47.405699 
" clip-path="url(#p5283fea19a)" style="fill: none; stroke: #e377c2; stroke-width: 2; stroke-linecap: square"/>
   </g>
   <g id="line2d_31">
    <path d="M 43.0575 531.100937 
L 698.7325 47.405699 
" clip-path="url(#p5283fea19a)" style="fill: none; stroke: #17becf; stroke-width: 2; stroke-linecap: square"/>
   </g>
   <g id="line2d_32">
    <path d="M 43.0575 531.100937 
L 43.0575 430.030291 
L 43.0575 343.398308 
L 43.468839 343.398308 
L 43.468839 263.985657 
L 43.880179 263.985657 
L 43.880179 235.108329 
L 44.291518 235.108329 
L 44.291518 206.231001 
L 44.702858 206.231001 
L 44.702858 108.770021 
L 45.525536 108.770021 
L 45.525536 94.331357 
L 45.936876 94.331357 
L 45.936876 79.892693 
L 46.348215 79.892693 
L 46.348215 72.673361 
L 47.170894 72.673361 
L 47.170894 69.063695 
L 47.993573 69.063695 
L 47.993573 65.454029 
L 48.404912 65.454029 
L 48.404912 61.844363 
L 49.63893 61.844363 
L 49.63893 58.234697 
L 53.752324 58.234697 
L 53.752324 54.625031 
L 69.794561 54.625031 
L 69.794561 51.015365 
L 84.602779 51.015365 
L 84.602779 47.405699 
L 286.981763 47.405699 
L 287.804442 47.405699 
L 698.7325 47.405699 
" clip-path="url(#p5283fea19a)" style="fill: none; stroke: #e31818; stroke-width: 2.5; stroke-linecap: square"/>
   </g>
   <g id="line2d_33">
    <path d="M 43.0575 531.100937 
L 698.7325 47.405699 
" clip-path="url(#p5283fea19a)" style="fill: none; stroke-dasharray: 3.7,1.6; stroke-dashoffset: 0; stroke: #000000; stroke-opacity: 0.5"/>
   </g>
   <g id="patch_3">
    <path d="M 43.0575 531.100937 
L 43.0575 23.220937 
" style="fill: none; stroke: #000000; stroke-width: 0.8; stroke-linejoin: miter; stroke-linecap: square"/>
   </g>
   <g id="patch_4">
    <path d="M 698.7325 531.100937 
L 698.7325 23.220937 
" style="fill: none; stroke: #000000; stroke-width: 0.8; stroke-linejoin: miter; stroke-linecap: square"/>
   </g>
   <g id="patch_5">
    <path d="M 43.0575 531.100937 
L 698.7325 531.100937 
" style="fill: none; stroke: #000000; stroke-width: 0.8; stroke-linejoin: miter; stroke-linecap: square"/>
   </g>
   <g id="patch_6">
    <path d="M 43.0575 23.220937 
L 698.7325 23.220937 
" style="fill: none; stroke: #000000; stroke-width: 0.8; stroke-linejoin: miter; stroke-linecap: square"/>
   </g>
   <g id="text_15">
    <!-- ROC Curve - car -->
    <g transform="translate(316.824375 17.220937) scale(0.14 -0.14)">
     <defs>
      <path id="Arial-BoldMT-4f" d="M 278 2263 
Q 278 2963 488 3438 
Q 644 3788 914 4066 
Q 1184 4344 1506 4478 
Q 1934 4659 2494 4659 
Q 3506 4659 4114 4031 
Q 4722 3403 4722 2284 
Q 4722 1175 4119 548 
Q 3516 -78 2506 -78 
Q 1484 -78 881 545 
Q 278 1169 278 2263 
z
M 1231 2294 
Q 1231 1516 1590 1114 
Q 1950 713 2503 713 
Q 3056 713 3411 1111 
Q 3766 1509 3766 2306 
Q 3766 3094 3420 3481 
Q 3075 3869 2503 3869 
Q 1931 3869 1581 3476 
Q 1231 3084 1231 2294 
z
" transform="scale(0.015625)"/>
      <path id="Arial-BoldMT-43" d="M 3397 1684 
L 4294 1400 
Q 4088 650 3608 286 
Q 3128 -78 2391 -78 
Q 1478 -78 890 545 
Q 303 1169 303 2250 
Q 303 3394 893 4026 
Q 1484 4659 2447 4659 
Q 3288 4659 3813 4163 
Q 4125 3869 4281 3319 
L 3366 3100 
Q 3284 3456 3026 3662 
Q 2769 3869 2400 3869 
Q 1891 3869 1573 3503 
Q 1256 3138 1256 2319 
Q 1256 1450 1568 1081 
Q 1881 713 2381 713 
Q 2750 713 3015 947 
Q 3281 1181 3397 1684 
z
" transform="scale(0.015625)"/>
      <path id="Arial-BoldMT-2d" d="M 359 1222 
L 359 2100 
L 2084 2100 
L 2084 1222 
L 359 1222 
z
" transform="scale(0.015625)"/>
      <path id="Arial-BoldMT-63" d="M 3353 2338 
L 2488 2181 
Q 2444 2441 2289 2572 
Q 2134 2703 1888 2703 
Q 1559 2703 1364 2476 
Q 1169 2250 1169 1719 
Q 1169 1128 1367 884 
Q 1566 641 1900 641 
Q 2150 641 2309 783 
Q 2469 925 2534 1272 
L 3397 1125 
Q 3263 531 2881 228 
Q 2500 -75 1859 -75 
Q 1131 -75 698 384 
Q 266 844 266 1656 
Q 266 2478 700 2936 
Q 1134 3394 1875 3394 
Q 2481 3394 2839 3133 
Q 3197 2872 3353 2338 
z
" transform="scale(0.015625)"/>
     </defs>
     <use xlink:href="#Arial-BoldMT-52"/>
     <use xlink:href="#Arial-BoldMT-4f" transform="translate(72.216797 0)"/>
     <use xlink:href="#Arial-BoldMT-43" transform="translate(150 0)"/>
     <use xlink:href="#Arial-BoldMT-20" transform="translate(222.216797 0)"/>
     <use xlink:href="#Arial-BoldMT-43" transform="translate(250 0)"/>
     <use xlink:href="#Arial-BoldMT-75" transform="translate(322.216797 0)"/>
     <use xlink:href="#Arial-BoldMT-72" transform="translate(383.300781 0)"/>
     <use xlink:href="#Arial-BoldMT-76" transform="translate(422.216797 0)"/>
     <use xlink:href="#Arial-BoldMT-65" transform="translate(477.832031 0)"/>
     <use xlink:href="#Arial-BoldMT-20" transform="translate(533.447266 0)"/>
     <use xlink:href="#Arial-BoldMT-2d" transform="translate(561.230469 0)"/>
     <use xlink:href="#Arial-BoldMT-20" transform="translate(594.53125 0)"/>
     <use xlink:href="#Arial-BoldMT-63" transform="translate(622.314453 0)"/>
     <use xlink:href="#Arial-BoldMT-61" transform="translate(677.929688 0)"/>
     <use xlink:href="#Arial-BoldMT-72" transform="translate(733.544922 0)"/>
    </g>
   </g>
   <g id="legend_1">
    <g id="patch_7">
     <path d="M 581.06625 527.100937 
L 693.1325 527.100937 
Q 694.7325 527.100937 694.7325 525.500937 
L 694.7325 422.904687 
Q 694.7325 421.304687 693.1325 421.304687 
L 581.06625 421.304687 
Q 579.46625 421.304687 579.46625 422.904687 
L 579.46625 525.500937 
Q 579.46625 527.100937 581.06625 527.100937 
z
" style="fill: #ffffff; opacity: 0.8; stroke: #cccccc; stroke-linejoin: miter"/>
    </g>
    <g id="line2d_34">
     <path d="M 582.66625 427.528437 
L 590.66625 427.528437 
L 598.66625 427.528437 
" style="fill: none; stroke: #1f77b4; stroke-width: 2; stroke-linecap: square"/>
    </g>
    <g id="text_16">
     <!-- ADFNR (AUC=0.5000) -->
     <g transform="translate(605.06625 430.328437) scale(0.08 -0.08)">
      <defs>
       <path id="ArialMT-41" d="M -9 0 
L 1750 4581 
L 2403 4581 
L 4278 0 
L 3588 0 
L 3053 1388 
L 1138 1388 
L 634 0 
L -9 0 
z
M 1313 1881 
L 2866 1881 
L 2388 3150 
Q 2169 3728 2063 4100 
Q 1975 3659 1816 3225 
L 1313 1881 
z
" transform="scale(0.015625)"/>
       <path id="ArialMT-44" d="M 494 0 
L 494 4581 
L 2072 4581 
Q 2606 4581 2888 4516 
Q 3281 4425 3559 4188 
Q 3922 3881 4101 3404 
Q 4281 2928 4281 2316 
Q 4281 1794 4159 1391 
Q 4038 988 3847 723 
Q 3656 459 3429 307 
Q 3203 156 2883 78 
Q 2563 0 2147 0 
L 494 0 
z
M 1100 541 
L 2078 541 
Q 2531 541 2789 625 
Q 3047 709 3200 863 
Q 3416 1078 3536 1442 
Q 3656 1806 3656 2325 
Q 3656 3044 3420 3430 
Q 3184 3816 2847 3947 
Q 2603 4041 2063 4041 
L 1100 4041 
L 1100 541 
z
" transform="scale(0.015625)"/>
       <path id="ArialMT-46" d="M 525 0 
L 525 4581 
L 3616 4581 
L 3616 4041 
L 1131 4041 
L 1131 2622 
L 3281 2622 
L 3281 2081 
L 1131 2081 
L 1131 0 
L 525 0 
z
" transform="scale(0.015625)"/>
       <path id="ArialMT-4e" d="M 488 0 
L 488 4581 
L 1109 4581 
L 3516 984 
L 3516 4581 
L 4097 4581 
L 4097 0 
L 3475 0 
L 1069 3600 
L 1069 0 
L 488 0 
z
" transform="scale(0.015625)"/>
       <path id="ArialMT-52" d="M 503 0 
L 503 4581 
L 2534 4581 
Q 3147 4581 3465 4457 
Q 3784 4334 3975 4021 
Q 4166 3709 4166 3331 
Q 4166 2844 3850 2509 
Q 3534 2175 2875 2084 
Q 3116 1969 3241 1856 
Q 3506 1613 3744 1247 
L 4541 0 
L 3778 0 
L 3172 953 
Q 2906 1366 2734 1584 
Q 2563 1803 2427 1890 
Q 2291 1978 2150 2013 
Q 2047 2034 1813 2034 
L 1109 2034 
L 1109 0 
L 503 0 
z
M 1109 2559 
L 2413 2559 
Q 2828 2559 3062 2645 
Q 3297 2731 3419 2920 
Q 3541 3109 3541 3331 
Q 3541 3656 3305 3865 
Q 3069 4075 2559 4075 
L 1109 4075 
L 1109 2559 
z
" transform="scale(0.015625)"/>
       <path id="ArialMT-20" transform="scale(0.015625)"/>
       <path id="ArialMT-28" d="M 1497 -1347 
Q 1031 -759 709 28 
Q 388 816 388 1659 
Q 388 2403 628 3084 
Q 909 3875 1497 4659 
L 1900 4659 
Q 1522 4009 1400 3731 
Q 1209 3300 1100 2831 
Q 966 2247 966 1656 
Q 966 153 1900 -1347 
L 1497 -1347 
z
" transform="scale(0.015625)"/>
       <path id="ArialMT-55" d="M 3500 4581 
L 4106 4581 
L 4106 1934 
Q 4106 1244 3950 837 
Q 3794 431 3386 176 
Q 2978 -78 2316 -78 
Q 1672 -78 1262 144 
Q 853 366 678 786 
Q 503 1206 503 1934 
L 503 4581 
L 1109 4581 
L 1109 1938 
Q 1109 1341 1220 1058 
Q 1331 775 1601 622 
Q 1872 469 2263 469 
Q 2931 469 3215 772 
Q 3500 1075 3500 1938 
L 3500 4581 
z
" transform="scale(0.015625)"/>
       <path id="ArialMT-43" d="M 3763 1606 
L 4369 1453 
Q 4178 706 3683 314 
Q 3188 -78 2472 -78 
Q 1731 -78 1267 223 
Q 803 525 561 1097 
Q 319 1669 319 2325 
Q 319 3041 592 3573 
Q 866 4106 1370 4382 
Q 1875 4659 2481 4659 
Q 3169 4659 3637 4309 
Q 4106 3959 4291 3325 
L 3694 3184 
Q 3534 3684 3231 3912 
Q 2928 4141 2469 4141 
Q 1941 4141 1586 3887 
Q 1231 3634 1087 3207 
Q 944 2781 944 2328 
Q 944 1744 1114 1308 
Q 1284 872 1643 656 
Q 2003 441 2422 441 
Q 2931 441 3284 734 
Q 3638 1028 3763 1606 
z
" transform="scale(0.015625)"/>
       <path id="ArialMT-3d" d="M 3381 2694 
L 356 2694 
L 356 3219 
L 3381 3219 
L 3381 2694 
z
M 3381 1303 
L 356 1303 
L 356 1828 
L 3381 1828 
L 3381 1303 
z
" transform="scale(0.015625)"/>
       <path id="ArialMT-35" d="M 266 1200 
L 856 1250 
Q 922 819 1161 601 
Q 1400 384 1738 384 
Q 2144 384 2425 690 
Q 2706 997 2706 1503 
Q 2706 1984 2436 2262 
Q 2166 2541 1728 2541 
Q 1456 2541 1237 2417 
Q 1019 2294 894 2097 
L 366 2166 
L 809 4519 
L 3088 4519 
L 3088 3981 
L 1259 3981 
L 1013 2750 
Q 1425 3038 1878 3038 
Q 2478 3038 2890 2622 
Q 3303 2206 3303 1553 
Q 3303 931 2941 478 
Q 2500 -78 1738 -78 
Q 1113 -78 717 272 
Q 322 622 266 1200 
z
" transform="scale(0.015625)"/>
       <path id="ArialMT-29" d="M 791 -1347 
L 388 -1347 
Q 1322 153 1322 1656 
Q 1322 2244 1188 2822 
Q 1081 3291 891 3722 
Q 769 4003 388 4659 
L 791 4659 
Q 1378 3875 1659 3084 
Q 1900 2403 1900 1659 
Q 1900 816 1576 28 
Q 1253 -759 791 -1347 
z
" transform="scale(0.015625)"/>
      </defs>
      <use xlink:href="#ArialMT-41"/>
      <use xlink:href="#ArialMT-44" transform="translate(66.699219 0)"/>
      <use xlink:href="#ArialMT-46" transform="translate(138.916016 0)"/>
      <use xlink:href="#ArialMT-4e" transform="translate(200 0)"/>
      <use xlink:href="#ArialMT-52" transform="translate(272.216797 0)"/>
      <use xlink:href="#ArialMT-20" transform="translate(344.433594 0)"/>
      <use xlink:href="#ArialMT-28" transform="translate(372.216797 0)"/>
      <use xlink:href="#ArialMT-41" transform="translate(405.517578 0)"/>
      <use xlink:href="#ArialMT-55" transform="translate(472.216797 0)"/>
      <use xlink:href="#ArialMT-43" transform="translate(544.433594 0)"/>
      <use xlink:href="#ArialMT-3d" transform="translate(616.650391 0)"/>
      <use xlink:href="#ArialMT-30" transform="translate(675.048828 0)"/>
      <use xlink:href="#ArialMT-2e" transform="translate(730.664062 0)"/>
      <use xlink:href="#ArialMT-35" transform="translate(758.447266 0)"/>
      <use xlink:href="#ArialMT-30" transform="translate(814.0625 0)"/>
      <use xlink:href="#ArialMT-30" transform="translate(869.677734 0)"/>
      <use xlink:href="#ArialMT-30" transform="translate(925.292969 0)"/>
      <use xlink:href="#ArialMT-29" transform="translate(980.908203 0)"/>
     </g>
    </g>
    <g id="line2d_35">
     <path d="M 582.66625 439.040937 
L 590.66625 439.040937 
L 598.66625 439.040937 
" style="fill: none; stroke: #ff7f0e; stroke-width: 2; stroke-linecap: square"/>
    </g>
    <g id="text_17">
     <!-- DASOD (AUC=0.1436) -->
     <g transform="translate(605.06625 441.840937) scale(0.08 -0.08)">
      <defs>
       <path id="ArialMT-53" d="M 288 1472 
L 859 1522 
Q 900 1178 1048 958 
Q 1197 738 1509 602 
Q 1822 466 2213 466 
Q 2559 466 2825 569 
Q 3091 672 3220 851 
Q 3350 1031 3350 1244 
Q 3350 1459 3225 1620 
Q 3100 1781 2813 1891 
Q 2628 1963 1997 2114 
Q 1366 2266 1113 2400 
Q 784 2572 623 2826 
Q 463 3081 463 3397 
Q 463 3744 659 4045 
Q 856 4347 1234 4503 
Q 1613 4659 2075 4659 
Q 2584 4659 2973 4495 
Q 3363 4331 3572 4012 
Q 3781 3694 3797 3291 
L 3216 3247 
Q 3169 3681 2898 3903 
Q 2628 4125 2100 4125 
Q 1550 4125 1298 3923 
Q 1047 3722 1047 3438 
Q 1047 3191 1225 3031 
Q 1400 2872 2139 2705 
Q 2878 2538 3153 2413 
Q 3553 2228 3743 1945 
Q 3934 1663 3934 1294 
Q 3934 928 3725 604 
Q 3516 281 3123 101 
Q 2731 -78 2241 -78 
Q 1619 -78 1198 103 
Q 778 284 539 648 
Q 300 1013 288 1472 
z
" transform="scale(0.015625)"/>
       <path id="ArialMT-4f" d="M 309 2231 
Q 309 3372 921 4017 
Q 1534 4663 2503 4663 
Q 3138 4663 3647 4359 
Q 4156 4056 4423 3514 
Q 4691 2972 4691 2284 
Q 4691 1588 4409 1038 
Q 4128 488 3612 205 
Q 3097 -78 2500 -78 
Q 1853 -78 1343 234 
Q 834 547 571 1087 
Q 309 1628 309 2231 
z
M 934 2222 
Q 934 1394 1379 917 
Q 1825 441 2497 441 
Q 3181 441 3623 922 
Q 4066 1403 4066 2288 
Q 4066 2847 3877 3264 
Q 3688 3681 3323 3911 
Q 2959 4141 2506 4141 
Q 1863 4141 1398 3698 
Q 934 3256 934 2222 
z
" transform="scale(0.015625)"/>
       <path id="ArialMT-33" d="M 269 1209 
L 831 1284 
Q 928 806 1161 595 
Q 1394 384 1728 384 
Q 2125 384 2398 659 
Q 2672 934 2672 1341 
Q 2672 1728 2419 1979 
Q 2166 2231 1775 2231 
Q 1616 2231 1378 2169 
L 1441 2663 
Q 1497 2656 1531 2656 
Q 1891 2656 2178 2843 
Q 2466 3031 2466 3422 
Q 2466 3731 2256 3934 
Q 2047 4138 1716 4138 
Q 1388 4138 1169 3931 
Q 950 3725 888 3313 
L 325 3413 
Q 428 3978 793 4289 
Q 1159 4600 1703 4600 
Q 2078 4600 2393 4439 
Q 2709 4278 2876 4000 
Q 3044 3722 3044 3409 
Q 3044 3113 2884 2869 
Q 2725 2625 2413 2481 
Q 2819 2388 3044 2092 
Q 3269 1797 3269 1353 
Q 3269 753 2831 336 
Q 2394 -81 1725 -81 
Q 1122 -81 723 278 
Q 325 638 269 1209 
z
" transform="scale(0.015625)"/>
      </defs>
      <use xlink:href="#ArialMT-44"/>
      <use xlink:href="#ArialMT-41" transform="translate(72.216797 0)"/>
      <use xlink:href="#ArialMT-53" transform="translate(138.916016 0)"/>
      <use xlink:href="#ArialMT-4f" transform="translate(205.615234 0)"/>
      <use xlink:href="#ArialMT-44" transform="translate(283.398438 0)"/>
      <use xlink:href="#ArialMT-20" transform="translate(355.615234 0)"/>
      <use xlink:href="#ArialMT-28" transform="translate(383.398438 0)"/>
      <use xlink:href="#ArialMT-41" transform="translate(416.699219 0)"/>
      <use xlink:href="#ArialMT-55" transform="translate(483.398438 0)"/>
      <use xlink:href="#ArialMT-43" transform="translate(555.615234 0)"/>
      <use xlink:href="#ArialMT-3d" transform="translate(627.832031 0)"/>
      <use xlink:href="#ArialMT-30" transform="translate(686.230469 0)"/>
      <use xlink:href="#ArialMT-2e" transform="translate(741.845703 0)"/>
      <use xlink:href="#ArialMT-31" transform="translate(769.628906 0)"/>
      <use xlink:href="#ArialMT-34" transform="translate(825.244141 0)"/>
      <use xlink:href="#ArialMT-33" transform="translate(880.859375 0)"/>
      <use xlink:href="#ArialMT-36" transform="translate(936.474609 0)"/>
      <use xlink:href="#ArialMT-29" transform="translate(992.089844 0)"/>
     </g>
    </g>
    <g id="line2d_36">
     <path d="M 582.66625 450.548437 
L 590.66625 450.548437 
L 598.66625 450.548437 
" style="fill: none; stroke: #2ca02c; stroke-width: 2; stroke-linecap: square"/>
    </g>
    <g id="text_18">
     <!-- GCN (AUC=0.5591) -->
     <g transform="translate(605.06625 453.348437) scale(0.08 -0.08)">
      <defs>
       <path id="ArialMT-47" d="M 2638 1797 
L 2638 2334 
L 4578 2338 
L 4578 638 
Q 4131 281 3656 101 
Q 3181 -78 2681 -78 
Q 2006 -78 1454 211 
Q 903 500 622 1047 
Q 341 1594 341 2269 
Q 341 2938 620 3517 
Q 900 4097 1425 4378 
Q 1950 4659 2634 4659 
Q 3131 4659 3532 4498 
Q 3934 4338 4162 4050 
Q 4391 3763 4509 3300 
L 3963 3150 
Q 3859 3500 3706 3700 
Q 3553 3900 3268 4020 
Q 2984 4141 2638 4141 
Q 2222 4141 1919 4014 
Q 1616 3888 1430 3681 
Q 1244 3475 1141 3228 
Q 966 2803 966 2306 
Q 966 1694 1177 1281 
Q 1388 869 1791 669 
Q 2194 469 2647 469 
Q 3041 469 3416 620 
Q 3791 772 3984 944 
L 3984 1797 
L 2638 1797 
z
" transform="scale(0.015625)"/>
       <path id="ArialMT-39" d="M 350 1059 
L 891 1109 
Q 959 728 1153 556 
Q 1347 384 1650 384 
Q 1909 384 2104 503 
Q 2300 622 2425 820 
Q 2550 1019 2634 1356 
Q 2719 1694 2719 2044 
Q 2719 2081 2716 2156 
Q 2547 1888 2255 1720 
Q 1963 1553 1622 1553 
Q 1053 1553 659 1965 
Q 266 2378 266 3053 
Q 266 3750 677 4175 
Q 1088 4600 1706 4600 
Q 2153 4600 2523 4359 
Q 2894 4119 3086 3673 
Q 3278 3228 3278 2384 
Q 3278 1506 3087 986 
Q 2897 466 2520 194 
Q 2144 -78 1638 -78 
Q 1100 -78 759 220 
Q 419 519 350 1059 
z
M 2653 3081 
Q 2653 3566 2395 3850 
Q 2138 4134 1775 4134 
Q 1400 4134 1122 3828 
Q 844 3522 844 3034 
Q 844 2597 1108 2323 
Q 1372 2050 1759 2050 
Q 2150 2050 2401 2323 
Q 2653 2597 2653 3081 
z
" transform="scale(0.015625)"/>
      </defs>
      <use xlink:href="#ArialMT-47"/>
      <use xlink:href="#ArialMT-43" transform="translate(77.783203 0)"/>
      <use xlink:href="#ArialMT-4e" transform="translate(150 0)"/>
      <use xlink:href="#ArialMT-20" transform="translate(222.216797 0)"/>
      <use xlink:href="#ArialMT-28" transform="translate(250 0)"/>
      <use xlink:href="#ArialMT-41" transform="translate(283.300781 0)"/>
      <use xlink:href="#ArialMT-55" transform="translate(350 0)"/>
      <use xlink:href="#ArialMT-43" transform="translate(422.216797 0)"/>
      <use xlink:href="#ArialMT-3d" transform="translate(494.433594 0)"/>
      <use xlink:href="#ArialMT-30" transform="translate(552.832031 0)"/>
      <use xlink:href="#ArialMT-2e" transform="translate(608.447266 0)"/>
      <use xlink:href="#ArialMT-35" transform="translate(636.230469 0)"/>
      <use xlink:href="#ArialMT-35" transform="translate(691.845703 0)"/>
      <use xlink:href="#ArialMT-39" transform="translate(747.460938 0)"/>
      <use xlink:href="#ArialMT-31" transform="translate(803.076172 0)"/>
      <use xlink:href="#ArialMT-29" transform="translate(858.691406 0)"/>
     </g>
    </g>
    <g id="line2d_37">
     <path d="M 582.66625 462.060937 
L 590.66625 462.060937 
L 598.66625 462.060937 
" style="fill: none; stroke: #9467bd; stroke-width: 2; stroke-linecap: square"/>
    </g>
    <g id="text_19">
     <!-- GCOD (AUC=0.5331) -->
     <g transform="translate(605.06625 464.860937) scale(0.08 -0.08)">
      <use xlink:href="#ArialMT-47"/>
      <use xlink:href="#ArialMT-43" transform="translate(77.783203 0)"/>
      <use xlink:href="#ArialMT-4f" transform="translate(150 0)"/>
      <use xlink:href="#ArialMT-44" transform="translate(227.783203 0)"/>
      <use xlink:href="#ArialMT-20" transform="translate(300 0)"/>
      <use xlink:href="#ArialMT-28" transform="translate(327.783203 0)"/>
      <use xlink:href="#ArialMT-41" transform="translate(361.083984 0)"/>
      <use xlink:href="#ArialMT-55" transform="translate(427.783203 0)"/>
      <use xlink:href="#ArialMT-43" transform="translate(500 0)"/>
      <use xlink:href="#ArialMT-3d" transform="translate(572.216797 0)"/>
      <use xlink:href="#ArialMT-30" transform="translate(630.615234 0)"/>
      <use xlink:href="#ArialMT-2e" transform="translate(686.230469 0)"/>
      <use xlink:href="#ArialMT-35" transform="translate(714.013672 0)"/>
      <use xlink:href="#ArialMT-33" transform="translate(769.628906 0)"/>
      <use xlink:href="#ArialMT-33" transform="translate(825.244141 0)"/>
      <use xlink:href="#ArialMT-31" transform="translate(880.859375 0)"/>
      <use xlink:href="#ArialMT-29" transform="translate(936.474609 0)"/>
     </g>
    </g>
    <g id="line2d_38">
     <path d="M 582.66625 473.568437 
L 590.66625 473.568437 
L 598.66625 473.568437 
" style="fill: none; stroke: #8c564b; stroke-width: 2; stroke-linecap: square"/>
    </g>
    <g id="text_20">
     <!-- IE (AUC=0.5000) -->
     <g transform="translate(605.06625 476.368437) scale(0.08 -0.08)">
      <defs>
       <path id="ArialMT-49" d="M 597 0 
L 597 4581 
L 1203 4581 
L 1203 0 
L 597 0 
z
" transform="scale(0.015625)"/>
       <path id="ArialMT-45" d="M 506 0 
L 506 4581 
L 3819 4581 
L 3819 4041 
L 1113 4041 
L 1113 2638 
L 3647 2638 
L 3647 2100 
L 1113 2100 
L 1113 541 
L 3925 541 
L 3925 0 
L 506 0 
z
" transform="scale(0.015625)"/>
      </defs>
      <use xlink:href="#ArialMT-49"/>
      <use xlink:href="#ArialMT-45" transform="translate(27.783203 0)"/>
      <use xlink:href="#ArialMT-20" transform="translate(94.482422 0)"/>
      <use xlink:href="#ArialMT-28" transform="translate(122.265625 0)"/>
      <use xlink:href="#ArialMT-41" transform="translate(155.566406 0)"/>
      <use xlink:href="#ArialMT-55" transform="translate(222.265625 0)"/>
      <use xlink:href="#ArialMT-43" transform="translate(294.482422 0)"/>
      <use xlink:href="#ArialMT-3d" transform="translate(366.699219 0)"/>
      <use xlink:href="#ArialMT-30" transform="translate(425.097656 0)"/>
      <use xlink:href="#ArialMT-2e" transform="translate(480.712891 0)"/>
      <use xlink:href="#ArialMT-35" transform="translate(508.496094 0)"/>
      <use xlink:href="#ArialMT-30" transform="translate(564.111328 0)"/>
      <use xlink:href="#ArialMT-30" transform="translate(619.726562 0)"/>
      <use xlink:href="#ArialMT-30" transform="translate(675.341797 0)"/>
      <use xlink:href="#ArialMT-29" transform="translate(730.957031 0)"/>
     </g>
    </g>
    <g id="line2d_39">
     <path d="M 582.66625 485.075937 
L 590.66625 485.075937 
L 598.66625 485.075937 
" style="fill: none; stroke: #e377c2; stroke-width: 2; stroke-linecap: square"/>
    </g>
    <g id="text_21">
     <!-- KNN (AUC=0.5000) -->
     <g transform="translate(605.06625 487.875937) scale(0.08 -0.08)">
      <defs>
       <path id="ArialMT-4b" d="M 469 0 
L 469 4581 
L 1075 4581 
L 1075 2309 
L 3350 4581 
L 4172 4581 
L 2250 2725 
L 4256 0 
L 3456 0 
L 1825 2319 
L 1075 1588 
L 1075 0 
L 469 0 
z
" transform="scale(0.015625)"/>
      </defs>
      <use xlink:href="#ArialMT-4b"/>
      <use xlink:href="#ArialMT-4e" transform="translate(66.699219 0)"/>
      <use xlink:href="#ArialMT-4e" transform="translate(138.916016 0)"/>
      <use xlink:href="#ArialMT-20" transform="translate(211.132812 0)"/>
      <use xlink:href="#ArialMT-28" transform="translate(238.916016 0)"/>
      <use xlink:href="#ArialMT-41" transform="translate(272.216797 0)"/>
      <use xlink:href="#ArialMT-55" transform="translate(338.916016 0)"/>
      <use xlink:href="#ArialMT-43" transform="translate(411.132812 0)"/>
      <use xlink:href="#ArialMT-3d" transform="translate(483.349609 0)"/>
      <use xlink:href="#ArialMT-30" transform="translate(541.748047 0)"/>
      <use xlink:href="#ArialMT-2e" transform="translate(597.363281 0)"/>
      <use xlink:href="#ArialMT-35" transform="translate(625.146484 0)"/>
      <use xlink:href="#ArialMT-30" transform="translate(680.761719 0)"/>
      <use xlink:href="#ArialMT-30" transform="translate(736.376953 0)"/>
      <use xlink:href="#ArialMT-30" transform="translate(791.992188 0)"/>
      <use xlink:href="#ArialMT-29" transform="translate(847.607422 0)"/>
     </g>
    </g>
    <g id="line2d_40">
     <path d="M 582.66625 496.588437 
L 590.66625 496.588437 
L 598.66625 496.588437 
" style="fill: none; stroke: #17becf; stroke-width: 2; stroke-linecap: square"/>
    </g>
    <g id="text_22">
     <!-- NIEOD (AUC=0.5000) -->
     <g transform="translate(605.06625 499.388437) scale(0.08 -0.08)">
      <use xlink:href="#ArialMT-4e"/>
      <use xlink:href="#ArialMT-49" transform="translate(72.216797 0)"/>
      <use xlink:href="#ArialMT-45" transform="translate(100 0)"/>
      <use xlink:href="#ArialMT-4f" transform="translate(166.699219 0)"/>
      <use xlink:href="#ArialMT-44" transform="translate(244.482422 0)"/>
      <use xlink:href="#ArialMT-20" transform="translate(316.699219 0)"/>
      <use xlink:href="#ArialMT-28" transform="translate(344.482422 0)"/>
      <use xlink:href="#ArialMT-41" transform="translate(377.783203 0)"/>
      <use xlink:href="#ArialMT-55" transform="translate(444.482422 0)"/>
      <use xlink:href="#ArialMT-43" transform="translate(516.699219 0)"/>
      <use xlink:href="#ArialMT-3d" transform="translate(588.916016 0)"/>
      <use xlink:href="#ArialMT-30" transform="translate(647.314453 0)"/>
      <use xlink:href="#ArialMT-2e" transform="translate(702.929688 0)"/>
      <use xlink:href="#ArialMT-35" transform="translate(730.712891 0)"/>
      <use xlink:href="#ArialMT-30" transform="translate(786.328125 0)"/>
      <use xlink:href="#ArialMT-30" transform="translate(841.943359 0)"/>
      <use xlink:href="#ArialMT-30" transform="translate(897.558594 0)"/>
      <use xlink:href="#ArialMT-29" transform="translate(953.173828 0)"/>
     </g>
    </g>
    <g id="line2d_41">
     <path d="M 582.66625 508.100937 
L 590.66625 508.100937 
L 598.66625 508.100937 
" style="fill: none; stroke: #e31818; stroke-width: 2.5; stroke-linecap: square"/>
    </g>
    <g id="text_23">
     <!-- NMIGOD (AUC=0.9977) -->
     <g transform="translate(605.06625 510.900937) scale(0.08 -0.08)">
      <defs>
       <path id="ArialMT-4d" d="M 475 0 
L 475 4581 
L 1388 4581 
L 2472 1338 
Q 2622 884 2691 659 
Q 2769 909 2934 1394 
L 4031 4581 
L 4847 4581 
L 4847 0 
L 4263 0 
L 4263 3834 
L 2931 0 
L 2384 0 
L 1059 3900 
L 1059 0 
L 475 0 
z
" transform="scale(0.015625)"/>
       <path id="ArialMT-37" d="M 303 3981 
L 303 4522 
L 3269 4522 
L 3269 4084 
Q 2831 3619 2401 2847 
Q 1972 2075 1738 1259 
Q 1569 684 1522 0 
L 944 0 
Q 953 541 1156 1306 
Q 1359 2072 1739 2783 
Q 2119 3494 2547 3981 
L 303 3981 
z
" transform="scale(0.015625)"/>
      </defs>
      <use xlink:href="#ArialMT-4e"/>
      <use xlink:href="#ArialMT-4d" transform="translate(72.216797 0)"/>
      <use xlink:href="#ArialMT-49" transform="translate(155.517578 0)"/>
      <use xlink:href="#ArialMT-47" transform="translate(183.300781 0)"/>
      <use xlink:href="#ArialMT-4f" transform="translate(261.083984 0)"/>
      <use xlink:href="#ArialMT-44" transform="translate(338.867188 0)"/>
      <use xlink:href="#ArialMT-20" transform="translate(411.083984 0)"/>
      <use xlink:href="#ArialMT-28" transform="translate(438.867188 0)"/>
      <use xlink:href="#ArialMT-41" transform="translate(472.167969 0)"/>
      <use xlink:href="#ArialMT-55" transform="translate(538.867188 0)"/>
      <use xlink:href="#ArialMT-43" transform="translate(611.083984 0)"/>
      <use xlink:href="#ArialMT-3d" transform="translate(683.300781 0)"/>
      <use xlink:href="#ArialMT-30" transform="translate(741.699219 0)"/>
      <use xlink:href="#ArialMT-2e" transform="translate(797.314453 0)"/>
      <use xlink:href="#ArialMT-39" transform="translate(825.097656 0)"/>
      <use xlink:href="#ArialMT-39" transform="translate(880.712891 0)"/>
      <use xlink:href="#ArialMT-37" transform="translate(936.328125 0)"/>
      <use xlink:href="#ArialMT-37" transform="translate(991.943359 0)"/>
      <use xlink:href="#ArialMT-29" transform="translate(1047.558594 0)"/>
     </g>
    </g>
    <g id="line2d_42">
     <path d="M 582.66625 519.510937 
L 590.66625 519.510937 
L 598.66625 519.510937 
" style="fill: none; stroke-dasharray: 3.7,1.6; stroke-dashoffset: 0; stroke: #000000; stroke-opacity: 0.5"/>
    </g>
    <g id="text_24">
     <!-- Random -->
     <g transform="translate(605.06625 522.310937) scale(0.08 -0.08)">
      <defs>
       <path id="ArialMT-61" d="M 2588 409 
Q 2275 144 1986 34 
Q 1697 -75 1366 -75 
Q 819 -75 525 192 
Q 231 459 231 875 
Q 231 1119 342 1320 
Q 453 1522 633 1644 
Q 813 1766 1038 1828 
Q 1203 1872 1538 1913 
Q 2219 1994 2541 2106 
Q 2544 2222 2544 2253 
Q 2544 2597 2384 2738 
Q 2169 2928 1744 2928 
Q 1347 2928 1158 2789 
Q 969 2650 878 2297 
L 328 2372 
Q 403 2725 575 2942 
Q 747 3159 1072 3276 
Q 1397 3394 1825 3394 
Q 2250 3394 2515 3294 
Q 2781 3194 2906 3042 
Q 3031 2891 3081 2659 
Q 3109 2516 3109 2141 
L 3109 1391 
Q 3109 606 3145 398 
Q 3181 191 3288 0 
L 2700 0 
Q 2613 175 2588 409 
z
M 2541 1666 
Q 2234 1541 1622 1453 
Q 1275 1403 1131 1340 
Q 988 1278 909 1158 
Q 831 1038 831 891 
Q 831 666 1001 516 
Q 1172 366 1500 366 
Q 1825 366 2078 508 
Q 2331 650 2450 897 
Q 2541 1088 2541 1459 
L 2541 1666 
z
" transform="scale(0.015625)"/>
       <path id="ArialMT-6e" d="M 422 0 
L 422 3319 
L 928 3319 
L 928 2847 
Q 1294 3394 1984 3394 
Q 2284 3394 2536 3286 
Q 2788 3178 2913 3003 
Q 3038 2828 3088 2588 
Q 3119 2431 3119 2041 
L 3119 0 
L 2556 0 
L 2556 2019 
Q 2556 2363 2490 2533 
Q 2425 2703 2258 2804 
Q 2091 2906 1866 2906 
Q 1506 2906 1245 2678 
Q 984 2450 984 1813 
L 984 0 
L 422 0 
z
" transform="scale(0.015625)"/>
       <path id="ArialMT-64" d="M 2575 0 
L 2575 419 
Q 2259 -75 1647 -75 
Q 1250 -75 917 144 
Q 584 363 401 755 
Q 219 1147 219 1656 
Q 219 2153 384 2558 
Q 550 2963 881 3178 
Q 1213 3394 1622 3394 
Q 1922 3394 2156 3267 
Q 2391 3141 2538 2938 
L 2538 4581 
L 3097 4581 
L 3097 0 
L 2575 0 
z
M 797 1656 
Q 797 1019 1065 703 
Q 1334 388 1700 388 
Q 2069 388 2326 689 
Q 2584 991 2584 1609 
Q 2584 2291 2321 2609 
Q 2059 2928 1675 2928 
Q 1300 2928 1048 2622 
Q 797 2316 797 1656 
z
" transform="scale(0.015625)"/>
       <path id="ArialMT-6f" d="M 213 1659 
Q 213 2581 725 3025 
Q 1153 3394 1769 3394 
Q 2453 3394 2887 2945 
Q 3322 2497 3322 1706 
Q 3322 1066 3130 698 
Q 2938 331 2570 128 
Q 2203 -75 1769 -75 
Q 1072 -75 642 372 
Q 213 819 213 1659 
z
M 791 1659 
Q 791 1022 1069 705 
Q 1347 388 1769 388 
Q 2188 388 2466 706 
Q 2744 1025 2744 1678 
Q 2744 2294 2464 2611 
Q 2184 2928 1769 2928 
Q 1347 2928 1069 2612 
Q 791 2297 791 1659 
z
" transform="scale(0.015625)"/>
       <path id="ArialMT-6d" d="M 422 0 
L 422 3319 
L 925 3319 
L 925 2853 
Q 1081 3097 1340 3245 
Q 1600 3394 1931 3394 
Q 2300 3394 2536 3241 
Q 2772 3088 2869 2813 
Q 3263 3394 3894 3394 
Q 4388 3394 4653 3120 
Q 4919 2847 4919 2278 
L 4919 0 
L 4359 0 
L 4359 2091 
Q 4359 2428 4304 2576 
Q 4250 2725 4106 2815 
Q 3963 2906 3769 2906 
Q 3419 2906 3187 2673 
Q 2956 2441 2956 1928 
L 2956 0 
L 2394 0 
L 2394 2156 
Q 2394 2531 2256 2718 
Q 2119 2906 1806 2906 
Q 1569 2906 1367 2781 
Q 1166 2656 1075 2415 
Q 984 2175 984 1722 
L 984 0 
L 422 0 
z
" transform="scale(0.015625)"/>
      </defs>
      <use xlink:href="#ArialMT-52"/>
      <use xlink:href="#ArialMT-61" transform="translate(72.216797 0)"/>
      <use xlink:href="#ArialMT-6e" transform="translate(127.832031 0)"/>
      <use xlink:href="#ArialMT-64" transform="translate(183.447266 0)"/>
      <use xlink:href="#ArialMT-6f" transform="translate(239.0625 0)"/>
      <use xlink:href="#ArialMT-6d" transform="translate(294.677734 0)"/>
     </g>
    </g>
   </g>
  </g>
 </g>
 <defs>
  <clipPath id="p5283fea19a">
   <rect x="43.0575" y="23.220937" width="655.675" height="507.88"/>
  </clipPath>
 </defs>
</svg>
