<?xml version="1.0" encoding="utf-8" standalone="no"?>
<!DOCTYPE svg PUBLIC "-//W3C//DTD SVG 1.1//EN"
  "http://www.w3.org/Graphics/SVG/1.1/DTD/svg11.dtd">
<svg xmlns:xlink="http://www.w3.org/1999/xlink" width="712.9075pt" height="425.7075pt" viewBox="0 0 712.9075 425.7075" xmlns="http://www.w3.org/2000/svg" version="1.1">
 <metadata>
  <rdf:RDF xmlns:dc="http://purl.org/dc/elements/1.1/" xmlns:cc="http://creativecommons.org/ns#" xmlns:rdf="http://www.w3.org/1999/02/22-rdf-syntax-ns#">
   <cc:Work>
    <dc:type rdf:resource="http://purl.org/dc/dcmitype/StillImage"/>
    <dc:date>2026-06-21T23:00:15.132939</dc:date>
    <dc:format>image/svg+xml</dc:format>
    <dc:creator>
     <cc:Agent>
      <dc:title>Matplotlib v3.10.0, https://matplotlib.org/</dc:title>
     </cc:Agent>
    </dc:creator>
   </cc:Work>
  </rdf:RDF>
 </metadata>
 <defs>
  <style type="text/css">*{stroke-linejoin: round; stroke-linecap: butt}</style>
 </defs>
 <g id="figure_1">
  <g id="patch_1">
   <path d="M -0 425.7075 
L 712.9075 425.7075 
L 712.9075 0 
L -0 0 
z
" style="fill: #ffffff"/>
  </g>
  <g id="axes_1">
   <g id="patch_2">
    <path d="M 43.0575 387.100937 
L 705.7075 387.100937 
L 705.7075 23.220937 
L 43.0575 23.220937 
z
" style="fill: #ffffff"/>
   </g>
   <g id="matplotlib.axis_1">
    <g id="xtick_1">
     <g id="line2d_1">
      <path d="M 43.0575 387.100937 
L 43.0575 23.220937 
" clip-path="url(#p5a042e36cf)" style="fill: none; stroke-dasharray: 2.96,1.28; stroke-dashoffset: 0; stroke: #b0b0b0; stroke-opacity: 0.5; stroke-width: 0.8"/>
     </g>
     <g id="line2d_2">
      <defs>
       <path id="m87e549b235" d="M 0 0 
L 0 3.5 
" style="stroke: #000000; stroke-width: 0.8"/>
      </defs>
      <g>
       <use xlink:href="#m87e549b235" x="43.0575" y="387.100937" style="stroke: #000000; stroke-width: 0.8"/>
      </g>
     </g>
     <g id="text_1">
      <!-- 0 -->
      <g transform="translate(40.277031 401.25875) scale(0.1 -0.1)">
       <defs>
        <path id="ArialMT-30" d="M 266 2259 
Q 266 3072 433 3567 
Q 600 4063 929 4331 
Q 1259 4600 1759 4600 
Q 2128 4600 2406 4451 
Q 2684 4303 2865 4023 
Q 3047 3744 3150 3342 
Q 3253 2941 3253 2259 
Q 3253 1453 3087 958 
Q 2922 463 2592 192 
Q 2263 -78 1759 -78 
Q 1097 -78 719 397 
Q 266 969 266 2259 
z
M 844 2259 
Q 844 1131 1108 757 
Q 1372 384 1759 384 
Q 2147 384 2411 759 
Q 2675 1134 2675 2259 
Q 2675 3391 2411 3762 
Q 2147 4134 1753 4134 
Q 1366 4134 1134 3806 
Q 844 3388 844 2259 
z
" transform="scale(0.015625)"/>
       </defs>
       <use xlink:href="#ArialMT-30"/>
      </g>
     </g>
    </g>
    <g id="xtick_2">
     <g id="line2d_3">
      <path d="M 119.753102 387.100937 
L 119.753102 23.220937 
" clip-path="url(#p5a042e36cf)" style="fill: none; stroke-dasharray: 2.96,1.28; stroke-dashoffset: 0; stroke: #b0b0b0; stroke-opacity: 0.5; stroke-width: 0.8"/>
     </g>
     <g id="line2d_4">
      <g>
       <use xlink:href="#m87e549b235" x="119.753102" y="387.100937" style="stroke: #000000; stroke-width: 0.8"/>
      </g>
     </g>
     <g id="text_2">
      <!-- 200 -->
      <g transform="translate(111.411696 401.25875) scale(0.1 -0.1)">
       <defs>
        <path id="ArialMT-32" d="M 3222 541 
L 3222 0 
L 194 0 
Q 188 203 259 391 
Q 375 700 629 1000 
Q 884 1300 1366 1694 
Q 2113 2306 2375 2664 
Q 2638 3022 2638 3341 
Q 2638 3675 2398 3904 
Q 2159 4134 1775 4134 
Q 1369 4134 1125 3890 
Q 881 3647 878 3216 
L 300 3275 
Q 359 3922 746 4261 
Q 1134 4600 1788 4600 
Q 2447 4600 2831 4234 
Q 3216 3869 3216 3328 
Q 3216 3053 3103 2787 
Q 2991 2522 2730 2228 
Q 2469 1934 1863 1422 
Q 1356 997 1212 845 
Q 1069 694 975 541 
L 3222 541 
z
" transform="scale(0.015625)"/>
       </defs>
       <use xlink:href="#ArialMT-32"/>
       <use xlink:href="#ArialMT-30" transform="translate(55.615234 0)"/>
       <use xlink:href="#ArialMT-30" transform="translate(111.230469 0)"/>
      </g>
     </g>
    </g>
    <g id="xtick_3">
     <g id="line2d_5">
      <path d="M 196.448704 387.100937 
L 196.448704 23.220937 
" clip-path="url(#p5a042e36cf)" style="fill: none; stroke-dasharray: 2.96,1.28; stroke-dashoffset: 0; stroke: #b0b0b0; stroke-opacity: 0.5; stroke-width: 0.8"/>
     </g>
     <g id="line2d_6">
      <g>
       <use xlink:href="#m87e549b235" x="196.448704" y="387.100937" style="stroke: #000000; stroke-width: 0.8"/>
      </g>
     </g>
     <g id="text_3">
      <!-- 400 -->
      <g transform="translate(188.107297 401.25875) scale(0.1 -0.1)">
       <defs>
        <path id="ArialMT-34" d="M 2069 0 
L 2069 1097 
L 81 1097 
L 81 1613 
L 2172 4581 
L 2631 4581 
L 2631 1613 
L 3250 1613 
L 3250 1097 
L 2631 1097 
L 2631 0 
L 2069 0 
z
M 2069 1613 
L 2069 3678 
L 634 1613 
L 2069 1613 
z
" transform="scale(0.015625)"/>
       </defs>
       <use xlink:href="#ArialMT-34"/>
       <use xlink:href="#ArialMT-30" transform="translate(55.615234 0)"/>
       <use xlink:href="#ArialMT-30" transform="translate(111.230469 0)"/>
      </g>
     </g>
    </g>
    <g id="xtick_4">
     <g id="line2d_7">
      <path d="M 273.144306 387.100937 
L 273.144306 23.220937 
" clip-path="url(#p5a042e36cf)" style="fill: none; stroke-dasharray: 2.96,1.28; stroke-dashoffset: 0; stroke: #b0b0b0; stroke-opacity: 0.5; stroke-width: 0.8"/>
     </g>
     <g id="line2d_8">
      <g>
       <use xlink:href="#m87e549b235" x="273.144306" y="387.100937" style="stroke: #000000; stroke-width: 0.8"/>
      </g>
     </g>
     <g id="text_4">
      <!-- 600 -->
      <g transform="translate(264.802899 401.25875) scale(0.1 -0.1)">
       <defs>
        <path id="ArialMT-36" d="M 3184 3459 
L 2625 3416 
Q 2550 3747 2413 3897 
Q 2184 4138 1850 4138 
Q 1581 4138 1378 3988 
Q 1113 3794 959 3422 
Q 806 3050 800 2363 
Q 1003 2672 1297 2822 
Q 1591 2972 1913 2972 
Q 2475 2972 2870 2558 
Q 3266 2144 3266 1488 
Q 3266 1056 3080 686 
Q 2894 316 2569 119 
Q 2244 -78 1831 -78 
Q 1128 -78 684 439 
Q 241 956 241 2144 
Q 241 3472 731 4075 
Q 1159 4600 1884 4600 
Q 2425 4600 2770 4297 
Q 3116 3994 3184 3459 
z
M 888 1484 
Q 888 1194 1011 928 
Q 1134 663 1356 523 
Q 1578 384 1822 384 
Q 2178 384 2434 671 
Q 2691 959 2691 1453 
Q 2691 1928 2437 2201 
Q 2184 2475 1800 2475 
Q 1419 2475 1153 2201 
Q 888 1928 888 1484 
z
" transform="scale(0.015625)"/>
       </defs>
       <use xlink:href="#ArialMT-36"/>
       <use xlink:href="#ArialMT-30" transform="translate(55.615234 0)"/>
       <use xlink:href="#ArialMT-30" transform="translate(111.230469 0)"/>
      </g>
     </g>
    </g>
    <g id="xtick_5">
     <g id="line2d_9">
      <path d="M 349.839907 387.100937 
L 349.839907 23.220937 
" clip-path="url(#p5a042e36cf)" style="fill: none; stroke-dasharray: 2.96,1.28; stroke-dashoffset: 0; stroke: #b0b0b0; stroke-opacity: 0.5; stroke-width: 0.8"/>
     </g>
     <g id="line2d_10">
      <g>
       <use xlink:href="#m87e549b235" x="349.839907" y="387.100937" style="stroke: #000000; stroke-width: 0.8"/>
      </g>
     </g>
     <g id="text_5">
      <!-- 800 -->
      <g transform="translate(341.498501 401.25875) scale(0.1 -0.1)">
       <defs>
        <path id="ArialMT-38" d="M 1131 2484 
Q 781 2613 612 2850 
Q 444 3088 444 3419 
Q 444 3919 803 4259 
Q 1163 4600 1759 4600 
Q 2359 4600 2725 4251 
Q 3091 3903 3091 3403 
Q 3091 3084 2923 2848 
Q 2756 2613 2416 2484 
Q 2838 2347 3058 2040 
Q 3278 1734 3278 1309 
Q 3278 722 2862 322 
Q 2447 -78 1769 -78 
Q 1091 -78 675 323 
Q 259 725 259 1325 
Q 259 1772 486 2073 
Q 713 2375 1131 2484 
z
M 1019 3438 
Q 1019 3113 1228 2906 
Q 1438 2700 1772 2700 
Q 2097 2700 2305 2904 
Q 2513 3109 2513 3406 
Q 2513 3716 2298 3927 
Q 2084 4138 1766 4138 
Q 1444 4138 1231 3931 
Q 1019 3725 1019 3438 
z
M 838 1322 
Q 838 1081 952 856 
Q 1066 631 1291 507 
Q 1516 384 1775 384 
Q 2178 384 2440 643 
Q 2703 903 2703 1303 
Q 2703 1709 2433 1975 
Q 2163 2241 1756 2241 
Q 1359 2241 1098 1978 
Q 838 1716 838 1322 
z
" transform="scale(0.015625)"/>
       </defs>
       <use xlink:href="#ArialMT-38"/>
       <use xlink:href="#ArialMT-30" transform="translate(55.615234 0)"/>
       <use xlink:href="#ArialMT-30" transform="translate(111.230469 0)"/>
      </g>
     </g>
    </g>
    <g id="xtick_6">
     <g id="line2d_11">
      <path d="M 426.535509 387.100937 
L 426.535509 23.220937 
" clip-path="url(#p5a042e36cf)" style="fill: none; stroke-dasharray: 2.96,1.28; stroke-dashoffset: 0; stroke: #b0b0b0; stroke-opacity: 0.5; stroke-width: 0.8"/>
     </g>
     <g id="line2d_12">
      <g>
       <use xlink:href="#m87e549b235" x="426.535509" y="387.100937" style="stroke: #000000; stroke-width: 0.8"/>
      </g>
     </g>
     <g id="text_6">
      <!-- 1000 -->
      <g transform="translate(415.413634 401.25875) scale(0.1 -0.1)">
       <defs>
        <path id="ArialMT-31" d="M 2384 0 
L 1822 0 
L 1822 3584 
Q 1619 3391 1289 3197 
Q 959 3003 697 2906 
L 697 3450 
Q 1169 3672 1522 3987 
Q 1875 4303 2022 4600 
L 2384 4600 
L 2384 0 
z
" transform="scale(0.015625)"/>
       </defs>
       <use xlink:href="#ArialMT-31"/>
       <use xlink:href="#ArialMT-30" transform="translate(55.615234 0)"/>
       <use xlink:href="#ArialMT-30" transform="translate(111.230469 0)"/>
       <use xlink:href="#ArialMT-30" transform="translate(166.845703 0)"/>
      </g>
     </g>
    </g>
    <g id="xtick_7">
     <g id="line2d_13">
      <path d="M 503.231111 387.100937 
L 503.231111 23.220937 
" clip-path="url(#p5a042e36cf)" style="fill: none; stroke-dasharray: 2.96,1.28; stroke-dashoffset: 0; stroke: #b0b0b0; stroke-opacity: 0.5; stroke-width: 0.8"/>
     </g>
     <g id="line2d_14">
      <g>
       <use xlink:href="#m87e549b235" x="503.231111" y="387.100937" style="stroke: #000000; stroke-width: 0.8"/>
      </g>
     </g>
     <g id="text_7">
      <!-- 1200 -->
      <g transform="translate(492.109236 401.25875) scale(0.1 -0.1)">
       <use xlink:href="#ArialMT-31"/>
       <use xlink:href="#ArialMT-32" transform="translate(55.615234 0)"/>
       <use xlink:href="#ArialMT-30" transform="translate(111.230469 0)"/>
       <use xlink:href="#ArialMT-30" transform="translate(166.845703 0)"/>
      </g>
     </g>
    </g>
    <g id="xtick_8">
     <g id="line2d_15">
      <path d="M 579.926713 387.100937 
L 579.926713 23.220937 
" clip-path="url(#p5a042e36cf)" style="fill: none; stroke-dasharray: 2.96,1.28; stroke-dashoffset: 0; stroke: #b0b0b0; stroke-opacity: 0.5; stroke-width: 0.8"/>
     </g>
     <g id="line2d_16">
      <g>
       <use xlink:href="#m87e549b235" x="579.926713" y="387.100937" style="stroke: #000000; stroke-width: 0.8"/>
      </g>
     </g>
     <g id="text_8">
      <!-- 1400 -->
      <g transform="translate(568.804838 401.25875) scale(0.1 -0.1)">
       <use xlink:href="#ArialMT-31"/>
       <use xlink:href="#ArialMT-34" transform="translate(55.615234 0)"/>
       <use xlink:href="#ArialMT-30" transform="translate(111.230469 0)"/>
       <use xlink:href="#ArialMT-30" transform="translate(166.845703 0)"/>
      </g>
     </g>
    </g>
    <g id="xtick_9">
     <g id="line2d_17">
      <path d="M 656.622315 387.100937 
L 656.622315 23.220937 
" clip-path="url(#p5a042e36cf)" style="fill: none; stroke-dasharray: 2.96,1.28; stroke-dashoffset: 0; stroke: #b0b0b0; stroke-opacity: 0.5; stroke-width: 0.8"/>
     </g>
     <g id="line2d_18">
      <g>
       <use xlink:href="#m87e549b235" x="656.622315" y="387.100937" style="stroke: #000000; stroke-width: 0.8"/>
      </g>
     </g>
     <g id="text_9">
      <!-- 1600 -->
      <g transform="translate(645.50044 401.25875) scale(0.1 -0.1)">
       <use xlink:href="#ArialMT-31"/>
       <use xlink:href="#ArialMT-36" transform="translate(55.615234 0)"/>
       <use xlink:href="#ArialMT-30" transform="translate(111.230469 0)"/>
       <use xlink:href="#ArialMT-30" transform="translate(166.845703 0)"/>
      </g>
     </g>
    </g>
    <g id="text_10">
     <!-- k (Threshold Index) -->
     <g transform="translate(319.048438 415.981875) scale(0.12 -0.12)">
      <defs>
       <path id="Arial-BoldMT-6b" d="M 428 0 
L 428 4581 
L 1306 4581 
L 1306 2150 
L 2334 3319 
L 3416 3319 
L 2281 2106 
L 3497 0 
L 2550 0 
L 1716 1491 
L 1306 1063 
L 1306 0 
L 428 0 
z
" transform="scale(0.015625)"/>
       <path id="Arial-BoldMT-20" transform="scale(0.015625)"/>
       <path id="Arial-BoldMT-28" d="M 1916 -1347 
L 1313 -1347 
Q 834 -625 584 153 
Q 334 931 334 1659 
Q 334 2563 644 3369 
Q 913 4069 1325 4659 
L 1925 4659 
Q 1497 3713 1336 3048 
Q 1175 2384 1175 1641 
Q 1175 1128 1270 590 
Q 1366 53 1531 -431 
Q 1641 -750 1916 -1347 
z
" transform="scale(0.015625)"/>
       <path id="Arial-BoldMT-54" d="M 1497 0 
L 1497 3806 
L 138 3806 
L 138 4581 
L 3778 4581 
L 3778 3806 
L 2422 3806 
L 2422 0 
L 1497 0 
z
" transform="scale(0.015625)"/>
       <path id="Arial-BoldMT-68" d="M 1334 4581 
L 1334 2897 
Q 1759 3394 2350 3394 
Q 2653 3394 2897 3281 
Q 3141 3169 3264 2994 
Q 3388 2819 3433 2606 
Q 3478 2394 3478 1947 
L 3478 0 
L 2600 0 
L 2600 1753 
Q 2600 2275 2550 2415 
Q 2500 2556 2373 2639 
Q 2247 2722 2056 2722 
Q 1838 2722 1666 2615 
Q 1494 2509 1414 2295 
Q 1334 2081 1334 1663 
L 1334 0 
L 456 0 
L 456 4581 
L 1334 4581 
z
" transform="scale(0.015625)"/>
       <path id="Arial-BoldMT-72" d="M 1300 0 
L 422 0 
L 422 3319 
L 1238 3319 
L 1238 2847 
Q 1447 3181 1614 3287 
Q 1781 3394 1994 3394 
Q 2294 3394 2572 3228 
L 2300 2463 
Q 2078 2606 1888 2606 
Q 1703 2606 1575 2504 
Q 1447 2403 1373 2137 
Q 1300 1872 1300 1025 
L 1300 0 
z
" transform="scale(0.015625)"/>
       <path id="Arial-BoldMT-65" d="M 2381 1056 
L 3256 909 
Q 3088 428 2723 176 
Q 2359 -75 1813 -75 
Q 947 -75 531 491 
Q 203 944 203 1634 
Q 203 2459 634 2926 
Q 1066 3394 1725 3394 
Q 2466 3394 2894 2905 
Q 3322 2416 3303 1406 
L 1103 1406 
Q 1113 1016 1316 798 
Q 1519 581 1822 581 
Q 2028 581 2168 693 
Q 2309 806 2381 1056 
z
M 2431 1944 
Q 2422 2325 2234 2523 
Q 2047 2722 1778 2722 
Q 1491 2722 1303 2513 
Q 1116 2303 1119 1944 
L 2431 1944 
z
" transform="scale(0.015625)"/>
       <path id="Arial-BoldMT-73" d="M 150 947 
L 1031 1081 
Q 1088 825 1259 692 
Q 1431 559 1741 559 
Q 2081 559 2253 684 
Q 2369 772 2369 919 
Q 2369 1019 2306 1084 
Q 2241 1147 2013 1200 
Q 950 1434 666 1628 
Q 272 1897 272 2375 
Q 272 2806 612 3100 
Q 953 3394 1669 3394 
Q 2350 3394 2681 3172 
Q 3013 2950 3138 2516 
L 2309 2363 
Q 2256 2556 2107 2659 
Q 1959 2763 1684 2763 
Q 1338 2763 1188 2666 
Q 1088 2597 1088 2488 
Q 1088 2394 1175 2328 
Q 1294 2241 1995 2081 
Q 2697 1922 2975 1691 
Q 3250 1456 3250 1038 
Q 3250 581 2869 253 
Q 2488 -75 1741 -75 
Q 1063 -75 667 200 
Q 272 475 150 947 
z
" transform="scale(0.015625)"/>
       <path id="Arial-BoldMT-6f" d="M 256 1706 
Q 256 2144 472 2553 
Q 688 2963 1083 3178 
Q 1478 3394 1966 3394 
Q 2719 3394 3200 2905 
Q 3681 2416 3681 1669 
Q 3681 916 3195 420 
Q 2709 -75 1972 -75 
Q 1516 -75 1102 131 
Q 688 338 472 736 
Q 256 1134 256 1706 
z
M 1156 1659 
Q 1156 1166 1390 903 
Q 1625 641 1969 641 
Q 2313 641 2545 903 
Q 2778 1166 2778 1666 
Q 2778 2153 2545 2415 
Q 2313 2678 1969 2678 
Q 1625 2678 1390 2415 
Q 1156 2153 1156 1659 
z
" transform="scale(0.015625)"/>
       <path id="Arial-BoldMT-6c" d="M 459 0 
L 459 4581 
L 1338 4581 
L 1338 0 
L 459 0 
z
" transform="scale(0.015625)"/>
       <path id="Arial-BoldMT-64" d="M 3503 0 
L 2688 0 
L 2688 488 
Q 2484 203 2207 64 
Q 1931 -75 1650 -75 
Q 1078 -75 670 386 
Q 263 847 263 1672 
Q 263 2516 659 2955 
Q 1056 3394 1663 3394 
Q 2219 3394 2625 2931 
L 2625 4581 
L 3503 4581 
L 3503 0 
z
M 1159 1731 
Q 1159 1200 1306 963 
Q 1519 619 1900 619 
Q 2203 619 2415 876 
Q 2628 1134 2628 1647 
Q 2628 2219 2422 2470 
Q 2216 2722 1894 2722 
Q 1581 2722 1370 2473 
Q 1159 2225 1159 1731 
z
" transform="scale(0.015625)"/>
       <path id="Arial-BoldMT-49" d="M 438 0 
L 438 4581 
L 1363 4581 
L 1363 0 
L 438 0 
z
" transform="scale(0.015625)"/>
       <path id="Arial-BoldMT-6e" d="M 3478 0 
L 2600 0 
L 2600 1694 
Q 2600 2231 2544 2389 
Q 2488 2547 2361 2634 
Q 2234 2722 2056 2722 
Q 1828 2722 1647 2597 
Q 1466 2472 1398 2265 
Q 1331 2059 1331 1503 
L 1331 0 
L 453 0 
L 453 3319 
L 1269 3319 
L 1269 2831 
Q 1703 3394 2363 3394 
Q 2653 3394 2893 3289 
Q 3134 3184 3257 3021 
Q 3381 2859 3429 2653 
Q 3478 2447 3478 2063 
L 3478 0 
z
" transform="scale(0.015625)"/>
       <path id="Arial-BoldMT-78" d="M 38 0 
L 1234 1709 
L 88 3319 
L 1159 3319 
L 1747 2406 
L 2366 3319 
L 3397 3319 
L 2272 1747 
L 3500 0 
L 2422 0 
L 1747 1028 
L 1066 0 
L 38 0 
z
" transform="scale(0.015625)"/>
       <path id="Arial-BoldMT-29" d="M 216 -1347 
Q 475 -791 581 -494 
Q 688 -197 778 190 
Q 869 578 912 926 
Q 956 1275 956 1641 
Q 956 2384 797 3048 
Q 638 3713 209 4659 
L 806 4659 
Q 1278 3988 1539 3234 
Q 1800 2481 1800 1706 
Q 1800 1053 1594 306 
Q 1359 -531 822 -1347 
L 216 -1347 
z
" transform="scale(0.015625)"/>
      </defs>
      <use xlink:href="#Arial-BoldMT-6b"/>
      <use xlink:href="#Arial-BoldMT-20" transform="translate(55.615234 0)"/>
      <use xlink:href="#Arial-BoldMT-28" transform="translate(83.398438 0)"/>
      <use xlink:href="#Arial-BoldMT-54" transform="translate(116.699219 0)"/>
      <use xlink:href="#Arial-BoldMT-68" transform="translate(177.783203 0)"/>
      <use xlink:href="#Arial-BoldMT-72" transform="translate(238.867188 0)"/>
      <use xlink:href="#Arial-BoldMT-65" transform="translate(277.783203 0)"/>
      <use xlink:href="#Arial-BoldMT-73" transform="translate(333.398438 0)"/>
      <use xlink:href="#Arial-BoldMT-68" transform="translate(389.013672 0)"/>
      <use xlink:href="#Arial-BoldMT-6f" transform="translate(450.097656 0)"/>
      <use xlink:href="#Arial-BoldMT-6c" transform="translate(511.181641 0)"/>
      <use xlink:href="#Arial-BoldMT-64" transform="translate(538.964844 0)"/>
      <use xlink:href="#Arial-BoldMT-20" transform="translate(600.048828 0)"/>
      <use xlink:href="#Arial-BoldMT-49" transform="translate(627.832031 0)"/>
      <use xlink:href="#Arial-BoldMT-6e" transform="translate(655.615234 0)"/>
      <use xlink:href="#Arial-BoldMT-64" transform="translate(716.699219 0)"/>
      <use xlink:href="#Arial-BoldMT-65" transform="translate(777.783203 0)"/>
      <use xlink:href="#Arial-BoldMT-78" transform="translate(833.398438 0)"/>
      <use xlink:href="#Arial-BoldMT-29" transform="translate(889.013672 0)"/>
     </g>
    </g>
   </g>
   <g id="matplotlib.axis_2">
    <g id="ytick_1">
     <g id="line2d_19">
      <path d="M 43.0575 387.100937 
L 705.7075 387.100937 
" clip-path="url(#p5a042e36cf)" style="fill: none; stroke-dasharray: 2.96,1.28; stroke-dashoffset: 0; stroke: #b0b0b0; stroke-opacity: 0.5; stroke-width: 0.8"/>
     </g>
     <g id="line2d_20">
      <defs>
       <path id="mf93f236330" d="M 0 0 
L -3.5 0 
" style="stroke: #000000; stroke-width: 0.8"/>
      </defs>
      <g>
       <use xlink:href="#mf93f236330" x="43.0575" y="387.100937" style="stroke: #000000; stroke-width: 0.8"/>
      </g>
     </g>
     <g id="text_11">
      <!-- 0.0 -->
      <g transform="translate(22.1575 390.679844) scale(0.1 -0.1)">
       <defs>
        <path id="ArialMT-2e" d="M 581 0 
L 581 641 
L 1222 641 
L 1222 0 
L 581 0 
z
" transform="scale(0.015625)"/>
       </defs>
       <use xlink:href="#ArialMT-30"/>
       <use xlink:href="#ArialMT-2e" transform="translate(55.615234 0)"/>
       <use xlink:href="#ArialMT-30" transform="translate(83.398438 0)"/>
      </g>
     </g>
    </g>
    <g id="ytick_2">
     <g id="line2d_21">
      <path d="M 43.0575 317.790461 
L 705.7075 317.790461 
" clip-path="url(#p5a042e36cf)" style="fill: none; stroke-dasharray: 2.96,1.28; stroke-dashoffset: 0; stroke: #b0b0b0; stroke-opacity: 0.5; stroke-width: 0.8"/>
     </g>
     <g id="line2d_22">
      <g>
       <use xlink:href="#mf93f236330" x="43.0575" y="317.790461" style="stroke: #000000; stroke-width: 0.8"/>
      </g>
     </g>
     <g id="text_12">
      <!-- 0.2 -->
      <g transform="translate(22.1575 321.369368) scale(0.1 -0.1)">
       <use xlink:href="#ArialMT-30"/>
       <use xlink:href="#ArialMT-2e" transform="translate(55.615234 0)"/>
       <use xlink:href="#ArialMT-32" transform="translate(83.398438 0)"/>
      </g>
     </g>
    </g>
    <g id="ytick_3">
     <g id="line2d_23">
      <path d="M 43.0575 248.479985 
L 705.7075 248.479985 
" clip-path="url(#p5a042e36cf)" style="fill: none; stroke-dasharray: 2.96,1.28; stroke-dashoffset: 0; stroke: #b0b0b0; stroke-opacity: 0.5; stroke-width: 0.8"/>
     </g>
     <g id="line2d_24">
      <g>
       <use xlink:href="#mf93f236330" x="43.0575" y="248.479985" style="stroke: #000000; stroke-width: 0.8"/>
      </g>
     </g>
     <g id="text_13">
      <!-- 0.4 -->
      <g transform="translate(22.1575 252.058891) scale(0.1 -0.1)">
       <use xlink:href="#ArialMT-30"/>
       <use xlink:href="#ArialMT-2e" transform="translate(55.615234 0)"/>
       <use xlink:href="#ArialMT-34" transform="translate(83.398438 0)"/>
      </g>
     </g>
    </g>
    <g id="ytick_4">
     <g id="line2d_25">
      <path d="M 43.0575 179.169509 
L 705.7075 179.169509 
" clip-path="url(#p5a042e36cf)" style="fill: none; stroke-dasharray: 2.96,1.28; stroke-dashoffset: 0; stroke: #b0b0b0; stroke-opacity: 0.5; stroke-width: 0.8"/>
     </g>
     <g id="line2d_26">
      <g>
       <use xlink:href="#mf93f236330" x="43.0575" y="179.169509" style="stroke: #000000; stroke-width: 0.8"/>
      </g>
     </g>
     <g id="text_14">
      <!-- 0.6 -->
      <g transform="translate(22.1575 182.748415) scale(0.1 -0.1)">
       <use xlink:href="#ArialMT-30"/>
       <use xlink:href="#ArialMT-2e" transform="translate(55.615234 0)"/>
       <use xlink:href="#ArialMT-36" transform="translate(83.398438 0)"/>
      </g>
     </g>
    </g>
    <g id="ytick_5">
     <g id="line2d_27">
      <path d="M 43.0575 109.859033 
L 705.7075 109.859033 
" clip-path="url(#p5a042e36cf)" style="fill: none; stroke-dasharray: 2.96,1.28; stroke-dashoffset: 0; stroke: #b0b0b0; stroke-opacity: 0.5; stroke-width: 0.8"/>
     </g>
     <g id="line2d_28">
      <g>
       <use xlink:href="#mf93f236330" x="43.0575" y="109.859033" style="stroke: #000000; stroke-width: 0.8"/>
      </g>
     </g>
     <g id="text_15">
      <!-- 0.8 -->
      <g transform="translate(22.1575 113.437939) scale(0.1 -0.1)">
       <use xlink:href="#ArialMT-30"/>
       <use xlink:href="#ArialMT-2e" transform="translate(55.615234 0)"/>
       <use xlink:href="#ArialMT-38" transform="translate(83.398438 0)"/>
      </g>
     </g>
    </g>
    <g id="ytick_6">
     <g id="line2d_29">
      <path d="M 43.0575 40.548557 
L 705.7075 40.548557 
" clip-path="url(#p5a042e36cf)" style="fill: none; stroke-dasharray: 2.96,1.28; stroke-dashoffset: 0; stroke: #b0b0b0; stroke-opacity: 0.5; stroke-width: 0.8"/>
     </g>
     <g id="line2d_30">
      <g>
       <use xlink:href="#mf93f236330" x="43.0575" y="40.548557" style="stroke: #000000; stroke-width: 0.8"/>
      </g>
     </g>
     <g id="text_16">
      <!-- 1.0 -->
      <g transform="translate(22.1575 44.127463) scale(0.1 -0.1)">
       <use xlink:href="#ArialMT-31"/>
       <use xlink:href="#ArialMT-2e" transform="translate(55.615234 0)"/>
       <use xlink:href="#ArialMT-30" transform="translate(83.398438 0)"/>
      </g>
     </g>
    </g>
    <g id="text_17">
     <!-- F1-Score -->
     <g transform="translate(15.789375 230.835312) rotate(-90) scale(0.12 -0.12)">
      <defs>
       <path id="Arial-BoldMT-46" d="M 472 0 
L 472 4581 
L 3613 4581 
L 3613 3806 
L 1397 3806 
L 1397 2722 
L 3309 2722 
L 3309 1947 
L 1397 1947 
L 1397 0 
L 472 0 
z
" transform="scale(0.015625)"/>
       <path id="Arial-BoldMT-31" d="M 2519 0 
L 1641 0 
L 1641 3309 
Q 1159 2859 506 2644 
L 506 3441 
Q 850 3553 1253 3867 
Q 1656 4181 1806 4600 
L 2519 4600 
L 2519 0 
z
" transform="scale(0.015625)"/>
       <path id="Arial-BoldMT-2d" d="M 359 1222 
L 359 2100 
L 2084 2100 
L 2084 1222 
L 359 1222 
z
" transform="scale(0.015625)"/>
       <path id="Arial-BoldMT-53" d="M 231 1491 
L 1131 1578 
Q 1213 1125 1461 912 
Q 1709 700 2131 700 
Q 2578 700 2804 889 
Q 3031 1078 3031 1331 
Q 3031 1494 2936 1608 
Q 2841 1722 2603 1806 
Q 2441 1863 1863 2006 
Q 1119 2191 819 2459 
Q 397 2838 397 3381 
Q 397 3731 595 4036 
Q 794 4341 1167 4500 
Q 1541 4659 2069 4659 
Q 2931 4659 3367 4281 
Q 3803 3903 3825 3272 
L 2900 3231 
Q 2841 3584 2645 3739 
Q 2450 3894 2059 3894 
Q 1656 3894 1428 3728 
Q 1281 3622 1281 3444 
Q 1281 3281 1419 3166 
Q 1594 3019 2269 2859 
Q 2944 2700 3267 2529 
Q 3591 2359 3773 2064 
Q 3956 1769 3956 1334 
Q 3956 941 3737 597 
Q 3519 253 3119 86 
Q 2719 -81 2122 -81 
Q 1253 -81 787 320 
Q 322 722 231 1491 
z
" transform="scale(0.015625)"/>
       <path id="Arial-BoldMT-63" d="M 3353 2338 
L 2488 2181 
Q 2444 2441 2289 2572 
Q 2134 2703 1888 2703 
Q 1559 2703 1364 2476 
Q 1169 2250 1169 1719 
Q 1169 1128 1367 884 
Q 1566 641 1900 641 
Q 2150 641 2309 783 
Q 2469 925 2534 1272 
L 3397 1125 
Q 3263 531 2881 228 
Q 2500 -75 1859 -75 
Q 1131 -75 698 384 
Q 266 844 266 1656 
Q 266 2478 700 2936 
Q 1134 3394 1875 3394 
Q 2481 3394 2839 3133 
Q 3197 2872 3353 2338 
z
" transform="scale(0.015625)"/>
      </defs>
      <use xlink:href="#Arial-BoldMT-46"/>
      <use xlink:href="#Arial-BoldMT-31" transform="translate(61.083984 0)"/>
      <use xlink:href="#Arial-BoldMT-2d" transform="translate(116.699219 0)"/>
      <use xlink:href="#Arial-BoldMT-53" transform="translate(150 0)"/>
      <use xlink:href="#Arial-BoldMT-63" transform="translate(216.699219 0)"/>
      <use xlink:href="#Arial-BoldMT-6f" transform="translate(272.314453 0)"/>
      <use xlink:href="#Arial-BoldMT-72" transform="translate(333.398438 0)"/>
      <use xlink:href="#Arial-BoldMT-65" transform="translate(372.314453 0)"/>
     </g>
    </g>
   </g>
   <g id="line2d_31">
    <path d="M 43.440978 381.966828 
L 43.824456 376.90822 
L 44.207934 376.98262 
L 44.97489 367.155477 
L 45.358368 367.297944 
L 45.741846 362.522754 
L 46.508802 362.866505 
L 47.275758 353.640708 
L 47.659236 353.869887 
L 48.426192 344.952675 
L 48.80967 345.235549 
L 49.193148 340.893953 
L 52.64445 343.509443 
L 56.095752 345.844702 
L 59.930532 348.162468 
L 64.148791 350.428728 
L 68.367049 352.445699 
L 72.968785 354.407317 
L 77.953999 356.296281 
L 83.322691 358.100738 
L 89.458339 359.920359 
L 95.977465 361.619145 
L 103.263547 363.282904 
L 111.316586 364.886041 
L 120.13658 366.411243 
L 130.107008 367.90136 
L 141.22787 369.329021 
L 153.499167 370.676654 
L 167.304375 371.967646 
L 183.026973 373.211063 
L 201.05044 374.406711 
L 221.758252 375.549191 
L 245.533889 376.631077 
L 273.144306 377.658093 
L 305.356458 378.627774 
L 343.320781 379.542543 
L 388.571186 380.404273 
L 443.025064 381.212197 
L 462.582442 381.456762 
L 462.96592 380.897396 
L 471.402436 381.006491 
L 471.785914 380.457761 
L 473.319826 380.478917 
L 473.703304 379.93279 
L 474.47026 379.944177 
L 474.853738 379.399773 
L 476.771128 379.430213 
L 477.154606 378.888796 
L 478.688519 378.914661 
L 479.071997 378.375779 
L 479.838953 378.389487 
L 480.222431 377.852287 
L 487.508513 377.988191 
L 487.891991 377.459604 
L 488.658947 377.474482 
L 489.042425 376.947514 
L 492.877205 377.025199 
L 493.260683 376.503005 
L 494.027639 376.519185 
L 494.411117 375.998573 
L 497.095463 376.057538 
L 497.478941 375.540434 
L 501.697199 375.636047 
L 502.080677 375.123921 
L 502.847633 375.141891 
L 503.231111 374.631287 
L 503.614589 374.640627 
L 504.381545 373.62246 
L 504.765023 373.632534 
L 505.148501 373.124964 
L 507.065891 373.176958 
L 507.832847 372.167774 
L 508.216325 372.17886 
L 508.599803 371.675757 
L 509.366759 371.698609 
L 509.750237 371.196979 
L 510.133715 371.208743 
L 510.517193 370.708216 
L 511.284149 370.732412 
L 511.667627 370.233344 
L 517.803275 370.43005 
L 518.570231 369.44543 
L 518.953709 369.458271 
L 519.720666 368.477208 
L 520.104144 368.490723 
L 520.487622 368.001604 
L 521.254578 368.029264 
L 521.638056 367.541541 
L 522.021534 367.555684 
L 522.405012 367.069008 
L 523.171968 367.097914 
L 523.938924 366.128027 
L 524.322402 366.143126 
L 525.089358 365.176703 
L 525.472836 365.192454 
L 525.856314 364.710619 
L 531.991962 364.964873 
L 532.758918 364.013819 
L 533.142396 364.03017 
L 534.676308 362.137419 
L 535.059786 362.155036 
L 535.826742 361.213304 
L 536.21022 361.231534 
L 536.593698 360.761981 
L 537.360654 360.799 
L 538.12761 359.863136 
L 538.511088 359.882237 
L 539.278044 358.949624 
L 539.661522 358.969324 
L 540.045 358.504307 
L 575.324977 360.232882 
L 583.761493 360.615717 
L 584.144971 360.184248 
L 592.581487 360.562146 
L 592.964965 360.137041 
L 595.649311 360.25688 
L 596.032789 359.834126 
L 597.950179 359.920359 
L 598.333657 359.49942 
L 606.770174 359.877995 
L 607.153652 359.463115 
L 608.687564 359.531823 
L 609.071042 359.118447 
L 609.837998 359.153165 
L 610.221476 358.740792 
L 612.138866 358.828432 
L 612.522344 358.417788 
L 613.2893 358.453177 
L 613.672778 358.043525 
L 614.056256 358.061428 
L 614.439734 357.652521 
L 615.20669 357.688743 
L 615.590168 357.280819 
L 622.87625 357.625036 
L 623.259728 357.222104 
L 624.026684 357.258343 
L 624.410162 356.856366 
L 625.944074 356.929509 
L 626.327552 356.528945 
L 628.244942 356.621029 
L 629.011898 355.823647 
L 629.395376 355.842455 
L 629.778854 355.44471 
L 630.54581 355.482713 
L 630.929288 355.085901 
L 632.4632 355.162537 
L 632.846678 354.767103 
L 637.064936 354.978435 
L 637.831892 354.193886 
L 638.982326 354.252371 
L 639.749282 353.471002 
L 640.13276 353.49089 
L 640.899716 352.711806 
L 641.283194 352.732106 
L 641.666672 352.343472 
L 642.433628 352.384435 
L 643.200584 351.609405 
L 643.584063 351.630282 
L 643.967541 351.243666 
L 644.351019 351.264734 
L 645.117975 350.493292 
L 645.501453 350.514762 
L 646.268409 349.745555 
L 646.651887 349.767426 
L 647.035365 349.383709 
L 653.171013 349.73355 
L 653.937969 348.974156 
L 654.321447 348.99622 
L 655.088403 348.238994 
L 655.471881 348.261445 
L 655.855359 347.883693 
L 656.622315 347.928927 
L 657.005793 347.55202 
L 657.389271 347.574802 
L 657.772749 347.198533 
L 658.539705 347.244424 
L 659.306661 346.493996 
L 659.690139 346.517306 
L 660.457095 345.769002 
L 660.840573 345.792688 
L 661.224051 345.41938 
L 662.757963 345.514652 
L 663.141441 345.142568 
L 667.359699 345.40451 
L 668.126655 344.665952 
L 668.510133 344.689995 
L 668.893611 344.321538 
L 669.277089 344.345748 
L 670.044045 343.610475 
L 670.427523 343.635046 
L 670.811001 343.268225 
L 672.728391 343.391628 
L 673.495347 342.66115 
L 673.878825 342.68613 
L 674.262303 342.321697 
L 675.029259 342.371955 
L 675.412737 342.008311 
L 675.796215 342.033588 
L 676.179693 341.670541 
L 676.946649 341.721387 
L 677.330127 341.359124 
L 683.465775 341.764817 
L 684.232731 341.047465 
L 684.616209 341.072951 
L 685.383166 340.357554 
L 685.766644 340.383379 
L 686.150122 340.026456 
L 686.917078 340.078386 
L 687.300556 339.722222 
L 687.684034 339.748326 
L 688.067512 339.392735 
L 688.834468 339.44522 
L 689.601424 338.735935 
L 689.984902 338.762494 
L 690.751858 338.055126 
L 691.135336 338.082015 
L 691.518814 337.729091 
L 697.654462 338.158179 
L 698.421418 337.459142 
L 698.804896 337.486063 
L 699.571852 336.788891 
L 705.7075 337.221218 
L 705.7075 337.221218 
" clip-path="url(#p5a042e36cf)" style="fill: none; stroke: #1f77b4; stroke-width: 2; stroke-linecap: square"/>
    <defs>
     <path id="m63896f602b" d="M 0 1.5 
C 0.397805 1.5 0.77937 1.341951 1.06066 1.06066 
C 1.341951 0.77937 1.5 0.397805 1.5 0 
C 1.5 -0.397805 1.341951 -0.77937 1.06066 -1.06066 
C 0.77937 -1.341951 0.397805 -1.5 0 -1.5 
C -0.397805 -1.5 -0.77937 -1.341951 -1.06066 -1.06066 
C -1.341951 -0.77937 -1.5 -0.397805 -1.5 0 
C -1.5 0.397805 -1.341951 0.77937 -1.06066 1.06066 
C -0.77937 1.341951 -0.397805 1.5 0 1.5 
z
" style="stroke: #1f77b4"/>
    </defs>
    <g clip-path="url(#p5a042e36cf)">
     <use xlink:href="#m63896f602b" x="43.440978" y="381.966828" style="fill: #1f77b4; stroke: #1f77b4"/>
     <use xlink:href="#m63896f602b" x="59.930532" y="348.162468" style="fill: #1f77b4; stroke: #1f77b4"/>
     <use xlink:href="#m63896f602b" x="76.420087" y="355.738731" style="fill: #1f77b4; stroke: #1f77b4"/>
     <use xlink:href="#m63896f602b" x="92.909641" y="360.846969" style="fill: #1f77b4; stroke: #1f77b4"/>
     <use xlink:href="#m63896f602b" x="109.399196" y="364.524235" style="fill: #1f77b4; stroke: #1f77b4"/>
     <use xlink:href="#m63896f602b" x="125.88875" y="367.297944" style="fill: #1f77b4; stroke: #1f77b4"/>
     <use xlink:href="#m63896f602b" x="142.378304" y="369.464684" style="fill: #1f77b4; stroke: #1f77b4"/>
     <use xlink:href="#m63896f602b" x="158.867859" y="371.204039" style="fill: #1f77b4; stroke: #1f77b4"/>
     <use xlink:href="#m63896f602b" x="175.357413" y="372.631109" style="fill: #1f77b4; stroke: #1f77b4"/>
     <use xlink:href="#m63896f602b" x="191.846968" y="373.823068" style="fill: #1f77b4; stroke: #1f77b4"/>
     <use xlink:href="#m63896f602b" x="208.336522" y="374.833597" style="fill: #1f77b4; stroke: #1f77b4"/>
     <use xlink:href="#m63896f602b" x="224.826076" y="375.701188" style="fill: #1f77b4; stroke: #1f77b4"/>
     <use xlink:href="#m63896f602b" x="241.315631" y="376.454167" style="fill: #1f77b4; stroke: #1f77b4"/>
     <use xlink:href="#m63896f602b" x="257.805185" y="377.113837" style="fill: #1f77b4; stroke: #1f77b4"/>
     <use xlink:href="#m63896f602b" x="274.29474" y="377.696531" style="fill: #1f77b4; stroke: #1f77b4"/>
     <use xlink:href="#m63896f602b" x="290.784294" y="378.214979" style="fill: #1f77b4; stroke: #1f77b4"/>
     <use xlink:href="#m63896f602b" x="307.273848" y="378.679251" style="fill: #1f77b4; stroke: #1f77b4"/>
     <use xlink:href="#m63896f602b" x="323.763403" y="379.097418" style="fill: #1f77b4; stroke: #1f77b4"/>
     <use xlink:href="#m63896f602b" x="340.252957" y="379.476023" style="fill: #1f77b4; stroke: #1f77b4"/>
     <use xlink:href="#m63896f602b" x="356.742512" y="379.820425" style="fill: #1f77b4; stroke: #1f77b4"/>
     <use xlink:href="#m63896f602b" x="373.232066" y="380.13506" style="fill: #1f77b4; stroke: #1f77b4"/>
     <use xlink:href="#m63896f602b" x="389.72162" y="380.423628" style="fill: #1f77b4; stroke: #1f77b4"/>
     <use xlink:href="#m63896f602b" x="406.211175" y="380.689238" style="fill: #1f77b4; stroke: #1f77b4"/>
     <use xlink:href="#m63896f602b" x="422.700729" y="380.934525" style="fill: #1f77b4; stroke: #1f77b4"/>
     <use xlink:href="#m63896f602b" x="439.190284" y="381.161736" style="fill: #1f77b4; stroke: #1f77b4"/>
     <use xlink:href="#m63896f602b" x="455.679838" y="381.372799" style="fill: #1f77b4; stroke: #1f77b4"/>
     <use xlink:href="#m63896f602b" x="472.169392" y="380.463063" style="fill: #1f77b4; stroke: #1f77b4"/>
     <use xlink:href="#m63896f602b" x="488.658947" y="377.474482" style="fill: #1f77b4; stroke: #1f77b4"/>
     <use xlink:href="#m63896f602b" x="505.148501" y="373.124964" style="fill: #1f77b4; stroke: #1f77b4"/>
     <use xlink:href="#m63896f602b" x="521.638056" y="367.541541" style="fill: #1f77b4; stroke: #1f77b4"/>
     <use xlink:href="#m63896f602b" x="538.12761" y="359.863136" style="fill: #1f77b4; stroke: #1f77b4"/>
     <use xlink:href="#m63896f602b" x="554.617164" y="359.244547" style="fill: #1f77b4; stroke: #1f77b4"/>
     <use xlink:href="#m63896f602b" x="571.106719" y="360.037284" style="fill: #1f77b4; stroke: #1f77b4"/>
     <use xlink:href="#m63896f602b" x="587.596273" y="360.340136" style="fill: #1f77b4; stroke: #1f77b4"/>
     <use xlink:href="#m63896f602b" x="604.085828" y="359.758671" style="fill: #1f77b4; stroke: #1f77b4"/>
     <use xlink:href="#m63896f602b" x="620.575382" y="357.517198" style="fill: #1f77b4; stroke: #1f77b4"/>
     <use xlink:href="#m63896f602b" x="637.064936" y="354.978435" style="fill: #1f77b4; stroke: #1f77b4"/>
     <use xlink:href="#m63896f602b" x="653.554491" y="349.353633" style="fill: #1f77b4; stroke: #1f77b4"/>
     <use xlink:href="#m63896f602b" x="670.044045" y="343.610475" style="fill: #1f77b4; stroke: #1f77b4"/>
     <use xlink:href="#m63896f602b" x="686.5336" y="340.052435" style="fill: #1f77b4; stroke: #1f77b4"/>
     <use xlink:href="#m63896f602b" x="703.023154" y="337.032992" style="fill: #1f77b4; stroke: #1f77b4"/>
    </g>
   </g>
   <g id="line2d_32">
    <path d="M 43.440978 387.100937 
L 347.155561 387.100937 
L 347.539039 386.354057 
L 361.344248 386.381949 
L 361.727726 385.664451 
L 380.901626 385.735214 
L 381.285104 385.054368 
L 399.308571 385.144856 
L 399.692049 384.495281 
L 400.842483 384.502607 
L 401.609439 383.210733 
L 402.376395 383.217998 
L 402.759873 382.575067 
L 403.910307 382.587697 
L 404.293785 381.947742 
L 406.211175 381.971578 
L 406.594653 381.335741 
L 421.933773 381.541274 
L 422.700729 380.317884 
L 425.001597 380.3539 
L 425.385075 379.747041 
L 425.768553 379.753537 
L 426.152031 379.148279 
L 426.535509 379.155292 
L 426.918987 378.551628 
L 431.520723 378.641071 
L 431.904201 378.044691 
L 433.821591 378.083963 
L 434.205069 377.491166 
L 434.588547 377.499486 
L 435.355503 376.317977 
L 435.738981 376.327288 
L 436.505938 375.150855 
L 442.258108 375.30341 
L 442.641586 374.724067 
L 450.311146 374.931038 
L 450.694624 374.36217 
L 456.446794 374.519828 
L 456.830272 373.958803 
L 464.499832 374.171976 
L 465.266788 373.070477 
L 468.71809 373.171983 
L 469.485046 372.081813 
L 471.018958 372.129875 
L 471.402436 371.587801 
L 479.071997 371.83191 
L 479.455475 371.299021 
L 481.756343 371.373208 
L 482.139821 370.843594 
L 485.974601 370.969717 
L 486.358079 370.444932 
L 492.110249 370.63638 
L 492.493727 370.118279 
L 515.502407 370.864223 
L 515.885885 370.369074 
L 521.638056 370.550679 
L 522.021534 370.061486 
L 528.157182 370.256361 
L 528.54066 369.773318 
L 540.428478 370.14869 
L 540.811956 369.676516 
L 549.63195 369.951954 
L 550.015428 369.487698 
L 553.46673 369.595903 
L 553.850208 369.135057 
L 555.000642 369.171747 
L 555.38412 368.712444 
L 557.30151 368.774778 
L 557.684988 368.317611 
L 586.445839 369.225895 
L 586.829317 368.790825 
L 587.596273 368.81439 
L 588.363229 367.947014 
L 588.746707 367.959316 
L 589.130185 367.526734 
L 589.897141 367.551829 
L 590.664097 366.689402 
L 591.431053 366.715503 
L 592.198009 365.856347 
L 596.799745 366.017903 
L 597.566701 365.167243 
L 599.484091 365.236434 
L 599.867569 364.813206 
L 600.634525 364.841276 
L 601.018003 364.419095 
L 603.318872 364.504419 
L 603.70235 364.084301 
L 604.085828 364.098713 
L 604.469306 363.679375 
L 606.386696 363.75243 
L 606.770174 363.334876 
L 607.920608 363.379244 
L 608.687564 362.547195 
L 609.071042 362.562446 
L 609.45452 362.147445 
L 621.342338 362.618552 
L 621.725816 362.2116 
L 622.109294 362.22674 
L 622.492772 361.820521 
L 623.259728 361.851219 
L 624.026684 361.041207 
L 625.177118 361.088531 
L 625.560596 360.684967 
L 626.71103 360.732822 
L 627.094508 360.330446 
L 627.477986 360.346592 
L 627.861464 359.944934 
L 629.395376 360.010252 
L 629.778854 359.610003 
L 630.162332 359.626515 
L 630.54581 359.226976 
L 630.929288 359.243698 
L 631.696244 358.446517 
L 632.4632 358.480813 
L 633.997112 356.893984 
L 635.147546 356.947989 
L 635.531024 356.55314 
L 635.914502 356.571323 
L 636.29798 356.177168 
L 637.064936 356.213916 
L 637.448414 355.820675 
L 638.21537 355.857781 
L 638.982326 355.073585 
L 642.817106 355.262203 
L 643.200584 354.872994 
L 643.584063 354.891952 
L 643.967541 354.503418 
L 645.117975 354.560808 
L 645.501453 354.17338 
L 645.884931 354.192681 
L 646.268409 353.805923 
L 647.802321 353.88376 
L 648.952755 352.728764 
L 649.719711 352.768825 
L 650.486667 352.001919 
L 650.870145 352.022337 
L 652.020579 350.87595 
L 661.224051 351.373888 
L 661.607529 350.997598 
L 662.374485 351.038883 
L 663.141441 350.288406 
L 663.524919 350.309418 
L 663.908397 349.935023 
L 664.291875 349.956213 
L 664.675353 349.582446 
L 665.825787 349.646471 
L 666.592743 348.901414 
L 668.126655 348.988034 
L 668.510133 348.616934 
L 669.277089 348.660492 
L 669.660567 348.290207 
L 670.044045 348.312146 
L 670.427523 347.942476 
L 670.811001 347.964587 
L 671.194479 347.595531 
L 671.577957 347.617812 
L 671.961435 347.249367 
L 672.344913 347.271819 
L 673.111869 346.536562 
L 673.495347 346.559377 
L 673.878825 346.192562 
L 674.645781 346.238501 
L 675.412737 345.506877 
L 676.563171 345.576744 
L 677.330127 344.847907 
L 678.097083 344.895117 
L 678.480561 344.531689 
L 678.864039 344.555444 
L 679.247517 344.192611 
L 680.781429 344.288122 
L 681.164907 343.926447 
L 682.315341 343.998365 
L 682.698819 343.637653 
L 683.082297 343.661759 
L 683.465775 343.301634 
L 683.849253 343.3259 
L 685.766644 341.532171 
L 691.135336 341.881932 
L 691.518814 341.526926 
L 693.819682 341.676267 
L 694.20316 341.32273 
L 694.970116 341.372652 
L 695.353594 341.019858 
L 695.737072 341.044957 
L 696.12055 340.692725 
L 696.504028 340.717975 
L 697.270984 340.015016 
L 698.03794 340.066141 
L 699.188374 339.015621 
L 699.95533 339.067689 
L 700.338808 338.718625 
L 700.722286 338.744791 
L 701.489242 338.048142 
L 703.023154 338.153917 
L 703.406632 337.806849 
L 704.173588 337.85991 
L 704.940544 337.167584 
L 705.7075 337.221218 
L 705.7075 337.221218 
" clip-path="url(#p5a042e36cf)" style="fill: none; stroke: #ff7f0e; stroke-width: 2; stroke-linecap: square"/>
    <defs>
     <path id="mfffee1d9ce" d="M 0 1.5 
C 0.397805 1.5 0.77937 1.341951 1.06066 1.06066 
C 1.341951 0.77937 1.5 0.397805 1.5 0 
C 1.5 -0.397805 1.341951 -0.77937 1.06066 -1.06066 
C 0.77937 -1.341951 0.397805 -1.5 0 -1.5 
C -0.397805 -1.5 -0.77937 -1.341951 -1.06066 -1.06066 
C -1.341951 -0.77937 -1.5 -0.397805 -1.5 0 
C -1.5 0.397805 -1.341951 0.77937 -1.06066 1.06066 
C -0.77937 1.341951 -0.397805 1.5 0 1.5 
z
" style="stroke: #ff7f0e"/>
    </defs>
    <g clip-path="url(#p5a042e36cf)">
     <use xlink:href="#mfffee1d9ce" x="43.440978" y="387.100937" style="fill: #ff7f0e; stroke: #ff7f0e"/>
     <use xlink:href="#mfffee1d9ce" x="59.930532" y="387.100937" style="fill: #ff7f0e; stroke: #ff7f0e"/>
     <use xlink:href="#mfffee1d9ce" x="76.420087" y="387.100937" style="fill: #ff7f0e; stroke: #ff7f0e"/>
     <use xlink:href="#mfffee1d9ce" x="92.909641" y="387.100937" style="fill: #ff7f0e; stroke: #ff7f0e"/>
     <use xlink:href="#mfffee1d9ce" x="109.399196" y="387.100937" style="fill: #ff7f0e; stroke: #ff7f0e"/>
     <use xlink:href="#mfffee1d9ce" x="125.88875" y="387.100937" style="fill: #ff7f0e; stroke: #ff7f0e"/>
     <use xlink:href="#mfffee1d9ce" x="142.378304" y="387.100937" style="fill: #ff7f0e; stroke: #ff7f0e"/>
     <use xlink:href="#mfffee1d9ce" x="158.867859" y="387.100937" style="fill: #ff7f0e; stroke: #ff7f0e"/>
     <use xlink:href="#mfffee1d9ce" x="175.357413" y="387.100937" style="fill: #ff7f0e; stroke: #ff7f0e"/>
     <use xlink:href="#mfffee1d9ce" x="191.846968" y="387.100937" style="fill: #ff7f0e; stroke: #ff7f0e"/>
     <use xlink:href="#mfffee1d9ce" x="208.336522" y="387.100937" style="fill: #ff7f0e; stroke: #ff7f0e"/>
     <use xlink:href="#mfffee1d9ce" x="224.826076" y="387.100937" style="fill: #ff7f0e; stroke: #ff7f0e"/>
     <use xlink:href="#mfffee1d9ce" x="241.315631" y="387.100937" style="fill: #ff7f0e; stroke: #ff7f0e"/>
     <use xlink:href="#mfffee1d9ce" x="257.805185" y="387.100937" style="fill: #ff7f0e; stroke: #ff7f0e"/>
     <use xlink:href="#mfffee1d9ce" x="274.29474" y="387.100937" style="fill: #ff7f0e; stroke: #ff7f0e"/>
     <use xlink:href="#mfffee1d9ce" x="290.784294" y="387.100937" style="fill: #ff7f0e; stroke: #ff7f0e"/>
     <use xlink:href="#mfffee1d9ce" x="307.273848" y="387.100937" style="fill: #ff7f0e; stroke: #ff7f0e"/>
     <use xlink:href="#mfffee1d9ce" x="323.763403" y="387.100937" style="fill: #ff7f0e; stroke: #ff7f0e"/>
     <use xlink:href="#mfffee1d9ce" x="340.252957" y="387.100937" style="fill: #ff7f0e; stroke: #ff7f0e"/>
     <use xlink:href="#mfffee1d9ce" x="356.742512" y="386.372886" style="fill: #ff7f0e; stroke: #ff7f0e"/>
     <use xlink:href="#mfffee1d9ce" x="373.232066" y="385.707762" style="fill: #ff7f0e; stroke: #ff7f0e"/>
     <use xlink:href="#mfffee1d9ce" x="389.72162" y="385.097745" style="fill: #ff7f0e; stroke: #ff7f0e"/>
     <use xlink:href="#mfffee1d9ce" x="406.211175" y="381.971578" style="fill: #ff7f0e; stroke: #ff7f0e"/>
     <use xlink:href="#mfffee1d9ce" x="422.700729" y="380.317884" style="fill: #ff7f0e; stroke: #ff7f0e"/>
     <use xlink:href="#mfffee1d9ce" x="439.190284" y="375.222535" style="fill: #ff7f0e; stroke: #ff7f0e"/>
     <use xlink:href="#mfffee1d9ce" x="455.679838" y="374.499033" style="fill: #ff7f0e; stroke: #ff7f0e"/>
     <use xlink:href="#mfffee1d9ce" x="472.169392" y="371.612563" style="fill: #ff7f0e; stroke: #ff7f0e"/>
     <use xlink:href="#mfffee1d9ce" x="488.658947" y="370.522043" style="fill: #ff7f0e; stroke: #ff7f0e"/>
     <use xlink:href="#mfffee1d9ce" x="505.148501" y="370.536821" style="fill: #ff7f0e; stroke: #ff7f0e"/>
     <use xlink:href="#mfffee1d9ce" x="521.638056" y="370.550679" style="fill: #ff7f0e; stroke: #ff7f0e"/>
     <use xlink:href="#mfffee1d9ce" x="538.12761" y="370.077312" style="fill: #ff7f0e; stroke: #ff7f0e"/>
     <use xlink:href="#mfffee1d9ce" x="554.617164" y="369.159534" style="fill: #ff7f0e; stroke: #ff7f0e"/>
     <use xlink:href="#mfffee1d9ce" x="571.106719" y="368.752698" style="fill: #ff7f0e; stroke: #ff7f0e"/>
     <use xlink:href="#mfffee1d9ce" x="587.596273" y="368.81439" style="fill: #ff7f0e; stroke: #ff7f0e"/>
     <use xlink:href="#mfffee1d9ce" x="604.085828" y="364.098713" style="fill: #ff7f0e; stroke: #ff7f0e"/>
     <use xlink:href="#mfffee1d9ce" x="620.575382" y="362.588696" style="fill: #ff7f0e; stroke: #ff7f0e"/>
     <use xlink:href="#mfffee1d9ce" x="637.064936" y="356.213916" style="fill: #ff7f0e; stroke: #ff7f0e"/>
     <use xlink:href="#mfffee1d9ce" x="653.554491" y="350.959901" style="fill: #ff7f0e; stroke: #ff7f0e"/>
     <use xlink:href="#mfffee1d9ce" x="670.044045" y="348.312146" style="fill: #ff7f0e; stroke: #ff7f0e"/>
     <use xlink:href="#mfffee1d9ce" x="686.5336" y="341.582468" style="fill: #ff7f0e; stroke: #ff7f0e"/>
     <use xlink:href="#mfffee1d9ce" x="703.023154" y="338.153917" style="fill: #ff7f0e; stroke: #ff7f0e"/>
    </g>
   </g>
   <g id="line2d_33">
    <path d="M 43.440978 381.966828 
L 45.741846 352.691481 
L 48.426192 321.536974 
L 51.110538 293.196421 
L 53.794884 267.305053 
L 56.47923 243.558531 
L 59.163576 221.700937 
L 61.847922 201.515509 
L 62.614878 196.028814 
L 62.998356 197.056083 
L 66.066181 176.311345 
L 67.983571 164.192873 
L 68.367049 165.307414 
L 71.434873 147.180058 
L 74.502697 130.39547 
L 74.886175 128.384413 
L 75.269653 129.571187 
L 76.036609 125.611414 
L 76.803565 127.967175 
L 77.953999 122.180895 
L 78.337477 123.353108 
L 79.487911 117.728344 
L 79.871389 118.89953 
L 82.939213 104.617064 
L 84.089647 108.133461 
L 85.240081 103.041609 
L 85.623559 104.201035 
L 86.390515 100.879538 
L 87.157471 103.178505 
L 87.540949 101.541776 
L 89.458339 107.140975 
L 92.909641 93.056493 
L 95.977465 101.704859 
L 96.360943 100.211421 
L 96.744421 101.258463 
L 97.127899 99.777509 
L 99.045289 104.908284 
L 99.428767 103.445964 
L 100.962679 107.427086 
L 101.346157 105.981524 
L 102.880069 109.859033 
L 103.647025 107.010657 
L 104.797459 109.859033 
L 105.180937 108.454091 
L 105.947894 110.324204 
L 106.331372 108.931802 
L 107.865284 112.604002 
L 108.63224 109.859033 
L 109.399196 111.665169 
L 109.782674 110.309101 
L 110.933108 112.979118 
L 112.083542 108.976097 
L 115.534844 116.725705 
L 116.3018 114.124293 
L 117.835712 117.443158 
L 118.21919 116.159985 
L 118.602668 116.978538 
L 118.986146 115.704495 
L 122.820926 123.640063 
L 127.039184 131.849892 
L 131.257442 139.563523 
L 135.4757 146.82462 
L 135.859178 145.620289 
L 136.626134 146.897964 
L 137.009612 145.702973 
L 141.611348 153.111606 
L 146.213084 160.07903 
L 150.814821 166.643519 
L 155.416557 172.839044 
L 156.566991 174.333894 
L 156.950469 173.219422 
L 161.935683 179.481718 
L 163.086117 180.875136 
L 163.469595 179.788352 
L 168.454809 185.634477 
L 173.823501 191.572436 
L 179.192193 197.170389 
L 184.560885 202.456727 
L 190.313056 207.803567 
L 196.065226 212.849459 
L 202.200874 217.927826 
L 208.336522 222.718569 
L 214.855648 227.520116 
L 221.374774 232.049121 
L 228.277378 236.572513 
L 235.563461 241.069431 
L 242.849543 245.305459 
L 250.519103 249.506807 
L 258.572141 253.658354 
L 267.008657 257.747124 
L 275.445174 261.592778 
L 284.265168 265.376117 
L 293.46864 269.088183 
L 303.05559 272.72158 
L 313.409497 276.402442 
L 324.146881 279.977479 
L 335.267743 283.444645 
L 347.155561 286.911037 
L 359.426858 290.254182 
L 372.46511 293.570184 
L 385.88684 296.754597 
L 400.075527 299.89339 
L 415.031169 302.974091 
L 430.753767 305.986494 
L 447.6268 308.988206 
L 465.266788 311.897668 
L 484.057211 314.767574 
L 503.998067 317.582945 
L 525.089358 320.331679 
L 547.331082 323.004293 
L 571.106719 325.634334 
L 596.416267 328.206811 
L 623.259728 330.7099 
L 652.020579 333.165956 
L 682.698819 335.560406 
L 705.7075 337.221218 
L 705.7075 337.221218 
" clip-path="url(#p5a042e36cf)" style="fill: none; stroke: #2ca02c; stroke-width: 2; stroke-linecap: square"/>
    <defs>
     <path id="mc39bd870a0" d="M 0 1.5 
C 0.397805 1.5 0.77937 1.341951 1.06066 1.06066 
C 1.341951 0.77937 1.5 0.397805 1.5 0 
C 1.5 -0.397805 1.341951 -0.77937 1.06066 -1.06066 
C 0.77937 -1.341951 0.397805 -1.5 0 -1.5 
C -0.397805 -1.5 -0.77937 -1.341951 -1.06066 -1.06066 
C -1.341951 -0.77937 -1.5 -0.397805 -1.5 0 
C -1.5 0.397805 -1.341951 0.77937 -1.06066 1.06066 
C -0.77937 1.341951 -0.397805 1.5 0 1.5 
z
" style="stroke: #2ca02c"/>
    </defs>
    <g clip-path="url(#p5a042e36cf)">
     <use xlink:href="#mc39bd870a0" x="43.440978" y="381.966828" style="fill: #2ca02c; stroke: #2ca02c"/>
     <use xlink:href="#mc39bd870a0" x="59.930532" y="215.771671" style="fill: #2ca02c; stroke: #2ca02c"/>
     <use xlink:href="#mc39bd870a0" x="76.420087" y="126.794624" style="fill: #2ca02c; stroke: #2ca02c"/>
     <use xlink:href="#mc39bd870a0" x="92.909641" y="93.056493" style="fill: #2ca02c; stroke: #2ca02c"/>
     <use xlink:href="#mc39bd870a0" x="109.399196" y="111.665169" style="fill: #2ca02c; stroke: #2ca02c"/>
     <use xlink:href="#mc39bd870a0" x="125.88875" y="129.662026" style="fill: #2ca02c; stroke: #2ca02c"/>
     <use xlink:href="#mc39bd870a0" x="142.378304" y="154.302392" style="fill: #2ca02c; stroke: #2ca02c"/>
     <use xlink:href="#mc39bd870a0" x="158.867859" y="175.672191" style="fill: #2ca02c; stroke: #2ca02c"/>
     <use xlink:href="#mc39bd870a0" x="175.357413" y="193.205242" style="fill: #2ca02c; stroke: #2ca02c"/>
     <use xlink:href="#mc39bd870a0" x="191.846968" y="209.177493" style="fill: #2ca02c; stroke: #2ca02c"/>
     <use xlink:href="#mc39bd870a0" x="208.336522" y="222.718569" style="fill: #2ca02c; stroke: #2ca02c"/>
     <use xlink:href="#mc39bd870a0" x="224.826076" y="234.344296" style="fill: #2ca02c; stroke: #2ca02c"/>
     <use xlink:href="#mc39bd870a0" x="241.315631" y="244.434212" style="fill: #2ca02c; stroke: #2ca02c"/>
     <use xlink:href="#mc39bd870a0" x="257.805185" y="253.273793" style="fill: #2ca02c; stroke: #2ca02c"/>
     <use xlink:href="#mc39bd870a0" x="274.29474" y="261.08189" style="fill: #2ca02c; stroke: #2ca02c"/>
     <use xlink:href="#mc39bd870a0" x="290.784294" y="268.029094" style="fill: #2ca02c; stroke: #2ca02c"/>
     <use xlink:href="#mc39bd870a0" x="307.273848" y="274.250344" style="fill: #2ca02c; stroke: #2ca02c"/>
     <use xlink:href="#mc39bd870a0" x="323.763403" y="279.85378" style="fill: #2ca02c; stroke: #2ca02c"/>
     <use xlink:href="#mc39bd870a0" x="340.252957" y="284.927078" style="fill: #2ca02c; stroke: #2ca02c"/>
     <use xlink:href="#mc39bd870a0" x="356.742512" y="289.542074" style="fill: #2ca02c; stroke: #2ca02c"/>
     <use xlink:href="#mc39bd870a0" x="373.232066" y="293.758186" style="fill: #2ca02c; stroke: #2ca02c"/>
     <use xlink:href="#mc39bd870a0" x="389.72162" y="297.624986" style="fill: #2ca02c; stroke: #2ca02c"/>
     <use xlink:href="#mc39bd870a0" x="406.211175" y="301.184159" style="fill: #2ca02c; stroke: #2ca02c"/>
     <use xlink:href="#mc39bd870a0" x="422.700729" y="304.47101" style="fill: #2ca02c; stroke: #2ca02c"/>
     <use xlink:href="#mc39bd870a0" x="439.190284" y="307.515644" style="fill: #2ca02c; stroke: #2ca02c"/>
     <use xlink:href="#mc39bd870a0" x="455.679838" y="310.343881" style="fill: #2ca02c; stroke: #2ca02c"/>
     <use xlink:href="#mc39bd870a0" x="472.169392" y="312.978002" style="fill: #2ca02c; stroke: #2ca02c"/>
     <use xlink:href="#mc39bd870a0" x="488.658947" y="315.437328" style="fill: #2ca02c; stroke: #2ca02c"/>
     <use xlink:href="#mc39bd870a0" x="505.148501" y="317.738698" style="fill: #2ca02c; stroke: #2ca02c"/>
     <use xlink:href="#mc39bd870a0" x="521.638056" y="319.896858" style="fill: #2ca02c; stroke: #2ca02c"/>
     <use xlink:href="#mc39bd870a0" x="538.12761" y="321.92477" style="fill: #2ca02c; stroke: #2ca02c"/>
     <use xlink:href="#mc39bd870a0" x="554.617164" y="323.833882" style="fill: #2ca02c; stroke: #2ca02c"/>
     <use xlink:href="#mc39bd870a0" x="571.106719" y="325.634334" style="fill: #2ca02c; stroke: #2ca02c"/>
     <use xlink:href="#mc39bd870a0" x="587.596273" y="327.335147" style="fill: #2ca02c; stroke: #2ca02c"/>
     <use xlink:href="#mc39bd870a0" x="604.085828" y="328.94437" style="fill: #2ca02c; stroke: #2ca02c"/>
     <use xlink:href="#mc39bd870a0" x="620.575382" y="330.469207" style="fill: #2ca02c; stroke: #2ca02c"/>
     <use xlink:href="#mc39bd870a0" x="637.064936" y="331.916126" style="fill: #2ca02c; stroke: #2ca02c"/>
     <use xlink:href="#mc39bd870a0" x="653.554491" y="333.29095" style="fill: #2ca02c; stroke: #2ca02c"/>
     <use xlink:href="#mc39bd870a0" x="670.044045" y="334.598937" style="fill: #2ca02c; stroke: #2ca02c"/>
     <use xlink:href="#mc39bd870a0" x="686.5336" y="335.844846" style="fill: #2ca02c; stroke: #2ca02c"/>
     <use xlink:href="#mc39bd870a0" x="703.023154" y="337.032992" style="fill: #2ca02c; stroke: #2ca02c"/>
    </g>
   </g>
   <g id="line2d_34">
    <path d="M 43.440978 387.100937 
L 43.824456 387.100937 
L 44.207934 382.041779 
L 44.591412 382.078439 
L 44.97489 377.128207 
L 45.358368 377.199441 
L 45.741846 372.354028 
L 47.275758 372.760839 
L 47.659236 368.111766 
L 48.042714 368.240944 
L 48.80967 359.190679 
L 50.72706 360.096856 
L 51.110538 355.799432 
L 51.494016 356.000083 
L 51.877494 351.783497 
L 52.260972 352.007026 
L 52.64445 347.868592 
L 56.47923 350.190033 
L 56.862708 350.407156 
L 57.246186 346.568495 
L 58.780098 347.494951 
L 59.163576 343.78189 
L 60.697488 344.744535 
L 61.080966 341.149241 
L 62.614878 342.142791 
L 62.998356 338.658132 
L 66.833137 341.129703 
L 71.051395 343.572619 
L 71.818351 343.989158 
L 72.585307 337.828087 
L 73.735741 338.518828 
L 74.119219 335.521048 
L 74.886175 335.996439 
L 75.269653 333.051484 
L 79.487911 335.647746 
L 79.871389 335.871455 
L 80.254867 333.092774 
L 82.555735 334.46007 
L 82.939213 331.769045 
L 87.540949 334.424976 
L 92.526163 337.02873 
L 97.511377 339.387204 
L 102.880069 341.690626 
L 103.263547 341.846675 
L 103.647025 339.628009 
L 105.180937 340.269535 
L 105.564416 338.09353 
L 106.71485 338.583604 
L 107.098328 336.442118 
L 109.399196 337.432192 
L 109.782674 335.343114 
L 114.38441 337.284033 
L 114.767888 335.280021 
L 118.602668 336.845607 
L 118.986146 334.909314 
L 120.13658 335.376702 
L 120.520058 333.467831 
L 124.354838 335.017921 
L 124.738316 333.170596 
L 126.272228 333.785187 
L 126.655706 331.967604 
L 133.174832 334.507622 
L 136.626134 335.759844 
L 137.39309 332.382141 
L 141.22787 333.785187 
L 141.611348 332.148898 
L 144.679172 333.250693 
L 145.06265 331.652557 
L 151.965255 334.040286 
L 152.348733 332.512734 
L 156.950469 334.032591 
L 157.333947 332.551026 
L 160.018293 333.420842 
L 160.401771 331.967604 
L 168.454809 334.479101 
L 170.755677 335.155184 
L 171.139155 333.785187 
L 173.440023 334.46007 
L 173.823501 333.111724 
L 175.357413 333.562574 
L 175.740891 332.230144 
L 176.507847 332.457823 
L 176.891325 331.135957 
L 185.711319 333.679819 
L 193.764358 335.808555 
L 194.147836 334.593001 
L 195.29827 334.889656 
L 195.681748 333.684969 
L 198.366094 334.378683 
L 198.749572 333.192789 
L 200.283484 333.589173 
L 200.666962 332.415608 
L 210.63739 334.905658 
L 211.787824 331.555957 
L 213.705214 332.03562 
L 214.088692 330.935552 
L 224.442598 333.433847 
L 227.8939 334.217944 
L 228.277378 333.180308 
L 234.796505 334.626129 
L 235.179983 333.617263 
L 236.713895 333.952059 
L 237.097373 332.952128 
L 240.548675 333.703036 
L 240.932153 332.718872 
L 243.616499 333.298285 
L 243.999977 332.326701 
L 252.053015 334.02075 
L 252.436493 333.079537 
L 255.504317 333.707693 
L 255.887795 332.779229 
L 257.421707 333.092774 
L 257.805185 332.171886 
L 265.858223 333.785187 
L 266.241701 332.891627 
L 268.542569 333.342119 
L 268.926047 332.457823 
L 281.9643 334.912072 
L 295.769508 337.281301 
L 302.672112 338.387039 
L 303.05559 337.593455 
L 305.739936 338.016595 
L 306.123414 337.231205 
L 306.89037 337.352542 
L 307.273848 336.570821 
L 309.574716 336.93654 
L 309.958194 336.161913 
L 315.326887 337.006873 
L 315.710365 336.245914 
L 330.282529 338.434465 
L 330.666007 337.705462 
L 331.816441 337.872527 
L 332.199919 337.147441 
L 348.689473 339.454638 
L 357.12599 340.554553 
L 357.509468 339.876819 
L 361.727726 340.415125 
L 362.111204 339.745954 
L 379.751192 341.898453 
L 380.13467 341.258865 
L 387.80423 342.146418 
L 388.187708 341.51958 
L 408.512043 343.742038 
L 408.895521 343.78189 
L 409.278999 343.185209 
L 410.812911 343.345925 
L 411.196389 342.75237 
L 415.798125 343.233548 
L 416.181603 342.647064 
L 416.948559 342.727233 
L 417.332037 342.142791 
L 424.234641 342.860208 
L 424.618119 342.285483 
L 429.219855 342.756812 
L 429.603333 342.18872 
L 431.904201 342.423453 
L 432.287679 341.859112 
L 439.573762 342.595067 
L 439.95724 342.040234 
L 441.107674 342.155578 
L 441.491152 341.603012 
L 449.160712 342.36576 
L 449.54419 341.822737 
L 449.927668 341.860627 
L 450.311146 341.318934 
L 458.747662 342.145867 
L 459.13114 341.614161 
L 462.582442 341.947533 
L 462.96592 341.420314 
L 473.703304 342.437862 
L 474.086782 341.922408 
L 476.771128 342.172407 
L 477.154606 341.66042 
L 478.688519 341.80354 
L 479.071997 341.293856 
L 485.974601 341.933521 
L 486.358079 341.431244 
L 486.741557 341.466619 
L 487.125035 340.965481 
L 511.284149 343.110525 
L 511.667627 342.631827 
L 513.585017 342.795196 
L 513.968495 342.318838 
L 529.691094 343.62751 
L 530.074572 343.164809 
L 532.37544 343.351772 
L 532.758918 342.891562 
L 537.744132 343.295159 
L 538.511088 342.384501 
L 543.87978 342.819244 
L 544.263258 342.368985 
L 545.030214 342.430984 
L 545.413692 341.981929 
L 546.947604 342.106568 
L 547.331082 341.659286 
L 563.437159 342.939333 
L 563.820637 342.504384 
L 574.941499 343.35468 
L 575.324977 342.928032 
L 577.242367 343.072672 
L 577.625845 342.647883 
L 578.776279 342.734989 
L 579.543235 341.888624 
L 581.844103 342.064891 
L 582.227581 341.644067 
L 586.829317 341.995537 
L 587.212795 341.578281 
L 587.979751 341.636831 
L 588.363229 341.220609 
L 605.236262 342.482318 
L 605.61974 342.077268 
L 616.740602 342.878302 
L 617.12408 342.480459 
L 621.342338 342.779378 
L 621.725816 342.384501 
L 626.71103 342.735536 
L 627.094508 342.344022 
L 627.861464 342.397978 
L 629.011898 341.227578 
L 631.312766 341.39259 
L 632.079722 340.617265 
L 634.764068 340.811293 
L 635.147546 340.425825 
L 637.064936 340.564492 
L 638.21537 339.414014 
L 640.899716 339.611184 
L 641.666672 338.849397 
L 642.05015 338.877847 
L 642.433628 338.497834 
L 643.584063 338.583604 
L 643.967541 338.204658 
L 648.569277 338.547189 
L 648.952755 338.171138 
L 660.073617 338.985231 
L 660.457095 338.615398 
L 663.141441 338.809229 
L 664.291875 337.706356 
L 667.743177 337.958513 
L 668.126655 337.593455 
L 669.277089 337.677508 
L 669.660567 337.313435 
L 673.878825 337.621283 
L 674.262303 337.259696 
L 679.630995 337.648647 
L 680.014473 337.290066 
L 682.315341 337.45601 
L 682.698819 337.098929 
L 689.601424 337.593455 
L 689.984902 337.240024 
L 691.902292 337.376554 
L 692.669248 336.672637 
L 703.406632 337.433409 
L 703.79011 337.086916 
L 705.7075 337.221218 
L 705.7075 337.221218 
" clip-path="url(#p5a042e36cf)" style="fill: none; stroke: #bcbd22; stroke-width: 2; stroke-linecap: square"/>
    <defs>
     <path id="m2dac10bdd1" d="M 0 1.5 
C 0.397805 1.5 0.77937 1.341951 1.06066 1.06066 
C 1.341951 0.77937 1.5 0.397805 1.5 0 
C 1.5 -0.397805 1.341951 -0.77937 1.06066 -1.06066 
C 0.77937 -1.341951 0.397805 -1.5 0 -1.5 
C -0.397805 -1.5 -0.77937 -1.341951 -1.06066 -1.06066 
C -1.341951 -0.77937 -1.5 -0.397805 -1.5 0 
C -1.5 0.397805 -1.341951 0.77937 -1.06066 1.06066 
C -0.77937 1.341951 -0.397805 1.5 0 1.5 
z
" style="stroke: #bcbd22"/>
    </defs>
    <g clip-path="url(#p5a042e36cf)">
     <use xlink:href="#m2dac10bdd1" x="43.440978" y="387.100937" style="fill: #bcbd22; stroke: #bcbd22"/>
     <use xlink:href="#m2dac10bdd1" x="59.930532" y="344.268621" style="fill: #bcbd22; stroke: #bcbd22"/>
     <use xlink:href="#m2dac10bdd1" x="76.420087" y="333.785187" style="fill: #bcbd22; stroke: #bcbd22"/>
     <use xlink:href="#m2dac10bdd1" x="92.909641" y="337.218398" style="fill: #bcbd22; stroke: #bcbd22"/>
     <use xlink:href="#m2dac10bdd1" x="109.399196" y="337.432192" style="fill: #bcbd22; stroke: #bcbd22"/>
     <use xlink:href="#m2dac10bdd1" x="125.88875" y="333.632856" style="fill: #bcbd22; stroke: #bcbd22"/>
     <use xlink:href="#m2dac10bdd1" x="142.378304" y="332.428552" style="fill: #bcbd22; stroke: #bcbd22"/>
     <use xlink:href="#m2dac10bdd1" x="158.867859" y="333.051484" style="fill: #bcbd22; stroke: #bcbd22"/>
     <use xlink:href="#m2dac10bdd1" x="175.357413" y="333.562574" style="fill: #bcbd22; stroke: #bcbd22"/>
     <use xlink:href="#m2dac10bdd1" x="191.846968" y="335.317248" style="fill: #bcbd22; stroke: #bcbd22"/>
     <use xlink:href="#m2dac10bdd1" x="208.336522" y="334.351372" style="fill: #bcbd22; stroke: #bcbd22"/>
     <use xlink:href="#m2dac10bdd1" x="224.826076" y="333.522115" style="fill: #bcbd22; stroke: #bcbd22"/>
     <use xlink:href="#m2dac10bdd1" x="241.315631" y="332.802408" style="fill: #bcbd22; stroke: #bcbd22"/>
     <use xlink:href="#m2dac10bdd1" x="257.805185" y="332.171886" style="fill: #bcbd22; stroke: #bcbd22"/>
     <use xlink:href="#m2dac10bdd1" x="274.29474" y="333.49582" style="fill: #bcbd22; stroke: #bcbd22"/>
     <use xlink:href="#m2dac10bdd1" x="290.784294" y="336.450974" style="fill: #bcbd22; stroke: #bcbd22"/>
     <use xlink:href="#m2dac10bdd1" x="307.273848" y="336.570821" style="fill: #bcbd22; stroke: #bcbd22"/>
     <use xlink:href="#m2dac10bdd1" x="323.763403" y="337.479119" style="fill: #bcbd22; stroke: #bcbd22"/>
     <use xlink:href="#m2dac10bdd1" x="340.252957" y="338.301482" style="fill: #bcbd22; stroke: #bcbd22"/>
     <use xlink:href="#m2dac10bdd1" x="356.742512" y="340.505659" style="fill: #bcbd22; stroke: #bcbd22"/>
     <use xlink:href="#m2dac10bdd1" x="373.232066" y="341.126149" style="fill: #bcbd22; stroke: #bcbd22"/>
     <use xlink:href="#m2dac10bdd1" x="389.72162" y="341.695231" style="fill: #bcbd22; stroke: #bcbd22"/>
     <use xlink:href="#m2dac10bdd1" x="406.211175" y="343.501378" style="fill: #bcbd22; stroke: #bcbd22"/>
     <use xlink:href="#m2dac10bdd1" x="422.700729" y="342.702768" style="fill: #bcbd22; stroke: #bcbd22"/>
     <use xlink:href="#m2dac10bdd1" x="439.190284" y="342.55693" style="fill: #bcbd22; stroke: #bcbd22"/>
     <use xlink:href="#m2dac10bdd1" x="455.679838" y="341.848643" style="fill: #bcbd22; stroke: #bcbd22"/>
     <use xlink:href="#m2dac10bdd1" x="472.169392" y="342.295283" style="fill: #bcbd22; stroke: #bcbd22"/>
     <use xlink:href="#m2dac10bdd1" x="488.658947" y="341.107875" style="fill: #bcbd22; stroke: #bcbd22"/>
     <use xlink:href="#m2dac10bdd1" x="505.148501" y="342.584874" style="fill: #bcbd22; stroke: #bcbd22"/>
     <use xlink:href="#m2dac10bdd1" x="521.638056" y="342.966915" style="fill: #bcbd22; stroke: #bcbd22"/>
     <use xlink:href="#m2dac10bdd1" x="538.12761" y="342.839511" style="fill: #bcbd22; stroke: #bcbd22"/>
     <use xlink:href="#m2dac10bdd1" x="554.617164" y="342.247428" style="fill: #bcbd22; stroke: #bcbd22"/>
     <use xlink:href="#m2dac10bdd1" x="571.106719" y="343.065162" style="fill: #bcbd22; stroke: #bcbd22"/>
     <use xlink:href="#m2dac10bdd1" x="587.596273" y="341.607575" style="fill: #bcbd22; stroke: #bcbd22"/>
     <use xlink:href="#m2dac10bdd1" x="604.085828" y="342.398501" style="fill: #bcbd22; stroke: #bcbd22"/>
     <use xlink:href="#m2dac10bdd1" x="620.575382" y="342.725328" style="fill: #bcbd22; stroke: #bcbd22"/>
     <use xlink:href="#m2dac10bdd1" x="637.064936" y="340.564492" style="fill: #bcbd22; stroke: #bcbd22"/>
     <use xlink:href="#m2dac10bdd1" x="653.554491" y="338.511322" style="fill: #bcbd22; stroke: #bcbd22"/>
     <use xlink:href="#m2dac10bdd1" x="670.044045" y="337.341579" style="fill: #bcbd22; stroke: #bcbd22"/>
     <use xlink:href="#m2dac10bdd1" x="686.5336" y="337.374878" style="fill: #bcbd22; stroke: #bcbd22"/>
     <use xlink:href="#m2dac10bdd1" x="703.023154" y="337.406634" style="fill: #bcbd22; stroke: #bcbd22"/>
    </g>
   </g>
   <g id="line2d_35">
    <path d="M 43.440978 381.966828 
L 43.824456 376.90822 
L 44.207934 376.98262 
L 44.97489 367.155477 
L 45.358368 367.297944 
L 45.741846 362.522754 
L 46.508802 362.866505 
L 47.275758 353.640708 
L 47.659236 353.869887 
L 48.426192 344.952675 
L 48.80967 345.235549 
L 49.193148 340.893953 
L 52.64445 343.509443 
L 56.095752 345.844702 
L 59.930532 348.162468 
L 64.148791 350.428728 
L 68.367049 352.445699 
L 72.968785 354.407317 
L 77.953999 356.296281 
L 83.322691 358.100738 
L 89.458339 359.920359 
L 95.977465 361.619145 
L 103.263547 363.282904 
L 111.316586 364.886041 
L 120.13658 366.411243 
L 130.107008 367.90136 
L 141.22787 369.329021 
L 153.499167 370.676654 
L 167.304375 371.967646 
L 183.026973 373.211063 
L 201.05044 374.406711 
L 221.758252 375.549191 
L 245.533889 376.631077 
L 273.144306 377.658093 
L 305.356458 378.627774 
L 343.320781 379.542543 
L 388.571186 380.404273 
L 443.025064 381.212197 
L 462.582442 381.456762 
L 462.96592 380.897396 
L 471.402436 381.006491 
L 471.785914 380.457761 
L 473.319826 380.478917 
L 473.703304 379.93279 
L 474.47026 379.944177 
L 474.853738 379.399773 
L 476.771128 379.430213 
L 477.154606 378.888796 
L 478.688519 378.914661 
L 479.071997 378.375779 
L 479.838953 378.389487 
L 480.222431 377.852287 
L 487.508513 377.988191 
L 487.891991 377.459604 
L 488.658947 377.474482 
L 489.042425 376.947514 
L 492.877205 377.025199 
L 493.260683 376.503005 
L 494.027639 376.519185 
L 494.411117 375.998573 
L 497.095463 376.057538 
L 497.478941 375.540434 
L 501.697199 375.636047 
L 502.080677 375.123921 
L 502.847633 375.141891 
L 503.231111 374.631287 
L 503.614589 374.640627 
L 504.381545 373.62246 
L 504.765023 373.632534 
L 505.148501 373.124964 
L 507.065891 373.176958 
L 507.832847 372.167774 
L 508.216325 372.17886 
L 508.599803 371.675757 
L 509.366759 371.698609 
L 509.750237 371.196979 
L 510.133715 371.208743 
L 510.517193 370.708216 
L 511.284149 370.732412 
L 511.667627 370.233344 
L 517.803275 370.43005 
L 518.570231 369.44543 
L 518.953709 369.458271 
L 519.720666 368.477208 
L 520.104144 368.490723 
L 520.487622 368.001604 
L 521.254578 368.029264 
L 521.638056 367.541541 
L 522.021534 367.555684 
L 522.405012 367.069008 
L 523.171968 367.097914 
L 523.938924 366.128027 
L 524.322402 366.143126 
L 525.089358 365.176703 
L 525.472836 365.192454 
L 525.856314 364.710619 
L 531.991962 364.964873 
L 532.758918 364.013819 
L 533.142396 364.03017 
L 534.676308 362.137419 
L 535.059786 362.155036 
L 535.826742 361.213304 
L 536.21022 361.231534 
L 536.593698 360.761981 
L 537.360654 360.799 
L 538.12761 359.863136 
L 538.511088 359.882237 
L 539.278044 358.949624 
L 539.661522 358.969324 
L 540.045 358.504307 
L 575.324977 360.232882 
L 583.761493 360.615717 
L 584.144971 360.184248 
L 592.581487 360.562146 
L 592.964965 360.137041 
L 595.649311 360.25688 
L 596.032789 359.834126 
L 597.950179 359.920359 
L 598.333657 359.49942 
L 606.770174 359.877995 
L 607.153652 359.463115 
L 608.687564 359.531823 
L 609.071042 359.118447 
L 609.837998 359.153165 
L 610.221476 358.740792 
L 612.138866 358.828432 
L 612.522344 358.417788 
L 613.2893 358.453177 
L 613.672778 358.043525 
L 614.056256 358.061428 
L 614.439734 357.652521 
L 615.20669 357.688743 
L 615.590168 357.280819 
L 622.87625 357.625036 
L 623.259728 357.222104 
L 624.026684 357.258343 
L 624.410162 356.856366 
L 625.944074 356.929509 
L 626.327552 356.528945 
L 628.244942 356.621029 
L 629.011898 355.823647 
L 629.395376 355.842455 
L 629.778854 355.44471 
L 630.54581 355.482713 
L 630.929288 355.085901 
L 632.4632 355.162537 
L 632.846678 354.767103 
L 637.064936 354.978435 
L 637.831892 354.193886 
L 638.982326 354.252371 
L 639.749282 353.471002 
L 640.13276 353.49089 
L 640.899716 352.711806 
L 641.283194 352.732106 
L 641.666672 352.343472 
L 642.433628 352.384435 
L 643.200584 351.609405 
L 643.584063 351.630282 
L 643.967541 351.243666 
L 644.351019 351.264734 
L 645.117975 350.493292 
L 645.501453 350.514762 
L 646.268409 349.745555 
L 646.651887 349.767426 
L 647.035365 349.383709 
L 653.171013 349.73355 
L 653.937969 348.974156 
L 654.321447 348.99622 
L 655.088403 348.238994 
L 655.471881 348.261445 
L 655.855359 347.883693 
L 656.622315 347.928927 
L 657.005793 347.55202 
L 657.389271 347.574802 
L 657.772749 347.198533 
L 658.539705 347.244424 
L 659.306661 346.493996 
L 659.690139 346.517306 
L 660.457095 345.769002 
L 660.840573 345.792688 
L 661.224051 345.41938 
L 662.757963 345.514652 
L 663.141441 345.142568 
L 667.359699 345.40451 
L 668.126655 344.665952 
L 668.510133 344.689995 
L 668.893611 344.321538 
L 669.277089 344.345748 
L 670.044045 343.610475 
L 670.427523 343.635046 
L 670.811001 343.268225 
L 672.728391 343.391628 
L 673.495347 342.66115 
L 673.878825 342.68613 
L 674.262303 342.321697 
L 675.029259 342.371955 
L 675.412737 342.008311 
L 675.796215 342.033588 
L 676.179693 341.670541 
L 676.946649 341.721387 
L 677.330127 341.359124 
L 683.465775 341.764817 
L 684.232731 341.047465 
L 684.616209 341.072951 
L 685.383166 340.357554 
L 685.766644 340.383379 
L 686.150122 340.026456 
L 686.917078 340.078386 
L 687.300556 339.722222 
L 687.684034 339.748326 
L 688.067512 339.392735 
L 688.834468 339.44522 
L 689.601424 338.735935 
L 689.984902 338.762494 
L 690.751858 338.055126 
L 691.135336 338.082015 
L 691.518814 337.729091 
L 697.654462 338.158179 
L 698.421418 337.459142 
L 698.804896 337.486063 
L 699.571852 336.788891 
L 705.7075 337.221218 
L 705.7075 337.221218 
" clip-path="url(#p5a042e36cf)" style="fill: none; stroke: #17becf; stroke-width: 2; stroke-linecap: square"/>
    <defs>
     <path id="m195313ba7e" d="M 0 1.5 
C 0.397805 1.5 0.77937 1.341951 1.06066 1.06066 
C 1.341951 0.77937 1.5 0.397805 1.5 0 
C 1.5 -0.397805 1.341951 -0.77937 1.06066 -1.06066 
C 0.77937 -1.341951 0.397805 -1.5 0 -1.5 
C -0.397805 -1.5 -0.77937 -1.341951 -1.06066 -1.06066 
C -1.341951 -0.77937 -1.5 -0.397805 -1.5 0 
C -1.5 0.397805 -1.341951 0.77937 -1.06066 1.06066 
C -0.77937 1.341951 -0.397805 1.5 0 1.5 
z
" style="stroke: #17becf"/>
    </defs>
    <g clip-path="url(#p5a042e36cf)">
     <use xlink:href="#m195313ba7e" x="43.440978" y="381.966828" style="fill: #17becf; stroke: #17becf"/>
     <use xlink:href="#m195313ba7e" x="59.930532" y="348.162468" style="fill: #17becf; stroke: #17becf"/>
     <use xlink:href="#m195313ba7e" x="76.420087" y="355.738731" style="fill: #17becf; stroke: #17becf"/>
     <use xlink:href="#m195313ba7e" x="92.909641" y="360.846969" style="fill: #17becf; stroke: #17becf"/>
     <use xlink:href="#m195313ba7e" x="109.399196" y="364.524235" style="fill: #17becf; stroke: #17becf"/>
     <use xlink:href="#m195313ba7e" x="125.88875" y="367.297944" style="fill: #17becf; stroke: #17becf"/>
     <use xlink:href="#m195313ba7e" x="142.378304" y="369.464684" style="fill: #17becf; stroke: #17becf"/>
     <use xlink:href="#m195313ba7e" x="158.867859" y="371.204039" style="fill: #17becf; stroke: #17becf"/>
     <use xlink:href="#m195313ba7e" x="175.357413" y="372.631109" style="fill: #17becf; stroke: #17becf"/>
     <use xlink:href="#m195313ba7e" x="191.846968" y="373.823068" style="fill: #17becf; stroke: #17becf"/>
     <use xlink:href="#m195313ba7e" x="208.336522" y="374.833597" style="fill: #17becf; stroke: #17becf"/>
     <use xlink:href="#m195313ba7e" x="224.826076" y="375.701188" style="fill: #17becf; stroke: #17becf"/>
     <use xlink:href="#m195313ba7e" x="241.315631" y="376.454167" style="fill: #17becf; stroke: #17becf"/>
     <use xlink:href="#m195313ba7e" x="257.805185" y="377.113837" style="fill: #17becf; stroke: #17becf"/>
     <use xlink:href="#m195313ba7e" x="274.29474" y="377.696531" style="fill: #17becf; stroke: #17becf"/>
     <use xlink:href="#m195313ba7e" x="290.784294" y="378.214979" style="fill: #17becf; stroke: #17becf"/>
     <use xlink:href="#m195313ba7e" x="307.273848" y="378.679251" style="fill: #17becf; stroke: #17becf"/>
     <use xlink:href="#m195313ba7e" x="323.763403" y="379.097418" style="fill: #17becf; stroke: #17becf"/>
     <use xlink:href="#m195313ba7e" x="340.252957" y="379.476023" style="fill: #17becf; stroke: #17becf"/>
     <use xlink:href="#m195313ba7e" x="356.742512" y="379.820425" style="fill: #17becf; stroke: #17becf"/>
     <use xlink:href="#m195313ba7e" x="373.232066" y="380.13506" style="fill: #17becf; stroke: #17becf"/>
     <use xlink:href="#m195313ba7e" x="389.72162" y="380.423628" style="fill: #17becf; stroke: #17becf"/>
     <use xlink:href="#m195313ba7e" x="406.211175" y="380.689238" style="fill: #17becf; stroke: #17becf"/>
     <use xlink:href="#m195313ba7e" x="422.700729" y="380.934525" style="fill: #17becf; stroke: #17becf"/>
     <use xlink:href="#m195313ba7e" x="439.190284" y="381.161736" style="fill: #17becf; stroke: #17becf"/>
     <use xlink:href="#m195313ba7e" x="455.679838" y="381.372799" style="fill: #17becf; stroke: #17becf"/>
     <use xlink:href="#m195313ba7e" x="472.169392" y="380.463063" style="fill: #17becf; stroke: #17becf"/>
     <use xlink:href="#m195313ba7e" x="488.658947" y="377.474482" style="fill: #17becf; stroke: #17becf"/>
     <use xlink:href="#m195313ba7e" x="505.148501" y="373.124964" style="fill: #17becf; stroke: #17becf"/>
     <use xlink:href="#m195313ba7e" x="521.638056" y="367.541541" style="fill: #17becf; stroke: #17becf"/>
     <use xlink:href="#m195313ba7e" x="538.12761" y="359.863136" style="fill: #17becf; stroke: #17becf"/>
     <use xlink:href="#m195313ba7e" x="554.617164" y="359.244547" style="fill: #17becf; stroke: #17becf"/>
     <use xlink:href="#m195313ba7e" x="571.106719" y="360.037284" style="fill: #17becf; stroke: #17becf"/>
     <use xlink:href="#m195313ba7e" x="587.596273" y="360.340136" style="fill: #17becf; stroke: #17becf"/>
     <use xlink:href="#m195313ba7e" x="604.085828" y="359.758671" style="fill: #17becf; stroke: #17becf"/>
     <use xlink:href="#m195313ba7e" x="620.575382" y="357.517198" style="fill: #17becf; stroke: #17becf"/>
     <use xlink:href="#m195313ba7e" x="637.064936" y="354.978435" style="fill: #17becf; stroke: #17becf"/>
     <use xlink:href="#m195313ba7e" x="653.554491" y="349.353633" style="fill: #17becf; stroke: #17becf"/>
     <use xlink:href="#m195313ba7e" x="670.044045" y="343.610475" style="fill: #17becf; stroke: #17becf"/>
     <use xlink:href="#m195313ba7e" x="686.5336" y="340.052435" style="fill: #17becf; stroke: #17becf"/>
     <use xlink:href="#m195313ba7e" x="703.023154" y="337.032992" style="fill: #17becf; stroke: #17becf"/>
    </g>
   </g>
   <g id="line2d_36">
    <path d="M 43.440978 381.966828 
L 45.741846 352.691481 
L 48.426192 321.536974 
L 51.110538 293.196421 
L 53.794884 267.305053 
L 56.47923 243.558531 
L 59.163576 221.700937 
L 61.847922 201.515509 
L 64.532269 182.817429 
L 66.833137 167.853513 
L 67.216615 168.966444 
L 70.284439 150.431019 
L 72.585307 137.451829 
L 72.968785 138.629419 
L 73.352263 136.541939 
L 73.735741 137.712776 
L 76.036609 125.611414 
L 76.803565 127.967175 
L 77.953999 122.180895 
L 78.720955 124.514992 
L 79.487911 120.755003 
L 79.871389 121.913029 
L 80.638345 118.22409 
L 81.021823 119.378068 
L 81.405301 117.560197 
L 82.939213 122.090293 
L 83.322691 120.299104 
L 84.089647 122.513228 
L 84.856603 118.986338 
L 85.240081 120.085169 
L 85.623559 118.34603 
L 86.007037 119.438529 
L 89.458339 104.422917 
L 89.841817 105.527128 
L 90.225295 103.92584 
L 90.992251 106.112521 
L 91.375729 104.527458 
L 91.759207 105.610115 
L 92.142685 104.039069 
L 95.210509 112.426087 
L 95.593987 110.882066 
L 96.360943 112.905647 
L 96.744421 111.37678 
L 97.127899 112.379414 
L 97.894855 109.358596 
L 98.278333 110.357669 
L 99.045289 107.383659 
L 100.962679 112.290979 
L 101.346157 110.82841 
L 102.113113 112.746969 
L 102.496591 111.298005 
L 102.880069 112.249049 
L 103.263547 110.811754 
L 104.413981 113.631031 
L 104.797459 112.20854 
L 105.947894 114.975914 
L 106.331372 113.567955 
L 108.63224 118.948931 
L 109.015718 117.560197 
L 109.399196 118.43818 
L 109.782674 117.060121 
L 110.933108 119.665017 
L 111.316586 118.300693 
L 113.233976 122.540445 
L 114.000932 119.853647 
L 115.534844 123.163211 
L 115.918322 121.838621 
L 117.068756 124.27222 
L 117.452234 122.960403 
L 117.835712 123.763262 
L 118.21919 122.460938 
L 118.986146 124.055154 
L 119.369624 122.763686 
L 121.670492 127.442221 
L 122.437448 124.900016 
L 125.505272 130.910352 
L 125.88875 129.662026 
L 126.272228 130.39547 
L 126.655706 129.155699 
L 130.873964 136.972222 
L 135.092222 144.328949 
L 139.31048 151.265291 
L 143.912216 158.393825 
L 148.513953 165.104058 
L 150.431343 167.78518 
L 150.814821 166.643519 
L 155.416557 172.839044 
L 160.401771 179.169509 
L 165.386985 185.136636 
L 170.372199 190.770833 
L 174.973935 195.699622 
L 175.357413 194.652225 
L 180.726105 200.1173 
L 186.094797 205.280556 
L 186.478275 205.63847 
L 186.861753 204.633279 
L 192.613924 209.85659 
L 198.366094 214.789179 
L 204.501742 219.756725 
L 210.63739 224.44588 
L 217.156516 229.148492 
L 224.05912 233.840149 
L 230.961725 238.261133 
L 238.247807 242.659199 
L 245.917367 247.016415 
L 253.586927 251.118451 
L 261.639965 255.174747 
L 270.076481 259.17251 
L 278.896476 263.100887 
L 288.099948 266.950824 
L 297.686898 270.714925 
L 307.657326 274.387299 
L 318.011233 277.963407 
L 328.748617 281.439916 
L 340.252957 284.927078 
L 352.140775 288.296642 
L 364.79555 291.647661 
L 377.833802 294.870512 
L 391.63901 298.053921 
L 406.211175 301.184159 
L 421.550295 304.249878 
L 437.656372 307.241919 
L 454.912882 310.2168 
L 472.936348 313.096126 
L 492.110249 315.93156 
L 512.434583 318.709157 
L 533.909352 321.417742 
L 556.918032 324.091414 
L 581.077147 326.674107 
L 607.153652 329.234247 
L 634.764068 331.718685 
L 664.291875 334.149947 
L 695.737072 336.51486 
L 705.7075 337.221218 
L 705.7075 337.221218 
" clip-path="url(#p5a042e36cf)" style="fill: none; stroke: #e31818; stroke-width: 2.5; stroke-linecap: square"/>
    <defs>
     <path id="mc7cdd9084a" d="M 0 1.5 
C 0.397805 1.5 0.77937 1.341951 1.06066 1.06066 
C 1.341951 0.77937 1.5 0.397805 1.5 0 
C 1.5 -0.397805 1.341951 -0.77937 1.06066 -1.06066 
C 0.77937 -1.341951 0.397805 -1.5 0 -1.5 
C -0.397805 -1.5 -0.77937 -1.341951 -1.06066 -1.06066 
C -1.341951 -0.77937 -1.5 -0.397805 -1.5 0 
C -1.5 0.397805 -1.341951 0.77937 -1.06066 1.06066 
C -0.77937 1.341951 -0.397805 1.5 0 1.5 
z
" style="stroke: #e31818"/>
    </defs>
    <g clip-path="url(#p5a042e36cf)">
     <use xlink:href="#mc7cdd9084a" x="43.440978" y="381.966828" style="fill: #e31818; stroke: #e31818"/>
     <use xlink:href="#mc7cdd9084a" x="59.930532" y="215.771671" style="fill: #e31818; stroke: #e31818"/>
     <use xlink:href="#mc7cdd9084a" x="76.420087" y="126.794624" style="fill: #e31818; stroke: #e31818"/>
     <use xlink:href="#mc7cdd9084a" x="92.909641" y="106.183477" style="fill: #e31818; stroke: #e31818"/>
     <use xlink:href="#mc7cdd9084a" x="109.399196" y="118.43818" style="fill: #e31818; stroke: #e31818"/>
     <use xlink:href="#mc7cdd9084a" x="125.88875" y="129.662026" style="fill: #e31818; stroke: #e31818"/>
     <use xlink:href="#mc7cdd9084a" x="142.378304" y="156.066017" style="fill: #e31818; stroke: #e31818"/>
     <use xlink:href="#mc7cdd9084a" x="158.867859" y="177.261881" style="fill: #e31818; stroke: #e31818"/>
     <use xlink:href="#mc7cdd9084a" x="175.357413" y="194.652225" style="fill: #e31818; stroke: #e31818"/>
     <use xlink:href="#mc7cdd9084a" x="191.846968" y="209.177493" style="fill: #e31818; stroke: #e31818"/>
     <use xlink:href="#mc7cdd9084a" x="208.336522" y="222.718569" style="fill: #e31818; stroke: #e31818"/>
     <use xlink:href="#mc7cdd9084a" x="224.826076" y="234.344296" style="fill: #e31818; stroke: #e31818"/>
     <use xlink:href="#mc7cdd9084a" x="241.315631" y="244.434212" style="fill: #e31818; stroke: #e31818"/>
     <use xlink:href="#mc7cdd9084a" x="257.805185" y="253.273793" style="fill: #e31818; stroke: #e31818"/>
     <use xlink:href="#mc7cdd9084a" x="274.29474" y="261.08189" style="fill: #e31818; stroke: #e31818"/>
     <use xlink:href="#mc7cdd9084a" x="290.784294" y="268.029094" style="fill: #e31818; stroke: #e31818"/>
     <use xlink:href="#mc7cdd9084a" x="307.273848" y="274.250344" style="fill: #e31818; stroke: #e31818"/>
     <use xlink:href="#mc7cdd9084a" x="323.763403" y="279.85378" style="fill: #e31818; stroke: #e31818"/>
     <use xlink:href="#mc7cdd9084a" x="340.252957" y="284.927078" style="fill: #e31818; stroke: #e31818"/>
     <use xlink:href="#mc7cdd9084a" x="356.742512" y="289.542074" style="fill: #e31818; stroke: #e31818"/>
     <use xlink:href="#mc7cdd9084a" x="373.232066" y="293.758186" style="fill: #e31818; stroke: #e31818"/>
     <use xlink:href="#mc7cdd9084a" x="389.72162" y="297.624986" style="fill: #e31818; stroke: #e31818"/>
     <use xlink:href="#mc7cdd9084a" x="406.211175" y="301.184159" style="fill: #e31818; stroke: #e31818"/>
     <use xlink:href="#mc7cdd9084a" x="422.700729" y="304.47101" style="fill: #e31818; stroke: #e31818"/>
     <use xlink:href="#mc7cdd9084a" x="439.190284" y="307.515644" style="fill: #e31818; stroke: #e31818"/>
     <use xlink:href="#mc7cdd9084a" x="455.679838" y="310.343881" style="fill: #e31818; stroke: #e31818"/>
     <use xlink:href="#mc7cdd9084a" x="472.169392" y="312.978002" style="fill: #e31818; stroke: #e31818"/>
     <use xlink:href="#mc7cdd9084a" x="488.658947" y="315.437328" style="fill: #e31818; stroke: #e31818"/>
     <use xlink:href="#mc7cdd9084a" x="505.148501" y="317.738698" style="fill: #e31818; stroke: #e31818"/>
     <use xlink:href="#mc7cdd9084a" x="521.638056" y="319.896858" style="fill: #e31818; stroke: #e31818"/>
     <use xlink:href="#mc7cdd9084a" x="538.12761" y="321.92477" style="fill: #e31818; stroke: #e31818"/>
     <use xlink:href="#mc7cdd9084a" x="554.617164" y="323.833882" style="fill: #e31818; stroke: #e31818"/>
     <use xlink:href="#mc7cdd9084a" x="571.106719" y="325.634334" style="fill: #e31818; stroke: #e31818"/>
     <use xlink:href="#mc7cdd9084a" x="587.596273" y="327.335147" style="fill: #e31818; stroke: #e31818"/>
     <use xlink:href="#mc7cdd9084a" x="604.085828" y="328.94437" style="fill: #e31818; stroke: #e31818"/>
     <use xlink:href="#mc7cdd9084a" x="620.575382" y="330.469207" style="fill: #e31818; stroke: #e31818"/>
     <use xlink:href="#mc7cdd9084a" x="637.064936" y="331.916126" style="fill: #e31818; stroke: #e31818"/>
     <use xlink:href="#mc7cdd9084a" x="653.554491" y="333.29095" style="fill: #e31818; stroke: #e31818"/>
     <use xlink:href="#mc7cdd9084a" x="670.044045" y="334.598937" style="fill: #e31818; stroke: #e31818"/>
     <use xlink:href="#mc7cdd9084a" x="686.5336" y="335.844846" style="fill: #e31818; stroke: #e31818"/>
     <use xlink:href="#mc7cdd9084a" x="703.023154" y="337.032992" style="fill: #e31818; stroke: #e31818"/>
    </g>
   </g>
   <g id="patch_3">
    <path d="M 43.0575 387.100937 
L 43.0575 23.220937 
" style="fill: none; stroke: #000000; stroke-width: 0.8; stroke-linejoin: miter; stroke-linecap: square"/>
   </g>
   <g id="patch_4">
    <path d="M 705.7075 387.100937 
L 705.7075 23.220937 
" style="fill: none; stroke: #000000; stroke-width: 0.8; stroke-linejoin: miter; stroke-linecap: square"/>
   </g>
   <g id="patch_5">
    <path d="M 43.0575 387.100937 
L 705.7075 387.100937 
" style="fill: none; stroke: #000000; stroke-width: 0.8; stroke-linejoin: miter; stroke-linecap: square"/>
   </g>
   <g id="patch_6">
    <path d="M 43.0575 23.220937 
L 705.7075 23.220937 
" style="fill: none; stroke: #000000; stroke-width: 0.8; stroke-linejoin: miter; stroke-linecap: square"/>
   </g>
   <g id="text_18">
    <!-- F1-Score vs k - car -->
    <g transform="translate(312.131719 17.220937) scale(0.14 -0.14)">
     <defs>
      <path id="Arial-BoldMT-76" d="M 1372 0 
L 34 3319 
L 956 3319 
L 1581 1625 
L 1763 1059 
Q 1834 1275 1853 1344 
Q 1897 1484 1947 1625 
L 2578 3319 
L 3481 3319 
L 2163 0 
L 1372 0 
z
" transform="scale(0.015625)"/>
      <path id="Arial-BoldMT-61" d="M 1116 2306 
L 319 2450 
Q 453 2931 781 3162 
Q 1109 3394 1756 3394 
Q 2344 3394 2631 3255 
Q 2919 3116 3036 2902 
Q 3153 2688 3153 2116 
L 3144 1091 
Q 3144 653 3186 445 
Q 3228 238 3344 0 
L 2475 0 
Q 2441 88 2391 259 
Q 2369 338 2359 363 
Q 2134 144 1878 34 
Q 1622 -75 1331 -75 
Q 819 -75 523 203 
Q 228 481 228 906 
Q 228 1188 362 1408 
Q 497 1628 739 1745 
Q 981 1863 1438 1950 
Q 2053 2066 2291 2166 
L 2291 2253 
Q 2291 2506 2166 2614 
Q 2041 2722 1694 2722 
Q 1459 2722 1328 2630 
Q 1197 2538 1116 2306 
z
M 2291 1594 
Q 2122 1538 1756 1459 
Q 1391 1381 1278 1306 
Q 1106 1184 1106 997 
Q 1106 813 1243 678 
Q 1381 544 1594 544 
Q 1831 544 2047 700 
Q 2206 819 2256 991 
Q 2291 1103 2291 1419 
L 2291 1594 
z
" transform="scale(0.015625)"/>
     </defs>
     <use xlink:href="#Arial-BoldMT-46"/>
     <use xlink:href="#Arial-BoldMT-31" transform="translate(61.083984 0)"/>
     <use xlink:href="#Arial-BoldMT-2d" transform="translate(116.699219 0)"/>
     <use xlink:href="#Arial-BoldMT-53" transform="translate(150 0)"/>
     <use xlink:href="#Arial-BoldMT-63" transform="translate(216.699219 0)"/>
     <use xlink:href="#Arial-BoldMT-6f" transform="translate(272.314453 0)"/>
     <use xlink:href="#Arial-BoldMT-72" transform="translate(333.398438 0)"/>
     <use xlink:href="#Arial-BoldMT-65" transform="translate(372.314453 0)"/>
     <use xlink:href="#Arial-BoldMT-20" transform="translate(427.929688 0)"/>
     <use xlink:href="#Arial-BoldMT-76" transform="translate(455.712891 0)"/>
     <use xlink:href="#Arial-BoldMT-73" transform="translate(511.328125 0)"/>
     <use xlink:href="#Arial-BoldMT-20" transform="translate(566.943359 0)"/>
     <use xlink:href="#Arial-BoldMT-6b" transform="translate(594.726562 0)"/>
     <use xlink:href="#Arial-BoldMT-20" transform="translate(650.341797 0)"/>
     <use xlink:href="#Arial-BoldMT-2d" transform="translate(678.125 0)"/>
     <use xlink:href="#Arial-BoldMT-20" transform="translate(711.425781 0)"/>
     <use xlink:href="#Arial-BoldMT-63" transform="translate(739.208984 0)"/>
     <use xlink:href="#Arial-BoldMT-61" transform="translate(794.824219 0)"/>
     <use xlink:href="#Arial-BoldMT-72" transform="translate(850.439453 0)"/>
    </g>
   </g>
   <g id="legend_1">
    <g id="patch_7">
     <path d="M 630.108906 106.805625 
L 699.4075 106.805625 
Q 701.2075 106.805625 701.2075 105.005625 
L 701.2075 29.520938 
Q 701.2075 27.720937 699.4075 27.720937 
L 630.108906 27.720937 
Q 628.308906 27.720937 628.308906 29.520938 
L 628.308906 105.005625 
Q 628.308906 106.805625 630.108906 106.805625 
z
" style="fill: #ffffff; opacity: 0.8; stroke: #cccccc; stroke-linejoin: miter"/>
    </g>
    <g id="line2d_37">
     <path d="M 631.908906 34.612969 
L 640.908906 34.612969 
L 649.908906 34.612969 
" style="fill: none; stroke: #1f77b4; stroke-width: 2; stroke-linecap: square"/>
     <g>
      <use xlink:href="#m63896f602b" x="640.908906" y="34.612969" style="fill: #1f77b4; stroke: #1f77b4"/>
     </g>
    </g>
    <g id="text_19">
     <!-- ADFNR -->
     <g transform="translate(657.108906 37.762969) scale(0.09 -0.09)">
      <defs>
       <path id="ArialMT-41" d="M -9 0 
L 1750 4581 
L 2403 4581 
L 4278 0 
L 3588 0 
L 3053 1388 
L 1138 1388 
L 634 0 
L -9 0 
z
M 1313 1881 
L 2866 1881 
L 2388 3150 
Q 2169 3728 2063 4100 
Q 1975 3659 1816 3225 
L 1313 1881 
z
" transform="scale(0.015625)"/>
       <path id="ArialMT-44" d="M 494 0 
L 494 4581 
L 2072 4581 
Q 2606 4581 2888 4516 
Q 3281 4425 3559 4188 
Q 3922 3881 4101 3404 
Q 4281 2928 4281 2316 
Q 4281 1794 4159 1391 
Q 4038 988 3847 723 
Q 3656 459 3429 307 
Q 3203 156 2883 78 
Q 2563 0 2147 0 
L 494 0 
z
M 1100 541 
L 2078 541 
Q 2531 541 2789 625 
Q 3047 709 3200 863 
Q 3416 1078 3536 1442 
Q 3656 1806 3656 2325 
Q 3656 3044 3420 3430 
Q 3184 3816 2847 3947 
Q 2603 4041 2063 4041 
L 1100 4041 
L 1100 541 
z
" transform="scale(0.015625)"/>
       <path id="ArialMT-46" d="M 525 0 
L 525 4581 
L 3616 4581 
L 3616 4041 
L 1131 4041 
L 1131 2622 
L 3281 2622 
L 3281 2081 
L 1131 2081 
L 1131 0 
L 525 0 
z
" transform="scale(0.015625)"/>
       <path id="ArialMT-4e" d="M 488 0 
L 488 4581 
L 1109 4581 
L 3516 984 
L 3516 4581 
L 4097 4581 
L 4097 0 
L 3475 0 
L 1069 3600 
L 1069 0 
L 488 0 
z
" transform="scale(0.015625)"/>
       <path id="ArialMT-52" d="M 503 0 
L 503 4581 
L 2534 4581 
Q 3147 4581 3465 4457 
Q 3784 4334 3975 4021 
Q 4166 3709 4166 3331 
Q 4166 2844 3850 2509 
Q 3534 2175 2875 2084 
Q 3116 1969 3241 1856 
Q 3506 1613 3744 1247 
L 4541 0 
L 3778 0 
L 3172 953 
Q 2906 1366 2734 1584 
Q 2563 1803 2427 1890 
Q 2291 1978 2150 2013 
Q 2047 2034 1813 2034 
L 1109 2034 
L 1109 0 
L 503 0 
z
M 1109 2559 
L 2413 2559 
Q 2828 2559 3062 2645 
Q 3297 2731 3419 2920 
Q 3541 3109 3541 3331 
Q 3541 3656 3305 3865 
Q 3069 4075 2559 4075 
L 1109 4075 
L 1109 2559 
z
" transform="scale(0.015625)"/>
      </defs>
      <use xlink:href="#ArialMT-41"/>
      <use xlink:href="#ArialMT-44" transform="translate(66.699219 0)"/>
      <use xlink:href="#ArialMT-46" transform="translate(138.916016 0)"/>
      <use xlink:href="#ArialMT-4e" transform="translate(200 0)"/>
      <use xlink:href="#ArialMT-52" transform="translate(272.216797 0)"/>
     </g>
    </g>
    <g id="line2d_38">
     <path d="M 631.908906 47.34375 
L 640.908906 47.34375 
L 649.908906 47.34375 
" style="fill: none; stroke: #ff7f0e; stroke-width: 2; stroke-linecap: square"/>
     <g>
      <use xlink:href="#mfffee1d9ce" x="640.908906" y="47.34375" style="fill: #ff7f0e; stroke: #ff7f0e"/>
     </g>
    </g>
    <g id="text_20">
     <!-- DASOD -->
     <g transform="translate(657.108906 50.49375) scale(0.09 -0.09)">
      <defs>
       <path id="ArialMT-53" d="M 288 1472 
L 859 1522 
Q 900 1178 1048 958 
Q 1197 738 1509 602 
Q 1822 466 2213 466 
Q 2559 466 2825 569 
Q 3091 672 3220 851 
Q 3350 1031 3350 1244 
Q 3350 1459 3225 1620 
Q 3100 1781 2813 1891 
Q 2628 1963 1997 2114 
Q 1366 2266 1113 2400 
Q 784 2572 623 2826 
Q 463 3081 463 3397 
Q 463 3744 659 4045 
Q 856 4347 1234 4503 
Q 1613 4659 2075 4659 
Q 2584 4659 2973 4495 
Q 3363 4331 3572 4012 
Q 3781 3694 3797 3291 
L 3216 3247 
Q 3169 3681 2898 3903 
Q 2628 4125 2100 4125 
Q 1550 4125 1298 3923 
Q 1047 3722 1047 3438 
Q 1047 3191 1225 3031 
Q 1400 2872 2139 2705 
Q 2878 2538 3153 2413 
Q 3553 2228 3743 1945 
Q 3934 1663 3934 1294 
Q 3934 928 3725 604 
Q 3516 281 3123 101 
Q 2731 -78 2241 -78 
Q 1619 -78 1198 103 
Q 778 284 539 648 
Q 300 1013 288 1472 
z
" transform="scale(0.015625)"/>
       <path id="ArialMT-4f" d="M 309 2231 
Q 309 3372 921 4017 
Q 1534 4663 2503 4663 
Q 3138 4663 3647 4359 
Q 4156 4056 4423 3514 
Q 4691 2972 4691 2284 
Q 4691 1588 4409 1038 
Q 4128 488 3612 205 
Q 3097 -78 2500 -78 
Q 1853 -78 1343 234 
Q 834 547 571 1087 
Q 309 1628 309 2231 
z
M 934 2222 
Q 934 1394 1379 917 
Q 1825 441 2497 441 
Q 3181 441 3623 922 
Q 4066 1403 4066 2288 
Q 4066 2847 3877 3264 
Q 3688 3681 3323 3911 
Q 2959 4141 2506 4141 
Q 1863 4141 1398 3698 
Q 934 3256 934 2222 
z
" transform="scale(0.015625)"/>
      </defs>
      <use xlink:href="#ArialMT-44"/>
      <use xlink:href="#ArialMT-41" transform="translate(72.216797 0)"/>
      <use xlink:href="#ArialMT-53" transform="translate(138.916016 0)"/>
      <use xlink:href="#ArialMT-4f" transform="translate(205.615234 0)"/>
      <use xlink:href="#ArialMT-44" transform="translate(283.398438 0)"/>
     </g>
    </g>
    <g id="line2d_39">
     <path d="M 631.908906 60.074531 
L 640.908906 60.074531 
L 649.908906 60.074531 
" style="fill: none; stroke: #2ca02c; stroke-width: 2; stroke-linecap: square"/>
     <g>
      <use xlink:href="#mc39bd870a0" x="640.908906" y="60.074531" style="fill: #2ca02c; stroke: #2ca02c"/>
     </g>
    </g>
    <g id="text_21">
     <!-- GCN -->
     <g transform="translate(657.108906 63.224531) scale(0.09 -0.09)">
      <defs>
       <path id="ArialMT-47" d="M 2638 1797 
L 2638 2334 
L 4578 2338 
L 4578 638 
Q 4131 281 3656 101 
Q 3181 -78 2681 -78 
Q 2006 -78 1454 211 
Q 903 500 622 1047 
Q 341 1594 341 2269 
Q 341 2938 620 3517 
Q 900 4097 1425 4378 
Q 1950 4659 2634 4659 
Q 3131 4659 3532 4498 
Q 3934 4338 4162 4050 
Q 4391 3763 4509 3300 
L 3963 3150 
Q 3859 3500 3706 3700 
Q 3553 3900 3268 4020 
Q 2984 4141 2638 4141 
Q 2222 4141 1919 4014 
Q 1616 3888 1430 3681 
Q 1244 3475 1141 3228 
Q 966 2803 966 2306 
Q 966 1694 1177 1281 
Q 1388 869 1791 669 
Q 2194 469 2647 469 
Q 3041 469 3416 620 
Q 3791 772 3984 944 
L 3984 1797 
L 2638 1797 
z
" transform="scale(0.015625)"/>
       <path id="ArialMT-43" d="M 3763 1606 
L 4369 1453 
Q 4178 706 3683 314 
Q 3188 -78 2472 -78 
Q 1731 -78 1267 223 
Q 803 525 561 1097 
Q 319 1669 319 2325 
Q 319 3041 592 3573 
Q 866 4106 1370 4382 
Q 1875 4659 2481 4659 
Q 3169 4659 3637 4309 
Q 4106 3959 4291 3325 
L 3694 3184 
Q 3534 3684 3231 3912 
Q 2928 4141 2469 4141 
Q 1941 4141 1586 3887 
Q 1231 3634 1087 3207 
Q 944 2781 944 2328 
Q 944 1744 1114 1308 
Q 1284 872 1643 656 
Q 2003 441 2422 441 
Q 2931 441 3284 734 
Q 3638 1028 3763 1606 
z
" transform="scale(0.015625)"/>
      </defs>
      <use xlink:href="#ArialMT-47"/>
      <use xlink:href="#ArialMT-43" transform="translate(77.783203 0)"/>
      <use xlink:href="#ArialMT-4e" transform="translate(150 0)"/>
     </g>
    </g>
    <g id="line2d_40">
     <path d="M 631.908906 72.805312 
L 640.908906 72.805312 
L 649.908906 72.805312 
" style="fill: none; stroke: #bcbd22; stroke-width: 2; stroke-linecap: square"/>
     <g>
      <use xlink:href="#m2dac10bdd1" x="640.908906" y="72.805312" style="fill: #bcbd22; stroke: #bcbd22"/>
     </g>
    </g>
    <g id="text_22">
     <!-- GCN-LOF -->
     <g transform="translate(657.108906 75.955312) scale(0.09 -0.09)">
      <defs>
       <path id="ArialMT-2d" d="M 203 1375 
L 203 1941 
L 1931 1941 
L 1931 1375 
L 203 1375 
z
" transform="scale(0.015625)"/>
       <path id="ArialMT-4c" d="M 469 0 
L 469 4581 
L 1075 4581 
L 1075 541 
L 3331 541 
L 3331 0 
L 469 0 
z
" transform="scale(0.015625)"/>
      </defs>
      <use xlink:href="#ArialMT-47"/>
      <use xlink:href="#ArialMT-43" transform="translate(77.783203 0)"/>
      <use xlink:href="#ArialMT-4e" transform="translate(150 0)"/>
      <use xlink:href="#ArialMT-2d" transform="translate(222.216797 0)"/>
      <use xlink:href="#ArialMT-4c" transform="translate(255.517578 0)"/>
      <use xlink:href="#ArialMT-4f" transform="translate(311.132812 0)"/>
      <use xlink:href="#ArialMT-46" transform="translate(388.916016 0)"/>
     </g>
    </g>
    <g id="line2d_41">
     <path d="M 631.908906 85.536094 
L 640.908906 85.536094 
L 649.908906 85.536094 
" style="fill: none; stroke: #17becf; stroke-width: 2; stroke-linecap: square"/>
     <g>
      <use xlink:href="#m195313ba7e" x="640.908906" y="85.536094" style="fill: #17becf; stroke: #17becf"/>
     </g>
    </g>
    <g id="text_23">
     <!-- NIEOD -->
     <g transform="translate(657.108906 88.686094) scale(0.09 -0.09)">
      <defs>
       <path id="ArialMT-49" d="M 597 0 
L 597 4581 
L 1203 4581 
L 1203 0 
L 597 0 
z
" transform="scale(0.015625)"/>
       <path id="ArialMT-45" d="M 506 0 
L 506 4581 
L 3819 4581 
L 3819 4041 
L 1113 4041 
L 1113 2638 
L 3647 2638 
L 3647 2100 
L 1113 2100 
L 1113 541 
L 3925 541 
L 3925 0 
L 506 0 
z
" transform="scale(0.015625)"/>
      </defs>
      <use xlink:href="#ArialMT-4e"/>
      <use xlink:href="#ArialMT-49" transform="translate(72.216797 0)"/>
      <use xlink:href="#ArialMT-45" transform="translate(100 0)"/>
      <use xlink:href="#ArialMT-4f" transform="translate(166.699219 0)"/>
      <use xlink:href="#ArialMT-44" transform="translate(244.482422 0)"/>
     </g>
    </g>
    <g id="line2d_42">
     <path d="M 631.908906 98.266875 
L 640.908906 98.266875 
L 649.908906 98.266875 
" style="fill: none; stroke: #e31818; stroke-width: 2.5; stroke-linecap: square"/>
     <g>
      <use xlink:href="#mc7cdd9084a" x="640.908906" y="98.266875" style="fill: #e31818; stroke: #e31818"/>
     </g>
    </g>
    <g id="text_24">
     <!-- NMIGOD -->
     <g transform="translate(657.108906 101.416875) scale(0.09 -0.09)">
      <defs>
       <path id="ArialMT-4d" d="M 475 0 
L 475 4581 
L 1388 4581 
L 2472 1338 
Q 2622 884 2691 659 
Q 2769 909 2934 1394 
L 4031 4581 
L 4847 4581 
L 4847 0 
L 4263 0 
L 4263 3834 
L 2931 0 
L 2384 0 
L 1059 3900 
L 1059 0 
L 475 0 
z
" transform="scale(0.015625)"/>
      </defs>
      <use xlink:href="#ArialMT-4e"/>
      <use xlink:href="#ArialMT-4d" transform="translate(72.216797 0)"/>
      <use xlink:href="#ArialMT-49" transform="translate(155.517578 0)"/>
      <use xlink:href="#ArialMT-47" transform="translate(183.300781 0)"/>
      <use xlink:href="#ArialMT-4f" transform="translate(261.083984 0)"/>
      <use xlink:href="#ArialMT-44" transform="translate(338.867188 0)"/>
     </g>
    </g>
   </g>
  </g>
 </g>
 <defs>
  <clipPath id="p5a042e36cf">
   <rect x="43.0575" y="23.220937" width="662.65" height="363.88"/>
  </clipPath>
 </defs>
</svg>
