<?xml version="1.0" encoding="utf-8" standalone="no"?>
<!DOCTYPE svg PUBLIC "-//W3C//DTD SVG 1.1//EN"
  "http://www.w3.org/Graphics/SVG/1.1/DTD/svg11.dtd">
<svg xmlns:xlink="http://www.w3.org/1999/xlink" width="712.8825pt" height="569.40375pt" viewBox="0 0 712.8825 569.40375" xmlns="http://www.w3.org/2000/svg" version="1.1">
 <metadata>
  <rdf:RDF xmlns:dc="http://purl.org/dc/elements/1.1/" xmlns:cc="http://creativecommons.org/ns#" xmlns:rdf="http://www.w3.org/1999/02/22-rdf-syntax-ns#">
   <cc:Work>
    <dc:type rdf:resource="http://purl.org/dc/dcmitype/StillImage"/>
    <dc:date>2026-06-11T18:29:01.202312</dc:date>
    <dc:format>image/svg+xml</dc:format>
    <dc:creator>
     <cc:Agent>
      <dc:title>Matplotlib v3.10.0, https://matplotlib.org/</dc:title>
     </cc:Agent>
    </dc:creator>
   </cc:Work>
  </rdf:RDF>
 </metadata>
 <defs>
  <style type="text/css">*{stroke-linejoin: round; stroke-linecap: butt}</style>
 </defs>
 <g id="figure_1">
  <g id="patch_1">
   <path d="M -0 569.40375 
L 712.8825 569.40375 
L 712.8825 0 
L -0 0 
z
" style="fill: #ffffff"/>
  </g>
  <g id="axes_1">
   <g id="patch_2">
    <path d="M 43.0575 531.100937 
L 698.7325 531.100937 
L 698.7325 23.220937 
L 43.0575 23.220937 
z
" style="fill: #ffffff"/>
   </g>
   <g id="matplotlib.axis_1">
    <g id="xtick_1">
     <g id="line2d_1">
      <path d="M 43.0575 531.100937 
L 43.0575 23.220937 
" clip-path="url(#pc8555957b5)" style="fill: none; stroke-dasharray: 2.96,1.28; stroke-dashoffset: 0; stroke: #b0b0b0; stroke-opacity: 0.5; stroke-width: 0.8"/>
     </g>
     <g id="line2d_2">
      <defs>
       <path id="mfb63e8ad85" d="M 0 0 
L 0 3.5 
" style="stroke: #000000; stroke-width: 0.8"/>
      </defs>
      <g>
       <use xlink:href="#mfb63e8ad85" x="43.0575" y="531.100937" style="stroke: #000000; stroke-width: 0.8"/>
      </g>
     </g>
     <g id="text_1">
      <!-- 0.0 -->
      <g transform="translate(36.1075 545.25875) scale(0.1 -0.1)">
       <defs>
        <path id="ArialMT-30" d="M 266 2259 
Q 266 3072 433 3567 
Q 600 4063 929 4331 
Q 1259 4600 1759 4600 
Q 2128 4600 2406 4451 
Q 2684 4303 2865 4023 
Q 3047 3744 3150 3342 
Q 3253 2941 3253 2259 
Q 3253 1453 3087 958 
Q 2922 463 2592 192 
Q 2263 -78 1759 -78 
Q 1097 -78 719 397 
Q 266 969 266 2259 
z
M 844 2259 
Q 844 1131 1108 757 
Q 1372 384 1759 384 
Q 2147 384 2411 759 
Q 2675 1134 2675 2259 
Q 2675 3391 2411 3762 
Q 2147 4134 1753 4134 
Q 1366 4134 1134 3806 
Q 844 3388 844 2259 
z
" transform="scale(0.015625)"/>
        <path id="ArialMT-2e" d="M 581 0 
L 581 641 
L 1222 641 
L 1222 0 
L 581 0 
z
" transform="scale(0.015625)"/>
       </defs>
       <use xlink:href="#ArialMT-30"/>
       <use xlink:href="#ArialMT-2e" transform="translate(55.615234 0)"/>
       <use xlink:href="#ArialMT-30" transform="translate(83.398438 0)"/>
      </g>
     </g>
    </g>
    <g id="xtick_2">
     <g id="line2d_3">
      <path d="M 174.1925 531.100937 
L 174.1925 23.220937 
" clip-path="url(#pc8555957b5)" style="fill: none; stroke-dasharray: 2.96,1.28; stroke-dashoffset: 0; stroke: #b0b0b0; stroke-opacity: 0.5; stroke-width: 0.8"/>
     </g>
     <g id="line2d_4">
      <g>
       <use xlink:href="#mfb63e8ad85" x="174.1925" y="531.100937" style="stroke: #000000; stroke-width: 0.8"/>
      </g>
     </g>
     <g id="text_2">
      <!-- 0.2 -->
      <g transform="translate(167.2425 545.25875) scale(0.1 -0.1)">
       <defs>
        <path id="ArialMT-32" d="M 3222 541 
L 3222 0 
L 194 0 
Q 188 203 259 391 
Q 375 700 629 1000 
Q 884 1300 1366 1694 
Q 2113 2306 2375 2664 
Q 2638 3022 2638 3341 
Q 2638 3675 2398 3904 
Q 2159 4134 1775 4134 
Q 1369 4134 1125 3890 
Q 881 3647 878 3216 
L 300 3275 
Q 359 3922 746 4261 
Q 1134 4600 1788 4600 
Q 2447 4600 2831 4234 
Q 3216 3869 3216 3328 
Q 3216 3053 3103 2787 
Q 2991 2522 2730 2228 
Q 2469 1934 1863 1422 
Q 1356 997 1212 845 
Q 1069 694 975 541 
L 3222 541 
z
" transform="scale(0.015625)"/>
       </defs>
       <use xlink:href="#ArialMT-30"/>
       <use xlink:href="#ArialMT-2e" transform="translate(55.615234 0)"/>
       <use xlink:href="#ArialMT-32" transform="translate(83.398438 0)"/>
      </g>
     </g>
    </g>
    <g id="xtick_3">
     <g id="line2d_5">
      <path d="M 305.3275 531.100937 
L 305.3275 23.220937 
" clip-path="url(#pc8555957b5)" style="fill: none; stroke-dasharray: 2.96,1.28; stroke-dashoffset: 0; stroke: #b0b0b0; stroke-opacity: 0.5; stroke-width: 0.8"/>
     </g>
     <g id="line2d_6">
      <g>
       <use xlink:href="#mfb63e8ad85" x="305.3275" y="531.100937" style="stroke: #000000; stroke-width: 0.8"/>
      </g>
     </g>
     <g id="text_3">
      <!-- 0.4 -->
      <g transform="translate(298.3775 545.25875) scale(0.1 -0.1)">
       <defs>
        <path id="ArialMT-34" d="M 2069 0 
L 2069 1097 
L 81 1097 
L 81 1613 
L 2172 4581 
L 2631 4581 
L 2631 1613 
L 3250 1613 
L 3250 1097 
L 2631 1097 
L 2631 0 
L 2069 0 
z
M 2069 1613 
L 2069 3678 
L 634 1613 
L 2069 1613 
z
" transform="scale(0.015625)"/>
       </defs>
       <use xlink:href="#ArialMT-30"/>
       <use xlink:href="#ArialMT-2e" transform="translate(55.615234 0)"/>
       <use xlink:href="#ArialMT-34" transform="translate(83.398438 0)"/>
      </g>
     </g>
    </g>
    <g id="xtick_4">
     <g id="line2d_7">
      <path d="M 436.4625 531.100937 
L 436.4625 23.220937 
" clip-path="url(#pc8555957b5)" style="fill: none; stroke-dasharray: 2.96,1.28; stroke-dashoffset: 0; stroke: #b0b0b0; stroke-opacity: 0.5; stroke-width: 0.8"/>
     </g>
     <g id="line2d_8">
      <g>
       <use xlink:href="#mfb63e8ad85" x="436.4625" y="531.100937" style="stroke: #000000; stroke-width: 0.8"/>
      </g>
     </g>
     <g id="text_4">
      <!-- 0.6 -->
      <g transform="translate(429.5125 545.25875) scale(0.1 -0.1)">
       <defs>
        <path id="ArialMT-36" d="M 3184 3459 
L 2625 3416 
Q 2550 3747 2413 3897 
Q 2184 4138 1850 4138 
Q 1581 4138 1378 3988 
Q 1113 3794 959 3422 
Q 806 3050 800 2363 
Q 1003 2672 1297 2822 
Q 1591 2972 1913 2972 
Q 2475 2972 2870 2558 
Q 3266 2144 3266 1488 
Q 3266 1056 3080 686 
Q 2894 316 2569 119 
Q 2244 -78 1831 -78 
Q 1128 -78 684 439 
Q 241 956 241 2144 
Q 241 3472 731 4075 
Q 1159 4600 1884 4600 
Q 2425 4600 2770 4297 
Q 3116 3994 3184 3459 
z
M 888 1484 
Q 888 1194 1011 928 
Q 1134 663 1356 523 
Q 1578 384 1822 384 
Q 2178 384 2434 671 
Q 2691 959 2691 1453 
Q 2691 1928 2437 2201 
Q 2184 2475 1800 2475 
Q 1419 2475 1153 2201 
Q 888 1928 888 1484 
z
" transform="scale(0.015625)"/>
       </defs>
       <use xlink:href="#ArialMT-30"/>
       <use xlink:href="#ArialMT-2e" transform="translate(55.615234 0)"/>
       <use xlink:href="#ArialMT-36" transform="translate(83.398438 0)"/>
      </g>
     </g>
    </g>
    <g id="xtick_5">
     <g id="line2d_9">
      <path d="M 567.5975 531.100937 
L 567.5975 23.220937 
" clip-path="url(#pc8555957b5)" style="fill: none; stroke-dasharray: 2.96,1.28; stroke-dashoffset: 0; stroke: #b0b0b0; stroke-opacity: 0.5; stroke-width: 0.8"/>
     </g>
     <g id="line2d_10">
      <g>
       <use xlink:href="#mfb63e8ad85" x="567.5975" y="531.100937" style="stroke: #000000; stroke-width: 0.8"/>
      </g>
     </g>
     <g id="text_5">
      <!-- 0.8 -->
      <g transform="translate(560.6475 545.25875) scale(0.1 -0.1)">
       <defs>
        <path id="ArialMT-38" d="M 1131 2484 
Q 781 2613 612 2850 
Q 444 3088 444 3419 
Q 444 3919 803 4259 
Q 1163 4600 1759 4600 
Q 2359 4600 2725 4251 
Q 3091 3903 3091 3403 
Q 3091 3084 2923 2848 
Q 2756 2613 2416 2484 
Q 2838 2347 3058 2040 
Q 3278 1734 3278 1309 
Q 3278 722 2862 322 
Q 2447 -78 1769 -78 
Q 1091 -78 675 323 
Q 259 725 259 1325 
Q 259 1772 486 2073 
Q 713 2375 1131 2484 
z
M 1019 3438 
Q 1019 3113 1228 2906 
Q 1438 2700 1772 2700 
Q 2097 2700 2305 2904 
Q 2513 3109 2513 3406 
Q 2513 3716 2298 3927 
Q 2084 4138 1766 4138 
Q 1444 4138 1231 3931 
Q 1019 3725 1019 3438 
z
M 838 1322 
Q 838 1081 952 856 
Q 1066 631 1291 507 
Q 1516 384 1775 384 
Q 2178 384 2440 643 
Q 2703 903 2703 1303 
Q 2703 1709 2433 1975 
Q 2163 2241 1756 2241 
Q 1359 2241 1098 1978 
Q 838 1716 838 1322 
z
" transform="scale(0.015625)"/>
       </defs>
       <use xlink:href="#ArialMT-30"/>
       <use xlink:href="#ArialMT-2e" transform="translate(55.615234 0)"/>
       <use xlink:href="#ArialMT-38" transform="translate(83.398438 0)"/>
      </g>
     </g>
    </g>
    <g id="xtick_6">
     <g id="line2d_11">
      <path d="M 698.7325 531.100937 
L 698.7325 23.220937 
" clip-path="url(#pc8555957b5)" style="fill: none; stroke-dasharray: 2.96,1.28; stroke-dashoffset: 0; stroke: #b0b0b0; stroke-opacity: 0.5; stroke-width: 0.8"/>
     </g>
     <g id="line2d_12">
      <g>
       <use xlink:href="#mfb63e8ad85" x="698.7325" y="531.100937" style="stroke: #000000; stroke-width: 0.8"/>
      </g>
     </g>
     <g id="text_6">
      <!-- 1.0 -->
      <g transform="translate(691.7825 545.25875) scale(0.1 -0.1)">
       <defs>
        <path id="ArialMT-31" d="M 2384 0 
L 1822 0 
L 1822 3584 
Q 1619 3391 1289 3197 
Q 959 3003 697 2906 
L 697 3450 
Q 1169 3672 1522 3987 
Q 1875 4303 2022 4600 
L 2384 4600 
L 2384 0 
z
" transform="scale(0.015625)"/>
       </defs>
       <use xlink:href="#ArialMT-31"/>
       <use xlink:href="#ArialMT-2e" transform="translate(55.615234 0)"/>
       <use xlink:href="#ArialMT-30" transform="translate(83.398438 0)"/>
      </g>
     </g>
    </g>
    <g id="text_7">
     <!-- False Positive Rate -->
     <g transform="translate(316.207813 559.835625) scale(0.12 -0.12)">
      <defs>
       <path id="Arial-BoldMT-46" d="M 472 0 
L 472 4581 
L 3613 4581 
L 3613 3806 
L 1397 3806 
L 1397 2722 
L 3309 2722 
L 3309 1947 
L 1397 1947 
L 1397 0 
L 472 0 
z
" transform="scale(0.015625)"/>
       <path id="Arial-BoldMT-61" d="M 1116 2306 
L 319 2450 
Q 453 2931 781 3162 
Q 1109 3394 1756 3394 
Q 2344 3394 2631 3255 
Q 2919 3116 3036 2902 
Q 3153 2688 3153 2116 
L 3144 1091 
Q 3144 653 3186 445 
Q 3228 238 3344 0 
L 2475 0 
Q 2441 88 2391 259 
Q 2369 338 2359 363 
Q 2134 144 1878 34 
Q 1622 -75 1331 -75 
Q 819 -75 523 203 
Q 228 481 228 906 
Q 228 1188 362 1408 
Q 497 1628 739 1745 
Q 981 1863 1438 1950 
Q 2053 2066 2291 2166 
L 2291 2253 
Q 2291 2506 2166 2614 
Q 2041 2722 1694 2722 
Q 1459 2722 1328 2630 
Q 1197 2538 1116 2306 
z
M 2291 1594 
Q 2122 1538 1756 1459 
Q 1391 1381 1278 1306 
Q 1106 1184 1106 997 
Q 1106 813 1243 678 
Q 1381 544 1594 544 
Q 1831 544 2047 700 
Q 2206 819 2256 991 
Q 2291 1103 2291 1419 
L 2291 1594 
z
" transform="scale(0.015625)"/>
       <path id="Arial-BoldMT-6c" d="M 459 0 
L 459 4581 
L 1338 4581 
L 1338 0 
L 459 0 
z
" transform="scale(0.015625)"/>
       <path id="Arial-BoldMT-73" d="M 150 947 
L 1031 1081 
Q 1088 825 1259 692 
Q 1431 559 1741 559 
Q 2081 559 2253 684 
Q 2369 772 2369 919 
Q 2369 1019 2306 1084 
Q 2241 1147 2013 1200 
Q 950 1434 666 1628 
Q 272 1897 272 2375 
Q 272 2806 612 3100 
Q 953 3394 1669 3394 
Q 2350 3394 2681 3172 
Q 3013 2950 3138 2516 
L 2309 2363 
Q 2256 2556 2107 2659 
Q 1959 2763 1684 2763 
Q 1338 2763 1188 2666 
Q 1088 2597 1088 2488 
Q 1088 2394 1175 2328 
Q 1294 2241 1995 2081 
Q 2697 1922 2975 1691 
Q 3250 1456 3250 1038 
Q 3250 581 2869 253 
Q 2488 -75 1741 -75 
Q 1063 -75 667 200 
Q 272 475 150 947 
z
" transform="scale(0.015625)"/>
       <path id="Arial-BoldMT-65" d="M 2381 1056 
L 3256 909 
Q 3088 428 2723 176 
Q 2359 -75 1813 -75 
Q 947 -75 531 491 
Q 203 944 203 1634 
Q 203 2459 634 2926 
Q 1066 3394 1725 3394 
Q 2466 3394 2894 2905 
Q 3322 2416 3303 1406 
L 1103 1406 
Q 1113 1016 1316 798 
Q 1519 581 1822 581 
Q 2028 581 2168 693 
Q 2309 806 2381 1056 
z
M 2431 1944 
Q 2422 2325 2234 2523 
Q 2047 2722 1778 2722 
Q 1491 2722 1303 2513 
Q 1116 2303 1119 1944 
L 2431 1944 
z
" transform="scale(0.015625)"/>
       <path id="Arial-BoldMT-20" transform="scale(0.015625)"/>
       <path id="Arial-BoldMT-50" d="M 466 0 
L 466 4581 
L 1950 4581 
Q 2794 4581 3050 4513 
Q 3444 4409 3709 4064 
Q 3975 3719 3975 3172 
Q 3975 2750 3822 2462 
Q 3669 2175 3433 2011 
Q 3197 1847 2953 1794 
Q 2622 1728 1994 1728 
L 1391 1728 
L 1391 0 
L 466 0 
z
M 1391 3806 
L 1391 2506 
L 1897 2506 
Q 2444 2506 2628 2578 
Q 2813 2650 2917 2803 
Q 3022 2956 3022 3159 
Q 3022 3409 2875 3571 
Q 2728 3734 2503 3775 
Q 2338 3806 1838 3806 
L 1391 3806 
z
" transform="scale(0.015625)"/>
       <path id="Arial-BoldMT-6f" d="M 256 1706 
Q 256 2144 472 2553 
Q 688 2963 1083 3178 
Q 1478 3394 1966 3394 
Q 2719 3394 3200 2905 
Q 3681 2416 3681 1669 
Q 3681 916 3195 420 
Q 2709 -75 1972 -75 
Q 1516 -75 1102 131 
Q 688 338 472 736 
Q 256 1134 256 1706 
z
M 1156 1659 
Q 1156 1166 1390 903 
Q 1625 641 1969 641 
Q 2313 641 2545 903 
Q 2778 1166 2778 1666 
Q 2778 2153 2545 2415 
Q 2313 2678 1969 2678 
Q 1625 2678 1390 2415 
Q 1156 2153 1156 1659 
z
" transform="scale(0.015625)"/>
       <path id="Arial-BoldMT-69" d="M 459 3769 
L 459 4581 
L 1338 4581 
L 1338 3769 
L 459 3769 
z
M 459 0 
L 459 3319 
L 1338 3319 
L 1338 0 
L 459 0 
z
" transform="scale(0.015625)"/>
       <path id="Arial-BoldMT-74" d="M 1981 3319 
L 1981 2619 
L 1381 2619 
L 1381 1281 
Q 1381 875 1398 808 
Q 1416 741 1477 697 
Q 1538 653 1625 653 
Q 1747 653 1978 738 
L 2053 56 
Q 1747 -75 1359 -75 
Q 1122 -75 931 4 
Q 741 84 652 211 
Q 563 338 528 553 
Q 500 706 500 1172 
L 500 2619 
L 97 2619 
L 97 3319 
L 500 3319 
L 500 3978 
L 1381 4491 
L 1381 3319 
L 1981 3319 
z
" transform="scale(0.015625)"/>
       <path id="Arial-BoldMT-76" d="M 1372 0 
L 34 3319 
L 956 3319 
L 1581 1625 
L 1763 1059 
Q 1834 1275 1853 1344 
Q 1897 1484 1947 1625 
L 2578 3319 
L 3481 3319 
L 2163 0 
L 1372 0 
z
" transform="scale(0.015625)"/>
       <path id="Arial-BoldMT-52" d="M 469 0 
L 469 4581 
L 2416 4581 
Q 3150 4581 3483 4457 
Q 3816 4334 4016 4018 
Q 4216 3703 4216 3297 
Q 4216 2781 3912 2445 
Q 3609 2109 3006 2022 
Q 3306 1847 3501 1637 
Q 3697 1428 4028 894 
L 4588 0 
L 3481 0 
L 2813 997 
Q 2456 1531 2325 1670 
Q 2194 1809 2047 1861 
Q 1900 1913 1581 1913 
L 1394 1913 
L 1394 0 
L 469 0 
z
M 1394 2644 
L 2078 2644 
Q 2744 2644 2909 2700 
Q 3075 2756 3169 2893 
Q 3263 3031 3263 3238 
Q 3263 3469 3139 3611 
Q 3016 3753 2791 3791 
Q 2678 3806 2116 3806 
L 1394 3806 
L 1394 2644 
z
" transform="scale(0.015625)"/>
      </defs>
      <use xlink:href="#Arial-BoldMT-46"/>
      <use xlink:href="#Arial-BoldMT-61" transform="translate(61.083984 0)"/>
      <use xlink:href="#Arial-BoldMT-6c" transform="translate(116.699219 0)"/>
      <use xlink:href="#Arial-BoldMT-73" transform="translate(144.482422 0)"/>
      <use xlink:href="#Arial-BoldMT-65" transform="translate(200.097656 0)"/>
      <use xlink:href="#Arial-BoldMT-20" transform="translate(255.712891 0)"/>
      <use xlink:href="#Arial-BoldMT-50" transform="translate(283.496094 0)"/>
      <use xlink:href="#Arial-BoldMT-6f" transform="translate(350.195312 0)"/>
      <use xlink:href="#Arial-BoldMT-73" transform="translate(411.279297 0)"/>
      <use xlink:href="#Arial-BoldMT-69" transform="translate(466.894531 0)"/>
      <use xlink:href="#Arial-BoldMT-74" transform="translate(494.677734 0)"/>
      <use xlink:href="#Arial-BoldMT-69" transform="translate(527.978516 0)"/>
      <use xlink:href="#Arial-BoldMT-76" transform="translate(555.761719 0)"/>
      <use xlink:href="#Arial-BoldMT-65" transform="translate(611.376953 0)"/>
      <use xlink:href="#Arial-BoldMT-20" transform="translate(666.992188 0)"/>
      <use xlink:href="#Arial-BoldMT-52" transform="translate(694.775391 0)"/>
      <use xlink:href="#Arial-BoldMT-61" transform="translate(766.992188 0)"/>
      <use xlink:href="#Arial-BoldMT-74" transform="translate(822.607422 0)"/>
      <use xlink:href="#Arial-BoldMT-65" transform="translate(855.908203 0)"/>
     </g>
    </g>
   </g>
   <g id="matplotlib.axis_2">
    <g id="ytick_1">
     <g id="line2d_13">
      <path d="M 43.0575 531.100937 
L 698.7325 531.100937 
" clip-path="url(#pc8555957b5)" style="fill: none; stroke-dasharray: 2.96,1.28; stroke-dashoffset: 0; stroke: #b0b0b0; stroke-opacity: 0.5; stroke-width: 0.8"/>
     </g>
     <g id="line2d_14">
      <defs>
       <path id="m6501cf3dde" d="M 0 0 
L -3.5 0 
" style="stroke: #000000; stroke-width: 0.8"/>
      </defs>
      <g>
       <use xlink:href="#m6501cf3dde" x="43.0575" y="531.100937" style="stroke: #000000; stroke-width: 0.8"/>
      </g>
     </g>
     <g id="text_8">
      <!-- 0.0 -->
      <g transform="translate(22.1575 534.679844) scale(0.1 -0.1)">
       <use xlink:href="#ArialMT-30"/>
       <use xlink:href="#ArialMT-2e" transform="translate(55.615234 0)"/>
       <use xlink:href="#ArialMT-30" transform="translate(83.398438 0)"/>
      </g>
     </g>
    </g>
    <g id="ytick_2">
     <g id="line2d_15">
      <path d="M 43.0575 434.36189 
L 698.7325 434.36189 
" clip-path="url(#pc8555957b5)" style="fill: none; stroke-dasharray: 2.96,1.28; stroke-dashoffset: 0; stroke: #b0b0b0; stroke-opacity: 0.5; stroke-width: 0.8"/>
     </g>
     <g id="line2d_16">
      <g>
       <use xlink:href="#m6501cf3dde" x="43.0575" y="434.36189" style="stroke: #000000; stroke-width: 0.8"/>
      </g>
     </g>
     <g id="text_9">
      <!-- 0.2 -->
      <g transform="translate(22.1575 437.940796) scale(0.1 -0.1)">
       <use xlink:href="#ArialMT-30"/>
       <use xlink:href="#ArialMT-2e" transform="translate(55.615234 0)"/>
       <use xlink:href="#ArialMT-32" transform="translate(83.398438 0)"/>
      </g>
     </g>
    </g>
    <g id="ytick_3">
     <g id="line2d_17">
      <path d="M 43.0575 337.622842 
L 698.7325 337.622842 
" clip-path="url(#pc8555957b5)" style="fill: none; stroke-dasharray: 2.96,1.28; stroke-dashoffset: 0; stroke: #b0b0b0; stroke-opacity: 0.5; stroke-width: 0.8"/>
     </g>
     <g id="line2d_18">
      <g>
       <use xlink:href="#m6501cf3dde" x="43.0575" y="337.622842" style="stroke: #000000; stroke-width: 0.8"/>
      </g>
     </g>
     <g id="text_10">
      <!-- 0.4 -->
      <g transform="translate(22.1575 341.201749) scale(0.1 -0.1)">
       <use xlink:href="#ArialMT-30"/>
       <use xlink:href="#ArialMT-2e" transform="translate(55.615234 0)"/>
       <use xlink:href="#ArialMT-34" transform="translate(83.398438 0)"/>
      </g>
     </g>
    </g>
    <g id="ytick_4">
     <g id="line2d_19">
      <path d="M 43.0575 240.883795 
L 698.7325 240.883795 
" clip-path="url(#pc8555957b5)" style="fill: none; stroke-dasharray: 2.96,1.28; stroke-dashoffset: 0; stroke: #b0b0b0; stroke-opacity: 0.5; stroke-width: 0.8"/>
     </g>
     <g id="line2d_20">
      <g>
       <use xlink:href="#m6501cf3dde" x="43.0575" y="240.883795" style="stroke: #000000; stroke-width: 0.8"/>
      </g>
     </g>
     <g id="text_11">
      <!-- 0.6 -->
      <g transform="translate(22.1575 244.462701) scale(0.1 -0.1)">
       <use xlink:href="#ArialMT-30"/>
       <use xlink:href="#ArialMT-2e" transform="translate(55.615234 0)"/>
       <use xlink:href="#ArialMT-36" transform="translate(83.398438 0)"/>
      </g>
     </g>
    </g>
    <g id="ytick_5">
     <g id="line2d_21">
      <path d="M 43.0575 144.144747 
L 698.7325 144.144747 
" clip-path="url(#pc8555957b5)" style="fill: none; stroke-dasharray: 2.96,1.28; stroke-dashoffset: 0; stroke: #b0b0b0; stroke-opacity: 0.5; stroke-width: 0.8"/>
     </g>
     <g id="line2d_22">
      <g>
       <use xlink:href="#m6501cf3dde" x="43.0575" y="144.144747" style="stroke: #000000; stroke-width: 0.8"/>
      </g>
     </g>
     <g id="text_12">
      <!-- 0.8 -->
      <g transform="translate(22.1575 147.723653) scale(0.1 -0.1)">
       <use xlink:href="#ArialMT-30"/>
       <use xlink:href="#ArialMT-2e" transform="translate(55.615234 0)"/>
       <use xlink:href="#ArialMT-38" transform="translate(83.398438 0)"/>
      </g>
     </g>
    </g>
    <g id="ytick_6">
     <g id="line2d_23">
      <path d="M 43.0575 47.405699 
L 698.7325 47.405699 
" clip-path="url(#pc8555957b5)" style="fill: none; stroke-dasharray: 2.96,1.28; stroke-dashoffset: 0; stroke: #b0b0b0; stroke-opacity: 0.5; stroke-width: 0.8"/>
     </g>
     <g id="line2d_24">
      <g>
       <use xlink:href="#m6501cf3dde" x="43.0575" y="47.405699" style="stroke: #000000; stroke-width: 0.8"/>
      </g>
     </g>
     <g id="text_13">
      <!-- 1.0 -->
      <g transform="translate(22.1575 50.984606) scale(0.1 -0.1)">
       <use xlink:href="#ArialMT-31"/>
       <use xlink:href="#ArialMT-2e" transform="translate(55.615234 0)"/>
       <use xlink:href="#ArialMT-30" transform="translate(83.398438 0)"/>
      </g>
     </g>
    </g>
    <g id="text_14">
     <!-- True Positive Rate -->
     <g transform="translate(15.789375 329.178125) rotate(-90) scale(0.12 -0.12)">
      <defs>
       <path id="Arial-BoldMT-54" d="M 1497 0 
L 1497 3806 
L 138 3806 
L 138 4581 
L 3778 4581 
L 3778 3806 
L 2422 3806 
L 2422 0 
L 1497 0 
z
" transform="scale(0.015625)"/>
       <path id="Arial-BoldMT-72" d="M 1300 0 
L 422 0 
L 422 3319 
L 1238 3319 
L 1238 2847 
Q 1447 3181 1614 3287 
Q 1781 3394 1994 3394 
Q 2294 3394 2572 3228 
L 2300 2463 
Q 2078 2606 1888 2606 
Q 1703 2606 1575 2504 
Q 1447 2403 1373 2137 
Q 1300 1872 1300 1025 
L 1300 0 
z
" transform="scale(0.015625)"/>
       <path id="Arial-BoldMT-75" d="M 2644 0 
L 2644 497 
Q 2463 231 2167 78 
Q 1872 -75 1544 -75 
Q 1209 -75 943 72 
Q 678 219 559 484 
Q 441 750 441 1219 
L 441 3319 
L 1319 3319 
L 1319 1794 
Q 1319 1094 1367 936 
Q 1416 778 1544 686 
Q 1672 594 1869 594 
Q 2094 594 2272 717 
Q 2450 841 2515 1023 
Q 2581 1206 2581 1919 
L 2581 3319 
L 3459 3319 
L 3459 0 
L 2644 0 
z
" transform="scale(0.015625)"/>
      </defs>
      <use xlink:href="#Arial-BoldMT-54"/>
      <use xlink:href="#Arial-BoldMT-72" transform="translate(55.583984 0)"/>
      <use xlink:href="#Arial-BoldMT-75" transform="translate(94.5 0)"/>
      <use xlink:href="#Arial-BoldMT-65" transform="translate(155.583984 0)"/>
      <use xlink:href="#Arial-BoldMT-20" transform="translate(211.199219 0)"/>
      <use xlink:href="#Arial-BoldMT-50" transform="translate(238.982422 0)"/>
      <use xlink:href="#Arial-BoldMT-6f" transform="translate(305.681641 0)"/>
      <use xlink:href="#Arial-BoldMT-73" transform="translate(366.765625 0)"/>
      <use xlink:href="#Arial-BoldMT-69" transform="translate(422.380859 0)"/>
      <use xlink:href="#Arial-BoldMT-74" transform="translate(450.164062 0)"/>
      <use xlink:href="#Arial-BoldMT-69" transform="translate(483.464844 0)"/>
      <use xlink:href="#Arial-BoldMT-76" transform="translate(511.248047 0)"/>
      <use xlink:href="#Arial-BoldMT-65" transform="translate(566.863281 0)"/>
      <use xlink:href="#Arial-BoldMT-20" transform="translate(622.478516 0)"/>
      <use xlink:href="#Arial-BoldMT-52" transform="translate(650.261719 0)"/>
      <use xlink:href="#Arial-BoldMT-61" transform="translate(722.478516 0)"/>
      <use xlink:href="#Arial-BoldMT-74" transform="translate(778.09375 0)"/>
      <use xlink:href="#Arial-BoldMT-65" transform="translate(811.394531 0)"/>
     </g>
    </g>
   </g>
   <g id="line2d_25">
    <path d="M 43.0575 531.100937 
L 49.464748 531.100937 
L 51.600497 527.322068 
L 55.871995 527.322068 
L 55.871995 523.543199 
L 60.143493 523.543199 
L 60.143493 493.312247 
L 62.279243 493.312247 
L 62.279243 489.533378 
L 66.550741 489.533378 
L 66.550741 485.754509 
L 68.68649 485.754509 
L 68.68649 478.196771 
L 72.957989 478.196771 
L 72.957989 474.417902 
L 75.093738 474.417902 
L 75.093738 470.639033 
L 79.365236 470.639033 
L 79.365236 466.860164 
L 85.772484 466.860164 
L 85.772484 463.081295 
L 92.179731 463.081295 
L 92.179731 447.965818 
L 100.722728 447.965818 
L 100.722728 436.629211 
L 102.858477 436.629211 
L 102.858477 429.071473 
L 104.994226 429.071473 
L 104.994226 421.513735 
L 107.129976 421.513735 
L 107.129976 413.955997 
L 113.537223 413.955997 
L 113.537223 410.177128 
L 115.672972 410.177128 
L 115.672972 406.398259 
L 117.808721 406.398259 
L 117.808721 395.061652 
L 122.08022 395.061652 
L 122.08022 383.725045 
L 124.215969 383.725045 
L 124.215969 379.946176 
L 126.351718 379.946176 
L 126.351718 376.167307 
L 130.623217 376.167307 
L 130.623217 368.609568 
L 132.758966 368.609568 
L 132.758966 364.830699 
L 134.894715 364.830699 
L 134.894715 361.05183 
L 137.030464 361.05183 
L 137.030464 345.936354 
L 141.301963 345.936354 
L 141.301963 342.157485 
L 149.844959 342.157485 
L 149.844959 338.378616 
L 162.659454 338.378616 
L 162.659454 334.599747 
L 175.47395 334.599747 
L 175.47395 330.820878 
L 177.609699 330.820878 
L 177.609699 327.042009 
L 179.745448 327.042009 
L 179.745448 323.26314 
L 188.288445 323.26314 
L 188.288445 319.484271 
L 190.424194 319.484271 
L 190.424194 315.705402 
L 192.559943 315.705402 
L 192.559943 311.926533 
L 194.695692 311.926533 
L 194.695692 308.147664 
L 196.831441 308.147664 
L 196.831441 304.368795 
L 198.967191 304.368795 
L 198.967191 300.589926 
L 201.10294 300.589926 
L 201.10294 285.474449 
L 205.374438 285.474449 
L 205.374438 281.69558 
L 220.324682 281.69558 
L 220.324682 277.916711 
L 222.460432 277.916711 
L 222.460432 270.358973 
L 226.73193 270.358973 
L 226.73193 266.580104 
L 228.867679 266.580104 
L 228.867679 259.022366 
L 233.139178 259.022366 
L 233.139178 255.243497 
L 252.36092 255.243497 
L 252.36092 251.464628 
L 260.903917 251.464628 
L 260.903917 243.90689 
L 267.311164 243.90689 
L 267.311164 240.128021 
L 271.582663 240.128021 
L 271.582663 232.570283 
L 286.532907 232.570283 
L 286.532907 225.012545 
L 292.940155 225.012545 
L 292.940155 217.454807 
L 307.890399 217.454807 
L 307.890399 213.675937 
L 312.161897 213.675937 
L 312.161897 209.897068 
L 314.297647 209.897068 
L 314.297647 206.118199 
L 316.433396 206.118199 
L 316.433396 202.33933 
L 339.926637 202.33933 
L 339.926637 194.781592 
L 342.062386 194.781592 
L 342.062386 191.002723 
L 350.605383 191.002723 
L 350.605383 187.223854 
L 354.876881 187.223854 
L 354.876881 179.666116 
L 359.148379 179.666116 
L 359.148379 172.108378 
L 367.691376 172.108378 
L 367.691376 168.329509 
L 378.370122 168.329509 
L 378.370122 164.55064 
L 386.913119 164.55064 
L 386.913119 160.771771 
L 393.320366 160.771771 
L 393.320366 153.214033 
L 403.999112 153.214033 
L 403.999112 149.435164 
L 416.813607 149.435164 
L 416.813607 145.656295 
L 421.085106 145.656295 
L 421.085106 141.877426 
L 442.442598 141.877426 
L 442.442598 134.319687 
L 446.714096 134.319687 
L 446.714096 126.761949 
L 450.985594 126.761949 
L 450.985594 122.98308 
L 461.66434 122.98308 
L 461.66434 119.204211 
L 463.80009 119.204211 
L 463.80009 115.425342 
L 495.836327 115.425342 
L 495.836327 111.646473 
L 497.972077 111.646473 
L 497.972077 107.867604 
L 504.379324 107.867604 
L 504.379324 104.088735 
L 512.922321 104.088735 
L 512.922321 100.309866 
L 517.193819 100.309866 
L 517.193819 92.752128 
L 519.329568 92.752128 
L 519.329568 88.973259 
L 544.958559 88.973259 
L 544.958559 85.19439 
L 553.501555 85.19439 
L 553.501555 81.415521 
L 555.637305 81.415521 
L 555.637305 73.857783 
L 574.859047 73.857783 
L 574.859047 70.078914 
L 609.031034 70.078914 
L 609.031034 66.300045 
L 645.33877 66.300045 
L 645.33877 62.521176 
L 666.696262 62.521176 
L 666.696262 58.742307 
L 673.10351 58.742307 
L 673.10351 54.963437 
L 675.239259 54.963437 
L 675.239259 51.184568 
L 688.053754 51.184568 
L 688.053754 47.405699 
L 698.7325 47.405699 
L 698.7325 47.405699 
" clip-path="url(#pc8555957b5)" style="fill: none; stroke: #1f77b4; stroke-width: 2; stroke-linecap: square"/>
   </g>
   <g id="line2d_26">
    <path d="M 43.0575 531.100937 
L 49.464748 531.100937 
L 51.600497 527.322068 
L 55.871995 527.322068 
L 55.871995 519.76433 
L 58.007744 519.76433 
L 58.007744 515.985461 
L 64.414992 515.985461 
L 64.414992 512.206592 
L 70.822239 512.206592 
L 70.822239 508.427723 
L 72.957989 508.427723 
L 72.957989 504.648854 
L 77.229487 504.648854 
L 77.229487 500.869985 
L 83.636735 500.869985 
L 83.636735 497.091116 
L 85.772484 497.091116 
L 85.772484 493.312247 
L 92.179731 493.312247 
L 92.179731 489.533378 
L 94.31548 489.533378 
L 94.31548 485.754509 
L 98.586979 485.754509 
L 98.586979 481.97564 
L 100.722728 481.97564 
L 100.722728 474.417902 
L 109.265725 474.417902 
L 109.265725 451.744687 
L 117.808721 451.744687 
L 117.808721 447.965818 
L 128.487467 447.965818 
L 128.487467 444.186949 
L 137.030464 444.186949 
L 137.030464 429.071473 
L 139.166213 429.071473 
L 139.166213 425.292604 
L 143.437712 425.292604 
L 143.437712 421.513735 
L 149.844959 421.513735 
L 149.844959 410.177128 
L 151.980708 410.177128 
L 151.980708 402.61939 
L 164.795204 402.61939 
L 164.795204 398.840521 
L 166.930953 398.840521 
L 166.930953 395.061652 
L 171.202451 395.061652 
L 171.202451 391.282783 
L 175.47395 391.282783 
L 175.47395 387.503914 
L 177.609699 387.503914 
L 177.609699 383.725045 
L 181.881197 383.725045 
L 181.881197 379.946176 
L 188.288445 379.946176 
L 188.288445 368.609568 
L 190.424194 368.609568 
L 190.424194 364.830699 
L 196.831441 364.830699 
L 196.831441 357.272961 
L 216.053184 357.272961 
L 216.053184 353.494092 
L 220.324682 353.494092 
L 220.324682 349.715223 
L 222.460432 349.715223 
L 222.460432 345.936354 
L 224.596181 345.936354 
L 224.596181 342.157485 
L 233.139178 342.157485 
L 233.139178 338.378616 
L 237.410676 338.378616 
L 237.410676 334.599747 
L 239.546425 334.599747 
L 239.546425 330.820878 
L 241.682174 330.820878 
L 241.682174 327.042009 
L 250.225171 327.042009 
L 250.225171 323.26314 
L 252.36092 323.26314 
L 252.36092 315.705402 
L 258.768168 315.705402 
L 258.768168 311.926533 
L 260.903917 311.926533 
L 260.903917 304.368795 
L 265.175415 304.368795 
L 265.175415 296.811057 
L 275.854161 296.811057 
L 275.854161 293.032187 
L 280.12566 293.032187 
L 280.12566 289.253318 
L 284.397158 289.253318 
L 284.397158 285.474449 
L 292.940155 285.474449 
L 292.940155 277.916711 
L 301.483151 277.916711 
L 301.483151 266.580104 
L 303.618901 266.580104 
L 303.618901 259.022366 
L 305.75465 259.022366 
L 305.75465 255.243497 
L 310.026148 255.243497 
L 310.026148 251.464628 
L 331.38364 251.464628 
L 331.38364 243.90689 
L 333.519389 243.90689 
L 333.519389 236.349152 
L 339.926637 236.349152 
L 339.926637 232.570283 
L 344.198135 232.570283 
L 344.198135 228.791414 
L 363.419878 228.791414 
L 363.419878 225.012545 
L 365.555627 225.012545 
L 365.555627 213.675937 
L 367.691376 213.675937 
L 367.691376 206.118199 
L 408.270611 206.118199 
L 408.270611 202.33933 
L 418.949357 202.33933 
L 418.949357 198.560461 
L 423.220855 198.560461 
L 423.220855 194.781592 
L 436.03535 194.781592 
L 436.03535 191.002723 
L 440.306849 191.002723 
L 440.306849 187.223854 
L 446.714096 187.223854 
L 446.714096 183.444985 
L 448.849845 183.444985 
L 448.849845 179.666116 
L 470.207337 179.666116 
L 470.207337 175.887247 
L 480.886083 175.887247 
L 480.886083 172.108378 
L 485.157581 172.108378 
L 485.157581 168.329509 
L 489.42908 168.329509 
L 489.42908 164.55064 
L 495.836327 164.55064 
L 495.836327 160.771771 
L 504.379324 160.771771 
L 504.379324 156.992902 
L 521.465318 156.992902 
L 521.465318 153.214033 
L 527.872565 153.214033 
L 527.872565 149.435164 
L 530.008314 149.435164 
L 530.008314 145.656295 
L 536.415562 145.656295 
L 536.415562 141.877426 
L 542.822809 141.877426 
L 542.822809 138.098557 
L 551.365806 138.098557 
L 551.365806 134.319687 
L 553.501555 134.319687 
L 553.501555 122.98308 
L 555.637305 122.98308 
L 555.637305 119.204211 
L 564.180301 119.204211 
L 564.180301 111.646473 
L 566.31605 111.646473 
L 566.31605 104.088735 
L 570.587549 104.088735 
L 570.587549 96.530997 
L 576.994796 96.530997 
L 576.994796 92.752128 
L 579.130546 92.752128 
L 579.130546 88.973259 
L 587.673542 88.973259 
L 587.673542 81.415521 
L 589.809292 81.415521 
L 589.809292 73.857783 
L 602.623787 73.857783 
L 602.623787 70.078914 
L 628.252777 70.078914 
L 628.252777 66.300045 
L 634.660024 66.300045 
L 634.660024 62.521176 
L 645.33877 62.521176 
L 645.33877 58.742307 
L 683.782256 58.742307 
L 683.782256 54.963437 
L 690.189503 54.963437 
L 690.189503 51.184568 
L 696.596751 51.184568 
L 696.596751 47.405699 
L 698.7325 47.405699 
L 698.7325 47.405699 
" clip-path="url(#pc8555957b5)" style="fill: none; stroke: #ff7f0e; stroke-width: 2; stroke-linecap: square"/>
   </g>
   <g id="line2d_27">
    <path d="M 43.0575 531.100937 
L 43.0575 512.206592 
L 47.328998 512.206592 
L 47.328998 508.427723 
L 51.600497 508.427723 
L 51.600497 504.648854 
L 58.007744 504.648854 
L 58.007744 497.091116 
L 60.143493 497.091116 
L 60.143493 493.312247 
L 62.279243 493.312247 
L 62.279243 485.754509 
L 68.68649 485.754509 
L 68.68649 481.97564 
L 70.822239 481.97564 
L 70.822239 474.417902 
L 72.957989 474.417902 
L 72.957989 470.639033 
L 75.093738 470.639033 
L 75.093738 466.860164 
L 83.636735 466.860164 
L 83.636735 444.186949 
L 96.45123 444.186949 
L 96.45123 429.071473 
L 122.08022 429.071473 
L 122.08022 425.292604 
L 124.215969 425.292604 
L 124.215969 417.734866 
L 128.487467 417.734866 
L 128.487467 413.955997 
L 145.573461 413.955997 
L 145.573461 406.398259 
L 158.387956 406.398259 
L 158.387956 402.61939 
L 164.795204 402.61939 
L 164.795204 398.840521 
L 179.745448 398.840521 
L 179.745448 395.061652 
L 192.559943 395.061652 
L 192.559943 391.282783 
L 198.967191 391.282783 
L 198.967191 387.503914 
L 220.324682 387.503914 
L 220.324682 383.725045 
L 239.546425 383.725045 
L 239.546425 379.946176 
L 254.496669 379.946176 
L 254.496669 376.167307 
L 258.768168 376.167307 
L 258.768168 372.388437 
L 260.903917 372.388437 
L 260.903917 364.830699 
L 269.446914 364.830699 
L 269.446914 361.05183 
L 273.718412 361.05183 
L 273.718412 357.272961 
L 280.12566 357.272961 
L 280.12566 345.936354 
L 282.261409 345.936354 
L 282.261409 342.157485 
L 284.397158 342.157485 
L 284.397158 338.378616 
L 290.804406 338.378616 
L 290.804406 334.599747 
L 292.940155 334.599747 
L 292.940155 330.820878 
L 301.483151 330.820878 
L 301.483151 327.042009 
L 314.297647 327.042009 
L 314.297647 323.26314 
L 316.433396 323.26314 
L 316.433396 319.484271 
L 318.569145 319.484271 
L 318.569145 315.705402 
L 324.976393 315.705402 
L 324.976393 308.147664 
L 337.790888 308.147664 
L 337.790888 304.368795 
L 339.926637 304.368795 
L 339.926637 300.589926 
L 346.333884 300.589926 
L 346.333884 296.811057 
L 367.691376 296.811057 
L 367.691376 285.474449 
L 371.962875 285.474449 
L 371.962875 281.69558 
L 374.098624 281.69558 
L 374.098624 277.916711 
L 416.813607 277.916711 
L 416.813607 274.137842 
L 418.949357 274.137842 
L 418.949357 270.358973 
L 421.085106 270.358973 
L 421.085106 262.801235 
L 431.763852 262.801235 
L 431.763852 259.022366 
L 436.03535 259.022366 
L 436.03535 255.243497 
L 442.442598 255.243497 
L 442.442598 251.464628 
L 461.66434 251.464628 
L 461.66434 247.685759 
L 465.935839 247.685759 
L 465.935839 243.90689 
L 468.071588 243.90689 
L 468.071588 240.128021 
L 470.207337 240.128021 
L 470.207337 236.349152 
L 480.886083 236.349152 
L 480.886083 232.570283 
L 483.021832 232.570283 
L 483.021832 228.791414 
L 487.293331 228.791414 
L 487.293331 225.012545 
L 491.564829 225.012545 
L 491.564829 221.233676 
L 504.379324 221.233676 
L 504.379324 206.118199 
L 510.786572 206.118199 
L 510.786572 202.33933 
L 530.008314 202.33933 
L 530.008314 198.560461 
L 542.822809 198.560461 
L 542.822809 191.002723 
L 544.958559 191.002723 
L 544.958559 187.223854 
L 553.501555 187.223854 
L 553.501555 183.444985 
L 555.637305 183.444985 
L 555.637305 179.666116 
L 562.044552 179.666116 
L 562.044552 172.108378 
L 564.180301 172.108378 
L 564.180301 168.329509 
L 585.537793 168.329509 
L 585.537793 160.771771 
L 589.809292 160.771771 
L 589.809292 156.992902 
L 600.488037 156.992902 
L 600.488037 153.214033 
L 609.031034 153.214033 
L 609.031034 149.435164 
L 623.981279 149.435164 
L 623.981279 145.656295 
L 628.252777 145.656295 
L 628.252777 141.877426 
L 632.524275 141.877426 
L 632.524275 138.098557 
L 641.067272 138.098557 
L 641.067272 134.319687 
L 645.33877 134.319687 
L 645.33877 130.540818 
L 647.47452 130.540818 
L 647.47452 126.761949 
L 651.746018 126.761949 
L 651.746018 122.98308 
L 656.017516 122.98308 
L 656.017516 119.204211 
L 658.153265 119.204211 
L 658.153265 111.646473 
L 660.289015 111.646473 
L 660.289015 107.867604 
L 662.424764 107.867604 
L 662.424764 100.309866 
L 673.10351 100.309866 
L 673.10351 85.19439 
L 675.239259 85.19439 
L 675.239259 70.078914 
L 683.782256 70.078914 
L 683.782256 66.300045 
L 685.918005 66.300045 
L 685.918005 54.963437 
L 690.189503 54.963437 
L 690.189503 47.405699 
L 698.7325 47.405699 
L 698.7325 47.405699 
" clip-path="url(#pc8555957b5)" style="fill: none; stroke: #2ca02c; stroke-width: 2; stroke-linecap: square"/>
   </g>
   <g id="line2d_28">
    <path d="M 43.0575 531.100937 
L 51.600497 531.100937 
L 53.736246 527.322068 
L 55.871995 527.322068 
L 55.871995 523.543199 
L 58.007744 523.543199 
L 58.007744 519.76433 
L 64.414992 519.76433 
L 64.414992 515.985461 
L 68.68649 515.985461 
L 68.68649 512.206592 
L 72.957989 512.206592 
L 72.957989 508.427723 
L 79.365236 508.427723 
L 79.365236 497.091116 
L 81.500985 497.091116 
L 81.500985 485.754509 
L 87.908233 485.754509 
L 87.908233 478.196771 
L 90.043982 478.196771 
L 90.043982 474.417902 
L 94.31548 474.417902 
L 94.31548 463.081295 
L 96.45123 463.081295 
L 96.45123 459.302426 
L 98.586979 459.302426 
L 98.586979 451.744687 
L 104.994226 451.744687 
L 104.994226 447.965818 
L 111.401474 447.965818 
L 111.401474 440.40808 
L 117.808721 440.40808 
L 117.808721 436.629211 
L 119.944471 436.629211 
L 119.944471 432.850342 
L 130.623217 432.850342 
L 130.623217 429.071473 
L 132.758966 429.071473 
L 132.758966 425.292604 
L 137.030464 425.292604 
L 137.030464 417.734866 
L 154.116458 417.734866 
L 154.116458 402.61939 
L 162.659454 402.61939 
L 162.659454 391.282783 
L 164.795204 391.282783 
L 164.795204 379.946176 
L 171.202451 379.946176 
L 171.202451 376.167307 
L 175.47395 376.167307 
L 175.47395 372.388437 
L 177.609699 372.388437 
L 177.609699 364.830699 
L 184.016946 364.830699 
L 184.016946 361.05183 
L 188.288445 361.05183 
L 188.288445 357.272961 
L 190.424194 357.272961 
L 190.424194 353.494092 
L 196.831441 353.494092 
L 196.831441 349.715223 
L 198.967191 349.715223 
L 198.967191 345.936354 
L 203.238689 345.936354 
L 203.238689 342.157485 
L 205.374438 342.157485 
L 205.374438 334.599747 
L 231.003428 334.599747 
L 231.003428 330.820878 
L 248.089422 330.820878 
L 248.089422 327.042009 
L 254.496669 327.042009 
L 254.496669 319.484271 
L 275.854161 319.484271 
L 275.854161 315.705402 
L 286.532907 315.705402 
L 286.532907 311.926533 
L 292.940155 311.926533 
L 292.940155 308.147664 
L 303.618901 308.147664 
L 303.618901 300.589926 
L 307.890399 300.589926 
L 307.890399 296.811057 
L 312.161897 296.811057 
L 312.161897 293.032187 
L 320.704894 293.032187 
L 320.704894 289.253318 
L 324.976393 289.253318 
L 324.976393 281.69558 
L 331.38364 281.69558 
L 331.38364 277.916711 
L 337.790888 277.916711 
L 337.790888 274.137842 
L 346.333884 274.137842 
L 346.333884 270.358973 
L 350.605383 270.358973 
L 350.605383 259.022366 
L 357.01263 259.022366 
L 357.01263 255.243497 
L 359.148379 255.243497 
L 359.148379 251.464628 
L 361.284129 251.464628 
L 361.284129 247.685759 
L 365.555627 247.685759 
L 365.555627 243.90689 
L 367.691376 243.90689 
L 367.691376 240.128021 
L 371.962875 240.128021 
L 371.962875 236.349152 
L 374.098624 236.349152 
L 374.098624 232.570283 
L 386.913119 232.570283 
L 386.913119 221.233676 
L 389.048868 221.233676 
L 389.048868 217.454807 
L 395.456116 217.454807 
L 395.456116 213.675937 
L 397.591865 213.675937 
L 397.591865 209.897068 
L 399.727614 209.897068 
L 399.727614 206.118199 
L 406.134862 206.118199 
L 406.134862 202.33933 
L 423.220855 202.33933 
L 423.220855 198.560461 
L 436.03535 198.560461 
L 436.03535 194.781592 
L 438.171099 194.781592 
L 438.171099 191.002723 
L 453.121344 191.002723 
L 453.121344 183.444985 
L 457.392842 183.444985 
L 457.392842 179.666116 
L 459.528591 179.666116 
L 459.528591 164.55064 
L 463.80009 164.55064 
L 463.80009 160.771771 
L 468.071588 160.771771 
L 468.071588 149.435164 
L 483.021832 149.435164 
L 483.021832 145.656295 
L 485.157581 145.656295 
L 485.157581 141.877426 
L 489.42908 141.877426 
L 489.42908 138.098557 
L 493.700578 138.098557 
L 493.700578 134.319687 
L 506.515073 134.319687 
L 506.515073 126.761949 
L 517.193819 126.761949 
L 517.193819 122.98308 
L 519.329568 122.98308 
L 519.329568 119.204211 
L 523.601067 119.204211 
L 523.601067 115.425342 
L 536.415562 115.425342 
L 536.415562 111.646473 
L 538.551311 111.646473 
L 538.551311 107.867604 
L 540.68706 107.867604 
L 540.68706 104.088735 
L 542.822809 104.088735 
L 542.822809 100.309866 
L 547.094308 100.309866 
L 547.094308 96.530997 
L 549.230057 96.530997 
L 549.230057 88.973259 
L 557.773054 88.973259 
L 557.773054 85.19439 
L 559.908803 85.19439 
L 559.908803 81.415521 
L 564.180301 81.415521 
L 564.180301 77.636652 
L 574.859047 77.636652 
L 574.859047 73.857783 
L 596.216539 73.857783 
L 596.216539 66.300045 
L 615.438282 66.300045 
L 615.438282 58.742307 
L 632.524275 58.742307 
L 632.524275 54.963437 
L 634.660024 54.963437 
L 634.660024 51.184568 
L 649.610269 51.184568 
L 649.610269 47.405699 
L 698.7325 47.405699 
L 698.7325 47.405699 
" clip-path="url(#pc8555957b5)" style="fill: none; stroke: #9467bd; stroke-width: 2; stroke-linecap: square"/>
   </g>
   <g id="line2d_29">
    <path d="M 43.0575 531.100937 
L 47.328998 531.100937 
L 47.328998 527.322068 
L 53.736246 527.322068 
L 53.736246 519.76433 
L 55.871995 515.985461 
L 60.143493 515.985461 
L 60.143493 466.860164 
L 66.550741 466.860164 
L 66.550741 459.302426 
L 79.365236 459.302426 
L 79.365236 447.965818 
L 81.500985 447.965818 
L 81.500985 440.40808 
L 90.043982 440.40808 
L 90.043982 436.629211 
L 92.179731 436.629211 
L 92.179731 432.850342 
L 98.586979 432.850342 
L 98.586979 429.071473 
L 100.722728 429.071473 
L 100.722728 425.292604 
L 104.994226 425.292604 
L 104.994226 421.513735 
L 107.129976 421.513735 
L 107.129976 410.177128 
L 109.265725 410.177128 
L 109.265725 406.398259 
L 111.401474 406.398259 
L 111.401474 402.61939 
L 113.537223 402.61939 
L 113.537223 398.840521 
L 126.351718 398.840521 
L 126.351718 395.061652 
L 141.301963 395.061652 
L 141.301963 391.282783 
L 149.844959 391.282783 
L 149.844959 387.503914 
L 154.116458 387.503914 
L 154.116458 379.946176 
L 156.252207 379.946176 
L 156.252207 372.388437 
L 158.387956 372.388437 
L 158.387956 368.609568 
L 160.523705 368.609568 
L 160.523705 361.05183 
L 162.659454 361.05183 
L 162.659454 349.715223 
L 166.930953 349.715223 
L 166.930953 342.157485 
L 169.066702 342.157485 
L 169.066702 334.599747 
L 171.202451 334.599747 
L 171.202451 330.820878 
L 175.47395 330.820878 
L 175.47395 327.042009 
L 181.881197 327.042009 
L 181.881197 323.26314 
L 188.288445 323.26314 
L 188.288445 319.484271 
L 190.424194 319.484271 
L 190.424194 315.705402 
L 192.559943 315.705402 
L 192.559943 311.926533 
L 194.695692 311.926533 
L 194.695692 308.147664 
L 196.831441 308.147664 
L 196.831441 300.589926 
L 201.10294 300.589926 
L 201.10294 296.811057 
L 207.510187 296.811057 
L 207.510187 285.474449 
L 209.645936 285.474449 
L 209.645936 281.69558 
L 220.324682 281.69558 
L 220.324682 277.916711 
L 245.953673 277.916711 
L 245.953673 274.137842 
L 267.311164 274.137842 
L 267.311164 270.358973 
L 290.804406 270.358973 
L 290.804406 266.580104 
L 299.347402 266.580104 
L 299.347402 262.801235 
L 301.483151 262.801235 
L 301.483151 251.464628 
L 305.75465 251.464628 
L 305.75465 243.90689 
L 307.890399 243.90689 
L 307.890399 240.128021 
L 331.38364 240.128021 
L 331.38364 236.349152 
L 337.790888 236.349152 
L 337.790888 232.570283 
L 344.198135 232.570283 
L 344.198135 225.012545 
L 352.741132 225.012545 
L 352.741132 221.233676 
L 361.284129 221.233676 
L 361.284129 217.454807 
L 365.555627 217.454807 
L 365.555627 213.675937 
L 369.827125 213.675937 
L 369.827125 209.897068 
L 371.962875 209.897068 
L 371.962875 206.118199 
L 382.641621 206.118199 
L 382.641621 202.33933 
L 384.77737 202.33933 
L 384.77737 198.560461 
L 391.184617 198.560461 
L 391.184617 194.781592 
L 401.863363 194.781592 
L 401.863363 187.223854 
L 410.40636 187.223854 
L 410.40636 183.444985 
L 414.677858 183.444985 
L 414.677858 179.666116 
L 421.085106 179.666116 
L 421.085106 175.887247 
L 423.220855 175.887247 
L 423.220855 172.108378 
L 425.356604 172.108378 
L 425.356604 168.329509 
L 438.171099 168.329509 
L 438.171099 164.55064 
L 450.985594 164.55064 
L 450.985594 160.771771 
L 455.257093 160.771771 
L 455.257093 156.992902 
L 457.392842 156.992902 
L 457.392842 153.214033 
L 459.528591 153.214033 
L 459.528591 149.435164 
L 468.071588 149.435164 
L 468.071588 145.656295 
L 489.42908 145.656295 
L 489.42908 141.877426 
L 500.107826 141.877426 
L 500.107826 134.319687 
L 521.465318 134.319687 
L 521.465318 130.540818 
L 534.279813 130.540818 
L 534.279813 122.98308 
L 551.365806 122.98308 
L 551.365806 115.425342 
L 553.501555 115.425342 
L 553.501555 107.867604 
L 594.08079 107.867604 
L 594.08079 104.088735 
L 600.488037 104.088735 
L 600.488037 96.530997 
L 604.759536 96.530997 
L 604.759536 92.752128 
L 606.895285 92.752128 
L 606.895285 85.19439 
L 611.166783 85.19439 
L 611.166783 81.415521 
L 617.574031 81.415521 
L 617.574031 77.636652 
L 643.203021 77.636652 
L 643.203021 73.857783 
L 649.610269 73.857783 
L 649.610269 70.078914 
L 664.560513 70.078914 
L 664.560513 66.300045 
L 670.967761 66.300045 
L 670.967761 62.521176 
L 677.375008 62.521176 
L 677.375008 47.405699 
L 698.7325 47.405699 
L 698.7325 47.405699 
" clip-path="url(#pc8555957b5)" style="fill: none; stroke: #8c564b; stroke-width: 2; stroke-linecap: square"/>
   </g>
   <g id="line2d_30">
    <path d="M 43.0575 531.100937 
L 77.229487 531.100937 
L 77.229487 527.322068 
L 81.500985 527.322068 
L 81.500985 523.543199 
L 87.908233 523.543199 
L 90.043982 519.76433 
L 92.179731 519.76433 
L 92.179731 515.985461 
L 102.858477 515.985461 
L 102.858477 512.206592 
L 107.129976 512.206592 
L 107.129976 508.427723 
L 132.758966 508.427723 
L 132.758966 500.869985 
L 134.894715 500.869985 
L 134.894715 493.312247 
L 137.030464 493.312247 
L 137.030464 485.754509 
L 147.70921 485.754509 
L 147.70921 478.196771 
L 164.795204 478.196771 
L 164.795204 474.417902 
L 166.930953 474.417902 
L 166.930953 466.860164 
L 169.066702 466.860164 
L 169.066702 459.302426 
L 171.202451 459.302426 
L 171.202451 451.744687 
L 175.47395 451.744687 
L 175.47395 444.186949 
L 177.609699 444.186949 
L 177.609699 440.40808 
L 203.238689 440.40808 
L 203.238689 436.629211 
L 207.510187 436.629211 
L 207.510187 429.071473 
L 216.053184 429.071473 
L 216.053184 425.292604 
L 218.188933 425.292604 
L 218.188933 421.513735 
L 222.460432 421.513735 
L 222.460432 417.734866 
L 224.596181 417.734866 
L 224.596181 413.955997 
L 233.139178 413.955997 
L 233.139178 410.177128 
L 237.410676 410.177128 
L 237.410676 402.61939 
L 241.682174 402.61939 
L 241.682174 395.061652 
L 248.089422 395.061652 
L 248.089422 391.282783 
L 273.718412 391.282783 
L 273.718412 387.503914 
L 275.854161 387.503914 
L 275.854161 383.725045 
L 286.532907 383.725045 
L 286.532907 379.946176 
L 292.940155 379.946176 
L 292.940155 376.167307 
L 299.347402 376.167307 
L 299.347402 372.388437 
L 301.483151 372.388437 
L 301.483151 368.609568 
L 307.890399 368.609568 
L 307.890399 364.830699 
L 316.433396 364.830699 
L 316.433396 361.05183 
L 318.569145 361.05183 
L 318.569145 353.494092 
L 322.840643 353.494092 
L 322.840643 349.715223 
L 331.38364 349.715223 
L 331.38364 342.157485 
L 337.790888 342.157485 
L 337.790888 334.599747 
L 346.333884 334.599747 
L 346.333884 330.820878 
L 350.605383 330.820878 
L 350.605383 327.042009 
L 361.284129 327.042009 
L 361.284129 323.26314 
L 363.419878 323.26314 
L 363.419878 315.705402 
L 365.555627 315.705402 
L 365.555627 308.147664 
L 367.691376 308.147664 
L 367.691376 304.368795 
L 369.827125 304.368795 
L 369.827125 300.589926 
L 371.962875 300.589926 
L 371.962875 296.811057 
L 378.370122 296.811057 
L 378.370122 289.253318 
L 382.641621 289.253318 
L 382.641621 285.474449 
L 386.913119 285.474449 
L 386.913119 281.69558 
L 389.048868 281.69558 
L 389.048868 277.916711 
L 393.320366 277.916711 
L 393.320366 266.580104 
L 395.456116 266.580104 
L 395.456116 262.801235 
L 397.591865 262.801235 
L 397.591865 247.685759 
L 403.999112 247.685759 
L 403.999112 243.90689 
L 406.134862 243.90689 
L 406.134862 240.128021 
L 414.677858 240.128021 
L 414.677858 228.791414 
L 416.813607 228.791414 
L 416.813607 221.233676 
L 418.949357 221.233676 
L 418.949357 217.454807 
L 429.628103 217.454807 
L 429.628103 209.897068 
L 448.849845 209.897068 
L 448.849845 206.118199 
L 453.121344 206.118199 
L 453.121344 202.33933 
L 470.207337 202.33933 
L 470.207337 198.560461 
L 476.614585 198.560461 
L 476.614585 194.781592 
L 551.365806 194.781592 
L 551.365806 191.002723 
L 555.637305 191.002723 
L 555.637305 187.223854 
L 557.773054 187.223854 
L 557.773054 183.444985 
L 559.908803 183.444985 
L 559.908803 179.666116 
L 587.673542 179.666116 
L 587.673542 175.887247 
L 589.809292 175.887247 
L 589.809292 172.108378 
L 594.08079 172.108378 
L 594.08079 168.329509 
L 613.302533 168.329509 
L 613.302533 164.55064 
L 621.845529 164.55064 
L 621.845529 160.771771 
L 643.203021 160.771771 
L 643.203021 156.992902 
L 651.746018 156.992902 
L 651.746018 153.214033 
L 656.017516 153.214033 
L 656.017516 149.435164 
L 670.967761 149.435164 
L 670.967761 141.877426 
L 673.10351 141.877426 
L 673.10351 138.098557 
L 683.782256 138.098557 
L 683.782256 134.319687 
L 685.918005 134.319687 
L 685.918005 119.204211 
L 688.053754 119.204211 
L 688.053754 107.867604 
L 690.189503 107.867604 
L 690.189503 100.309866 
L 694.461002 100.309866 
L 694.461002 51.184568 
L 698.7325 51.184568 
L 698.7325 47.405699 
L 698.7325 47.405699 
" clip-path="url(#pc8555957b5)" style="fill: none; stroke: #e377c2; stroke-width: 2; stroke-linecap: square"/>
   </g>
   <g id="line2d_31">
    <path d="M 43.0575 531.100937 
L 51.600497 531.100937 
L 51.600497 527.322068 
L 53.736246 523.543199 
L 55.871995 523.543199 
L 55.871995 519.76433 
L 70.822239 519.76433 
L 70.822239 515.985461 
L 75.093738 515.985461 
L 75.093738 512.206592 
L 79.365236 512.206592 
L 79.365236 500.869985 
L 83.636735 500.869985 
L 83.636735 497.091116 
L 85.772484 497.091116 
L 85.772484 489.533378 
L 87.908233 489.533378 
L 87.908233 478.196771 
L 100.722728 478.196771 
L 100.722728 470.639033 
L 107.129976 470.639033 
L 107.129976 466.860164 
L 109.265725 466.860164 
L 109.265725 463.081295 
L 111.401474 463.081295 
L 111.401474 444.186949 
L 113.537223 444.186949 
L 113.537223 440.40808 
L 117.808721 440.40808 
L 117.808721 436.629211 
L 126.351718 436.629211 
L 126.351718 432.850342 
L 132.758966 432.850342 
L 132.758966 425.292604 
L 149.844959 425.292604 
L 149.844959 421.513735 
L 160.523705 421.513735 
L 160.523705 402.61939 
L 173.3382 402.61939 
L 173.3382 395.061652 
L 179.745448 395.061652 
L 179.745448 383.725045 
L 188.288445 383.725045 
L 188.288445 379.946176 
L 190.424194 379.946176 
L 190.424194 368.609568 
L 192.559943 368.609568 
L 192.559943 364.830699 
L 194.695692 364.830699 
L 194.695692 357.272961 
L 209.645936 357.272961 
L 209.645936 353.494092 
L 211.781686 353.494092 
L 211.781686 345.936354 
L 213.917435 345.936354 
L 213.917435 342.157485 
L 220.324682 342.157485 
L 220.324682 334.599747 
L 228.867679 334.599747 
L 228.867679 330.820878 
L 243.817923 330.820878 
L 243.817923 327.042009 
L 245.953673 327.042009 
L 245.953673 323.26314 
L 250.225171 323.26314 
L 250.225171 319.484271 
L 260.903917 319.484271 
L 260.903917 315.705402 
L 263.039666 315.705402 
L 263.039666 308.147664 
L 265.175415 308.147664 
L 265.175415 304.368795 
L 280.12566 304.368795 
L 280.12566 300.589926 
L 286.532907 300.589926 
L 286.532907 296.811057 
L 292.940155 296.811057 
L 292.940155 293.032187 
L 297.211653 293.032187 
L 297.211653 289.253318 
L 310.026148 289.253318 
L 310.026148 285.474449 
L 314.297647 285.474449 
L 314.297647 281.69558 
L 339.926637 281.69558 
L 339.926637 274.137842 
L 361.284129 274.137842 
L 361.284129 266.580104 
L 363.419878 266.580104 
L 363.419878 259.022366 
L 371.962875 259.022366 
L 371.962875 255.243497 
L 374.098624 255.243497 
L 374.098624 247.685759 
L 382.641621 247.685759 
L 382.641621 243.90689 
L 386.913119 243.90689 
L 386.913119 240.128021 
L 408.270611 240.128021 
L 408.270611 236.349152 
L 416.813607 236.349152 
L 416.813607 232.570283 
L 429.628103 232.570283 
L 429.628103 225.012545 
L 440.306849 225.012545 
L 440.306849 221.233676 
L 442.442598 221.233676 
L 442.442598 217.454807 
L 455.257093 217.454807 
L 455.257093 213.675937 
L 457.392842 213.675937 
L 457.392842 206.118199 
L 459.528591 206.118199 
L 459.528591 202.33933 
L 463.80009 202.33933 
L 463.80009 198.560461 
L 472.343086 198.560461 
L 472.343086 194.781592 
L 476.614585 194.781592 
L 476.614585 187.223854 
L 483.021832 187.223854 
L 483.021832 179.666116 
L 485.157581 179.666116 
L 485.157581 175.887247 
L 489.42908 175.887247 
L 489.42908 172.108378 
L 491.564829 172.108378 
L 491.564829 168.329509 
L 500.107826 168.329509 
L 500.107826 156.992902 
L 504.379324 156.992902 
L 504.379324 153.214033 
L 515.05807 153.214033 
L 515.05807 149.435164 
L 538.551311 149.435164 
L 538.551311 145.656295 
L 544.958559 145.656295 
L 544.958559 126.761949 
L 555.637305 126.761949 
L 555.637305 122.98308 
L 559.908803 122.98308 
L 559.908803 115.425342 
L 564.180301 115.425342 
L 564.180301 104.088735 
L 566.31605 104.088735 
L 566.31605 96.530997 
L 572.723298 96.530997 
L 572.723298 92.752128 
L 574.859047 92.752128 
L 574.859047 85.19439 
L 598.352288 85.19439 
L 598.352288 77.636652 
L 600.488037 77.636652 
L 600.488037 73.857783 
L 615.438282 73.857783 
L 615.438282 70.078914 
L 638.931523 70.078914 
L 638.931523 62.521176 
L 647.47452 62.521176 
L 647.47452 58.742307 
L 649.610269 58.742307 
L 649.610269 54.963437 
L 666.696262 54.963437 
L 666.696262 51.184568 
L 673.10351 51.184568 
L 673.10351 47.405699 
L 698.7325 47.405699 
L 698.7325 47.405699 
" clip-path="url(#pc8555957b5)" style="fill: none; stroke: #17becf; stroke-width: 2; stroke-linecap: square"/>
   </g>
   <g id="line2d_32">
    <path d="M 43.0575 531.100937 
L 43.0575 527.322068 
L 43.0575 447.965818 
L 45.193249 447.965818 
L 45.193249 429.071473 
L 47.328998 429.071473 
L 47.328998 421.513735 
L 49.464748 421.513735 
L 49.464748 406.398259 
L 51.600497 406.398259 
L 51.600497 376.167307 
L 53.736246 376.167307 
L 53.736246 372.388437 
L 55.871995 372.388437 
L 55.871995 353.494092 
L 58.007744 353.494092 
L 58.007744 342.157485 
L 60.143493 342.157485 
L 60.143493 270.358973 
L 62.279243 270.358973 
L 62.279243 209.897068 
L 64.414992 209.897068 
L 64.414992 202.33933 
L 66.550741 202.33933 
L 66.550741 187.223854 
L 70.822239 187.223854 
L 70.822239 183.444985 
L 72.957989 183.444985 
L 72.957989 175.887247 
L 75.093738 175.887247 
L 75.093738 156.992902 
L 77.229487 156.992902 
L 77.229487 145.656295 
L 79.365236 145.656295 
L 79.365236 141.877426 
L 87.908233 141.877426 
L 87.908233 134.319687 
L 90.043982 134.319687 
L 90.043982 130.540818 
L 92.179731 130.540818 
L 92.179731 111.646473 
L 96.45123 111.646473 
L 96.45123 107.867604 
L 115.672972 107.867604 
L 115.672972 104.088735 
L 117.808721 104.088735 
L 117.808721 100.309866 
L 126.351718 100.309866 
L 126.351718 96.530997 
L 130.623217 96.530997 
L 130.623217 88.973259 
L 134.894715 88.973259 
L 134.894715 85.19439 
L 151.980708 85.19439 
L 151.980708 81.415521 
L 158.387956 81.415521 
L 158.387956 73.857783 
L 169.066702 73.857783 
L 169.066702 70.078914 
L 171.202451 70.078914 
L 171.202451 66.300045 
L 209.645936 66.300045 
L 209.645936 62.521176 
L 286.532907 62.521176 
L 286.532907 58.742307 
L 307.890399 58.742307 
L 307.890399 54.963437 
L 455.257093 54.963437 
L 455.257093 51.184568 
L 517.193819 51.184568 
L 517.193819 47.405699 
L 698.7325 47.405699 
" clip-path="url(#pc8555957b5)" style="fill: none; stroke: #e31818; stroke-width: 2.5; stroke-linecap: square"/>
   </g>
   <g id="line2d_33">
    <path d="M 43.0575 531.100937 
L 698.7325 47.405699 
" clip-path="url(#pc8555957b5)" style="fill: none; stroke-dasharray: 3.7,1.6; stroke-dashoffset: 0; stroke: #000000; stroke-opacity: 0.5"/>
   </g>
   <g id="patch_3">
    <path d="M 43.0575 531.100937 
L 43.0575 23.220937 
" style="fill: none; stroke: #000000; stroke-width: 0.8; stroke-linejoin: miter; stroke-linecap: square"/>
   </g>
   <g id="patch_4">
    <path d="M 698.7325 531.100937 
L 698.7325 23.220937 
" style="fill: none; stroke: #000000; stroke-width: 0.8; stroke-linejoin: miter; stroke-linecap: square"/>
   </g>
   <g id="patch_5">
    <path d="M 43.0575 531.100937 
L 698.7325 531.100937 
" style="fill: none; stroke: #000000; stroke-width: 0.8; stroke-linejoin: miter; stroke-linecap: square"/>
   </g>
   <g id="patch_6">
    <path d="M 43.0575 23.220937 
L 698.7325 23.220937 
" style="fill: none; stroke: #000000; stroke-width: 0.8; stroke-linejoin: miter; stroke-linecap: square"/>
   </g>
   <g id="text_15">
    <!-- ROC Curve - credit -->
    <g transform="translate(308.273438 17.220937) scale(0.14 -0.14)">
     <defs>
      <path id="Arial-BoldMT-4f" d="M 278 2263 
Q 278 2963 488 3438 
Q 644 3788 914 4066 
Q 1184 4344 1506 4478 
Q 1934 4659 2494 4659 
Q 3506 4659 4114 4031 
Q 4722 3403 4722 2284 
Q 4722 1175 4119 548 
Q 3516 -78 2506 -78 
Q 1484 -78 881 545 
Q 278 1169 278 2263 
z
M 1231 2294 
Q 1231 1516 1590 1114 
Q 1950 713 2503 713 
Q 3056 713 3411 1111 
Q 3766 1509 3766 2306 
Q 3766 3094 3420 3481 
Q 3075 3869 2503 3869 
Q 1931 3869 1581 3476 
Q 1231 3084 1231 2294 
z
" transform="scale(0.015625)"/>
      <path id="Arial-BoldMT-43" d="M 3397 1684 
L 4294 1400 
Q 4088 650 3608 286 
Q 3128 -78 2391 -78 
Q 1478 -78 890 545 
Q 303 1169 303 2250 
Q 303 3394 893 4026 
Q 1484 4659 2447 4659 
Q 3288 4659 3813 4163 
Q 4125 3869 4281 3319 
L 3366 3100 
Q 3284 3456 3026 3662 
Q 2769 3869 2400 3869 
Q 1891 3869 1573 3503 
Q 1256 3138 1256 2319 
Q 1256 1450 1568 1081 
Q 1881 713 2381 713 
Q 2750 713 3015 947 
Q 3281 1181 3397 1684 
z
" transform="scale(0.015625)"/>
      <path id="Arial-BoldMT-2d" d="M 359 1222 
L 359 2100 
L 2084 2100 
L 2084 1222 
L 359 1222 
z
" transform="scale(0.015625)"/>
      <path id="Arial-BoldMT-63" d="M 3353 2338 
L 2488 2181 
Q 2444 2441 2289 2572 
Q 2134 2703 1888 2703 
Q 1559 2703 1364 2476 
Q 1169 2250 1169 1719 
Q 1169 1128 1367 884 
Q 1566 641 1900 641 
Q 2150 641 2309 783 
Q 2469 925 2534 1272 
L 3397 1125 
Q 3263 531 2881 228 
Q 2500 -75 1859 -75 
Q 1131 -75 698 384 
Q 266 844 266 1656 
Q 266 2478 700 2936 
Q 1134 3394 1875 3394 
Q 2481 3394 2839 3133 
Q 3197 2872 3353 2338 
z
" transform="scale(0.015625)"/>
      <path id="Arial-BoldMT-64" d="M 3503 0 
L 2688 0 
L 2688 488 
Q 2484 203 2207 64 
Q 1931 -75 1650 -75 
Q 1078 -75 670 386 
Q 263 847 263 1672 
Q 263 2516 659 2955 
Q 1056 3394 1663 3394 
Q 2219 3394 2625 2931 
L 2625 4581 
L 3503 4581 
L 3503 0 
z
M 1159 1731 
Q 1159 1200 1306 963 
Q 1519 619 1900 619 
Q 2203 619 2415 876 
Q 2628 1134 2628 1647 
Q 2628 2219 2422 2470 
Q 2216 2722 1894 2722 
Q 1581 2722 1370 2473 
Q 1159 2225 1159 1731 
z
" transform="scale(0.015625)"/>
     </defs>
     <use xlink:href="#Arial-BoldMT-52"/>
     <use xlink:href="#Arial-BoldMT-4f" transform="translate(72.216797 0)"/>
     <use xlink:href="#Arial-BoldMT-43" transform="translate(150 0)"/>
     <use xlink:href="#Arial-BoldMT-20" transform="translate(222.216797 0)"/>
     <use xlink:href="#Arial-BoldMT-43" transform="translate(250 0)"/>
     <use xlink:href="#Arial-BoldMT-75" transform="translate(322.216797 0)"/>
     <use xlink:href="#Arial-BoldMT-72" transform="translate(383.300781 0)"/>
     <use xlink:href="#Arial-BoldMT-76" transform="translate(422.216797 0)"/>
     <use xlink:href="#Arial-BoldMT-65" transform="translate(477.832031 0)"/>
     <use xlink:href="#Arial-BoldMT-20" transform="translate(533.447266 0)"/>
     <use xlink:href="#Arial-BoldMT-2d" transform="translate(561.230469 0)"/>
     <use xlink:href="#Arial-BoldMT-20" transform="translate(594.53125 0)"/>
     <use xlink:href="#Arial-BoldMT-63" transform="translate(622.314453 0)"/>
     <use xlink:href="#Arial-BoldMT-72" transform="translate(677.929688 0)"/>
     <use xlink:href="#Arial-BoldMT-65" transform="translate(716.845703 0)"/>
     <use xlink:href="#Arial-BoldMT-64" transform="translate(772.460938 0)"/>
     <use xlink:href="#Arial-BoldMT-69" transform="translate(833.544922 0)"/>
     <use xlink:href="#Arial-BoldMT-74" transform="translate(861.328125 0)"/>
    </g>
   </g>
   <g id="legend_1">
    <g id="patch_7">
     <path d="M 581.06625 527.100937 
L 693.1325 527.100937 
Q 694.7325 527.100937 694.7325 525.500937 
L 694.7325 422.904687 
Q 694.7325 421.304687 693.1325 421.304687 
L 581.06625 421.304687 
Q 579.46625 421.304687 579.46625 422.904687 
L 579.46625 525.500937 
Q 579.46625 527.100937 581.06625 527.100937 
z
" style="fill: #ffffff; opacity: 0.8; stroke: #cccccc; stroke-linejoin: miter"/>
    </g>
    <g id="line2d_34">
     <path d="M 582.66625 427.528437 
L 590.66625 427.528437 
L 598.66625 427.528437 
" style="fill: none; stroke: #1f77b4; stroke-width: 2; stroke-linecap: square"/>
    </g>
    <g id="text_16">
     <!-- ADFNR (AUC=0.6736) -->
     <g transform="translate(605.06625 430.328437) scale(0.08 -0.08)">
      <defs>
       <path id="ArialMT-41" d="M -9 0 
L 1750 4581 
L 2403 4581 
L 4278 0 
L 3588 0 
L 3053 1388 
L 1138 1388 
L 634 0 
L -9 0 
z
M 1313 1881 
L 2866 1881 
L 2388 3150 
Q 2169 3728 2063 4100 
Q 1975 3659 1816 3225 
L 1313 1881 
z
" transform="scale(0.015625)"/>
       <path id="ArialMT-44" d="M 494 0 
L 494 4581 
L 2072 4581 
Q 2606 4581 2888 4516 
Q 3281 4425 3559 4188 
Q 3922 3881 4101 3404 
Q 4281 2928 4281 2316 
Q 4281 1794 4159 1391 
Q 4038 988 3847 723 
Q 3656 459 3429 307 
Q 3203 156 2883 78 
Q 2563 0 2147 0 
L 494 0 
z
M 1100 541 
L 2078 541 
Q 2531 541 2789 625 
Q 3047 709 3200 863 
Q 3416 1078 3536 1442 
Q 3656 1806 3656 2325 
Q 3656 3044 3420 3430 
Q 3184 3816 2847 3947 
Q 2603 4041 2063 4041 
L 1100 4041 
L 1100 541 
z
" transform="scale(0.015625)"/>
       <path id="ArialMT-46" d="M 525 0 
L 525 4581 
L 3616 4581 
L 3616 4041 
L 1131 4041 
L 1131 2622 
L 3281 2622 
L 3281 2081 
L 1131 2081 
L 1131 0 
L 525 0 
z
" transform="scale(0.015625)"/>
       <path id="ArialMT-4e" d="M 488 0 
L 488 4581 
L 1109 4581 
L 3516 984 
L 3516 4581 
L 4097 4581 
L 4097 0 
L 3475 0 
L 1069 3600 
L 1069 0 
L 488 0 
z
" transform="scale(0.015625)"/>
       <path id="ArialMT-52" d="M 503 0 
L 503 4581 
L 2534 4581 
Q 3147 4581 3465 4457 
Q 3784 4334 3975 4021 
Q 4166 3709 4166 3331 
Q 4166 2844 3850 2509 
Q 3534 2175 2875 2084 
Q 3116 1969 3241 1856 
Q 3506 1613 3744 1247 
L 4541 0 
L 3778 0 
L 3172 953 
Q 2906 1366 2734 1584 
Q 2563 1803 2427 1890 
Q 2291 1978 2150 2013 
Q 2047 2034 1813 2034 
L 1109 2034 
L 1109 0 
L 503 0 
z
M 1109 2559 
L 2413 2559 
Q 2828 2559 3062 2645 
Q 3297 2731 3419 2920 
Q 3541 3109 3541 3331 
Q 3541 3656 3305 3865 
Q 3069 4075 2559 4075 
L 1109 4075 
L 1109 2559 
z
" transform="scale(0.015625)"/>
       <path id="ArialMT-20" transform="scale(0.015625)"/>
       <path id="ArialMT-28" d="M 1497 -1347 
Q 1031 -759 709 28 
Q 388 816 388 1659 
Q 388 2403 628 3084 
Q 909 3875 1497 4659 
L 1900 4659 
Q 1522 4009 1400 3731 
Q 1209 3300 1100 2831 
Q 966 2247 966 1656 
Q 966 153 1900 -1347 
L 1497 -1347 
z
" transform="scale(0.015625)"/>
       <path id="ArialMT-55" d="M 3500 4581 
L 4106 4581 
L 4106 1934 
Q 4106 1244 3950 837 
Q 3794 431 3386 176 
Q 2978 -78 2316 -78 
Q 1672 -78 1262 144 
Q 853 366 678 786 
Q 503 1206 503 1934 
L 503 4581 
L 1109 4581 
L 1109 1938 
Q 1109 1341 1220 1058 
Q 1331 775 1601 622 
Q 1872 469 2263 469 
Q 2931 469 3215 772 
Q 3500 1075 3500 1938 
L 3500 4581 
z
" transform="scale(0.015625)"/>
       <path id="ArialMT-43" d="M 3763 1606 
L 4369 1453 
Q 4178 706 3683 314 
Q 3188 -78 2472 -78 
Q 1731 -78 1267 223 
Q 803 525 561 1097 
Q 319 1669 319 2325 
Q 319 3041 592 3573 
Q 866 4106 1370 4382 
Q 1875 4659 2481 4659 
Q 3169 4659 3637 4309 
Q 4106 3959 4291 3325 
L 3694 3184 
Q 3534 3684 3231 3912 
Q 2928 4141 2469 4141 
Q 1941 4141 1586 3887 
Q 1231 3634 1087 3207 
Q 944 2781 944 2328 
Q 944 1744 1114 1308 
Q 1284 872 1643 656 
Q 2003 441 2422 441 
Q 2931 441 3284 734 
Q 3638 1028 3763 1606 
z
" transform="scale(0.015625)"/>
       <path id="ArialMT-3d" d="M 3381 2694 
L 356 2694 
L 356 3219 
L 3381 3219 
L 3381 2694 
z
M 3381 1303 
L 356 1303 
L 356 1828 
L 3381 1828 
L 3381 1303 
z
" transform="scale(0.015625)"/>
       <path id="ArialMT-37" d="M 303 3981 
L 303 4522 
L 3269 4522 
L 3269 4084 
Q 2831 3619 2401 2847 
Q 1972 2075 1738 1259 
Q 1569 684 1522 0 
L 944 0 
Q 953 541 1156 1306 
Q 1359 2072 1739 2783 
Q 2119 3494 2547 3981 
L 303 3981 
z
" transform="scale(0.015625)"/>
       <path id="ArialMT-33" d="M 269 1209 
L 831 1284 
Q 928 806 1161 595 
Q 1394 384 1728 384 
Q 2125 384 2398 659 
Q 2672 934 2672 1341 
Q 2672 1728 2419 1979 
Q 2166 2231 1775 2231 
Q 1616 2231 1378 2169 
L 1441 2663 
Q 1497 2656 1531 2656 
Q 1891 2656 2178 2843 
Q 2466 3031 2466 3422 
Q 2466 3731 2256 3934 
Q 2047 4138 1716 4138 
Q 1388 4138 1169 3931 
Q 950 3725 888 3313 
L 325 3413 
Q 428 3978 793 4289 
Q 1159 4600 1703 4600 
Q 2078 4600 2393 4439 
Q 2709 4278 2876 4000 
Q 3044 3722 3044 3409 
Q 3044 3113 2884 2869 
Q 2725 2625 2413 2481 
Q 2819 2388 3044 2092 
Q 3269 1797 3269 1353 
Q 3269 753 2831 336 
Q 2394 -81 1725 -81 
Q 1122 -81 723 278 
Q 325 638 269 1209 
z
" transform="scale(0.015625)"/>
       <path id="ArialMT-29" d="M 791 -1347 
L 388 -1347 
Q 1322 153 1322 1656 
Q 1322 2244 1188 2822 
Q 1081 3291 891 3722 
Q 769 4003 388 4659 
L 791 4659 
Q 1378 3875 1659 3084 
Q 1900 2403 1900 1659 
Q 1900 816 1576 28 
Q 1253 -759 791 -1347 
z
" transform="scale(0.015625)"/>
      </defs>
      <use xlink:href="#ArialMT-41"/>
      <use xlink:href="#ArialMT-44" transform="translate(66.699219 0)"/>
      <use xlink:href="#ArialMT-46" transform="translate(138.916016 0)"/>
      <use xlink:href="#ArialMT-4e" transform="translate(200 0)"/>
      <use xlink:href="#ArialMT-52" transform="translate(272.216797 0)"/>
      <use xlink:href="#ArialMT-20" transform="translate(344.433594 0)"/>
      <use xlink:href="#ArialMT-28" transform="translate(372.216797 0)"/>
      <use xlink:href="#ArialMT-41" transform="translate(405.517578 0)"/>
      <use xlink:href="#ArialMT-55" transform="translate(472.216797 0)"/>
      <use xlink:href="#ArialMT-43" transform="translate(544.433594 0)"/>
      <use xlink:href="#ArialMT-3d" transform="translate(616.650391 0)"/>
      <use xlink:href="#ArialMT-30" transform="translate(675.048828 0)"/>
      <use xlink:href="#ArialMT-2e" transform="translate(730.664062 0)"/>
      <use xlink:href="#ArialMT-36" transform="translate(758.447266 0)"/>
      <use xlink:href="#ArialMT-37" transform="translate(814.0625 0)"/>
      <use xlink:href="#ArialMT-33" transform="translate(869.677734 0)"/>
      <use xlink:href="#ArialMT-36" transform="translate(925.292969 0)"/>
      <use xlink:href="#ArialMT-29" transform="translate(980.908203 0)"/>
     </g>
    </g>
    <g id="line2d_35">
     <path d="M 582.66625 439.040937 
L 590.66625 439.040937 
L 598.66625 439.040937 
" style="fill: none; stroke: #ff7f0e; stroke-width: 2; stroke-linecap: square"/>
    </g>
    <g id="text_17">
     <!-- DASOD (AUC=0.5847) -->
     <g transform="translate(605.06625 441.840937) scale(0.08 -0.08)">
      <defs>
       <path id="ArialMT-53" d="M 288 1472 
L 859 1522 
Q 900 1178 1048 958 
Q 1197 738 1509 602 
Q 1822 466 2213 466 
Q 2559 466 2825 569 
Q 3091 672 3220 851 
Q 3350 1031 3350 1244 
Q 3350 1459 3225 1620 
Q 3100 1781 2813 1891 
Q 2628 1963 1997 2114 
Q 1366 2266 1113 2400 
Q 784 2572 623 2826 
Q 463 3081 463 3397 
Q 463 3744 659 4045 
Q 856 4347 1234 4503 
Q 1613 4659 2075 4659 
Q 2584 4659 2973 4495 
Q 3363 4331 3572 4012 
Q 3781 3694 3797 3291 
L 3216 3247 
Q 3169 3681 2898 3903 
Q 2628 4125 2100 4125 
Q 1550 4125 1298 3923 
Q 1047 3722 1047 3438 
Q 1047 3191 1225 3031 
Q 1400 2872 2139 2705 
Q 2878 2538 3153 2413 
Q 3553 2228 3743 1945 
Q 3934 1663 3934 1294 
Q 3934 928 3725 604 
Q 3516 281 3123 101 
Q 2731 -78 2241 -78 
Q 1619 -78 1198 103 
Q 778 284 539 648 
Q 300 1013 288 1472 
z
" transform="scale(0.015625)"/>
       <path id="ArialMT-4f" d="M 309 2231 
Q 309 3372 921 4017 
Q 1534 4663 2503 4663 
Q 3138 4663 3647 4359 
Q 4156 4056 4423 3514 
Q 4691 2972 4691 2284 
Q 4691 1588 4409 1038 
Q 4128 488 3612 205 
Q 3097 -78 2500 -78 
Q 1853 -78 1343 234 
Q 834 547 571 1087 
Q 309 1628 309 2231 
z
M 934 2222 
Q 934 1394 1379 917 
Q 1825 441 2497 441 
Q 3181 441 3623 922 
Q 4066 1403 4066 2288 
Q 4066 2847 3877 3264 
Q 3688 3681 3323 3911 
Q 2959 4141 2506 4141 
Q 1863 4141 1398 3698 
Q 934 3256 934 2222 
z
" transform="scale(0.015625)"/>
       <path id="ArialMT-35" d="M 266 1200 
L 856 1250 
Q 922 819 1161 601 
Q 1400 384 1738 384 
Q 2144 384 2425 690 
Q 2706 997 2706 1503 
Q 2706 1984 2436 2262 
Q 2166 2541 1728 2541 
Q 1456 2541 1237 2417 
Q 1019 2294 894 2097 
L 366 2166 
L 809 4519 
L 3088 4519 
L 3088 3981 
L 1259 3981 
L 1013 2750 
Q 1425 3038 1878 3038 
Q 2478 3038 2890 2622 
Q 3303 2206 3303 1553 
Q 3303 931 2941 478 
Q 2500 -78 1738 -78 
Q 1113 -78 717 272 
Q 322 622 266 1200 
z
" transform="scale(0.015625)"/>
      </defs>
      <use xlink:href="#ArialMT-44"/>
      <use xlink:href="#ArialMT-41" transform="translate(72.216797 0)"/>
      <use xlink:href="#ArialMT-53" transform="translate(138.916016 0)"/>
      <use xlink:href="#ArialMT-4f" transform="translate(205.615234 0)"/>
      <use xlink:href="#ArialMT-44" transform="translate(283.398438 0)"/>
      <use xlink:href="#ArialMT-20" transform="translate(355.615234 0)"/>
      <use xlink:href="#ArialMT-28" transform="translate(383.398438 0)"/>
      <use xlink:href="#ArialMT-41" transform="translate(416.699219 0)"/>
      <use xlink:href="#ArialMT-55" transform="translate(483.398438 0)"/>
      <use xlink:href="#ArialMT-43" transform="translate(555.615234 0)"/>
      <use xlink:href="#ArialMT-3d" transform="translate(627.832031 0)"/>
      <use xlink:href="#ArialMT-30" transform="translate(686.230469 0)"/>
      <use xlink:href="#ArialMT-2e" transform="translate(741.845703 0)"/>
      <use xlink:href="#ArialMT-35" transform="translate(769.628906 0)"/>
      <use xlink:href="#ArialMT-38" transform="translate(825.244141 0)"/>
      <use xlink:href="#ArialMT-34" transform="translate(880.859375 0)"/>
      <use xlink:href="#ArialMT-37" transform="translate(936.474609 0)"/>
      <use xlink:href="#ArialMT-29" transform="translate(992.089844 0)"/>
     </g>
    </g>
    <g id="line2d_36">
     <path d="M 582.66625 450.548437 
L 590.66625 450.548437 
L 598.66625 450.548437 
" style="fill: none; stroke: #2ca02c; stroke-width: 2; stroke-linecap: square"/>
    </g>
    <g id="text_18">
     <!-- GCN (AUC=0.4992) -->
     <g transform="translate(605.06625 453.348437) scale(0.08 -0.08)">
      <defs>
       <path id="ArialMT-47" d="M 2638 1797 
L 2638 2334 
L 4578 2338 
L 4578 638 
Q 4131 281 3656 101 
Q 3181 -78 2681 -78 
Q 2006 -78 1454 211 
Q 903 500 622 1047 
Q 341 1594 341 2269 
Q 341 2938 620 3517 
Q 900 4097 1425 4378 
Q 1950 4659 2634 4659 
Q 3131 4659 3532 4498 
Q 3934 4338 4162 4050 
Q 4391 3763 4509 3300 
L 3963 3150 
Q 3859 3500 3706 3700 
Q 3553 3900 3268 4020 
Q 2984 4141 2638 4141 
Q 2222 4141 1919 4014 
Q 1616 3888 1430 3681 
Q 1244 3475 1141 3228 
Q 966 2803 966 2306 
Q 966 1694 1177 1281 
Q 1388 869 1791 669 
Q 2194 469 2647 469 
Q 3041 469 3416 620 
Q 3791 772 3984 944 
L 3984 1797 
L 2638 1797 
z
" transform="scale(0.015625)"/>
       <path id="ArialMT-39" d="M 350 1059 
L 891 1109 
Q 959 728 1153 556 
Q 1347 384 1650 384 
Q 1909 384 2104 503 
Q 2300 622 2425 820 
Q 2550 1019 2634 1356 
Q 2719 1694 2719 2044 
Q 2719 2081 2716 2156 
Q 2547 1888 2255 1720 
Q 1963 1553 1622 1553 
Q 1053 1553 659 1965 
Q 266 2378 266 3053 
Q 266 3750 677 4175 
Q 1088 4600 1706 4600 
Q 2153 4600 2523 4359 
Q 2894 4119 3086 3673 
Q 3278 3228 3278 2384 
Q 3278 1506 3087 986 
Q 2897 466 2520 194 
Q 2144 -78 1638 -78 
Q 1100 -78 759 220 
Q 419 519 350 1059 
z
M 2653 3081 
Q 2653 3566 2395 3850 
Q 2138 4134 1775 4134 
Q 1400 4134 1122 3828 
Q 844 3522 844 3034 
Q 844 2597 1108 2323 
Q 1372 2050 1759 2050 
Q 2150 2050 2401 2323 
Q 2653 2597 2653 3081 
z
" transform="scale(0.015625)"/>
      </defs>
      <use xlink:href="#ArialMT-47"/>
      <use xlink:href="#ArialMT-43" transform="translate(77.783203 0)"/>
      <use xlink:href="#ArialMT-4e" transform="translate(150 0)"/>
      <use xlink:href="#ArialMT-20" transform="translate(222.216797 0)"/>
      <use xlink:href="#ArialMT-28" transform="translate(250 0)"/>
      <use xlink:href="#ArialMT-41" transform="translate(283.300781 0)"/>
      <use xlink:href="#ArialMT-55" transform="translate(350 0)"/>
      <use xlink:href="#ArialMT-43" transform="translate(422.216797 0)"/>
      <use xlink:href="#ArialMT-3d" transform="translate(494.433594 0)"/>
      <use xlink:href="#ArialMT-30" transform="translate(552.832031 0)"/>
      <use xlink:href="#ArialMT-2e" transform="translate(608.447266 0)"/>
      <use xlink:href="#ArialMT-34" transform="translate(636.230469 0)"/>
      <use xlink:href="#ArialMT-39" transform="translate(691.845703 0)"/>
      <use xlink:href="#ArialMT-39" transform="translate(747.460938 0)"/>
      <use xlink:href="#ArialMT-32" transform="translate(803.076172 0)"/>
      <use xlink:href="#ArialMT-29" transform="translate(858.691406 0)"/>
     </g>
    </g>
    <g id="line2d_37">
     <path d="M 582.66625 462.060937 
L 590.66625 462.060937 
L 598.66625 462.060937 
" style="fill: none; stroke: #9467bd; stroke-width: 2; stroke-linecap: square"/>
    </g>
    <g id="text_19">
     <!-- GCOD (AUC=0.5917) -->
     <g transform="translate(605.06625 464.860937) scale(0.08 -0.08)">
      <use xlink:href="#ArialMT-47"/>
      <use xlink:href="#ArialMT-43" transform="translate(77.783203 0)"/>
      <use xlink:href="#ArialMT-4f" transform="translate(150 0)"/>
      <use xlink:href="#ArialMT-44" transform="translate(227.783203 0)"/>
      <use xlink:href="#ArialMT-20" transform="translate(300 0)"/>
      <use xlink:href="#ArialMT-28" transform="translate(327.783203 0)"/>
      <use xlink:href="#ArialMT-41" transform="translate(361.083984 0)"/>
      <use xlink:href="#ArialMT-55" transform="translate(427.783203 0)"/>
      <use xlink:href="#ArialMT-43" transform="translate(500 0)"/>
      <use xlink:href="#ArialMT-3d" transform="translate(572.216797 0)"/>
      <use xlink:href="#ArialMT-30" transform="translate(630.615234 0)"/>
      <use xlink:href="#ArialMT-2e" transform="translate(686.230469 0)"/>
      <use xlink:href="#ArialMT-35" transform="translate(714.013672 0)"/>
      <use xlink:href="#ArialMT-39" transform="translate(769.628906 0)"/>
      <use xlink:href="#ArialMT-31" transform="translate(825.244141 0)"/>
      <use xlink:href="#ArialMT-37" transform="translate(880.859375 0)"/>
      <use xlink:href="#ArialMT-29" transform="translate(936.474609 0)"/>
     </g>
    </g>
    <g id="line2d_38">
     <path d="M 582.66625 473.568437 
L 590.66625 473.568437 
L 598.66625 473.568437 
" style="fill: none; stroke: #8c564b; stroke-width: 2; stroke-linecap: square"/>
    </g>
    <g id="text_20">
     <!-- IE (AUC=0.6290) -->
     <g transform="translate(605.06625 476.368437) scale(0.08 -0.08)">
      <defs>
       <path id="ArialMT-49" d="M 597 0 
L 597 4581 
L 1203 4581 
L 1203 0 
L 597 0 
z
" transform="scale(0.015625)"/>
       <path id="ArialMT-45" d="M 506 0 
L 506 4581 
L 3819 4581 
L 3819 4041 
L 1113 4041 
L 1113 2638 
L 3647 2638 
L 3647 2100 
L 1113 2100 
L 1113 541 
L 3925 541 
L 3925 0 
L 506 0 
z
" transform="scale(0.015625)"/>
      </defs>
      <use xlink:href="#ArialMT-49"/>
      <use xlink:href="#ArialMT-45" transform="translate(27.783203 0)"/>
      <use xlink:href="#ArialMT-20" transform="translate(94.482422 0)"/>
      <use xlink:href="#ArialMT-28" transform="translate(122.265625 0)"/>
      <use xlink:href="#ArialMT-41" transform="translate(155.566406 0)"/>
      <use xlink:href="#ArialMT-55" transform="translate(222.265625 0)"/>
      <use xlink:href="#ArialMT-43" transform="translate(294.482422 0)"/>
      <use xlink:href="#ArialMT-3d" transform="translate(366.699219 0)"/>
      <use xlink:href="#ArialMT-30" transform="translate(425.097656 0)"/>
      <use xlink:href="#ArialMT-2e" transform="translate(480.712891 0)"/>
      <use xlink:href="#ArialMT-36" transform="translate(508.496094 0)"/>
      <use xlink:href="#ArialMT-32" transform="translate(564.111328 0)"/>
      <use xlink:href="#ArialMT-39" transform="translate(619.726562 0)"/>
      <use xlink:href="#ArialMT-30" transform="translate(675.341797 0)"/>
      <use xlink:href="#ArialMT-29" transform="translate(730.957031 0)"/>
     </g>
    </g>
    <g id="line2d_39">
     <path d="M 582.66625 485.075937 
L 590.66625 485.075937 
L 598.66625 485.075937 
" style="fill: none; stroke: #e377c2; stroke-width: 2; stroke-linecap: square"/>
    </g>
    <g id="text_21">
     <!-- KNN (AUC=0.4524) -->
     <g transform="translate(605.06625 487.875937) scale(0.08 -0.08)">
      <defs>
       <path id="ArialMT-4b" d="M 469 0 
L 469 4581 
L 1075 4581 
L 1075 2309 
L 3350 4581 
L 4172 4581 
L 2250 2725 
L 4256 0 
L 3456 0 
L 1825 2319 
L 1075 1588 
L 1075 0 
L 469 0 
z
" transform="scale(0.015625)"/>
      </defs>
      <use xlink:href="#ArialMT-4b"/>
      <use xlink:href="#ArialMT-4e" transform="translate(66.699219 0)"/>
      <use xlink:href="#ArialMT-4e" transform="translate(138.916016 0)"/>
      <use xlink:href="#ArialMT-20" transform="translate(211.132812 0)"/>
      <use xlink:href="#ArialMT-28" transform="translate(238.916016 0)"/>
      <use xlink:href="#ArialMT-41" transform="translate(272.216797 0)"/>
      <use xlink:href="#ArialMT-55" transform="translate(338.916016 0)"/>
      <use xlink:href="#ArialMT-43" transform="translate(411.132812 0)"/>
      <use xlink:href="#ArialMT-3d" transform="translate(483.349609 0)"/>
      <use xlink:href="#ArialMT-30" transform="translate(541.748047 0)"/>
      <use xlink:href="#ArialMT-2e" transform="translate(597.363281 0)"/>
      <use xlink:href="#ArialMT-34" transform="translate(625.146484 0)"/>
      <use xlink:href="#ArialMT-35" transform="translate(680.761719 0)"/>
      <use xlink:href="#ArialMT-32" transform="translate(736.376953 0)"/>
      <use xlink:href="#ArialMT-34" transform="translate(791.992188 0)"/>
      <use xlink:href="#ArialMT-29" transform="translate(847.607422 0)"/>
     </g>
    </g>
    <g id="line2d_40">
     <path d="M 582.66625 496.588437 
L 590.66625 496.588437 
L 598.66625 496.588437 
" style="fill: none; stroke: #17becf; stroke-width: 2; stroke-linecap: square"/>
    </g>
    <g id="text_22">
     <!-- NIEOD (AUC=0.5652) -->
     <g transform="translate(605.06625 499.388437) scale(0.08 -0.08)">
      <use xlink:href="#ArialMT-4e"/>
      <use xlink:href="#ArialMT-49" transform="translate(72.216797 0)"/>
      <use xlink:href="#ArialMT-45" transform="translate(100 0)"/>
      <use xlink:href="#ArialMT-4f" transform="translate(166.699219 0)"/>
      <use xlink:href="#ArialMT-44" transform="translate(244.482422 0)"/>
      <use xlink:href="#ArialMT-20" transform="translate(316.699219 0)"/>
      <use xlink:href="#ArialMT-28" transform="translate(344.482422 0)"/>
      <use xlink:href="#ArialMT-41" transform="translate(377.783203 0)"/>
      <use xlink:href="#ArialMT-55" transform="translate(444.482422 0)"/>
      <use xlink:href="#ArialMT-43" transform="translate(516.699219 0)"/>
      <use xlink:href="#ArialMT-3d" transform="translate(588.916016 0)"/>
      <use xlink:href="#ArialMT-30" transform="translate(647.314453 0)"/>
      <use xlink:href="#ArialMT-2e" transform="translate(702.929688 0)"/>
      <use xlink:href="#ArialMT-35" transform="translate(730.712891 0)"/>
      <use xlink:href="#ArialMT-36" transform="translate(786.328125 0)"/>
      <use xlink:href="#ArialMT-35" transform="translate(841.943359 0)"/>
      <use xlink:href="#ArialMT-32" transform="translate(897.558594 0)"/>
      <use xlink:href="#ArialMT-29" transform="translate(953.173828 0)"/>
     </g>
    </g>
    <g id="line2d_41">
     <path d="M 582.66625 508.100937 
L 590.66625 508.100937 
L 598.66625 508.100937 
" style="fill: none; stroke: #e31818; stroke-width: 2.5; stroke-linecap: square"/>
    </g>
    <g id="text_23">
     <!-- NMIGOD (AUC=0.9467) -->
     <g transform="translate(605.06625 510.900937) scale(0.08 -0.08)">
      <defs>
       <path id="ArialMT-4d" d="M 475 0 
L 475 4581 
L 1388 4581 
L 2472 1338 
Q 2622 884 2691 659 
Q 2769 909 2934 1394 
L 4031 4581 
L 4847 4581 
L 4847 0 
L 4263 0 
L 4263 3834 
L 2931 0 
L 2384 0 
L 1059 3900 
L 1059 0 
L 475 0 
z
" transform="scale(0.015625)"/>
      </defs>
      <use xlink:href="#ArialMT-4e"/>
      <use xlink:href="#ArialMT-4d" transform="translate(72.216797 0)"/>
      <use xlink:href="#ArialMT-49" transform="translate(155.517578 0)"/>
      <use xlink:href="#ArialMT-47" transform="translate(183.300781 0)"/>
      <use xlink:href="#ArialMT-4f" transform="translate(261.083984 0)"/>
      <use xlink:href="#ArialMT-44" transform="translate(338.867188 0)"/>
      <use xlink:href="#ArialMT-20" transform="translate(411.083984 0)"/>
      <use xlink:href="#ArialMT-28" transform="translate(438.867188 0)"/>
      <use xlink:href="#ArialMT-41" transform="translate(472.167969 0)"/>
      <use xlink:href="#ArialMT-55" transform="translate(538.867188 0)"/>
      <use xlink:href="#ArialMT-43" transform="translate(611.083984 0)"/>
      <use xlink:href="#ArialMT-3d" transform="translate(683.300781 0)"/>
      <use xlink:href="#ArialMT-30" transform="translate(741.699219 0)"/>
      <use xlink:href="#ArialMT-2e" transform="translate(797.314453 0)"/>
      <use xlink:href="#ArialMT-39" transform="translate(825.097656 0)"/>
      <use xlink:href="#ArialMT-34" transform="translate(880.712891 0)"/>
      <use xlink:href="#ArialMT-36" transform="translate(936.328125 0)"/>
      <use xlink:href="#ArialMT-37" transform="translate(991.943359 0)"/>
      <use xlink:href="#ArialMT-29" transform="translate(1047.558594 0)"/>
     </g>
    </g>
    <g id="line2d_42">
     <path d="M 582.66625 519.510937 
L 590.66625 519.510937 
L 598.66625 519.510937 
" style="fill: none; stroke-dasharray: 3.7,1.6; stroke-dashoffset: 0; stroke: #000000; stroke-opacity: 0.5"/>
    </g>
    <g id="text_24">
     <!-- Random -->
     <g transform="translate(605.06625 522.310937) scale(0.08 -0.08)">
      <defs>
       <path id="ArialMT-61" d="M 2588 409 
Q 2275 144 1986 34 
Q 1697 -75 1366 -75 
Q 819 -75 525 192 
Q 231 459 231 875 
Q 231 1119 342 1320 
Q 453 1522 633 1644 
Q 813 1766 1038 1828 
Q 1203 1872 1538 1913 
Q 2219 1994 2541 2106 
Q 2544 2222 2544 2253 
Q 2544 2597 2384 2738 
Q 2169 2928 1744 2928 
Q 1347 2928 1158 2789 
Q 969 2650 878 2297 
L 328 2372 
Q 403 2725 575 2942 
Q 747 3159 1072 3276 
Q 1397 3394 1825 3394 
Q 2250 3394 2515 3294 
Q 2781 3194 2906 3042 
Q 3031 2891 3081 2659 
Q 3109 2516 3109 2141 
L 3109 1391 
Q 3109 606 3145 398 
Q 3181 191 3288 0 
L 2700 0 
Q 2613 175 2588 409 
z
M 2541 1666 
Q 2234 1541 1622 1453 
Q 1275 1403 1131 1340 
Q 988 1278 909 1158 
Q 831 1038 831 891 
Q 831 666 1001 516 
Q 1172 366 1500 366 
Q 1825 366 2078 508 
Q 2331 650 2450 897 
Q 2541 1088 2541 1459 
L 2541 1666 
z
" transform="scale(0.015625)"/>
       <path id="ArialMT-6e" d="M 422 0 
L 422 3319 
L 928 3319 
L 928 2847 
Q 1294 3394 1984 3394 
Q 2284 3394 2536 3286 
Q 2788 3178 2913 3003 
Q 3038 2828 3088 2588 
Q 3119 2431 3119 2041 
L 3119 0 
L 2556 0 
L 2556 2019 
Q 2556 2363 2490 2533 
Q 2425 2703 2258 2804 
Q 2091 2906 1866 2906 
Q 1506 2906 1245 2678 
Q 984 2450 984 1813 
L 984 0 
L 422 0 
z
" transform="scale(0.015625)"/>
       <path id="ArialMT-64" d="M 2575 0 
L 2575 419 
Q 2259 -75 1647 -75 
Q 1250 -75 917 144 
Q 584 363 401 755 
Q 219 1147 219 1656 
Q 219 2153 384 2558 
Q 550 2963 881 3178 
Q 1213 3394 1622 3394 
Q 1922 3394 2156 3267 
Q 2391 3141 2538 2938 
L 2538 4581 
L 3097 4581 
L 3097 0 
L 2575 0 
z
M 797 1656 
Q 797 1019 1065 703 
Q 1334 388 1700 388 
Q 2069 388 2326 689 
Q 2584 991 2584 1609 
Q 2584 2291 2321 2609 
Q 2059 2928 1675 2928 
Q 1300 2928 1048 2622 
Q 797 2316 797 1656 
z
" transform="scale(0.015625)"/>
       <path id="ArialMT-6f" d="M 213 1659 
Q 213 2581 725 3025 
Q 1153 3394 1769 3394 
Q 2453 3394 2887 2945 
Q 3322 2497 3322 1706 
Q 3322 1066 3130 698 
Q 2938 331 2570 128 
Q 2203 -75 1769 -75 
Q 1072 -75 642 372 
Q 213 819 213 1659 
z
M 791 1659 
Q 791 1022 1069 705 
Q 1347 388 1769 388 
Q 2188 388 2466 706 
Q 2744 1025 2744 1678 
Q 2744 2294 2464 2611 
Q 2184 2928 1769 2928 
Q 1347 2928 1069 2612 
Q 791 2297 791 1659 
z
" transform="scale(0.015625)"/>
       <path id="ArialMT-6d" d="M 422 0 
L 422 3319 
L 925 3319 
L 925 2853 
Q 1081 3097 1340 3245 
Q 1600 3394 1931 3394 
Q 2300 3394 2536 3241 
Q 2772 3088 2869 2813 
Q 3263 3394 3894 3394 
Q 4388 3394 4653 3120 
Q 4919 2847 4919 2278 
L 4919 0 
L 4359 0 
L 4359 2091 
Q 4359 2428 4304 2576 
Q 4250 2725 4106 2815 
Q 3963 2906 3769 2906 
Q 3419 2906 3187 2673 
Q 2956 2441 2956 1928 
L 2956 0 
L 2394 0 
L 2394 2156 
Q 2394 2531 2256 2718 
Q 2119 2906 1806 2906 
Q 1569 2906 1367 2781 
Q 1166 2656 1075 2415 
Q 984 2175 984 1722 
L 984 0 
L 422 0 
z
" transform="scale(0.015625)"/>
      </defs>
      <use xlink:href="#ArialMT-52"/>
      <use xlink:href="#ArialMT-61" transform="translate(72.216797 0)"/>
      <use xlink:href="#ArialMT-6e" transform="translate(127.832031 0)"/>
      <use xlink:href="#ArialMT-64" transform="translate(183.447266 0)"/>
      <use xlink:href="#ArialMT-6f" transform="translate(239.0625 0)"/>
      <use xlink:href="#ArialMT-6d" transform="translate(294.677734 0)"/>
     </g>
    </g>
   </g>
  </g>
 </g>
 <defs>
  <clipPath id="pc8555957b5">
   <rect x="43.0575" y="23.220937" width="655.675" height="507.88"/>
  </clipPath>
 </defs>
</svg>
