<?xml version="1.0" encoding="utf-8" standalone="no"?>
<!DOCTYPE svg PUBLIC "-//W3C//DTD SVG 1.1//EN"
  "http://www.w3.org/Graphics/SVG/1.1/DTD/svg11.dtd">
<svg xmlns:xlink="http://www.w3.org/1999/xlink" width="712.8825pt" height="569.574375pt" viewBox="0 0 712.8825 569.574375" xmlns="http://www.w3.org/2000/svg" version="1.1">
 <metadata>
  <rdf:RDF xmlns:dc="http://purl.org/dc/elements/1.1/" xmlns:cc="http://creativecommons.org/ns#" xmlns:rdf="http://www.w3.org/1999/02/22-rdf-syntax-ns#">
   <cc:Work>
    <dc:type rdf:resource="http://purl.org/dc/dcmitype/StillImage"/>
    <dc:date>2026-06-11T18:29:03.129575</dc:date>
    <dc:format>image/svg+xml</dc:format>
    <dc:creator>
     <cc:Agent>
      <dc:title>Matplotlib v3.10.0, https://matplotlib.org/</dc:title>
     </cc:Agent>
    </dc:creator>
   </cc:Work>
  </rdf:RDF>
 </metadata>
 <defs>
  <style type="text/css">*{stroke-linejoin: round; stroke-linecap: butt}</style>
 </defs>
 <g id="figure_1">
  <g id="patch_1">
   <path d="M -0 569.574375 
L 712.8825 569.574375 
L 712.8825 0 
L -0 0 
z
" style="fill: #ffffff"/>
  </g>
  <g id="axes_1">
   <g id="patch_2">
    <path d="M 43.0575 531.271562 
L 698.7325 531.271562 
L 698.7325 23.391562 
L 43.0575 23.391562 
z
" style="fill: #ffffff"/>
   </g>
   <g id="matplotlib.axis_1">
    <g id="xtick_1">
     <g id="line2d_1">
      <path d="M 43.0575 531.271562 
L 43.0575 23.391562 
" clip-path="url(#p0dc7ba6e83)" style="fill: none; stroke-dasharray: 2.96,1.28; stroke-dashoffset: 0; stroke: #b0b0b0; stroke-opacity: 0.5; stroke-width: 0.8"/>
     </g>
     <g id="line2d_2">
      <defs>
       <path id="md248ef18bb" d="M 0 0 
L 0 3.5 
" style="stroke: #000000; stroke-width: 0.8"/>
      </defs>
      <g>
       <use xlink:href="#md248ef18bb" x="43.0575" y="531.271562" style="stroke: #000000; stroke-width: 0.8"/>
      </g>
     </g>
     <g id="text_1">
      <!-- 0.0 -->
      <g transform="translate(36.1075 545.429375) scale(0.1 -0.1)">
       <defs>
        <path id="ArialMT-30" d="M 266 2259 
Q 266 3072 433 3567 
Q 600 4063 929 4331 
Q 1259 4600 1759 4600 
Q 2128 4600 2406 4451 
Q 2684 4303 2865 4023 
Q 3047 3744 3150 3342 
Q 3253 2941 3253 2259 
Q 3253 1453 3087 958 
Q 2922 463 2592 192 
Q 2263 -78 1759 -78 
Q 1097 -78 719 397 
Q 266 969 266 2259 
z
M 844 2259 
Q 844 1131 1108 757 
Q 1372 384 1759 384 
Q 2147 384 2411 759 
Q 2675 1134 2675 2259 
Q 2675 3391 2411 3762 
Q 2147 4134 1753 4134 
Q 1366 4134 1134 3806 
Q 844 3388 844 2259 
z
" transform="scale(0.015625)"/>
        <path id="ArialMT-2e" d="M 581 0 
L 581 641 
L 1222 641 
L 1222 0 
L 581 0 
z
" transform="scale(0.015625)"/>
       </defs>
       <use xlink:href="#ArialMT-30"/>
       <use xlink:href="#ArialMT-2e" transform="translate(55.615234 0)"/>
       <use xlink:href="#ArialMT-30" transform="translate(83.398438 0)"/>
      </g>
     </g>
    </g>
    <g id="xtick_2">
     <g id="line2d_3">
      <path d="M 174.1925 531.271562 
L 174.1925 23.391562 
" clip-path="url(#p0dc7ba6e83)" style="fill: none; stroke-dasharray: 2.96,1.28; stroke-dashoffset: 0; stroke: #b0b0b0; stroke-opacity: 0.5; stroke-width: 0.8"/>
     </g>
     <g id="line2d_4">
      <g>
       <use xlink:href="#md248ef18bb" x="174.1925" y="531.271562" style="stroke: #000000; stroke-width: 0.8"/>
      </g>
     </g>
     <g id="text_2">
      <!-- 0.2 -->
      <g transform="translate(167.2425 545.429375) scale(0.1 -0.1)">
       <defs>
        <path id="ArialMT-32" d="M 3222 541 
L 3222 0 
L 194 0 
Q 188 203 259 391 
Q 375 700 629 1000 
Q 884 1300 1366 1694 
Q 2113 2306 2375 2664 
Q 2638 3022 2638 3341 
Q 2638 3675 2398 3904 
Q 2159 4134 1775 4134 
Q 1369 4134 1125 3890 
Q 881 3647 878 3216 
L 300 3275 
Q 359 3922 746 4261 
Q 1134 4600 1788 4600 
Q 2447 4600 2831 4234 
Q 3216 3869 3216 3328 
Q 3216 3053 3103 2787 
Q 2991 2522 2730 2228 
Q 2469 1934 1863 1422 
Q 1356 997 1212 845 
Q 1069 694 975 541 
L 3222 541 
z
" transform="scale(0.015625)"/>
       </defs>
       <use xlink:href="#ArialMT-30"/>
       <use xlink:href="#ArialMT-2e" transform="translate(55.615234 0)"/>
       <use xlink:href="#ArialMT-32" transform="translate(83.398438 0)"/>
      </g>
     </g>
    </g>
    <g id="xtick_3">
     <g id="line2d_5">
      <path d="M 305.3275 531.271562 
L 305.3275 23.391562 
" clip-path="url(#p0dc7ba6e83)" style="fill: none; stroke-dasharray: 2.96,1.28; stroke-dashoffset: 0; stroke: #b0b0b0; stroke-opacity: 0.5; stroke-width: 0.8"/>
     </g>
     <g id="line2d_6">
      <g>
       <use xlink:href="#md248ef18bb" x="305.3275" y="531.271562" style="stroke: #000000; stroke-width: 0.8"/>
      </g>
     </g>
     <g id="text_3">
      <!-- 0.4 -->
      <g transform="translate(298.3775 545.429375) scale(0.1 -0.1)">
       <defs>
        <path id="ArialMT-34" d="M 2069 0 
L 2069 1097 
L 81 1097 
L 81 1613 
L 2172 4581 
L 2631 4581 
L 2631 1613 
L 3250 1613 
L 3250 1097 
L 2631 1097 
L 2631 0 
L 2069 0 
z
M 2069 1613 
L 2069 3678 
L 634 1613 
L 2069 1613 
z
" transform="scale(0.015625)"/>
       </defs>
       <use xlink:href="#ArialMT-30"/>
       <use xlink:href="#ArialMT-2e" transform="translate(55.615234 0)"/>
       <use xlink:href="#ArialMT-34" transform="translate(83.398438 0)"/>
      </g>
     </g>
    </g>
    <g id="xtick_4">
     <g id="line2d_7">
      <path d="M 436.4625 531.271562 
L 436.4625 23.391562 
" clip-path="url(#p0dc7ba6e83)" style="fill: none; stroke-dasharray: 2.96,1.28; stroke-dashoffset: 0; stroke: #b0b0b0; stroke-opacity: 0.5; stroke-width: 0.8"/>
     </g>
     <g id="line2d_8">
      <g>
       <use xlink:href="#md248ef18bb" x="436.4625" y="531.271562" style="stroke: #000000; stroke-width: 0.8"/>
      </g>
     </g>
     <g id="text_4">
      <!-- 0.6 -->
      <g transform="translate(429.5125 545.429375) scale(0.1 -0.1)">
       <defs>
        <path id="ArialMT-36" d="M 3184 3459 
L 2625 3416 
Q 2550 3747 2413 3897 
Q 2184 4138 1850 4138 
Q 1581 4138 1378 3988 
Q 1113 3794 959 3422 
Q 806 3050 800 2363 
Q 1003 2672 1297 2822 
Q 1591 2972 1913 2972 
Q 2475 2972 2870 2558 
Q 3266 2144 3266 1488 
Q 3266 1056 3080 686 
Q 2894 316 2569 119 
Q 2244 -78 1831 -78 
Q 1128 -78 684 439 
Q 241 956 241 2144 
Q 241 3472 731 4075 
Q 1159 4600 1884 4600 
Q 2425 4600 2770 4297 
Q 3116 3994 3184 3459 
z
M 888 1484 
Q 888 1194 1011 928 
Q 1134 663 1356 523 
Q 1578 384 1822 384 
Q 2178 384 2434 671 
Q 2691 959 2691 1453 
Q 2691 1928 2437 2201 
Q 2184 2475 1800 2475 
Q 1419 2475 1153 2201 
Q 888 1928 888 1484 
z
" transform="scale(0.015625)"/>
       </defs>
       <use xlink:href="#ArialMT-30"/>
       <use xlink:href="#ArialMT-2e" transform="translate(55.615234 0)"/>
       <use xlink:href="#ArialMT-36" transform="translate(83.398438 0)"/>
      </g>
     </g>
    </g>
    <g id="xtick_5">
     <g id="line2d_9">
      <path d="M 567.5975 531.271562 
L 567.5975 23.391562 
" clip-path="url(#p0dc7ba6e83)" style="fill: none; stroke-dasharray: 2.96,1.28; stroke-dashoffset: 0; stroke: #b0b0b0; stroke-opacity: 0.5; stroke-width: 0.8"/>
     </g>
     <g id="line2d_10">
      <g>
       <use xlink:href="#md248ef18bb" x="567.5975" y="531.271562" style="stroke: #000000; stroke-width: 0.8"/>
      </g>
     </g>
     <g id="text_5">
      <!-- 0.8 -->
      <g transform="translate(560.6475 545.429375) scale(0.1 -0.1)">
       <defs>
        <path id="ArialMT-38" d="M 1131 2484 
Q 781 2613 612 2850 
Q 444 3088 444 3419 
Q 444 3919 803 4259 
Q 1163 4600 1759 4600 
Q 2359 4600 2725 4251 
Q 3091 3903 3091 3403 
Q 3091 3084 2923 2848 
Q 2756 2613 2416 2484 
Q 2838 2347 3058 2040 
Q 3278 1734 3278 1309 
Q 3278 722 2862 322 
Q 2447 -78 1769 -78 
Q 1091 -78 675 323 
Q 259 725 259 1325 
Q 259 1772 486 2073 
Q 713 2375 1131 2484 
z
M 1019 3438 
Q 1019 3113 1228 2906 
Q 1438 2700 1772 2700 
Q 2097 2700 2305 2904 
Q 2513 3109 2513 3406 
Q 2513 3716 2298 3927 
Q 2084 4138 1766 4138 
Q 1444 4138 1231 3931 
Q 1019 3725 1019 3438 
z
M 838 1322 
Q 838 1081 952 856 
Q 1066 631 1291 507 
Q 1516 384 1775 384 
Q 2178 384 2440 643 
Q 2703 903 2703 1303 
Q 2703 1709 2433 1975 
Q 2163 2241 1756 2241 
Q 1359 2241 1098 1978 
Q 838 1716 838 1322 
z
" transform="scale(0.015625)"/>
       </defs>
       <use xlink:href="#ArialMT-30"/>
       <use xlink:href="#ArialMT-2e" transform="translate(55.615234 0)"/>
       <use xlink:href="#ArialMT-38" transform="translate(83.398438 0)"/>
      </g>
     </g>
    </g>
    <g id="xtick_6">
     <g id="line2d_11">
      <path d="M 698.7325 531.271562 
L 698.7325 23.391562 
" clip-path="url(#p0dc7ba6e83)" style="fill: none; stroke-dasharray: 2.96,1.28; stroke-dashoffset: 0; stroke: #b0b0b0; stroke-opacity: 0.5; stroke-width: 0.8"/>
     </g>
     <g id="line2d_12">
      <g>
       <use xlink:href="#md248ef18bb" x="698.7325" y="531.271562" style="stroke: #000000; stroke-width: 0.8"/>
      </g>
     </g>
     <g id="text_6">
      <!-- 1.0 -->
      <g transform="translate(691.7825 545.429375) scale(0.1 -0.1)">
       <defs>
        <path id="ArialMT-31" d="M 2384 0 
L 1822 0 
L 1822 3584 
Q 1619 3391 1289 3197 
Q 959 3003 697 2906 
L 697 3450 
Q 1169 3672 1522 3987 
Q 1875 4303 2022 4600 
L 2384 4600 
L 2384 0 
z
" transform="scale(0.015625)"/>
       </defs>
       <use xlink:href="#ArialMT-31"/>
       <use xlink:href="#ArialMT-2e" transform="translate(55.615234 0)"/>
       <use xlink:href="#ArialMT-30" transform="translate(83.398438 0)"/>
      </g>
     </g>
    </g>
    <g id="text_7">
     <!-- False Positive Rate -->
     <g transform="translate(316.207813 560.00625) scale(0.12 -0.12)">
      <defs>
       <path id="Arial-BoldMT-46" d="M 472 0 
L 472 4581 
L 3613 4581 
L 3613 3806 
L 1397 3806 
L 1397 2722 
L 3309 2722 
L 3309 1947 
L 1397 1947 
L 1397 0 
L 472 0 
z
" transform="scale(0.015625)"/>
       <path id="Arial-BoldMT-61" d="M 1116 2306 
L 319 2450 
Q 453 2931 781 3162 
Q 1109 3394 1756 3394 
Q 2344 3394 2631 3255 
Q 2919 3116 3036 2902 
Q 3153 2688 3153 2116 
L 3144 1091 
Q 3144 653 3186 445 
Q 3228 238 3344 0 
L 2475 0 
Q 2441 88 2391 259 
Q 2369 338 2359 363 
Q 2134 144 1878 34 
Q 1622 -75 1331 -75 
Q 819 -75 523 203 
Q 228 481 228 906 
Q 228 1188 362 1408 
Q 497 1628 739 1745 
Q 981 1863 1438 1950 
Q 2053 2066 2291 2166 
L 2291 2253 
Q 2291 2506 2166 2614 
Q 2041 2722 1694 2722 
Q 1459 2722 1328 2630 
Q 1197 2538 1116 2306 
z
M 2291 1594 
Q 2122 1538 1756 1459 
Q 1391 1381 1278 1306 
Q 1106 1184 1106 997 
Q 1106 813 1243 678 
Q 1381 544 1594 544 
Q 1831 544 2047 700 
Q 2206 819 2256 991 
Q 2291 1103 2291 1419 
L 2291 1594 
z
" transform="scale(0.015625)"/>
       <path id="Arial-BoldMT-6c" d="M 459 0 
L 459 4581 
L 1338 4581 
L 1338 0 
L 459 0 
z
" transform="scale(0.015625)"/>
       <path id="Arial-BoldMT-73" d="M 150 947 
L 1031 1081 
Q 1088 825 1259 692 
Q 1431 559 1741 559 
Q 2081 559 2253 684 
Q 2369 772 2369 919 
Q 2369 1019 2306 1084 
Q 2241 1147 2013 1200 
Q 950 1434 666 1628 
Q 272 1897 272 2375 
Q 272 2806 612 3100 
Q 953 3394 1669 3394 
Q 2350 3394 2681 3172 
Q 3013 2950 3138 2516 
L 2309 2363 
Q 2256 2556 2107 2659 
Q 1959 2763 1684 2763 
Q 1338 2763 1188 2666 
Q 1088 2597 1088 2488 
Q 1088 2394 1175 2328 
Q 1294 2241 1995 2081 
Q 2697 1922 2975 1691 
Q 3250 1456 3250 1038 
Q 3250 581 2869 253 
Q 2488 -75 1741 -75 
Q 1063 -75 667 200 
Q 272 475 150 947 
z
" transform="scale(0.015625)"/>
       <path id="Arial-BoldMT-65" d="M 2381 1056 
L 3256 909 
Q 3088 428 2723 176 
Q 2359 -75 1813 -75 
Q 947 -75 531 491 
Q 203 944 203 1634 
Q 203 2459 634 2926 
Q 1066 3394 1725 3394 
Q 2466 3394 2894 2905 
Q 3322 2416 3303 1406 
L 1103 1406 
Q 1113 1016 1316 798 
Q 1519 581 1822 581 
Q 2028 581 2168 693 
Q 2309 806 2381 1056 
z
M 2431 1944 
Q 2422 2325 2234 2523 
Q 2047 2722 1778 2722 
Q 1491 2722 1303 2513 
Q 1116 2303 1119 1944 
L 2431 1944 
z
" transform="scale(0.015625)"/>
       <path id="Arial-BoldMT-20" transform="scale(0.015625)"/>
       <path id="Arial-BoldMT-50" d="M 466 0 
L 466 4581 
L 1950 4581 
Q 2794 4581 3050 4513 
Q 3444 4409 3709 4064 
Q 3975 3719 3975 3172 
Q 3975 2750 3822 2462 
Q 3669 2175 3433 2011 
Q 3197 1847 2953 1794 
Q 2622 1728 1994 1728 
L 1391 1728 
L 1391 0 
L 466 0 
z
M 1391 3806 
L 1391 2506 
L 1897 2506 
Q 2444 2506 2628 2578 
Q 2813 2650 2917 2803 
Q 3022 2956 3022 3159 
Q 3022 3409 2875 3571 
Q 2728 3734 2503 3775 
Q 2338 3806 1838 3806 
L 1391 3806 
z
" transform="scale(0.015625)"/>
       <path id="Arial-BoldMT-6f" d="M 256 1706 
Q 256 2144 472 2553 
Q 688 2963 1083 3178 
Q 1478 3394 1966 3394 
Q 2719 3394 3200 2905 
Q 3681 2416 3681 1669 
Q 3681 916 3195 420 
Q 2709 -75 1972 -75 
Q 1516 -75 1102 131 
Q 688 338 472 736 
Q 256 1134 256 1706 
z
M 1156 1659 
Q 1156 1166 1390 903 
Q 1625 641 1969 641 
Q 2313 641 2545 903 
Q 2778 1166 2778 1666 
Q 2778 2153 2545 2415 
Q 2313 2678 1969 2678 
Q 1625 2678 1390 2415 
Q 1156 2153 1156 1659 
z
" transform="scale(0.015625)"/>
       <path id="Arial-BoldMT-69" d="M 459 3769 
L 459 4581 
L 1338 4581 
L 1338 3769 
L 459 3769 
z
M 459 0 
L 459 3319 
L 1338 3319 
L 1338 0 
L 459 0 
z
" transform="scale(0.015625)"/>
       <path id="Arial-BoldMT-74" d="M 1981 3319 
L 1981 2619 
L 1381 2619 
L 1381 1281 
Q 1381 875 1398 808 
Q 1416 741 1477 697 
Q 1538 653 1625 653 
Q 1747 653 1978 738 
L 2053 56 
Q 1747 -75 1359 -75 
Q 1122 -75 931 4 
Q 741 84 652 211 
Q 563 338 528 553 
Q 500 706 500 1172 
L 500 2619 
L 97 2619 
L 97 3319 
L 500 3319 
L 500 3978 
L 1381 4491 
L 1381 3319 
L 1981 3319 
z
" transform="scale(0.015625)"/>
       <path id="Arial-BoldMT-76" d="M 1372 0 
L 34 3319 
L 956 3319 
L 1581 1625 
L 1763 1059 
Q 1834 1275 1853 1344 
Q 1897 1484 1947 1625 
L 2578 3319 
L 3481 3319 
L 2163 0 
L 1372 0 
z
" transform="scale(0.015625)"/>
       <path id="Arial-BoldMT-52" d="M 469 0 
L 469 4581 
L 2416 4581 
Q 3150 4581 3483 4457 
Q 3816 4334 4016 4018 
Q 4216 3703 4216 3297 
Q 4216 2781 3912 2445 
Q 3609 2109 3006 2022 
Q 3306 1847 3501 1637 
Q 3697 1428 4028 894 
L 4588 0 
L 3481 0 
L 2813 997 
Q 2456 1531 2325 1670 
Q 2194 1809 2047 1861 
Q 1900 1913 1581 1913 
L 1394 1913 
L 1394 0 
L 469 0 
z
M 1394 2644 
L 2078 2644 
Q 2744 2644 2909 2700 
Q 3075 2756 3169 2893 
Q 3263 3031 3263 3238 
Q 3263 3469 3139 3611 
Q 3016 3753 2791 3791 
Q 2678 3806 2116 3806 
L 1394 3806 
L 1394 2644 
z
" transform="scale(0.015625)"/>
      </defs>
      <use xlink:href="#Arial-BoldMT-46"/>
      <use xlink:href="#Arial-BoldMT-61" transform="translate(61.083984 0)"/>
      <use xlink:href="#Arial-BoldMT-6c" transform="translate(116.699219 0)"/>
      <use xlink:href="#Arial-BoldMT-73" transform="translate(144.482422 0)"/>
      <use xlink:href="#Arial-BoldMT-65" transform="translate(200.097656 0)"/>
      <use xlink:href="#Arial-BoldMT-20" transform="translate(255.712891 0)"/>
      <use xlink:href="#Arial-BoldMT-50" transform="translate(283.496094 0)"/>
      <use xlink:href="#Arial-BoldMT-6f" transform="translate(350.195312 0)"/>
      <use xlink:href="#Arial-BoldMT-73" transform="translate(411.279297 0)"/>
      <use xlink:href="#Arial-BoldMT-69" transform="translate(466.894531 0)"/>
      <use xlink:href="#Arial-BoldMT-74" transform="translate(494.677734 0)"/>
      <use xlink:href="#Arial-BoldMT-69" transform="translate(527.978516 0)"/>
      <use xlink:href="#Arial-BoldMT-76" transform="translate(555.761719 0)"/>
      <use xlink:href="#Arial-BoldMT-65" transform="translate(611.376953 0)"/>
      <use xlink:href="#Arial-BoldMT-20" transform="translate(666.992188 0)"/>
      <use xlink:href="#Arial-BoldMT-52" transform="translate(694.775391 0)"/>
      <use xlink:href="#Arial-BoldMT-61" transform="translate(766.992188 0)"/>
      <use xlink:href="#Arial-BoldMT-74" transform="translate(822.607422 0)"/>
      <use xlink:href="#Arial-BoldMT-65" transform="translate(855.908203 0)"/>
     </g>
    </g>
   </g>
   <g id="matplotlib.axis_2">
    <g id="ytick_1">
     <g id="line2d_13">
      <path d="M 43.0575 531.271562 
L 698.7325 531.271562 
" clip-path="url(#p0dc7ba6e83)" style="fill: none; stroke-dasharray: 2.96,1.28; stroke-dashoffset: 0; stroke: #b0b0b0; stroke-opacity: 0.5; stroke-width: 0.8"/>
     </g>
     <g id="line2d_14">
      <defs>
       <path id="m235c758686" d="M 0 0 
L -3.5 0 
" style="stroke: #000000; stroke-width: 0.8"/>
      </defs>
      <g>
       <use xlink:href="#m235c758686" x="43.0575" y="531.271562" style="stroke: #000000; stroke-width: 0.8"/>
      </g>
     </g>
     <g id="text_8">
      <!-- 0.0 -->
      <g transform="translate(22.1575 534.850469) scale(0.1 -0.1)">
       <use xlink:href="#ArialMT-30"/>
       <use xlink:href="#ArialMT-2e" transform="translate(55.615234 0)"/>
       <use xlink:href="#ArialMT-30" transform="translate(83.398438 0)"/>
      </g>
     </g>
    </g>
    <g id="ytick_2">
     <g id="line2d_15">
      <path d="M 43.0575 434.532515 
L 698.7325 434.532515 
" clip-path="url(#p0dc7ba6e83)" style="fill: none; stroke-dasharray: 2.96,1.28; stroke-dashoffset: 0; stroke: #b0b0b0; stroke-opacity: 0.5; stroke-width: 0.8"/>
     </g>
     <g id="line2d_16">
      <g>
       <use xlink:href="#m235c758686" x="43.0575" y="434.532515" style="stroke: #000000; stroke-width: 0.8"/>
      </g>
     </g>
     <g id="text_9">
      <!-- 0.2 -->
      <g transform="translate(22.1575 438.111421) scale(0.1 -0.1)">
       <use xlink:href="#ArialMT-30"/>
       <use xlink:href="#ArialMT-2e" transform="translate(55.615234 0)"/>
       <use xlink:href="#ArialMT-32" transform="translate(83.398438 0)"/>
      </g>
     </g>
    </g>
    <g id="ytick_3">
     <g id="line2d_17">
      <path d="M 43.0575 337.793467 
L 698.7325 337.793467 
" clip-path="url(#p0dc7ba6e83)" style="fill: none; stroke-dasharray: 2.96,1.28; stroke-dashoffset: 0; stroke: #b0b0b0; stroke-opacity: 0.5; stroke-width: 0.8"/>
     </g>
     <g id="line2d_18">
      <g>
       <use xlink:href="#m235c758686" x="43.0575" y="337.793467" style="stroke: #000000; stroke-width: 0.8"/>
      </g>
     </g>
     <g id="text_10">
      <!-- 0.4 -->
      <g transform="translate(22.1575 341.372374) scale(0.1 -0.1)">
       <use xlink:href="#ArialMT-30"/>
       <use xlink:href="#ArialMT-2e" transform="translate(55.615234 0)"/>
       <use xlink:href="#ArialMT-34" transform="translate(83.398438 0)"/>
      </g>
     </g>
    </g>
    <g id="ytick_4">
     <g id="line2d_19">
      <path d="M 43.0575 241.05442 
L 698.7325 241.05442 
" clip-path="url(#p0dc7ba6e83)" style="fill: none; stroke-dasharray: 2.96,1.28; stroke-dashoffset: 0; stroke: #b0b0b0; stroke-opacity: 0.5; stroke-width: 0.8"/>
     </g>
     <g id="line2d_20">
      <g>
       <use xlink:href="#m235c758686" x="43.0575" y="241.05442" style="stroke: #000000; stroke-width: 0.8"/>
      </g>
     </g>
     <g id="text_11">
      <!-- 0.6 -->
      <g transform="translate(22.1575 244.633326) scale(0.1 -0.1)">
       <use xlink:href="#ArialMT-30"/>
       <use xlink:href="#ArialMT-2e" transform="translate(55.615234 0)"/>
       <use xlink:href="#ArialMT-36" transform="translate(83.398438 0)"/>
      </g>
     </g>
    </g>
    <g id="ytick_5">
     <g id="line2d_21">
      <path d="M 43.0575 144.315372 
L 698.7325 144.315372 
" clip-path="url(#p0dc7ba6e83)" style="fill: none; stroke-dasharray: 2.96,1.28; stroke-dashoffset: 0; stroke: #b0b0b0; stroke-opacity: 0.5; stroke-width: 0.8"/>
     </g>
     <g id="line2d_22">
      <g>
       <use xlink:href="#m235c758686" x="43.0575" y="144.315372" style="stroke: #000000; stroke-width: 0.8"/>
      </g>
     </g>
     <g id="text_12">
      <!-- 0.8 -->
      <g transform="translate(22.1575 147.894278) scale(0.1 -0.1)">
       <use xlink:href="#ArialMT-30"/>
       <use xlink:href="#ArialMT-2e" transform="translate(55.615234 0)"/>
       <use xlink:href="#ArialMT-38" transform="translate(83.398438 0)"/>
      </g>
     </g>
    </g>
    <g id="ytick_6">
     <g id="line2d_23">
      <path d="M 43.0575 47.576324 
L 698.7325 47.576324 
" clip-path="url(#p0dc7ba6e83)" style="fill: none; stroke-dasharray: 2.96,1.28; stroke-dashoffset: 0; stroke: #b0b0b0; stroke-opacity: 0.5; stroke-width: 0.8"/>
     </g>
     <g id="line2d_24">
      <g>
       <use xlink:href="#m235c758686" x="43.0575" y="47.576324" style="stroke: #000000; stroke-width: 0.8"/>
      </g>
     </g>
     <g id="text_13">
      <!-- 1.0 -->
      <g transform="translate(22.1575 51.155231) scale(0.1 -0.1)">
       <use xlink:href="#ArialMT-31"/>
       <use xlink:href="#ArialMT-2e" transform="translate(55.615234 0)"/>
       <use xlink:href="#ArialMT-30" transform="translate(83.398438 0)"/>
      </g>
     </g>
    </g>
    <g id="text_14">
     <!-- True Positive Rate -->
     <g transform="translate(15.789375 329.34875) rotate(-90) scale(0.12 -0.12)">
      <defs>
       <path id="Arial-BoldMT-54" d="M 1497 0 
L 1497 3806 
L 138 3806 
L 138 4581 
L 3778 4581 
L 3778 3806 
L 2422 3806 
L 2422 0 
L 1497 0 
z
" transform="scale(0.015625)"/>
       <path id="Arial-BoldMT-72" d="M 1300 0 
L 422 0 
L 422 3319 
L 1238 3319 
L 1238 2847 
Q 1447 3181 1614 3287 
Q 1781 3394 1994 3394 
Q 2294 3394 2572 3228 
L 2300 2463 
Q 2078 2606 1888 2606 
Q 1703 2606 1575 2504 
Q 1447 2403 1373 2137 
Q 1300 1872 1300 1025 
L 1300 0 
z
" transform="scale(0.015625)"/>
       <path id="Arial-BoldMT-75" d="M 2644 0 
L 2644 497 
Q 2463 231 2167 78 
Q 1872 -75 1544 -75 
Q 1209 -75 943 72 
Q 678 219 559 484 
Q 441 750 441 1219 
L 441 3319 
L 1319 3319 
L 1319 1794 
Q 1319 1094 1367 936 
Q 1416 778 1544 686 
Q 1672 594 1869 594 
Q 2094 594 2272 717 
Q 2450 841 2515 1023 
Q 2581 1206 2581 1919 
L 2581 3319 
L 3459 3319 
L 3459 0 
L 2644 0 
z
" transform="scale(0.015625)"/>
      </defs>
      <use xlink:href="#Arial-BoldMT-54"/>
      <use xlink:href="#Arial-BoldMT-72" transform="translate(55.583984 0)"/>
      <use xlink:href="#Arial-BoldMT-75" transform="translate(94.5 0)"/>
      <use xlink:href="#Arial-BoldMT-65" transform="translate(155.583984 0)"/>
      <use xlink:href="#Arial-BoldMT-20" transform="translate(211.199219 0)"/>
      <use xlink:href="#Arial-BoldMT-50" transform="translate(238.982422 0)"/>
      <use xlink:href="#Arial-BoldMT-6f" transform="translate(305.681641 0)"/>
      <use xlink:href="#Arial-BoldMT-73" transform="translate(366.765625 0)"/>
      <use xlink:href="#Arial-BoldMT-69" transform="translate(422.380859 0)"/>
      <use xlink:href="#Arial-BoldMT-74" transform="translate(450.164062 0)"/>
      <use xlink:href="#Arial-BoldMT-69" transform="translate(483.464844 0)"/>
      <use xlink:href="#Arial-BoldMT-76" transform="translate(511.248047 0)"/>
      <use xlink:href="#Arial-BoldMT-65" transform="translate(566.863281 0)"/>
      <use xlink:href="#Arial-BoldMT-20" transform="translate(622.478516 0)"/>
      <use xlink:href="#Arial-BoldMT-52" transform="translate(650.261719 0)"/>
      <use xlink:href="#Arial-BoldMT-61" transform="translate(722.478516 0)"/>
      <use xlink:href="#Arial-BoldMT-74" transform="translate(778.09375 0)"/>
      <use xlink:href="#Arial-BoldMT-65" transform="translate(811.394531 0)"/>
     </g>
    </g>
   </g>
   <g id="line2d_25">
    <path d="M 43.0575 531.271562 
L 43.0575 526.43461 
L 50.550929 526.43461 
L 50.550929 516.760705 
L 52.424286 516.760705 
L 52.424286 511.923753 
L 58.044357 511.923753 
L 58.044357 507.086801 
L 68.347821 507.086801 
L 68.347821 502.249848 
L 73.031214 502.249848 
L 73.031214 497.412896 
L 73.967893 497.412896 
L 73.967893 492.575943 
L 79.587964 492.575943 
L 79.587964 487.738991 
L 82.398 487.738991 
L 82.398 482.902039 
L 84.271357 482.902039 
L 84.271357 478.065086 
L 89.891429 478.065086 
L 89.891429 473.228134 
L 92.701464 473.228134 
L 92.701464 468.391182 
L 101.131571 468.391182 
L 101.131571 458.717277 
L 104.878286 458.717277 
L 104.878286 453.880324 
L 109.561679 453.880324 
L 109.561679 449.043372 
L 110.498357 449.043372 
L 110.498357 444.20642 
L 111.435036 444.20642 
L 111.435036 439.369467 
L 117.055107 439.369467 
L 117.055107 434.532515 
L 117.991786 434.532515 
L 117.991786 429.695562 
L 121.7385 429.695562 
L 121.7385 424.85861 
L 131.105286 424.85861 
L 131.105286 420.021658 
L 135.788679 420.021658 
L 135.788679 415.184705 
L 137.662036 415.184705 
L 137.662036 405.510801 
L 148.902179 405.510801 
L 148.902179 400.673848 
L 160.142321 400.673848 
L 160.142321 395.836896 
L 163.889036 395.836896 
L 163.889036 390.999943 
L 177.939214 390.999943 
L 177.939214 381.326039 
L 179.812571 381.326039 
L 179.812571 371.652134 
L 187.306 371.652134 
L 187.306 366.815182 
L 188.242679 366.815182 
L 188.242679 361.978229 
L 191.052714 361.978229 
L 191.052714 357.141277 
L 208.849607 357.141277 
L 208.849607 352.304324 
L 213.533 352.304324 
L 213.533 347.467372 
L 222.899786 347.467372 
L 222.899786 342.63042 
L 235.076607 342.63042 
L 235.076607 337.793467 
L 240.696679 337.793467 
L 240.696679 332.956515 
L 245.380071 332.956515 
L 245.380071 328.119562 
L 257.556893 328.119562 
L 257.556893 323.28261 
L 259.43025 323.28261 
L 259.43025 318.445658 
L 269.733714 318.445658 
L 269.733714 308.771753 
L 277.227143 308.771753 
L 277.227143 303.934801 
L 291.277321 303.934801 
L 291.277321 299.097848 
L 292.214 299.097848 
L 292.214 294.260896 
L 295.024036 294.260896 
L 295.024036 289.423943 
L 299.707429 289.423943 
L 299.707429 284.586991 
L 307.200857 284.586991 
L 307.200857 279.750039 
L 331.5545 279.750039 
L 331.5545 274.913086 
L 335.301214 274.913086 
L 335.301214 270.076134 
L 345.604679 270.076134 
L 345.604679 265.239182 
L 346.541357 265.239182 
L 346.541357 260.402229 
L 354.034786 260.402229 
L 354.034786 255.565277 
L 355.908143 255.565277 
L 355.908143 250.728324 
L 359.654857 250.728324 
L 359.654857 245.891372 
L 362.464893 245.891372 
L 362.464893 241.05442 
L 365.274929 241.05442 
L 365.274929 236.217467 
L 368.084964 236.217467 
L 368.084964 231.380515 
L 376.515071 231.380515 
L 376.515071 226.543562 
L 389.628571 226.543562 
L 389.628571 221.70661 
L 400.868714 221.70661 
L 400.868714 216.869658 
L 428.032393 216.869658 
L 428.032393 207.195753 
L 433.652464 207.195753 
L 433.652464 202.358801 
L 435.525821 202.358801 
L 435.525821 197.521848 
L 442.082571 197.521848 
L 442.082571 192.684896 
L 448.639321 192.684896 
L 448.639321 187.847943 
L 458.006107 187.847943 
L 458.006107 183.010991 
L 472.992964 183.010991 
L 472.992964 178.174039 
L 476.739679 178.174039 
L 476.739679 173.337086 
L 478.613036 173.337086 
L 478.613036 168.500134 
L 490.789857 168.500134 
L 490.789857 163.663182 
L 494.536571 163.663182 
L 494.536571 158.826229 
L 502.966679 158.826229 
L 502.966679 149.152324 
L 513.270143 149.152324 
L 513.270143 139.47842 
L 519.826893 139.47842 
L 519.826893 134.641467 
L 520.763571 134.641467 
L 520.763571 124.967562 
L 522.636929 124.967562 
L 522.636929 120.13061 
L 546.990571 120.13061 
L 546.990571 115.293658 
L 548.863929 115.293658 
L 548.863929 110.456705 
L 554.484 110.456705 
L 554.484 105.619753 
L 573.217571 105.619753 
L 573.217571 100.782801 
L 585.394393 100.782801 
L 585.394393 95.945848 
L 586.331071 95.945848 
L 586.331071 86.271943 
L 608.811357 86.271943 
L 608.811357 81.434991 
L 616.304786 81.434991 
L 616.304786 76.598039 
L 624.734893 76.598039 
L 624.734893 71.761086 
L 628.481607 71.761086 
L 628.481607 66.924134 
L 633.165 66.924134 
L 633.165 62.087182 
L 635.975036 62.087182 
L 635.975036 57.250229 
L 653.771929 57.250229 
L 653.771929 47.576324 
L 698.7325 47.576324 
L 698.7325 47.576324 
" clip-path="url(#p0dc7ba6e83)" style="fill: none; stroke: #1f77b4; stroke-width: 2; stroke-linecap: square"/>
   </g>
   <g id="line2d_26">
    <path d="M 43.0575 531.271562 
L 43.0575 526.43461 
L 49.61425 526.43461 
L 49.61425 521.597658 
L 52.424286 521.597658 
L 52.424286 511.923753 
L 57.107679 511.923753 
L 57.107679 507.086801 
L 58.044357 507.086801 
L 58.044357 502.249848 
L 71.157857 502.249848 
L 71.157857 492.575943 
L 73.031214 492.575943 
L 73.031214 487.738991 
L 74.904571 487.738991 
L 74.904571 482.902039 
L 80.524643 482.902039 
L 80.524643 478.065086 
L 82.398 478.065086 
L 82.398 473.228134 
L 83.334679 473.228134 
L 83.334679 468.391182 
L 95.5115 468.391182 
L 95.5115 453.880324 
L 99.258214 453.880324 
L 99.258214 444.20642 
L 101.131571 444.20642 
L 101.131571 439.369467 
L 104.878286 439.369467 
L 104.878286 434.532515 
L 114.245071 434.532515 
L 114.245071 429.695562 
L 117.055107 429.695562 
L 117.055107 420.021658 
L 119.865143 420.021658 
L 119.865143 415.184705 
L 120.801821 415.184705 
L 120.801821 410.347753 
L 129.231929 410.347753 
L 129.231929 405.510801 
L 136.725357 405.510801 
L 136.725357 400.673848 
L 143.282107 400.673848 
L 143.282107 395.836896 
L 150.775536 395.836896 
L 150.775536 390.999943 
L 167.63575 390.999943 
L 167.63575 386.162991 
L 182.622607 386.162991 
L 182.622607 381.326039 
L 184.495964 381.326039 
L 184.495964 376.489086 
L 187.306 376.489086 
L 187.306 366.815182 
L 192.926071 366.815182 
L 192.926071 361.978229 
L 194.799429 361.978229 
L 194.799429 352.304324 
L 205.102893 352.304324 
L 205.102893 347.467372 
L 207.912929 347.467372 
L 207.912929 342.63042 
L 213.533 342.63042 
L 213.533 337.793467 
L 219.153071 337.793467 
L 219.153071 332.956515 
L 235.076607 332.956515 
L 235.076607 328.119562 
L 236.949964 328.119562 
L 236.949964 323.28261 
L 241.633357 323.28261 
L 241.633357 318.445658 
L 242.570036 318.445658 
L 242.570036 313.608705 
L 257.556893 313.608705 
L 257.556893 308.771753 
L 260.366929 308.771753 
L 260.366929 303.934801 
L 263.176964 303.934801 
L 263.176964 299.097848 
L 266.923679 299.097848 
L 266.923679 284.586991 
L 273.480429 284.586991 
L 273.480429 279.750039 
L 280.973857 279.750039 
L 280.973857 274.913086 
L 283.783893 274.913086 
L 283.783893 270.076134 
L 287.530607 270.076134 
L 287.530607 265.239182 
L 298.77075 265.239182 
L 298.77075 260.402229 
L 303.454143 260.402229 
L 303.454143 255.565277 
L 314.694286 255.565277 
L 314.694286 250.728324 
L 332.491179 250.728324 
L 332.491179 245.891372 
L 338.11125 245.891372 
L 338.11125 241.05442 
L 339.047929 241.05442 
L 339.047929 236.217467 
L 349.351393 236.217467 
L 349.351393 231.380515 
L 359.654857 231.380515 
L 359.654857 226.543562 
L 372.768357 226.543562 
L 372.768357 221.70661 
L 397.122 221.70661 
L 397.122 216.869658 
L 402.742071 216.869658 
L 402.742071 212.032705 
L 404.615429 212.032705 
L 404.615429 202.358801 
L 440.209214 202.358801 
L 440.209214 197.521848 
L 453.322714 197.521848 
L 453.322714 192.684896 
L 481.423071 192.684896 
L 481.423071 187.847943 
L 483.296429 187.847943 
L 483.296429 183.010991 
L 487.043143 183.010991 
L 487.043143 178.174039 
L 488.9165 178.174039 
L 488.9165 173.337086 
L 491.726536 173.337086 
L 491.726536 168.500134 
L 496.409929 168.500134 
L 496.409929 163.663182 
L 501.093321 163.663182 
L 501.093321 158.826229 
L 510.460107 158.826229 
L 510.460107 153.989277 
L 516.080179 153.989277 
L 516.080179 149.152324 
L 521.70025 149.152324 
L 521.70025 144.315372 
L 522.636929 144.315372 
L 522.636929 139.47842 
L 526.383643 139.47842 
L 526.383643 129.804515 
L 533.877071 129.804515 
L 533.877071 124.967562 
L 539.497143 124.967562 
L 539.497143 120.13061 
L 542.307179 120.13061 
L 542.307179 115.293658 
L 547.92725 115.293658 
L 547.92725 110.456705 
L 557.294036 110.456705 
L 557.294036 100.782801 
L 560.104071 100.782801 
L 560.104071 95.945848 
L 561.04075 95.945848 
L 561.04075 91.108896 
L 570.407536 91.108896 
L 570.407536 86.271943 
L 582.584357 86.271943 
L 582.584357 81.434991 
L 615.368107 81.434991 
L 615.368107 76.598039 
L 617.241464 76.598039 
L 617.241464 71.761086 
L 627.544929 71.761086 
L 627.544929 66.924134 
L 629.418286 66.924134 
L 629.418286 57.250229 
L 651.898571 57.250229 
L 651.898571 52.413277 
L 667.822107 52.413277 
L 667.822107 47.576324 
L 698.7325 47.576324 
L 698.7325 47.576324 
" clip-path="url(#p0dc7ba6e83)" style="fill: none; stroke: #ff7f0e; stroke-width: 2; stroke-linecap: square"/>
   </g>
   <g id="line2d_27">
    <path d="M 43.0575 531.271562 
L 43.0575 511.923753 
L 45.867536 511.923753 
L 45.867536 507.086801 
L 60.854393 507.086801 
L 60.854393 502.249848 
L 62.72775 502.249848 
L 62.72775 497.412896 
L 67.411143 497.412896 
L 67.411143 492.575943 
L 73.031214 492.575943 
L 73.031214 487.738991 
L 75.84125 487.738991 
L 75.84125 482.902039 
L 77.714607 482.902039 
L 77.714607 478.065086 
L 82.398 478.065086 
L 82.398 473.228134 
L 87.081393 473.228134 
L 87.081393 468.391182 
L 88.95475 468.391182 
L 88.95475 463.554229 
L 89.891429 463.554229 
L 89.891429 458.717277 
L 103.941607 458.717277 
L 103.941607 453.880324 
L 105.814964 453.880324 
L 105.814964 444.20642 
L 108.625 444.20642 
L 108.625 439.369467 
L 115.18175 439.369467 
L 115.18175 429.695562 
L 117.055107 429.695562 
L 117.055107 424.85861 
L 119.865143 424.85861 
L 119.865143 420.021658 
L 120.801821 420.021658 
L 120.801821 415.184705 
L 122.675179 415.184705 
L 122.675179 410.347753 
L 127.358571 410.347753 
L 127.358571 405.510801 
L 136.725357 405.510801 
L 136.725357 400.673848 
L 138.598714 400.673848 
L 138.598714 395.836896 
L 142.345429 395.836896 
L 142.345429 390.999943 
L 165.762393 390.999943 
L 165.762393 381.326039 
L 177.939214 381.326039 
L 177.939214 376.489086 
L 185.432643 376.489086 
L 185.432643 361.978229 
L 188.242679 361.978229 
L 188.242679 357.141277 
L 215.406357 357.141277 
L 215.406357 352.304324 
L 220.08975 352.304324 
L 220.08975 347.467372 
L 231.329893 347.467372 
L 231.329893 342.63042 
L 239.76 342.63042 
L 239.76 332.956515 
L 241.633357 332.956515 
L 241.633357 328.119562 
L 257.556893 328.119562 
L 257.556893 323.28261 
L 265.987 323.28261 
L 265.987 318.445658 
L 269.733714 318.445658 
L 269.733714 313.608705 
L 278.163821 313.608705 
L 278.163821 308.771753 
L 282.847214 308.771753 
L 282.847214 303.934801 
L 285.65725 303.934801 
L 285.65725 299.097848 
L 298.77075 299.097848 
L 298.77075 294.260896 
L 301.580786 294.260896 
L 301.580786 289.423943 
L 317.504321 289.423943 
L 317.504321 284.586991 
L 323.124393 284.586991 
L 323.124393 279.750039 
L 324.99775 279.750039 
L 324.99775 274.913086 
L 327.807786 274.913086 
L 327.807786 270.076134 
L 335.301214 270.076134 
L 335.301214 265.239182 
L 350.288071 265.239182 
L 350.288071 260.402229 
L 360.591536 260.402229 
L 360.591536 255.565277 
L 369.958321 255.565277 
L 369.958321 250.728324 
L 371.831679 250.728324 
L 371.831679 245.891372 
L 374.641714 245.891372 
L 374.641714 241.05442 
L 385.881857 241.05442 
L 385.881857 236.217467 
L 387.755214 236.217467 
L 387.755214 231.380515 
L 399.932036 231.380515 
L 399.932036 226.543562 
L 406.488786 226.543562 
L 406.488786 221.70661 
L 410.2355 221.70661 
L 410.2355 216.869658 
L 413.982214 216.869658 
L 413.982214 212.032705 
L 415.855571 212.032705 
L 415.855571 207.195753 
L 428.032393 207.195753 
L 428.032393 202.358801 
L 442.082571 202.358801 
L 442.082571 197.521848 
L 444.892607 197.521848 
L 444.892607 192.684896 
L 449.576 192.684896 
L 449.576 187.847943 
L 483.296429 187.847943 
L 483.296429 183.010991 
L 484.233107 183.010991 
L 484.233107 178.174039 
L 486.106464 178.174039 
L 486.106464 173.337086 
L 487.043143 173.337086 
L 487.043143 168.500134 
L 503.903357 168.500134 
L 503.903357 163.663182 
L 526.383643 163.663182 
L 526.383643 158.826229 
L 530.130357 158.826229 
L 530.130357 153.989277 
L 544.180536 153.989277 
L 544.180536 149.152324 
L 546.053893 149.152324 
L 546.053893 144.315372 
L 561.04075 144.315372 
L 561.04075 134.641467 
L 562.914107 134.641467 
L 562.914107 129.804515 
L 565.724143 129.804515 
L 565.724143 124.967562 
L 585.394393 124.967562 
L 585.394393 115.293658 
L 589.141107 115.293658 
L 589.141107 110.456705 
L 595.697857 110.456705 
L 595.697857 105.619753 
L 623.798214 105.619753 
L 623.798214 100.782801 
L 630.354964 100.782801 
L 630.354964 95.945848 
L 636.911714 95.945848 
L 636.911714 91.108896 
L 645.341821 91.108896 
L 645.341821 86.271943 
L 650.961893 86.271943 
L 650.961893 81.434991 
L 659.392 81.434991 
L 659.392 76.598039 
L 662.202036 76.598039 
L 662.202036 71.761086 
L 663.138714 71.761086 
L 663.138714 66.924134 
L 666.885429 66.924134 
L 666.885429 62.087182 
L 667.822107 62.087182 
L 667.822107 52.413277 
L 683.745643 52.413277 
L 683.745643 47.576324 
L 698.7325 47.576324 
L 698.7325 47.576324 
" clip-path="url(#p0dc7ba6e83)" style="fill: none; stroke: #2ca02c; stroke-width: 2; stroke-linecap: square"/>
   </g>
   <g id="line2d_28">
    <path d="M 43.0575 531.271562 
L 43.994179 531.271562 
L 43.994179 526.43461 
L 49.61425 526.43461 
L 49.61425 521.597658 
L 54.297643 521.597658 
L 54.297643 516.760705 
L 69.2845 516.760705 
L 69.2845 511.923753 
L 71.157857 511.923753 
L 71.157857 507.086801 
L 73.967893 507.086801 
L 73.967893 502.249848 
L 76.777929 502.249848 
L 76.777929 492.575943 
L 85.208036 492.575943 
L 85.208036 487.738991 
L 88.018071 487.738991 
L 88.018071 478.065086 
L 89.891429 478.065086 
L 89.891429 473.228134 
L 92.701464 473.228134 
L 92.701464 468.391182 
L 99.258214 468.391182 
L 99.258214 463.554229 
L 107.688321 463.554229 
L 107.688321 453.880324 
L 111.435036 453.880324 
L 111.435036 444.20642 
L 117.991786 444.20642 
L 117.991786 434.532515 
L 118.928464 434.532515 
L 118.928464 429.695562 
L 127.358571 429.695562 
L 127.358571 424.85861 
L 133.915321 424.85861 
L 133.915321 420.021658 
L 143.282107 420.021658 
L 143.282107 415.184705 
L 149.838857 415.184705 
L 149.838857 410.347753 
L 155.458929 410.347753 
L 155.458929 405.510801 
L 156.395607 405.510801 
L 156.395607 400.673848 
L 158.268964 400.673848 
L 158.268964 395.836896 
L 166.699071 395.836896 
L 166.699071 390.999943 
L 167.63575 390.999943 
L 167.63575 386.162991 
L 169.509107 386.162991 
L 169.509107 381.326039 
L 170.445786 381.326039 
L 170.445786 376.489086 
L 172.319143 376.489086 
L 172.319143 371.652134 
L 179.812571 371.652134 
L 179.812571 361.978229 
L 194.799429 361.978229 
L 194.799429 357.141277 
L 202.292857 357.141277 
L 202.292857 352.304324 
L 216.343036 352.304324 
L 216.343036 347.467372 
L 222.899786 347.467372 
L 222.899786 342.63042 
L 233.20325 342.63042 
L 233.20325 337.793467 
L 239.76 337.793467 
L 239.76 332.956515 
L 242.570036 332.956515 
L 242.570036 328.119562 
L 244.443393 328.119562 
L 244.443393 323.28261 
L 253.810179 323.28261 
L 253.810179 318.445658 
L 257.556893 318.445658 
L 257.556893 313.608705 
L 260.366929 313.608705 
L 260.366929 308.771753 
L 262.240286 308.771753 
L 262.240286 303.934801 
L 272.54375 303.934801 
L 272.54375 299.097848 
L 283.783893 299.097848 
L 283.783893 294.260896 
L 292.214 294.260896 
L 292.214 289.423943 
L 294.087357 289.423943 
L 294.087357 284.586991 
L 306.264179 284.586991 
L 306.264179 279.750039 
L 312.820929 279.750039 
L 312.820929 274.913086 
L 314.694286 274.913086 
L 314.694286 270.076134 
L 315.630964 270.076134 
L 315.630964 265.239182 
L 322.187714 265.239182 
L 322.187714 260.402229 
L 330.617821 260.402229 
L 330.617821 255.565277 
L 333.427857 255.565277 
L 333.427857 250.728324 
L 344.668 250.728324 
L 344.668 245.891372 
L 350.288071 245.891372 
L 350.288071 241.05442 
L 357.7815 241.05442 
L 357.7815 236.217467 
L 370.895 236.217467 
L 370.895 226.543562 
L 373.705036 226.543562 
L 373.705036 221.70661 
L 384.0085 221.70661 
L 384.0085 216.869658 
L 387.755214 216.869658 
L 387.755214 212.032705 
L 396.185321 212.032705 
L 396.185321 207.195753 
L 398.058679 207.195753 
L 398.058679 202.358801 
L 402.742071 202.358801 
L 402.742071 197.521848 
L 415.855571 197.521848 
L 415.855571 192.684896 
L 416.79225 192.684896 
L 416.79225 187.847943 
L 440.209214 187.847943 
L 440.209214 183.010991 
L 443.01925 183.010991 
L 443.01925 173.337086 
L 463.626179 173.337086 
L 463.626179 168.500134 
L 466.436214 168.500134 
L 466.436214 163.663182 
L 468.309571 163.663182 
L 468.309571 158.826229 
L 474.866321 158.826229 
L 474.866321 149.152324 
L 485.169786 149.152324 
L 485.169786 144.315372 
L 487.043143 144.315372 
L 487.043143 139.47842 
L 491.726536 139.47842 
L 491.726536 134.641467 
L 501.093321 134.641467 
L 501.093321 129.804515 
L 506.713393 129.804515 
L 506.713393 124.967562 
L 508.58675 124.967562 
L 508.58675 120.13061 
L 511.396786 120.13061 
L 511.396786 115.293658 
L 513.270143 115.293658 
L 513.270143 110.456705 
L 521.70025 110.456705 
L 521.70025 105.619753 
L 522.636929 105.619753 
L 522.636929 95.945848 
L 527.320321 95.945848 
L 527.320321 91.108896 
L 559.167393 91.108896 
L 559.167393 81.434991 
L 582.584357 81.434991 
L 582.584357 76.598039 
L 598.507893 76.598039 
L 598.507893 71.761086 
L 605.064643 71.761086 
L 605.064643 66.924134 
L 618.178143 66.924134 
L 618.178143 62.087182 
L 639.72175 62.087182 
L 639.72175 57.250229 
L 641.595107 57.250229 
L 641.595107 52.413277 
L 667.822107 52.413277 
L 667.822107 47.576324 
L 698.7325 47.576324 
L 698.7325 47.576324 
" clip-path="url(#p0dc7ba6e83)" style="fill: none; stroke: #9467bd; stroke-width: 2; stroke-linecap: square"/>
   </g>
   <g id="line2d_29">
    <path d="M 43.0575 531.271562 
L 47.740893 531.271562 
L 47.740893 526.43461 
L 52.424286 526.43461 
L 52.424286 521.597658 
L 58.981036 521.597658 
L 58.981036 516.760705 
L 65.537786 516.760705 
L 65.537786 511.923753 
L 67.411143 511.923753 
L 67.411143 507.086801 
L 74.904571 507.086801 
L 74.904571 502.249848 
L 75.84125 502.249848 
L 75.84125 497.412896 
L 96.448179 497.412896 
L 96.448179 487.738991 
L 103.941607 487.738991 
L 103.941607 478.065086 
L 106.751643 478.065086 
L 106.751643 463.554229 
L 108.625 463.554229 
L 108.625 458.717277 
L 116.118429 458.717277 
L 116.118429 449.043372 
L 134.852 449.043372 
L 134.852 444.20642 
L 138.598714 444.20642 
L 138.598714 439.369467 
L 148.902179 439.369467 
L 148.902179 434.532515 
L 157.332286 434.532515 
L 157.332286 429.695562 
L 165.762393 429.695562 
L 165.762393 424.85861 
L 169.509107 424.85861 
L 169.509107 420.021658 
L 179.812571 420.021658 
L 179.812571 415.184705 
L 183.559286 415.184705 
L 183.559286 410.347753 
L 204.166214 410.347753 
L 204.166214 405.510801 
L 206.97625 405.510801 
L 206.97625 400.673848 
L 221.026429 400.673848 
L 221.026429 395.836896 
L 227.583179 395.836896 
L 227.583179 386.162991 
L 233.20325 386.162991 
L 233.20325 381.326039 
L 237.886643 381.326039 
L 237.886643 376.489086 
L 238.823321 376.489086 
L 238.823321 371.652134 
L 265.050321 371.652134 
L 265.050321 361.978229 
L 279.1005 361.978229 
L 279.1005 357.141277 
L 292.214 357.141277 
L 292.214 352.304324 
L 294.087357 352.304324 
L 294.087357 347.467372 
L 295.024036 347.467372 
L 295.024036 342.63042 
L 296.897393 342.63042 
L 296.897393 337.793467 
L 301.580786 337.793467 
L 301.580786 332.956515 
L 303.454143 332.956515 
L 303.454143 328.119562 
L 309.074214 328.119562 
L 309.074214 318.445658 
L 312.820929 318.445658 
L 312.820929 313.608705 
L 314.694286 313.608705 
L 314.694286 303.934801 
L 317.504321 303.934801 
L 317.504321 299.097848 
L 327.807786 299.097848 
L 327.807786 284.586991 
L 331.5545 284.586991 
L 331.5545 279.750039 
L 351.22475 279.750039 
L 351.22475 274.913086 
L 352.161429 274.913086 
L 352.161429 270.076134 
L 354.971464 270.076134 
L 354.971464 265.239182 
L 364.33825 265.239182 
L 364.33825 255.565277 
L 365.274929 255.565277 
L 365.274929 250.728324 
L 385.881857 250.728324 
L 385.881857 241.05442 
L 386.818536 241.05442 
L 386.818536 236.217467 
L 400.868714 236.217467 
L 400.868714 231.380515 
L 415.855571 231.380515 
L 415.855571 226.543562 
L 418.665607 226.543562 
L 418.665607 221.70661 
L 443.01925 221.70661 
L 443.01925 207.195753 
L 443.955929 207.195753 
L 443.955929 202.358801 
L 444.892607 202.358801 
L 444.892607 197.521848 
L 451.449357 197.521848 
L 451.449357 192.684896 
L 460.816143 192.684896 
L 460.816143 183.010991 
L 472.056286 183.010991 
L 472.056286 178.174039 
L 474.866321 178.174039 
L 474.866321 173.337086 
L 477.676357 173.337086 
L 477.676357 168.500134 
L 483.296429 168.500134 
L 483.296429 163.663182 
L 495.47325 163.663182 
L 495.47325 158.826229 
L 498.283286 158.826229 
L 498.283286 153.989277 
L 509.523429 153.989277 
L 509.523429 149.152324 
L 510.460107 149.152324 
L 510.460107 144.315372 
L 516.080179 144.315372 
L 516.080179 134.641467 
L 517.953536 134.641467 
L 517.953536 129.804515 
L 534.81375 129.804515 
L 534.81375 120.13061 
L 537.623786 120.13061 
L 537.623786 115.293658 
L 542.307179 115.293658 
L 542.307179 110.456705 
L 546.990571 110.456705 
L 546.990571 105.619753 
L 547.92725 105.619753 
L 547.92725 100.782801 
L 556.357357 100.782801 
L 556.357357 95.945848 
L 560.104071 95.945848 
L 560.104071 91.108896 
L 565.724143 91.108896 
L 565.724143 86.271943 
L 579.774321 86.271943 
L 579.774321 81.434991 
L 592.887821 81.434991 
L 592.887821 76.598039 
L 606.001321 76.598039 
L 606.001321 71.761086 
L 625.671571 71.761086 
L 625.671571 66.924134 
L 626.60825 66.924134 
L 626.60825 62.087182 
L 633.165 62.087182 
L 633.165 57.250229 
L 640.658429 57.250229 
L 640.658429 52.413277 
L 659.392 52.413277 
L 659.392 47.576324 
L 698.7325 47.576324 
L 698.7325 47.576324 
" clip-path="url(#p0dc7ba6e83)" style="fill: none; stroke: #8c564b; stroke-width: 2; stroke-linecap: square"/>
   </g>
   <g id="line2d_30">
    <path d="M 43.0575 531.271562 
L 43.0575 521.597658 
L 43.994179 521.597658 
L 43.994179 507.086801 
L 55.234321 507.086801 
L 55.234321 502.249848 
L 56.171 502.249848 
L 56.171 497.412896 
L 57.107679 497.412896 
L 57.107679 492.575943 
L 61.791071 492.575943 
L 61.791071 482.902039 
L 66.474464 482.902039 
L 66.474464 473.228134 
L 70.221179 473.228134 
L 70.221179 468.391182 
L 72.094536 468.391182 
L 72.094536 463.554229 
L 73.967893 463.554229 
L 73.967893 458.717277 
L 79.587964 458.717277 
L 79.587964 453.880324 
L 101.131571 453.880324 
L 101.131571 449.043372 
L 104.878286 449.043372 
L 104.878286 444.20642 
L 106.751643 444.20642 
L 106.751643 439.369467 
L 107.688321 439.369467 
L 107.688321 434.532515 
L 111.435036 434.532515 
L 111.435036 429.695562 
L 119.865143 429.695562 
L 119.865143 424.85861 
L 123.611857 424.85861 
L 123.611857 410.347753 
L 125.485214 410.347753 
L 125.485214 405.510801 
L 139.535393 405.510801 
L 139.535393 400.673848 
L 141.40875 400.673848 
L 141.40875 395.836896 
L 146.092143 395.836896 
L 146.092143 386.162991 
L 151.712214 386.162991 
L 151.712214 381.326039 
L 156.395607 381.326039 
L 156.395607 376.489086 
L 160.142321 376.489086 
L 160.142321 371.652134 
L 173.255821 371.652134 
L 173.255821 366.815182 
L 179.812571 366.815182 
L 179.812571 361.978229 
L 183.559286 361.978229 
L 183.559286 357.141277 
L 191.052714 357.141277 
L 191.052714 352.304324 
L 196.672786 352.304324 
L 196.672786 347.467372 
L 197.609464 347.467372 
L 197.609464 342.63042 
L 205.102893 342.63042 
L 205.102893 337.793467 
L 214.469679 337.793467 
L 214.469679 332.956515 
L 217.279714 332.956515 
L 218.216393 328.119562 
L 219.153071 328.119562 
L 220.08975 323.28261 
L 230.393214 323.28261 
L 230.393214 313.608705 
L 232.266571 313.608705 
L 232.266571 308.771753 
L 239.76 308.771753 
L 239.76 303.934801 
L 244.443393 303.934801 
L 244.443393 299.097848 
L 254.746857 299.097848 
L 254.746857 294.260896 
L 260.366929 294.260896 
L 260.366929 289.423943 
L 264.113643 289.423943 
L 264.113643 284.586991 
L 269.733714 284.586991 
L 269.733714 279.750039 
L 271.607071 279.750039 
L 271.607071 274.913086 
L 273.480429 274.913086 
L 273.480429 270.076134 
L 290.340643 270.076134 
L 290.340643 265.239182 
L 295.024036 265.239182 
L 295.024036 260.402229 
L 298.77075 260.402229 
L 298.77075 255.565277 
L 307.200857 255.565277 
L 307.200857 250.728324 
L 308.137536 250.728324 
L 308.137536 245.891372 
L 317.504321 245.891372 
L 317.504321 241.05442 
L 341.857964 241.05442 
L 341.857964 236.217467 
L 343.731321 236.217467 
L 343.731321 231.380515 
L 344.668 231.380515 
L 344.668 226.543562 
L 346.541357 226.543562 
L 346.541357 221.70661 
L 366.211607 221.70661 
L 366.211607 216.869658 
L 376.515071 216.869658 
L 376.515071 202.358801 
L 380.261786 202.358801 
L 380.261786 197.521848 
L 390.56525 197.521848 
L 390.56525 192.684896 
L 394.311964 192.684896 
L 394.311964 187.847943 
L 395.248643 187.847943 
L 395.248643 178.174039 
L 428.032393 178.174039 
L 428.032393 173.337086 
L 430.842429 173.337086 
L 430.842429 168.500134 
L 433.652464 168.500134 
L 433.652464 163.663182 
L 443.955929 163.663182 
L 443.955929 158.826229 
L 444.892607 158.826229 
L 444.892607 149.152324 
L 472.056286 149.152324 
L 472.056286 144.315372 
L 485.169786 144.315372 
L 485.169786 139.47842 
L 487.043143 139.47842 
L 487.043143 134.641467 
L 494.536571 134.641467 
L 494.536571 129.804515 
L 509.523429 129.804515 
L 509.523429 124.967562 
L 512.333464 124.967562 
L 512.333464 120.13061 
L 520.763571 120.13061 
L 520.763571 115.293658 
L 525.446964 115.293658 
L 525.446964 110.456705 
L 574.15425 110.456705 
L 574.15425 105.619753 
L 581.647679 105.619753 
L 581.647679 100.782801 
L 613.49475 100.782801 
L 613.49475 95.945848 
L 614.431429 95.945848 
L 614.431429 91.108896 
L 616.304786 91.108896 
L 617.241464 86.271943 
L 624.734893 86.271943 
L 624.734893 81.434991 
L 627.544929 81.434991 
L 627.544929 71.761086 
L 635.038357 71.761086 
L 635.038357 66.924134 
L 648.151857 66.924134 
L 648.151857 62.087182 
L 661.265357 62.087182 
L 661.265357 57.250229 
L 668.758786 57.250229 
L 668.758786 52.413277 
L 675.315536 52.413277 
L 675.315536 47.576324 
L 698.7325 47.576324 
L 698.7325 47.576324 
" clip-path="url(#p0dc7ba6e83)" style="fill: none; stroke: #e377c2; stroke-width: 2; stroke-linecap: square"/>
   </g>
   <g id="line2d_31">
    <path d="M 43.0575 531.271562 
L 44.930857 531.271562 
L 44.930857 526.43461 
L 45.867536 526.43461 
L 45.867536 521.597658 
L 55.234321 521.597658 
L 55.234321 516.760705 
L 58.981036 516.760705 
L 58.981036 511.923753 
L 67.411143 511.923753 
L 67.411143 502.249848 
L 73.031214 502.249848 
L 73.031214 497.412896 
L 79.587964 497.412896 
L 79.587964 492.575943 
L 83.334679 492.575943 
L 83.334679 487.738991 
L 85.208036 487.738991 
L 85.208036 482.902039 
L 87.081393 482.902039 
L 87.081393 478.065086 
L 93.638143 478.065086 
L 93.638143 468.391182 
L 105.814964 468.391182 
L 105.814964 458.717277 
L 106.751643 458.717277 
L 106.751643 453.880324 
L 108.625 453.880324 
L 108.625 449.043372 
L 110.498357 449.043372 
L 110.498357 444.20642 
L 111.435036 444.20642 
L 111.435036 439.369467 
L 114.245071 439.369467 
L 114.245071 434.532515 
L 134.852 434.532515 
L 134.852 429.695562 
L 142.345429 429.695562 
L 142.345429 424.85861 
L 143.282107 424.85861 
L 143.282107 415.184705 
L 149.838857 415.184705 
L 149.838857 410.347753 
L 152.648893 410.347753 
L 152.648893 400.673848 
L 160.142321 400.673848 
L 160.142321 395.836896 
L 164.825714 395.836896 
L 164.825714 390.999943 
L 168.572429 390.999943 
L 168.572429 386.162991 
L 176.065857 386.162991 
L 176.065857 381.326039 
L 191.052714 381.326039 
L 191.052714 371.652134 
L 192.926071 371.652134 
L 192.926071 361.978229 
L 193.86275 361.978229 
L 193.86275 352.304324 
L 196.672786 352.304324 
L 196.672786 347.467372 
L 206.97625 347.467372 
L 206.97625 342.63042 
L 219.153071 342.63042 
L 219.153071 337.793467 
L 221.026429 337.793467 
L 221.026429 332.956515 
L 221.963107 332.956515 
L 221.963107 328.119562 
L 226.6465 328.119562 
L 226.6465 318.445658 
L 239.76 318.445658 
L 239.76 313.608705 
L 245.380071 313.608705 
L 245.380071 308.771753 
L 247.253429 308.771753 
L 247.253429 303.934801 
L 251.936821 303.934801 
L 251.936821 299.097848 
L 254.746857 299.097848 
L 254.746857 294.260896 
L 275.353786 294.260896 
L 275.353786 289.423943 
L 278.163821 289.423943 
L 278.163821 284.586991 
L 310.010893 284.586991 
L 310.010893 279.750039 
L 312.820929 279.750039 
L 312.820929 274.913086 
L 314.694286 274.913086 
L 314.694286 265.239182 
L 338.11125 265.239182 
L 338.11125 260.402229 
L 339.984607 260.402229 
L 339.984607 255.565277 
L 342.794643 255.565277 
L 342.794643 241.05442 
L 344.668 241.05442 
L 344.668 236.217467 
L 354.034786 236.217467 
L 354.034786 231.380515 
L 355.908143 231.380515 
L 355.908143 221.70661 
L 359.654857 221.70661 
L 359.654857 216.869658 
L 373.705036 216.869658 
L 373.705036 212.032705 
L 375.578393 212.032705 
L 375.578393 207.195753 
L 382.135143 207.195753 
L 382.135143 202.358801 
L 395.248643 202.358801 
L 395.248643 197.521848 
L 404.615429 197.521848 
L 404.615429 187.847943 
L 407.425464 187.847943 
L 407.425464 183.010991 
L 412.108857 183.010991 
L 412.108857 178.174039 
L 424.285679 178.174039 
L 424.285679 173.337086 
L 429.90575 173.337086 
L 429.90575 168.500134 
L 449.576 168.500134 
L 449.576 163.663182 
L 458.942786 163.663182 
L 458.942786 158.826229 
L 476.739679 158.826229 
L 476.739679 153.989277 
L 485.169786 153.989277 
L 485.169786 149.152324 
L 502.966679 149.152324 
L 502.966679 144.315372 
L 516.080179 144.315372 
L 516.080179 139.47842 
L 523.573607 139.47842 
L 523.573607 134.641467 
L 529.193679 134.641467 
L 529.193679 124.967562 
L 534.81375 124.967562 
L 534.81375 120.13061 
L 538.560464 120.13061 
L 538.560464 115.293658 
L 545.117214 115.293658 
L 545.117214 110.456705 
L 564.787464 110.456705 
L 564.787464 105.619753 
L 570.407536 105.619753 
L 570.407536 100.782801 
L 573.217571 100.782801 
L 573.217571 95.945848 
L 575.090929 95.945848 
L 575.090929 91.108896 
L 598.507893 91.108896 
L 598.507893 86.271943 
L 601.317929 86.271943 
L 601.317929 81.434991 
L 602.254607 81.434991 
L 602.254607 76.598039 
L 606.001321 76.598039 
L 606.001321 71.761086 
L 614.431429 71.761086 
L 614.431429 66.924134 
L 656.581964 66.924134 
L 656.581964 62.087182 
L 660.328679 62.087182 
L 660.328679 57.250229 
L 661.265357 57.250229 
L 661.265357 52.413277 
L 672.5055 52.413277 
L 672.5055 47.576324 
L 698.7325 47.576324 
L 698.7325 47.576324 
" clip-path="url(#p0dc7ba6e83)" style="fill: none; stroke: #17becf; stroke-width: 2; stroke-linecap: square"/>
   </g>
   <g id="line2d_32">
    <path d="M 43.0575 531.271562 
L 43.0575 492.575943 
L 43.994179 492.575943 
L 43.994179 478.065086 
L 46.804214 478.065086 
L 46.804214 468.391182 
L 47.740893 468.391182 
L 47.740893 453.880324 
L 48.677571 453.880324 
L 48.677571 444.20642 
L 49.61425 444.20642 
L 49.61425 434.532515 
L 51.487607 434.532515 
L 51.487607 424.85861 
L 52.424286 424.85861 
L 52.424286 415.184705 
L 57.107679 415.184705 
L 57.107679 395.836896 
L 58.044357 395.836896 
L 58.044357 386.162991 
L 58.981036 386.162991 
L 58.981036 366.815182 
L 59.917714 366.815182 
L 59.917714 361.978229 
L 62.72775 361.978229 
L 62.72775 357.141277 
L 69.2845 357.141277 
L 69.2845 352.304324 
L 72.094536 352.304324 
L 72.094536 347.467372 
L 73.967893 347.467372 
L 73.967893 342.63042 
L 76.777929 342.63042 
L 76.777929 337.793467 
L 77.714607 337.793467 
L 77.714607 332.956515 
L 85.208036 332.956515 
L 85.208036 328.119562 
L 100.194893 328.119562 
L 100.194893 323.28261 
L 101.131571 323.28261 
L 101.131571 318.445658 
L 102.06825 318.445658 
L 102.06825 313.608705 
L 103.004929 313.608705 
L 103.004929 308.771753 
L 103.941607 308.771753 
L 103.941607 303.934801 
L 104.878286 303.934801 
L 104.878286 299.097848 
L 112.371714 299.097848 
L 112.371714 289.423943 
L 114.245071 289.423943 
L 114.245071 284.586991 
L 134.852 284.586991 
L 134.852 279.750039 
L 162.015679 279.750039 
L 162.015679 274.913086 
L 170.445786 274.913086 
L 170.445786 270.076134 
L 176.065857 270.076134 
L 176.065857 255.565277 
L 183.559286 255.565277 
L 183.559286 250.728324 
L 200.4195 250.728324 
L 200.4195 245.891372 
L 203.229536 245.891372 
L 203.229536 241.05442 
L 217.279714 241.05442 
L 217.279714 236.217467 
L 221.963107 236.217467 
L 221.963107 231.380515 
L 223.836464 231.380515 
L 223.836464 226.543562 
L 251.936821 226.543562 
L 251.936821 221.70661 
L 276.290464 221.70661 
L 276.290464 216.869658 
L 317.504321 216.869658 
L 317.504321 207.195753 
L 360.591536 207.195753 
L 360.591536 202.358801 
L 372.768357 202.358801 
L 372.768357 197.521848 
L 385.881857 197.521848 
L 385.881857 192.684896 
L 419.602286 192.684896 
L 419.602286 183.010991 
L 426.159036 183.010991 
L 426.159036 178.174039 
L 433.652464 178.174039 
L 433.652464 173.337086 
L 435.525821 173.337086 
L 435.525821 168.500134 
L 436.4625 168.500134 
L 436.4625 163.663182 
L 438.335857 163.663182 
L 438.335857 158.826229 
L 452.386036 158.826229 
L 452.386036 153.989277 
L 462.6895 153.989277 
L 462.6895 149.152324 
L 482.35975 149.152324 
L 482.35975 139.47842 
L 496.409929 139.47842 
L 497.346607 134.641467 
L 506.713393 134.641467 
L 506.713393 129.804515 
L 509.523429 129.804515 
L 509.523429 124.967562 
L 513.270143 124.967562 
L 513.270143 120.13061 
L 535.750429 120.13061 
L 535.750429 115.293658 
L 538.560464 115.293658 
L 538.560464 110.456705 
L 543.243857 110.456705 
L 543.243857 105.619753 
L 550.737286 105.619753 
L 550.737286 100.782801 
L 558.230714 100.782801 
L 558.230714 95.945848 
L 561.977429 95.945848 
L 561.977429 91.108896 
L 575.090929 91.108896 
L 575.090929 86.271943 
L 602.254607 86.271943 
L 602.254607 81.434991 
L 603.191286 81.434991 
L 603.191286 76.598039 
L 610.684714 76.598039 
L 610.684714 71.761086 
L 611.621393 71.761086 
L 611.621393 66.924134 
L 621.924857 66.924134 
L 621.924857 62.087182 
L 649.088536 62.087182 
L 649.088536 57.250229 
L 663.138714 57.250229 
L 663.138714 52.413277 
L 698.7325 52.413277 
L 698.7325 47.576324 
L 698.7325 47.576324 
" clip-path="url(#p0dc7ba6e83)" style="fill: none; stroke: #e31818; stroke-width: 2.5; stroke-linecap: square"/>
   </g>
   <g id="line2d_33">
    <path d="M 43.0575 531.271562 
L 698.7325 47.576324 
" clip-path="url(#p0dc7ba6e83)" style="fill: none; stroke-dasharray: 3.7,1.6; stroke-dashoffset: 0; stroke: #000000; stroke-opacity: 0.5"/>
   </g>
   <g id="patch_3">
    <path d="M 43.0575 531.271562 
L 43.0575 23.391562 
" style="fill: none; stroke: #000000; stroke-width: 0.8; stroke-linejoin: miter; stroke-linecap: square"/>
   </g>
   <g id="patch_4">
    <path d="M 698.7325 531.271562 
L 698.7325 23.391562 
" style="fill: none; stroke: #000000; stroke-width: 0.8; stroke-linejoin: miter; stroke-linecap: square"/>
   </g>
   <g id="patch_5">
    <path d="M 43.0575 531.271562 
L 698.7325 531.271562 
" style="fill: none; stroke: #000000; stroke-width: 0.8; stroke-linejoin: miter; stroke-linecap: square"/>
   </g>
   <g id="patch_6">
    <path d="M 43.0575 23.391562 
L 698.7325 23.391562 
" style="fill: none; stroke: #000000; stroke-width: 0.8; stroke-linejoin: miter; stroke-linecap: square"/>
   </g>
   <g id="text_15">
    <!-- ROC Curve - german -->
    <g transform="translate(302.048906 17.391562) scale(0.14 -0.14)">
     <defs>
      <path id="Arial-BoldMT-4f" d="M 278 2263 
Q 278 2963 488 3438 
Q 644 3788 914 4066 
Q 1184 4344 1506 4478 
Q 1934 4659 2494 4659 
Q 3506 4659 4114 4031 
Q 4722 3403 4722 2284 
Q 4722 1175 4119 548 
Q 3516 -78 2506 -78 
Q 1484 -78 881 545 
Q 278 1169 278 2263 
z
M 1231 2294 
Q 1231 1516 1590 1114 
Q 1950 713 2503 713 
Q 3056 713 3411 1111 
Q 3766 1509 3766 2306 
Q 3766 3094 3420 3481 
Q 3075 3869 2503 3869 
Q 1931 3869 1581 3476 
Q 1231 3084 1231 2294 
z
" transform="scale(0.015625)"/>
      <path id="Arial-BoldMT-43" d="M 3397 1684 
L 4294 1400 
Q 4088 650 3608 286 
Q 3128 -78 2391 -78 
Q 1478 -78 890 545 
Q 303 1169 303 2250 
Q 303 3394 893 4026 
Q 1484 4659 2447 4659 
Q 3288 4659 3813 4163 
Q 4125 3869 4281 3319 
L 3366 3100 
Q 3284 3456 3026 3662 
Q 2769 3869 2400 3869 
Q 1891 3869 1573 3503 
Q 1256 3138 1256 2319 
Q 1256 1450 1568 1081 
Q 1881 713 2381 713 
Q 2750 713 3015 947 
Q 3281 1181 3397 1684 
z
" transform="scale(0.015625)"/>
      <path id="Arial-BoldMT-2d" d="M 359 1222 
L 359 2100 
L 2084 2100 
L 2084 1222 
L 359 1222 
z
" transform="scale(0.015625)"/>
      <path id="Arial-BoldMT-67" d="M 378 -219 
L 1381 -341 
Q 1406 -516 1497 -581 
Q 1622 -675 1891 -675 
Q 2234 -675 2406 -572 
Q 2522 -503 2581 -350 
Q 2622 -241 2622 53 
L 2622 538 
Q 2228 0 1628 0 
Q 959 0 569 566 
Q 263 1013 263 1678 
Q 263 2513 664 2953 
Q 1066 3394 1663 3394 
Q 2278 3394 2678 2853 
L 2678 3319 
L 3500 3319 
L 3500 341 
Q 3500 -247 3403 -537 
Q 3306 -828 3131 -993 
Q 2956 -1159 2664 -1253 
Q 2372 -1347 1925 -1347 
Q 1081 -1347 728 -1058 
Q 375 -769 375 -325 
Q 375 -281 378 -219 
z
M 1163 1728 
Q 1163 1200 1367 954 
Q 1572 709 1872 709 
Q 2194 709 2416 961 
Q 2638 1213 2638 1706 
Q 2638 2222 2425 2472 
Q 2213 2722 1888 2722 
Q 1572 2722 1367 2476 
Q 1163 2231 1163 1728 
z
" transform="scale(0.015625)"/>
      <path id="Arial-BoldMT-6d" d="M 394 3319 
L 1203 3319 
L 1203 2866 
Q 1638 3394 2238 3394 
Q 2556 3394 2790 3262 
Q 3025 3131 3175 2866 
Q 3394 3131 3647 3262 
Q 3900 3394 4188 3394 
Q 4553 3394 4806 3245 
Q 5059 3097 5184 2809 
Q 5275 2597 5275 2122 
L 5275 0 
L 4397 0 
L 4397 1897 
Q 4397 2391 4306 2534 
Q 4184 2722 3931 2722 
Q 3747 2722 3584 2609 
Q 3422 2497 3350 2280 
Q 3278 2063 3278 1594 
L 3278 0 
L 2400 0 
L 2400 1819 
Q 2400 2303 2353 2443 
Q 2306 2584 2207 2653 
Q 2109 2722 1941 2722 
Q 1738 2722 1575 2612 
Q 1413 2503 1342 2297 
Q 1272 2091 1272 1613 
L 1272 0 
L 394 0 
L 394 3319 
z
" transform="scale(0.015625)"/>
      <path id="Arial-BoldMT-6e" d="M 3478 0 
L 2600 0 
L 2600 1694 
Q 2600 2231 2544 2389 
Q 2488 2547 2361 2634 
Q 2234 2722 2056 2722 
Q 1828 2722 1647 2597 
Q 1466 2472 1398 2265 
Q 1331 2059 1331 1503 
L 1331 0 
L 453 0 
L 453 3319 
L 1269 3319 
L 1269 2831 
Q 1703 3394 2363 3394 
Q 2653 3394 2893 3289 
Q 3134 3184 3257 3021 
Q 3381 2859 3429 2653 
Q 3478 2447 3478 2063 
L 3478 0 
z
" transform="scale(0.015625)"/>
     </defs>
     <use xlink:href="#Arial-BoldMT-52"/>
     <use xlink:href="#Arial-BoldMT-4f" transform="translate(72.216797 0)"/>
     <use xlink:href="#Arial-BoldMT-43" transform="translate(150 0)"/>
     <use xlink:href="#Arial-BoldMT-20" transform="translate(222.216797 0)"/>
     <use xlink:href="#Arial-BoldMT-43" transform="translate(250 0)"/>
     <use xlink:href="#Arial-BoldMT-75" transform="translate(322.216797 0)"/>
     <use xlink:href="#Arial-BoldMT-72" transform="translate(383.300781 0)"/>
     <use xlink:href="#Arial-BoldMT-76" transform="translate(422.216797 0)"/>
     <use xlink:href="#Arial-BoldMT-65" transform="translate(477.832031 0)"/>
     <use xlink:href="#Arial-BoldMT-20" transform="translate(533.447266 0)"/>
     <use xlink:href="#Arial-BoldMT-2d" transform="translate(561.230469 0)"/>
     <use xlink:href="#Arial-BoldMT-20" transform="translate(594.53125 0)"/>
     <use xlink:href="#Arial-BoldMT-67" transform="translate(622.314453 0)"/>
     <use xlink:href="#Arial-BoldMT-65" transform="translate(683.398438 0)"/>
     <use xlink:href="#Arial-BoldMT-72" transform="translate(739.013672 0)"/>
     <use xlink:href="#Arial-BoldMT-6d" transform="translate(777.929688 0)"/>
     <use xlink:href="#Arial-BoldMT-61" transform="translate(866.845703 0)"/>
     <use xlink:href="#Arial-BoldMT-6e" transform="translate(922.460938 0)"/>
    </g>
   </g>
   <g id="legend_1">
    <g id="patch_7">
     <path d="M 581.06625 527.271562 
L 693.1325 527.271562 
Q 694.7325 527.271562 694.7325 525.671562 
L 694.7325 423.075312 
Q 694.7325 421.475312 693.1325 421.475312 
L 581.06625 421.475312 
Q 579.46625 421.475312 579.46625 423.075312 
L 579.46625 525.671562 
Q 579.46625 527.271562 581.06625 527.271562 
z
" style="fill: #ffffff; opacity: 0.8; stroke: #cccccc; stroke-linejoin: miter"/>
    </g>
    <g id="line2d_34">
     <path d="M 582.66625 427.699062 
L 590.66625 427.699062 
L 598.66625 427.699062 
" style="fill: none; stroke: #1f77b4; stroke-width: 2; stroke-linecap: square"/>
    </g>
    <g id="text_16">
     <!-- ADFNR (AUC=0.5821) -->
     <g transform="translate(605.06625 430.499062) scale(0.08 -0.08)">
      <defs>
       <path id="ArialMT-41" d="M -9 0 
L 1750 4581 
L 2403 4581 
L 4278 0 
L 3588 0 
L 3053 1388 
L 1138 1388 
L 634 0 
L -9 0 
z
M 1313 1881 
L 2866 1881 
L 2388 3150 
Q 2169 3728 2063 4100 
Q 1975 3659 1816 3225 
L 1313 1881 
z
" transform="scale(0.015625)"/>
       <path id="ArialMT-44" d="M 494 0 
L 494 4581 
L 2072 4581 
Q 2606 4581 2888 4516 
Q 3281 4425 3559 4188 
Q 3922 3881 4101 3404 
Q 4281 2928 4281 2316 
Q 4281 1794 4159 1391 
Q 4038 988 3847 723 
Q 3656 459 3429 307 
Q 3203 156 2883 78 
Q 2563 0 2147 0 
L 494 0 
z
M 1100 541 
L 2078 541 
Q 2531 541 2789 625 
Q 3047 709 3200 863 
Q 3416 1078 3536 1442 
Q 3656 1806 3656 2325 
Q 3656 3044 3420 3430 
Q 3184 3816 2847 3947 
Q 2603 4041 2063 4041 
L 1100 4041 
L 1100 541 
z
" transform="scale(0.015625)"/>
       <path id="ArialMT-46" d="M 525 0 
L 525 4581 
L 3616 4581 
L 3616 4041 
L 1131 4041 
L 1131 2622 
L 3281 2622 
L 3281 2081 
L 1131 2081 
L 1131 0 
L 525 0 
z
" transform="scale(0.015625)"/>
       <path id="ArialMT-4e" d="M 488 0 
L 488 4581 
L 1109 4581 
L 3516 984 
L 3516 4581 
L 4097 4581 
L 4097 0 
L 3475 0 
L 1069 3600 
L 1069 0 
L 488 0 
z
" transform="scale(0.015625)"/>
       <path id="ArialMT-52" d="M 503 0 
L 503 4581 
L 2534 4581 
Q 3147 4581 3465 4457 
Q 3784 4334 3975 4021 
Q 4166 3709 4166 3331 
Q 4166 2844 3850 2509 
Q 3534 2175 2875 2084 
Q 3116 1969 3241 1856 
Q 3506 1613 3744 1247 
L 4541 0 
L 3778 0 
L 3172 953 
Q 2906 1366 2734 1584 
Q 2563 1803 2427 1890 
Q 2291 1978 2150 2013 
Q 2047 2034 1813 2034 
L 1109 2034 
L 1109 0 
L 503 0 
z
M 1109 2559 
L 2413 2559 
Q 2828 2559 3062 2645 
Q 3297 2731 3419 2920 
Q 3541 3109 3541 3331 
Q 3541 3656 3305 3865 
Q 3069 4075 2559 4075 
L 1109 4075 
L 1109 2559 
z
" transform="scale(0.015625)"/>
       <path id="ArialMT-20" transform="scale(0.015625)"/>
       <path id="ArialMT-28" d="M 1497 -1347 
Q 1031 -759 709 28 
Q 388 816 388 1659 
Q 388 2403 628 3084 
Q 909 3875 1497 4659 
L 1900 4659 
Q 1522 4009 1400 3731 
Q 1209 3300 1100 2831 
Q 966 2247 966 1656 
Q 966 153 1900 -1347 
L 1497 -1347 
z
" transform="scale(0.015625)"/>
       <path id="ArialMT-55" d="M 3500 4581 
L 4106 4581 
L 4106 1934 
Q 4106 1244 3950 837 
Q 3794 431 3386 176 
Q 2978 -78 2316 -78 
Q 1672 -78 1262 144 
Q 853 366 678 786 
Q 503 1206 503 1934 
L 503 4581 
L 1109 4581 
L 1109 1938 
Q 1109 1341 1220 1058 
Q 1331 775 1601 622 
Q 1872 469 2263 469 
Q 2931 469 3215 772 
Q 3500 1075 3500 1938 
L 3500 4581 
z
" transform="scale(0.015625)"/>
       <path id="ArialMT-43" d="M 3763 1606 
L 4369 1453 
Q 4178 706 3683 314 
Q 3188 -78 2472 -78 
Q 1731 -78 1267 223 
Q 803 525 561 1097 
Q 319 1669 319 2325 
Q 319 3041 592 3573 
Q 866 4106 1370 4382 
Q 1875 4659 2481 4659 
Q 3169 4659 3637 4309 
Q 4106 3959 4291 3325 
L 3694 3184 
Q 3534 3684 3231 3912 
Q 2928 4141 2469 4141 
Q 1941 4141 1586 3887 
Q 1231 3634 1087 3207 
Q 944 2781 944 2328 
Q 944 1744 1114 1308 
Q 1284 872 1643 656 
Q 2003 441 2422 441 
Q 2931 441 3284 734 
Q 3638 1028 3763 1606 
z
" transform="scale(0.015625)"/>
       <path id="ArialMT-3d" d="M 3381 2694 
L 356 2694 
L 356 3219 
L 3381 3219 
L 3381 2694 
z
M 3381 1303 
L 356 1303 
L 356 1828 
L 3381 1828 
L 3381 1303 
z
" transform="scale(0.015625)"/>
       <path id="ArialMT-35" d="M 266 1200 
L 856 1250 
Q 922 819 1161 601 
Q 1400 384 1738 384 
Q 2144 384 2425 690 
Q 2706 997 2706 1503 
Q 2706 1984 2436 2262 
Q 2166 2541 1728 2541 
Q 1456 2541 1237 2417 
Q 1019 2294 894 2097 
L 366 2166 
L 809 4519 
L 3088 4519 
L 3088 3981 
L 1259 3981 
L 1013 2750 
Q 1425 3038 1878 3038 
Q 2478 3038 2890 2622 
Q 3303 2206 3303 1553 
Q 3303 931 2941 478 
Q 2500 -78 1738 -78 
Q 1113 -78 717 272 
Q 322 622 266 1200 
z
" transform="scale(0.015625)"/>
       <path id="ArialMT-29" d="M 791 -1347 
L 388 -1347 
Q 1322 153 1322 1656 
Q 1322 2244 1188 2822 
Q 1081 3291 891 3722 
Q 769 4003 388 4659 
L 791 4659 
Q 1378 3875 1659 3084 
Q 1900 2403 1900 1659 
Q 1900 816 1576 28 
Q 1253 -759 791 -1347 
z
" transform="scale(0.015625)"/>
      </defs>
      <use xlink:href="#ArialMT-41"/>
      <use xlink:href="#ArialMT-44" transform="translate(66.699219 0)"/>
      <use xlink:href="#ArialMT-46" transform="translate(138.916016 0)"/>
      <use xlink:href="#ArialMT-4e" transform="translate(200 0)"/>
      <use xlink:href="#ArialMT-52" transform="translate(272.216797 0)"/>
      <use xlink:href="#ArialMT-20" transform="translate(344.433594 0)"/>
      <use xlink:href="#ArialMT-28" transform="translate(372.216797 0)"/>
      <use xlink:href="#ArialMT-41" transform="translate(405.517578 0)"/>
      <use xlink:href="#ArialMT-55" transform="translate(472.216797 0)"/>
      <use xlink:href="#ArialMT-43" transform="translate(544.433594 0)"/>
      <use xlink:href="#ArialMT-3d" transform="translate(616.650391 0)"/>
      <use xlink:href="#ArialMT-30" transform="translate(675.048828 0)"/>
      <use xlink:href="#ArialMT-2e" transform="translate(730.664062 0)"/>
      <use xlink:href="#ArialMT-35" transform="translate(758.447266 0)"/>
      <use xlink:href="#ArialMT-38" transform="translate(814.0625 0)"/>
      <use xlink:href="#ArialMT-32" transform="translate(869.677734 0)"/>
      <use xlink:href="#ArialMT-31" transform="translate(925.292969 0)"/>
      <use xlink:href="#ArialMT-29" transform="translate(980.908203 0)"/>
     </g>
    </g>
    <g id="line2d_35">
     <path d="M 582.66625 439.211562 
L 590.66625 439.211562 
L 598.66625 439.211562 
" style="fill: none; stroke: #ff7f0e; stroke-width: 2; stroke-linecap: square"/>
    </g>
    <g id="text_17">
     <!-- DASOD (AUC=0.5967) -->
     <g transform="translate(605.06625 442.011562) scale(0.08 -0.08)">
      <defs>
       <path id="ArialMT-53" d="M 288 1472 
L 859 1522 
Q 900 1178 1048 958 
Q 1197 738 1509 602 
Q 1822 466 2213 466 
Q 2559 466 2825 569 
Q 3091 672 3220 851 
Q 3350 1031 3350 1244 
Q 3350 1459 3225 1620 
Q 3100 1781 2813 1891 
Q 2628 1963 1997 2114 
Q 1366 2266 1113 2400 
Q 784 2572 623 2826 
Q 463 3081 463 3397 
Q 463 3744 659 4045 
Q 856 4347 1234 4503 
Q 1613 4659 2075 4659 
Q 2584 4659 2973 4495 
Q 3363 4331 3572 4012 
Q 3781 3694 3797 3291 
L 3216 3247 
Q 3169 3681 2898 3903 
Q 2628 4125 2100 4125 
Q 1550 4125 1298 3923 
Q 1047 3722 1047 3438 
Q 1047 3191 1225 3031 
Q 1400 2872 2139 2705 
Q 2878 2538 3153 2413 
Q 3553 2228 3743 1945 
Q 3934 1663 3934 1294 
Q 3934 928 3725 604 
Q 3516 281 3123 101 
Q 2731 -78 2241 -78 
Q 1619 -78 1198 103 
Q 778 284 539 648 
Q 300 1013 288 1472 
z
" transform="scale(0.015625)"/>
       <path id="ArialMT-4f" d="M 309 2231 
Q 309 3372 921 4017 
Q 1534 4663 2503 4663 
Q 3138 4663 3647 4359 
Q 4156 4056 4423 3514 
Q 4691 2972 4691 2284 
Q 4691 1588 4409 1038 
Q 4128 488 3612 205 
Q 3097 -78 2500 -78 
Q 1853 -78 1343 234 
Q 834 547 571 1087 
Q 309 1628 309 2231 
z
M 934 2222 
Q 934 1394 1379 917 
Q 1825 441 2497 441 
Q 3181 441 3623 922 
Q 4066 1403 4066 2288 
Q 4066 2847 3877 3264 
Q 3688 3681 3323 3911 
Q 2959 4141 2506 4141 
Q 1863 4141 1398 3698 
Q 934 3256 934 2222 
z
" transform="scale(0.015625)"/>
       <path id="ArialMT-39" d="M 350 1059 
L 891 1109 
Q 959 728 1153 556 
Q 1347 384 1650 384 
Q 1909 384 2104 503 
Q 2300 622 2425 820 
Q 2550 1019 2634 1356 
Q 2719 1694 2719 2044 
Q 2719 2081 2716 2156 
Q 2547 1888 2255 1720 
Q 1963 1553 1622 1553 
Q 1053 1553 659 1965 
Q 266 2378 266 3053 
Q 266 3750 677 4175 
Q 1088 4600 1706 4600 
Q 2153 4600 2523 4359 
Q 2894 4119 3086 3673 
Q 3278 3228 3278 2384 
Q 3278 1506 3087 986 
Q 2897 466 2520 194 
Q 2144 -78 1638 -78 
Q 1100 -78 759 220 
Q 419 519 350 1059 
z
M 2653 3081 
Q 2653 3566 2395 3850 
Q 2138 4134 1775 4134 
Q 1400 4134 1122 3828 
Q 844 3522 844 3034 
Q 844 2597 1108 2323 
Q 1372 2050 1759 2050 
Q 2150 2050 2401 2323 
Q 2653 2597 2653 3081 
z
" transform="scale(0.015625)"/>
       <path id="ArialMT-37" d="M 303 3981 
L 303 4522 
L 3269 4522 
L 3269 4084 
Q 2831 3619 2401 2847 
Q 1972 2075 1738 1259 
Q 1569 684 1522 0 
L 944 0 
Q 953 541 1156 1306 
Q 1359 2072 1739 2783 
Q 2119 3494 2547 3981 
L 303 3981 
z
" transform="scale(0.015625)"/>
      </defs>
      <use xlink:href="#ArialMT-44"/>
      <use xlink:href="#ArialMT-41" transform="translate(72.216797 0)"/>
      <use xlink:href="#ArialMT-53" transform="translate(138.916016 0)"/>
      <use xlink:href="#ArialMT-4f" transform="translate(205.615234 0)"/>
      <use xlink:href="#ArialMT-44" transform="translate(283.398438 0)"/>
      <use xlink:href="#ArialMT-20" transform="translate(355.615234 0)"/>
      <use xlink:href="#ArialMT-28" transform="translate(383.398438 0)"/>
      <use xlink:href="#ArialMT-41" transform="translate(416.699219 0)"/>
      <use xlink:href="#ArialMT-55" transform="translate(483.398438 0)"/>
      <use xlink:href="#ArialMT-43" transform="translate(555.615234 0)"/>
      <use xlink:href="#ArialMT-3d" transform="translate(627.832031 0)"/>
      <use xlink:href="#ArialMT-30" transform="translate(686.230469 0)"/>
      <use xlink:href="#ArialMT-2e" transform="translate(741.845703 0)"/>
      <use xlink:href="#ArialMT-35" transform="translate(769.628906 0)"/>
      <use xlink:href="#ArialMT-39" transform="translate(825.244141 0)"/>
      <use xlink:href="#ArialMT-36" transform="translate(880.859375 0)"/>
      <use xlink:href="#ArialMT-37" transform="translate(936.474609 0)"/>
      <use xlink:href="#ArialMT-29" transform="translate(992.089844 0)"/>
     </g>
    </g>
    <g id="line2d_36">
     <path d="M 582.66625 450.719062 
L 590.66625 450.719062 
L 598.66625 450.719062 
" style="fill: none; stroke: #2ca02c; stroke-width: 2; stroke-linecap: square"/>
    </g>
    <g id="text_18">
     <!-- GCN (AUC=0.5678) -->
     <g transform="translate(605.06625 453.519062) scale(0.08 -0.08)">
      <defs>
       <path id="ArialMT-47" d="M 2638 1797 
L 2638 2334 
L 4578 2338 
L 4578 638 
Q 4131 281 3656 101 
Q 3181 -78 2681 -78 
Q 2006 -78 1454 211 
Q 903 500 622 1047 
Q 341 1594 341 2269 
Q 341 2938 620 3517 
Q 900 4097 1425 4378 
Q 1950 4659 2634 4659 
Q 3131 4659 3532 4498 
Q 3934 4338 4162 4050 
Q 4391 3763 4509 3300 
L 3963 3150 
Q 3859 3500 3706 3700 
Q 3553 3900 3268 4020 
Q 2984 4141 2638 4141 
Q 2222 4141 1919 4014 
Q 1616 3888 1430 3681 
Q 1244 3475 1141 3228 
Q 966 2803 966 2306 
Q 966 1694 1177 1281 
Q 1388 869 1791 669 
Q 2194 469 2647 469 
Q 3041 469 3416 620 
Q 3791 772 3984 944 
L 3984 1797 
L 2638 1797 
z
" transform="scale(0.015625)"/>
      </defs>
      <use xlink:href="#ArialMT-47"/>
      <use xlink:href="#ArialMT-43" transform="translate(77.783203 0)"/>
      <use xlink:href="#ArialMT-4e" transform="translate(150 0)"/>
      <use xlink:href="#ArialMT-20" transform="translate(222.216797 0)"/>
      <use xlink:href="#ArialMT-28" transform="translate(250 0)"/>
      <use xlink:href="#ArialMT-41" transform="translate(283.300781 0)"/>
      <use xlink:href="#ArialMT-55" transform="translate(350 0)"/>
      <use xlink:href="#ArialMT-43" transform="translate(422.216797 0)"/>
      <use xlink:href="#ArialMT-3d" transform="translate(494.433594 0)"/>
      <use xlink:href="#ArialMT-30" transform="translate(552.832031 0)"/>
      <use xlink:href="#ArialMT-2e" transform="translate(608.447266 0)"/>
      <use xlink:href="#ArialMT-35" transform="translate(636.230469 0)"/>
      <use xlink:href="#ArialMT-36" transform="translate(691.845703 0)"/>
      <use xlink:href="#ArialMT-37" transform="translate(747.460938 0)"/>
      <use xlink:href="#ArialMT-38" transform="translate(803.076172 0)"/>
      <use xlink:href="#ArialMT-29" transform="translate(858.691406 0)"/>
     </g>
    </g>
    <g id="line2d_37">
     <path d="M 582.66625 462.231562 
L 590.66625 462.231562 
L 598.66625 462.231562 
" style="fill: none; stroke: #9467bd; stroke-width: 2; stroke-linecap: square"/>
    </g>
    <g id="text_19">
     <!-- GCOD (AUC=0.6004) -->
     <g transform="translate(605.06625 465.031562) scale(0.08 -0.08)">
      <use xlink:href="#ArialMT-47"/>
      <use xlink:href="#ArialMT-43" transform="translate(77.783203 0)"/>
      <use xlink:href="#ArialMT-4f" transform="translate(150 0)"/>
      <use xlink:href="#ArialMT-44" transform="translate(227.783203 0)"/>
      <use xlink:href="#ArialMT-20" transform="translate(300 0)"/>
      <use xlink:href="#ArialMT-28" transform="translate(327.783203 0)"/>
      <use xlink:href="#ArialMT-41" transform="translate(361.083984 0)"/>
      <use xlink:href="#ArialMT-55" transform="translate(427.783203 0)"/>
      <use xlink:href="#ArialMT-43" transform="translate(500 0)"/>
      <use xlink:href="#ArialMT-3d" transform="translate(572.216797 0)"/>
      <use xlink:href="#ArialMT-30" transform="translate(630.615234 0)"/>
      <use xlink:href="#ArialMT-2e" transform="translate(686.230469 0)"/>
      <use xlink:href="#ArialMT-36" transform="translate(714.013672 0)"/>
      <use xlink:href="#ArialMT-30" transform="translate(769.628906 0)"/>
      <use xlink:href="#ArialMT-30" transform="translate(825.244141 0)"/>
      <use xlink:href="#ArialMT-34" transform="translate(880.859375 0)"/>
      <use xlink:href="#ArialMT-29" transform="translate(936.474609 0)"/>
     </g>
    </g>
    <g id="line2d_38">
     <path d="M 582.66625 473.739062 
L 590.66625 473.739062 
L 598.66625 473.739062 
" style="fill: none; stroke: #8c564b; stroke-width: 2; stroke-linecap: square"/>
    </g>
    <g id="text_20">
     <!-- IE (AUC=0.5492) -->
     <g transform="translate(605.06625 476.539062) scale(0.08 -0.08)">
      <defs>
       <path id="ArialMT-49" d="M 597 0 
L 597 4581 
L 1203 4581 
L 1203 0 
L 597 0 
z
" transform="scale(0.015625)"/>
       <path id="ArialMT-45" d="M 506 0 
L 506 4581 
L 3819 4581 
L 3819 4041 
L 1113 4041 
L 1113 2638 
L 3647 2638 
L 3647 2100 
L 1113 2100 
L 1113 541 
L 3925 541 
L 3925 0 
L 506 0 
z
" transform="scale(0.015625)"/>
      </defs>
      <use xlink:href="#ArialMT-49"/>
      <use xlink:href="#ArialMT-45" transform="translate(27.783203 0)"/>
      <use xlink:href="#ArialMT-20" transform="translate(94.482422 0)"/>
      <use xlink:href="#ArialMT-28" transform="translate(122.265625 0)"/>
      <use xlink:href="#ArialMT-41" transform="translate(155.566406 0)"/>
      <use xlink:href="#ArialMT-55" transform="translate(222.265625 0)"/>
      <use xlink:href="#ArialMT-43" transform="translate(294.482422 0)"/>
      <use xlink:href="#ArialMT-3d" transform="translate(366.699219 0)"/>
      <use xlink:href="#ArialMT-30" transform="translate(425.097656 0)"/>
      <use xlink:href="#ArialMT-2e" transform="translate(480.712891 0)"/>
      <use xlink:href="#ArialMT-35" transform="translate(508.496094 0)"/>
      <use xlink:href="#ArialMT-34" transform="translate(564.111328 0)"/>
      <use xlink:href="#ArialMT-39" transform="translate(619.726562 0)"/>
      <use xlink:href="#ArialMT-32" transform="translate(675.341797 0)"/>
      <use xlink:href="#ArialMT-29" transform="translate(730.957031 0)"/>
     </g>
    </g>
    <g id="line2d_39">
     <path d="M 582.66625 485.246562 
L 590.66625 485.246562 
L 598.66625 485.246562 
" style="fill: none; stroke: #e377c2; stroke-width: 2; stroke-linecap: square"/>
    </g>
    <g id="text_21">
     <!-- KNN (AUC=0.6184) -->
     <g transform="translate(605.06625 488.046562) scale(0.08 -0.08)">
      <defs>
       <path id="ArialMT-4b" d="M 469 0 
L 469 4581 
L 1075 4581 
L 1075 2309 
L 3350 4581 
L 4172 4581 
L 2250 2725 
L 4256 0 
L 3456 0 
L 1825 2319 
L 1075 1588 
L 1075 0 
L 469 0 
z
" transform="scale(0.015625)"/>
      </defs>
      <use xlink:href="#ArialMT-4b"/>
      <use xlink:href="#ArialMT-4e" transform="translate(66.699219 0)"/>
      <use xlink:href="#ArialMT-4e" transform="translate(138.916016 0)"/>
      <use xlink:href="#ArialMT-20" transform="translate(211.132812 0)"/>
      <use xlink:href="#ArialMT-28" transform="translate(238.916016 0)"/>
      <use xlink:href="#ArialMT-41" transform="translate(272.216797 0)"/>
      <use xlink:href="#ArialMT-55" transform="translate(338.916016 0)"/>
      <use xlink:href="#ArialMT-43" transform="translate(411.132812 0)"/>
      <use xlink:href="#ArialMT-3d" transform="translate(483.349609 0)"/>
      <use xlink:href="#ArialMT-30" transform="translate(541.748047 0)"/>
      <use xlink:href="#ArialMT-2e" transform="translate(597.363281 0)"/>
      <use xlink:href="#ArialMT-36" transform="translate(625.146484 0)"/>
      <use xlink:href="#ArialMT-31" transform="translate(680.761719 0)"/>
      <use xlink:href="#ArialMT-38" transform="translate(736.376953 0)"/>
      <use xlink:href="#ArialMT-34" transform="translate(791.992188 0)"/>
      <use xlink:href="#ArialMT-29" transform="translate(847.607422 0)"/>
     </g>
    </g>
    <g id="line2d_40">
     <path d="M 582.66625 496.759062 
L 590.66625 496.759062 
L 598.66625 496.759062 
" style="fill: none; stroke: #17becf; stroke-width: 2; stroke-linecap: square"/>
    </g>
    <g id="text_22">
     <!-- NIEOD (AUC=0.5984) -->
     <g transform="translate(605.06625 499.559062) scale(0.08 -0.08)">
      <use xlink:href="#ArialMT-4e"/>
      <use xlink:href="#ArialMT-49" transform="translate(72.216797 0)"/>
      <use xlink:href="#ArialMT-45" transform="translate(100 0)"/>
      <use xlink:href="#ArialMT-4f" transform="translate(166.699219 0)"/>
      <use xlink:href="#ArialMT-44" transform="translate(244.482422 0)"/>
      <use xlink:href="#ArialMT-20" transform="translate(316.699219 0)"/>
      <use xlink:href="#ArialMT-28" transform="translate(344.482422 0)"/>
      <use xlink:href="#ArialMT-41" transform="translate(377.783203 0)"/>
      <use xlink:href="#ArialMT-55" transform="translate(444.482422 0)"/>
      <use xlink:href="#ArialMT-43" transform="translate(516.699219 0)"/>
      <use xlink:href="#ArialMT-3d" transform="translate(588.916016 0)"/>
      <use xlink:href="#ArialMT-30" transform="translate(647.314453 0)"/>
      <use xlink:href="#ArialMT-2e" transform="translate(702.929688 0)"/>
      <use xlink:href="#ArialMT-35" transform="translate(730.712891 0)"/>
      <use xlink:href="#ArialMT-39" transform="translate(786.328125 0)"/>
      <use xlink:href="#ArialMT-38" transform="translate(841.943359 0)"/>
      <use xlink:href="#ArialMT-34" transform="translate(897.558594 0)"/>
      <use xlink:href="#ArialMT-29" transform="translate(953.173828 0)"/>
     </g>
    </g>
    <g id="line2d_41">
     <path d="M 582.66625 508.271562 
L 590.66625 508.271562 
L 598.66625 508.271562 
" style="fill: none; stroke: #e31818; stroke-width: 2.5; stroke-linecap: square"/>
    </g>
    <g id="text_23">
     <!-- NMIGOD (AUC=0.7058) -->
     <g transform="translate(605.06625 511.071562) scale(0.08 -0.08)">
      <defs>
       <path id="ArialMT-4d" d="M 475 0 
L 475 4581 
L 1388 4581 
L 2472 1338 
Q 2622 884 2691 659 
Q 2769 909 2934 1394 
L 4031 4581 
L 4847 4581 
L 4847 0 
L 4263 0 
L 4263 3834 
L 2931 0 
L 2384 0 
L 1059 3900 
L 1059 0 
L 475 0 
z
" transform="scale(0.015625)"/>
      </defs>
      <use xlink:href="#ArialMT-4e"/>
      <use xlink:href="#ArialMT-4d" transform="translate(72.216797 0)"/>
      <use xlink:href="#ArialMT-49" transform="translate(155.517578 0)"/>
      <use xlink:href="#ArialMT-47" transform="translate(183.300781 0)"/>
      <use xlink:href="#ArialMT-4f" transform="translate(261.083984 0)"/>
      <use xlink:href="#ArialMT-44" transform="translate(338.867188 0)"/>
      <use xlink:href="#ArialMT-20" transform="translate(411.083984 0)"/>
      <use xlink:href="#ArialMT-28" transform="translate(438.867188 0)"/>
      <use xlink:href="#ArialMT-41" transform="translate(472.167969 0)"/>
      <use xlink:href="#ArialMT-55" transform="translate(538.867188 0)"/>
      <use xlink:href="#ArialMT-43" transform="translate(611.083984 0)"/>
      <use xlink:href="#ArialMT-3d" transform="translate(683.300781 0)"/>
      <use xlink:href="#ArialMT-30" transform="translate(741.699219 0)"/>
      <use xlink:href="#ArialMT-2e" transform="translate(797.314453 0)"/>
      <use xlink:href="#ArialMT-37" transform="translate(825.097656 0)"/>
      <use xlink:href="#ArialMT-30" transform="translate(880.712891 0)"/>
      <use xlink:href="#ArialMT-35" transform="translate(936.328125 0)"/>
      <use xlink:href="#ArialMT-38" transform="translate(991.943359 0)"/>
      <use xlink:href="#ArialMT-29" transform="translate(1047.558594 0)"/>
     </g>
    </g>
    <g id="line2d_42">
     <path d="M 582.66625 519.681562 
L 590.66625 519.681562 
L 598.66625 519.681562 
" style="fill: none; stroke-dasharray: 3.7,1.6; stroke-dashoffset: 0; stroke: #000000; stroke-opacity: 0.5"/>
    </g>
    <g id="text_24">
     <!-- Random -->
     <g transform="translate(605.06625 522.481562) scale(0.08 -0.08)">
      <defs>
       <path id="ArialMT-61" d="M 2588 409 
Q 2275 144 1986 34 
Q 1697 -75 1366 -75 
Q 819 -75 525 192 
Q 231 459 231 875 
Q 231 1119 342 1320 
Q 453 1522 633 1644 
Q 813 1766 1038 1828 
Q 1203 1872 1538 1913 
Q 2219 1994 2541 2106 
Q 2544 2222 2544 2253 
Q 2544 2597 2384 2738 
Q 2169 2928 1744 2928 
Q 1347 2928 1158 2789 
Q 969 2650 878 2297 
L 328 2372 
Q 403 2725 575 2942 
Q 747 3159 1072 3276 
Q 1397 3394 1825 3394 
Q 2250 3394 2515 3294 
Q 2781 3194 2906 3042 
Q 3031 2891 3081 2659 
Q 3109 2516 3109 2141 
L 3109 1391 
Q 3109 606 3145 398 
Q 3181 191 3288 0 
L 2700 0 
Q 2613 175 2588 409 
z
M 2541 1666 
Q 2234 1541 1622 1453 
Q 1275 1403 1131 1340 
Q 988 1278 909 1158 
Q 831 1038 831 891 
Q 831 666 1001 516 
Q 1172 366 1500 366 
Q 1825 366 2078 508 
Q 2331 650 2450 897 
Q 2541 1088 2541 1459 
L 2541 1666 
z
" transform="scale(0.015625)"/>
       <path id="ArialMT-6e" d="M 422 0 
L 422 3319 
L 928 3319 
L 928 2847 
Q 1294 3394 1984 3394 
Q 2284 3394 2536 3286 
Q 2788 3178 2913 3003 
Q 3038 2828 3088 2588 
Q 3119 2431 3119 2041 
L 3119 0 
L 2556 0 
L 2556 2019 
Q 2556 2363 2490 2533 
Q 2425 2703 2258 2804 
Q 2091 2906 1866 2906 
Q 1506 2906 1245 2678 
Q 984 2450 984 1813 
L 984 0 
L 422 0 
z
" transform="scale(0.015625)"/>
       <path id="ArialMT-64" d="M 2575 0 
L 2575 419 
Q 2259 -75 1647 -75 
Q 1250 -75 917 144 
Q 584 363 401 755 
Q 219 1147 219 1656 
Q 219 2153 384 2558 
Q 550 2963 881 3178 
Q 1213 3394 1622 3394 
Q 1922 3394 2156 3267 
Q 2391 3141 2538 2938 
L 2538 4581 
L 3097 4581 
L 3097 0 
L 2575 0 
z
M 797 1656 
Q 797 1019 1065 703 
Q 1334 388 1700 388 
Q 2069 388 2326 689 
Q 2584 991 2584 1609 
Q 2584 2291 2321 2609 
Q 2059 2928 1675 2928 
Q 1300 2928 1048 2622 
Q 797 2316 797 1656 
z
" transform="scale(0.015625)"/>
       <path id="ArialMT-6f" d="M 213 1659 
Q 213 2581 725 3025 
Q 1153 3394 1769 3394 
Q 2453 3394 2887 2945 
Q 3322 2497 3322 1706 
Q 3322 1066 3130 698 
Q 2938 331 2570 128 
Q 2203 -75 1769 -75 
Q 1072 -75 642 372 
Q 213 819 213 1659 
z
M 791 1659 
Q 791 1022 1069 705 
Q 1347 388 1769 388 
Q 2188 388 2466 706 
Q 2744 1025 2744 1678 
Q 2744 2294 2464 2611 
Q 2184 2928 1769 2928 
Q 1347 2928 1069 2612 
Q 791 2297 791 1659 
z
" transform="scale(0.015625)"/>
       <path id="ArialMT-6d" d="M 422 0 
L 422 3319 
L 925 3319 
L 925 2853 
Q 1081 3097 1340 3245 
Q 1600 3394 1931 3394 
Q 2300 3394 2536 3241 
Q 2772 3088 2869 2813 
Q 3263 3394 3894 3394 
Q 4388 3394 4653 3120 
Q 4919 2847 4919 2278 
L 4919 0 
L 4359 0 
L 4359 2091 
Q 4359 2428 4304 2576 
Q 4250 2725 4106 2815 
Q 3963 2906 3769 2906 
Q 3419 2906 3187 2673 
Q 2956 2441 2956 1928 
L 2956 0 
L 2394 0 
L 2394 2156 
Q 2394 2531 2256 2718 
Q 2119 2906 1806 2906 
Q 1569 2906 1367 2781 
Q 1166 2656 1075 2415 
Q 984 2175 984 1722 
L 984 0 
L 422 0 
z
" transform="scale(0.015625)"/>
      </defs>
      <use xlink:href="#ArialMT-52"/>
      <use xlink:href="#ArialMT-61" transform="translate(72.216797 0)"/>
      <use xlink:href="#ArialMT-6e" transform="translate(127.832031 0)"/>
      <use xlink:href="#ArialMT-64" transform="translate(183.447266 0)"/>
      <use xlink:href="#ArialMT-6f" transform="translate(239.0625 0)"/>
      <use xlink:href="#ArialMT-6d" transform="translate(294.677734 0)"/>
     </g>
    </g>
   </g>
  </g>
 </g>
 <defs>
  <clipPath id="p0dc7ba6e83">
   <rect x="43.0575" y="23.391562" width="655.675" height="507.88"/>
  </clipPath>
 </defs>
</svg>
