<?xml version="1.0" encoding="utf-8" standalone="no"?>
<!DOCTYPE svg PUBLIC "-//W3C//DTD SVG 1.1//EN"
  "http://www.w3.org/Graphics/SVG/1.1/DTD/svg11.dtd">
<svg xmlns:xlink="http://www.w3.org/1999/xlink" width="712.9075pt" height="425.7075pt" viewBox="0 0 712.9075 425.7075" xmlns="http://www.w3.org/2000/svg" version="1.1">
 <metadata>
  <rdf:RDF xmlns:dc="http://purl.org/dc/elements/1.1/" xmlns:cc="http://creativecommons.org/ns#" xmlns:rdf="http://www.w3.org/1999/02/22-rdf-syntax-ns#">
   <cc:Work>
    <dc:type rdf:resource="http://purl.org/dc/dcmitype/StillImage"/>
    <dc:date>2026-06-11T18:28:59.010885</dc:date>
    <dc:format>image/svg+xml</dc:format>
    <dc:creator>
     <cc:Agent>
      <dc:title>Matplotlib v3.10.0, https://matplotlib.org/</dc:title>
     </cc:Agent>
    </dc:creator>
   </cc:Work>
  </rdf:RDF>
 </metadata>
 <defs>
  <style type="text/css">*{stroke-linejoin: round; stroke-linecap: butt}</style>
 </defs>
 <g id="figure_1">
  <g id="patch_1">
   <path d="M -0 425.7075 
L 712.9075 425.7075 
L 712.9075 0 
L -0 0 
z
" style="fill: #ffffff"/>
  </g>
  <g id="axes_1">
   <g id="patch_2">
    <path d="M 43.0575 387.100937 
L 705.7075 387.100937 
L 705.7075 23.220937 
L 43.0575 23.220937 
z
" style="fill: #ffffff"/>
   </g>
   <g id="matplotlib.axis_1">
    <g id="xtick_1">
     <g id="line2d_1">
      <path d="M 43.0575 387.100937 
L 43.0575 23.220937 
" clip-path="url(#pdfa288fb5d)" style="fill: none; stroke-dasharray: 2.96,1.28; stroke-dashoffset: 0; stroke: #b0b0b0; stroke-opacity: 0.5; stroke-width: 0.8"/>
     </g>
     <g id="line2d_2">
      <defs>
       <path id="m0fdceffd4e" d="M 0 0 
L 0 3.5 
" style="stroke: #000000; stroke-width: 0.8"/>
      </defs>
      <g>
       <use xlink:href="#m0fdceffd4e" x="43.0575" y="387.100937" style="stroke: #000000; stroke-width: 0.8"/>
      </g>
     </g>
     <g id="text_1">
      <!-- 0 -->
      <g transform="translate(40.277031 401.25875) scale(0.1 -0.1)">
       <defs>
        <path id="ArialMT-30" d="M 266 2259 
Q 266 3072 433 3567 
Q 600 4063 929 4331 
Q 1259 4600 1759 4600 
Q 2128 4600 2406 4451 
Q 2684 4303 2865 4023 
Q 3047 3744 3150 3342 
Q 3253 2941 3253 2259 
Q 3253 1453 3087 958 
Q 2922 463 2592 192 
Q 2263 -78 1759 -78 
Q 1097 -78 719 397 
Q 266 969 266 2259 
z
M 844 2259 
Q 844 1131 1108 757 
Q 1372 384 1759 384 
Q 2147 384 2411 759 
Q 2675 1134 2675 2259 
Q 2675 3391 2411 3762 
Q 2147 4134 1753 4134 
Q 1366 4134 1134 3806 
Q 844 3388 844 2259 
z
" transform="scale(0.015625)"/>
       </defs>
       <use xlink:href="#ArialMT-30"/>
      </g>
     </g>
    </g>
    <g id="xtick_2">
     <g id="line2d_3">
      <path d="M 120.469883 387.100937 
L 120.469883 23.220937 
" clip-path="url(#pdfa288fb5d)" style="fill: none; stroke-dasharray: 2.96,1.28; stroke-dashoffset: 0; stroke: #b0b0b0; stroke-opacity: 0.5; stroke-width: 0.8"/>
     </g>
     <g id="line2d_4">
      <g>
       <use xlink:href="#m0fdceffd4e" x="120.469883" y="387.100937" style="stroke: #000000; stroke-width: 0.8"/>
      </g>
     </g>
     <g id="text_2">
      <!-- 25 -->
      <g transform="translate(114.908946 401.25875) scale(0.1 -0.1)">
       <defs>
        <path id="ArialMT-32" d="M 3222 541 
L 3222 0 
L 194 0 
Q 188 203 259 391 
Q 375 700 629 1000 
Q 884 1300 1366 1694 
Q 2113 2306 2375 2664 
Q 2638 3022 2638 3341 
Q 2638 3675 2398 3904 
Q 2159 4134 1775 4134 
Q 1369 4134 1125 3890 
Q 881 3647 878 3216 
L 300 3275 
Q 359 3922 746 4261 
Q 1134 4600 1788 4600 
Q 2447 4600 2831 4234 
Q 3216 3869 3216 3328 
Q 3216 3053 3103 2787 
Q 2991 2522 2730 2228 
Q 2469 1934 1863 1422 
Q 1356 997 1212 845 
Q 1069 694 975 541 
L 3222 541 
z
" transform="scale(0.015625)"/>
        <path id="ArialMT-35" d="M 266 1200 
L 856 1250 
Q 922 819 1161 601 
Q 1400 384 1738 384 
Q 2144 384 2425 690 
Q 2706 997 2706 1503 
Q 2706 1984 2436 2262 
Q 2166 2541 1728 2541 
Q 1456 2541 1237 2417 
Q 1019 2294 894 2097 
L 366 2166 
L 809 4519 
L 3088 4519 
L 3088 3981 
L 1259 3981 
L 1013 2750 
Q 1425 3038 1878 3038 
Q 2478 3038 2890 2622 
Q 3303 2206 3303 1553 
Q 3303 931 2941 478 
Q 2500 -78 1738 -78 
Q 1113 -78 717 272 
Q 322 622 266 1200 
z
" transform="scale(0.015625)"/>
       </defs>
       <use xlink:href="#ArialMT-32"/>
       <use xlink:href="#ArialMT-35" transform="translate(55.615234 0)"/>
      </g>
     </g>
    </g>
    <g id="xtick_3">
     <g id="line2d_5">
      <path d="M 197.882266 387.100937 
L 197.882266 23.220937 
" clip-path="url(#pdfa288fb5d)" style="fill: none; stroke-dasharray: 2.96,1.28; stroke-dashoffset: 0; stroke: #b0b0b0; stroke-opacity: 0.5; stroke-width: 0.8"/>
     </g>
     <g id="line2d_6">
      <g>
       <use xlink:href="#m0fdceffd4e" x="197.882266" y="387.100937" style="stroke: #000000; stroke-width: 0.8"/>
      </g>
     </g>
     <g id="text_3">
      <!-- 50 -->
      <g transform="translate(192.321329 401.25875) scale(0.1 -0.1)">
       <use xlink:href="#ArialMT-35"/>
       <use xlink:href="#ArialMT-30" transform="translate(55.615234 0)"/>
      </g>
     </g>
    </g>
    <g id="xtick_4">
     <g id="line2d_7">
      <path d="M 275.29465 387.100937 
L 275.29465 23.220937 
" clip-path="url(#pdfa288fb5d)" style="fill: none; stroke-dasharray: 2.96,1.28; stroke-dashoffset: 0; stroke: #b0b0b0; stroke-opacity: 0.5; stroke-width: 0.8"/>
     </g>
     <g id="line2d_8">
      <g>
       <use xlink:href="#m0fdceffd4e" x="275.29465" y="387.100937" style="stroke: #000000; stroke-width: 0.8"/>
      </g>
     </g>
     <g id="text_4">
      <!-- 75 -->
      <g transform="translate(269.733712 401.25875) scale(0.1 -0.1)">
       <defs>
        <path id="ArialMT-37" d="M 303 3981 
L 303 4522 
L 3269 4522 
L 3269 4084 
Q 2831 3619 2401 2847 
Q 1972 2075 1738 1259 
Q 1569 684 1522 0 
L 944 0 
Q 953 541 1156 1306 
Q 1359 2072 1739 2783 
Q 2119 3494 2547 3981 
L 303 3981 
z
" transform="scale(0.015625)"/>
       </defs>
       <use xlink:href="#ArialMT-37"/>
       <use xlink:href="#ArialMT-35" transform="translate(55.615234 0)"/>
      </g>
     </g>
    </g>
    <g id="xtick_5">
     <g id="line2d_9">
      <path d="M 352.707033 387.100937 
L 352.707033 23.220937 
" clip-path="url(#pdfa288fb5d)" style="fill: none; stroke-dasharray: 2.96,1.28; stroke-dashoffset: 0; stroke: #b0b0b0; stroke-opacity: 0.5; stroke-width: 0.8"/>
     </g>
     <g id="line2d_10">
      <g>
       <use xlink:href="#m0fdceffd4e" x="352.707033" y="387.100937" style="stroke: #000000; stroke-width: 0.8"/>
      </g>
     </g>
     <g id="text_5">
      <!-- 100 -->
      <g transform="translate(344.365626 401.25875) scale(0.1 -0.1)">
       <defs>
        <path id="ArialMT-31" d="M 2384 0 
L 1822 0 
L 1822 3584 
Q 1619 3391 1289 3197 
Q 959 3003 697 2906 
L 697 3450 
Q 1169 3672 1522 3987 
Q 1875 4303 2022 4600 
L 2384 4600 
L 2384 0 
z
" transform="scale(0.015625)"/>
       </defs>
       <use xlink:href="#ArialMT-31"/>
       <use xlink:href="#ArialMT-30" transform="translate(55.615234 0)"/>
       <use xlink:href="#ArialMT-30" transform="translate(111.230469 0)"/>
      </g>
     </g>
    </g>
    <g id="xtick_6">
     <g id="line2d_11">
      <path d="M 430.119416 387.100937 
L 430.119416 23.220937 
" clip-path="url(#pdfa288fb5d)" style="fill: none; stroke-dasharray: 2.96,1.28; stroke-dashoffset: 0; stroke: #b0b0b0; stroke-opacity: 0.5; stroke-width: 0.8"/>
     </g>
     <g id="line2d_12">
      <g>
       <use xlink:href="#m0fdceffd4e" x="430.119416" y="387.100937" style="stroke: #000000; stroke-width: 0.8"/>
      </g>
     </g>
     <g id="text_6">
      <!-- 125 -->
      <g transform="translate(421.77801 401.25875) scale(0.1 -0.1)">
       <use xlink:href="#ArialMT-31"/>
       <use xlink:href="#ArialMT-32" transform="translate(55.615234 0)"/>
       <use xlink:href="#ArialMT-35" transform="translate(111.230469 0)"/>
      </g>
     </g>
    </g>
    <g id="xtick_7">
     <g id="line2d_13">
      <path d="M 507.531799 387.100937 
L 507.531799 23.220937 
" clip-path="url(#pdfa288fb5d)" style="fill: none; stroke-dasharray: 2.96,1.28; stroke-dashoffset: 0; stroke: #b0b0b0; stroke-opacity: 0.5; stroke-width: 0.8"/>
     </g>
     <g id="line2d_14">
      <g>
       <use xlink:href="#m0fdceffd4e" x="507.531799" y="387.100937" style="stroke: #000000; stroke-width: 0.8"/>
      </g>
     </g>
     <g id="text_7">
      <!-- 150 -->
      <g transform="translate(499.190393 401.25875) scale(0.1 -0.1)">
       <use xlink:href="#ArialMT-31"/>
       <use xlink:href="#ArialMT-35" transform="translate(55.615234 0)"/>
       <use xlink:href="#ArialMT-30" transform="translate(111.230469 0)"/>
      </g>
     </g>
    </g>
    <g id="xtick_8">
     <g id="line2d_15">
      <path d="M 584.944182 387.100937 
L 584.944182 23.220937 
" clip-path="url(#pdfa288fb5d)" style="fill: none; stroke-dasharray: 2.96,1.28; stroke-dashoffset: 0; stroke: #b0b0b0; stroke-opacity: 0.5; stroke-width: 0.8"/>
     </g>
     <g id="line2d_16">
      <g>
       <use xlink:href="#m0fdceffd4e" x="584.944182" y="387.100937" style="stroke: #000000; stroke-width: 0.8"/>
      </g>
     </g>
     <g id="text_8">
      <!-- 175 -->
      <g transform="translate(576.602776 401.25875) scale(0.1 -0.1)">
       <use xlink:href="#ArialMT-31"/>
       <use xlink:href="#ArialMT-37" transform="translate(55.615234 0)"/>
       <use xlink:href="#ArialMT-35" transform="translate(111.230469 0)"/>
      </g>
     </g>
    </g>
    <g id="xtick_9">
     <g id="line2d_17">
      <path d="M 662.356565 387.100937 
L 662.356565 23.220937 
" clip-path="url(#pdfa288fb5d)" style="fill: none; stroke-dasharray: 2.96,1.28; stroke-dashoffset: 0; stroke: #b0b0b0; stroke-opacity: 0.5; stroke-width: 0.8"/>
     </g>
     <g id="line2d_18">
      <g>
       <use xlink:href="#m0fdceffd4e" x="662.356565" y="387.100937" style="stroke: #000000; stroke-width: 0.8"/>
      </g>
     </g>
     <g id="text_9">
      <!-- 200 -->
      <g transform="translate(654.015159 401.25875) scale(0.1 -0.1)">
       <use xlink:href="#ArialMT-32"/>
       <use xlink:href="#ArialMT-30" transform="translate(55.615234 0)"/>
       <use xlink:href="#ArialMT-30" transform="translate(111.230469 0)"/>
      </g>
     </g>
    </g>
    <g id="text_10">
     <!-- k (Threshold Index) -->
     <g transform="translate(319.048438 415.981875) scale(0.12 -0.12)">
      <defs>
       <path id="Arial-BoldMT-6b" d="M 428 0 
L 428 4581 
L 1306 4581 
L 1306 2150 
L 2334 3319 
L 3416 3319 
L 2281 2106 
L 3497 0 
L 2550 0 
L 1716 1491 
L 1306 1063 
L 1306 0 
L 428 0 
z
" transform="scale(0.015625)"/>
       <path id="Arial-BoldMT-20" transform="scale(0.015625)"/>
       <path id="Arial-BoldMT-28" d="M 1916 -1347 
L 1313 -1347 
Q 834 -625 584 153 
Q 334 931 334 1659 
Q 334 2563 644 3369 
Q 913 4069 1325 4659 
L 1925 4659 
Q 1497 3713 1336 3048 
Q 1175 2384 1175 1641 
Q 1175 1128 1270 590 
Q 1366 53 1531 -431 
Q 1641 -750 1916 -1347 
z
" transform="scale(0.015625)"/>
       <path id="Arial-BoldMT-54" d="M 1497 0 
L 1497 3806 
L 138 3806 
L 138 4581 
L 3778 4581 
L 3778 3806 
L 2422 3806 
L 2422 0 
L 1497 0 
z
" transform="scale(0.015625)"/>
       <path id="Arial-BoldMT-68" d="M 1334 4581 
L 1334 2897 
Q 1759 3394 2350 3394 
Q 2653 3394 2897 3281 
Q 3141 3169 3264 2994 
Q 3388 2819 3433 2606 
Q 3478 2394 3478 1947 
L 3478 0 
L 2600 0 
L 2600 1753 
Q 2600 2275 2550 2415 
Q 2500 2556 2373 2639 
Q 2247 2722 2056 2722 
Q 1838 2722 1666 2615 
Q 1494 2509 1414 2295 
Q 1334 2081 1334 1663 
L 1334 0 
L 456 0 
L 456 4581 
L 1334 4581 
z
" transform="scale(0.015625)"/>
       <path id="Arial-BoldMT-72" d="M 1300 0 
L 422 0 
L 422 3319 
L 1238 3319 
L 1238 2847 
Q 1447 3181 1614 3287 
Q 1781 3394 1994 3394 
Q 2294 3394 2572 3228 
L 2300 2463 
Q 2078 2606 1888 2606 
Q 1703 2606 1575 2504 
Q 1447 2403 1373 2137 
Q 1300 1872 1300 1025 
L 1300 0 
z
" transform="scale(0.015625)"/>
       <path id="Arial-BoldMT-65" d="M 2381 1056 
L 3256 909 
Q 3088 428 2723 176 
Q 2359 -75 1813 -75 
Q 947 -75 531 491 
Q 203 944 203 1634 
Q 203 2459 634 2926 
Q 1066 3394 1725 3394 
Q 2466 3394 2894 2905 
Q 3322 2416 3303 1406 
L 1103 1406 
Q 1113 1016 1316 798 
Q 1519 581 1822 581 
Q 2028 581 2168 693 
Q 2309 806 2381 1056 
z
M 2431 1944 
Q 2422 2325 2234 2523 
Q 2047 2722 1778 2722 
Q 1491 2722 1303 2513 
Q 1116 2303 1119 1944 
L 2431 1944 
z
" transform="scale(0.015625)"/>
       <path id="Arial-BoldMT-73" d="M 150 947 
L 1031 1081 
Q 1088 825 1259 692 
Q 1431 559 1741 559 
Q 2081 559 2253 684 
Q 2369 772 2369 919 
Q 2369 1019 2306 1084 
Q 2241 1147 2013 1200 
Q 950 1434 666 1628 
Q 272 1897 272 2375 
Q 272 2806 612 3100 
Q 953 3394 1669 3394 
Q 2350 3394 2681 3172 
Q 3013 2950 3138 2516 
L 2309 2363 
Q 2256 2556 2107 2659 
Q 1959 2763 1684 2763 
Q 1338 2763 1188 2666 
Q 1088 2597 1088 2488 
Q 1088 2394 1175 2328 
Q 1294 2241 1995 2081 
Q 2697 1922 2975 1691 
Q 3250 1456 3250 1038 
Q 3250 581 2869 253 
Q 2488 -75 1741 -75 
Q 1063 -75 667 200 
Q 272 475 150 947 
z
" transform="scale(0.015625)"/>
       <path id="Arial-BoldMT-6f" d="M 256 1706 
Q 256 2144 472 2553 
Q 688 2963 1083 3178 
Q 1478 3394 1966 3394 
Q 2719 3394 3200 2905 
Q 3681 2416 3681 1669 
Q 3681 916 3195 420 
Q 2709 -75 1972 -75 
Q 1516 -75 1102 131 
Q 688 338 472 736 
Q 256 1134 256 1706 
z
M 1156 1659 
Q 1156 1166 1390 903 
Q 1625 641 1969 641 
Q 2313 641 2545 903 
Q 2778 1166 2778 1666 
Q 2778 2153 2545 2415 
Q 2313 2678 1969 2678 
Q 1625 2678 1390 2415 
Q 1156 2153 1156 1659 
z
" transform="scale(0.015625)"/>
       <path id="Arial-BoldMT-6c" d="M 459 0 
L 459 4581 
L 1338 4581 
L 1338 0 
L 459 0 
z
" transform="scale(0.015625)"/>
       <path id="Arial-BoldMT-64" d="M 3503 0 
L 2688 0 
L 2688 488 
Q 2484 203 2207 64 
Q 1931 -75 1650 -75 
Q 1078 -75 670 386 
Q 263 847 263 1672 
Q 263 2516 659 2955 
Q 1056 3394 1663 3394 
Q 2219 3394 2625 2931 
L 2625 4581 
L 3503 4581 
L 3503 0 
z
M 1159 1731 
Q 1159 1200 1306 963 
Q 1519 619 1900 619 
Q 2203 619 2415 876 
Q 2628 1134 2628 1647 
Q 2628 2219 2422 2470 
Q 2216 2722 1894 2722 
Q 1581 2722 1370 2473 
Q 1159 2225 1159 1731 
z
" transform="scale(0.015625)"/>
       <path id="Arial-BoldMT-49" d="M 438 0 
L 438 4581 
L 1363 4581 
L 1363 0 
L 438 0 
z
" transform="scale(0.015625)"/>
       <path id="Arial-BoldMT-6e" d="M 3478 0 
L 2600 0 
L 2600 1694 
Q 2600 2231 2544 2389 
Q 2488 2547 2361 2634 
Q 2234 2722 2056 2722 
Q 1828 2722 1647 2597 
Q 1466 2472 1398 2265 
Q 1331 2059 1331 1503 
L 1331 0 
L 453 0 
L 453 3319 
L 1269 3319 
L 1269 2831 
Q 1703 3394 2363 3394 
Q 2653 3394 2893 3289 
Q 3134 3184 3257 3021 
Q 3381 2859 3429 2653 
Q 3478 2447 3478 2063 
L 3478 0 
z
" transform="scale(0.015625)"/>
       <path id="Arial-BoldMT-78" d="M 38 0 
L 1234 1709 
L 88 3319 
L 1159 3319 
L 1747 2406 
L 2366 3319 
L 3397 3319 
L 2272 1747 
L 3500 0 
L 2422 0 
L 1747 1028 
L 1066 0 
L 38 0 
z
" transform="scale(0.015625)"/>
       <path id="Arial-BoldMT-29" d="M 216 -1347 
Q 475 -791 581 -494 
Q 688 -197 778 190 
Q 869 578 912 926 
Q 956 1275 956 1641 
Q 956 2384 797 3048 
Q 638 3713 209 4659 
L 806 4659 
Q 1278 3988 1539 3234 
Q 1800 2481 1800 1706 
Q 1800 1053 1594 306 
Q 1359 -531 822 -1347 
L 216 -1347 
z
" transform="scale(0.015625)"/>
      </defs>
      <use xlink:href="#Arial-BoldMT-6b"/>
      <use xlink:href="#Arial-BoldMT-20" transform="translate(55.615234 0)"/>
      <use xlink:href="#Arial-BoldMT-28" transform="translate(83.398438 0)"/>
      <use xlink:href="#Arial-BoldMT-54" transform="translate(116.699219 0)"/>
      <use xlink:href="#Arial-BoldMT-68" transform="translate(177.783203 0)"/>
      <use xlink:href="#Arial-BoldMT-72" transform="translate(238.867188 0)"/>
      <use xlink:href="#Arial-BoldMT-65" transform="translate(277.783203 0)"/>
      <use xlink:href="#Arial-BoldMT-73" transform="translate(333.398438 0)"/>
      <use xlink:href="#Arial-BoldMT-68" transform="translate(389.013672 0)"/>
      <use xlink:href="#Arial-BoldMT-6f" transform="translate(450.097656 0)"/>
      <use xlink:href="#Arial-BoldMT-6c" transform="translate(511.181641 0)"/>
      <use xlink:href="#Arial-BoldMT-64" transform="translate(538.964844 0)"/>
      <use xlink:href="#Arial-BoldMT-20" transform="translate(600.048828 0)"/>
      <use xlink:href="#Arial-BoldMT-49" transform="translate(627.832031 0)"/>
      <use xlink:href="#Arial-BoldMT-6e" transform="translate(655.615234 0)"/>
      <use xlink:href="#Arial-BoldMT-64" transform="translate(716.699219 0)"/>
      <use xlink:href="#Arial-BoldMT-65" transform="translate(777.783203 0)"/>
      <use xlink:href="#Arial-BoldMT-78" transform="translate(833.398438 0)"/>
      <use xlink:href="#Arial-BoldMT-29" transform="translate(889.013672 0)"/>
     </g>
    </g>
   </g>
   <g id="matplotlib.axis_2">
    <g id="ytick_1">
     <g id="line2d_19">
      <path d="M 43.0575 387.100937 
L 705.7075 387.100937 
" clip-path="url(#pdfa288fb5d)" style="fill: none; stroke-dasharray: 2.96,1.28; stroke-dashoffset: 0; stroke: #b0b0b0; stroke-opacity: 0.5; stroke-width: 0.8"/>
     </g>
     <g id="line2d_20">
      <defs>
       <path id="m6207a1ec23" d="M 0 0 
L -3.5 0 
" style="stroke: #000000; stroke-width: 0.8"/>
      </defs>
      <g>
       <use xlink:href="#m6207a1ec23" x="43.0575" y="387.100937" style="stroke: #000000; stroke-width: 0.8"/>
      </g>
     </g>
     <g id="text_11">
      <!-- 0.0 -->
      <g transform="translate(22.1575 390.679844) scale(0.1 -0.1)">
       <defs>
        <path id="ArialMT-2e" d="M 581 0 
L 581 641 
L 1222 641 
L 1222 0 
L 581 0 
z
" transform="scale(0.015625)"/>
       </defs>
       <use xlink:href="#ArialMT-30"/>
       <use xlink:href="#ArialMT-2e" transform="translate(55.615234 0)"/>
       <use xlink:href="#ArialMT-30" transform="translate(83.398438 0)"/>
      </g>
     </g>
    </g>
    <g id="ytick_2">
     <g id="line2d_21">
      <path d="M 43.0575 317.790461 
L 705.7075 317.790461 
" clip-path="url(#pdfa288fb5d)" style="fill: none; stroke-dasharray: 2.96,1.28; stroke-dashoffset: 0; stroke: #b0b0b0; stroke-opacity: 0.5; stroke-width: 0.8"/>
     </g>
     <g id="line2d_22">
      <g>
       <use xlink:href="#m6207a1ec23" x="43.0575" y="317.790461" style="stroke: #000000; stroke-width: 0.8"/>
      </g>
     </g>
     <g id="text_12">
      <!-- 0.2 -->
      <g transform="translate(22.1575 321.369368) scale(0.1 -0.1)">
       <use xlink:href="#ArialMT-30"/>
       <use xlink:href="#ArialMT-2e" transform="translate(55.615234 0)"/>
       <use xlink:href="#ArialMT-32" transform="translate(83.398438 0)"/>
      </g>
     </g>
    </g>
    <g id="ytick_3">
     <g id="line2d_23">
      <path d="M 43.0575 248.479985 
L 705.7075 248.479985 
" clip-path="url(#pdfa288fb5d)" style="fill: none; stroke-dasharray: 2.96,1.28; stroke-dashoffset: 0; stroke: #b0b0b0; stroke-opacity: 0.5; stroke-width: 0.8"/>
     </g>
     <g id="line2d_24">
      <g>
       <use xlink:href="#m6207a1ec23" x="43.0575" y="248.479985" style="stroke: #000000; stroke-width: 0.8"/>
      </g>
     </g>
     <g id="text_13">
      <!-- 0.4 -->
      <g transform="translate(22.1575 252.058891) scale(0.1 -0.1)">
       <defs>
        <path id="ArialMT-34" d="M 2069 0 
L 2069 1097 
L 81 1097 
L 81 1613 
L 2172 4581 
L 2631 4581 
L 2631 1613 
L 3250 1613 
L 3250 1097 
L 2631 1097 
L 2631 0 
L 2069 0 
z
M 2069 1613 
L 2069 3678 
L 634 1613 
L 2069 1613 
z
" transform="scale(0.015625)"/>
       </defs>
       <use xlink:href="#ArialMT-30"/>
       <use xlink:href="#ArialMT-2e" transform="translate(55.615234 0)"/>
       <use xlink:href="#ArialMT-34" transform="translate(83.398438 0)"/>
      </g>
     </g>
    </g>
    <g id="ytick_4">
     <g id="line2d_25">
      <path d="M 43.0575 179.169509 
L 705.7075 179.169509 
" clip-path="url(#pdfa288fb5d)" style="fill: none; stroke-dasharray: 2.96,1.28; stroke-dashoffset: 0; stroke: #b0b0b0; stroke-opacity: 0.5; stroke-width: 0.8"/>
     </g>
     <g id="line2d_26">
      <g>
       <use xlink:href="#m6207a1ec23" x="43.0575" y="179.169509" style="stroke: #000000; stroke-width: 0.8"/>
      </g>
     </g>
     <g id="text_14">
      <!-- 0.6 -->
      <g transform="translate(22.1575 182.748415) scale(0.1 -0.1)">
       <defs>
        <path id="ArialMT-36" d="M 3184 3459 
L 2625 3416 
Q 2550 3747 2413 3897 
Q 2184 4138 1850 4138 
Q 1581 4138 1378 3988 
Q 1113 3794 959 3422 
Q 806 3050 800 2363 
Q 1003 2672 1297 2822 
Q 1591 2972 1913 2972 
Q 2475 2972 2870 2558 
Q 3266 2144 3266 1488 
Q 3266 1056 3080 686 
Q 2894 316 2569 119 
Q 2244 -78 1831 -78 
Q 1128 -78 684 439 
Q 241 956 241 2144 
Q 241 3472 731 4075 
Q 1159 4600 1884 4600 
Q 2425 4600 2770 4297 
Q 3116 3994 3184 3459 
z
M 888 1484 
Q 888 1194 1011 928 
Q 1134 663 1356 523 
Q 1578 384 1822 384 
Q 2178 384 2434 671 
Q 2691 959 2691 1453 
Q 2691 1928 2437 2201 
Q 2184 2475 1800 2475 
Q 1419 2475 1153 2201 
Q 888 1928 888 1484 
z
" transform="scale(0.015625)"/>
       </defs>
       <use xlink:href="#ArialMT-30"/>
       <use xlink:href="#ArialMT-2e" transform="translate(55.615234 0)"/>
       <use xlink:href="#ArialMT-36" transform="translate(83.398438 0)"/>
      </g>
     </g>
    </g>
    <g id="ytick_5">
     <g id="line2d_27">
      <path d="M 43.0575 109.859033 
L 705.7075 109.859033 
" clip-path="url(#pdfa288fb5d)" style="fill: none; stroke-dasharray: 2.96,1.28; stroke-dashoffset: 0; stroke: #b0b0b0; stroke-opacity: 0.5; stroke-width: 0.8"/>
     </g>
     <g id="line2d_28">
      <g>
       <use xlink:href="#m6207a1ec23" x="43.0575" y="109.859033" style="stroke: #000000; stroke-width: 0.8"/>
      </g>
     </g>
     <g id="text_15">
      <!-- 0.8 -->
      <g transform="translate(22.1575 113.437939) scale(0.1 -0.1)">
       <defs>
        <path id="ArialMT-38" d="M 1131 2484 
Q 781 2613 612 2850 
Q 444 3088 444 3419 
Q 444 3919 803 4259 
Q 1163 4600 1759 4600 
Q 2359 4600 2725 4251 
Q 3091 3903 3091 3403 
Q 3091 3084 2923 2848 
Q 2756 2613 2416 2484 
Q 2838 2347 3058 2040 
Q 3278 1734 3278 1309 
Q 3278 722 2862 322 
Q 2447 -78 1769 -78 
Q 1091 -78 675 323 
Q 259 725 259 1325 
Q 259 1772 486 2073 
Q 713 2375 1131 2484 
z
M 1019 3438 
Q 1019 3113 1228 2906 
Q 1438 2700 1772 2700 
Q 2097 2700 2305 2904 
Q 2513 3109 2513 3406 
Q 2513 3716 2298 3927 
Q 2084 4138 1766 4138 
Q 1444 4138 1231 3931 
Q 1019 3725 1019 3438 
z
M 838 1322 
Q 838 1081 952 856 
Q 1066 631 1291 507 
Q 1516 384 1775 384 
Q 2178 384 2440 643 
Q 2703 903 2703 1303 
Q 2703 1709 2433 1975 
Q 2163 2241 1756 2241 
Q 1359 2241 1098 1978 
Q 838 1716 838 1322 
z
" transform="scale(0.015625)"/>
       </defs>
       <use xlink:href="#ArialMT-30"/>
       <use xlink:href="#ArialMT-2e" transform="translate(55.615234 0)"/>
       <use xlink:href="#ArialMT-38" transform="translate(83.398438 0)"/>
      </g>
     </g>
    </g>
    <g id="ytick_6">
     <g id="line2d_29">
      <path d="M 43.0575 40.548557 
L 705.7075 40.548557 
" clip-path="url(#pdfa288fb5d)" style="fill: none; stroke-dasharray: 2.96,1.28; stroke-dashoffset: 0; stroke: #b0b0b0; stroke-opacity: 0.5; stroke-width: 0.8"/>
     </g>
     <g id="line2d_30">
      <g>
       <use xlink:href="#m6207a1ec23" x="43.0575" y="40.548557" style="stroke: #000000; stroke-width: 0.8"/>
      </g>
     </g>
     <g id="text_16">
      <!-- 1.0 -->
      <g transform="translate(22.1575 44.127463) scale(0.1 -0.1)">
       <use xlink:href="#ArialMT-31"/>
       <use xlink:href="#ArialMT-2e" transform="translate(55.615234 0)"/>
       <use xlink:href="#ArialMT-30" transform="translate(83.398438 0)"/>
      </g>
     </g>
    </g>
    <g id="text_17">
     <!-- Recall -->
     <g transform="translate(15.789375 222.8375) rotate(-90) scale(0.12 -0.12)">
      <defs>
       <path id="Arial-BoldMT-52" d="M 469 0 
L 469 4581 
L 2416 4581 
Q 3150 4581 3483 4457 
Q 3816 4334 4016 4018 
Q 4216 3703 4216 3297 
Q 4216 2781 3912 2445 
Q 3609 2109 3006 2022 
Q 3306 1847 3501 1637 
Q 3697 1428 4028 894 
L 4588 0 
L 3481 0 
L 2813 997 
Q 2456 1531 2325 1670 
Q 2194 1809 2047 1861 
Q 1900 1913 1581 1913 
L 1394 1913 
L 1394 0 
L 469 0 
z
M 1394 2644 
L 2078 2644 
Q 2744 2644 2909 2700 
Q 3075 2756 3169 2893 
Q 3263 3031 3263 3238 
Q 3263 3469 3139 3611 
Q 3016 3753 2791 3791 
Q 2678 3806 2116 3806 
L 1394 3806 
L 1394 2644 
z
" transform="scale(0.015625)"/>
       <path id="Arial-BoldMT-63" d="M 3353 2338 
L 2488 2181 
Q 2444 2441 2289 2572 
Q 2134 2703 1888 2703 
Q 1559 2703 1364 2476 
Q 1169 2250 1169 1719 
Q 1169 1128 1367 884 
Q 1566 641 1900 641 
Q 2150 641 2309 783 
Q 2469 925 2534 1272 
L 3397 1125 
Q 3263 531 2881 228 
Q 2500 -75 1859 -75 
Q 1131 -75 698 384 
Q 266 844 266 1656 
Q 266 2478 700 2936 
Q 1134 3394 1875 3394 
Q 2481 3394 2839 3133 
Q 3197 2872 3353 2338 
z
" transform="scale(0.015625)"/>
       <path id="Arial-BoldMT-61" d="M 1116 2306 
L 319 2450 
Q 453 2931 781 3162 
Q 1109 3394 1756 3394 
Q 2344 3394 2631 3255 
Q 2919 3116 3036 2902 
Q 3153 2688 3153 2116 
L 3144 1091 
Q 3144 653 3186 445 
Q 3228 238 3344 0 
L 2475 0 
Q 2441 88 2391 259 
Q 2369 338 2359 363 
Q 2134 144 1878 34 
Q 1622 -75 1331 -75 
Q 819 -75 523 203 
Q 228 481 228 906 
Q 228 1188 362 1408 
Q 497 1628 739 1745 
Q 981 1863 1438 1950 
Q 2053 2066 2291 2166 
L 2291 2253 
Q 2291 2506 2166 2614 
Q 2041 2722 1694 2722 
Q 1459 2722 1328 2630 
Q 1197 2538 1116 2306 
z
M 2291 1594 
Q 2122 1538 1756 1459 
Q 1391 1381 1278 1306 
Q 1106 1184 1106 997 
Q 1106 813 1243 678 
Q 1381 544 1594 544 
Q 1831 544 2047 700 
Q 2206 819 2256 991 
Q 2291 1103 2291 1419 
L 2291 1594 
z
" transform="scale(0.015625)"/>
      </defs>
      <use xlink:href="#Arial-BoldMT-52"/>
      <use xlink:href="#Arial-BoldMT-65" transform="translate(72.216797 0)"/>
      <use xlink:href="#Arial-BoldMT-63" transform="translate(127.832031 0)"/>
      <use xlink:href="#Arial-BoldMT-61" transform="translate(183.447266 0)"/>
      <use xlink:href="#Arial-BoldMT-6c" transform="translate(239.0625 0)"/>
      <use xlink:href="#Arial-BoldMT-6c" transform="translate(266.845703 0)"/>
     </g>
    </g>
   </g>
   <g id="line2d_31">
    <path d="M 46.153995 387.100937 
L 49.250491 387.100937 
L 61.636472 351.557104 
L 95.697921 351.557104 
L 98.794416 342.671145 
L 104.987407 342.671145 
L 108.083902 333.785187 
L 154.531332 333.785187 
L 157.627827 324.899228 
L 163.820818 324.899228 
L 170.013808 307.127311 
L 179.303294 307.127311 
L 188.59278 280.469436 
L 194.785771 280.469436 
L 200.978762 262.697519 
L 204.075257 262.697519 
L 207.171752 253.81156 
L 222.654229 253.81156 
L 225.750724 244.925602 
L 228.84722 244.925602 
L 231.943715 236.039643 
L 266.005164 236.039643 
L 269.101659 227.153685 
L 281.48764 227.153685 
L 284.584136 218.267726 
L 287.680631 218.267726 
L 293.873621 200.495809 
L 337.224556 200.495809 
L 340.321051 191.609851 
L 343.417547 191.609851 
L 346.514042 182.723892 
L 374.3825 182.723892 
L 377.478995 173.837934 
L 380.575491 173.837934 
L 383.671986 164.951975 
L 405.347453 164.951975 
L 408.443949 156.066017 
L 445.601893 156.066017 
L 448.698388 147.180058 
L 457.987874 147.180058 
L 461.084369 138.2941 
L 482.759836 138.2941 
L 485.856332 129.408141 
L 532.303762 129.408141 
L 535.400257 120.522183 
L 538.496752 120.522183 
L 541.593248 111.636224 
L 550.882734 111.636224 
L 553.979229 102.750266 
L 575.654696 102.750266 
L 588.040678 67.206432 
L 603.523154 67.206432 
L 606.61965 58.320474 
L 612.81264 58.320474 
L 615.909136 49.434515 
L 640.681098 49.434515 
L 643.777593 40.548557 
L 705.7075 40.548557 
L 705.7075 40.548557 
" clip-path="url(#pdfa288fb5d)" style="fill: none; stroke: #1f77b4; stroke-width: 2; stroke-linecap: square"/>
    <defs>
     <path id="m156018325d" d="M 0 1.5 
C 0.397805 1.5 0.77937 1.341951 1.06066 1.06066 
C 1.341951 0.77937 1.5 0.397805 1.5 0 
C 1.5 -0.397805 1.341951 -0.77937 1.06066 -1.06066 
C 0.77937 -1.341951 0.397805 -1.5 0 -1.5 
C -0.397805 -1.5 -0.77937 -1.341951 -1.06066 -1.06066 
C -1.341951 -0.77937 -1.5 -0.397805 -1.5 0 
C -1.5 0.397805 -1.341951 0.77937 -1.06066 1.06066 
C -0.77937 1.341951 -0.397805 1.5 0 1.5 
z
" style="stroke: #1f77b4"/>
    </defs>
    <g clip-path="url(#pdfa288fb5d)">
     <use xlink:href="#m156018325d" x="46.153995" y="387.100937" style="fill: #1f77b4; stroke: #1f77b4"/>
     <use xlink:href="#m156018325d" x="61.636472" y="351.557104" style="fill: #1f77b4; stroke: #1f77b4"/>
     <use xlink:href="#m156018325d" x="77.118949" y="351.557104" style="fill: #1f77b4; stroke: #1f77b4"/>
     <use xlink:href="#m156018325d" x="92.601425" y="351.557104" style="fill: #1f77b4; stroke: #1f77b4"/>
     <use xlink:href="#m156018325d" x="108.083902" y="333.785187" style="fill: #1f77b4; stroke: #1f77b4"/>
     <use xlink:href="#m156018325d" x="123.566379" y="333.785187" style="fill: #1f77b4; stroke: #1f77b4"/>
     <use xlink:href="#m156018325d" x="139.048855" y="333.785187" style="fill: #1f77b4; stroke: #1f77b4"/>
     <use xlink:href="#m156018325d" x="154.531332" y="333.785187" style="fill: #1f77b4; stroke: #1f77b4"/>
     <use xlink:href="#m156018325d" x="170.013808" y="307.127311" style="fill: #1f77b4; stroke: #1f77b4"/>
     <use xlink:href="#m156018325d" x="185.496285" y="289.355394" style="fill: #1f77b4; stroke: #1f77b4"/>
     <use xlink:href="#m156018325d" x="200.978762" y="262.697519" style="fill: #1f77b4; stroke: #1f77b4"/>
     <use xlink:href="#m156018325d" x="216.461238" y="253.81156" style="fill: #1f77b4; stroke: #1f77b4"/>
     <use xlink:href="#m156018325d" x="231.943715" y="236.039643" style="fill: #1f77b4; stroke: #1f77b4"/>
     <use xlink:href="#m156018325d" x="247.426192" y="236.039643" style="fill: #1f77b4; stroke: #1f77b4"/>
     <use xlink:href="#m156018325d" x="262.908668" y="236.039643" style="fill: #1f77b4; stroke: #1f77b4"/>
     <use xlink:href="#m156018325d" x="278.391145" y="227.153685" style="fill: #1f77b4; stroke: #1f77b4"/>
     <use xlink:href="#m156018325d" x="293.873621" y="200.495809" style="fill: #1f77b4; stroke: #1f77b4"/>
     <use xlink:href="#m156018325d" x="309.356098" y="200.495809" style="fill: #1f77b4; stroke: #1f77b4"/>
     <use xlink:href="#m156018325d" x="324.838575" y="200.495809" style="fill: #1f77b4; stroke: #1f77b4"/>
     <use xlink:href="#m156018325d" x="340.321051" y="191.609851" style="fill: #1f77b4; stroke: #1f77b4"/>
     <use xlink:href="#m156018325d" x="355.803528" y="182.723892" style="fill: #1f77b4; stroke: #1f77b4"/>
     <use xlink:href="#m156018325d" x="371.286005" y="182.723892" style="fill: #1f77b4; stroke: #1f77b4"/>
     <use xlink:href="#m156018325d" x="386.768481" y="164.951975" style="fill: #1f77b4; stroke: #1f77b4"/>
     <use xlink:href="#m156018325d" x="402.250958" y="164.951975" style="fill: #1f77b4; stroke: #1f77b4"/>
     <use xlink:href="#m156018325d" x="417.733435" y="156.066017" style="fill: #1f77b4; stroke: #1f77b4"/>
     <use xlink:href="#m156018325d" x="433.215911" y="156.066017" style="fill: #1f77b4; stroke: #1f77b4"/>
     <use xlink:href="#m156018325d" x="448.698388" y="147.180058" style="fill: #1f77b4; stroke: #1f77b4"/>
     <use xlink:href="#m156018325d" x="464.180864" y="138.2941" style="fill: #1f77b4; stroke: #1f77b4"/>
     <use xlink:href="#m156018325d" x="479.663341" y="138.2941" style="fill: #1f77b4; stroke: #1f77b4"/>
     <use xlink:href="#m156018325d" x="495.145818" y="129.408141" style="fill: #1f77b4; stroke: #1f77b4"/>
     <use xlink:href="#m156018325d" x="510.628294" y="129.408141" style="fill: #1f77b4; stroke: #1f77b4"/>
     <use xlink:href="#m156018325d" x="526.110771" y="129.408141" style="fill: #1f77b4; stroke: #1f77b4"/>
     <use xlink:href="#m156018325d" x="541.593248" y="111.636224" style="fill: #1f77b4; stroke: #1f77b4"/>
     <use xlink:href="#m156018325d" x="557.075724" y="102.750266" style="fill: #1f77b4; stroke: #1f77b4"/>
     <use xlink:href="#m156018325d" x="572.558201" y="102.750266" style="fill: #1f77b4; stroke: #1f77b4"/>
     <use xlink:href="#m156018325d" x="588.040678" y="67.206432" style="fill: #1f77b4; stroke: #1f77b4"/>
     <use xlink:href="#m156018325d" x="603.523154" y="67.206432" style="fill: #1f77b4; stroke: #1f77b4"/>
     <use xlink:href="#m156018325d" x="619.005631" y="49.434515" style="fill: #1f77b4; stroke: #1f77b4"/>
     <use xlink:href="#m156018325d" x="634.488107" y="49.434515" style="fill: #1f77b4; stroke: #1f77b4"/>
     <use xlink:href="#m156018325d" x="649.970584" y="40.548557" style="fill: #1f77b4; stroke: #1f77b4"/>
     <use xlink:href="#m156018325d" x="665.453061" y="40.548557" style="fill: #1f77b4; stroke: #1f77b4"/>
     <use xlink:href="#m156018325d" x="680.935537" y="40.548557" style="fill: #1f77b4; stroke: #1f77b4"/>
     <use xlink:href="#m156018325d" x="696.418014" y="40.548557" style="fill: #1f77b4; stroke: #1f77b4"/>
    </g>
   </g>
   <g id="line2d_32">
    <path d="M 46.153995 378.214979 
L 49.250491 378.214979 
L 58.539977 351.557104 
L 108.083902 351.557104 
L 111.180397 342.671145 
L 123.566379 342.671145 
L 129.759369 324.899228 
L 135.95236 324.899228 
L 139.048855 316.01327 
L 154.531332 316.01327 
L 157.627827 307.127311 
L 163.820818 307.127311 
L 166.917313 298.241353 
L 179.303294 298.241353 
L 182.39979 289.355394 
L 219.557734 289.355394 
L 222.654229 280.469436 
L 231.943715 280.469436 
L 244.329696 244.925602 
L 281.48764 244.925602 
L 290.777126 218.267726 
L 296.970117 218.267726 
L 303.163107 200.495809 
L 306.259603 200.495809 
L 309.356098 191.609851 
L 315.549089 191.609851 
L 321.742079 173.837934 
L 327.93507 173.837934 
L 331.031565 164.951975 
L 355.803528 164.951975 
L 361.996519 147.180058 
L 365.093014 147.180058 
L 368.189509 138.2941 
L 374.3825 138.2941 
L 377.478995 129.408141 
L 420.82993 129.408141 
L 423.926425 120.522183 
L 492.049322 120.522183 
L 495.145818 111.636224 
L 560.17222 111.636224 
L 566.36521 93.864307 
L 653.067079 93.864307 
L 671.646051 40.548557 
L 705.7075 40.548557 
L 705.7075 40.548557 
" clip-path="url(#pdfa288fb5d)" style="fill: none; stroke: #ff7f0e; stroke-width: 2; stroke-linecap: square"/>
    <defs>
     <path id="m50cc2ba8c4" d="M 0 1.5 
C 0.397805 1.5 0.77937 1.341951 1.06066 1.06066 
C 1.341951 0.77937 1.5 0.397805 1.5 0 
C 1.5 -0.397805 1.341951 -0.77937 1.06066 -1.06066 
C 0.77937 -1.341951 0.397805 -1.5 0 -1.5 
C -0.397805 -1.5 -0.77937 -1.341951 -1.06066 -1.06066 
C -1.341951 -0.77937 -1.5 -0.397805 -1.5 0 
C -1.5 0.397805 -1.341951 0.77937 -1.06066 1.06066 
C -0.77937 1.341951 -0.397805 1.5 0 1.5 
z
" style="stroke: #ff7f0e"/>
    </defs>
    <g clip-path="url(#pdfa288fb5d)">
     <use xlink:href="#m50cc2ba8c4" x="46.153995" y="378.214979" style="fill: #ff7f0e; stroke: #ff7f0e"/>
     <use xlink:href="#m50cc2ba8c4" x="61.636472" y="351.557104" style="fill: #ff7f0e; stroke: #ff7f0e"/>
     <use xlink:href="#m50cc2ba8c4" x="77.118949" y="351.557104" style="fill: #ff7f0e; stroke: #ff7f0e"/>
     <use xlink:href="#m50cc2ba8c4" x="92.601425" y="351.557104" style="fill: #ff7f0e; stroke: #ff7f0e"/>
     <use xlink:href="#m50cc2ba8c4" x="108.083902" y="351.557104" style="fill: #ff7f0e; stroke: #ff7f0e"/>
     <use xlink:href="#m50cc2ba8c4" x="123.566379" y="342.671145" style="fill: #ff7f0e; stroke: #ff7f0e"/>
     <use xlink:href="#m50cc2ba8c4" x="139.048855" y="316.01327" style="fill: #ff7f0e; stroke: #ff7f0e"/>
     <use xlink:href="#m50cc2ba8c4" x="154.531332" y="316.01327" style="fill: #ff7f0e; stroke: #ff7f0e"/>
     <use xlink:href="#m50cc2ba8c4" x="170.013808" y="298.241353" style="fill: #ff7f0e; stroke: #ff7f0e"/>
     <use xlink:href="#m50cc2ba8c4" x="185.496285" y="289.355394" style="fill: #ff7f0e; stroke: #ff7f0e"/>
     <use xlink:href="#m50cc2ba8c4" x="200.978762" y="289.355394" style="fill: #ff7f0e; stroke: #ff7f0e"/>
     <use xlink:href="#m50cc2ba8c4" x="216.461238" y="289.355394" style="fill: #ff7f0e; stroke: #ff7f0e"/>
     <use xlink:href="#m50cc2ba8c4" x="231.943715" y="280.469436" style="fill: #ff7f0e; stroke: #ff7f0e"/>
     <use xlink:href="#m50cc2ba8c4" x="247.426192" y="244.925602" style="fill: #ff7f0e; stroke: #ff7f0e"/>
     <use xlink:href="#m50cc2ba8c4" x="262.908668" y="244.925602" style="fill: #ff7f0e; stroke: #ff7f0e"/>
     <use xlink:href="#m50cc2ba8c4" x="278.391145" y="244.925602" style="fill: #ff7f0e; stroke: #ff7f0e"/>
     <use xlink:href="#m50cc2ba8c4" x="293.873621" y="218.267726" style="fill: #ff7f0e; stroke: #ff7f0e"/>
     <use xlink:href="#m50cc2ba8c4" x="309.356098" y="191.609851" style="fill: #ff7f0e; stroke: #ff7f0e"/>
     <use xlink:href="#m50cc2ba8c4" x="324.838575" y="173.837934" style="fill: #ff7f0e; stroke: #ff7f0e"/>
     <use xlink:href="#m50cc2ba8c4" x="340.321051" y="164.951975" style="fill: #ff7f0e; stroke: #ff7f0e"/>
     <use xlink:href="#m50cc2ba8c4" x="355.803528" y="164.951975" style="fill: #ff7f0e; stroke: #ff7f0e"/>
     <use xlink:href="#m50cc2ba8c4" x="371.286005" y="138.2941" style="fill: #ff7f0e; stroke: #ff7f0e"/>
     <use xlink:href="#m50cc2ba8c4" x="386.768481" y="129.408141" style="fill: #ff7f0e; stroke: #ff7f0e"/>
     <use xlink:href="#m50cc2ba8c4" x="402.250958" y="129.408141" style="fill: #ff7f0e; stroke: #ff7f0e"/>
     <use xlink:href="#m50cc2ba8c4" x="417.733435" y="129.408141" style="fill: #ff7f0e; stroke: #ff7f0e"/>
     <use xlink:href="#m50cc2ba8c4" x="433.215911" y="120.522183" style="fill: #ff7f0e; stroke: #ff7f0e"/>
     <use xlink:href="#m50cc2ba8c4" x="448.698388" y="120.522183" style="fill: #ff7f0e; stroke: #ff7f0e"/>
     <use xlink:href="#m50cc2ba8c4" x="464.180864" y="120.522183" style="fill: #ff7f0e; stroke: #ff7f0e"/>
     <use xlink:href="#m50cc2ba8c4" x="479.663341" y="120.522183" style="fill: #ff7f0e; stroke: #ff7f0e"/>
     <use xlink:href="#m50cc2ba8c4" x="495.145818" y="111.636224" style="fill: #ff7f0e; stroke: #ff7f0e"/>
     <use xlink:href="#m50cc2ba8c4" x="510.628294" y="111.636224" style="fill: #ff7f0e; stroke: #ff7f0e"/>
     <use xlink:href="#m50cc2ba8c4" x="526.110771" y="111.636224" style="fill: #ff7f0e; stroke: #ff7f0e"/>
     <use xlink:href="#m50cc2ba8c4" x="541.593248" y="111.636224" style="fill: #ff7f0e; stroke: #ff7f0e"/>
     <use xlink:href="#m50cc2ba8c4" x="557.075724" y="111.636224" style="fill: #ff7f0e; stroke: #ff7f0e"/>
     <use xlink:href="#m50cc2ba8c4" x="572.558201" y="93.864307" style="fill: #ff7f0e; stroke: #ff7f0e"/>
     <use xlink:href="#m50cc2ba8c4" x="588.040678" y="93.864307" style="fill: #ff7f0e; stroke: #ff7f0e"/>
     <use xlink:href="#m50cc2ba8c4" x="603.523154" y="93.864307" style="fill: #ff7f0e; stroke: #ff7f0e"/>
     <use xlink:href="#m50cc2ba8c4" x="619.005631" y="93.864307" style="fill: #ff7f0e; stroke: #ff7f0e"/>
     <use xlink:href="#m50cc2ba8c4" x="634.488107" y="93.864307" style="fill: #ff7f0e; stroke: #ff7f0e"/>
     <use xlink:href="#m50cc2ba8c4" x="649.970584" y="93.864307" style="fill: #ff7f0e; stroke: #ff7f0e"/>
     <use xlink:href="#m50cc2ba8c4" x="665.453061" y="58.320474" style="fill: #ff7f0e; stroke: #ff7f0e"/>
     <use xlink:href="#m50cc2ba8c4" x="680.935537" y="40.548557" style="fill: #ff7f0e; stroke: #ff7f0e"/>
     <use xlink:href="#m50cc2ba8c4" x="696.418014" y="40.548557" style="fill: #ff7f0e; stroke: #ff7f0e"/>
    </g>
   </g>
   <g id="line2d_33">
    <path d="M 46.153995 387.100937 
L 55.443481 360.443062 
L 64.732967 360.443062 
L 70.925958 342.671145 
L 74.022453 342.671145 
L 77.118949 333.785187 
L 80.215444 333.785187 
L 86.408435 316.01327 
L 92.601425 316.01327 
L 104.987407 280.469436 
L 120.469883 280.469436 
L 123.566379 271.583477 
L 132.855864 271.583477 
L 135.95236 262.697519 
L 142.14535 262.697519 
L 145.241846 253.81156 
L 148.338341 253.81156 
L 151.434836 244.925602 
L 154.531332 244.925602 
L 163.820818 218.267726 
L 173.110304 218.267726 
L 176.206799 209.381768 
L 185.496285 209.381768 
L 188.59278 200.495809 
L 207.171752 200.495809 
L 213.364743 182.723892 
L 225.750724 182.723892 
L 231.943715 164.951975 
L 272.198154 164.951975 
L 275.29465 156.066017 
L 278.391145 156.066017 
L 281.48764 147.180058 
L 300.066612 147.180058 
L 303.163107 138.2941 
L 324.838575 138.2941 
L 327.93507 129.408141 
L 331.031565 129.408141 
L 334.128061 120.522183 
L 337.224556 120.522183 
L 340.321051 111.636224 
L 346.514042 111.636224 
L 349.610537 102.750266 
L 361.996519 102.750266 
L 365.093014 93.864307 
L 380.575491 93.864307 
L 383.671986 84.978349 
L 420.82993 84.978349 
L 423.926425 76.09239 
L 427.022921 76.09239 
L 430.119416 67.206432 
L 445.601893 67.206432 
L 448.698388 58.320474 
L 510.628294 58.320474 
L 513.72479 49.434515 
L 566.36521 49.434515 
L 569.461706 40.548557 
L 705.7075 40.548557 
L 705.7075 40.548557 
" clip-path="url(#pdfa288fb5d)" style="fill: none; stroke: #2ca02c; stroke-width: 2; stroke-linecap: square"/>
    <defs>
     <path id="mf27a50742b" d="M 0 1.5 
C 0.397805 1.5 0.77937 1.341951 1.06066 1.06066 
C 1.341951 0.77937 1.5 0.397805 1.5 0 
C 1.5 -0.397805 1.341951 -0.77937 1.06066 -1.06066 
C 0.77937 -1.341951 0.397805 -1.5 0 -1.5 
C -0.397805 -1.5 -0.77937 -1.341951 -1.06066 -1.06066 
C -1.341951 -0.77937 -1.5 -0.397805 -1.5 0 
C -1.5 0.397805 -1.341951 0.77937 -1.06066 1.06066 
C -0.77937 1.341951 -0.397805 1.5 0 1.5 
z
" style="stroke: #2ca02c"/>
    </defs>
    <g clip-path="url(#pdfa288fb5d)">
     <use xlink:href="#mf27a50742b" x="46.153995" y="387.100937" style="fill: #2ca02c; stroke: #2ca02c"/>
     <use xlink:href="#mf27a50742b" x="61.636472" y="360.443062" style="fill: #2ca02c; stroke: #2ca02c"/>
     <use xlink:href="#mf27a50742b" x="77.118949" y="333.785187" style="fill: #2ca02c; stroke: #2ca02c"/>
     <use xlink:href="#mf27a50742b" x="92.601425" y="316.01327" style="fill: #2ca02c; stroke: #2ca02c"/>
     <use xlink:href="#mf27a50742b" x="108.083902" y="280.469436" style="fill: #2ca02c; stroke: #2ca02c"/>
     <use xlink:href="#mf27a50742b" x="123.566379" y="271.583477" style="fill: #2ca02c; stroke: #2ca02c"/>
     <use xlink:href="#mf27a50742b" x="139.048855" y="262.697519" style="fill: #2ca02c; stroke: #2ca02c"/>
     <use xlink:href="#mf27a50742b" x="154.531332" y="244.925602" style="fill: #2ca02c; stroke: #2ca02c"/>
     <use xlink:href="#mf27a50742b" x="170.013808" y="218.267726" style="fill: #2ca02c; stroke: #2ca02c"/>
     <use xlink:href="#mf27a50742b" x="185.496285" y="209.381768" style="fill: #2ca02c; stroke: #2ca02c"/>
     <use xlink:href="#mf27a50742b" x="200.978762" y="200.495809" style="fill: #2ca02c; stroke: #2ca02c"/>
     <use xlink:href="#mf27a50742b" x="216.461238" y="182.723892" style="fill: #2ca02c; stroke: #2ca02c"/>
     <use xlink:href="#mf27a50742b" x="231.943715" y="164.951975" style="fill: #2ca02c; stroke: #2ca02c"/>
     <use xlink:href="#mf27a50742b" x="247.426192" y="164.951975" style="fill: #2ca02c; stroke: #2ca02c"/>
     <use xlink:href="#mf27a50742b" x="262.908668" y="164.951975" style="fill: #2ca02c; stroke: #2ca02c"/>
     <use xlink:href="#mf27a50742b" x="278.391145" y="156.066017" style="fill: #2ca02c; stroke: #2ca02c"/>
     <use xlink:href="#mf27a50742b" x="293.873621" y="147.180058" style="fill: #2ca02c; stroke: #2ca02c"/>
     <use xlink:href="#mf27a50742b" x="309.356098" y="138.2941" style="fill: #2ca02c; stroke: #2ca02c"/>
     <use xlink:href="#mf27a50742b" x="324.838575" y="138.2941" style="fill: #2ca02c; stroke: #2ca02c"/>
     <use xlink:href="#mf27a50742b" x="340.321051" y="111.636224" style="fill: #2ca02c; stroke: #2ca02c"/>
     <use xlink:href="#mf27a50742b" x="355.803528" y="102.750266" style="fill: #2ca02c; stroke: #2ca02c"/>
     <use xlink:href="#mf27a50742b" x="371.286005" y="93.864307" style="fill: #2ca02c; stroke: #2ca02c"/>
     <use xlink:href="#mf27a50742b" x="386.768481" y="84.978349" style="fill: #2ca02c; stroke: #2ca02c"/>
     <use xlink:href="#mf27a50742b" x="402.250958" y="84.978349" style="fill: #2ca02c; stroke: #2ca02c"/>
     <use xlink:href="#mf27a50742b" x="417.733435" y="84.978349" style="fill: #2ca02c; stroke: #2ca02c"/>
     <use xlink:href="#mf27a50742b" x="433.215911" y="67.206432" style="fill: #2ca02c; stroke: #2ca02c"/>
     <use xlink:href="#mf27a50742b" x="448.698388" y="58.320474" style="fill: #2ca02c; stroke: #2ca02c"/>
     <use xlink:href="#mf27a50742b" x="464.180864" y="58.320474" style="fill: #2ca02c; stroke: #2ca02c"/>
     <use xlink:href="#mf27a50742b" x="479.663341" y="58.320474" style="fill: #2ca02c; stroke: #2ca02c"/>
     <use xlink:href="#mf27a50742b" x="495.145818" y="58.320474" style="fill: #2ca02c; stroke: #2ca02c"/>
     <use xlink:href="#mf27a50742b" x="510.628294" y="58.320474" style="fill: #2ca02c; stroke: #2ca02c"/>
     <use xlink:href="#mf27a50742b" x="526.110771" y="49.434515" style="fill: #2ca02c; stroke: #2ca02c"/>
     <use xlink:href="#mf27a50742b" x="541.593248" y="49.434515" style="fill: #2ca02c; stroke: #2ca02c"/>
     <use xlink:href="#mf27a50742b" x="557.075724" y="49.434515" style="fill: #2ca02c; stroke: #2ca02c"/>
     <use xlink:href="#mf27a50742b" x="572.558201" y="40.548557" style="fill: #2ca02c; stroke: #2ca02c"/>
     <use xlink:href="#mf27a50742b" x="588.040678" y="40.548557" style="fill: #2ca02c; stroke: #2ca02c"/>
     <use xlink:href="#mf27a50742b" x="603.523154" y="40.548557" style="fill: #2ca02c; stroke: #2ca02c"/>
     <use xlink:href="#mf27a50742b" x="619.005631" y="40.548557" style="fill: #2ca02c; stroke: #2ca02c"/>
     <use xlink:href="#mf27a50742b" x="634.488107" y="40.548557" style="fill: #2ca02c; stroke: #2ca02c"/>
     <use xlink:href="#mf27a50742b" x="649.970584" y="40.548557" style="fill: #2ca02c; stroke: #2ca02c"/>
     <use xlink:href="#mf27a50742b" x="665.453061" y="40.548557" style="fill: #2ca02c; stroke: #2ca02c"/>
     <use xlink:href="#mf27a50742b" x="680.935537" y="40.548557" style="fill: #2ca02c; stroke: #2ca02c"/>
     <use xlink:href="#mf27a50742b" x="696.418014" y="40.548557" style="fill: #2ca02c; stroke: #2ca02c"/>
    </g>
   </g>
   <g id="line2d_34">
    <path d="M 46.153995 378.214979 
L 49.250491 378.214979 
L 55.443481 360.443062 
L 114.276893 360.443062 
L 117.373388 351.557104 
L 228.84722 351.557104 
L 238.136706 324.899228 
L 290.777126 324.899228 
L 296.970117 307.127311 
L 300.066612 307.127311 
L 306.259603 289.355394 
L 309.356098 289.355394 
L 318.645584 262.697519 
L 358.900023 262.697519 
L 377.478995 209.381768 
L 380.575491 209.381768 
L 383.671986 200.495809 
L 386.768481 200.495809 
L 389.864977 191.609851 
L 392.961472 191.609851 
L 396.057967 182.723892 
L 402.250958 182.723892 
L 405.347453 173.837934 
L 433.215911 173.837934 
L 436.312407 164.951975 
L 454.891379 164.951975 
L 457.987874 156.066017 
L 467.27736 156.066017 
L 473.47035 138.2941 
L 476.566846 138.2941 
L 479.663341 129.408141 
L 485.856332 129.408141 
L 488.952827 120.522183 
L 510.628294 120.522183 
L 513.72479 111.636224 
L 575.654696 111.636224 
L 581.847687 93.864307 
L 615.909136 93.864307 
L 619.005631 84.978349 
L 622.102126 84.978349 
L 625.198621 76.09239 
L 665.453061 76.09239 
L 668.549556 67.206432 
L 674.742547 67.206432 
L 684.032033 40.548557 
L 705.7075 40.548557 
L 705.7075 40.548557 
" clip-path="url(#pdfa288fb5d)" style="fill: none; stroke: #9467bd; stroke-width: 2; stroke-linecap: square"/>
    <defs>
     <path id="m57b99c8aae" d="M 0 1.5 
C 0.397805 1.5 0.77937 1.341951 1.06066 1.06066 
C 1.341951 0.77937 1.5 0.397805 1.5 0 
C 1.5 -0.397805 1.341951 -0.77937 1.06066 -1.06066 
C 0.77937 -1.341951 0.397805 -1.5 0 -1.5 
C -0.397805 -1.5 -0.77937 -1.341951 -1.06066 -1.06066 
C -1.341951 -0.77937 -1.5 -0.397805 -1.5 0 
C -1.5 0.397805 -1.341951 0.77937 -1.06066 1.06066 
C -0.77937 1.341951 -0.397805 1.5 0 1.5 
z
" style="stroke: #9467bd"/>
    </defs>
    <g clip-path="url(#pdfa288fb5d)">
     <use xlink:href="#m57b99c8aae" x="46.153995" y="378.214979" style="fill: #9467bd; stroke: #9467bd"/>
     <use xlink:href="#m57b99c8aae" x="61.636472" y="360.443062" style="fill: #9467bd; stroke: #9467bd"/>
     <use xlink:href="#m57b99c8aae" x="77.118949" y="360.443062" style="fill: #9467bd; stroke: #9467bd"/>
     <use xlink:href="#m57b99c8aae" x="92.601425" y="360.443062" style="fill: #9467bd; stroke: #9467bd"/>
     <use xlink:href="#m57b99c8aae" x="108.083902" y="360.443062" style="fill: #9467bd; stroke: #9467bd"/>
     <use xlink:href="#m57b99c8aae" x="123.566379" y="351.557104" style="fill: #9467bd; stroke: #9467bd"/>
     <use xlink:href="#m57b99c8aae" x="139.048855" y="351.557104" style="fill: #9467bd; stroke: #9467bd"/>
     <use xlink:href="#m57b99c8aae" x="154.531332" y="351.557104" style="fill: #9467bd; stroke: #9467bd"/>
     <use xlink:href="#m57b99c8aae" x="170.013808" y="351.557104" style="fill: #9467bd; stroke: #9467bd"/>
     <use xlink:href="#m57b99c8aae" x="185.496285" y="351.557104" style="fill: #9467bd; stroke: #9467bd"/>
     <use xlink:href="#m57b99c8aae" x="200.978762" y="351.557104" style="fill: #9467bd; stroke: #9467bd"/>
     <use xlink:href="#m57b99c8aae" x="216.461238" y="351.557104" style="fill: #9467bd; stroke: #9467bd"/>
     <use xlink:href="#m57b99c8aae" x="231.943715" y="342.671145" style="fill: #9467bd; stroke: #9467bd"/>
     <use xlink:href="#m57b99c8aae" x="247.426192" y="324.899228" style="fill: #9467bd; stroke: #9467bd"/>
     <use xlink:href="#m57b99c8aae" x="262.908668" y="324.899228" style="fill: #9467bd; stroke: #9467bd"/>
     <use xlink:href="#m57b99c8aae" x="278.391145" y="324.899228" style="fill: #9467bd; stroke: #9467bd"/>
     <use xlink:href="#m57b99c8aae" x="293.873621" y="316.01327" style="fill: #9467bd; stroke: #9467bd"/>
     <use xlink:href="#m57b99c8aae" x="309.356098" y="289.355394" style="fill: #9467bd; stroke: #9467bd"/>
     <use xlink:href="#m57b99c8aae" x="324.838575" y="262.697519" style="fill: #9467bd; stroke: #9467bd"/>
     <use xlink:href="#m57b99c8aae" x="340.321051" y="262.697519" style="fill: #9467bd; stroke: #9467bd"/>
     <use xlink:href="#m57b99c8aae" x="355.803528" y="262.697519" style="fill: #9467bd; stroke: #9467bd"/>
     <use xlink:href="#m57b99c8aae" x="371.286005" y="227.153685" style="fill: #9467bd; stroke: #9467bd"/>
     <use xlink:href="#m57b99c8aae" x="386.768481" y="200.495809" style="fill: #9467bd; stroke: #9467bd"/>
     <use xlink:href="#m57b99c8aae" x="402.250958" y="182.723892" style="fill: #9467bd; stroke: #9467bd"/>
     <use xlink:href="#m57b99c8aae" x="417.733435" y="173.837934" style="fill: #9467bd; stroke: #9467bd"/>
     <use xlink:href="#m57b99c8aae" x="433.215911" y="173.837934" style="fill: #9467bd; stroke: #9467bd"/>
     <use xlink:href="#m57b99c8aae" x="448.698388" y="164.951975" style="fill: #9467bd; stroke: #9467bd"/>
     <use xlink:href="#m57b99c8aae" x="464.180864" y="156.066017" style="fill: #9467bd; stroke: #9467bd"/>
     <use xlink:href="#m57b99c8aae" x="479.663341" y="129.408141" style="fill: #9467bd; stroke: #9467bd"/>
     <use xlink:href="#m57b99c8aae" x="495.145818" y="120.522183" style="fill: #9467bd; stroke: #9467bd"/>
     <use xlink:href="#m57b99c8aae" x="510.628294" y="120.522183" style="fill: #9467bd; stroke: #9467bd"/>
     <use xlink:href="#m57b99c8aae" x="526.110771" y="111.636224" style="fill: #9467bd; stroke: #9467bd"/>
     <use xlink:href="#m57b99c8aae" x="541.593248" y="111.636224" style="fill: #9467bd; stroke: #9467bd"/>
     <use xlink:href="#m57b99c8aae" x="557.075724" y="111.636224" style="fill: #9467bd; stroke: #9467bd"/>
     <use xlink:href="#m57b99c8aae" x="572.558201" y="111.636224" style="fill: #9467bd; stroke: #9467bd"/>
     <use xlink:href="#m57b99c8aae" x="588.040678" y="93.864307" style="fill: #9467bd; stroke: #9467bd"/>
     <use xlink:href="#m57b99c8aae" x="603.523154" y="93.864307" style="fill: #9467bd; stroke: #9467bd"/>
     <use xlink:href="#m57b99c8aae" x="619.005631" y="84.978349" style="fill: #9467bd; stroke: #9467bd"/>
     <use xlink:href="#m57b99c8aae" x="634.488107" y="76.09239" style="fill: #9467bd; stroke: #9467bd"/>
     <use xlink:href="#m57b99c8aae" x="649.970584" y="76.09239" style="fill: #9467bd; stroke: #9467bd"/>
     <use xlink:href="#m57b99c8aae" x="665.453061" y="76.09239" style="fill: #9467bd; stroke: #9467bd"/>
     <use xlink:href="#m57b99c8aae" x="680.935537" y="49.434515" style="fill: #9467bd; stroke: #9467bd"/>
     <use xlink:href="#m57b99c8aae" x="696.418014" y="40.548557" style="fill: #9467bd; stroke: #9467bd"/>
    </g>
   </g>
   <g id="line2d_35">
    <path d="M 46.153995 378.214979 
L 58.539977 378.214979 
L 61.636472 369.329021 
L 80.215444 369.329021 
L 83.311939 360.443062 
L 98.794416 360.443062 
L 101.890911 351.557104 
L 117.373388 351.557104 
L 120.469883 342.671145 
L 182.39979 342.671145 
L 185.496285 333.785187 
L 253.619182 333.785187 
L 256.715678 324.899228 
L 272.198154 324.899228 
L 275.29465 316.01327 
L 365.093014 316.01327 
L 368.189509 307.127311 
L 380.575491 307.127311 
L 383.671986 298.241353 
L 389.864977 298.241353 
L 396.057967 280.469436 
L 402.250958 280.469436 
L 405.347453 271.583477 
L 414.636939 271.583477 
L 417.733435 262.697519 
L 439.408902 262.697519 
L 442.505397 253.81156 
L 451.794883 253.81156 
L 454.891379 244.925602 
L 457.987874 244.925602 
L 461.084369 236.039643 
L 523.014276 236.039643 
L 526.110771 227.153685 
L 538.496752 227.153685 
L 541.593248 218.267726 
L 563.268715 218.267726 
L 566.36521 209.381768 
L 569.461706 209.381768 
L 572.558201 200.495809 
L 597.330164 200.495809 
L 600.426659 191.609851 
L 603.523154 191.609851 
L 606.61965 182.723892 
L 619.005631 182.723892 
L 622.102126 173.837934 
L 625.198621 173.837934 
L 634.488107 147.180058 
L 637.584603 147.180058 
L 643.777593 129.408141 
L 646.874089 129.408141 
L 656.163575 102.750266 
L 659.26007 102.750266 
L 671.646051 67.206432 
L 687.128528 67.206432 
L 693.321519 49.434515 
L 702.611005 49.434515 
L 705.7075 40.548557 
L 705.7075 40.548557 
" clip-path="url(#pdfa288fb5d)" style="fill: none; stroke: #8c564b; stroke-width: 2; stroke-linecap: square"/>
    <defs>
     <path id="ma935359d10" d="M 0 1.5 
C 0.397805 1.5 0.77937 1.341951 1.06066 1.06066 
C 1.341951 0.77937 1.5 0.397805 1.5 0 
C 1.5 -0.397805 1.341951 -0.77937 1.06066 -1.06066 
C 0.77937 -1.341951 0.397805 -1.5 0 -1.5 
C -0.397805 -1.5 -0.77937 -1.341951 -1.06066 -1.06066 
C -1.341951 -0.77937 -1.5 -0.397805 -1.5 0 
C -1.5 0.397805 -1.341951 0.77937 -1.06066 1.06066 
C -0.77937 1.341951 -0.397805 1.5 0 1.5 
z
" style="stroke: #8c564b"/>
    </defs>
    <g clip-path="url(#pdfa288fb5d)">
     <use xlink:href="#ma935359d10" x="46.153995" y="378.214979" style="fill: #8c564b; stroke: #8c564b"/>
     <use xlink:href="#ma935359d10" x="61.636472" y="369.329021" style="fill: #8c564b; stroke: #8c564b"/>
     <use xlink:href="#ma935359d10" x="77.118949" y="369.329021" style="fill: #8c564b; stroke: #8c564b"/>
     <use xlink:href="#ma935359d10" x="92.601425" y="360.443062" style="fill: #8c564b; stroke: #8c564b"/>
     <use xlink:href="#ma935359d10" x="108.083902" y="351.557104" style="fill: #8c564b; stroke: #8c564b"/>
     <use xlink:href="#ma935359d10" x="123.566379" y="342.671145" style="fill: #8c564b; stroke: #8c564b"/>
     <use xlink:href="#ma935359d10" x="139.048855" y="342.671145" style="fill: #8c564b; stroke: #8c564b"/>
     <use xlink:href="#ma935359d10" x="154.531332" y="342.671145" style="fill: #8c564b; stroke: #8c564b"/>
     <use xlink:href="#ma935359d10" x="170.013808" y="342.671145" style="fill: #8c564b; stroke: #8c564b"/>
     <use xlink:href="#ma935359d10" x="185.496285" y="333.785187" style="fill: #8c564b; stroke: #8c564b"/>
     <use xlink:href="#ma935359d10" x="200.978762" y="333.785187" style="fill: #8c564b; stroke: #8c564b"/>
     <use xlink:href="#ma935359d10" x="216.461238" y="333.785187" style="fill: #8c564b; stroke: #8c564b"/>
     <use xlink:href="#ma935359d10" x="231.943715" y="333.785187" style="fill: #8c564b; stroke: #8c564b"/>
     <use xlink:href="#ma935359d10" x="247.426192" y="333.785187" style="fill: #8c564b; stroke: #8c564b"/>
     <use xlink:href="#ma935359d10" x="262.908668" y="324.899228" style="fill: #8c564b; stroke: #8c564b"/>
     <use xlink:href="#ma935359d10" x="278.391145" y="316.01327" style="fill: #8c564b; stroke: #8c564b"/>
     <use xlink:href="#ma935359d10" x="293.873621" y="316.01327" style="fill: #8c564b; stroke: #8c564b"/>
     <use xlink:href="#ma935359d10" x="309.356098" y="316.01327" style="fill: #8c564b; stroke: #8c564b"/>
     <use xlink:href="#ma935359d10" x="324.838575" y="316.01327" style="fill: #8c564b; stroke: #8c564b"/>
     <use xlink:href="#ma935359d10" x="340.321051" y="316.01327" style="fill: #8c564b; stroke: #8c564b"/>
     <use xlink:href="#ma935359d10" x="355.803528" y="316.01327" style="fill: #8c564b; stroke: #8c564b"/>
     <use xlink:href="#ma935359d10" x="371.286005" y="307.127311" style="fill: #8c564b; stroke: #8c564b"/>
     <use xlink:href="#ma935359d10" x="386.768481" y="298.241353" style="fill: #8c564b; stroke: #8c564b"/>
     <use xlink:href="#ma935359d10" x="402.250958" y="280.469436" style="fill: #8c564b; stroke: #8c564b"/>
     <use xlink:href="#ma935359d10" x="417.733435" y="262.697519" style="fill: #8c564b; stroke: #8c564b"/>
     <use xlink:href="#ma935359d10" x="433.215911" y="262.697519" style="fill: #8c564b; stroke: #8c564b"/>
     <use xlink:href="#ma935359d10" x="448.698388" y="253.81156" style="fill: #8c564b; stroke: #8c564b"/>
     <use xlink:href="#ma935359d10" x="464.180864" y="236.039643" style="fill: #8c564b; stroke: #8c564b"/>
     <use xlink:href="#ma935359d10" x="479.663341" y="236.039643" style="fill: #8c564b; stroke: #8c564b"/>
     <use xlink:href="#ma935359d10" x="495.145818" y="236.039643" style="fill: #8c564b; stroke: #8c564b"/>
     <use xlink:href="#ma935359d10" x="510.628294" y="236.039643" style="fill: #8c564b; stroke: #8c564b"/>
     <use xlink:href="#ma935359d10" x="526.110771" y="227.153685" style="fill: #8c564b; stroke: #8c564b"/>
     <use xlink:href="#ma935359d10" x="541.593248" y="218.267726" style="fill: #8c564b; stroke: #8c564b"/>
     <use xlink:href="#ma935359d10" x="557.075724" y="218.267726" style="fill: #8c564b; stroke: #8c564b"/>
     <use xlink:href="#ma935359d10" x="572.558201" y="200.495809" style="fill: #8c564b; stroke: #8c564b"/>
     <use xlink:href="#ma935359d10" x="588.040678" y="200.495809" style="fill: #8c564b; stroke: #8c564b"/>
     <use xlink:href="#ma935359d10" x="603.523154" y="191.609851" style="fill: #8c564b; stroke: #8c564b"/>
     <use xlink:href="#ma935359d10" x="619.005631" y="182.723892" style="fill: #8c564b; stroke: #8c564b"/>
     <use xlink:href="#ma935359d10" x="634.488107" y="147.180058" style="fill: #8c564b; stroke: #8c564b"/>
     <use xlink:href="#ma935359d10" x="649.970584" y="120.522183" style="fill: #8c564b; stroke: #8c564b"/>
     <use xlink:href="#ma935359d10" x="665.453061" y="84.978349" style="fill: #8c564b; stroke: #8c564b"/>
     <use xlink:href="#ma935359d10" x="680.935537" y="67.206432" style="fill: #8c564b; stroke: #8c564b"/>
     <use xlink:href="#ma935359d10" x="696.418014" y="49.434515" style="fill: #8c564b; stroke: #8c564b"/>
    </g>
   </g>
   <g id="line2d_36">
    <path d="M 46.153995 378.214979 
L 49.250491 369.329021 
L 55.443481 369.329021 
L 61.636472 351.557104 
L 89.50493 351.557104 
L 92.601425 342.671145 
L 98.794416 342.671145 
L 101.890911 333.785187 
L 104.987407 333.785187 
L 123.566379 280.469436 
L 126.662874 280.469436 
L 129.759369 271.583477 
L 132.855864 271.583477 
L 139.048855 253.81156 
L 145.241846 253.81156 
L 151.434836 236.039643 
L 157.627827 236.039643 
L 160.724322 227.153685 
L 179.303294 227.153685 
L 182.39979 218.267726 
L 194.785771 218.267726 
L 197.882266 209.381768 
L 216.461238 209.381768 
L 219.557734 200.495809 
L 222.654229 200.495809 
L 228.84722 182.723892 
L 238.136706 182.723892 
L 241.233201 173.837934 
L 244.329696 173.837934 
L 247.426192 164.951975 
L 256.715678 164.951975 
L 262.908668 147.180058 
L 371.286005 147.180058 
L 377.478995 129.408141 
L 402.250958 129.408141 
L 405.347453 120.522183 
L 467.27736 120.522183 
L 473.47035 102.750266 
L 488.952827 102.750266 
L 495.145818 84.978349 
L 541.593248 84.978349 
L 547.786238 67.206432 
L 563.268715 67.206432 
L 569.461706 49.434515 
L 597.330164 49.434515 
L 600.426659 40.548557 
L 705.7075 40.548557 
L 705.7075 40.548557 
" clip-path="url(#pdfa288fb5d)" style="fill: none; stroke: #e377c2; stroke-width: 2; stroke-linecap: square"/>
    <defs>
     <path id="mf37157f327" d="M 0 1.5 
C 0.397805 1.5 0.77937 1.341951 1.06066 1.06066 
C 1.341951 0.77937 1.5 0.397805 1.5 0 
C 1.5 -0.397805 1.341951 -0.77937 1.06066 -1.06066 
C 0.77937 -1.341951 0.397805 -1.5 0 -1.5 
C -0.397805 -1.5 -0.77937 -1.341951 -1.06066 -1.06066 
C -1.341951 -0.77937 -1.5 -0.397805 -1.5 0 
C -1.5 0.397805 -1.341951 0.77937 -1.06066 1.06066 
C -0.77937 1.341951 -0.397805 1.5 0 1.5 
z
" style="stroke: #e377c2"/>
    </defs>
    <g clip-path="url(#pdfa288fb5d)">
     <use xlink:href="#mf37157f327" x="46.153995" y="378.214979" style="fill: #e377c2; stroke: #e377c2"/>
     <use xlink:href="#mf37157f327" x="61.636472" y="351.557104" style="fill: #e377c2; stroke: #e377c2"/>
     <use xlink:href="#mf37157f327" x="77.118949" y="351.557104" style="fill: #e377c2; stroke: #e377c2"/>
     <use xlink:href="#mf37157f327" x="92.601425" y="342.671145" style="fill: #e377c2; stroke: #e377c2"/>
     <use xlink:href="#mf37157f327" x="108.083902" y="324.899228" style="fill: #e377c2; stroke: #e377c2"/>
     <use xlink:href="#mf37157f327" x="123.566379" y="280.469436" style="fill: #e377c2; stroke: #e377c2"/>
     <use xlink:href="#mf37157f327" x="139.048855" y="253.81156" style="fill: #e377c2; stroke: #e377c2"/>
     <use xlink:href="#mf37157f327" x="154.531332" y="236.039643" style="fill: #e377c2; stroke: #e377c2"/>
     <use xlink:href="#mf37157f327" x="170.013808" y="227.153685" style="fill: #e377c2; stroke: #e377c2"/>
     <use xlink:href="#mf37157f327" x="185.496285" y="218.267726" style="fill: #e377c2; stroke: #e377c2"/>
     <use xlink:href="#mf37157f327" x="200.978762" y="209.381768" style="fill: #e377c2; stroke: #e377c2"/>
     <use xlink:href="#mf37157f327" x="216.461238" y="209.381768" style="fill: #e377c2; stroke: #e377c2"/>
     <use xlink:href="#mf37157f327" x="231.943715" y="182.723892" style="fill: #e377c2; stroke: #e377c2"/>
     <use xlink:href="#mf37157f327" x="247.426192" y="164.951975" style="fill: #e377c2; stroke: #e377c2"/>
     <use xlink:href="#mf37157f327" x="262.908668" y="147.180058" style="fill: #e377c2; stroke: #e377c2"/>
     <use xlink:href="#mf37157f327" x="278.391145" y="147.180058" style="fill: #e377c2; stroke: #e377c2"/>
     <use xlink:href="#mf37157f327" x="293.873621" y="147.180058" style="fill: #e377c2; stroke: #e377c2"/>
     <use xlink:href="#mf37157f327" x="309.356098" y="147.180058" style="fill: #e377c2; stroke: #e377c2"/>
     <use xlink:href="#mf37157f327" x="324.838575" y="147.180058" style="fill: #e377c2; stroke: #e377c2"/>
     <use xlink:href="#mf37157f327" x="340.321051" y="147.180058" style="fill: #e377c2; stroke: #e377c2"/>
     <use xlink:href="#mf37157f327" x="355.803528" y="147.180058" style="fill: #e377c2; stroke: #e377c2"/>
     <use xlink:href="#mf37157f327" x="371.286005" y="147.180058" style="fill: #e377c2; stroke: #e377c2"/>
     <use xlink:href="#mf37157f327" x="386.768481" y="129.408141" style="fill: #e377c2; stroke: #e377c2"/>
     <use xlink:href="#mf37157f327" x="402.250958" y="129.408141" style="fill: #e377c2; stroke: #e377c2"/>
     <use xlink:href="#mf37157f327" x="417.733435" y="120.522183" style="fill: #e377c2; stroke: #e377c2"/>
     <use xlink:href="#mf37157f327" x="433.215911" y="120.522183" style="fill: #e377c2; stroke: #e377c2"/>
     <use xlink:href="#mf37157f327" x="448.698388" y="120.522183" style="fill: #e377c2; stroke: #e377c2"/>
     <use xlink:href="#mf37157f327" x="464.180864" y="120.522183" style="fill: #e377c2; stroke: #e377c2"/>
     <use xlink:href="#mf37157f327" x="479.663341" y="102.750266" style="fill: #e377c2; stroke: #e377c2"/>
     <use xlink:href="#mf37157f327" x="495.145818" y="84.978349" style="fill: #e377c2; stroke: #e377c2"/>
     <use xlink:href="#mf37157f327" x="510.628294" y="84.978349" style="fill: #e377c2; stroke: #e377c2"/>
     <use xlink:href="#mf37157f327" x="526.110771" y="84.978349" style="fill: #e377c2; stroke: #e377c2"/>
     <use xlink:href="#mf37157f327" x="541.593248" y="84.978349" style="fill: #e377c2; stroke: #e377c2"/>
     <use xlink:href="#mf37157f327" x="557.075724" y="67.206432" style="fill: #e377c2; stroke: #e377c2"/>
     <use xlink:href="#mf37157f327" x="572.558201" y="49.434515" style="fill: #e377c2; stroke: #e377c2"/>
     <use xlink:href="#mf37157f327" x="588.040678" y="49.434515" style="fill: #e377c2; stroke: #e377c2"/>
     <use xlink:href="#mf37157f327" x="603.523154" y="40.548557" style="fill: #e377c2; stroke: #e377c2"/>
     <use xlink:href="#mf37157f327" x="619.005631" y="40.548557" style="fill: #e377c2; stroke: #e377c2"/>
     <use xlink:href="#mf37157f327" x="634.488107" y="40.548557" style="fill: #e377c2; stroke: #e377c2"/>
     <use xlink:href="#mf37157f327" x="649.970584" y="40.548557" style="fill: #e377c2; stroke: #e377c2"/>
     <use xlink:href="#mf37157f327" x="665.453061" y="40.548557" style="fill: #e377c2; stroke: #e377c2"/>
     <use xlink:href="#mf37157f327" x="680.935537" y="40.548557" style="fill: #e377c2; stroke: #e377c2"/>
     <use xlink:href="#mf37157f327" x="696.418014" y="40.548557" style="fill: #e377c2; stroke: #e377c2"/>
    </g>
   </g>
   <g id="line2d_37">
    <path d="M 46.153995 387.100937 
L 52.346986 369.329021 
L 58.539977 369.329021 
L 64.732967 351.557104 
L 101.890911 351.557104 
L 104.987407 342.671145 
L 111.180397 342.671145 
L 114.276893 333.785187 
L 123.566379 333.785187 
L 126.662874 324.899228 
L 145.241846 324.899228 
L 148.338341 316.01327 
L 163.820818 316.01327 
L 166.917313 307.127311 
L 170.013808 307.127311 
L 173.110304 298.241353 
L 191.689276 298.241353 
L 197.882266 280.469436 
L 200.978762 280.469436 
L 204.075257 271.583477 
L 219.557734 271.583477 
L 225.750724 253.81156 
L 235.04021 253.81156 
L 238.136706 244.925602 
L 241.233201 244.925602 
L 244.329696 236.039643 
L 262.908668 236.039643 
L 266.005164 227.153685 
L 269.101659 227.153685 
L 272.198154 218.267726 
L 275.29465 218.267726 
L 278.391145 209.381768 
L 296.970117 209.381768 
L 300.066612 200.495809 
L 327.93507 200.495809 
L 331.031565 191.609851 
L 361.996519 191.609851 
L 365.093014 182.723892 
L 392.961472 182.723892 
L 396.057967 173.837934 
L 411.540444 173.837934 
L 414.636939 164.951975 
L 417.733435 164.951975 
L 420.82993 156.066017 
L 433.215911 156.066017 
L 436.312407 147.180058 
L 439.408902 147.180058 
L 442.505397 138.2941 
L 461.084369 138.2941 
L 464.180864 129.408141 
L 473.47035 129.408141 
L 476.566846 120.522183 
L 544.689743 120.522183 
L 547.786238 111.636224 
L 566.36521 111.636224 
L 569.461706 102.750266 
L 584.944182 102.750266 
L 588.040678 93.864307 
L 628.295117 93.864307 
L 631.391612 84.978349 
L 649.970584 84.978349 
L 656.163575 67.206432 
L 680.935537 67.206432 
L 687.128528 49.434515 
L 696.418014 49.434515 
L 699.514509 40.548557 
L 705.7075 40.548557 
L 705.7075 40.548557 
" clip-path="url(#pdfa288fb5d)" style="fill: none; stroke: #17becf; stroke-width: 2; stroke-linecap: square"/>
    <defs>
     <path id="m65b8be7a73" d="M 0 1.5 
C 0.397805 1.5 0.77937 1.341951 1.06066 1.06066 
C 1.341951 0.77937 1.5 0.397805 1.5 0 
C 1.5 -0.397805 1.341951 -0.77937 1.06066 -1.06066 
C 0.77937 -1.341951 0.397805 -1.5 0 -1.5 
C -0.397805 -1.5 -0.77937 -1.341951 -1.06066 -1.06066 
C -1.341951 -0.77937 -1.5 -0.397805 -1.5 0 
C -1.5 0.397805 -1.341951 0.77937 -1.06066 1.06066 
C -0.77937 1.341951 -0.397805 1.5 0 1.5 
z
" style="stroke: #17becf"/>
    </defs>
    <g clip-path="url(#pdfa288fb5d)">
     <use xlink:href="#m65b8be7a73" x="46.153995" y="387.100937" style="fill: #17becf; stroke: #17becf"/>
     <use xlink:href="#m65b8be7a73" x="61.636472" y="360.443062" style="fill: #17becf; stroke: #17becf"/>
     <use xlink:href="#m65b8be7a73" x="77.118949" y="351.557104" style="fill: #17becf; stroke: #17becf"/>
     <use xlink:href="#m65b8be7a73" x="92.601425" y="351.557104" style="fill: #17becf; stroke: #17becf"/>
     <use xlink:href="#m65b8be7a73" x="108.083902" y="342.671145" style="fill: #17becf; stroke: #17becf"/>
     <use xlink:href="#m65b8be7a73" x="123.566379" y="333.785187" style="fill: #17becf; stroke: #17becf"/>
     <use xlink:href="#m65b8be7a73" x="139.048855" y="324.899228" style="fill: #17becf; stroke: #17becf"/>
     <use xlink:href="#m65b8be7a73" x="154.531332" y="316.01327" style="fill: #17becf; stroke: #17becf"/>
     <use xlink:href="#m65b8be7a73" x="170.013808" y="307.127311" style="fill: #17becf; stroke: #17becf"/>
     <use xlink:href="#m65b8be7a73" x="185.496285" y="298.241353" style="fill: #17becf; stroke: #17becf"/>
     <use xlink:href="#m65b8be7a73" x="200.978762" y="280.469436" style="fill: #17becf; stroke: #17becf"/>
     <use xlink:href="#m65b8be7a73" x="216.461238" y="271.583477" style="fill: #17becf; stroke: #17becf"/>
     <use xlink:href="#m65b8be7a73" x="231.943715" y="253.81156" style="fill: #17becf; stroke: #17becf"/>
     <use xlink:href="#m65b8be7a73" x="247.426192" y="236.039643" style="fill: #17becf; stroke: #17becf"/>
     <use xlink:href="#m65b8be7a73" x="262.908668" y="236.039643" style="fill: #17becf; stroke: #17becf"/>
     <use xlink:href="#m65b8be7a73" x="278.391145" y="209.381768" style="fill: #17becf; stroke: #17becf"/>
     <use xlink:href="#m65b8be7a73" x="293.873621" y="209.381768" style="fill: #17becf; stroke: #17becf"/>
     <use xlink:href="#m65b8be7a73" x="309.356098" y="200.495809" style="fill: #17becf; stroke: #17becf"/>
     <use xlink:href="#m65b8be7a73" x="324.838575" y="200.495809" style="fill: #17becf; stroke: #17becf"/>
     <use xlink:href="#m65b8be7a73" x="340.321051" y="191.609851" style="fill: #17becf; stroke: #17becf"/>
     <use xlink:href="#m65b8be7a73" x="355.803528" y="191.609851" style="fill: #17becf; stroke: #17becf"/>
     <use xlink:href="#m65b8be7a73" x="371.286005" y="182.723892" style="fill: #17becf; stroke: #17becf"/>
     <use xlink:href="#m65b8be7a73" x="386.768481" y="182.723892" style="fill: #17becf; stroke: #17becf"/>
     <use xlink:href="#m65b8be7a73" x="402.250958" y="173.837934" style="fill: #17becf; stroke: #17becf"/>
     <use xlink:href="#m65b8be7a73" x="417.733435" y="164.951975" style="fill: #17becf; stroke: #17becf"/>
     <use xlink:href="#m65b8be7a73" x="433.215911" y="156.066017" style="fill: #17becf; stroke: #17becf"/>
     <use xlink:href="#m65b8be7a73" x="448.698388" y="138.2941" style="fill: #17becf; stroke: #17becf"/>
     <use xlink:href="#m65b8be7a73" x="464.180864" y="129.408141" style="fill: #17becf; stroke: #17becf"/>
     <use xlink:href="#m65b8be7a73" x="479.663341" y="120.522183" style="fill: #17becf; stroke: #17becf"/>
     <use xlink:href="#m65b8be7a73" x="495.145818" y="120.522183" style="fill: #17becf; stroke: #17becf"/>
     <use xlink:href="#m65b8be7a73" x="510.628294" y="120.522183" style="fill: #17becf; stroke: #17becf"/>
     <use xlink:href="#m65b8be7a73" x="526.110771" y="120.522183" style="fill: #17becf; stroke: #17becf"/>
     <use xlink:href="#m65b8be7a73" x="541.593248" y="120.522183" style="fill: #17becf; stroke: #17becf"/>
     <use xlink:href="#m65b8be7a73" x="557.075724" y="111.636224" style="fill: #17becf; stroke: #17becf"/>
     <use xlink:href="#m65b8be7a73" x="572.558201" y="102.750266" style="fill: #17becf; stroke: #17becf"/>
     <use xlink:href="#m65b8be7a73" x="588.040678" y="93.864307" style="fill: #17becf; stroke: #17becf"/>
     <use xlink:href="#m65b8be7a73" x="603.523154" y="93.864307" style="fill: #17becf; stroke: #17becf"/>
     <use xlink:href="#m65b8be7a73" x="619.005631" y="93.864307" style="fill: #17becf; stroke: #17becf"/>
     <use xlink:href="#m65b8be7a73" x="634.488107" y="84.978349" style="fill: #17becf; stroke: #17becf"/>
     <use xlink:href="#m65b8be7a73" x="649.970584" y="84.978349" style="fill: #17becf; stroke: #17becf"/>
     <use xlink:href="#m65b8be7a73" x="665.453061" y="67.206432" style="fill: #17becf; stroke: #17becf"/>
     <use xlink:href="#m65b8be7a73" x="680.935537" y="67.206432" style="fill: #17becf; stroke: #17becf"/>
     <use xlink:href="#m65b8be7a73" x="696.418014" y="49.434515" style="fill: #17becf; stroke: #17becf"/>
    </g>
   </g>
   <g id="line2d_38">
    <path d="M 46.153995 378.214979 
L 49.250491 369.329021 
L 55.443481 369.329021 
L 95.697921 253.81156 
L 98.794416 253.81156 
L 104.987407 236.039643 
L 108.083902 236.039643 
L 114.276893 218.267726 
L 120.469883 218.267726 
L 123.566379 209.381768 
L 129.759369 209.381768 
L 139.048855 182.723892 
L 145.241846 182.723892 
L 148.338341 173.837934 
L 151.434836 173.837934 
L 163.820818 138.2941 
L 166.917313 138.2941 
L 176.206799 111.636224 
L 182.39979 111.636224 
L 185.496285 102.750266 
L 188.59278 102.750266 
L 194.785771 84.978349 
L 200.978762 84.978349 
L 204.075257 76.09239 
L 219.557734 76.09239 
L 222.654229 67.206432 
L 235.04021 67.206432 
L 238.136706 58.320474 
L 649.970584 58.320474 
L 653.067079 49.434515 
L 696.418014 49.434515 
L 699.514509 40.548557 
L 705.7075 40.548557 
L 705.7075 40.548557 
" clip-path="url(#pdfa288fb5d)" style="fill: none; stroke: #e31818; stroke-width: 2.5; stroke-linecap: square"/>
    <defs>
     <path id="m017747b3bb" d="M 0 1.5 
C 0.397805 1.5 0.77937 1.341951 1.06066 1.06066 
C 1.341951 0.77937 1.5 0.397805 1.5 0 
C 1.5 -0.397805 1.341951 -0.77937 1.06066 -1.06066 
C 0.77937 -1.341951 0.397805 -1.5 0 -1.5 
C -0.397805 -1.5 -0.77937 -1.341951 -1.06066 -1.06066 
C -1.341951 -0.77937 -1.5 -0.397805 -1.5 0 
C -1.5 0.397805 -1.341951 0.77937 -1.06066 1.06066 
C -0.77937 1.341951 -0.397805 1.5 0 1.5 
z
" style="stroke: #e31818"/>
    </defs>
    <g clip-path="url(#pdfa288fb5d)">
     <use xlink:href="#m017747b3bb" x="46.153995" y="378.214979" style="fill: #e31818; stroke: #e31818"/>
     <use xlink:href="#m017747b3bb" x="61.636472" y="351.557104" style="fill: #e31818; stroke: #e31818"/>
     <use xlink:href="#m017747b3bb" x="77.118949" y="307.127311" style="fill: #e31818; stroke: #e31818"/>
     <use xlink:href="#m017747b3bb" x="92.601425" y="262.697519" style="fill: #e31818; stroke: #e31818"/>
     <use xlink:href="#m017747b3bb" x="108.083902" y="236.039643" style="fill: #e31818; stroke: #e31818"/>
     <use xlink:href="#m017747b3bb" x="123.566379" y="209.381768" style="fill: #e31818; stroke: #e31818"/>
     <use xlink:href="#m017747b3bb" x="139.048855" y="182.723892" style="fill: #e31818; stroke: #e31818"/>
     <use xlink:href="#m017747b3bb" x="154.531332" y="164.951975" style="fill: #e31818; stroke: #e31818"/>
     <use xlink:href="#m017747b3bb" x="170.013808" y="129.408141" style="fill: #e31818; stroke: #e31818"/>
     <use xlink:href="#m017747b3bb" x="185.496285" y="102.750266" style="fill: #e31818; stroke: #e31818"/>
     <use xlink:href="#m017747b3bb" x="200.978762" y="84.978349" style="fill: #e31818; stroke: #e31818"/>
     <use xlink:href="#m017747b3bb" x="216.461238" y="76.09239" style="fill: #e31818; stroke: #e31818"/>
     <use xlink:href="#m017747b3bb" x="231.943715" y="67.206432" style="fill: #e31818; stroke: #e31818"/>
     <use xlink:href="#m017747b3bb" x="247.426192" y="58.320474" style="fill: #e31818; stroke: #e31818"/>
     <use xlink:href="#m017747b3bb" x="262.908668" y="58.320474" style="fill: #e31818; stroke: #e31818"/>
     <use xlink:href="#m017747b3bb" x="278.391145" y="58.320474" style="fill: #e31818; stroke: #e31818"/>
     <use xlink:href="#m017747b3bb" x="293.873621" y="58.320474" style="fill: #e31818; stroke: #e31818"/>
     <use xlink:href="#m017747b3bb" x="309.356098" y="58.320474" style="fill: #e31818; stroke: #e31818"/>
     <use xlink:href="#m017747b3bb" x="324.838575" y="58.320474" style="fill: #e31818; stroke: #e31818"/>
     <use xlink:href="#m017747b3bb" x="340.321051" y="58.320474" style="fill: #e31818; stroke: #e31818"/>
     <use xlink:href="#m017747b3bb" x="355.803528" y="58.320474" style="fill: #e31818; stroke: #e31818"/>
     <use xlink:href="#m017747b3bb" x="371.286005" y="58.320474" style="fill: #e31818; stroke: #e31818"/>
     <use xlink:href="#m017747b3bb" x="386.768481" y="58.320474" style="fill: #e31818; stroke: #e31818"/>
     <use xlink:href="#m017747b3bb" x="402.250958" y="58.320474" style="fill: #e31818; stroke: #e31818"/>
     <use xlink:href="#m017747b3bb" x="417.733435" y="58.320474" style="fill: #e31818; stroke: #e31818"/>
     <use xlink:href="#m017747b3bb" x="433.215911" y="58.320474" style="fill: #e31818; stroke: #e31818"/>
     <use xlink:href="#m017747b3bb" x="448.698388" y="58.320474" style="fill: #e31818; stroke: #e31818"/>
     <use xlink:href="#m017747b3bb" x="464.180864" y="58.320474" style="fill: #e31818; stroke: #e31818"/>
     <use xlink:href="#m017747b3bb" x="479.663341" y="58.320474" style="fill: #e31818; stroke: #e31818"/>
     <use xlink:href="#m017747b3bb" x="495.145818" y="58.320474" style="fill: #e31818; stroke: #e31818"/>
     <use xlink:href="#m017747b3bb" x="510.628294" y="58.320474" style="fill: #e31818; stroke: #e31818"/>
     <use xlink:href="#m017747b3bb" x="526.110771" y="58.320474" style="fill: #e31818; stroke: #e31818"/>
     <use xlink:href="#m017747b3bb" x="541.593248" y="58.320474" style="fill: #e31818; stroke: #e31818"/>
     <use xlink:href="#m017747b3bb" x="557.075724" y="58.320474" style="fill: #e31818; stroke: #e31818"/>
     <use xlink:href="#m017747b3bb" x="572.558201" y="58.320474" style="fill: #e31818; stroke: #e31818"/>
     <use xlink:href="#m017747b3bb" x="588.040678" y="58.320474" style="fill: #e31818; stroke: #e31818"/>
     <use xlink:href="#m017747b3bb" x="603.523154" y="58.320474" style="fill: #e31818; stroke: #e31818"/>
     <use xlink:href="#m017747b3bb" x="619.005631" y="58.320474" style="fill: #e31818; stroke: #e31818"/>
     <use xlink:href="#m017747b3bb" x="634.488107" y="58.320474" style="fill: #e31818; stroke: #e31818"/>
     <use xlink:href="#m017747b3bb" x="649.970584" y="58.320474" style="fill: #e31818; stroke: #e31818"/>
     <use xlink:href="#m017747b3bb" x="665.453061" y="49.434515" style="fill: #e31818; stroke: #e31818"/>
     <use xlink:href="#m017747b3bb" x="680.935537" y="49.434515" style="fill: #e31818; stroke: #e31818"/>
     <use xlink:href="#m017747b3bb" x="696.418014" y="49.434515" style="fill: #e31818; stroke: #e31818"/>
    </g>
   </g>
   <g id="patch_3">
    <path d="M 43.0575 387.100937 
L 43.0575 23.220937 
" style="fill: none; stroke: #000000; stroke-width: 0.8; stroke-linejoin: miter; stroke-linecap: square"/>
   </g>
   <g id="patch_4">
    <path d="M 705.7075 387.100937 
L 705.7075 23.220937 
" style="fill: none; stroke: #000000; stroke-width: 0.8; stroke-linejoin: miter; stroke-linecap: square"/>
   </g>
   <g id="patch_5">
    <path d="M 43.0575 387.100937 
L 705.7075 387.100937 
" style="fill: none; stroke: #000000; stroke-width: 0.8; stroke-linejoin: miter; stroke-linecap: square"/>
   </g>
   <g id="patch_6">
    <path d="M 43.0575 23.220937 
L 705.7075 23.220937 
" style="fill: none; stroke: #000000; stroke-width: 0.8; stroke-linejoin: miter; stroke-linecap: square"/>
   </g>
   <g id="text_18">
    <!-- Recall vs k - glass -->
    <g transform="translate(314.074219 17.220937) scale(0.14 -0.14)">
     <defs>
      <path id="Arial-BoldMT-76" d="M 1372 0 
L 34 3319 
L 956 3319 
L 1581 1625 
L 1763 1059 
Q 1834 1275 1853 1344 
Q 1897 1484 1947 1625 
L 2578 3319 
L 3481 3319 
L 2163 0 
L 1372 0 
z
" transform="scale(0.015625)"/>
      <path id="Arial-BoldMT-2d" d="M 359 1222 
L 359 2100 
L 2084 2100 
L 2084 1222 
L 359 1222 
z
" transform="scale(0.015625)"/>
      <path id="Arial-BoldMT-67" d="M 378 -219 
L 1381 -341 
Q 1406 -516 1497 -581 
Q 1622 -675 1891 -675 
Q 2234 -675 2406 -572 
Q 2522 -503 2581 -350 
Q 2622 -241 2622 53 
L 2622 538 
Q 2228 0 1628 0 
Q 959 0 569 566 
Q 263 1013 263 1678 
Q 263 2513 664 2953 
Q 1066 3394 1663 3394 
Q 2278 3394 2678 2853 
L 2678 3319 
L 3500 3319 
L 3500 341 
Q 3500 -247 3403 -537 
Q 3306 -828 3131 -993 
Q 2956 -1159 2664 -1253 
Q 2372 -1347 1925 -1347 
Q 1081 -1347 728 -1058 
Q 375 -769 375 -325 
Q 375 -281 378 -219 
z
M 1163 1728 
Q 1163 1200 1367 954 
Q 1572 709 1872 709 
Q 2194 709 2416 961 
Q 2638 1213 2638 1706 
Q 2638 2222 2425 2472 
Q 2213 2722 1888 2722 
Q 1572 2722 1367 2476 
Q 1163 2231 1163 1728 
z
" transform="scale(0.015625)"/>
     </defs>
     <use xlink:href="#Arial-BoldMT-52"/>
     <use xlink:href="#Arial-BoldMT-65" transform="translate(72.216797 0)"/>
     <use xlink:href="#Arial-BoldMT-63" transform="translate(127.832031 0)"/>
     <use xlink:href="#Arial-BoldMT-61" transform="translate(183.447266 0)"/>
     <use xlink:href="#Arial-BoldMT-6c" transform="translate(239.0625 0)"/>
     <use xlink:href="#Arial-BoldMT-6c" transform="translate(266.845703 0)"/>
     <use xlink:href="#Arial-BoldMT-20" transform="translate(294.628906 0)"/>
     <use xlink:href="#Arial-BoldMT-76" transform="translate(322.412109 0)"/>
     <use xlink:href="#Arial-BoldMT-73" transform="translate(378.027344 0)"/>
     <use xlink:href="#Arial-BoldMT-20" transform="translate(433.642578 0)"/>
     <use xlink:href="#Arial-BoldMT-6b" transform="translate(461.425781 0)"/>
     <use xlink:href="#Arial-BoldMT-20" transform="translate(517.041016 0)"/>
     <use xlink:href="#Arial-BoldMT-2d" transform="translate(544.824219 0)"/>
     <use xlink:href="#Arial-BoldMT-20" transform="translate(578.125 0)"/>
     <use xlink:href="#Arial-BoldMT-67" transform="translate(605.908203 0)"/>
     <use xlink:href="#Arial-BoldMT-6c" transform="translate(666.992188 0)"/>
     <use xlink:href="#Arial-BoldMT-61" transform="translate(694.775391 0)"/>
     <use xlink:href="#Arial-BoldMT-73" transform="translate(750.390625 0)"/>
     <use xlink:href="#Arial-BoldMT-73" transform="translate(806.005859 0)"/>
    </g>
   </g>
   <g id="legend_1">
    <g id="patch_7">
     <path d="M 49.3575 132.267187 
L 115.154531 132.267187 
Q 116.954531 132.267187 116.954531 130.467187 
L 116.954531 29.520938 
Q 116.954531 27.720937 115.154531 27.720937 
L 49.3575 27.720937 
Q 47.5575 27.720937 47.5575 29.520938 
L 47.5575 130.467187 
Q 47.5575 132.267187 49.3575 132.267187 
z
" style="fill: #ffffff; opacity: 0.8; stroke: #cccccc; stroke-linejoin: miter"/>
    </g>
    <g id="line2d_39">
     <path d="M 51.1575 34.612969 
L 60.1575 34.612969 
L 69.1575 34.612969 
" style="fill: none; stroke: #1f77b4; stroke-width: 2; stroke-linecap: square"/>
     <g>
      <use xlink:href="#m156018325d" x="60.1575" y="34.612969" style="fill: #1f77b4; stroke: #1f77b4"/>
     </g>
    </g>
    <g id="text_19">
     <!-- ADFNR -->
     <g transform="translate(76.3575 37.762969) scale(0.09 -0.09)">
      <defs>
       <path id="ArialMT-41" d="M -9 0 
L 1750 4581 
L 2403 4581 
L 4278 0 
L 3588 0 
L 3053 1388 
L 1138 1388 
L 634 0 
L -9 0 
z
M 1313 1881 
L 2866 1881 
L 2388 3150 
Q 2169 3728 2063 4100 
Q 1975 3659 1816 3225 
L 1313 1881 
z
" transform="scale(0.015625)"/>
       <path id="ArialMT-44" d="M 494 0 
L 494 4581 
L 2072 4581 
Q 2606 4581 2888 4516 
Q 3281 4425 3559 4188 
Q 3922 3881 4101 3404 
Q 4281 2928 4281 2316 
Q 4281 1794 4159 1391 
Q 4038 988 3847 723 
Q 3656 459 3429 307 
Q 3203 156 2883 78 
Q 2563 0 2147 0 
L 494 0 
z
M 1100 541 
L 2078 541 
Q 2531 541 2789 625 
Q 3047 709 3200 863 
Q 3416 1078 3536 1442 
Q 3656 1806 3656 2325 
Q 3656 3044 3420 3430 
Q 3184 3816 2847 3947 
Q 2603 4041 2063 4041 
L 1100 4041 
L 1100 541 
z
" transform="scale(0.015625)"/>
       <path id="ArialMT-46" d="M 525 0 
L 525 4581 
L 3616 4581 
L 3616 4041 
L 1131 4041 
L 1131 2622 
L 3281 2622 
L 3281 2081 
L 1131 2081 
L 1131 0 
L 525 0 
z
" transform="scale(0.015625)"/>
       <path id="ArialMT-4e" d="M 488 0 
L 488 4581 
L 1109 4581 
L 3516 984 
L 3516 4581 
L 4097 4581 
L 4097 0 
L 3475 0 
L 1069 3600 
L 1069 0 
L 488 0 
z
" transform="scale(0.015625)"/>
       <path id="ArialMT-52" d="M 503 0 
L 503 4581 
L 2534 4581 
Q 3147 4581 3465 4457 
Q 3784 4334 3975 4021 
Q 4166 3709 4166 3331 
Q 4166 2844 3850 2509 
Q 3534 2175 2875 2084 
Q 3116 1969 3241 1856 
Q 3506 1613 3744 1247 
L 4541 0 
L 3778 0 
L 3172 953 
Q 2906 1366 2734 1584 
Q 2563 1803 2427 1890 
Q 2291 1978 2150 2013 
Q 2047 2034 1813 2034 
L 1109 2034 
L 1109 0 
L 503 0 
z
M 1109 2559 
L 2413 2559 
Q 2828 2559 3062 2645 
Q 3297 2731 3419 2920 
Q 3541 3109 3541 3331 
Q 3541 3656 3305 3865 
Q 3069 4075 2559 4075 
L 1109 4075 
L 1109 2559 
z
" transform="scale(0.015625)"/>
      </defs>
      <use xlink:href="#ArialMT-41"/>
      <use xlink:href="#ArialMT-44" transform="translate(66.699219 0)"/>
      <use xlink:href="#ArialMT-46" transform="translate(138.916016 0)"/>
      <use xlink:href="#ArialMT-4e" transform="translate(200 0)"/>
      <use xlink:href="#ArialMT-52" transform="translate(272.216797 0)"/>
     </g>
    </g>
    <g id="line2d_40">
     <path d="M 51.1575 47.34375 
L 60.1575 47.34375 
L 69.1575 47.34375 
" style="fill: none; stroke: #ff7f0e; stroke-width: 2; stroke-linecap: square"/>
     <g>
      <use xlink:href="#m50cc2ba8c4" x="60.1575" y="47.34375" style="fill: #ff7f0e; stroke: #ff7f0e"/>
     </g>
    </g>
    <g id="text_20">
     <!-- DASOD -->
     <g transform="translate(76.3575 50.49375) scale(0.09 -0.09)">
      <defs>
       <path id="ArialMT-53" d="M 288 1472 
L 859 1522 
Q 900 1178 1048 958 
Q 1197 738 1509 602 
Q 1822 466 2213 466 
Q 2559 466 2825 569 
Q 3091 672 3220 851 
Q 3350 1031 3350 1244 
Q 3350 1459 3225 1620 
Q 3100 1781 2813 1891 
Q 2628 1963 1997 2114 
Q 1366 2266 1113 2400 
Q 784 2572 623 2826 
Q 463 3081 463 3397 
Q 463 3744 659 4045 
Q 856 4347 1234 4503 
Q 1613 4659 2075 4659 
Q 2584 4659 2973 4495 
Q 3363 4331 3572 4012 
Q 3781 3694 3797 3291 
L 3216 3247 
Q 3169 3681 2898 3903 
Q 2628 4125 2100 4125 
Q 1550 4125 1298 3923 
Q 1047 3722 1047 3438 
Q 1047 3191 1225 3031 
Q 1400 2872 2139 2705 
Q 2878 2538 3153 2413 
Q 3553 2228 3743 1945 
Q 3934 1663 3934 1294 
Q 3934 928 3725 604 
Q 3516 281 3123 101 
Q 2731 -78 2241 -78 
Q 1619 -78 1198 103 
Q 778 284 539 648 
Q 300 1013 288 1472 
z
" transform="scale(0.015625)"/>
       <path id="ArialMT-4f" d="M 309 2231 
Q 309 3372 921 4017 
Q 1534 4663 2503 4663 
Q 3138 4663 3647 4359 
Q 4156 4056 4423 3514 
Q 4691 2972 4691 2284 
Q 4691 1588 4409 1038 
Q 4128 488 3612 205 
Q 3097 -78 2500 -78 
Q 1853 -78 1343 234 
Q 834 547 571 1087 
Q 309 1628 309 2231 
z
M 934 2222 
Q 934 1394 1379 917 
Q 1825 441 2497 441 
Q 3181 441 3623 922 
Q 4066 1403 4066 2288 
Q 4066 2847 3877 3264 
Q 3688 3681 3323 3911 
Q 2959 4141 2506 4141 
Q 1863 4141 1398 3698 
Q 934 3256 934 2222 
z
" transform="scale(0.015625)"/>
      </defs>
      <use xlink:href="#ArialMT-44"/>
      <use xlink:href="#ArialMT-41" transform="translate(72.216797 0)"/>
      <use xlink:href="#ArialMT-53" transform="translate(138.916016 0)"/>
      <use xlink:href="#ArialMT-4f" transform="translate(205.615234 0)"/>
      <use xlink:href="#ArialMT-44" transform="translate(283.398438 0)"/>
     </g>
    </g>
    <g id="line2d_41">
     <path d="M 51.1575 60.074531 
L 60.1575 60.074531 
L 69.1575 60.074531 
" style="fill: none; stroke: #2ca02c; stroke-width: 2; stroke-linecap: square"/>
     <g>
      <use xlink:href="#mf27a50742b" x="60.1575" y="60.074531" style="fill: #2ca02c; stroke: #2ca02c"/>
     </g>
    </g>
    <g id="text_21">
     <!-- GCN -->
     <g transform="translate(76.3575 63.224531) scale(0.09 -0.09)">
      <defs>
       <path id="ArialMT-47" d="M 2638 1797 
L 2638 2334 
L 4578 2338 
L 4578 638 
Q 4131 281 3656 101 
Q 3181 -78 2681 -78 
Q 2006 -78 1454 211 
Q 903 500 622 1047 
Q 341 1594 341 2269 
Q 341 2938 620 3517 
Q 900 4097 1425 4378 
Q 1950 4659 2634 4659 
Q 3131 4659 3532 4498 
Q 3934 4338 4162 4050 
Q 4391 3763 4509 3300 
L 3963 3150 
Q 3859 3500 3706 3700 
Q 3553 3900 3268 4020 
Q 2984 4141 2638 4141 
Q 2222 4141 1919 4014 
Q 1616 3888 1430 3681 
Q 1244 3475 1141 3228 
Q 966 2803 966 2306 
Q 966 1694 1177 1281 
Q 1388 869 1791 669 
Q 2194 469 2647 469 
Q 3041 469 3416 620 
Q 3791 772 3984 944 
L 3984 1797 
L 2638 1797 
z
" transform="scale(0.015625)"/>
       <path id="ArialMT-43" d="M 3763 1606 
L 4369 1453 
Q 4178 706 3683 314 
Q 3188 -78 2472 -78 
Q 1731 -78 1267 223 
Q 803 525 561 1097 
Q 319 1669 319 2325 
Q 319 3041 592 3573 
Q 866 4106 1370 4382 
Q 1875 4659 2481 4659 
Q 3169 4659 3637 4309 
Q 4106 3959 4291 3325 
L 3694 3184 
Q 3534 3684 3231 3912 
Q 2928 4141 2469 4141 
Q 1941 4141 1586 3887 
Q 1231 3634 1087 3207 
Q 944 2781 944 2328 
Q 944 1744 1114 1308 
Q 1284 872 1643 656 
Q 2003 441 2422 441 
Q 2931 441 3284 734 
Q 3638 1028 3763 1606 
z
" transform="scale(0.015625)"/>
      </defs>
      <use xlink:href="#ArialMT-47"/>
      <use xlink:href="#ArialMT-43" transform="translate(77.783203 0)"/>
      <use xlink:href="#ArialMT-4e" transform="translate(150 0)"/>
     </g>
    </g>
    <g id="line2d_42">
     <path d="M 51.1575 72.805312 
L 60.1575 72.805312 
L 69.1575 72.805312 
" style="fill: none; stroke: #9467bd; stroke-width: 2; stroke-linecap: square"/>
     <g>
      <use xlink:href="#m57b99c8aae" x="60.1575" y="72.805312" style="fill: #9467bd; stroke: #9467bd"/>
     </g>
    </g>
    <g id="text_22">
     <!-- GCOD -->
     <g transform="translate(76.3575 75.955312) scale(0.09 -0.09)">
      <use xlink:href="#ArialMT-47"/>
      <use xlink:href="#ArialMT-43" transform="translate(77.783203 0)"/>
      <use xlink:href="#ArialMT-4f" transform="translate(150 0)"/>
      <use xlink:href="#ArialMT-44" transform="translate(227.783203 0)"/>
     </g>
    </g>
    <g id="line2d_43">
     <path d="M 51.1575 85.536094 
L 60.1575 85.536094 
L 69.1575 85.536094 
" style="fill: none; stroke: #8c564b; stroke-width: 2; stroke-linecap: square"/>
     <g>
      <use xlink:href="#ma935359d10" x="60.1575" y="85.536094" style="fill: #8c564b; stroke: #8c564b"/>
     </g>
    </g>
    <g id="text_23">
     <!-- IE -->
     <g transform="translate(76.3575 88.686094) scale(0.09 -0.09)">
      <defs>
       <path id="ArialMT-49" d="M 597 0 
L 597 4581 
L 1203 4581 
L 1203 0 
L 597 0 
z
" transform="scale(0.015625)"/>
       <path id="ArialMT-45" d="M 506 0 
L 506 4581 
L 3819 4581 
L 3819 4041 
L 1113 4041 
L 1113 2638 
L 3647 2638 
L 3647 2100 
L 1113 2100 
L 1113 541 
L 3925 541 
L 3925 0 
L 506 0 
z
" transform="scale(0.015625)"/>
      </defs>
      <use xlink:href="#ArialMT-49"/>
      <use xlink:href="#ArialMT-45" transform="translate(27.783203 0)"/>
     </g>
    </g>
    <g id="line2d_44">
     <path d="M 51.1575 98.266875 
L 60.1575 98.266875 
L 69.1575 98.266875 
" style="fill: none; stroke: #e377c2; stroke-width: 2; stroke-linecap: square"/>
     <g>
      <use xlink:href="#mf37157f327" x="60.1575" y="98.266875" style="fill: #e377c2; stroke: #e377c2"/>
     </g>
    </g>
    <g id="text_24">
     <!-- KNN -->
     <g transform="translate(76.3575 101.416875) scale(0.09 -0.09)">
      <defs>
       <path id="ArialMT-4b" d="M 469 0 
L 469 4581 
L 1075 4581 
L 1075 2309 
L 3350 4581 
L 4172 4581 
L 2250 2725 
L 4256 0 
L 3456 0 
L 1825 2319 
L 1075 1588 
L 1075 0 
L 469 0 
z
" transform="scale(0.015625)"/>
      </defs>
      <use xlink:href="#ArialMT-4b"/>
      <use xlink:href="#ArialMT-4e" transform="translate(66.699219 0)"/>
      <use xlink:href="#ArialMT-4e" transform="translate(138.916016 0)"/>
     </g>
    </g>
    <g id="line2d_45">
     <path d="M 51.1575 110.997656 
L 60.1575 110.997656 
L 69.1575 110.997656 
" style="fill: none; stroke: #17becf; stroke-width: 2; stroke-linecap: square"/>
     <g>
      <use xlink:href="#m65b8be7a73" x="60.1575" y="110.997656" style="fill: #17becf; stroke: #17becf"/>
     </g>
    </g>
    <g id="text_25">
     <!-- NIEOD -->
     <g transform="translate(76.3575 114.147656) scale(0.09 -0.09)">
      <use xlink:href="#ArialMT-4e"/>
      <use xlink:href="#ArialMT-49" transform="translate(72.216797 0)"/>
      <use xlink:href="#ArialMT-45" transform="translate(100 0)"/>
      <use xlink:href="#ArialMT-4f" transform="translate(166.699219 0)"/>
      <use xlink:href="#ArialMT-44" transform="translate(244.482422 0)"/>
     </g>
    </g>
    <g id="line2d_46">
     <path d="M 51.1575 123.728437 
L 60.1575 123.728437 
L 69.1575 123.728437 
" style="fill: none; stroke: #e31818; stroke-width: 2.5; stroke-linecap: square"/>
     <g>
      <use xlink:href="#m017747b3bb" x="60.1575" y="123.728437" style="fill: #e31818; stroke: #e31818"/>
     </g>
    </g>
    <g id="text_26">
     <!-- NMIGOD -->
     <g transform="translate(76.3575 126.878437) scale(0.09 -0.09)">
      <defs>
       <path id="ArialMT-4d" d="M 475 0 
L 475 4581 
L 1388 4581 
L 2472 1338 
Q 2622 884 2691 659 
Q 2769 909 2934 1394 
L 4031 4581 
L 4847 4581 
L 4847 0 
L 4263 0 
L 4263 3834 
L 2931 0 
L 2384 0 
L 1059 3900 
L 1059 0 
L 475 0 
z
" transform="scale(0.015625)"/>
      </defs>
      <use xlink:href="#ArialMT-4e"/>
      <use xlink:href="#ArialMT-4d" transform="translate(72.216797 0)"/>
      <use xlink:href="#ArialMT-49" transform="translate(155.517578 0)"/>
      <use xlink:href="#ArialMT-47" transform="translate(183.300781 0)"/>
      <use xlink:href="#ArialMT-4f" transform="translate(261.083984 0)"/>
      <use xlink:href="#ArialMT-44" transform="translate(338.867188 0)"/>
     </g>
    </g>
   </g>
  </g>
 </g>
 <defs>
  <clipPath id="pdfa288fb5d">
   <rect x="43.0575" y="23.220937" width="662.65" height="363.88"/>
  </clipPath>
 </defs>
</svg>
