<?xml version="1.0" encoding="utf-8" standalone="no"?>
<!DOCTYPE svg PUBLIC "-//W3C//DTD SVG 1.1//EN"
  "http://www.w3.org/Graphics/SVG/1.1/DTD/svg11.dtd">
<svg xmlns:xlink="http://www.w3.org/1999/xlink" width="712.9075pt" height="425.7075pt" viewBox="0 0 712.9075 425.7075" xmlns="http://www.w3.org/2000/svg" version="1.1">
 <metadata>
  <rdf:RDF xmlns:dc="http://purl.org/dc/elements/1.1/" xmlns:cc="http://creativecommons.org/ns#" xmlns:rdf="http://www.w3.org/1999/02/22-rdf-syntax-ns#">
   <cc:Work>
    <dc:type rdf:resource="http://purl.org/dc/dcmitype/StillImage"/>
    <dc:date>2026-06-11T18:29:02.292234</dc:date>
    <dc:format>image/svg+xml</dc:format>
    <dc:creator>
     <cc:Agent>
      <dc:title>Matplotlib v3.10.0, https://matplotlib.org/</dc:title>
     </cc:Agent>
    </dc:creator>
   </cc:Work>
  </rdf:RDF>
 </metadata>
 <defs>
  <style type="text/css">*{stroke-linejoin: round; stroke-linecap: butt}</style>
 </defs>
 <g id="figure_1">
  <g id="patch_1">
   <path d="M -0 425.7075 
L 712.9075 425.7075 
L 712.9075 0 
L -0 0 
z
" style="fill: #ffffff"/>
  </g>
  <g id="axes_1">
   <g id="patch_2">
    <path d="M 43.0575 387.100937 
L 705.7075 387.100937 
L 705.7075 23.220937 
L 43.0575 23.220937 
z
" style="fill: #ffffff"/>
   </g>
   <g id="matplotlib.axis_1">
    <g id="xtick_1">
     <g id="line2d_1">
      <path d="M 43.0575 387.100937 
L 43.0575 23.220937 
" clip-path="url(#p5d74ec7f95)" style="fill: none; stroke-dasharray: 2.96,1.28; stroke-dashoffset: 0; stroke: #b0b0b0; stroke-opacity: 0.5; stroke-width: 0.8"/>
     </g>
     <g id="line2d_2">
      <defs>
       <path id="m87611b266e" d="M 0 0 
L 0 3.5 
" style="stroke: #000000; stroke-width: 0.8"/>
      </defs>
      <g>
       <use xlink:href="#m87611b266e" x="43.0575" y="387.100937" style="stroke: #000000; stroke-width: 0.8"/>
      </g>
     </g>
     <g id="text_1">
      <!-- 0 -->
      <g transform="translate(40.277031 401.25875) scale(0.1 -0.1)">
       <defs>
        <path id="ArialMT-30" d="M 266 2259 
Q 266 3072 433 3567 
Q 600 4063 929 4331 
Q 1259 4600 1759 4600 
Q 2128 4600 2406 4451 
Q 2684 4303 2865 4023 
Q 3047 3744 3150 3342 
Q 3253 2941 3253 2259 
Q 3253 1453 3087 958 
Q 2922 463 2592 192 
Q 2263 -78 1759 -78 
Q 1097 -78 719 397 
Q 266 969 266 2259 
z
M 844 2259 
Q 844 1131 1108 757 
Q 1372 384 1759 384 
Q 2147 384 2411 759 
Q 2675 1134 2675 2259 
Q 2675 3391 2411 3762 
Q 2147 4134 1753 4134 
Q 1366 4134 1134 3806 
Q 844 3388 844 2259 
z
" transform="scale(0.015625)"/>
       </defs>
       <use xlink:href="#ArialMT-30"/>
      </g>
     </g>
    </g>
    <g id="xtick_2">
     <g id="line2d_3">
      <path d="M 178.292194 387.100937 
L 178.292194 23.220937 
" clip-path="url(#p5d74ec7f95)" style="fill: none; stroke-dasharray: 2.96,1.28; stroke-dashoffset: 0; stroke: #b0b0b0; stroke-opacity: 0.5; stroke-width: 0.8"/>
     </g>
     <g id="line2d_4">
      <g>
       <use xlink:href="#m87611b266e" x="178.292194" y="387.100937" style="stroke: #000000; stroke-width: 0.8"/>
      </g>
     </g>
     <g id="text_2">
      <!-- 100 -->
      <g transform="translate(169.950788 401.25875) scale(0.1 -0.1)">
       <defs>
        <path id="ArialMT-31" d="M 2384 0 
L 1822 0 
L 1822 3584 
Q 1619 3391 1289 3197 
Q 959 3003 697 2906 
L 697 3450 
Q 1169 3672 1522 3987 
Q 1875 4303 2022 4600 
L 2384 4600 
L 2384 0 
z
" transform="scale(0.015625)"/>
       </defs>
       <use xlink:href="#ArialMT-31"/>
       <use xlink:href="#ArialMT-30" transform="translate(55.615234 0)"/>
       <use xlink:href="#ArialMT-30" transform="translate(111.230469 0)"/>
      </g>
     </g>
    </g>
    <g id="xtick_3">
     <g id="line2d_5">
      <path d="M 313.526888 387.100937 
L 313.526888 23.220937 
" clip-path="url(#p5d74ec7f95)" style="fill: none; stroke-dasharray: 2.96,1.28; stroke-dashoffset: 0; stroke: #b0b0b0; stroke-opacity: 0.5; stroke-width: 0.8"/>
     </g>
     <g id="line2d_6">
      <g>
       <use xlink:href="#m87611b266e" x="313.526888" y="387.100937" style="stroke: #000000; stroke-width: 0.8"/>
      </g>
     </g>
     <g id="text_3">
      <!-- 200 -->
      <g transform="translate(305.185482 401.25875) scale(0.1 -0.1)">
       <defs>
        <path id="ArialMT-32" d="M 3222 541 
L 3222 0 
L 194 0 
Q 188 203 259 391 
Q 375 700 629 1000 
Q 884 1300 1366 1694 
Q 2113 2306 2375 2664 
Q 2638 3022 2638 3341 
Q 2638 3675 2398 3904 
Q 2159 4134 1775 4134 
Q 1369 4134 1125 3890 
Q 881 3647 878 3216 
L 300 3275 
Q 359 3922 746 4261 
Q 1134 4600 1788 4600 
Q 2447 4600 2831 4234 
Q 3216 3869 3216 3328 
Q 3216 3053 3103 2787 
Q 2991 2522 2730 2228 
Q 2469 1934 1863 1422 
Q 1356 997 1212 845 
Q 1069 694 975 541 
L 3222 541 
z
" transform="scale(0.015625)"/>
       </defs>
       <use xlink:href="#ArialMT-32"/>
       <use xlink:href="#ArialMT-30" transform="translate(55.615234 0)"/>
       <use xlink:href="#ArialMT-30" transform="translate(111.230469 0)"/>
      </g>
     </g>
    </g>
    <g id="xtick_4">
     <g id="line2d_7">
      <path d="M 448.761582 387.100937 
L 448.761582 23.220937 
" clip-path="url(#p5d74ec7f95)" style="fill: none; stroke-dasharray: 2.96,1.28; stroke-dashoffset: 0; stroke: #b0b0b0; stroke-opacity: 0.5; stroke-width: 0.8"/>
     </g>
     <g id="line2d_8">
      <g>
       <use xlink:href="#m87611b266e" x="448.761582" y="387.100937" style="stroke: #000000; stroke-width: 0.8"/>
      </g>
     </g>
     <g id="text_4">
      <!-- 300 -->
      <g transform="translate(440.420175 401.25875) scale(0.1 -0.1)">
       <defs>
        <path id="ArialMT-33" d="M 269 1209 
L 831 1284 
Q 928 806 1161 595 
Q 1394 384 1728 384 
Q 2125 384 2398 659 
Q 2672 934 2672 1341 
Q 2672 1728 2419 1979 
Q 2166 2231 1775 2231 
Q 1616 2231 1378 2169 
L 1441 2663 
Q 1497 2656 1531 2656 
Q 1891 2656 2178 2843 
Q 2466 3031 2466 3422 
Q 2466 3731 2256 3934 
Q 2047 4138 1716 4138 
Q 1388 4138 1169 3931 
Q 950 3725 888 3313 
L 325 3413 
Q 428 3978 793 4289 
Q 1159 4600 1703 4600 
Q 2078 4600 2393 4439 
Q 2709 4278 2876 4000 
Q 3044 3722 3044 3409 
Q 3044 3113 2884 2869 
Q 2725 2625 2413 2481 
Q 2819 2388 3044 2092 
Q 3269 1797 3269 1353 
Q 3269 753 2831 336 
Q 2394 -81 1725 -81 
Q 1122 -81 723 278 
Q 325 638 269 1209 
z
" transform="scale(0.015625)"/>
       </defs>
       <use xlink:href="#ArialMT-33"/>
       <use xlink:href="#ArialMT-30" transform="translate(55.615234 0)"/>
       <use xlink:href="#ArialMT-30" transform="translate(111.230469 0)"/>
      </g>
     </g>
    </g>
    <g id="xtick_5">
     <g id="line2d_9">
      <path d="M 583.996276 387.100937 
L 583.996276 23.220937 
" clip-path="url(#p5d74ec7f95)" style="fill: none; stroke-dasharray: 2.96,1.28; stroke-dashoffset: 0; stroke: #b0b0b0; stroke-opacity: 0.5; stroke-width: 0.8"/>
     </g>
     <g id="line2d_10">
      <g>
       <use xlink:href="#m87611b266e" x="583.996276" y="387.100937" style="stroke: #000000; stroke-width: 0.8"/>
      </g>
     </g>
     <g id="text_5">
      <!-- 400 -->
      <g transform="translate(575.654869 401.25875) scale(0.1 -0.1)">
       <defs>
        <path id="ArialMT-34" d="M 2069 0 
L 2069 1097 
L 81 1097 
L 81 1613 
L 2172 4581 
L 2631 4581 
L 2631 1613 
L 3250 1613 
L 3250 1097 
L 2631 1097 
L 2631 0 
L 2069 0 
z
M 2069 1613 
L 2069 3678 
L 634 1613 
L 2069 1613 
z
" transform="scale(0.015625)"/>
       </defs>
       <use xlink:href="#ArialMT-34"/>
       <use xlink:href="#ArialMT-30" transform="translate(55.615234 0)"/>
       <use xlink:href="#ArialMT-30" transform="translate(111.230469 0)"/>
      </g>
     </g>
    </g>
    <g id="text_6">
     <!-- k (Threshold Index) -->
     <g transform="translate(319.048438 415.981875) scale(0.12 -0.12)">
      <defs>
       <path id="Arial-BoldMT-6b" d="M 428 0 
L 428 4581 
L 1306 4581 
L 1306 2150 
L 2334 3319 
L 3416 3319 
L 2281 2106 
L 3497 0 
L 2550 0 
L 1716 1491 
L 1306 1063 
L 1306 0 
L 428 0 
z
" transform="scale(0.015625)"/>
       <path id="Arial-BoldMT-20" transform="scale(0.015625)"/>
       <path id="Arial-BoldMT-28" d="M 1916 -1347 
L 1313 -1347 
Q 834 -625 584 153 
Q 334 931 334 1659 
Q 334 2563 644 3369 
Q 913 4069 1325 4659 
L 1925 4659 
Q 1497 3713 1336 3048 
Q 1175 2384 1175 1641 
Q 1175 1128 1270 590 
Q 1366 53 1531 -431 
Q 1641 -750 1916 -1347 
z
" transform="scale(0.015625)"/>
       <path id="Arial-BoldMT-54" d="M 1497 0 
L 1497 3806 
L 138 3806 
L 138 4581 
L 3778 4581 
L 3778 3806 
L 2422 3806 
L 2422 0 
L 1497 0 
z
" transform="scale(0.015625)"/>
       <path id="Arial-BoldMT-68" d="M 1334 4581 
L 1334 2897 
Q 1759 3394 2350 3394 
Q 2653 3394 2897 3281 
Q 3141 3169 3264 2994 
Q 3388 2819 3433 2606 
Q 3478 2394 3478 1947 
L 3478 0 
L 2600 0 
L 2600 1753 
Q 2600 2275 2550 2415 
Q 2500 2556 2373 2639 
Q 2247 2722 2056 2722 
Q 1838 2722 1666 2615 
Q 1494 2509 1414 2295 
Q 1334 2081 1334 1663 
L 1334 0 
L 456 0 
L 456 4581 
L 1334 4581 
z
" transform="scale(0.015625)"/>
       <path id="Arial-BoldMT-72" d="M 1300 0 
L 422 0 
L 422 3319 
L 1238 3319 
L 1238 2847 
Q 1447 3181 1614 3287 
Q 1781 3394 1994 3394 
Q 2294 3394 2572 3228 
L 2300 2463 
Q 2078 2606 1888 2606 
Q 1703 2606 1575 2504 
Q 1447 2403 1373 2137 
Q 1300 1872 1300 1025 
L 1300 0 
z
" transform="scale(0.015625)"/>
       <path id="Arial-BoldMT-65" d="M 2381 1056 
L 3256 909 
Q 3088 428 2723 176 
Q 2359 -75 1813 -75 
Q 947 -75 531 491 
Q 203 944 203 1634 
Q 203 2459 634 2926 
Q 1066 3394 1725 3394 
Q 2466 3394 2894 2905 
Q 3322 2416 3303 1406 
L 1103 1406 
Q 1113 1016 1316 798 
Q 1519 581 1822 581 
Q 2028 581 2168 693 
Q 2309 806 2381 1056 
z
M 2431 1944 
Q 2422 2325 2234 2523 
Q 2047 2722 1778 2722 
Q 1491 2722 1303 2513 
Q 1116 2303 1119 1944 
L 2431 1944 
z
" transform="scale(0.015625)"/>
       <path id="Arial-BoldMT-73" d="M 150 947 
L 1031 1081 
Q 1088 825 1259 692 
Q 1431 559 1741 559 
Q 2081 559 2253 684 
Q 2369 772 2369 919 
Q 2369 1019 2306 1084 
Q 2241 1147 2013 1200 
Q 950 1434 666 1628 
Q 272 1897 272 2375 
Q 272 2806 612 3100 
Q 953 3394 1669 3394 
Q 2350 3394 2681 3172 
Q 3013 2950 3138 2516 
L 2309 2363 
Q 2256 2556 2107 2659 
Q 1959 2763 1684 2763 
Q 1338 2763 1188 2666 
Q 1088 2597 1088 2488 
Q 1088 2394 1175 2328 
Q 1294 2241 1995 2081 
Q 2697 1922 2975 1691 
Q 3250 1456 3250 1038 
Q 3250 581 2869 253 
Q 2488 -75 1741 -75 
Q 1063 -75 667 200 
Q 272 475 150 947 
z
" transform="scale(0.015625)"/>
       <path id="Arial-BoldMT-6f" d="M 256 1706 
Q 256 2144 472 2553 
Q 688 2963 1083 3178 
Q 1478 3394 1966 3394 
Q 2719 3394 3200 2905 
Q 3681 2416 3681 1669 
Q 3681 916 3195 420 
Q 2709 -75 1972 -75 
Q 1516 -75 1102 131 
Q 688 338 472 736 
Q 256 1134 256 1706 
z
M 1156 1659 
Q 1156 1166 1390 903 
Q 1625 641 1969 641 
Q 2313 641 2545 903 
Q 2778 1166 2778 1666 
Q 2778 2153 2545 2415 
Q 2313 2678 1969 2678 
Q 1625 2678 1390 2415 
Q 1156 2153 1156 1659 
z
" transform="scale(0.015625)"/>
       <path id="Arial-BoldMT-6c" d="M 459 0 
L 459 4581 
L 1338 4581 
L 1338 0 
L 459 0 
z
" transform="scale(0.015625)"/>
       <path id="Arial-BoldMT-64" d="M 3503 0 
L 2688 0 
L 2688 488 
Q 2484 203 2207 64 
Q 1931 -75 1650 -75 
Q 1078 -75 670 386 
Q 263 847 263 1672 
Q 263 2516 659 2955 
Q 1056 3394 1663 3394 
Q 2219 3394 2625 2931 
L 2625 4581 
L 3503 4581 
L 3503 0 
z
M 1159 1731 
Q 1159 1200 1306 963 
Q 1519 619 1900 619 
Q 2203 619 2415 876 
Q 2628 1134 2628 1647 
Q 2628 2219 2422 2470 
Q 2216 2722 1894 2722 
Q 1581 2722 1370 2473 
Q 1159 2225 1159 1731 
z
" transform="scale(0.015625)"/>
       <path id="Arial-BoldMT-49" d="M 438 0 
L 438 4581 
L 1363 4581 
L 1363 0 
L 438 0 
z
" transform="scale(0.015625)"/>
       <path id="Arial-BoldMT-6e" d="M 3478 0 
L 2600 0 
L 2600 1694 
Q 2600 2231 2544 2389 
Q 2488 2547 2361 2634 
Q 2234 2722 2056 2722 
Q 1828 2722 1647 2597 
Q 1466 2472 1398 2265 
Q 1331 2059 1331 1503 
L 1331 0 
L 453 0 
L 453 3319 
L 1269 3319 
L 1269 2831 
Q 1703 3394 2363 3394 
Q 2653 3394 2893 3289 
Q 3134 3184 3257 3021 
Q 3381 2859 3429 2653 
Q 3478 2447 3478 2063 
L 3478 0 
z
" transform="scale(0.015625)"/>
       <path id="Arial-BoldMT-78" d="M 38 0 
L 1234 1709 
L 88 3319 
L 1159 3319 
L 1747 2406 
L 2366 3319 
L 3397 3319 
L 2272 1747 
L 3500 0 
L 2422 0 
L 1747 1028 
L 1066 0 
L 38 0 
z
" transform="scale(0.015625)"/>
       <path id="Arial-BoldMT-29" d="M 216 -1347 
Q 475 -791 581 -494 
Q 688 -197 778 190 
Q 869 578 912 926 
Q 956 1275 956 1641 
Q 956 2384 797 3048 
Q 638 3713 209 4659 
L 806 4659 
Q 1278 3988 1539 3234 
Q 1800 2481 1800 1706 
Q 1800 1053 1594 306 
Q 1359 -531 822 -1347 
L 216 -1347 
z
" transform="scale(0.015625)"/>
      </defs>
      <use xlink:href="#Arial-BoldMT-6b"/>
      <use xlink:href="#Arial-BoldMT-20" transform="translate(55.615234 0)"/>
      <use xlink:href="#Arial-BoldMT-28" transform="translate(83.398438 0)"/>
      <use xlink:href="#Arial-BoldMT-54" transform="translate(116.699219 0)"/>
      <use xlink:href="#Arial-BoldMT-68" transform="translate(177.783203 0)"/>
      <use xlink:href="#Arial-BoldMT-72" transform="translate(238.867188 0)"/>
      <use xlink:href="#Arial-BoldMT-65" transform="translate(277.783203 0)"/>
      <use xlink:href="#Arial-BoldMT-73" transform="translate(333.398438 0)"/>
      <use xlink:href="#Arial-BoldMT-68" transform="translate(389.013672 0)"/>
      <use xlink:href="#Arial-BoldMT-6f" transform="translate(450.097656 0)"/>
      <use xlink:href="#Arial-BoldMT-6c" transform="translate(511.181641 0)"/>
      <use xlink:href="#Arial-BoldMT-64" transform="translate(538.964844 0)"/>
      <use xlink:href="#Arial-BoldMT-20" transform="translate(600.048828 0)"/>
      <use xlink:href="#Arial-BoldMT-49" transform="translate(627.832031 0)"/>
      <use xlink:href="#Arial-BoldMT-6e" transform="translate(655.615234 0)"/>
      <use xlink:href="#Arial-BoldMT-64" transform="translate(716.699219 0)"/>
      <use xlink:href="#Arial-BoldMT-65" transform="translate(777.783203 0)"/>
      <use xlink:href="#Arial-BoldMT-78" transform="translate(833.398438 0)"/>
      <use xlink:href="#Arial-BoldMT-29" transform="translate(889.013672 0)"/>
     </g>
    </g>
   </g>
   <g id="matplotlib.axis_2">
    <g id="ytick_1">
     <g id="line2d_11">
      <path d="M 43.0575 387.100937 
L 705.7075 387.100937 
" clip-path="url(#p5d74ec7f95)" style="fill: none; stroke-dasharray: 2.96,1.28; stroke-dashoffset: 0; stroke: #b0b0b0; stroke-opacity: 0.5; stroke-width: 0.8"/>
     </g>
     <g id="line2d_12">
      <defs>
       <path id="md1993dd574" d="M 0 0 
L -3.5 0 
" style="stroke: #000000; stroke-width: 0.8"/>
      </defs>
      <g>
       <use xlink:href="#md1993dd574" x="43.0575" y="387.100937" style="stroke: #000000; stroke-width: 0.8"/>
      </g>
     </g>
     <g id="text_7">
      <!-- 0.0 -->
      <g transform="translate(22.1575 390.679844) scale(0.1 -0.1)">
       <defs>
        <path id="ArialMT-2e" d="M 581 0 
L 581 641 
L 1222 641 
L 1222 0 
L 581 0 
z
" transform="scale(0.015625)"/>
       </defs>
       <use xlink:href="#ArialMT-30"/>
       <use xlink:href="#ArialMT-2e" transform="translate(55.615234 0)"/>
       <use xlink:href="#ArialMT-30" transform="translate(83.398438 0)"/>
      </g>
     </g>
    </g>
    <g id="ytick_2">
     <g id="line2d_13">
      <path d="M 43.0575 317.790461 
L 705.7075 317.790461 
" clip-path="url(#p5d74ec7f95)" style="fill: none; stroke-dasharray: 2.96,1.28; stroke-dashoffset: 0; stroke: #b0b0b0; stroke-opacity: 0.5; stroke-width: 0.8"/>
     </g>
     <g id="line2d_14">
      <g>
       <use xlink:href="#md1993dd574" x="43.0575" y="317.790461" style="stroke: #000000; stroke-width: 0.8"/>
      </g>
     </g>
     <g id="text_8">
      <!-- 0.2 -->
      <g transform="translate(22.1575 321.369368) scale(0.1 -0.1)">
       <use xlink:href="#ArialMT-30"/>
       <use xlink:href="#ArialMT-2e" transform="translate(55.615234 0)"/>
       <use xlink:href="#ArialMT-32" transform="translate(83.398438 0)"/>
      </g>
     </g>
    </g>
    <g id="ytick_3">
     <g id="line2d_15">
      <path d="M 43.0575 248.479985 
L 705.7075 248.479985 
" clip-path="url(#p5d74ec7f95)" style="fill: none; stroke-dasharray: 2.96,1.28; stroke-dashoffset: 0; stroke: #b0b0b0; stroke-opacity: 0.5; stroke-width: 0.8"/>
     </g>
     <g id="line2d_16">
      <g>
       <use xlink:href="#md1993dd574" x="43.0575" y="248.479985" style="stroke: #000000; stroke-width: 0.8"/>
      </g>
     </g>
     <g id="text_9">
      <!-- 0.4 -->
      <g transform="translate(22.1575 252.058891) scale(0.1 -0.1)">
       <use xlink:href="#ArialMT-30"/>
       <use xlink:href="#ArialMT-2e" transform="translate(55.615234 0)"/>
       <use xlink:href="#ArialMT-34" transform="translate(83.398438 0)"/>
      </g>
     </g>
    </g>
    <g id="ytick_4">
     <g id="line2d_17">
      <path d="M 43.0575 179.169509 
L 705.7075 179.169509 
" clip-path="url(#p5d74ec7f95)" style="fill: none; stroke-dasharray: 2.96,1.28; stroke-dashoffset: 0; stroke: #b0b0b0; stroke-opacity: 0.5; stroke-width: 0.8"/>
     </g>
     <g id="line2d_18">
      <g>
       <use xlink:href="#md1993dd574" x="43.0575" y="179.169509" style="stroke: #000000; stroke-width: 0.8"/>
      </g>
     </g>
     <g id="text_10">
      <!-- 0.6 -->
      <g transform="translate(22.1575 182.748415) scale(0.1 -0.1)">
       <defs>
        <path id="ArialMT-36" d="M 3184 3459 
L 2625 3416 
Q 2550 3747 2413 3897 
Q 2184 4138 1850 4138 
Q 1581 4138 1378 3988 
Q 1113 3794 959 3422 
Q 806 3050 800 2363 
Q 1003 2672 1297 2822 
Q 1591 2972 1913 2972 
Q 2475 2972 2870 2558 
Q 3266 2144 3266 1488 
Q 3266 1056 3080 686 
Q 2894 316 2569 119 
Q 2244 -78 1831 -78 
Q 1128 -78 684 439 
Q 241 956 241 2144 
Q 241 3472 731 4075 
Q 1159 4600 1884 4600 
Q 2425 4600 2770 4297 
Q 3116 3994 3184 3459 
z
M 888 1484 
Q 888 1194 1011 928 
Q 1134 663 1356 523 
Q 1578 384 1822 384 
Q 2178 384 2434 671 
Q 2691 959 2691 1453 
Q 2691 1928 2437 2201 
Q 2184 2475 1800 2475 
Q 1419 2475 1153 2201 
Q 888 1928 888 1484 
z
" transform="scale(0.015625)"/>
       </defs>
       <use xlink:href="#ArialMT-30"/>
       <use xlink:href="#ArialMT-2e" transform="translate(55.615234 0)"/>
       <use xlink:href="#ArialMT-36" transform="translate(83.398438 0)"/>
      </g>
     </g>
    </g>
    <g id="ytick_5">
     <g id="line2d_19">
      <path d="M 43.0575 109.859033 
L 705.7075 109.859033 
" clip-path="url(#p5d74ec7f95)" style="fill: none; stroke-dasharray: 2.96,1.28; stroke-dashoffset: 0; stroke: #b0b0b0; stroke-opacity: 0.5; stroke-width: 0.8"/>
     </g>
     <g id="line2d_20">
      <g>
       <use xlink:href="#md1993dd574" x="43.0575" y="109.859033" style="stroke: #000000; stroke-width: 0.8"/>
      </g>
     </g>
     <g id="text_11">
      <!-- 0.8 -->
      <g transform="translate(22.1575 113.437939) scale(0.1 -0.1)">
       <defs>
        <path id="ArialMT-38" d="M 1131 2484 
Q 781 2613 612 2850 
Q 444 3088 444 3419 
Q 444 3919 803 4259 
Q 1163 4600 1759 4600 
Q 2359 4600 2725 4251 
Q 3091 3903 3091 3403 
Q 3091 3084 2923 2848 
Q 2756 2613 2416 2484 
Q 2838 2347 3058 2040 
Q 3278 1734 3278 1309 
Q 3278 722 2862 322 
Q 2447 -78 1769 -78 
Q 1091 -78 675 323 
Q 259 725 259 1325 
Q 259 1772 486 2073 
Q 713 2375 1131 2484 
z
M 1019 3438 
Q 1019 3113 1228 2906 
Q 1438 2700 1772 2700 
Q 2097 2700 2305 2904 
Q 2513 3109 2513 3406 
Q 2513 3716 2298 3927 
Q 2084 4138 1766 4138 
Q 1444 4138 1231 3931 
Q 1019 3725 1019 3438 
z
M 838 1322 
Q 838 1081 952 856 
Q 1066 631 1291 507 
Q 1516 384 1775 384 
Q 2178 384 2440 643 
Q 2703 903 2703 1303 
Q 2703 1709 2433 1975 
Q 2163 2241 1756 2241 
Q 1359 2241 1098 1978 
Q 838 1716 838 1322 
z
" transform="scale(0.015625)"/>
       </defs>
       <use xlink:href="#ArialMT-30"/>
       <use xlink:href="#ArialMT-2e" transform="translate(55.615234 0)"/>
       <use xlink:href="#ArialMT-38" transform="translate(83.398438 0)"/>
      </g>
     </g>
    </g>
    <g id="ytick_6">
     <g id="line2d_21">
      <path d="M 43.0575 40.548557 
L 705.7075 40.548557 
" clip-path="url(#p5d74ec7f95)" style="fill: none; stroke-dasharray: 2.96,1.28; stroke-dashoffset: 0; stroke: #b0b0b0; stroke-opacity: 0.5; stroke-width: 0.8"/>
     </g>
     <g id="line2d_22">
      <g>
       <use xlink:href="#md1993dd574" x="43.0575" y="40.548557" style="stroke: #000000; stroke-width: 0.8"/>
      </g>
     </g>
     <g id="text_12">
      <!-- 1.0 -->
      <g transform="translate(22.1575 44.127463) scale(0.1 -0.1)">
       <use xlink:href="#ArialMT-31"/>
       <use xlink:href="#ArialMT-2e" transform="translate(55.615234 0)"/>
       <use xlink:href="#ArialMT-30" transform="translate(83.398438 0)"/>
      </g>
     </g>
    </g>
    <g id="text_13">
     <!-- Precision -->
     <g transform="translate(15.789375 232.17125) rotate(-90) scale(0.12 -0.12)">
      <defs>
       <path id="Arial-BoldMT-50" d="M 466 0 
L 466 4581 
L 1950 4581 
Q 2794 4581 3050 4513 
Q 3444 4409 3709 4064 
Q 3975 3719 3975 3172 
Q 3975 2750 3822 2462 
Q 3669 2175 3433 2011 
Q 3197 1847 2953 1794 
Q 2622 1728 1994 1728 
L 1391 1728 
L 1391 0 
L 466 0 
z
M 1391 3806 
L 1391 2506 
L 1897 2506 
Q 2444 2506 2628 2578 
Q 2813 2650 2917 2803 
Q 3022 2956 3022 3159 
Q 3022 3409 2875 3571 
Q 2728 3734 2503 3775 
Q 2338 3806 1838 3806 
L 1391 3806 
z
" transform="scale(0.015625)"/>
       <path id="Arial-BoldMT-63" d="M 3353 2338 
L 2488 2181 
Q 2444 2441 2289 2572 
Q 2134 2703 1888 2703 
Q 1559 2703 1364 2476 
Q 1169 2250 1169 1719 
Q 1169 1128 1367 884 
Q 1566 641 1900 641 
Q 2150 641 2309 783 
Q 2469 925 2534 1272 
L 3397 1125 
Q 3263 531 2881 228 
Q 2500 -75 1859 -75 
Q 1131 -75 698 384 
Q 266 844 266 1656 
Q 266 2478 700 2936 
Q 1134 3394 1875 3394 
Q 2481 3394 2839 3133 
Q 3197 2872 3353 2338 
z
" transform="scale(0.015625)"/>
       <path id="Arial-BoldMT-69" d="M 459 3769 
L 459 4581 
L 1338 4581 
L 1338 3769 
L 459 3769 
z
M 459 0 
L 459 3319 
L 1338 3319 
L 1338 0 
L 459 0 
z
" transform="scale(0.015625)"/>
      </defs>
      <use xlink:href="#Arial-BoldMT-50"/>
      <use xlink:href="#Arial-BoldMT-72" transform="translate(66.699219 0)"/>
      <use xlink:href="#Arial-BoldMT-65" transform="translate(105.615234 0)"/>
      <use xlink:href="#Arial-BoldMT-63" transform="translate(161.230469 0)"/>
      <use xlink:href="#Arial-BoldMT-69" transform="translate(216.845703 0)"/>
      <use xlink:href="#Arial-BoldMT-73" transform="translate(244.628906 0)"/>
      <use xlink:href="#Arial-BoldMT-69" transform="translate(300.244141 0)"/>
      <use xlink:href="#Arial-BoldMT-6f" transform="translate(328.027344 0)"/>
      <use xlink:href="#Arial-BoldMT-6e" transform="translate(389.111328 0)"/>
     </g>
    </g>
   </g>
   <g id="line2d_23">
    <path d="M 44.409847 387.100937 
L 45.762194 213.824747 
L 47.114541 156.066017 
L 48.466888 213.824747 
L 49.819235 179.169509 
L 51.171582 156.066017 
L 52.523929 139.563523 
L 53.876276 127.186652 
L 55.228622 117.560197 
L 56.580969 109.859033 
L 57.933316 103.55808 
L 59.285663 98.307287 
L 60.63801 120.522183 
L 61.990357 114.809781 
L 63.342704 132.962525 
L 64.695051 148.846176 
L 66.047398 142.475727 
L 67.399745 156.066017 
L 68.752092 149.986151 
L 70.104439 161.84189 
L 71.456786 172.568511 
L 72.809133 166.567604 
L 74.16148 161.088515 
L 76.866173 179.169509 
L 79.570867 194.571837 
L 80.923214 201.447876 
L 83.627908 190.721255 
L 86.332602 202.994985 
L 87.684949 198.072366 
L 90.389643 208.873999 
L 93.094337 218.507887 
L 95.799031 227.153685 
L 98.503724 234.95599 
L 101.208418 242.032499 
L 102.560765 245.329509 
L 103.913112 240.778821 
L 105.265459 243.959737 
L 107.970153 235.484271 
L 110.674847 241.548937 
L 112.027194 244.402898 
L 113.379541 240.482622 
L 116.084235 245.91293 
L 118.788929 250.955359 
L 121.493622 255.650034 
L 122.845969 257.878016 
L 124.198316 254.255858 
L 125.550663 256.433646 
L 126.90301 252.951629 
L 130.960051 259.143135 
L 132.312398 255.831096 
L 136.369439 261.538481 
L 140.42648 266.77025 
L 141.778827 268.418615 
L 143.131173 265.33929 
L 144.48352 266.962779 
L 145.835867 263.983644 
L 147.188214 265.58257 
L 148.540561 262.697519 
L 152.597602 267.305053 
L 156.654643 271.583477 
L 160.711684 275.566838 
L 164.768724 279.284641 
L 168.825765 282.762586 
L 172.882806 286.02316 
L 174.235153 283.492494 
L 179.644541 287.595798 
L 185.053929 291.38647 
L 189.110969 294.045206 
L 190.463316 291.719548 
L 195.872704 295.095881 
L 197.225051 295.902943 
L 199.929745 291.500281 
L 205.339133 294.686969 
L 206.69148 295.450721 
L 208.043827 293.361359 
L 214.805561 297.051894 
L 221.567296 300.462842 
L 228.329031 303.624817 
L 235.090765 306.564117 
L 243.204847 309.829123 
L 251.318929 312.839713 
L 259.43301 315.624509 
L 268.899439 318.620527 
L 278.365867 321.375486 
L 287.832296 323.917354 
L 289.184643 324.264517 
L 291.889337 321.180648 
L 302.708112 323.927326 
L 313.526888 326.454271 
L 325.69801 329.06585 
L 335.164439 330.946617 
L 336.516786 329.608377 
L 347.335561 331.652557 
L 348.687908 330.364486 
L 362.211378 332.768573 
L 377.087194 335.188233 
L 385.201276 336.419364 
L 386.553622 335.254518 
L 402.781786 337.593455 
L 420.362296 339.900255 
L 439.295153 342.155578 
L 459.580357 344.344475 
L 481.217908 346.455905 
L 504.207806 348.482197 
L 529.902398 350.520408 
L 556.949337 352.445699 
L 586.700969 354.342255 
L 619.157296 356.187814 
L 621.86199 356.332268 
L 623.214337 355.596176 
L 658.375357 357.396448 
L 665.137092 357.719323 
L 666.489439 357.031317 
L 705.7075 358.810947 
L 705.7075 358.810947 
" clip-path="url(#p5d74ec7f95)" style="fill: none; stroke: #1f77b4; stroke-width: 2; stroke-linecap: square"/>
    <defs>
     <path id="m507cc1ce56" d="M 0 1.5 
C 0.397805 1.5 0.77937 1.341951 1.06066 1.06066 
C 1.341951 0.77937 1.5 0.397805 1.5 0 
C 1.5 -0.397805 1.341951 -0.77937 1.06066 -1.06066 
C 0.77937 -1.341951 0.397805 -1.5 0 -1.5 
C -0.397805 -1.5 -0.77937 -1.341951 -1.06066 -1.06066 
C -1.341951 -0.77937 -1.5 -0.397805 -1.5 0 
C -1.5 0.397805 -1.341951 0.77937 -1.06066 1.06066 
C -0.77937 1.341951 -0.397805 1.5 0 1.5 
z
" style="stroke: #1f77b4"/>
    </defs>
    <g clip-path="url(#p5d74ec7f95)">
     <use xlink:href="#m507cc1ce56" x="44.409847" y="387.100937" style="fill: #1f77b4; stroke: #1f77b4"/>
     <use xlink:href="#m507cc1ce56" x="60.63801" y="120.522183" style="fill: #1f77b4; stroke: #1f77b4"/>
     <use xlink:href="#m507cc1ce56" x="76.866173" y="179.169509" style="fill: #1f77b4; stroke: #1f77b4"/>
     <use xlink:href="#m507cc1ce56" x="93.094337" y="218.507887" style="fill: #1f77b4; stroke: #1f77b4"/>
     <use xlink:href="#m507cc1ce56" x="109.3225" y="238.578489" style="fill: #1f77b4; stroke: #1f77b4"/>
     <use xlink:href="#m507cc1ce56" x="125.550663" y="256.433646" style="fill: #1f77b4; stroke: #1f77b4"/>
     <use xlink:href="#m507cc1ce56" x="141.778827" y="268.418615" style="fill: #1f77b4; stroke: #1f77b4"/>
     <use xlink:href="#m507cc1ce56" x="158.00699" y="272.942506" style="fill: #1f77b4; stroke: #1f77b4"/>
     <use xlink:href="#m507cc1ce56" x="174.235153" y="283.492494" style="fill: #1f77b4; stroke: #1f77b4"/>
     <use xlink:href="#m507cc1ce56" x="190.463316" y="291.719548" style="fill: #1f77b4; stroke: #1f77b4"/>
     <use xlink:href="#m507cc1ce56" x="206.69148" y="295.450721" style="fill: #1f77b4; stroke: #1f77b4"/>
     <use xlink:href="#m507cc1ce56" x="222.919643" y="301.114257" style="fill: #1f77b4; stroke: #1f77b4"/>
     <use xlink:href="#m507cc1ce56" x="239.147806" y="308.230396" style="fill: #1f77b4; stroke: #1f77b4"/>
     <use xlink:href="#m507cc1ce56" x="255.375969" y="314.258717" style="fill: #1f77b4; stroke: #1f77b4"/>
     <use xlink:href="#m507cc1ce56" x="271.604133" y="319.430946" style="fill: #1f77b4; stroke: #1f77b4"/>
     <use xlink:href="#m507cc1ce56" x="287.832296" y="323.917354" style="fill: #1f77b4; stroke: #1f77b4"/>
     <use xlink:href="#m507cc1ce56" x="304.060459" y="324.254651" style="fill: #1f77b4; stroke: #1f77b4"/>
     <use xlink:href="#m507cc1ce56" x="320.288622" y="327.933458" style="fill: #1f77b4; stroke: #1f77b4"/>
     <use xlink:href="#m507cc1ce56" x="336.516786" y="329.608377" style="fill: #1f77b4; stroke: #1f77b4"/>
     <use xlink:href="#m507cc1ce56" x="352.744949" y="331.107758" style="fill: #1f77b4; stroke: #1f77b4"/>
     <use xlink:href="#m507cc1ce56" x="368.973112" y="333.8958" style="fill: #1f77b4; stroke: #1f77b4"/>
     <use xlink:href="#m507cc1ce56" x="385.201276" y="336.419364" style="fill: #1f77b4; stroke: #1f77b4"/>
     <use xlink:href="#m507cc1ce56" x="401.429439" y="337.406634" style="fill: #1f77b4; stroke: #1f77b4"/>
     <use xlink:href="#m507cc1ce56" x="417.657602" y="339.559456" style="fill: #1f77b4; stroke: #1f77b4"/>
     <use xlink:href="#m507cc1ce56" x="433.885765" y="341.533496" style="fill: #1f77b4; stroke: #1f77b4"/>
     <use xlink:href="#m507cc1ce56" x="450.113929" y="343.350139" style="fill: #1f77b4; stroke: #1f77b4"/>
     <use xlink:href="#m507cc1ce56" x="466.342092" y="345.027485" style="fill: #1f77b4; stroke: #1f77b4"/>
     <use xlink:href="#m507cc1ce56" x="482.570255" y="346.580967" style="fill: #1f77b4; stroke: #1f77b4"/>
     <use xlink:href="#m507cc1ce56" x="498.798418" y="348.023814" style="fill: #1f77b4; stroke: #1f77b4"/>
     <use xlink:href="#m507cc1ce56" x="515.026582" y="349.36744" style="fill: #1f77b4; stroke: #1f77b4"/>
     <use xlink:href="#m507cc1ce56" x="531.254745" y="350.62174" style="fill: #1f77b4; stroke: #1f77b4"/>
     <use xlink:href="#m507cc1ce56" x="547.482908" y="351.795333" style="fill: #1f77b4; stroke: #1f77b4"/>
     <use xlink:href="#m507cc1ce56" x="563.711071" y="352.895767" style="fill: #1f77b4; stroke: #1f77b4"/>
     <use xlink:href="#m507cc1ce56" x="579.939235" y="353.929677" style="fill: #1f77b4; stroke: #1f77b4"/>
     <use xlink:href="#m507cc1ce56" x="596.167398" y="354.902917" style="fill: #1f77b4; stroke: #1f77b4"/>
     <use xlink:href="#m507cc1ce56" x="612.395561" y="355.820675" style="fill: #1f77b4; stroke: #1f77b4"/>
     <use xlink:href="#m507cc1ce56" x="628.623724" y="355.887213" style="fill: #1f77b4; stroke: #1f77b4"/>
     <use xlink:href="#m507cc1ce56" x="644.851888" y="356.728931" style="fill: #1f77b4; stroke: #1f77b4"/>
     <use xlink:href="#m507cc1ce56" x="661.080051" y="357.526445" style="fill: #1f77b4; stroke: #1f77b4"/>
     <use xlink:href="#m507cc1ce56" x="677.308214" y="357.544231" style="fill: #1f77b4; stroke: #1f77b4"/>
     <use xlink:href="#m507cc1ce56" x="693.536378" y="358.281613" style="fill: #1f77b4; stroke: #1f77b4"/>
    </g>
   </g>
   <g id="line2d_24">
    <path d="M 44.409847 387.100937 
L 45.762194 387.100937 
L 47.114541 271.583477 
L 48.466888 213.824747 
L 49.819235 179.169509 
L 51.171582 156.066017 
L 52.523929 139.563523 
L 53.876276 127.186652 
L 55.228622 117.560197 
L 56.580969 109.859033 
L 57.933316 103.55808 
L 59.285663 98.307287 
L 60.63801 93.864307 
L 61.990357 90.05604 
L 63.342704 86.755541 
L 64.695051 83.867604 
L 66.047398 81.319425 
L 67.399745 98.307287 
L 68.752092 95.267354 
L 70.104439 92.531414 
L 71.456786 106.558534 
L 74.16148 100.818536 
L 76.866173 95.996938 
L 79.570867 91.88965 
L 82.275561 112.249049 
L 84.980255 129.981429 
L 87.684949 145.56443 
L 90.389643 159.366516 
L 93.094337 171.676484 
L 95.799031 182.723892 
L 98.503724 192.693504 
L 99.856071 197.322253 
L 101.208418 193.676353 
L 103.913112 202.273001 
L 106.617806 210.13802 
L 109.3225 217.360996 
L 112.027194 224.017464 
L 114.731888 230.171557 
L 117.436582 223.276176 
L 120.141276 229.024413 
L 122.845969 234.382939 
L 125.550663 239.390087 
L 129.607704 246.314033 
L 133.664745 252.617924 
L 137.721786 258.381482 
L 141.778827 263.671322 
L 145.835867 268.543544 
L 149.892908 273.045724 
L 153.949949 277.218475 
L 158.00699 281.09668 
L 162.064031 284.710461 
L 166.121071 288.085972 
L 171.530459 292.255023 
L 172.882806 289.63308 
L 178.292194 293.531795 
L 183.701582 297.130608 
L 189.110969 300.462842 
L 194.520357 303.55706 
L 201.282092 307.127311 
L 208.043827 310.404919 
L 214.805561 313.424447 
L 220.214949 315.674111 
L 221.567296 313.589826 
L 225.624337 315.223407 
L 226.976684 313.203739 
L 235.090765 316.326155 
L 243.204847 319.195403 
L 247.261888 320.54452 
L 249.966582 316.884442 
L 251.318929 317.340393 
L 252.671276 315.554639 
L 259.43301 317.790461 
L 260.785357 316.068462 
L 267.547092 318.207994 
L 268.899439 316.545363 
L 278.365867 319.383806 
L 287.832296 322.0027 
L 298.651071 324.758181 
L 304.060459 326.050259 
L 305.412806 324.578601 
L 317.583929 327.350527 
L 329.755051 329.887101 
L 343.27852 332.464301 
L 356.80199 334.819328 
L 371.677806 337.185986 
L 382.496582 338.7769 
L 383.848929 337.593455 
L 397.372398 339.483053 
L 398.724745 338.34642 
L 416.305255 340.642828 
L 435.238112 342.885634 
L 455.523316 345.060157 
L 477.160867 347.155647 
L 500.150765 349.16473 
L 525.845357 351.183744 
L 552.892296 353.089165 
L 582.643929 354.964501 
L 588.053316 355.283473 
L 590.75801 353.729227 
L 623.214337 355.596176 
L 624.566684 354.863507 
L 659.727704 356.701606 
L 697.593418 358.460245 
L 705.7075 358.810947 
L 705.7075 358.810947 
" clip-path="url(#p5d74ec7f95)" style="fill: none; stroke: #ff7f0e; stroke-width: 2; stroke-linecap: square"/>
    <defs>
     <path id="m295a8b48be" d="M 0 1.5 
C 0.397805 1.5 0.77937 1.341951 1.06066 1.06066 
C 1.341951 0.77937 1.5 0.397805 1.5 0 
C 1.5 -0.397805 1.341951 -0.77937 1.06066 -1.06066 
C 0.77937 -1.341951 0.397805 -1.5 0 -1.5 
C -0.397805 -1.5 -0.77937 -1.341951 -1.06066 -1.06066 
C -1.341951 -0.77937 -1.5 -0.397805 -1.5 0 
C -1.5 0.397805 -1.341951 0.77937 -1.06066 1.06066 
C -0.77937 1.341951 -0.397805 1.5 0 1.5 
z
" style="stroke: #ff7f0e"/>
    </defs>
    <g clip-path="url(#p5d74ec7f95)">
     <use xlink:href="#m295a8b48be" x="44.409847" y="387.100937" style="fill: #ff7f0e; stroke: #ff7f0e"/>
     <use xlink:href="#m295a8b48be" x="60.63801" y="93.864307" style="fill: #ff7f0e; stroke: #ff7f0e"/>
     <use xlink:href="#m295a8b48be" x="76.866173" y="95.996938" style="fill: #ff7f0e; stroke: #ff7f0e"/>
     <use xlink:href="#m295a8b48be" x="93.094337" y="171.676484" style="fill: #ff7f0e; stroke: #ff7f0e"/>
     <use xlink:href="#m295a8b48be" x="109.3225" y="217.360996" style="fill: #ff7f0e; stroke: #ff7f0e"/>
     <use xlink:href="#m295a8b48be" x="125.550663" y="239.390087" style="fill: #ff7f0e; stroke: #ff7f0e"/>
     <use xlink:href="#m295a8b48be" x="141.778827" y="263.671322" style="fill: #ff7f0e; stroke: #ff7f0e"/>
     <use xlink:href="#m295a8b48be" x="158.00699" y="281.09668" style="fill: #ff7f0e; stroke: #ff7f0e"/>
     <use xlink:href="#m295a8b48be" x="174.235153" y="290.637904" style="fill: #ff7f0e; stroke: #ff7f0e"/>
     <use xlink:href="#m295a8b48be" x="190.463316" y="301.257687" style="fill: #ff7f0e; stroke: #ff7f0e"/>
     <use xlink:href="#m295a8b48be" x="206.69148" y="309.771067" style="fill: #ff7f0e; stroke: #ff7f0e"/>
     <use xlink:href="#m295a8b48be" x="222.919643" y="314.142542" style="fill: #ff7f0e; stroke: #ff7f0e"/>
     <use xlink:href="#m295a8b48be" x="239.147806" y="317.790461" style="fill: #ff7f0e; stroke: #ff7f0e"/>
     <use xlink:href="#m295a8b48be" x="255.375969" y="316.466057" style="fill: #ff7f0e; stroke: #ff7f0e"/>
     <use xlink:href="#m295a8b48be" x="271.604133" y="317.38034" style="fill: #ff7f0e; stroke: #ff7f0e"/>
     <use xlink:href="#m295a8b48be" x="287.832296" y="322.0027" style="fill: #ff7f0e; stroke: #ff7f0e"/>
     <use xlink:href="#m295a8b48be" x="304.060459" y="326.050259" style="fill: #ff7f0e; stroke: #ff7f0e"/>
     <use xlink:href="#m295a8b48be" x="320.288622" y="327.933458" style="fill: #ff7f0e; stroke: #ff7f0e"/>
     <use xlink:href="#m295a8b48be" x="336.516786" y="331.205392" style="fill: #ff7f0e; stroke: #ff7f0e"/>
     <use xlink:href="#m295a8b48be" x="352.744949" y="334.134416" style="fill: #ff7f0e; stroke: #ff7f0e"/>
     <use xlink:href="#m295a8b48be" x="368.973112" y="336.771754" style="fill: #ff7f0e; stroke: #ff7f0e"/>
     <use xlink:href="#m295a8b48be" x="385.201276" y="337.789136" style="fill: #ff7f0e; stroke: #ff7f0e"/>
     <use xlink:href="#m295a8b48be" x="401.429439" y="338.714379" style="fill: #ff7f0e; stroke: #ff7f0e"/>
     <use xlink:href="#m295a8b48be" x="417.657602" y="340.810547" style="fill: #ff7f0e; stroke: #ff7f0e"/>
     <use xlink:href="#m295a8b48be" x="433.885765" y="342.73264" style="fill: #ff7f0e; stroke: #ff7f0e"/>
     <use xlink:href="#m295a8b48be" x="450.113929" y="344.501475" style="fill: #ff7f0e; stroke: #ff7f0e"/>
     <use xlink:href="#m295a8b48be" x="466.342092" y="346.134682" style="fill: #ff7f0e; stroke: #ff7f0e"/>
     <use xlink:href="#m295a8b48be" x="482.570255" y="347.647282" style="fill: #ff7f0e; stroke: #ff7f0e"/>
     <use xlink:href="#m295a8b48be" x="498.798418" y="349.05216" style="fill: #ff7f0e; stroke: #ff7f0e"/>
     <use xlink:href="#m295a8b48be" x="515.026582" y="350.360427" style="fill: #ff7f0e; stroke: #ff7f0e"/>
     <use xlink:href="#m295a8b48be" x="531.254745" y="351.581718" style="fill: #ff7f0e; stroke: #ff7f0e"/>
     <use xlink:href="#m295a8b48be" x="547.482908" y="352.724428" style="fill: #ff7f0e; stroke: #ff7f0e"/>
     <use xlink:href="#m295a8b48be" x="563.711071" y="353.795903" style="fill: #ff7f0e; stroke: #ff7f0e"/>
     <use xlink:href="#m295a8b48be" x="579.939235" y="354.802605" style="fill: #ff7f0e; stroke: #ff7f0e"/>
     <use xlink:href="#m295a8b48be" x="596.167398" y="354.0556" style="fill: #ff7f0e; stroke: #ff7f0e"/>
     <use xlink:href="#m295a8b48be" x="612.395561" y="354.99751" style="fill: #ff7f0e; stroke: #ff7f0e"/>
     <use xlink:href="#m295a8b48be" x="628.623724" y="355.086861" style="fill: #ff7f0e; stroke: #ff7f0e"/>
     <use xlink:href="#m295a8b48be" x="644.851888" y="355.950162" style="fill: #ff7f0e; stroke: #ff7f0e"/>
     <use xlink:href="#m295a8b48be" x="661.080051" y="356.768125" style="fill: #ff7f0e; stroke: #ff7f0e"/>
     <use xlink:href="#m295a8b48be" x="677.308214" y="357.544231" style="fill: #ff7f0e; stroke: #ff7f0e"/>
     <use xlink:href="#m295a8b48be" x="693.536378" y="358.281613" style="fill: #ff7f0e; stroke: #ff7f0e"/>
    </g>
   </g>
   <g id="line2d_25">
    <path d="M 44.409847 40.548557 
L 55.228622 40.548557 
L 56.580969 75.203795 
L 57.933316 72.053318 
L 59.285663 98.307287 
L 60.63801 120.522183 
L 61.990357 139.563523 
L 63.342704 156.066017 
L 64.695051 148.846176 
L 66.047398 162.861162 
L 67.399745 156.066017 
L 68.752092 149.986151 
L 70.104439 144.514271 
L 71.456786 156.066017 
L 72.809133 166.567604 
L 74.16148 176.15601 
L 76.866173 193.031604 
L 79.570867 207.40711 
L 82.275561 219.799788 
L 84.980255 230.593411 
L 87.684949 240.078715 
L 90.389643 248.479985 
L 93.094337 255.97301 
L 94.446684 259.423745 
L 95.799031 253.81156 
L 98.503724 260.313481 
L 101.208418 266.210572 
L 103.913112 271.583477 
L 106.617806 276.499114 
L 109.3225 281.013474 
L 112.027194 285.173767 
L 114.731888 289.020075 
L 117.436582 292.586652 
L 121.493622 297.475322 
L 125.550663 301.883139 
L 129.607704 305.877723 
L 133.664745 309.514584 
L 137.721786 312.839713 
L 141.778827 315.891544 
L 145.835867 318.702441 
L 149.892908 321.299853 
L 155.302296 324.470989 
L 158.00699 325.944635 
L 159.359337 322.626076 
L 160.711684 323.367166 
L 162.064031 320.153318 
L 167.473418 323.064084 
L 172.882806 325.732287 
L 178.292194 328.187033 
L 185.053929 330.992457 
L 186.406276 328.25242 
L 193.16801 330.903254 
L 199.929745 333.325568 
L 208.043827 335.970258 
L 216.157908 338.367009 
L 224.27199 340.549125 
L 233.738418 342.860208 
L 243.204847 344.952675 
L 254.023622 347.114124 
L 255.375969 347.368817 
L 256.728316 345.426917 
L 268.899439 347.672822 
L 281.070561 349.689033 
L 294.594031 351.700425 
L 309.469847 353.677104 
L 325.69801 355.596176 
L 343.27852 357.441049 
L 362.211378 359.200534 
L 382.496582 360.867889 
L 397.372398 361.969276 
L 398.724745 360.747144 
L 400.077092 360.846969 
L 401.429439 359.638296 
L 424.419337 361.293845 
L 450.113929 362.922864 
L 469.046786 363.997445 
L 470.399133 362.973873 
L 500.150765 364.544274 
L 501.503112 363.588534 
L 533.959439 365.143073 
L 570.472806 366.663233 
L 574.529847 366.819246 
L 575.882194 365.991148 
L 578.586888 366.097763 
L 579.939235 365.27774 
L 583.996276 365.441414 
L 585.348622 364.631207 
L 606.986173 365.493355 
L 608.33852 364.715975 
L 639.4425 365.883445 
L 640.794847 365.147393 
L 644.851888 365.295394 
L 646.204235 364.567263 
L 648.908929 364.667859 
L 650.261276 363.94599 
L 669.194133 364.64614 
L 670.54648 363.947653 
L 671.898827 363.997445 
L 673.251173 363.303349 
L 680.012908 363.555977 
L 681.365255 362.87164 
L 682.717602 362.922864 
L 684.069949 362.24275 
L 685.422296 362.295083 
L 686.774643 361.619145 
L 696.241071 361.988446 
L 701.650459 359.348283 
L 703.002806 359.405153 
L 704.355153 358.753094 
L 705.7075 358.810947 
L 705.7075 358.810947 
" clip-path="url(#p5d74ec7f95)" style="fill: none; stroke: #2ca02c; stroke-width: 2; stroke-linecap: square"/>
    <defs>
     <path id="m9bb83f7c20" d="M 0 1.5 
C 0.397805 1.5 0.77937 1.341951 1.06066 1.06066 
C 1.341951 0.77937 1.5 0.397805 1.5 0 
C 1.5 -0.397805 1.341951 -0.77937 1.06066 -1.06066 
C 0.77937 -1.341951 0.397805 -1.5 0 -1.5 
C -0.397805 -1.5 -0.77937 -1.341951 -1.06066 -1.06066 
C -1.341951 -0.77937 -1.5 -0.397805 -1.5 0 
C -1.5 0.397805 -1.341951 0.77937 -1.06066 1.06066 
C -0.77937 1.341951 -0.397805 1.5 0 1.5 
z
" style="stroke: #2ca02c"/>
    </defs>
    <g clip-path="url(#p5d74ec7f95)">
     <use xlink:href="#m9bb83f7c20" x="44.409847" y="40.548557" style="fill: #2ca02c; stroke: #2ca02c"/>
     <use xlink:href="#m9bb83f7c20" x="60.63801" y="120.522183" style="fill: #2ca02c; stroke: #2ca02c"/>
     <use xlink:href="#m9bb83f7c20" x="76.866173" y="193.031604" style="fill: #2ca02c; stroke: #2ca02c"/>
     <use xlink:href="#m9bb83f7c20" x="93.094337" y="255.97301" style="fill: #2ca02c; stroke: #2ca02c"/>
     <use xlink:href="#m9bb83f7c20" x="109.3225" y="281.013474" style="fill: #2ca02c; stroke: #2ca02c"/>
     <use xlink:href="#m9bb83f7c20" x="125.550663" y="301.883139" style="fill: #2ca02c; stroke: #2ca02c"/>
     <use xlink:href="#m9bb83f7c20" x="141.778827" y="315.891544" style="fill: #2ca02c; stroke: #2ca02c"/>
     <use xlink:href="#m9bb83f7c20" x="158.00699" y="325.944635" style="fill: #2ca02c; stroke: #2ca02c"/>
     <use xlink:href="#m9bb83f7c20" x="174.235153" y="326.364953" style="fill: #2ca02c; stroke: #2ca02c"/>
     <use xlink:href="#m9bb83f7c20" x="190.463316" y="329.872104" style="fill: #2ca02c; stroke: #2ca02c"/>
     <use xlink:href="#m9bb83f7c20" x="206.69148" y="335.547691" style="fill: #2ca02c; stroke: #2ca02c"/>
     <use xlink:href="#m9bb83f7c20" x="222.919643" y="340.199112" style="fill: #2ca02c; stroke: #2ca02c"/>
     <use xlink:href="#m9bb83f7c20" x="239.147806" y="344.080642" style="fill: #2ca02c; stroke: #2ca02c"/>
     <use xlink:href="#m9bb83f7c20" x="255.375969" y="347.368817" style="fill: #2ca02c; stroke: #2ca02c"/>
     <use xlink:href="#m9bb83f7c20" x="271.604133" y="348.139427" style="fill: #2ca02c; stroke: #2ca02c"/>
     <use xlink:href="#m9bb83f7c20" x="287.832296" y="350.722511" style="fill: #2ca02c; stroke: #2ca02c"/>
     <use xlink:href="#m9bb83f7c20" x="304.060459" y="352.984382" style="fill: #2ca02c; stroke: #2ca02c"/>
     <use xlink:href="#m9bb83f7c20" x="320.288622" y="354.981449" style="fill: #2ca02c; stroke: #2ca02c"/>
     <use xlink:href="#m9bb83f7c20" x="336.516786" y="356.757641" style="fill: #2ca02c; stroke: #2ca02c"/>
     <use xlink:href="#m9bb83f7c20" x="352.744949" y="358.347683" style="fill: #2ca02c; stroke: #2ca02c"/>
     <use xlink:href="#m9bb83f7c20" x="368.973112" y="359.77938" style="fill: #2ca02c; stroke: #2ca02c"/>
     <use xlink:href="#m9bb83f7c20" x="385.201276" y="361.075265" style="fill: #2ca02c; stroke: #2ca02c"/>
     <use xlink:href="#m9bb83f7c20" x="401.429439" y="359.638296" style="fill: #2ca02c; stroke: #2ca02c"/>
     <use xlink:href="#m9bb83f7c20" x="417.657602" y="360.828013" style="fill: #2ca02c; stroke: #2ca02c"/>
     <use xlink:href="#m9bb83f7c20" x="433.885765" y="361.918931" style="fill: #2ca02c; stroke: #2ca02c"/>
     <use xlink:href="#m9bb83f7c20" x="450.113929" y="362.922864" style="fill: #2ca02c; stroke: #2ca02c"/>
     <use xlink:href="#m9bb83f7c20" x="466.342092" y="363.849819" style="fill: #2ca02c; stroke: #2ca02c"/>
     <use xlink:href="#m9bb83f7c20" x="482.570255" y="363.642007" style="fill: #2ca02c; stroke: #2ca02c"/>
     <use xlink:href="#m9bb83f7c20" x="498.798418" y="364.47734" style="fill: #2ca02c; stroke: #2ca02c"/>
     <use xlink:href="#m9bb83f7c20" x="515.026582" y="364.262242" style="fill: #2ca02c; stroke: #2ca02c"/>
     <use xlink:href="#m9bb83f7c20" x="531.254745" y="365.021423" style="fill: #2ca02c; stroke: #2ca02c"/>
     <use xlink:href="#m9bb83f7c20" x="547.482908" y="365.731756" style="fill: #2ca02c; stroke: #2ca02c"/>
     <use xlink:href="#m9bb83f7c20" x="563.711071" y="366.397808" style="fill: #2ca02c; stroke: #2ca02c"/>
     <use xlink:href="#m9bb83f7c20" x="579.939235" y="365.27774" style="fill: #2ca02c; stroke: #2ca02c"/>
     <use xlink:href="#m9bb83f7c20" x="596.167398" y="365.070713" style="fill: #2ca02c; stroke: #2ca02c"/>
     <use xlink:href="#m9bb83f7c20" x="612.395561" y="364.875488" style="fill: #2ca02c; stroke: #2ca02c"/>
     <use xlink:href="#m9bb83f7c20" x="628.623724" y="365.491436" style="fill: #2ca02c; stroke: #2ca02c"/>
     <use xlink:href="#m9bb83f7c20" x="644.851888" y="365.295394" style="fill: #2ca02c; stroke: #2ca02c"/>
     <use xlink:href="#m9bb83f7c20" x="661.080051" y="364.351328" style="fill: #2ca02c; stroke: #2ca02c"/>
     <use xlink:href="#m9bb83f7c20" x="677.308214" y="363.455572" style="fill: #2ca02c; stroke: #2ca02c"/>
     <use xlink:href="#m9bb83f7c20" x="693.536378" y="361.884028" style="fill: #2ca02c; stroke: #2ca02c"/>
    </g>
   </g>
   <g id="line2d_26">
    <path d="M 44.409847 40.548557 
L 45.762194 213.824747 
L 47.114541 156.066017 
L 48.466888 127.186652 
L 49.819235 179.169509 
L 51.171582 213.824747 
L 52.523929 238.578489 
L 53.876276 257.143795 
L 55.228622 271.583477 
L 56.580969 283.135223 
L 57.933316 292.586652 
L 59.285663 300.462842 
L 60.63801 307.127311 
L 61.990357 312.839713 
L 63.342704 317.790461 
L 64.695051 322.122366 
L 66.047398 325.944635 
L 67.399745 329.342207 
L 68.752092 332.382141 
L 70.104439 335.11808 
L 72.809133 339.843795 
L 75.513827 343.78189 
L 78.21852 347.114124 
L 80.923214 349.970325 
L 83.627908 352.445699 
L 86.332602 354.611652 
L 89.037296 356.522786 
L 91.74199 358.221572 
L 95.799031 360.443062 
L 99.856071 362.347196 
L 103.913112 363.997445 
L 107.970153 365.441414 
L 113.379541 367.107531 
L 118.788929 368.535631 
L 125.550663 370.057378 
L 132.312398 371.348557 
L 140.42648 372.661255 
L 149.892908 373.940721 
L 160.711684 375.150855 
L 172.882806 376.271176 
L 186.406276 377.292851 
L 202.634439 378.290284 
L 221.567296 379.224747 
L 222.919643 376.67831 
L 243.204847 377.734657 
L 266.194745 378.699668 
L 274.308827 378.994449 
L 275.661173 377.02674 
L 301.355765 378.028886 
L 331.107398 378.965905 
L 341.926173 379.260386 
L 343.27852 377.734657 
L 344.630867 377.776658 
L 348.687908 373.300179 
L 356.80199 373.657095 
L 358.154337 372.227445 
L 359.506684 372.291007 
L 362.211378 369.47963 
L 364.916071 369.627708 
L 366.268418 368.250808 
L 387.905969 369.433561 
L 389.258316 368.148854 
L 413.600561 369.393882 
L 421.714643 362.347196 
L 428.476378 356.701606 
L 433.885765 357.122358 
L 435.238112 356.030724 
L 459.580357 357.846516 
L 477.160867 359.031274 
L 478.513214 358.042197 
L 479.865561 358.132163 
L 483.922602 355.209614 
L 494.741378 355.973478 
L 496.093724 355.031911 
L 523.140663 356.838617 
L 543.425867 358.065468 
L 546.130561 356.358388 
L 577.234541 358.14846 
L 585.348622 358.581664 
L 586.700969 357.790537 
L 590.75801 358.007651 
L 592.110357 357.225732 
L 627.271378 359.023777 
L 655.670663 360.325367 
L 657.02301 359.621013 
L 659.727704 359.741539 
L 662.432398 358.347683 
L 663.784745 358.410326 
L 666.489439 357.031317 
L 705.7075 358.810947 
L 705.7075 358.810947 
" clip-path="url(#p5d74ec7f95)" style="fill: none; stroke: #9467bd; stroke-width: 2; stroke-linecap: square"/>
    <defs>
     <path id="md52d2cf7cf" d="M 0 1.5 
C 0.397805 1.5 0.77937 1.341951 1.06066 1.06066 
C 1.341951 0.77937 1.5 0.397805 1.5 0 
C 1.5 -0.397805 1.341951 -0.77937 1.06066 -1.06066 
C 0.77937 -1.341951 0.397805 -1.5 0 -1.5 
C -0.397805 -1.5 -0.77937 -1.341951 -1.06066 -1.06066 
C -1.341951 -0.77937 -1.5 -0.397805 -1.5 0 
C -1.5 0.397805 -1.341951 0.77937 -1.06066 1.06066 
C -0.77937 1.341951 -0.397805 1.5 0 1.5 
z
" style="stroke: #9467bd"/>
    </defs>
    <g clip-path="url(#p5d74ec7f95)">
     <use xlink:href="#md52d2cf7cf" x="44.409847" y="40.548557" style="fill: #9467bd; stroke: #9467bd"/>
     <use xlink:href="#md52d2cf7cf" x="60.63801" y="307.127311" style="fill: #9467bd; stroke: #9467bd"/>
     <use xlink:href="#md52d2cf7cf" x="76.866173" y="345.514652" style="fill: #9467bd; stroke: #9467bd"/>
     <use xlink:href="#md52d2cf7cf" x="93.094337" y="359.002096" style="fill: #9467bd; stroke: #9467bd"/>
     <use xlink:href="#md52d2cf7cf" x="109.3225" y="365.883445" style="fill: #9467bd; stroke: #9467bd"/>
     <use xlink:href="#md52d2cf7cf" x="125.550663" y="370.057378" style="fill: #9467bd; stroke: #9467bd"/>
     <use xlink:href="#md52d2cf7cf" x="141.778827" y="372.859059" style="fill: #9467bd; stroke: #9467bd"/>
     <use xlink:href="#md52d2cf7cf" x="158.00699" y="374.869677" style="fill: #9467bd; stroke: #9467bd"/>
     <use xlink:href="#md52d2cf7cf" x="174.235153" y="376.382823" style="fill: #9467bd; stroke: #9467bd"/>
     <use xlink:href="#md52d2cf7cf" x="190.463316" y="377.562799" style="fill: #9467bd; stroke: #9467bd"/>
     <use xlink:href="#md52d2cf7cf" x="206.69148" y="378.50873" style="fill: #9467bd; stroke: #9467bd"/>
     <use xlink:href="#md52d2cf7cf" x="222.919643" y="376.67831" style="fill: #9467bd; stroke: #9467bd"/>
     <use xlink:href="#md52d2cf7cf" x="239.147806" y="377.540872" style="fill: #9467bd; stroke: #9467bd"/>
     <use xlink:href="#md52d2cf7cf" x="255.375969" y="378.271577" style="fill: #9467bd; stroke: #9467bd"/>
     <use xlink:href="#md52d2cf7cf" x="271.604133" y="378.898514" style="fill: #9467bd; stroke: #9467bd"/>
     <use xlink:href="#md52d2cf7cf" x="287.832296" y="377.527667" style="fill: #9467bd; stroke: #9467bd"/>
     <use xlink:href="#md52d2cf7cf" x="304.060459" y="378.122897" style="fill: #9467bd; stroke: #9467bd"/>
     <use xlink:href="#md52d2cf7cf" x="320.288622" y="378.64844" style="fill: #9467bd; stroke: #9467bd"/>
     <use xlink:href="#md52d2cf7cf" x="336.516786" y="379.11586" style="fill: #9467bd; stroke: #9467bd"/>
     <use xlink:href="#md52d2cf7cf" x="352.744949" y="373.480975" style="fill: #9467bd; stroke: #9467bd"/>
     <use xlink:href="#md52d2cf7cf" x="368.973112" y="368.407241" style="fill: #9467bd; stroke: #9467bd"/>
     <use xlink:href="#md52d2cf7cf" x="385.201276" y="369.293898" style="fill: #9467bd; stroke: #9467bd"/>
     <use xlink:href="#md52d2cf7cf" x="401.429439" y="368.79251" style="fill: #9467bd; stroke: #9467bd"/>
     <use xlink:href="#md52d2cf7cf" x="417.657602" y="365.83238" style="fill: #9467bd; stroke: #9467bd"/>
     <use xlink:href="#md52d2cf7cf" x="433.885765" y="357.122358" style="fill: #9467bd; stroke: #9467bd"/>
     <use xlink:href="#md52d2cf7cf" x="450.113929" y="357.16618" style="fill: #9467bd; stroke: #9467bd"/>
     <use xlink:href="#md52d2cf7cf" x="466.342092" y="358.313839" style="fill: #9467bd; stroke: #9467bd"/>
     <use xlink:href="#md52d2cf7cf" x="482.570255" y="356.177802" style="fill: #9467bd; stroke: #9467bd"/>
     <use xlink:href="#md52d2cf7cf" x="498.798418" y="355.222232" style="fill: #9467bd; stroke: #9467bd"/>
     <use xlink:href="#md52d2cf7cf" x="515.026582" y="356.318348" style="fill: #9467bd; stroke: #9467bd"/>
     <use xlink:href="#md52d2cf7cf" x="531.254745" y="357.341592" style="fill: #9467bd; stroke: #9467bd"/>
     <use xlink:href="#md52d2cf7cf" x="547.482908" y="356.440807" style="fill: #9467bd; stroke: #9467bd"/>
     <use xlink:href="#md52d2cf7cf" x="563.711071" y="357.396448" style="fill: #9467bd; stroke: #9467bd"/>
     <use xlink:href="#md52d2cf7cf" x="579.939235" y="358.294316" style="fill: #9467bd; stroke: #9467bd"/>
     <use xlink:href="#md52d2cf7cf" x="596.167398" y="357.444866" style="fill: #9467bd; stroke: #9467bd"/>
     <use xlink:href="#md52d2cf7cf" x="612.395561" y="358.290169" style="fill: #9467bd; stroke: #9467bd"/>
     <use xlink:href="#md52d2cf7cf" x="628.623724" y="359.08862" style="fill: #9467bd; stroke: #9467bd"/>
     <use xlink:href="#md52d2cf7cf" x="644.851888" y="359.844009" style="fill: #9467bd; stroke: #9467bd"/>
     <use xlink:href="#md52d2cf7cf" x="661.080051" y="359.043086" style="fill: #9467bd; stroke: #9467bd"/>
     <use xlink:href="#md52d2cf7cf" x="677.308214" y="357.544231" style="fill: #9467bd; stroke: #9467bd"/>
     <use xlink:href="#md52d2cf7cf" x="693.536378" y="358.281613" style="fill: #9467bd; stroke: #9467bd"/>
    </g>
   </g>
   <g id="line2d_27">
    <path d="M 44.409847 387.100937 
L 45.762194 213.824747 
L 47.114541 156.066017 
L 48.466888 127.186652 
L 49.819235 109.859033 
L 51.171582 98.307287 
L 52.523929 90.05604 
L 53.876276 83.867604 
L 55.228622 79.054377 
L 56.580969 75.203795 
L 57.933316 72.053318 
L 59.285663 69.427922 
L 60.63801 67.206432 
L 61.990357 65.302298 
L 63.342704 63.652049 
L 64.695051 83.867604 
L 66.047398 101.704859 
L 67.399745 117.560197 
L 68.752092 131.746552 
L 70.104439 144.514271 
L 71.456786 156.066017 
L 72.809133 166.567604 
L 74.16148 176.15601 
L 76.866173 193.031604 
L 79.570867 207.40711 
L 82.275561 219.799788 
L 84.980255 230.593411 
L 87.684949 240.078715 
L 90.389643 248.479985 
L 93.094337 255.97301 
L 95.799031 262.697519 
L 98.503724 268.765978 
L 101.208418 274.26993 
L 103.913112 279.284641 
L 106.617806 283.872569 
L 109.3225 288.085972 
L 112.027194 291.968911 
L 114.731888 295.558799 
L 117.436582 298.887604 
L 121.493622 303.450363 
L 125.550663 307.564325 
L 126.90301 308.847174 
L 128.255357 304.588466 
L 132.312398 308.339033 
L 136.369439 311.763463 
L 140.42648 314.902525 
L 144.48352 317.790461 
L 148.540561 320.456249 
L 153.949949 323.707209 
L 159.359337 326.655755 
L 164.768724 329.342207 
L 170.178112 331.800026 
L 176.939847 334.593001 
L 183.701582 337.117421 
L 190.463316 339.410243 
L 198.577398 341.898453 
L 206.69148 344.139899 
L 214.805561 346.169554 
L 224.27199 348.307761 
L 235.090765 350.493292 
L 245.909541 352.445699 
L 258.080663 354.407317 
L 271.604133 356.34185 
L 286.479949 358.221572 
L 302.708112 360.026533 
L 304.060459 360.166815 
L 305.412806 358.519298 
L 308.1175 358.810947 
L 309.469847 357.195402 
L 325.69801 358.912466 
L 335.164439 359.825982 
L 336.516786 358.354657 
L 355.449643 360.096856 
L 375.734847 361.743446 
L 398.724745 363.382524 
L 424.419337 364.980573 
L 452.818622 366.513667 
L 483.922602 367.966143 
L 519.083622 369.379509 
L 558.301684 370.728384 
L 602.929133 372.033443 
L 648.908929 373.176958 
L 661.080051 366.626289 
L 669.194133 362.40066 
L 688.12699 363.125616 
L 697.593418 358.460245 
L 705.7075 358.810947 
L 705.7075 358.810947 
" clip-path="url(#p5d74ec7f95)" style="fill: none; stroke: #8c564b; stroke-width: 2; stroke-linecap: square"/>
    <defs>
     <path id="mae17e41dd8" d="M 0 1.5 
C 0.397805 1.5 0.77937 1.341951 1.06066 1.06066 
C 1.341951 0.77937 1.5 0.397805 1.5 0 
C 1.5 -0.397805 1.341951 -0.77937 1.06066 -1.06066 
C 0.77937 -1.341951 0.397805 -1.5 0 -1.5 
C -0.397805 -1.5 -0.77937 -1.341951 -1.06066 -1.06066 
C -1.341951 -0.77937 -1.5 -0.397805 -1.5 0 
C -1.5 0.397805 -1.341951 0.77937 -1.06066 1.06066 
C -0.77937 1.341951 -0.397805 1.5 0 1.5 
z
" style="stroke: #8c564b"/>
    </defs>
    <g clip-path="url(#p5d74ec7f95)">
     <use xlink:href="#mae17e41dd8" x="44.409847" y="387.100937" style="fill: #8c564b; stroke: #8c564b"/>
     <use xlink:href="#mae17e41dd8" x="60.63801" y="67.206432" style="fill: #8c564b; stroke: #8c564b"/>
     <use xlink:href="#mae17e41dd8" x="76.866173" y="193.031604" style="fill: #8c564b; stroke: #8c564b"/>
     <use xlink:href="#mae17e41dd8" x="93.094337" y="255.97301" style="fill: #8c564b; stroke: #8c564b"/>
     <use xlink:href="#mae17e41dd8" x="109.3225" y="288.085972" style="fill: #8c564b; stroke: #8c564b"/>
     <use xlink:href="#mae17e41dd8" x="125.550663" y="307.564325" style="fill: #8c564b; stroke: #8c564b"/>
     <use xlink:href="#mae17e41dd8" x="141.778827" y="315.891544" style="fill: #8c564b; stroke: #8c564b"/>
     <use xlink:href="#mae17e41dd8" x="158.00699" y="325.944635" style="fill: #8c564b; stroke: #8c564b"/>
     <use xlink:href="#mae17e41dd8" x="174.235153" y="333.510363" style="fill: #8c564b; stroke: #8c564b"/>
     <use xlink:href="#mae17e41dd8" x="190.463316" y="339.410243" style="fill: #8c564b; stroke: #8c564b"/>
     <use xlink:href="#mae17e41dd8" x="206.69148" y="344.139899" style="fill: #8c564b; stroke: #8c564b"/>
     <use xlink:href="#mae17e41dd8" x="222.919643" y="348.016083" style="fill: #8c564b; stroke: #8c564b"/>
     <use xlink:href="#mae17e41dd8" x="239.147806" y="351.250691" style="fill: #8c564b; stroke: #8c564b"/>
     <use xlink:href="#mae17e41dd8" x="255.375969" y="353.990837" style="fill: #8c564b; stroke: #8c564b"/>
     <use xlink:href="#mae17e41dd8" x="271.604133" y="356.34185" style="fill: #8c564b; stroke: #8c564b"/>
     <use xlink:href="#mae17e41dd8" x="287.832296" y="358.381127" style="fill: #8c564b; stroke: #8c564b"/>
     <use xlink:href="#mae17e41dd8" x="304.060459" y="360.166815" style="fill: #8c564b; stroke: #8c564b"/>
     <use xlink:href="#mae17e41dd8" x="320.288622" y="358.362447" style="fill: #8c564b; stroke: #8c564b"/>
     <use xlink:href="#mae17e41dd8" x="336.516786" y="358.354657" style="fill: #8c564b; stroke: #8c564b"/>
     <use xlink:href="#mae17e41dd8" x="352.744949" y="359.861012" style="fill: #8c564b; stroke: #8c564b"/>
     <use xlink:href="#mae17e41dd8" x="368.973112" y="361.217357" style="fill: #8c564b; stroke: #8c564b"/>
     <use xlink:href="#mae17e41dd8" x="385.201276" y="362.445037" style="fill: #8c564b; stroke: #8c564b"/>
     <use xlink:href="#mae17e41dd8" x="401.429439" y="363.56153" style="fill: #8c564b; stroke: #8c564b"/>
     <use xlink:href="#mae17e41dd8" x="417.657602" y="364.581288" style="fill: #8c564b; stroke: #8c564b"/>
     <use xlink:href="#mae17e41dd8" x="433.885765" y="365.51636" style="fill: #8c564b; stroke: #8c564b"/>
     <use xlink:href="#mae17e41dd8" x="450.113929" y="366.376875" style="fill: #8c564b; stroke: #8c564b"/>
     <use xlink:href="#mae17e41dd8" x="466.342092" y="367.171408" style="fill: #8c564b; stroke: #8c564b"/>
     <use xlink:href="#mae17e41dd8" x="482.570255" y="367.907267" style="fill: #8c564b; stroke: #8c564b"/>
     <use xlink:href="#mae17e41dd8" x="498.798418" y="368.590721" style="fill: #8c564b; stroke: #8c564b"/>
     <use xlink:href="#mae17e41dd8" x="515.026582" y="369.227176" style="fill: #8c564b; stroke: #8c564b"/>
     <use xlink:href="#mae17e41dd8" x="531.254745" y="369.821317" style="fill: #8c564b; stroke: #8c564b"/>
     <use xlink:href="#mae17e41dd8" x="547.482908" y="370.37723" style="fill: #8c564b; stroke: #8c564b"/>
     <use xlink:href="#mae17e41dd8" x="563.711071" y="370.898489" style="fill: #8c564b; stroke: #8c564b"/>
     <use xlink:href="#mae17e41dd8" x="579.939235" y="371.388235" style="fill: #8c564b; stroke: #8c564b"/>
     <use xlink:href="#mae17e41dd8" x="596.167398" y="371.849243" style="fill: #8c564b; stroke: #8c564b"/>
     <use xlink:href="#mae17e41dd8" x="612.395561" y="372.283971" style="fill: #8c564b; stroke: #8c564b"/>
     <use xlink:href="#mae17e41dd8" x="628.623724" y="372.694603" style="fill: #8c564b; stroke: #8c564b"/>
     <use xlink:href="#mae17e41dd8" x="644.851888" y="373.083088" style="fill: #8c564b; stroke: #8c564b"/>
     <use xlink:href="#mae17e41dd8" x="661.080051" y="366.626289" style="fill: #8c564b; stroke: #8c564b"/>
     <use xlink:href="#mae17e41dd8" x="677.308214" y="362.716655" style="fill: #8c564b; stroke: #8c564b"/>
     <use xlink:href="#mae17e41dd8" x="693.536378" y="360.443062" style="fill: #8c564b; stroke: #8c564b"/>
    </g>
   </g>
   <g id="line2d_28">
    <path d="M 44.409847 387.100937 
L 45.762194 213.824747 
L 47.114541 271.583477 
L 48.466888 213.824747 
L 49.819235 179.169509 
L 51.171582 156.066017 
L 52.523929 139.563523 
L 53.876276 127.186652 
L 55.228622 117.560197 
L 56.580969 109.859033 
L 57.933316 103.55808 
L 59.285663 98.307287 
L 60.63801 93.864307 
L 61.990357 114.809781 
L 63.342704 109.859033 
L 64.695051 127.186652 
L 66.047398 142.475727 
L 67.399745 136.813107 
L 68.752092 149.986151 
L 70.104439 161.84189 
L 71.456786 172.568511 
L 72.809133 166.567604 
L 74.16148 176.15601 
L 76.866173 165.307414 
L 79.570867 181.736564 
L 80.923214 189.071006 
L 83.627908 179.169509 
L 86.332602 192.165223 
L 87.684949 198.072366 
L 89.037296 193.439313 
L 91.74199 204.198292 
L 94.446684 213.824747 
L 97.151378 222.488557 
L 98.503724 218.050996 
L 101.208418 225.913784 
L 102.560765 221.700937 
L 103.913112 225.376493 
L 105.265459 221.358494 
L 107.970153 228.26443 
L 110.674847 234.61789 
L 113.379541 240.482622 
L 114.731888 236.710282 
L 117.436582 242.179033 
L 118.788929 238.578489 
L 121.493622 243.699952 
L 122.845969 240.256708 
L 125.550663 245.071273 
L 126.90301 247.362074 
L 128.255357 244.07932 
L 132.312398 250.580303 
L 136.369439 256.515982 
L 139.074133 260.194432 
L 140.42648 257.143795 
L 143.131173 260.65615 
L 144.48352 257.721382 
L 145.835867 259.423745 
L 147.188214 256.58121 
L 151.245255 261.475699 
L 155.302296 266.016371 
L 159.359337 270.240251 
L 163.416378 274.179375 
L 166.121071 276.661168 
L 167.473418 274.094726 
L 171.530459 277.663344 
L 172.882806 278.803318 
L 174.235153 276.347084 
L 176.939847 278.584535 
L 178.292194 276.204176 
L 183.701582 280.469436 
L 189.110969 284.418751 
L 193.16801 287.193945 
L 194.520357 284.991754 
L 199.929745 288.51276 
L 202.634439 290.183746 
L 203.986786 288.085972 
L 209.396173 291.30597 
L 213.453214 293.586803 
L 214.805561 291.594376 
L 221.567296 295.212049 
L 228.329031 298.565658 
L 233.738418 301.077297 
L 235.090765 299.242587 
L 241.8525 302.230967 
L 249.966582 305.559201 
L 258.080663 308.636247 
L 266.194745 311.489509 
L 275.661173 314.566718 
L 285.127602 317.403252 
L 294.594031 320.026283 
L 305.412806 322.792248 
L 316.231582 325.339127 
L 328.402704 327.973517 
L 340.573827 330.392366 
L 354.097296 332.857956 
L 366.268418 334.900579 
L 367.620765 333.674112 
L 382.496582 336.015527 
L 398.724745 338.34642 
L 416.305255 340.642828 
L 435.238112 342.885634 
L 439.295153 343.33835 
L 440.6475 342.308453 
L 460.932704 344.482845 
L 464.989745 344.892635 
L 466.342092 343.920289 
L 487.979643 346.02026 
L 512.321888 348.151246 
L 538.01648 350.173225 
L 566.415765 352.177054 
L 597.519745 354.136199 
L 631.328418 356.030724 
L 667.841786 357.846516 
L 703.002806 359.405153 
L 704.355153 358.753094 
L 705.7075 358.810947 
L 705.7075 358.810947 
" clip-path="url(#p5d74ec7f95)" style="fill: none; stroke: #e377c2; stroke-width: 2; stroke-linecap: square"/>
    <defs>
     <path id="mdcc3c643ff" d="M 0 1.5 
C 0.397805 1.5 0.77937 1.341951 1.06066 1.06066 
C 1.341951 0.77937 1.5 0.397805 1.5 0 
C 1.5 -0.397805 1.341951 -0.77937 1.06066 -1.06066 
C 0.77937 -1.341951 0.397805 -1.5 0 -1.5 
C -0.397805 -1.5 -0.77937 -1.341951 -1.06066 -1.06066 
C -1.341951 -0.77937 -1.5 -0.397805 -1.5 0 
C -1.5 0.397805 -1.341951 0.77937 -1.06066 1.06066 
C -0.77937 1.341951 -0.397805 1.5 0 1.5 
z
" style="stroke: #e377c2"/>
    </defs>
    <g clip-path="url(#p5d74ec7f95)">
     <use xlink:href="#mdcc3c643ff" x="44.409847" y="387.100937" style="fill: #e377c2; stroke: #e377c2"/>
     <use xlink:href="#mdcc3c643ff" x="60.63801" y="93.864307" style="fill: #e377c2; stroke: #e377c2"/>
     <use xlink:href="#mdcc3c643ff" x="76.866173" y="165.307414" style="fill: #e377c2; stroke: #e377c2"/>
     <use xlink:href="#mdcc3c643ff" x="93.094337" y="209.141607" style="fill: #e377c2; stroke: #e377c2"/>
     <use xlink:href="#mdcc3c643ff" x="109.3225" y="231.505991" style="fill: #e377c2; stroke: #e377c2"/>
     <use xlink:href="#mdcc3c643ff" x="125.550663" y="245.071273" style="fill: #e377c2; stroke: #e377c2"/>
     <use xlink:href="#mdcc3c643ff" x="141.778827" y="258.924029" style="fill: #e377c2; stroke: #e377c2"/>
     <use xlink:href="#mdcc3c643ff" x="158.00699" y="268.865419" style="fill: #e377c2; stroke: #e377c2"/>
     <use xlink:href="#mdcc3c643ff" x="174.235153" y="276.347084" style="fill: #e377c2; stroke: #e377c2"/>
     <use xlink:href="#mdcc3c643ff" x="190.463316" y="285.360789" style="fill: #e377c2; stroke: #e377c2"/>
     <use xlink:href="#mdcc3c643ff" x="206.69148" y="289.722583" style="fill: #e377c2; stroke: #e377c2"/>
     <use xlink:href="#mdcc3c643ff" x="222.919643" y="295.902943" style="fill: #e377c2; stroke: #e377c2"/>
     <use xlink:href="#mdcc3c643ff" x="239.147806" y="301.060346" style="fill: #e377c2; stroke: #e377c2"/>
     <use xlink:href="#mdcc3c643ff" x="255.375969" y="307.636697" style="fill: #e377c2; stroke: #e377c2"/>
     <use xlink:href="#mdcc3c643ff" x="271.604133" y="313.279129" style="fill: #e377c2; stroke: #e377c2"/>
     <use xlink:href="#mdcc3c643ff" x="287.832296" y="318.173392" style="fill: #e377c2; stroke: #e377c2"/>
     <use xlink:href="#mdcc3c643ff" x="304.060459" y="322.459043" style="fill: #e377c2; stroke: #e377c2"/>
     <use xlink:href="#mdcc3c643ff" x="320.288622" y="326.242958" style="fill: #e377c2; stroke: #e377c2"/>
     <use xlink:href="#mdcc3c643ff" x="336.516786" y="329.608377" style="fill: #e377c2; stroke: #e377c2"/>
     <use xlink:href="#mdcc3c643ff" x="352.744949" y="332.621087" style="fill: #e377c2; stroke: #e377c2"/>
     <use xlink:href="#mdcc3c643ff" x="368.973112" y="333.8958" style="fill: #e377c2; stroke: #e377c2"/>
     <use xlink:href="#mdcc3c643ff" x="385.201276" y="336.419364" style="fill: #e377c2; stroke: #e377c2"/>
     <use xlink:href="#mdcc3c643ff" x="401.429439" y="338.714379" style="fill: #e377c2; stroke: #e377c2"/>
     <use xlink:href="#mdcc3c643ff" x="417.657602" y="340.810547" style="fill: #e377c2; stroke: #e377c2"/>
     <use xlink:href="#mdcc3c643ff" x="433.885765" y="342.73264" style="fill: #e377c2; stroke: #e377c2"/>
     <use xlink:href="#mdcc3c643ff" x="450.113929" y="343.350139" style="fill: #e377c2; stroke: #e377c2"/>
     <use xlink:href="#mdcc3c643ff" x="466.342092" y="343.920289" style="fill: #e377c2; stroke: #e377c2"/>
     <use xlink:href="#mdcc3c643ff" x="482.570255" y="345.514652" style="fill: #e377c2; stroke: #e377c2"/>
     <use xlink:href="#mdcc3c643ff" x="498.798418" y="346.995469" style="fill: #e377c2; stroke: #e377c2"/>
     <use xlink:href="#mdcc3c643ff" x="515.026582" y="348.374454" style="fill: #e377c2; stroke: #e377c2"/>
     <use xlink:href="#mdcc3c643ff" x="531.254745" y="349.661761" style="fill: #e377c2; stroke: #e377c2"/>
     <use xlink:href="#mdcc3c643ff" x="547.482908" y="350.866238" style="fill: #e377c2; stroke: #e377c2"/>
     <use xlink:href="#mdcc3c643ff" x="563.711071" y="351.995631" style="fill: #e377c2; stroke: #e377c2"/>
     <use xlink:href="#mdcc3c643ff" x="579.939235" y="353.056749" style="fill: #e377c2; stroke: #e377c2"/>
     <use xlink:href="#mdcc3c643ff" x="596.167398" y="354.0556" style="fill: #e377c2; stroke: #e377c2"/>
     <use xlink:href="#mdcc3c643ff" x="612.395561" y="354.99751" style="fill: #e377c2; stroke: #e377c2"/>
     <use xlink:href="#mdcc3c643ff" x="628.623724" y="355.887213" style="fill: #e377c2; stroke: #e377c2"/>
     <use xlink:href="#mdcc3c643ff" x="644.851888" y="356.728931" style="fill: #e377c2; stroke: #e377c2"/>
     <use xlink:href="#mdcc3c643ff" x="661.080051" y="357.526445" style="fill: #e377c2; stroke: #e377c2"/>
     <use xlink:href="#mdcc3c643ff" x="677.308214" y="358.283149" style="fill: #e377c2; stroke: #e377c2"/>
     <use xlink:href="#mdcc3c643ff" x="693.536378" y="359.002096" style="fill: #e377c2; stroke: #e377c2"/>
    </g>
   </g>
   <g id="line2d_29">
    <path d="M 44.409847 387.100937 
L 45.762194 387.100937 
L 47.114541 271.583477 
L 48.466888 213.824747 
L 49.819235 179.169509 
L 51.171582 156.066017 
L 52.523929 139.563523 
L 53.876276 127.186652 
L 55.228622 117.560197 
L 56.580969 109.859033 
L 57.933316 103.55808 
L 59.285663 98.307287 
L 60.63801 93.864307 
L 61.990357 90.05604 
L 63.342704 86.755541 
L 64.695051 83.867604 
L 66.047398 81.319425 
L 67.399745 79.054377 
L 68.752092 77.027755 
L 70.104439 75.203795 
L 71.456786 90.05604 
L 72.809133 103.55808 
L 74.16148 115.886031 
L 76.866173 109.859033 
L 78.21852 120.522183 
L 79.570867 117.560197 
L 82.275561 136.149213 
L 84.980255 152.339647 
L 87.684949 145.56443 
L 89.037296 142.475727 
L 91.74199 156.066017 
L 94.446684 168.22575 
L 97.151378 179.169509 
L 99.856071 189.071006 
L 102.560765 198.072366 
L 105.265459 206.291 
L 107.970153 213.824747 
L 110.674847 220.755795 
L 113.379541 227.153685 
L 114.731888 230.171557 
L 116.084235 226.66002 
L 118.788929 232.390053 
L 120.141276 235.104279 
L 122.845969 228.50917 
L 124.198316 231.152366 
L 125.550663 228.027713 
L 128.255357 233.077657 
L 132.312398 240.078715 
L 136.369439 246.470986 
L 137.721786 248.479985 
L 139.074133 245.551373 
L 143.131173 251.289869 
L 147.188214 256.58121 
L 151.245255 261.475699 
L 153.949949 264.53973 
L 155.302296 261.841041 
L 158.00699 264.788332 
L 159.359337 262.180893 
L 163.416378 266.391681 
L 167.473418 270.327853 
L 171.530459 274.015424 
L 176.939847 278.584535 
L 179.644541 280.733375 
L 180.996888 278.378622 
L 186.406276 282.481351 
L 191.815663 286.285699 
L 197.225051 289.823076 
L 202.634439 293.120631 
L 209.396173 296.940968 
L 216.157908 300.462842 
L 222.919643 303.719914 
L 229.681378 306.740965 
L 237.795459 310.089297 
L 245.909541 313.169763 
L 251.318929 315.090053 
L 252.671276 313.318818 
L 258.080663 315.174972 
L 259.43301 313.458557 
L 268.899439 316.545363 
L 278.365867 319.383806 
L 287.832296 322.0027 
L 298.651071 324.758181 
L 309.469847 327.289867 
L 321.640969 329.902972 
L 333.812092 332.297305 
L 347.335561 334.733022 
L 356.80199 336.313089 
L 358.154337 335.043713 
L 366.268418 336.350589 
L 367.620765 335.11808 
L 382.496582 337.396214 
L 398.724745 339.66411 
L 416.305255 341.898453 
L 435.238112 344.080642 
L 447.409235 345.375567 
L 448.761582 344.359477 
L 459.580357 345.469645 
L 460.932704 344.482845 
L 482.570255 346.580967 
L 506.9125 348.707379 
L 532.607092 350.722511 
L 558.301684 352.536658 
L 559.654031 351.719935 
L 589.405663 353.646623 
L 621.86199 355.522566 
L 635.385459 356.243534 
L 636.737806 355.524411 
L 673.251173 357.353952 
L 705.7075 358.810947 
L 705.7075 358.810947 
" clip-path="url(#p5d74ec7f95)" style="fill: none; stroke: #17becf; stroke-width: 2; stroke-linecap: square"/>
    <defs>
     <path id="me694c5220e" d="M 0 1.5 
C 0.397805 1.5 0.77937 1.341951 1.06066 1.06066 
C 1.341951 0.77937 1.5 0.397805 1.5 0 
C 1.5 -0.397805 1.341951 -0.77937 1.06066 -1.06066 
C 0.77937 -1.341951 0.397805 -1.5 0 -1.5 
C -0.397805 -1.5 -0.77937 -1.341951 -1.06066 -1.06066 
C -1.341951 -0.77937 -1.5 -0.397805 -1.5 0 
C -1.5 0.397805 -1.341951 0.77937 -1.06066 1.06066 
C -0.77937 1.341951 -0.397805 1.5 0 1.5 
z
" style="stroke: #17becf"/>
    </defs>
    <g clip-path="url(#p5d74ec7f95)">
     <use xlink:href="#me694c5220e" x="44.409847" y="387.100937" style="fill: #17becf; stroke: #17becf"/>
     <use xlink:href="#me694c5220e" x="60.63801" y="93.864307" style="fill: #17becf; stroke: #17becf"/>
     <use xlink:href="#me694c5220e" x="76.866173" y="109.859033" style="fill: #17becf; stroke: #17becf"/>
     <use xlink:href="#me694c5220e" x="93.094337" y="162.310204" style="fill: #17becf; stroke: #17becf"/>
     <use xlink:href="#me694c5220e" x="109.3225" y="217.360996" style="fill: #17becf; stroke: #17becf"/>
     <use xlink:href="#me694c5220e" x="125.550663" y="228.027713" style="fill: #17becf; stroke: #17becf"/>
     <use xlink:href="#me694c5220e" x="141.778827" y="249.429444" style="fill: #17becf; stroke: #17becf"/>
     <use xlink:href="#me694c5220e" x="158.00699" y="264.788332" style="fill: #17becf; stroke: #17becf"/>
     <use xlink:href="#me694c5220e" x="174.235153" y="276.347084" style="fill: #17becf; stroke: #17becf"/>
     <use xlink:href="#me694c5220e" x="190.463316" y="285.360789" style="fill: #17becf; stroke: #17becf"/>
     <use xlink:href="#me694c5220e" x="206.69148" y="295.450721" style="fill: #17becf; stroke: #17becf"/>
     <use xlink:href="#me694c5220e" x="222.919643" y="303.719914" style="fill: #17becf; stroke: #17becf"/>
     <use xlink:href="#me694c5220e" x="239.147806" y="310.620412" style="fill: #17becf; stroke: #17becf"/>
     <use xlink:href="#me694c5220e" x="255.375969" y="314.258717" style="fill: #17becf; stroke: #17becf"/>
     <use xlink:href="#me694c5220e" x="271.604133" y="317.38034" style="fill: #17becf; stroke: #17becf"/>
     <use xlink:href="#me694c5220e" x="287.832296" y="322.0027" style="fill: #17becf; stroke: #17becf"/>
     <use xlink:href="#me694c5220e" x="304.060459" y="326.050259" style="fill: #17becf; stroke: #17becf"/>
     <use xlink:href="#me694c5220e" x="320.288622" y="329.623957" style="fill: #17becf; stroke: #17becf"/>
     <use xlink:href="#me694c5220e" x="336.516786" y="332.802408" style="fill: #17becf; stroke: #17becf"/>
     <use xlink:href="#me694c5220e" x="352.744949" y="335.647746" style="fill: #17becf; stroke: #17becf"/>
     <use xlink:href="#me694c5220e" x="368.973112" y="335.333777" style="fill: #17becf; stroke: #17becf"/>
     <use xlink:href="#me694c5220e" x="385.201276" y="337.789136" style="fill: #17becf; stroke: #17becf"/>
     <use xlink:href="#me694c5220e" x="401.429439" y="340.022123" style="fill: #17becf; stroke: #17becf"/>
     <use xlink:href="#me694c5220e" x="417.657602" y="342.061639" style="fill: #17becf; stroke: #17becf"/>
     <use xlink:href="#me694c5220e" x="433.885765" y="343.931783" style="fill: #17becf; stroke: #17becf"/>
     <use xlink:href="#me694c5220e" x="450.113929" y="344.501475" style="fill: #17becf; stroke: #17becf"/>
     <use xlink:href="#me694c5220e" x="466.342092" y="345.027485" style="fill: #17becf; stroke: #17becf"/>
     <use xlink:href="#me694c5220e" x="482.570255" y="346.580967" style="fill: #17becf; stroke: #17becf"/>
     <use xlink:href="#me694c5220e" x="498.798418" y="348.023814" style="fill: #17becf; stroke: #17becf"/>
     <use xlink:href="#me694c5220e" x="515.026582" y="349.36744" style="fill: #17becf; stroke: #17becf"/>
     <use xlink:href="#me694c5220e" x="531.254745" y="350.62174" style="fill: #17becf; stroke: #17becf"/>
     <use xlink:href="#me694c5220e" x="547.482908" y="351.795333" style="fill: #17becf; stroke: #17becf"/>
     <use xlink:href="#me694c5220e" x="563.711071" y="351.995631" style="fill: #17becf; stroke: #17becf"/>
     <use xlink:href="#me694c5220e" x="579.939235" y="353.056749" style="fill: #17becf; stroke: #17becf"/>
     <use xlink:href="#me694c5220e" x="596.167398" y="354.0556" style="fill: #17becf; stroke: #17becf"/>
     <use xlink:href="#me694c5220e" x="612.395561" y="354.99751" style="fill: #17becf; stroke: #17becf"/>
     <use xlink:href="#me694c5220e" x="628.623724" y="355.887213" style="fill: #17becf; stroke: #17becf"/>
     <use xlink:href="#me694c5220e" x="644.851888" y="355.950162" style="fill: #17becf; stroke: #17becf"/>
     <use xlink:href="#me694c5220e" x="661.080051" y="356.768125" style="fill: #17becf; stroke: #17becf"/>
     <use xlink:href="#me694c5220e" x="677.308214" y="357.544231" style="fill: #17becf; stroke: #17becf"/>
     <use xlink:href="#me694c5220e" x="693.536378" y="358.281613" style="fill: #17becf; stroke: #17becf"/>
    </g>
   </g>
   <g id="line2d_30">
    <path d="M 44.409847 40.548557 
L 45.762194 213.824747 
L 47.114541 156.066017 
L 48.466888 213.824747 
L 49.819235 179.169509 
L 51.171582 156.066017 
L 52.523929 139.563523 
L 53.876276 127.186652 
L 55.228622 117.560197 
L 56.580969 109.859033 
L 57.933316 103.55808 
L 59.285663 98.307287 
L 60.63801 93.864307 
L 61.990357 90.05604 
L 63.342704 86.755541 
L 64.695051 83.867604 
L 66.047398 81.319425 
L 67.399745 79.054377 
L 68.752092 77.027755 
L 70.104439 75.203795 
L 71.456786 90.05604 
L 72.809133 103.55808 
L 75.513827 98.307287 
L 76.866173 95.996938 
L 78.21852 107.193245 
L 79.570867 104.724923 
L 82.275561 124.199131 
L 84.980255 141.160538 
L 86.332602 148.846176 
L 89.037296 142.475727 
L 91.74199 156.066017 
L 93.094337 152.943923 
L 94.446684 159.10595 
L 95.799031 156.066017 
L 97.151378 161.84189 
L 98.503724 158.883516 
L 101.208418 169.49828 
L 102.560765 166.567604 
L 103.913112 171.468345 
L 105.265459 168.622263 
L 107.970153 177.725541 
L 109.3225 174.92601 
L 110.674847 179.169509 
L 113.379541 173.837934 
L 116.084235 181.736564 
L 118.788929 189.071006 
L 121.493622 195.899624 
L 122.845969 199.140324 
L 124.198316 196.497128 
L 126.90301 202.645638 
L 129.607704 208.409866 
L 133.664745 216.410959 
L 137.721786 223.726244 
L 141.778827 230.440272 
L 145.835867 236.624246 
L 149.892908 242.338551 
L 153.949949 247.634735 
L 158.00699 252.557072 
L 162.064031 257.143795 
L 166.121071 261.428096 
L 170.178112 265.438931 
L 174.235153 269.201674 
L 175.5875 266.868479 
L 180.996888 271.583477 
L 186.406276 275.942627 
L 187.758622 273.742682 
L 193.16801 277.827664 
L 198.577398 281.628474 
L 203.986786 285.173767 
L 209.396173 288.488471 
L 216.157908 292.340521 
L 222.919643 295.902943 
L 229.681378 299.207218 
L 236.443112 302.280425 
L 244.557194 305.696016 
L 252.671276 308.847174 
L 260.785357 311.763463 
L 270.251786 314.902525 
L 279.718214 317.790461 
L 289.184643 320.456249 
L 300.003418 323.262341 
L 310.822194 325.841678 
L 322.993316 328.505124 
L 335.164439 330.946617 
L 348.687908 333.431321 
L 351.392602 333.902107 
L 352.744949 332.621087 
L 360.859031 334.012062 
L 362.211378 332.768573 
L 364.916071 333.225147 
L 367.620765 330.786176 
L 382.496582 333.254153 
L 398.724745 335.711041 
L 416.305255 338.131579 
L 433.885765 340.334353 
L 435.238112 339.300609 
L 454.170969 341.50194 
L 474.456173 343.646093 
L 497.446071 345.844702 
L 521.788316 347.942476 
L 547.482908 349.937143 
L 575.882194 351.917955 
L 606.986173 353.858503 
L 640.794847 355.738731 
L 677.308214 357.544231 
L 705.7075 358.810947 
L 705.7075 358.810947 
" clip-path="url(#p5d74ec7f95)" style="fill: none; stroke: #e31818; stroke-width: 2.5; stroke-linecap: square"/>
    <defs>
     <path id="m46d7c3957d" d="M 0 1.5 
C 0.397805 1.5 0.77937 1.341951 1.06066 1.06066 
C 1.341951 0.77937 1.5 0.397805 1.5 0 
C 1.5 -0.397805 1.341951 -0.77937 1.06066 -1.06066 
C 0.77937 -1.341951 0.397805 -1.5 0 -1.5 
C -0.397805 -1.5 -0.77937 -1.341951 -1.06066 -1.06066 
C -1.341951 -0.77937 -1.5 -0.397805 -1.5 0 
C -1.5 0.397805 -1.341951 0.77937 -1.06066 1.06066 
C -0.77937 1.341951 -0.397805 1.5 0 1.5 
z
" style="stroke: #e31818"/>
    </defs>
    <g clip-path="url(#p5d74ec7f95)">
     <use xlink:href="#m46d7c3957d" x="44.409847" y="40.548557" style="fill: #e31818; stroke: #e31818"/>
     <use xlink:href="#m46d7c3957d" x="60.63801" y="93.864307" style="fill: #e31818; stroke: #e31818"/>
     <use xlink:href="#m46d7c3957d" x="76.866173" y="95.996938" style="fill: #e31818; stroke: #e31818"/>
     <use xlink:href="#m46d7c3957d" x="93.094337" y="152.943923" style="fill: #e31818; stroke: #e31818"/>
     <use xlink:href="#m46d7c3957d" x="109.3225" y="174.92601" style="fill: #e31818; stroke: #e31818"/>
     <use xlink:href="#m46d7c3957d" x="125.550663" y="199.621781" style="fill: #e31818; stroke: #e31818"/>
     <use xlink:href="#m46d7c3957d" x="141.778827" y="230.440272" style="fill: #e31818; stroke: #e31818"/>
     <use xlink:href="#m46d7c3957d" x="158.00699" y="252.557072" style="fill: #e31818; stroke: #e31818"/>
     <use xlink:href="#m46d7c3957d" x="174.235153" y="269.201674" style="fill: #e31818; stroke: #e31818"/>
     <use xlink:href="#m46d7c3957d" x="190.463316" y="275.82265" style="fill: #e31818; stroke: #e31818"/>
     <use xlink:href="#m46d7c3957d" x="206.69148" y="286.858513" style="fill: #e31818; stroke: #e31818"/>
     <use xlink:href="#m46d7c3957d" x="222.919643" y="295.902943" style="fill: #e31818; stroke: #e31818"/>
     <use xlink:href="#m46d7c3957d" x="239.147806" y="303.450363" style="fill: #e31818; stroke: #e31818"/>
     <use xlink:href="#m46d7c3957d" x="255.375969" y="309.844037" style="fill: #e31818; stroke: #e31818"/>
     <use xlink:href="#m46d7c3957d" x="271.604133" y="315.329734" style="fill: #e31818; stroke: #e31818"/>
     <use xlink:href="#m46d7c3957d" x="287.832296" y="320.088046" style="fill: #e31818; stroke: #e31818"/>
     <use xlink:href="#m46d7c3957d" x="304.060459" y="324.254651" style="fill: #e31818; stroke: #e31818"/>
     <use xlink:href="#m46d7c3957d" x="320.288622" y="327.933458" style="fill: #e31818; stroke: #e31818"/>
     <use xlink:href="#m46d7c3957d" x="336.516786" y="331.205392" style="fill: #e31818; stroke: #e31818"/>
     <use xlink:href="#m46d7c3957d" x="352.744949" y="332.621087" style="fill: #e31818; stroke: #e31818"/>
     <use xlink:href="#m46d7c3957d" x="368.973112" y="331.019847" style="fill: #e31818; stroke: #e31818"/>
     <use xlink:href="#m46d7c3957d" x="385.201276" y="333.679819" style="fill: #e31818; stroke: #e31818"/>
     <use xlink:href="#m46d7c3957d" x="401.429439" y="336.098889" style="fill: #e31818; stroke: #e31818"/>
     <use xlink:href="#m46d7c3957d" x="417.657602" y="338.308364" style="fill: #e31818; stroke: #e31818"/>
     <use xlink:href="#m46d7c3957d" x="433.885765" y="340.334353" style="fill: #e31818; stroke: #e31818"/>
     <use xlink:href="#m46d7c3957d" x="450.113929" y="341.047465" style="fill: #e31818; stroke: #e31818"/>
     <use xlink:href="#m46d7c3957d" x="466.342092" y="342.813093" style="fill: #e31818; stroke: #e31818"/>
     <use xlink:href="#m46d7c3957d" x="482.570255" y="344.448337" style="fill: #e31818; stroke: #e31818"/>
     <use xlink:href="#m46d7c3957d" x="498.798418" y="345.967124" style="fill: #e31818; stroke: #e31818"/>
     <use xlink:href="#m46d7c3957d" x="515.026582" y="347.381467" style="fill: #e31818; stroke: #e31818"/>
     <use xlink:href="#m46d7c3957d" x="531.254745" y="348.701782" style="fill: #e31818; stroke: #e31818"/>
     <use xlink:href="#m46d7c3957d" x="547.482908" y="349.937143" style="fill: #e31818; stroke: #e31818"/>
     <use xlink:href="#m46d7c3957d" x="563.711071" y="351.095495" style="fill: #e31818; stroke: #e31818"/>
     <use xlink:href="#m46d7c3957d" x="579.939235" y="352.183821" style="fill: #e31818; stroke: #e31818"/>
     <use xlink:href="#m46d7c3957d" x="596.167398" y="353.208284" style="fill: #e31818; stroke: #e31818"/>
     <use xlink:href="#m46d7c3957d" x="612.395561" y="354.174345" style="fill: #e31818; stroke: #e31818"/>
     <use xlink:href="#m46d7c3957d" x="628.623724" y="355.086861" style="fill: #e31818; stroke: #e31818"/>
     <use xlink:href="#m46d7c3957d" x="644.851888" y="355.950162" style="fill: #e31818; stroke: #e31818"/>
     <use xlink:href="#m46d7c3957d" x="661.080051" y="356.768125" style="fill: #e31818; stroke: #e31818"/>
     <use xlink:href="#m46d7c3957d" x="677.308214" y="357.544231" style="fill: #e31818; stroke: #e31818"/>
     <use xlink:href="#m46d7c3957d" x="693.536378" y="358.281613" style="fill: #e31818; stroke: #e31818"/>
    </g>
   </g>
   <g id="patch_3">
    <path d="M 43.0575 387.100937 
L 43.0575 23.220937 
" style="fill: none; stroke: #000000; stroke-width: 0.8; stroke-linejoin: miter; stroke-linecap: square"/>
   </g>
   <g id="patch_4">
    <path d="M 705.7075 387.100937 
L 705.7075 23.220937 
" style="fill: none; stroke: #000000; stroke-width: 0.8; stroke-linejoin: miter; stroke-linecap: square"/>
   </g>
   <g id="patch_5">
    <path d="M 43.0575 387.100937 
L 705.7075 387.100937 
" style="fill: none; stroke: #000000; stroke-width: 0.8; stroke-linejoin: miter; stroke-linecap: square"/>
   </g>
   <g id="patch_6">
    <path d="M 43.0575 23.220937 
L 705.7075 23.220937 
" style="fill: none; stroke: #000000; stroke-width: 0.8; stroke-linejoin: miter; stroke-linecap: square"/>
   </g>
   <g id="text_14">
    <!-- Precision vs k - raisin -->
    <g transform="translate(302.408281 17.220937) scale(0.14 -0.14)">
     <defs>
      <path id="Arial-BoldMT-76" d="M 1372 0 
L 34 3319 
L 956 3319 
L 1581 1625 
L 1763 1059 
Q 1834 1275 1853 1344 
Q 1897 1484 1947 1625 
L 2578 3319 
L 3481 3319 
L 2163 0 
L 1372 0 
z
" transform="scale(0.015625)"/>
      <path id="Arial-BoldMT-2d" d="M 359 1222 
L 359 2100 
L 2084 2100 
L 2084 1222 
L 359 1222 
z
" transform="scale(0.015625)"/>
      <path id="Arial-BoldMT-61" d="M 1116 2306 
L 319 2450 
Q 453 2931 781 3162 
Q 1109 3394 1756 3394 
Q 2344 3394 2631 3255 
Q 2919 3116 3036 2902 
Q 3153 2688 3153 2116 
L 3144 1091 
Q 3144 653 3186 445 
Q 3228 238 3344 0 
L 2475 0 
Q 2441 88 2391 259 
Q 2369 338 2359 363 
Q 2134 144 1878 34 
Q 1622 -75 1331 -75 
Q 819 -75 523 203 
Q 228 481 228 906 
Q 228 1188 362 1408 
Q 497 1628 739 1745 
Q 981 1863 1438 1950 
Q 2053 2066 2291 2166 
L 2291 2253 
Q 2291 2506 2166 2614 
Q 2041 2722 1694 2722 
Q 1459 2722 1328 2630 
Q 1197 2538 1116 2306 
z
M 2291 1594 
Q 2122 1538 1756 1459 
Q 1391 1381 1278 1306 
Q 1106 1184 1106 997 
Q 1106 813 1243 678 
Q 1381 544 1594 544 
Q 1831 544 2047 700 
Q 2206 819 2256 991 
Q 2291 1103 2291 1419 
L 2291 1594 
z
" transform="scale(0.015625)"/>
     </defs>
     <use xlink:href="#Arial-BoldMT-50"/>
     <use xlink:href="#Arial-BoldMT-72" transform="translate(66.699219 0)"/>
     <use xlink:href="#Arial-BoldMT-65" transform="translate(105.615234 0)"/>
     <use xlink:href="#Arial-BoldMT-63" transform="translate(161.230469 0)"/>
     <use xlink:href="#Arial-BoldMT-69" transform="translate(216.845703 0)"/>
     <use xlink:href="#Arial-BoldMT-73" transform="translate(244.628906 0)"/>
     <use xlink:href="#Arial-BoldMT-69" transform="translate(300.244141 0)"/>
     <use xlink:href="#Arial-BoldMT-6f" transform="translate(328.027344 0)"/>
     <use xlink:href="#Arial-BoldMT-6e" transform="translate(389.111328 0)"/>
     <use xlink:href="#Arial-BoldMT-20" transform="translate(450.195312 0)"/>
     <use xlink:href="#Arial-BoldMT-76" transform="translate(477.978516 0)"/>
     <use xlink:href="#Arial-BoldMT-73" transform="translate(533.59375 0)"/>
     <use xlink:href="#Arial-BoldMT-20" transform="translate(589.208984 0)"/>
     <use xlink:href="#Arial-BoldMT-6b" transform="translate(616.992188 0)"/>
     <use xlink:href="#Arial-BoldMT-20" transform="translate(672.607422 0)"/>
     <use xlink:href="#Arial-BoldMT-2d" transform="translate(700.390625 0)"/>
     <use xlink:href="#Arial-BoldMT-20" transform="translate(733.691406 0)"/>
     <use xlink:href="#Arial-BoldMT-72" transform="translate(761.474609 0)"/>
     <use xlink:href="#Arial-BoldMT-61" transform="translate(800.390625 0)"/>
     <use xlink:href="#Arial-BoldMT-69" transform="translate(856.005859 0)"/>
     <use xlink:href="#Arial-BoldMT-73" transform="translate(883.789062 0)"/>
     <use xlink:href="#Arial-BoldMT-69" transform="translate(939.404297 0)"/>
     <use xlink:href="#Arial-BoldMT-6e" transform="translate(967.1875 0)"/>
    </g>
   </g>
   <g id="legend_1">
    <g id="patch_7">
     <path d="M 633.610469 132.267187 
L 699.4075 132.267187 
Q 701.2075 132.267187 701.2075 130.467187 
L 701.2075 29.520938 
Q 701.2075 27.720937 699.4075 27.720937 
L 633.610469 27.720937 
Q 631.810469 27.720937 631.810469 29.520938 
L 631.810469 130.467187 
Q 631.810469 132.267187 633.610469 132.267187 
z
" style="fill: #ffffff; opacity: 0.8; stroke: #cccccc; stroke-linejoin: miter"/>
    </g>
    <g id="line2d_31">
     <path d="M 635.410469 34.612969 
L 644.410469 34.612969 
L 653.410469 34.612969 
" style="fill: none; stroke: #1f77b4; stroke-width: 2; stroke-linecap: square"/>
     <g>
      <use xlink:href="#m507cc1ce56" x="644.410469" y="34.612969" style="fill: #1f77b4; stroke: #1f77b4"/>
     </g>
    </g>
    <g id="text_15">
     <!-- ADFNR -->
     <g transform="translate(660.610469 37.762969) scale(0.09 -0.09)">
      <defs>
       <path id="ArialMT-41" d="M -9 0 
L 1750 4581 
L 2403 4581 
L 4278 0 
L 3588 0 
L 3053 1388 
L 1138 1388 
L 634 0 
L -9 0 
z
M 1313 1881 
L 2866 1881 
L 2388 3150 
Q 2169 3728 2063 4100 
Q 1975 3659 1816 3225 
L 1313 1881 
z
" transform="scale(0.015625)"/>
       <path id="ArialMT-44" d="M 494 0 
L 494 4581 
L 2072 4581 
Q 2606 4581 2888 4516 
Q 3281 4425 3559 4188 
Q 3922 3881 4101 3404 
Q 4281 2928 4281 2316 
Q 4281 1794 4159 1391 
Q 4038 988 3847 723 
Q 3656 459 3429 307 
Q 3203 156 2883 78 
Q 2563 0 2147 0 
L 494 0 
z
M 1100 541 
L 2078 541 
Q 2531 541 2789 625 
Q 3047 709 3200 863 
Q 3416 1078 3536 1442 
Q 3656 1806 3656 2325 
Q 3656 3044 3420 3430 
Q 3184 3816 2847 3947 
Q 2603 4041 2063 4041 
L 1100 4041 
L 1100 541 
z
" transform="scale(0.015625)"/>
       <path id="ArialMT-46" d="M 525 0 
L 525 4581 
L 3616 4581 
L 3616 4041 
L 1131 4041 
L 1131 2622 
L 3281 2622 
L 3281 2081 
L 1131 2081 
L 1131 0 
L 525 0 
z
" transform="scale(0.015625)"/>
       <path id="ArialMT-4e" d="M 488 0 
L 488 4581 
L 1109 4581 
L 3516 984 
L 3516 4581 
L 4097 4581 
L 4097 0 
L 3475 0 
L 1069 3600 
L 1069 0 
L 488 0 
z
" transform="scale(0.015625)"/>
       <path id="ArialMT-52" d="M 503 0 
L 503 4581 
L 2534 4581 
Q 3147 4581 3465 4457 
Q 3784 4334 3975 4021 
Q 4166 3709 4166 3331 
Q 4166 2844 3850 2509 
Q 3534 2175 2875 2084 
Q 3116 1969 3241 1856 
Q 3506 1613 3744 1247 
L 4541 0 
L 3778 0 
L 3172 953 
Q 2906 1366 2734 1584 
Q 2563 1803 2427 1890 
Q 2291 1978 2150 2013 
Q 2047 2034 1813 2034 
L 1109 2034 
L 1109 0 
L 503 0 
z
M 1109 2559 
L 2413 2559 
Q 2828 2559 3062 2645 
Q 3297 2731 3419 2920 
Q 3541 3109 3541 3331 
Q 3541 3656 3305 3865 
Q 3069 4075 2559 4075 
L 1109 4075 
L 1109 2559 
z
" transform="scale(0.015625)"/>
      </defs>
      <use xlink:href="#ArialMT-41"/>
      <use xlink:href="#ArialMT-44" transform="translate(66.699219 0)"/>
      <use xlink:href="#ArialMT-46" transform="translate(138.916016 0)"/>
      <use xlink:href="#ArialMT-4e" transform="translate(200 0)"/>
      <use xlink:href="#ArialMT-52" transform="translate(272.216797 0)"/>
     </g>
    </g>
    <g id="line2d_32">
     <path d="M 635.410469 47.34375 
L 644.410469 47.34375 
L 653.410469 47.34375 
" style="fill: none; stroke: #ff7f0e; stroke-width: 2; stroke-linecap: square"/>
     <g>
      <use xlink:href="#m295a8b48be" x="644.410469" y="47.34375" style="fill: #ff7f0e; stroke: #ff7f0e"/>
     </g>
    </g>
    <g id="text_16">
     <!-- DASOD -->
     <g transform="translate(660.610469 50.49375) scale(0.09 -0.09)">
      <defs>
       <path id="ArialMT-53" d="M 288 1472 
L 859 1522 
Q 900 1178 1048 958 
Q 1197 738 1509 602 
Q 1822 466 2213 466 
Q 2559 466 2825 569 
Q 3091 672 3220 851 
Q 3350 1031 3350 1244 
Q 3350 1459 3225 1620 
Q 3100 1781 2813 1891 
Q 2628 1963 1997 2114 
Q 1366 2266 1113 2400 
Q 784 2572 623 2826 
Q 463 3081 463 3397 
Q 463 3744 659 4045 
Q 856 4347 1234 4503 
Q 1613 4659 2075 4659 
Q 2584 4659 2973 4495 
Q 3363 4331 3572 4012 
Q 3781 3694 3797 3291 
L 3216 3247 
Q 3169 3681 2898 3903 
Q 2628 4125 2100 4125 
Q 1550 4125 1298 3923 
Q 1047 3722 1047 3438 
Q 1047 3191 1225 3031 
Q 1400 2872 2139 2705 
Q 2878 2538 3153 2413 
Q 3553 2228 3743 1945 
Q 3934 1663 3934 1294 
Q 3934 928 3725 604 
Q 3516 281 3123 101 
Q 2731 -78 2241 -78 
Q 1619 -78 1198 103 
Q 778 284 539 648 
Q 300 1013 288 1472 
z
" transform="scale(0.015625)"/>
       <path id="ArialMT-4f" d="M 309 2231 
Q 309 3372 921 4017 
Q 1534 4663 2503 4663 
Q 3138 4663 3647 4359 
Q 4156 4056 4423 3514 
Q 4691 2972 4691 2284 
Q 4691 1588 4409 1038 
Q 4128 488 3612 205 
Q 3097 -78 2500 -78 
Q 1853 -78 1343 234 
Q 834 547 571 1087 
Q 309 1628 309 2231 
z
M 934 2222 
Q 934 1394 1379 917 
Q 1825 441 2497 441 
Q 3181 441 3623 922 
Q 4066 1403 4066 2288 
Q 4066 2847 3877 3264 
Q 3688 3681 3323 3911 
Q 2959 4141 2506 4141 
Q 1863 4141 1398 3698 
Q 934 3256 934 2222 
z
" transform="scale(0.015625)"/>
      </defs>
      <use xlink:href="#ArialMT-44"/>
      <use xlink:href="#ArialMT-41" transform="translate(72.216797 0)"/>
      <use xlink:href="#ArialMT-53" transform="translate(138.916016 0)"/>
      <use xlink:href="#ArialMT-4f" transform="translate(205.615234 0)"/>
      <use xlink:href="#ArialMT-44" transform="translate(283.398438 0)"/>
     </g>
    </g>
    <g id="line2d_33">
     <path d="M 635.410469 60.074531 
L 644.410469 60.074531 
L 653.410469 60.074531 
" style="fill: none; stroke: #2ca02c; stroke-width: 2; stroke-linecap: square"/>
     <g>
      <use xlink:href="#m9bb83f7c20" x="644.410469" y="60.074531" style="fill: #2ca02c; stroke: #2ca02c"/>
     </g>
    </g>
    <g id="text_17">
     <!-- GCN -->
     <g transform="translate(660.610469 63.224531) scale(0.09 -0.09)">
      <defs>
       <path id="ArialMT-47" d="M 2638 1797 
L 2638 2334 
L 4578 2338 
L 4578 638 
Q 4131 281 3656 101 
Q 3181 -78 2681 -78 
Q 2006 -78 1454 211 
Q 903 500 622 1047 
Q 341 1594 341 2269 
Q 341 2938 620 3517 
Q 900 4097 1425 4378 
Q 1950 4659 2634 4659 
Q 3131 4659 3532 4498 
Q 3934 4338 4162 4050 
Q 4391 3763 4509 3300 
L 3963 3150 
Q 3859 3500 3706 3700 
Q 3553 3900 3268 4020 
Q 2984 4141 2638 4141 
Q 2222 4141 1919 4014 
Q 1616 3888 1430 3681 
Q 1244 3475 1141 3228 
Q 966 2803 966 2306 
Q 966 1694 1177 1281 
Q 1388 869 1791 669 
Q 2194 469 2647 469 
Q 3041 469 3416 620 
Q 3791 772 3984 944 
L 3984 1797 
L 2638 1797 
z
" transform="scale(0.015625)"/>
       <path id="ArialMT-43" d="M 3763 1606 
L 4369 1453 
Q 4178 706 3683 314 
Q 3188 -78 2472 -78 
Q 1731 -78 1267 223 
Q 803 525 561 1097 
Q 319 1669 319 2325 
Q 319 3041 592 3573 
Q 866 4106 1370 4382 
Q 1875 4659 2481 4659 
Q 3169 4659 3637 4309 
Q 4106 3959 4291 3325 
L 3694 3184 
Q 3534 3684 3231 3912 
Q 2928 4141 2469 4141 
Q 1941 4141 1586 3887 
Q 1231 3634 1087 3207 
Q 944 2781 944 2328 
Q 944 1744 1114 1308 
Q 1284 872 1643 656 
Q 2003 441 2422 441 
Q 2931 441 3284 734 
Q 3638 1028 3763 1606 
z
" transform="scale(0.015625)"/>
      </defs>
      <use xlink:href="#ArialMT-47"/>
      <use xlink:href="#ArialMT-43" transform="translate(77.783203 0)"/>
      <use xlink:href="#ArialMT-4e" transform="translate(150 0)"/>
     </g>
    </g>
    <g id="line2d_34">
     <path d="M 635.410469 72.805312 
L 644.410469 72.805312 
L 653.410469 72.805312 
" style="fill: none; stroke: #9467bd; stroke-width: 2; stroke-linecap: square"/>
     <g>
      <use xlink:href="#md52d2cf7cf" x="644.410469" y="72.805312" style="fill: #9467bd; stroke: #9467bd"/>
     </g>
    </g>
    <g id="text_18">
     <!-- GCOD -->
     <g transform="translate(660.610469 75.955312) scale(0.09 -0.09)">
      <use xlink:href="#ArialMT-47"/>
      <use xlink:href="#ArialMT-43" transform="translate(77.783203 0)"/>
      <use xlink:href="#ArialMT-4f" transform="translate(150 0)"/>
      <use xlink:href="#ArialMT-44" transform="translate(227.783203 0)"/>
     </g>
    </g>
    <g id="line2d_35">
     <path d="M 635.410469 85.536094 
L 644.410469 85.536094 
L 653.410469 85.536094 
" style="fill: none; stroke: #8c564b; stroke-width: 2; stroke-linecap: square"/>
     <g>
      <use xlink:href="#mae17e41dd8" x="644.410469" y="85.536094" style="fill: #8c564b; stroke: #8c564b"/>
     </g>
    </g>
    <g id="text_19">
     <!-- IE -->
     <g transform="translate(660.610469 88.686094) scale(0.09 -0.09)">
      <defs>
       <path id="ArialMT-49" d="M 597 0 
L 597 4581 
L 1203 4581 
L 1203 0 
L 597 0 
z
" transform="scale(0.015625)"/>
       <path id="ArialMT-45" d="M 506 0 
L 506 4581 
L 3819 4581 
L 3819 4041 
L 1113 4041 
L 1113 2638 
L 3647 2638 
L 3647 2100 
L 1113 2100 
L 1113 541 
L 3925 541 
L 3925 0 
L 506 0 
z
" transform="scale(0.015625)"/>
      </defs>
      <use xlink:href="#ArialMT-49"/>
      <use xlink:href="#ArialMT-45" transform="translate(27.783203 0)"/>
     </g>
    </g>
    <g id="line2d_36">
     <path d="M 635.410469 98.266875 
L 644.410469 98.266875 
L 653.410469 98.266875 
" style="fill: none; stroke: #e377c2; stroke-width: 2; stroke-linecap: square"/>
     <g>
      <use xlink:href="#mdcc3c643ff" x="644.410469" y="98.266875" style="fill: #e377c2; stroke: #e377c2"/>
     </g>
    </g>
    <g id="text_20">
     <!-- KNN -->
     <g transform="translate(660.610469 101.416875) scale(0.09 -0.09)">
      <defs>
       <path id="ArialMT-4b" d="M 469 0 
L 469 4581 
L 1075 4581 
L 1075 2309 
L 3350 4581 
L 4172 4581 
L 2250 2725 
L 4256 0 
L 3456 0 
L 1825 2319 
L 1075 1588 
L 1075 0 
L 469 0 
z
" transform="scale(0.015625)"/>
      </defs>
      <use xlink:href="#ArialMT-4b"/>
      <use xlink:href="#ArialMT-4e" transform="translate(66.699219 0)"/>
      <use xlink:href="#ArialMT-4e" transform="translate(138.916016 0)"/>
     </g>
    </g>
    <g id="line2d_37">
     <path d="M 635.410469 110.997656 
L 644.410469 110.997656 
L 653.410469 110.997656 
" style="fill: none; stroke: #17becf; stroke-width: 2; stroke-linecap: square"/>
     <g>
      <use xlink:href="#me694c5220e" x="644.410469" y="110.997656" style="fill: #17becf; stroke: #17becf"/>
     </g>
    </g>
    <g id="text_21">
     <!-- NIEOD -->
     <g transform="translate(660.610469 114.147656) scale(0.09 -0.09)">
      <use xlink:href="#ArialMT-4e"/>
      <use xlink:href="#ArialMT-49" transform="translate(72.216797 0)"/>
      <use xlink:href="#ArialMT-45" transform="translate(100 0)"/>
      <use xlink:href="#ArialMT-4f" transform="translate(166.699219 0)"/>
      <use xlink:href="#ArialMT-44" transform="translate(244.482422 0)"/>
     </g>
    </g>
    <g id="line2d_38">
     <path d="M 635.410469 123.728437 
L 644.410469 123.728437 
L 653.410469 123.728437 
" style="fill: none; stroke: #e31818; stroke-width: 2.5; stroke-linecap: square"/>
     <g>
      <use xlink:href="#m46d7c3957d" x="644.410469" y="123.728437" style="fill: #e31818; stroke: #e31818"/>
     </g>
    </g>
    <g id="text_22">
     <!-- NMIGOD -->
     <g transform="translate(660.610469 126.878437) scale(0.09 -0.09)">
      <defs>
       <path id="ArialMT-4d" d="M 475 0 
L 475 4581 
L 1388 4581 
L 2472 1338 
Q 2622 884 2691 659 
Q 2769 909 2934 1394 
L 4031 4581 
L 4847 4581 
L 4847 0 
L 4263 0 
L 4263 3834 
L 2931 0 
L 2384 0 
L 1059 3900 
L 1059 0 
L 475 0 
z
" transform="scale(0.015625)"/>
      </defs>
      <use xlink:href="#ArialMT-4e"/>
      <use xlink:href="#ArialMT-4d" transform="translate(72.216797 0)"/>
      <use xlink:href="#ArialMT-49" transform="translate(155.517578 0)"/>
      <use xlink:href="#ArialMT-47" transform="translate(183.300781 0)"/>
      <use xlink:href="#ArialMT-4f" transform="translate(261.083984 0)"/>
      <use xlink:href="#ArialMT-44" transform="translate(338.867188 0)"/>
     </g>
    </g>
   </g>
  </g>
 </g>
 <defs>
  <clipPath id="p5d74ec7f95">
   <rect x="43.0575" y="23.220937" width="662.65" height="363.88"/>
  </clipPath>
 </defs>
</svg>
