<?xml version="1.0" encoding="utf-8" standalone="no"?>
<!DOCTYPE svg PUBLIC "-//W3C//DTD SVG 1.1//EN"
  "http://www.w3.org/Graphics/SVG/1.1/DTD/svg11.dtd">
<svg xmlns:xlink="http://www.w3.org/1999/xlink" width="712.9075pt" height="425.7075pt" viewBox="0 0 712.9075 425.7075" xmlns="http://www.w3.org/2000/svg" version="1.1">
 <metadata>
  <rdf:RDF xmlns:dc="http://purl.org/dc/elements/1.1/" xmlns:cc="http://creativecommons.org/ns#" xmlns:rdf="http://www.w3.org/1999/02/22-rdf-syntax-ns#">
   <cc:Work>
    <dc:type rdf:resource="http://purl.org/dc/dcmitype/StillImage"/>
    <dc:date>2026-06-11T18:29:02.400071</dc:date>
    <dc:format>image/svg+xml</dc:format>
    <dc:creator>
     <cc:Agent>
      <dc:title>Matplotlib v3.10.0, https://matplotlib.org/</dc:title>
     </cc:Agent>
    </dc:creator>
   </cc:Work>
  </rdf:RDF>
 </metadata>
 <defs>
  <style type="text/css">*{stroke-linejoin: round; stroke-linecap: butt}</style>
 </defs>
 <g id="figure_1">
  <g id="patch_1">
   <path d="M -0 425.7075 
L 712.9075 425.7075 
L 712.9075 0 
L -0 0 
z
" style="fill: #ffffff"/>
  </g>
  <g id="axes_1">
   <g id="patch_2">
    <path d="M 43.0575 387.100937 
L 705.7075 387.100937 
L 705.7075 23.220937 
L 43.0575 23.220937 
z
" style="fill: #ffffff"/>
   </g>
   <g id="matplotlib.axis_1">
    <g id="xtick_1">
     <g id="line2d_1">
      <path d="M 43.0575 387.100937 
L 43.0575 23.220937 
" clip-path="url(#p4c40e460eb)" style="fill: none; stroke-dasharray: 2.96,1.28; stroke-dashoffset: 0; stroke: #b0b0b0; stroke-opacity: 0.5; stroke-width: 0.8"/>
     </g>
     <g id="line2d_2">
      <defs>
       <path id="m97a25cbe2f" d="M 0 0 
L 0 3.5 
" style="stroke: #000000; stroke-width: 0.8"/>
      </defs>
      <g>
       <use xlink:href="#m97a25cbe2f" x="43.0575" y="387.100937" style="stroke: #000000; stroke-width: 0.8"/>
      </g>
     </g>
     <g id="text_1">
      <!-- 0 -->
      <g transform="translate(40.277031 401.25875) scale(0.1 -0.1)">
       <defs>
        <path id="ArialMT-30" d="M 266 2259 
Q 266 3072 433 3567 
Q 600 4063 929 4331 
Q 1259 4600 1759 4600 
Q 2128 4600 2406 4451 
Q 2684 4303 2865 4023 
Q 3047 3744 3150 3342 
Q 3253 2941 3253 2259 
Q 3253 1453 3087 958 
Q 2922 463 2592 192 
Q 2263 -78 1759 -78 
Q 1097 -78 719 397 
Q 266 969 266 2259 
z
M 844 2259 
Q 844 1131 1108 757 
Q 1372 384 1759 384 
Q 2147 384 2411 759 
Q 2675 1134 2675 2259 
Q 2675 3391 2411 3762 
Q 2147 4134 1753 4134 
Q 1366 4134 1134 3806 
Q 844 3388 844 2259 
z
" transform="scale(0.015625)"/>
       </defs>
       <use xlink:href="#ArialMT-30"/>
      </g>
     </g>
    </g>
    <g id="xtick_2">
     <g id="line2d_3">
      <path d="M 178.292194 387.100937 
L 178.292194 23.220937 
" clip-path="url(#p4c40e460eb)" style="fill: none; stroke-dasharray: 2.96,1.28; stroke-dashoffset: 0; stroke: #b0b0b0; stroke-opacity: 0.5; stroke-width: 0.8"/>
     </g>
     <g id="line2d_4">
      <g>
       <use xlink:href="#m97a25cbe2f" x="178.292194" y="387.100937" style="stroke: #000000; stroke-width: 0.8"/>
      </g>
     </g>
     <g id="text_2">
      <!-- 100 -->
      <g transform="translate(169.950788 401.25875) scale(0.1 -0.1)">
       <defs>
        <path id="ArialMT-31" d="M 2384 0 
L 1822 0 
L 1822 3584 
Q 1619 3391 1289 3197 
Q 959 3003 697 2906 
L 697 3450 
Q 1169 3672 1522 3987 
Q 1875 4303 2022 4600 
L 2384 4600 
L 2384 0 
z
" transform="scale(0.015625)"/>
       </defs>
       <use xlink:href="#ArialMT-31"/>
       <use xlink:href="#ArialMT-30" transform="translate(55.615234 0)"/>
       <use xlink:href="#ArialMT-30" transform="translate(111.230469 0)"/>
      </g>
     </g>
    </g>
    <g id="xtick_3">
     <g id="line2d_5">
      <path d="M 313.526888 387.100937 
L 313.526888 23.220937 
" clip-path="url(#p4c40e460eb)" style="fill: none; stroke-dasharray: 2.96,1.28; stroke-dashoffset: 0; stroke: #b0b0b0; stroke-opacity: 0.5; stroke-width: 0.8"/>
     </g>
     <g id="line2d_6">
      <g>
       <use xlink:href="#m97a25cbe2f" x="313.526888" y="387.100937" style="stroke: #000000; stroke-width: 0.8"/>
      </g>
     </g>
     <g id="text_3">
      <!-- 200 -->
      <g transform="translate(305.185482 401.25875) scale(0.1 -0.1)">
       <defs>
        <path id="ArialMT-32" d="M 3222 541 
L 3222 0 
L 194 0 
Q 188 203 259 391 
Q 375 700 629 1000 
Q 884 1300 1366 1694 
Q 2113 2306 2375 2664 
Q 2638 3022 2638 3341 
Q 2638 3675 2398 3904 
Q 2159 4134 1775 4134 
Q 1369 4134 1125 3890 
Q 881 3647 878 3216 
L 300 3275 
Q 359 3922 746 4261 
Q 1134 4600 1788 4600 
Q 2447 4600 2831 4234 
Q 3216 3869 3216 3328 
Q 3216 3053 3103 2787 
Q 2991 2522 2730 2228 
Q 2469 1934 1863 1422 
Q 1356 997 1212 845 
Q 1069 694 975 541 
L 3222 541 
z
" transform="scale(0.015625)"/>
       </defs>
       <use xlink:href="#ArialMT-32"/>
       <use xlink:href="#ArialMT-30" transform="translate(55.615234 0)"/>
       <use xlink:href="#ArialMT-30" transform="translate(111.230469 0)"/>
      </g>
     </g>
    </g>
    <g id="xtick_4">
     <g id="line2d_7">
      <path d="M 448.761582 387.100937 
L 448.761582 23.220937 
" clip-path="url(#p4c40e460eb)" style="fill: none; stroke-dasharray: 2.96,1.28; stroke-dashoffset: 0; stroke: #b0b0b0; stroke-opacity: 0.5; stroke-width: 0.8"/>
     </g>
     <g id="line2d_8">
      <g>
       <use xlink:href="#m97a25cbe2f" x="448.761582" y="387.100937" style="stroke: #000000; stroke-width: 0.8"/>
      </g>
     </g>
     <g id="text_4">
      <!-- 300 -->
      <g transform="translate(440.420175 401.25875) scale(0.1 -0.1)">
       <defs>
        <path id="ArialMT-33" d="M 269 1209 
L 831 1284 
Q 928 806 1161 595 
Q 1394 384 1728 384 
Q 2125 384 2398 659 
Q 2672 934 2672 1341 
Q 2672 1728 2419 1979 
Q 2166 2231 1775 2231 
Q 1616 2231 1378 2169 
L 1441 2663 
Q 1497 2656 1531 2656 
Q 1891 2656 2178 2843 
Q 2466 3031 2466 3422 
Q 2466 3731 2256 3934 
Q 2047 4138 1716 4138 
Q 1388 4138 1169 3931 
Q 950 3725 888 3313 
L 325 3413 
Q 428 3978 793 4289 
Q 1159 4600 1703 4600 
Q 2078 4600 2393 4439 
Q 2709 4278 2876 4000 
Q 3044 3722 3044 3409 
Q 3044 3113 2884 2869 
Q 2725 2625 2413 2481 
Q 2819 2388 3044 2092 
Q 3269 1797 3269 1353 
Q 3269 753 2831 336 
Q 2394 -81 1725 -81 
Q 1122 -81 723 278 
Q 325 638 269 1209 
z
" transform="scale(0.015625)"/>
       </defs>
       <use xlink:href="#ArialMT-33"/>
       <use xlink:href="#ArialMT-30" transform="translate(55.615234 0)"/>
       <use xlink:href="#ArialMT-30" transform="translate(111.230469 0)"/>
      </g>
     </g>
    </g>
    <g id="xtick_5">
     <g id="line2d_9">
      <path d="M 583.996276 387.100937 
L 583.996276 23.220937 
" clip-path="url(#p4c40e460eb)" style="fill: none; stroke-dasharray: 2.96,1.28; stroke-dashoffset: 0; stroke: #b0b0b0; stroke-opacity: 0.5; stroke-width: 0.8"/>
     </g>
     <g id="line2d_10">
      <g>
       <use xlink:href="#m97a25cbe2f" x="583.996276" y="387.100937" style="stroke: #000000; stroke-width: 0.8"/>
      </g>
     </g>
     <g id="text_5">
      <!-- 400 -->
      <g transform="translate(575.654869 401.25875) scale(0.1 -0.1)">
       <defs>
        <path id="ArialMT-34" d="M 2069 0 
L 2069 1097 
L 81 1097 
L 81 1613 
L 2172 4581 
L 2631 4581 
L 2631 1613 
L 3250 1613 
L 3250 1097 
L 2631 1097 
L 2631 0 
L 2069 0 
z
M 2069 1613 
L 2069 3678 
L 634 1613 
L 2069 1613 
z
" transform="scale(0.015625)"/>
       </defs>
       <use xlink:href="#ArialMT-34"/>
       <use xlink:href="#ArialMT-30" transform="translate(55.615234 0)"/>
       <use xlink:href="#ArialMT-30" transform="translate(111.230469 0)"/>
      </g>
     </g>
    </g>
    <g id="text_6">
     <!-- k (Threshold Index) -->
     <g transform="translate(319.048438 415.981875) scale(0.12 -0.12)">
      <defs>
       <path id="Arial-BoldMT-6b" d="M 428 0 
L 428 4581 
L 1306 4581 
L 1306 2150 
L 2334 3319 
L 3416 3319 
L 2281 2106 
L 3497 0 
L 2550 0 
L 1716 1491 
L 1306 1063 
L 1306 0 
L 428 0 
z
" transform="scale(0.015625)"/>
       <path id="Arial-BoldMT-20" transform="scale(0.015625)"/>
       <path id="Arial-BoldMT-28" d="M 1916 -1347 
L 1313 -1347 
Q 834 -625 584 153 
Q 334 931 334 1659 
Q 334 2563 644 3369 
Q 913 4069 1325 4659 
L 1925 4659 
Q 1497 3713 1336 3048 
Q 1175 2384 1175 1641 
Q 1175 1128 1270 590 
Q 1366 53 1531 -431 
Q 1641 -750 1916 -1347 
z
" transform="scale(0.015625)"/>
       <path id="Arial-BoldMT-54" d="M 1497 0 
L 1497 3806 
L 138 3806 
L 138 4581 
L 3778 4581 
L 3778 3806 
L 2422 3806 
L 2422 0 
L 1497 0 
z
" transform="scale(0.015625)"/>
       <path id="Arial-BoldMT-68" d="M 1334 4581 
L 1334 2897 
Q 1759 3394 2350 3394 
Q 2653 3394 2897 3281 
Q 3141 3169 3264 2994 
Q 3388 2819 3433 2606 
Q 3478 2394 3478 1947 
L 3478 0 
L 2600 0 
L 2600 1753 
Q 2600 2275 2550 2415 
Q 2500 2556 2373 2639 
Q 2247 2722 2056 2722 
Q 1838 2722 1666 2615 
Q 1494 2509 1414 2295 
Q 1334 2081 1334 1663 
L 1334 0 
L 456 0 
L 456 4581 
L 1334 4581 
z
" transform="scale(0.015625)"/>
       <path id="Arial-BoldMT-72" d="M 1300 0 
L 422 0 
L 422 3319 
L 1238 3319 
L 1238 2847 
Q 1447 3181 1614 3287 
Q 1781 3394 1994 3394 
Q 2294 3394 2572 3228 
L 2300 2463 
Q 2078 2606 1888 2606 
Q 1703 2606 1575 2504 
Q 1447 2403 1373 2137 
Q 1300 1872 1300 1025 
L 1300 0 
z
" transform="scale(0.015625)"/>
       <path id="Arial-BoldMT-65" d="M 2381 1056 
L 3256 909 
Q 3088 428 2723 176 
Q 2359 -75 1813 -75 
Q 947 -75 531 491 
Q 203 944 203 1634 
Q 203 2459 634 2926 
Q 1066 3394 1725 3394 
Q 2466 3394 2894 2905 
Q 3322 2416 3303 1406 
L 1103 1406 
Q 1113 1016 1316 798 
Q 1519 581 1822 581 
Q 2028 581 2168 693 
Q 2309 806 2381 1056 
z
M 2431 1944 
Q 2422 2325 2234 2523 
Q 2047 2722 1778 2722 
Q 1491 2722 1303 2513 
Q 1116 2303 1119 1944 
L 2431 1944 
z
" transform="scale(0.015625)"/>
       <path id="Arial-BoldMT-73" d="M 150 947 
L 1031 1081 
Q 1088 825 1259 692 
Q 1431 559 1741 559 
Q 2081 559 2253 684 
Q 2369 772 2369 919 
Q 2369 1019 2306 1084 
Q 2241 1147 2013 1200 
Q 950 1434 666 1628 
Q 272 1897 272 2375 
Q 272 2806 612 3100 
Q 953 3394 1669 3394 
Q 2350 3394 2681 3172 
Q 3013 2950 3138 2516 
L 2309 2363 
Q 2256 2556 2107 2659 
Q 1959 2763 1684 2763 
Q 1338 2763 1188 2666 
Q 1088 2597 1088 2488 
Q 1088 2394 1175 2328 
Q 1294 2241 1995 2081 
Q 2697 1922 2975 1691 
Q 3250 1456 3250 1038 
Q 3250 581 2869 253 
Q 2488 -75 1741 -75 
Q 1063 -75 667 200 
Q 272 475 150 947 
z
" transform="scale(0.015625)"/>
       <path id="Arial-BoldMT-6f" d="M 256 1706 
Q 256 2144 472 2553 
Q 688 2963 1083 3178 
Q 1478 3394 1966 3394 
Q 2719 3394 3200 2905 
Q 3681 2416 3681 1669 
Q 3681 916 3195 420 
Q 2709 -75 1972 -75 
Q 1516 -75 1102 131 
Q 688 338 472 736 
Q 256 1134 256 1706 
z
M 1156 1659 
Q 1156 1166 1390 903 
Q 1625 641 1969 641 
Q 2313 641 2545 903 
Q 2778 1166 2778 1666 
Q 2778 2153 2545 2415 
Q 2313 2678 1969 2678 
Q 1625 2678 1390 2415 
Q 1156 2153 1156 1659 
z
" transform="scale(0.015625)"/>
       <path id="Arial-BoldMT-6c" d="M 459 0 
L 459 4581 
L 1338 4581 
L 1338 0 
L 459 0 
z
" transform="scale(0.015625)"/>
       <path id="Arial-BoldMT-64" d="M 3503 0 
L 2688 0 
L 2688 488 
Q 2484 203 2207 64 
Q 1931 -75 1650 -75 
Q 1078 -75 670 386 
Q 263 847 263 1672 
Q 263 2516 659 2955 
Q 1056 3394 1663 3394 
Q 2219 3394 2625 2931 
L 2625 4581 
L 3503 4581 
L 3503 0 
z
M 1159 1731 
Q 1159 1200 1306 963 
Q 1519 619 1900 619 
Q 2203 619 2415 876 
Q 2628 1134 2628 1647 
Q 2628 2219 2422 2470 
Q 2216 2722 1894 2722 
Q 1581 2722 1370 2473 
Q 1159 2225 1159 1731 
z
" transform="scale(0.015625)"/>
       <path id="Arial-BoldMT-49" d="M 438 0 
L 438 4581 
L 1363 4581 
L 1363 0 
L 438 0 
z
" transform="scale(0.015625)"/>
       <path id="Arial-BoldMT-6e" d="M 3478 0 
L 2600 0 
L 2600 1694 
Q 2600 2231 2544 2389 
Q 2488 2547 2361 2634 
Q 2234 2722 2056 2722 
Q 1828 2722 1647 2597 
Q 1466 2472 1398 2265 
Q 1331 2059 1331 1503 
L 1331 0 
L 453 0 
L 453 3319 
L 1269 3319 
L 1269 2831 
Q 1703 3394 2363 3394 
Q 2653 3394 2893 3289 
Q 3134 3184 3257 3021 
Q 3381 2859 3429 2653 
Q 3478 2447 3478 2063 
L 3478 0 
z
" transform="scale(0.015625)"/>
       <path id="Arial-BoldMT-78" d="M 38 0 
L 1234 1709 
L 88 3319 
L 1159 3319 
L 1747 2406 
L 2366 3319 
L 3397 3319 
L 2272 1747 
L 3500 0 
L 2422 0 
L 1747 1028 
L 1066 0 
L 38 0 
z
" transform="scale(0.015625)"/>
       <path id="Arial-BoldMT-29" d="M 216 -1347 
Q 475 -791 581 -494 
Q 688 -197 778 190 
Q 869 578 912 926 
Q 956 1275 956 1641 
Q 956 2384 797 3048 
Q 638 3713 209 4659 
L 806 4659 
Q 1278 3988 1539 3234 
Q 1800 2481 1800 1706 
Q 1800 1053 1594 306 
Q 1359 -531 822 -1347 
L 216 -1347 
z
" transform="scale(0.015625)"/>
      </defs>
      <use xlink:href="#Arial-BoldMT-6b"/>
      <use xlink:href="#Arial-BoldMT-20" transform="translate(55.615234 0)"/>
      <use xlink:href="#Arial-BoldMT-28" transform="translate(83.398438 0)"/>
      <use xlink:href="#Arial-BoldMT-54" transform="translate(116.699219 0)"/>
      <use xlink:href="#Arial-BoldMT-68" transform="translate(177.783203 0)"/>
      <use xlink:href="#Arial-BoldMT-72" transform="translate(238.867188 0)"/>
      <use xlink:href="#Arial-BoldMT-65" transform="translate(277.783203 0)"/>
      <use xlink:href="#Arial-BoldMT-73" transform="translate(333.398438 0)"/>
      <use xlink:href="#Arial-BoldMT-68" transform="translate(389.013672 0)"/>
      <use xlink:href="#Arial-BoldMT-6f" transform="translate(450.097656 0)"/>
      <use xlink:href="#Arial-BoldMT-6c" transform="translate(511.181641 0)"/>
      <use xlink:href="#Arial-BoldMT-64" transform="translate(538.964844 0)"/>
      <use xlink:href="#Arial-BoldMT-20" transform="translate(600.048828 0)"/>
      <use xlink:href="#Arial-BoldMT-49" transform="translate(627.832031 0)"/>
      <use xlink:href="#Arial-BoldMT-6e" transform="translate(655.615234 0)"/>
      <use xlink:href="#Arial-BoldMT-64" transform="translate(716.699219 0)"/>
      <use xlink:href="#Arial-BoldMT-65" transform="translate(777.783203 0)"/>
      <use xlink:href="#Arial-BoldMT-78" transform="translate(833.398438 0)"/>
      <use xlink:href="#Arial-BoldMT-29" transform="translate(889.013672 0)"/>
     </g>
    </g>
   </g>
   <g id="matplotlib.axis_2">
    <g id="ytick_1">
     <g id="line2d_11">
      <path d="M 43.0575 387.100937 
L 705.7075 387.100937 
" clip-path="url(#p4c40e460eb)" style="fill: none; stroke-dasharray: 2.96,1.28; stroke-dashoffset: 0; stroke: #b0b0b0; stroke-opacity: 0.5; stroke-width: 0.8"/>
     </g>
     <g id="line2d_12">
      <defs>
       <path id="mcad1854761" d="M 0 0 
L -3.5 0 
" style="stroke: #000000; stroke-width: 0.8"/>
      </defs>
      <g>
       <use xlink:href="#mcad1854761" x="43.0575" y="387.100937" style="stroke: #000000; stroke-width: 0.8"/>
      </g>
     </g>
     <g id="text_7">
      <!-- 0.0 -->
      <g transform="translate(22.1575 390.679844) scale(0.1 -0.1)">
       <defs>
        <path id="ArialMT-2e" d="M 581 0 
L 581 641 
L 1222 641 
L 1222 0 
L 581 0 
z
" transform="scale(0.015625)"/>
       </defs>
       <use xlink:href="#ArialMT-30"/>
       <use xlink:href="#ArialMT-2e" transform="translate(55.615234 0)"/>
       <use xlink:href="#ArialMT-30" transform="translate(83.398438 0)"/>
      </g>
     </g>
    </g>
    <g id="ytick_2">
     <g id="line2d_13">
      <path d="M 43.0575 317.790461 
L 705.7075 317.790461 
" clip-path="url(#p4c40e460eb)" style="fill: none; stroke-dasharray: 2.96,1.28; stroke-dashoffset: 0; stroke: #b0b0b0; stroke-opacity: 0.5; stroke-width: 0.8"/>
     </g>
     <g id="line2d_14">
      <g>
       <use xlink:href="#mcad1854761" x="43.0575" y="317.790461" style="stroke: #000000; stroke-width: 0.8"/>
      </g>
     </g>
     <g id="text_8">
      <!-- 0.2 -->
      <g transform="translate(22.1575 321.369368) scale(0.1 -0.1)">
       <use xlink:href="#ArialMT-30"/>
       <use xlink:href="#ArialMT-2e" transform="translate(55.615234 0)"/>
       <use xlink:href="#ArialMT-32" transform="translate(83.398438 0)"/>
      </g>
     </g>
    </g>
    <g id="ytick_3">
     <g id="line2d_15">
      <path d="M 43.0575 248.479985 
L 705.7075 248.479985 
" clip-path="url(#p4c40e460eb)" style="fill: none; stroke-dasharray: 2.96,1.28; stroke-dashoffset: 0; stroke: #b0b0b0; stroke-opacity: 0.5; stroke-width: 0.8"/>
     </g>
     <g id="line2d_16">
      <g>
       <use xlink:href="#mcad1854761" x="43.0575" y="248.479985" style="stroke: #000000; stroke-width: 0.8"/>
      </g>
     </g>
     <g id="text_9">
      <!-- 0.4 -->
      <g transform="translate(22.1575 252.058891) scale(0.1 -0.1)">
       <use xlink:href="#ArialMT-30"/>
       <use xlink:href="#ArialMT-2e" transform="translate(55.615234 0)"/>
       <use xlink:href="#ArialMT-34" transform="translate(83.398438 0)"/>
      </g>
     </g>
    </g>
    <g id="ytick_4">
     <g id="line2d_17">
      <path d="M 43.0575 179.169509 
L 705.7075 179.169509 
" clip-path="url(#p4c40e460eb)" style="fill: none; stroke-dasharray: 2.96,1.28; stroke-dashoffset: 0; stroke: #b0b0b0; stroke-opacity: 0.5; stroke-width: 0.8"/>
     </g>
     <g id="line2d_18">
      <g>
       <use xlink:href="#mcad1854761" x="43.0575" y="179.169509" style="stroke: #000000; stroke-width: 0.8"/>
      </g>
     </g>
     <g id="text_10">
      <!-- 0.6 -->
      <g transform="translate(22.1575 182.748415) scale(0.1 -0.1)">
       <defs>
        <path id="ArialMT-36" d="M 3184 3459 
L 2625 3416 
Q 2550 3747 2413 3897 
Q 2184 4138 1850 4138 
Q 1581 4138 1378 3988 
Q 1113 3794 959 3422 
Q 806 3050 800 2363 
Q 1003 2672 1297 2822 
Q 1591 2972 1913 2972 
Q 2475 2972 2870 2558 
Q 3266 2144 3266 1488 
Q 3266 1056 3080 686 
Q 2894 316 2569 119 
Q 2244 -78 1831 -78 
Q 1128 -78 684 439 
Q 241 956 241 2144 
Q 241 3472 731 4075 
Q 1159 4600 1884 4600 
Q 2425 4600 2770 4297 
Q 3116 3994 3184 3459 
z
M 888 1484 
Q 888 1194 1011 928 
Q 1134 663 1356 523 
Q 1578 384 1822 384 
Q 2178 384 2434 671 
Q 2691 959 2691 1453 
Q 2691 1928 2437 2201 
Q 2184 2475 1800 2475 
Q 1419 2475 1153 2201 
Q 888 1928 888 1484 
z
" transform="scale(0.015625)"/>
       </defs>
       <use xlink:href="#ArialMT-30"/>
       <use xlink:href="#ArialMT-2e" transform="translate(55.615234 0)"/>
       <use xlink:href="#ArialMT-36" transform="translate(83.398438 0)"/>
      </g>
     </g>
    </g>
    <g id="ytick_5">
     <g id="line2d_19">
      <path d="M 43.0575 109.859033 
L 705.7075 109.859033 
" clip-path="url(#p4c40e460eb)" style="fill: none; stroke-dasharray: 2.96,1.28; stroke-dashoffset: 0; stroke: #b0b0b0; stroke-opacity: 0.5; stroke-width: 0.8"/>
     </g>
     <g id="line2d_20">
      <g>
       <use xlink:href="#mcad1854761" x="43.0575" y="109.859033" style="stroke: #000000; stroke-width: 0.8"/>
      </g>
     </g>
     <g id="text_11">
      <!-- 0.8 -->
      <g transform="translate(22.1575 113.437939) scale(0.1 -0.1)">
       <defs>
        <path id="ArialMT-38" d="M 1131 2484 
Q 781 2613 612 2850 
Q 444 3088 444 3419 
Q 444 3919 803 4259 
Q 1163 4600 1759 4600 
Q 2359 4600 2725 4251 
Q 3091 3903 3091 3403 
Q 3091 3084 2923 2848 
Q 2756 2613 2416 2484 
Q 2838 2347 3058 2040 
Q 3278 1734 3278 1309 
Q 3278 722 2862 322 
Q 2447 -78 1769 -78 
Q 1091 -78 675 323 
Q 259 725 259 1325 
Q 259 1772 486 2073 
Q 713 2375 1131 2484 
z
M 1019 3438 
Q 1019 3113 1228 2906 
Q 1438 2700 1772 2700 
Q 2097 2700 2305 2904 
Q 2513 3109 2513 3406 
Q 2513 3716 2298 3927 
Q 2084 4138 1766 4138 
Q 1444 4138 1231 3931 
Q 1019 3725 1019 3438 
z
M 838 1322 
Q 838 1081 952 856 
Q 1066 631 1291 507 
Q 1516 384 1775 384 
Q 2178 384 2440 643 
Q 2703 903 2703 1303 
Q 2703 1709 2433 1975 
Q 2163 2241 1756 2241 
Q 1359 2241 1098 1978 
Q 838 1716 838 1322 
z
" transform="scale(0.015625)"/>
       </defs>
       <use xlink:href="#ArialMT-30"/>
       <use xlink:href="#ArialMT-2e" transform="translate(55.615234 0)"/>
       <use xlink:href="#ArialMT-38" transform="translate(83.398438 0)"/>
      </g>
     </g>
    </g>
    <g id="ytick_6">
     <g id="line2d_21">
      <path d="M 43.0575 40.548557 
L 705.7075 40.548557 
" clip-path="url(#p4c40e460eb)" style="fill: none; stroke-dasharray: 2.96,1.28; stroke-dashoffset: 0; stroke: #b0b0b0; stroke-opacity: 0.5; stroke-width: 0.8"/>
     </g>
     <g id="line2d_22">
      <g>
       <use xlink:href="#mcad1854761" x="43.0575" y="40.548557" style="stroke: #000000; stroke-width: 0.8"/>
      </g>
     </g>
     <g id="text_12">
      <!-- 1.0 -->
      <g transform="translate(22.1575 44.127463) scale(0.1 -0.1)">
       <use xlink:href="#ArialMT-31"/>
       <use xlink:href="#ArialMT-2e" transform="translate(55.615234 0)"/>
       <use xlink:href="#ArialMT-30" transform="translate(83.398438 0)"/>
      </g>
     </g>
    </g>
    <g id="text_13">
     <!-- Recall -->
     <g transform="translate(15.789375 222.8375) rotate(-90) scale(0.12 -0.12)">
      <defs>
       <path id="Arial-BoldMT-52" d="M 469 0 
L 469 4581 
L 2416 4581 
Q 3150 4581 3483 4457 
Q 3816 4334 4016 4018 
Q 4216 3703 4216 3297 
Q 4216 2781 3912 2445 
Q 3609 2109 3006 2022 
Q 3306 1847 3501 1637 
Q 3697 1428 4028 894 
L 4588 0 
L 3481 0 
L 2813 997 
Q 2456 1531 2325 1670 
Q 2194 1809 2047 1861 
Q 1900 1913 1581 1913 
L 1394 1913 
L 1394 0 
L 469 0 
z
M 1394 2644 
L 2078 2644 
Q 2744 2644 2909 2700 
Q 3075 2756 3169 2893 
Q 3263 3031 3263 3238 
Q 3263 3469 3139 3611 
Q 3016 3753 2791 3791 
Q 2678 3806 2116 3806 
L 1394 3806 
L 1394 2644 
z
" transform="scale(0.015625)"/>
       <path id="Arial-BoldMT-63" d="M 3353 2338 
L 2488 2181 
Q 2444 2441 2289 2572 
Q 2134 2703 1888 2703 
Q 1559 2703 1364 2476 
Q 1169 2250 1169 1719 
Q 1169 1128 1367 884 
Q 1566 641 1900 641 
Q 2150 641 2309 783 
Q 2469 925 2534 1272 
L 3397 1125 
Q 3263 531 2881 228 
Q 2500 -75 1859 -75 
Q 1131 -75 698 384 
Q 266 844 266 1656 
Q 266 2478 700 2936 
Q 1134 3394 1875 3394 
Q 2481 3394 2839 3133 
Q 3197 2872 3353 2338 
z
" transform="scale(0.015625)"/>
       <path id="Arial-BoldMT-61" d="M 1116 2306 
L 319 2450 
Q 453 2931 781 3162 
Q 1109 3394 1756 3394 
Q 2344 3394 2631 3255 
Q 2919 3116 3036 2902 
Q 3153 2688 3153 2116 
L 3144 1091 
Q 3144 653 3186 445 
Q 3228 238 3344 0 
L 2475 0 
Q 2441 88 2391 259 
Q 2369 338 2359 363 
Q 2134 144 1878 34 
Q 1622 -75 1331 -75 
Q 819 -75 523 203 
Q 228 481 228 906 
Q 228 1188 362 1408 
Q 497 1628 739 1745 
Q 981 1863 1438 1950 
Q 2053 2066 2291 2166 
L 2291 2253 
Q 2291 2506 2166 2614 
Q 2041 2722 1694 2722 
Q 1459 2722 1328 2630 
Q 1197 2538 1116 2306 
z
M 2291 1594 
Q 2122 1538 1756 1459 
Q 1391 1381 1278 1306 
Q 1106 1184 1106 997 
Q 1106 813 1243 678 
Q 1381 544 1594 544 
Q 1831 544 2047 700 
Q 2206 819 2256 991 
Q 2291 1103 2291 1419 
L 2291 1594 
z
" transform="scale(0.015625)"/>
      </defs>
      <use xlink:href="#Arial-BoldMT-52"/>
      <use xlink:href="#Arial-BoldMT-65" transform="translate(72.216797 0)"/>
      <use xlink:href="#Arial-BoldMT-63" transform="translate(127.832031 0)"/>
      <use xlink:href="#Arial-BoldMT-61" transform="translate(183.447266 0)"/>
      <use xlink:href="#Arial-BoldMT-6c" transform="translate(239.0625 0)"/>
      <use xlink:href="#Arial-BoldMT-6c" transform="translate(266.845703 0)"/>
     </g>
    </g>
   </g>
   <g id="line2d_23">
    <path d="M 44.409847 387.100937 
L 47.114541 369.773318 
L 48.466888 369.773318 
L 59.285663 300.462842 
L 60.63801 300.462842 
L 61.990357 291.799033 
L 64.695051 291.799033 
L 66.047398 283.135223 
L 67.399745 283.135223 
L 68.752092 274.471414 
L 71.456786 274.471414 
L 74.16148 257.143795 
L 80.923214 257.143795 
L 83.627908 239.816176 
L 86.332602 239.816176 
L 87.684949 231.152366 
L 102.560765 231.152366 
L 103.913112 222.488557 
L 105.265459 222.488557 
L 107.970153 205.160937 
L 112.027194 205.160937 
L 113.379541 196.497128 
L 122.845969 196.497128 
L 124.198316 187.833318 
L 125.550663 187.833318 
L 126.90301 179.169509 
L 130.960051 179.169509 
L 132.312398 170.505699 
L 141.778827 170.505699 
L 143.131173 161.84189 
L 144.48352 161.84189 
L 145.835867 153.17808 
L 147.188214 153.17808 
L 148.540561 144.514271 
L 172.882806 144.514271 
L 174.235153 135.850461 
L 189.110969 135.850461 
L 190.463316 127.186652 
L 197.225051 127.186652 
L 199.929745 109.859033 
L 206.69148 109.859033 
L 208.043827 101.195223 
L 289.184643 101.195223 
L 291.889337 83.867604 
L 335.164439 83.867604 
L 336.516786 75.203795 
L 347.335561 75.203795 
L 348.687908 66.539985 
L 385.201276 66.539985 
L 386.553622 57.876176 
L 621.86199 57.876176 
L 623.214337 49.212366 
L 665.137092 49.212366 
L 666.489439 40.548557 
L 705.7075 40.548557 
L 705.7075 40.548557 
" clip-path="url(#p4c40e460eb)" style="fill: none; stroke: #1f77b4; stroke-width: 2; stroke-linecap: square"/>
    <defs>
     <path id="m20062c9e56" d="M 0 1.5 
C 0.397805 1.5 0.77937 1.341951 1.06066 1.06066 
C 1.341951 0.77937 1.5 0.397805 1.5 0 
C 1.5 -0.397805 1.341951 -0.77937 1.06066 -1.06066 
C 0.77937 -1.341951 0.397805 -1.5 0 -1.5 
C -0.397805 -1.5 -0.77937 -1.341951 -1.06066 -1.06066 
C -1.341951 -0.77937 -1.5 -0.397805 -1.5 0 
C -1.5 0.397805 -1.341951 0.77937 -1.06066 1.06066 
C -0.77937 1.341951 -0.397805 1.5 0 1.5 
z
" style="stroke: #1f77b4"/>
    </defs>
    <g clip-path="url(#p4c40e460eb)">
     <use xlink:href="#m20062c9e56" x="44.409847" y="387.100937" style="fill: #1f77b4; stroke: #1f77b4"/>
     <use xlink:href="#m20062c9e56" x="60.63801" y="300.462842" style="fill: #1f77b4; stroke: #1f77b4"/>
     <use xlink:href="#m20062c9e56" x="76.866173" y="257.143795" style="fill: #1f77b4; stroke: #1f77b4"/>
     <use xlink:href="#m20062c9e56" x="93.094337" y="231.152366" style="fill: #1f77b4; stroke: #1f77b4"/>
     <use xlink:href="#m20062c9e56" x="109.3225" y="205.160937" style="fill: #1f77b4; stroke: #1f77b4"/>
     <use xlink:href="#m20062c9e56" x="125.550663" y="187.833318" style="fill: #1f77b4; stroke: #1f77b4"/>
     <use xlink:href="#m20062c9e56" x="141.778827" y="170.505699" style="fill: #1f77b4; stroke: #1f77b4"/>
     <use xlink:href="#m20062c9e56" x="158.00699" y="144.514271" style="fill: #1f77b4; stroke: #1f77b4"/>
     <use xlink:href="#m20062c9e56" x="174.235153" y="135.850461" style="fill: #1f77b4; stroke: #1f77b4"/>
     <use xlink:href="#m20062c9e56" x="190.463316" y="127.186652" style="fill: #1f77b4; stroke: #1f77b4"/>
     <use xlink:href="#m20062c9e56" x="206.69148" y="109.859033" style="fill: #1f77b4; stroke: #1f77b4"/>
     <use xlink:href="#m20062c9e56" x="222.919643" y="101.195223" style="fill: #1f77b4; stroke: #1f77b4"/>
     <use xlink:href="#m20062c9e56" x="239.147806" y="101.195223" style="fill: #1f77b4; stroke: #1f77b4"/>
     <use xlink:href="#m20062c9e56" x="255.375969" y="101.195223" style="fill: #1f77b4; stroke: #1f77b4"/>
     <use xlink:href="#m20062c9e56" x="271.604133" y="101.195223" style="fill: #1f77b4; stroke: #1f77b4"/>
     <use xlink:href="#m20062c9e56" x="287.832296" y="101.195223" style="fill: #1f77b4; stroke: #1f77b4"/>
     <use xlink:href="#m20062c9e56" x="304.060459" y="83.867604" style="fill: #1f77b4; stroke: #1f77b4"/>
     <use xlink:href="#m20062c9e56" x="320.288622" y="83.867604" style="fill: #1f77b4; stroke: #1f77b4"/>
     <use xlink:href="#m20062c9e56" x="336.516786" y="75.203795" style="fill: #1f77b4; stroke: #1f77b4"/>
     <use xlink:href="#m20062c9e56" x="352.744949" y="66.539985" style="fill: #1f77b4; stroke: #1f77b4"/>
     <use xlink:href="#m20062c9e56" x="368.973112" y="66.539985" style="fill: #1f77b4; stroke: #1f77b4"/>
     <use xlink:href="#m20062c9e56" x="385.201276" y="66.539985" style="fill: #1f77b4; stroke: #1f77b4"/>
     <use xlink:href="#m20062c9e56" x="401.429439" y="57.876176" style="fill: #1f77b4; stroke: #1f77b4"/>
     <use xlink:href="#m20062c9e56" x="417.657602" y="57.876176" style="fill: #1f77b4; stroke: #1f77b4"/>
     <use xlink:href="#m20062c9e56" x="433.885765" y="57.876176" style="fill: #1f77b4; stroke: #1f77b4"/>
     <use xlink:href="#m20062c9e56" x="450.113929" y="57.876176" style="fill: #1f77b4; stroke: #1f77b4"/>
     <use xlink:href="#m20062c9e56" x="466.342092" y="57.876176" style="fill: #1f77b4; stroke: #1f77b4"/>
     <use xlink:href="#m20062c9e56" x="482.570255" y="57.876176" style="fill: #1f77b4; stroke: #1f77b4"/>
     <use xlink:href="#m20062c9e56" x="498.798418" y="57.876176" style="fill: #1f77b4; stroke: #1f77b4"/>
     <use xlink:href="#m20062c9e56" x="515.026582" y="57.876176" style="fill: #1f77b4; stroke: #1f77b4"/>
     <use xlink:href="#m20062c9e56" x="531.254745" y="57.876176" style="fill: #1f77b4; stroke: #1f77b4"/>
     <use xlink:href="#m20062c9e56" x="547.482908" y="57.876176" style="fill: #1f77b4; stroke: #1f77b4"/>
     <use xlink:href="#m20062c9e56" x="563.711071" y="57.876176" style="fill: #1f77b4; stroke: #1f77b4"/>
     <use xlink:href="#m20062c9e56" x="579.939235" y="57.876176" style="fill: #1f77b4; stroke: #1f77b4"/>
     <use xlink:href="#m20062c9e56" x="596.167398" y="57.876176" style="fill: #1f77b4; stroke: #1f77b4"/>
     <use xlink:href="#m20062c9e56" x="612.395561" y="57.876176" style="fill: #1f77b4; stroke: #1f77b4"/>
     <use xlink:href="#m20062c9e56" x="628.623724" y="49.212366" style="fill: #1f77b4; stroke: #1f77b4"/>
     <use xlink:href="#m20062c9e56" x="644.851888" y="49.212366" style="fill: #1f77b4; stroke: #1f77b4"/>
     <use xlink:href="#m20062c9e56" x="661.080051" y="49.212366" style="fill: #1f77b4; stroke: #1f77b4"/>
     <use xlink:href="#m20062c9e56" x="677.308214" y="40.548557" style="fill: #1f77b4; stroke: #1f77b4"/>
     <use xlink:href="#m20062c9e56" x="693.536378" y="40.548557" style="fill: #1f77b4; stroke: #1f77b4"/>
    </g>
   </g>
   <g id="line2d_24">
    <path d="M 44.409847 387.100937 
L 45.762194 387.100937 
L 66.047398 257.143795 
L 67.399745 257.143795 
L 70.104439 239.816176 
L 71.456786 239.816176 
L 79.570867 187.833318 
L 99.856071 187.833318 
L 101.208418 179.169509 
L 114.731888 179.169509 
L 117.436582 161.84189 
L 171.530459 161.84189 
L 172.882806 153.17808 
L 220.214949 153.17808 
L 221.567296 144.514271 
L 225.624337 144.514271 
L 226.976684 135.850461 
L 247.261888 135.850461 
L 249.966582 118.522842 
L 251.318929 118.522842 
L 252.671276 109.859033 
L 259.43301 109.859033 
L 260.785357 101.195223 
L 267.547092 101.195223 
L 268.899439 92.531414 
L 304.060459 92.531414 
L 305.412806 83.867604 
L 382.496582 83.867604 
L 383.848929 75.203795 
L 397.372398 75.203795 
L 398.724745 66.539985 
L 588.053316 66.539985 
L 590.75801 49.212366 
L 623.214337 49.212366 
L 624.566684 40.548557 
L 705.7075 40.548557 
L 705.7075 40.548557 
" clip-path="url(#p4c40e460eb)" style="fill: none; stroke: #ff7f0e; stroke-width: 2; stroke-linecap: square"/>
    <defs>
     <path id="mc1367a5c70" d="M 0 1.5 
C 0.397805 1.5 0.77937 1.341951 1.06066 1.06066 
C 1.341951 0.77937 1.5 0.397805 1.5 0 
C 1.5 -0.397805 1.341951 -0.77937 1.06066 -1.06066 
C 0.77937 -1.341951 0.397805 -1.5 0 -1.5 
C -0.397805 -1.5 -0.77937 -1.341951 -1.06066 -1.06066 
C -1.341951 -0.77937 -1.5 -0.397805 -1.5 0 
C -1.5 0.397805 -1.341951 0.77937 -1.06066 1.06066 
C -0.77937 1.341951 -0.397805 1.5 0 1.5 
z
" style="stroke: #ff7f0e"/>
    </defs>
    <g clip-path="url(#p4c40e460eb)">
     <use xlink:href="#mc1367a5c70" x="44.409847" y="387.100937" style="fill: #ff7f0e; stroke: #ff7f0e"/>
     <use xlink:href="#mc1367a5c70" x="60.63801" y="291.799033" style="fill: #ff7f0e; stroke: #ff7f0e"/>
     <use xlink:href="#mc1367a5c70" x="76.866173" y="205.160937" style="fill: #ff7f0e; stroke: #ff7f0e"/>
     <use xlink:href="#mc1367a5c70" x="93.094337" y="187.833318" style="fill: #ff7f0e; stroke: #ff7f0e"/>
     <use xlink:href="#mc1367a5c70" x="109.3225" y="179.169509" style="fill: #ff7f0e; stroke: #ff7f0e"/>
     <use xlink:href="#mc1367a5c70" x="125.550663" y="161.84189" style="fill: #ff7f0e; stroke: #ff7f0e"/>
     <use xlink:href="#mc1367a5c70" x="141.778827" y="161.84189" style="fill: #ff7f0e; stroke: #ff7f0e"/>
     <use xlink:href="#mc1367a5c70" x="158.00699" y="161.84189" style="fill: #ff7f0e; stroke: #ff7f0e"/>
     <use xlink:href="#mc1367a5c70" x="174.235153" y="153.17808" style="fill: #ff7f0e; stroke: #ff7f0e"/>
     <use xlink:href="#mc1367a5c70" x="190.463316" y="153.17808" style="fill: #ff7f0e; stroke: #ff7f0e"/>
     <use xlink:href="#mc1367a5c70" x="206.69148" y="153.17808" style="fill: #ff7f0e; stroke: #ff7f0e"/>
     <use xlink:href="#mc1367a5c70" x="222.919643" y="144.514271" style="fill: #ff7f0e; stroke: #ff7f0e"/>
     <use xlink:href="#mc1367a5c70" x="239.147806" y="135.850461" style="fill: #ff7f0e; stroke: #ff7f0e"/>
     <use xlink:href="#mc1367a5c70" x="255.375969" y="109.859033" style="fill: #ff7f0e; stroke: #ff7f0e"/>
     <use xlink:href="#mc1367a5c70" x="271.604133" y="92.531414" style="fill: #ff7f0e; stroke: #ff7f0e"/>
     <use xlink:href="#mc1367a5c70" x="287.832296" y="92.531414" style="fill: #ff7f0e; stroke: #ff7f0e"/>
     <use xlink:href="#mc1367a5c70" x="304.060459" y="92.531414" style="fill: #ff7f0e; stroke: #ff7f0e"/>
     <use xlink:href="#mc1367a5c70" x="320.288622" y="83.867604" style="fill: #ff7f0e; stroke: #ff7f0e"/>
     <use xlink:href="#mc1367a5c70" x="336.516786" y="83.867604" style="fill: #ff7f0e; stroke: #ff7f0e"/>
     <use xlink:href="#mc1367a5c70" x="352.744949" y="83.867604" style="fill: #ff7f0e; stroke: #ff7f0e"/>
     <use xlink:href="#mc1367a5c70" x="368.973112" y="83.867604" style="fill: #ff7f0e; stroke: #ff7f0e"/>
     <use xlink:href="#mc1367a5c70" x="385.201276" y="75.203795" style="fill: #ff7f0e; stroke: #ff7f0e"/>
     <use xlink:href="#mc1367a5c70" x="401.429439" y="66.539985" style="fill: #ff7f0e; stroke: #ff7f0e"/>
     <use xlink:href="#mc1367a5c70" x="417.657602" y="66.539985" style="fill: #ff7f0e; stroke: #ff7f0e"/>
     <use xlink:href="#mc1367a5c70" x="433.885765" y="66.539985" style="fill: #ff7f0e; stroke: #ff7f0e"/>
     <use xlink:href="#mc1367a5c70" x="450.113929" y="66.539985" style="fill: #ff7f0e; stroke: #ff7f0e"/>
     <use xlink:href="#mc1367a5c70" x="466.342092" y="66.539985" style="fill: #ff7f0e; stroke: #ff7f0e"/>
     <use xlink:href="#mc1367a5c70" x="482.570255" y="66.539985" style="fill: #ff7f0e; stroke: #ff7f0e"/>
     <use xlink:href="#mc1367a5c70" x="498.798418" y="66.539985" style="fill: #ff7f0e; stroke: #ff7f0e"/>
     <use xlink:href="#mc1367a5c70" x="515.026582" y="66.539985" style="fill: #ff7f0e; stroke: #ff7f0e"/>
     <use xlink:href="#mc1367a5c70" x="531.254745" y="66.539985" style="fill: #ff7f0e; stroke: #ff7f0e"/>
     <use xlink:href="#mc1367a5c70" x="547.482908" y="66.539985" style="fill: #ff7f0e; stroke: #ff7f0e"/>
     <use xlink:href="#mc1367a5c70" x="563.711071" y="66.539985" style="fill: #ff7f0e; stroke: #ff7f0e"/>
     <use xlink:href="#mc1367a5c70" x="579.939235" y="66.539985" style="fill: #ff7f0e; stroke: #ff7f0e"/>
     <use xlink:href="#mc1367a5c70" x="596.167398" y="49.212366" style="fill: #ff7f0e; stroke: #ff7f0e"/>
     <use xlink:href="#mc1367a5c70" x="612.395561" y="49.212366" style="fill: #ff7f0e; stroke: #ff7f0e"/>
     <use xlink:href="#mc1367a5c70" x="628.623724" y="40.548557" style="fill: #ff7f0e; stroke: #ff7f0e"/>
     <use xlink:href="#mc1367a5c70" x="644.851888" y="40.548557" style="fill: #ff7f0e; stroke: #ff7f0e"/>
     <use xlink:href="#mc1367a5c70" x="661.080051" y="40.548557" style="fill: #ff7f0e; stroke: #ff7f0e"/>
     <use xlink:href="#mc1367a5c70" x="677.308214" y="40.548557" style="fill: #ff7f0e; stroke: #ff7f0e"/>
     <use xlink:href="#mc1367a5c70" x="693.536378" y="40.548557" style="fill: #ff7f0e; stroke: #ff7f0e"/>
    </g>
   </g>
   <g id="line2d_25">
    <path d="M 44.409847 378.437128 
L 55.228622 309.126652 
L 56.580969 309.126652 
L 57.933316 300.462842 
L 63.342704 300.462842 
L 64.695051 291.799033 
L 66.047398 291.799033 
L 70.104439 265.807604 
L 94.446684 265.807604 
L 95.799031 257.143795 
L 158.00699 257.143795 
L 159.359337 248.479985 
L 160.711684 248.479985 
L 162.064031 239.816176 
L 185.053929 239.816176 
L 186.406276 231.152366 
L 255.375969 231.152366 
L 256.728316 222.488557 
L 397.372398 222.488557 
L 398.724745 213.824747 
L 400.077092 213.824747 
L 401.429439 205.160937 
L 469.046786 205.160937 
L 470.399133 196.497128 
L 500.150765 196.497128 
L 501.503112 187.833318 
L 574.529847 187.833318 
L 575.882194 179.169509 
L 578.586888 179.169509 
L 579.939235 170.505699 
L 583.996276 170.505699 
L 585.348622 161.84189 
L 606.986173 161.84189 
L 608.33852 153.17808 
L 639.4425 153.17808 
L 640.794847 144.514271 
L 644.851888 144.514271 
L 646.204235 135.850461 
L 648.908929 135.850461 
L 650.261276 127.186652 
L 669.194133 127.186652 
L 670.54648 118.522842 
L 671.898827 118.522842 
L 673.251173 109.859033 
L 680.012908 109.859033 
L 681.365255 101.195223 
L 682.717602 101.195223 
L 684.069949 92.531414 
L 685.422296 92.531414 
L 686.774643 83.867604 
L 696.241071 83.867604 
L 701.650459 49.212366 
L 703.002806 49.212366 
L 704.355153 40.548557 
L 705.7075 40.548557 
L 705.7075 40.548557 
" clip-path="url(#p4c40e460eb)" style="fill: none; stroke: #2ca02c; stroke-width: 2; stroke-linecap: square"/>
    <defs>
     <path id="m99199e52e5" d="M 0 1.5 
C 0.397805 1.5 0.77937 1.341951 1.06066 1.06066 
C 1.341951 0.77937 1.5 0.397805 1.5 0 
C 1.5 -0.397805 1.341951 -0.77937 1.06066 -1.06066 
C 0.77937 -1.341951 0.397805 -1.5 0 -1.5 
C -0.397805 -1.5 -0.77937 -1.341951 -1.06066 -1.06066 
C -1.341951 -0.77937 -1.5 -0.397805 -1.5 0 
C -1.5 0.397805 -1.341951 0.77937 -1.06066 1.06066 
C -0.77937 1.341951 -0.397805 1.5 0 1.5 
z
" style="stroke: #2ca02c"/>
    </defs>
    <g clip-path="url(#p4c40e460eb)">
     <use xlink:href="#m99199e52e5" x="44.409847" y="378.437128" style="fill: #2ca02c; stroke: #2ca02c"/>
     <use xlink:href="#m99199e52e5" x="60.63801" y="300.462842" style="fill: #2ca02c; stroke: #2ca02c"/>
     <use xlink:href="#m99199e52e5" x="76.866173" y="265.807604" style="fill: #2ca02c; stroke: #2ca02c"/>
     <use xlink:href="#m99199e52e5" x="93.094337" y="265.807604" style="fill: #2ca02c; stroke: #2ca02c"/>
     <use xlink:href="#m99199e52e5" x="109.3225" y="257.143795" style="fill: #2ca02c; stroke: #2ca02c"/>
     <use xlink:href="#m99199e52e5" x="125.550663" y="257.143795" style="fill: #2ca02c; stroke: #2ca02c"/>
     <use xlink:href="#m99199e52e5" x="141.778827" y="257.143795" style="fill: #2ca02c; stroke: #2ca02c"/>
     <use xlink:href="#m99199e52e5" x="158.00699" y="257.143795" style="fill: #2ca02c; stroke: #2ca02c"/>
     <use xlink:href="#m99199e52e5" x="174.235153" y="239.816176" style="fill: #2ca02c; stroke: #2ca02c"/>
     <use xlink:href="#m99199e52e5" x="190.463316" y="231.152366" style="fill: #2ca02c; stroke: #2ca02c"/>
     <use xlink:href="#m99199e52e5" x="206.69148" y="231.152366" style="fill: #2ca02c; stroke: #2ca02c"/>
     <use xlink:href="#m99199e52e5" x="222.919643" y="231.152366" style="fill: #2ca02c; stroke: #2ca02c"/>
     <use xlink:href="#m99199e52e5" x="239.147806" y="231.152366" style="fill: #2ca02c; stroke: #2ca02c"/>
     <use xlink:href="#m99199e52e5" x="255.375969" y="231.152366" style="fill: #2ca02c; stroke: #2ca02c"/>
     <use xlink:href="#m99199e52e5" x="271.604133" y="222.488557" style="fill: #2ca02c; stroke: #2ca02c"/>
     <use xlink:href="#m99199e52e5" x="287.832296" y="222.488557" style="fill: #2ca02c; stroke: #2ca02c"/>
     <use xlink:href="#m99199e52e5" x="304.060459" y="222.488557" style="fill: #2ca02c; stroke: #2ca02c"/>
     <use xlink:href="#m99199e52e5" x="320.288622" y="222.488557" style="fill: #2ca02c; stroke: #2ca02c"/>
     <use xlink:href="#m99199e52e5" x="336.516786" y="222.488557" style="fill: #2ca02c; stroke: #2ca02c"/>
     <use xlink:href="#m99199e52e5" x="352.744949" y="222.488557" style="fill: #2ca02c; stroke: #2ca02c"/>
     <use xlink:href="#m99199e52e5" x="368.973112" y="222.488557" style="fill: #2ca02c; stroke: #2ca02c"/>
     <use xlink:href="#m99199e52e5" x="385.201276" y="222.488557" style="fill: #2ca02c; stroke: #2ca02c"/>
     <use xlink:href="#m99199e52e5" x="401.429439" y="205.160937" style="fill: #2ca02c; stroke: #2ca02c"/>
     <use xlink:href="#m99199e52e5" x="417.657602" y="205.160937" style="fill: #2ca02c; stroke: #2ca02c"/>
     <use xlink:href="#m99199e52e5" x="433.885765" y="205.160937" style="fill: #2ca02c; stroke: #2ca02c"/>
     <use xlink:href="#m99199e52e5" x="450.113929" y="205.160937" style="fill: #2ca02c; stroke: #2ca02c"/>
     <use xlink:href="#m99199e52e5" x="466.342092" y="205.160937" style="fill: #2ca02c; stroke: #2ca02c"/>
     <use xlink:href="#m99199e52e5" x="482.570255" y="196.497128" style="fill: #2ca02c; stroke: #2ca02c"/>
     <use xlink:href="#m99199e52e5" x="498.798418" y="196.497128" style="fill: #2ca02c; stroke: #2ca02c"/>
     <use xlink:href="#m99199e52e5" x="515.026582" y="187.833318" style="fill: #2ca02c; stroke: #2ca02c"/>
     <use xlink:href="#m99199e52e5" x="531.254745" y="187.833318" style="fill: #2ca02c; stroke: #2ca02c"/>
     <use xlink:href="#m99199e52e5" x="547.482908" y="187.833318" style="fill: #2ca02c; stroke: #2ca02c"/>
     <use xlink:href="#m99199e52e5" x="563.711071" y="187.833318" style="fill: #2ca02c; stroke: #2ca02c"/>
     <use xlink:href="#m99199e52e5" x="579.939235" y="170.505699" style="fill: #2ca02c; stroke: #2ca02c"/>
     <use xlink:href="#m99199e52e5" x="596.167398" y="161.84189" style="fill: #2ca02c; stroke: #2ca02c"/>
     <use xlink:href="#m99199e52e5" x="612.395561" y="153.17808" style="fill: #2ca02c; stroke: #2ca02c"/>
     <use xlink:href="#m99199e52e5" x="628.623724" y="153.17808" style="fill: #2ca02c; stroke: #2ca02c"/>
     <use xlink:href="#m99199e52e5" x="644.851888" y="144.514271" style="fill: #2ca02c; stroke: #2ca02c"/>
     <use xlink:href="#m99199e52e5" x="661.080051" y="127.186652" style="fill: #2ca02c; stroke: #2ca02c"/>
     <use xlink:href="#m99199e52e5" x="677.308214" y="109.859033" style="fill: #2ca02c; stroke: #2ca02c"/>
     <use xlink:href="#m99199e52e5" x="693.536378" y="83.867604" style="fill: #2ca02c; stroke: #2ca02c"/>
    </g>
   </g>
   <g id="line2d_26">
    <path d="M 44.409847 378.437128 
L 45.762194 378.437128 
L 48.466888 361.109509 
L 221.567296 361.109509 
L 222.919643 352.445699 
L 274.308827 352.445699 
L 275.661173 343.78189 
L 341.926173 343.78189 
L 343.27852 335.11808 
L 344.630867 335.11808 
L 348.687908 309.126652 
L 356.80199 309.126652 
L 358.154337 300.462842 
L 359.506684 300.462842 
L 362.211378 283.135223 
L 364.916071 283.135223 
L 366.268418 274.471414 
L 387.905969 274.471414 
L 389.258316 265.807604 
L 413.600561 265.807604 
L 428.476378 170.505699 
L 433.885765 170.505699 
L 435.238112 161.84189 
L 477.160867 161.84189 
L 478.513214 153.17808 
L 479.865561 153.17808 
L 483.922602 127.186652 
L 494.741378 127.186652 
L 496.093724 118.522842 
L 543.425867 118.522842 
L 546.130561 101.195223 
L 585.348622 101.195223 
L 586.700969 92.531414 
L 590.75801 92.531414 
L 592.110357 83.867604 
L 655.670663 83.867604 
L 657.02301 75.203795 
L 659.727704 75.203795 
L 662.432398 57.876176 
L 663.784745 57.876176 
L 666.489439 40.548557 
L 705.7075 40.548557 
L 705.7075 40.548557 
" clip-path="url(#p4c40e460eb)" style="fill: none; stroke: #9467bd; stroke-width: 2; stroke-linecap: square"/>
    <defs>
     <path id="m79f66a4089" d="M 0 1.5 
C 0.397805 1.5 0.77937 1.341951 1.06066 1.06066 
C 1.341951 0.77937 1.5 0.397805 1.5 0 
C 1.5 -0.397805 1.341951 -0.77937 1.06066 -1.06066 
C 0.77937 -1.341951 0.397805 -1.5 0 -1.5 
C -0.397805 -1.5 -0.77937 -1.341951 -1.06066 -1.06066 
C -1.341951 -0.77937 -1.5 -0.397805 -1.5 0 
C -1.5 0.397805 -1.341951 0.77937 -1.06066 1.06066 
C -0.77937 1.341951 -0.397805 1.5 0 1.5 
z
" style="stroke: #9467bd"/>
    </defs>
    <g clip-path="url(#p4c40e460eb)">
     <use xlink:href="#m79f66a4089" x="44.409847" y="378.437128" style="fill: #9467bd; stroke: #9467bd"/>
     <use xlink:href="#m79f66a4089" x="60.63801" y="361.109509" style="fill: #9467bd; stroke: #9467bd"/>
     <use xlink:href="#m79f66a4089" x="76.866173" y="361.109509" style="fill: #9467bd; stroke: #9467bd"/>
     <use xlink:href="#m79f66a4089" x="93.094337" y="361.109509" style="fill: #9467bd; stroke: #9467bd"/>
     <use xlink:href="#m79f66a4089" x="109.3225" y="361.109509" style="fill: #9467bd; stroke: #9467bd"/>
     <use xlink:href="#m79f66a4089" x="125.550663" y="361.109509" style="fill: #9467bd; stroke: #9467bd"/>
     <use xlink:href="#m79f66a4089" x="141.778827" y="361.109509" style="fill: #9467bd; stroke: #9467bd"/>
     <use xlink:href="#m79f66a4089" x="158.00699" y="361.109509" style="fill: #9467bd; stroke: #9467bd"/>
     <use xlink:href="#m79f66a4089" x="174.235153" y="361.109509" style="fill: #9467bd; stroke: #9467bd"/>
     <use xlink:href="#m79f66a4089" x="190.463316" y="361.109509" style="fill: #9467bd; stroke: #9467bd"/>
     <use xlink:href="#m79f66a4089" x="206.69148" y="361.109509" style="fill: #9467bd; stroke: #9467bd"/>
     <use xlink:href="#m79f66a4089" x="222.919643" y="352.445699" style="fill: #9467bd; stroke: #9467bd"/>
     <use xlink:href="#m79f66a4089" x="239.147806" y="352.445699" style="fill: #9467bd; stroke: #9467bd"/>
     <use xlink:href="#m79f66a4089" x="255.375969" y="352.445699" style="fill: #9467bd; stroke: #9467bd"/>
     <use xlink:href="#m79f66a4089" x="271.604133" y="352.445699" style="fill: #9467bd; stroke: #9467bd"/>
     <use xlink:href="#m79f66a4089" x="287.832296" y="343.78189" style="fill: #9467bd; stroke: #9467bd"/>
     <use xlink:href="#m79f66a4089" x="304.060459" y="343.78189" style="fill: #9467bd; stroke: #9467bd"/>
     <use xlink:href="#m79f66a4089" x="320.288622" y="343.78189" style="fill: #9467bd; stroke: #9467bd"/>
     <use xlink:href="#m79f66a4089" x="336.516786" y="343.78189" style="fill: #9467bd; stroke: #9467bd"/>
     <use xlink:href="#m79f66a4089" x="352.744949" y="309.126652" style="fill: #9467bd; stroke: #9467bd"/>
     <use xlink:href="#m79f66a4089" x="368.973112" y="274.471414" style="fill: #9467bd; stroke: #9467bd"/>
     <use xlink:href="#m79f66a4089" x="385.201276" y="274.471414" style="fill: #9467bd; stroke: #9467bd"/>
     <use xlink:href="#m79f66a4089" x="401.429439" y="265.807604" style="fill: #9467bd; stroke: #9467bd"/>
     <use xlink:href="#m79f66a4089" x="417.657602" y="239.816176" style="fill: #9467bd; stroke: #9467bd"/>
     <use xlink:href="#m79f66a4089" x="433.885765" y="170.505699" style="fill: #9467bd; stroke: #9467bd"/>
     <use xlink:href="#m79f66a4089" x="450.113929" y="161.84189" style="fill: #9467bd; stroke: #9467bd"/>
     <use xlink:href="#m79f66a4089" x="466.342092" y="161.84189" style="fill: #9467bd; stroke: #9467bd"/>
     <use xlink:href="#m79f66a4089" x="482.570255" y="135.850461" style="fill: #9467bd; stroke: #9467bd"/>
     <use xlink:href="#m79f66a4089" x="498.798418" y="118.522842" style="fill: #9467bd; stroke: #9467bd"/>
     <use xlink:href="#m79f66a4089" x="515.026582" y="118.522842" style="fill: #9467bd; stroke: #9467bd"/>
     <use xlink:href="#m79f66a4089" x="531.254745" y="118.522842" style="fill: #9467bd; stroke: #9467bd"/>
     <use xlink:href="#m79f66a4089" x="547.482908" y="101.195223" style="fill: #9467bd; stroke: #9467bd"/>
     <use xlink:href="#m79f66a4089" x="563.711071" y="101.195223" style="fill: #9467bd; stroke: #9467bd"/>
     <use xlink:href="#m79f66a4089" x="579.939235" y="101.195223" style="fill: #9467bd; stroke: #9467bd"/>
     <use xlink:href="#m79f66a4089" x="596.167398" y="83.867604" style="fill: #9467bd; stroke: #9467bd"/>
     <use xlink:href="#m79f66a4089" x="612.395561" y="83.867604" style="fill: #9467bd; stroke: #9467bd"/>
     <use xlink:href="#m79f66a4089" x="628.623724" y="83.867604" style="fill: #9467bd; stroke: #9467bd"/>
     <use xlink:href="#m79f66a4089" x="644.851888" y="83.867604" style="fill: #9467bd; stroke: #9467bd"/>
     <use xlink:href="#m79f66a4089" x="661.080051" y="66.539985" style="fill: #9467bd; stroke: #9467bd"/>
     <use xlink:href="#m79f66a4089" x="677.308214" y="40.548557" style="fill: #9467bd; stroke: #9467bd"/>
     <use xlink:href="#m79f66a4089" x="693.536378" y="40.548557" style="fill: #9467bd; stroke: #9467bd"/>
    </g>
   </g>
   <g id="line2d_27">
    <path d="M 44.409847 387.100937 
L 63.342704 265.807604 
L 126.90301 265.807604 
L 128.255357 257.143795 
L 304.060459 257.143795 
L 305.412806 248.479985 
L 308.1175 248.479985 
L 309.469847 239.816176 
L 335.164439 239.816176 
L 336.516786 231.152366 
L 648.908929 231.152366 
L 669.194133 101.195223 
L 688.12699 101.195223 
L 697.593418 40.548557 
L 705.7075 40.548557 
L 705.7075 40.548557 
" clip-path="url(#p4c40e460eb)" style="fill: none; stroke: #8c564b; stroke-width: 2; stroke-linecap: square"/>
    <defs>
     <path id="m7dec1ea360" d="M 0 1.5 
C 0.397805 1.5 0.77937 1.341951 1.06066 1.06066 
C 1.341951 0.77937 1.5 0.397805 1.5 0 
C 1.5 -0.397805 1.341951 -0.77937 1.06066 -1.06066 
C 0.77937 -1.341951 0.397805 -1.5 0 -1.5 
C -0.397805 -1.5 -0.77937 -1.341951 -1.06066 -1.06066 
C -1.341951 -0.77937 -1.5 -0.397805 -1.5 0 
C -1.5 0.397805 -1.341951 0.77937 -1.06066 1.06066 
C -0.77937 1.341951 -0.397805 1.5 0 1.5 
z
" style="stroke: #8c564b"/>
    </defs>
    <g clip-path="url(#p4c40e460eb)">
     <use xlink:href="#m7dec1ea360" x="44.409847" y="387.100937" style="fill: #8c564b; stroke: #8c564b"/>
     <use xlink:href="#m7dec1ea360" x="60.63801" y="283.135223" style="fill: #8c564b; stroke: #8c564b"/>
     <use xlink:href="#m7dec1ea360" x="76.866173" y="265.807604" style="fill: #8c564b; stroke: #8c564b"/>
     <use xlink:href="#m7dec1ea360" x="93.094337" y="265.807604" style="fill: #8c564b; stroke: #8c564b"/>
     <use xlink:href="#m7dec1ea360" x="109.3225" y="265.807604" style="fill: #8c564b; stroke: #8c564b"/>
     <use xlink:href="#m7dec1ea360" x="125.550663" y="265.807604" style="fill: #8c564b; stroke: #8c564b"/>
     <use xlink:href="#m7dec1ea360" x="141.778827" y="257.143795" style="fill: #8c564b; stroke: #8c564b"/>
     <use xlink:href="#m7dec1ea360" x="158.00699" y="257.143795" style="fill: #8c564b; stroke: #8c564b"/>
     <use xlink:href="#m7dec1ea360" x="174.235153" y="257.143795" style="fill: #8c564b; stroke: #8c564b"/>
     <use xlink:href="#m7dec1ea360" x="190.463316" y="257.143795" style="fill: #8c564b; stroke: #8c564b"/>
     <use xlink:href="#m7dec1ea360" x="206.69148" y="257.143795" style="fill: #8c564b; stroke: #8c564b"/>
     <use xlink:href="#m7dec1ea360" x="222.919643" y="257.143795" style="fill: #8c564b; stroke: #8c564b"/>
     <use xlink:href="#m7dec1ea360" x="239.147806" y="257.143795" style="fill: #8c564b; stroke: #8c564b"/>
     <use xlink:href="#m7dec1ea360" x="255.375969" y="257.143795" style="fill: #8c564b; stroke: #8c564b"/>
     <use xlink:href="#m7dec1ea360" x="271.604133" y="257.143795" style="fill: #8c564b; stroke: #8c564b"/>
     <use xlink:href="#m7dec1ea360" x="287.832296" y="257.143795" style="fill: #8c564b; stroke: #8c564b"/>
     <use xlink:href="#m7dec1ea360" x="304.060459" y="257.143795" style="fill: #8c564b; stroke: #8c564b"/>
     <use xlink:href="#m7dec1ea360" x="320.288622" y="239.816176" style="fill: #8c564b; stroke: #8c564b"/>
     <use xlink:href="#m7dec1ea360" x="336.516786" y="231.152366" style="fill: #8c564b; stroke: #8c564b"/>
     <use xlink:href="#m7dec1ea360" x="352.744949" y="231.152366" style="fill: #8c564b; stroke: #8c564b"/>
     <use xlink:href="#m7dec1ea360" x="368.973112" y="231.152366" style="fill: #8c564b; stroke: #8c564b"/>
     <use xlink:href="#m7dec1ea360" x="385.201276" y="231.152366" style="fill: #8c564b; stroke: #8c564b"/>
     <use xlink:href="#m7dec1ea360" x="401.429439" y="231.152366" style="fill: #8c564b; stroke: #8c564b"/>
     <use xlink:href="#m7dec1ea360" x="417.657602" y="231.152366" style="fill: #8c564b; stroke: #8c564b"/>
     <use xlink:href="#m7dec1ea360" x="433.885765" y="231.152366" style="fill: #8c564b; stroke: #8c564b"/>
     <use xlink:href="#m7dec1ea360" x="450.113929" y="231.152366" style="fill: #8c564b; stroke: #8c564b"/>
     <use xlink:href="#m7dec1ea360" x="466.342092" y="231.152366" style="fill: #8c564b; stroke: #8c564b"/>
     <use xlink:href="#m7dec1ea360" x="482.570255" y="231.152366" style="fill: #8c564b; stroke: #8c564b"/>
     <use xlink:href="#m7dec1ea360" x="498.798418" y="231.152366" style="fill: #8c564b; stroke: #8c564b"/>
     <use xlink:href="#m7dec1ea360" x="515.026582" y="231.152366" style="fill: #8c564b; stroke: #8c564b"/>
     <use xlink:href="#m7dec1ea360" x="531.254745" y="231.152366" style="fill: #8c564b; stroke: #8c564b"/>
     <use xlink:href="#m7dec1ea360" x="547.482908" y="231.152366" style="fill: #8c564b; stroke: #8c564b"/>
     <use xlink:href="#m7dec1ea360" x="563.711071" y="231.152366" style="fill: #8c564b; stroke: #8c564b"/>
     <use xlink:href="#m7dec1ea360" x="579.939235" y="231.152366" style="fill: #8c564b; stroke: #8c564b"/>
     <use xlink:href="#m7dec1ea360" x="596.167398" y="231.152366" style="fill: #8c564b; stroke: #8c564b"/>
     <use xlink:href="#m7dec1ea360" x="612.395561" y="231.152366" style="fill: #8c564b; stroke: #8c564b"/>
     <use xlink:href="#m7dec1ea360" x="628.623724" y="231.152366" style="fill: #8c564b; stroke: #8c564b"/>
     <use xlink:href="#m7dec1ea360" x="644.851888" y="231.152366" style="fill: #8c564b; stroke: #8c564b"/>
     <use xlink:href="#m7dec1ea360" x="661.080051" y="153.17808" style="fill: #8c564b; stroke: #8c564b"/>
     <use xlink:href="#m7dec1ea360" x="677.308214" y="101.195223" style="fill: #8c564b; stroke: #8c564b"/>
     <use xlink:href="#m7dec1ea360" x="693.536378" y="66.539985" style="fill: #8c564b; stroke: #8c564b"/>
    </g>
   </g>
   <g id="line2d_28">
    <path d="M 44.409847 387.100937 
L 45.762194 378.437128 
L 47.114541 378.437128 
L 60.63801 291.799033 
L 61.990357 291.799033 
L 63.342704 283.135223 
L 66.047398 283.135223 
L 67.399745 274.471414 
L 71.456786 274.471414 
L 72.809133 265.807604 
L 74.16148 265.807604 
L 76.866173 248.479985 
L 80.923214 248.479985 
L 83.627908 231.152366 
L 87.684949 231.152366 
L 89.037296 222.488557 
L 97.151378 222.488557 
L 98.503724 213.824747 
L 101.208418 213.824747 
L 102.560765 205.160937 
L 103.913112 205.160937 
L 105.265459 196.497128 
L 113.379541 196.497128 
L 114.731888 187.833318 
L 117.436582 187.833318 
L 118.788929 179.169509 
L 121.493622 179.169509 
L 122.845969 170.505699 
L 126.90301 170.505699 
L 128.255357 161.84189 
L 139.074133 161.84189 
L 140.42648 153.17808 
L 143.131173 153.17808 
L 144.48352 144.514271 
L 145.835867 144.514271 
L 147.188214 135.850461 
L 166.121071 135.850461 
L 167.473418 127.186652 
L 172.882806 127.186652 
L 174.235153 118.522842 
L 176.939847 118.522842 
L 178.292194 109.859033 
L 193.16801 109.859033 
L 194.520357 101.195223 
L 202.634439 101.195223 
L 203.986786 92.531414 
L 213.453214 92.531414 
L 214.805561 83.867604 
L 233.738418 83.867604 
L 235.090765 75.203795 
L 366.268418 75.203795 
L 367.620765 66.539985 
L 439.295153 66.539985 
L 440.6475 57.876176 
L 464.989745 57.876176 
L 466.342092 49.212366 
L 703.002806 49.212366 
L 704.355153 40.548557 
L 705.7075 40.548557 
L 705.7075 40.548557 
" clip-path="url(#p4c40e460eb)" style="fill: none; stroke: #e377c2; stroke-width: 2; stroke-linecap: square"/>
    <defs>
     <path id="m6c22d8edba" d="M 0 1.5 
C 0.397805 1.5 0.77937 1.341951 1.06066 1.06066 
C 1.341951 0.77937 1.5 0.397805 1.5 0 
C 1.5 -0.397805 1.341951 -0.77937 1.06066 -1.06066 
C 0.77937 -1.341951 0.397805 -1.5 0 -1.5 
C -0.397805 -1.5 -0.77937 -1.341951 -1.06066 -1.06066 
C -1.341951 -0.77937 -1.5 -0.397805 -1.5 0 
C -1.5 0.397805 -1.341951 0.77937 -1.06066 1.06066 
C -0.77937 1.341951 -0.397805 1.5 0 1.5 
z
" style="stroke: #e377c2"/>
    </defs>
    <g clip-path="url(#p4c40e460eb)">
     <use xlink:href="#m6c22d8edba" x="44.409847" y="387.100937" style="fill: #e377c2; stroke: #e377c2"/>
     <use xlink:href="#m6c22d8edba" x="60.63801" y="291.799033" style="fill: #e377c2; stroke: #e377c2"/>
     <use xlink:href="#m6c22d8edba" x="76.866173" y="248.479985" style="fill: #e377c2; stroke: #e377c2"/>
     <use xlink:href="#m6c22d8edba" x="93.094337" y="222.488557" style="fill: #e377c2; stroke: #e377c2"/>
     <use xlink:href="#m6c22d8edba" x="109.3225" y="196.497128" style="fill: #e377c2; stroke: #e377c2"/>
     <use xlink:href="#m6c22d8edba" x="125.550663" y="170.505699" style="fill: #e377c2; stroke: #e377c2"/>
     <use xlink:href="#m6c22d8edba" x="141.778827" y="153.17808" style="fill: #e377c2; stroke: #e377c2"/>
     <use xlink:href="#m6c22d8edba" x="158.00699" y="135.850461" style="fill: #e377c2; stroke: #e377c2"/>
     <use xlink:href="#m6c22d8edba" x="174.235153" y="118.522842" style="fill: #e377c2; stroke: #e377c2"/>
     <use xlink:href="#m6c22d8edba" x="190.463316" y="109.859033" style="fill: #e377c2; stroke: #e377c2"/>
     <use xlink:href="#m6c22d8edba" x="206.69148" y="92.531414" style="fill: #e377c2; stroke: #e377c2"/>
     <use xlink:href="#m6c22d8edba" x="222.919643" y="83.867604" style="fill: #e377c2; stroke: #e377c2"/>
     <use xlink:href="#m6c22d8edba" x="239.147806" y="75.203795" style="fill: #e377c2; stroke: #e377c2"/>
     <use xlink:href="#m6c22d8edba" x="255.375969" y="75.203795" style="fill: #e377c2; stroke: #e377c2"/>
     <use xlink:href="#m6c22d8edba" x="271.604133" y="75.203795" style="fill: #e377c2; stroke: #e377c2"/>
     <use xlink:href="#m6c22d8edba" x="287.832296" y="75.203795" style="fill: #e377c2; stroke: #e377c2"/>
     <use xlink:href="#m6c22d8edba" x="304.060459" y="75.203795" style="fill: #e377c2; stroke: #e377c2"/>
     <use xlink:href="#m6c22d8edba" x="320.288622" y="75.203795" style="fill: #e377c2; stroke: #e377c2"/>
     <use xlink:href="#m6c22d8edba" x="336.516786" y="75.203795" style="fill: #e377c2; stroke: #e377c2"/>
     <use xlink:href="#m6c22d8edba" x="352.744949" y="75.203795" style="fill: #e377c2; stroke: #e377c2"/>
     <use xlink:href="#m6c22d8edba" x="368.973112" y="66.539985" style="fill: #e377c2; stroke: #e377c2"/>
     <use xlink:href="#m6c22d8edba" x="385.201276" y="66.539985" style="fill: #e377c2; stroke: #e377c2"/>
     <use xlink:href="#m6c22d8edba" x="401.429439" y="66.539985" style="fill: #e377c2; stroke: #e377c2"/>
     <use xlink:href="#m6c22d8edba" x="417.657602" y="66.539985" style="fill: #e377c2; stroke: #e377c2"/>
     <use xlink:href="#m6c22d8edba" x="433.885765" y="66.539985" style="fill: #e377c2; stroke: #e377c2"/>
     <use xlink:href="#m6c22d8edba" x="450.113929" y="57.876176" style="fill: #e377c2; stroke: #e377c2"/>
     <use xlink:href="#m6c22d8edba" x="466.342092" y="49.212366" style="fill: #e377c2; stroke: #e377c2"/>
     <use xlink:href="#m6c22d8edba" x="482.570255" y="49.212366" style="fill: #e377c2; stroke: #e377c2"/>
     <use xlink:href="#m6c22d8edba" x="498.798418" y="49.212366" style="fill: #e377c2; stroke: #e377c2"/>
     <use xlink:href="#m6c22d8edba" x="515.026582" y="49.212366" style="fill: #e377c2; stroke: #e377c2"/>
     <use xlink:href="#m6c22d8edba" x="531.254745" y="49.212366" style="fill: #e377c2; stroke: #e377c2"/>
     <use xlink:href="#m6c22d8edba" x="547.482908" y="49.212366" style="fill: #e377c2; stroke: #e377c2"/>
     <use xlink:href="#m6c22d8edba" x="563.711071" y="49.212366" style="fill: #e377c2; stroke: #e377c2"/>
     <use xlink:href="#m6c22d8edba" x="579.939235" y="49.212366" style="fill: #e377c2; stroke: #e377c2"/>
     <use xlink:href="#m6c22d8edba" x="596.167398" y="49.212366" style="fill: #e377c2; stroke: #e377c2"/>
     <use xlink:href="#m6c22d8edba" x="612.395561" y="49.212366" style="fill: #e377c2; stroke: #e377c2"/>
     <use xlink:href="#m6c22d8edba" x="628.623724" y="49.212366" style="fill: #e377c2; stroke: #e377c2"/>
     <use xlink:href="#m6c22d8edba" x="644.851888" y="49.212366" style="fill: #e377c2; stroke: #e377c2"/>
     <use xlink:href="#m6c22d8edba" x="661.080051" y="49.212366" style="fill: #e377c2; stroke: #e377c2"/>
     <use xlink:href="#m6c22d8edba" x="677.308214" y="49.212366" style="fill: #e377c2; stroke: #e377c2"/>
     <use xlink:href="#m6c22d8edba" x="693.536378" y="49.212366" style="fill: #e377c2; stroke: #e377c2"/>
    </g>
   </g>
   <g id="line2d_29">
    <path d="M 44.409847 387.100937 
L 45.762194 387.100937 
L 70.104439 231.152366 
L 74.16148 231.152366 
L 76.866173 213.824747 
L 78.21852 213.824747 
L 79.570867 205.160937 
L 84.980255 205.160937 
L 89.037296 179.169509 
L 114.731888 179.169509 
L 116.084235 170.505699 
L 120.141276 170.505699 
L 122.845969 153.17808 
L 124.198316 153.17808 
L 125.550663 144.514271 
L 137.721786 144.514271 
L 139.074133 135.850461 
L 153.949949 135.850461 
L 155.302296 127.186652 
L 158.00699 127.186652 
L 159.359337 118.522842 
L 179.644541 118.522842 
L 180.996888 109.859033 
L 251.318929 109.859033 
L 252.671276 101.195223 
L 258.080663 101.195223 
L 259.43301 92.531414 
L 356.80199 92.531414 
L 358.154337 83.867604 
L 366.268418 83.867604 
L 367.620765 75.203795 
L 447.409235 75.203795 
L 448.761582 66.539985 
L 459.580357 66.539985 
L 460.932704 57.876176 
L 558.301684 57.876176 
L 559.654031 49.212366 
L 635.385459 49.212366 
L 636.737806 40.548557 
L 705.7075 40.548557 
L 705.7075 40.548557 
" clip-path="url(#p4c40e460eb)" style="fill: none; stroke: #17becf; stroke-width: 2; stroke-linecap: square"/>
    <defs>
     <path id="me52b7f5723" d="M 0 1.5 
C 0.397805 1.5 0.77937 1.341951 1.06066 1.06066 
C 1.341951 0.77937 1.5 0.397805 1.5 0 
C 1.5 -0.397805 1.341951 -0.77937 1.06066 -1.06066 
C 0.77937 -1.341951 0.397805 -1.5 0 -1.5 
C -0.397805 -1.5 -0.77937 -1.341951 -1.06066 -1.06066 
C -1.341951 -0.77937 -1.5 -0.397805 -1.5 0 
C -1.5 0.397805 -1.341951 0.77937 -1.06066 1.06066 
C -0.77937 1.341951 -0.397805 1.5 0 1.5 
z
" style="stroke: #17becf"/>
    </defs>
    <g clip-path="url(#p4c40e460eb)">
     <use xlink:href="#me52b7f5723" x="44.409847" y="387.100937" style="fill: #17becf; stroke: #17becf"/>
     <use xlink:href="#me52b7f5723" x="60.63801" y="291.799033" style="fill: #17becf; stroke: #17becf"/>
     <use xlink:href="#me52b7f5723" x="76.866173" y="213.824747" style="fill: #17becf; stroke: #17becf"/>
     <use xlink:href="#me52b7f5723" x="93.094337" y="179.169509" style="fill: #17becf; stroke: #17becf"/>
     <use xlink:href="#me52b7f5723" x="109.3225" y="179.169509" style="fill: #17becf; stroke: #17becf"/>
     <use xlink:href="#me52b7f5723" x="125.550663" y="144.514271" style="fill: #17becf; stroke: #17becf"/>
     <use xlink:href="#me52b7f5723" x="141.778827" y="135.850461" style="fill: #17becf; stroke: #17becf"/>
     <use xlink:href="#me52b7f5723" x="158.00699" y="127.186652" style="fill: #17becf; stroke: #17becf"/>
     <use xlink:href="#me52b7f5723" x="174.235153" y="118.522842" style="fill: #17becf; stroke: #17becf"/>
     <use xlink:href="#me52b7f5723" x="190.463316" y="109.859033" style="fill: #17becf; stroke: #17becf"/>
     <use xlink:href="#me52b7f5723" x="206.69148" y="109.859033" style="fill: #17becf; stroke: #17becf"/>
     <use xlink:href="#me52b7f5723" x="222.919643" y="109.859033" style="fill: #17becf; stroke: #17becf"/>
     <use xlink:href="#me52b7f5723" x="239.147806" y="109.859033" style="fill: #17becf; stroke: #17becf"/>
     <use xlink:href="#me52b7f5723" x="255.375969" y="101.195223" style="fill: #17becf; stroke: #17becf"/>
     <use xlink:href="#me52b7f5723" x="271.604133" y="92.531414" style="fill: #17becf; stroke: #17becf"/>
     <use xlink:href="#me52b7f5723" x="287.832296" y="92.531414" style="fill: #17becf; stroke: #17becf"/>
     <use xlink:href="#me52b7f5723" x="304.060459" y="92.531414" style="fill: #17becf; stroke: #17becf"/>
     <use xlink:href="#me52b7f5723" x="320.288622" y="92.531414" style="fill: #17becf; stroke: #17becf"/>
     <use xlink:href="#me52b7f5723" x="336.516786" y="92.531414" style="fill: #17becf; stroke: #17becf"/>
     <use xlink:href="#me52b7f5723" x="352.744949" y="92.531414" style="fill: #17becf; stroke: #17becf"/>
     <use xlink:href="#me52b7f5723" x="368.973112" y="75.203795" style="fill: #17becf; stroke: #17becf"/>
     <use xlink:href="#me52b7f5723" x="385.201276" y="75.203795" style="fill: #17becf; stroke: #17becf"/>
     <use xlink:href="#me52b7f5723" x="401.429439" y="75.203795" style="fill: #17becf; stroke: #17becf"/>
     <use xlink:href="#me52b7f5723" x="417.657602" y="75.203795" style="fill: #17becf; stroke: #17becf"/>
     <use xlink:href="#me52b7f5723" x="433.885765" y="75.203795" style="fill: #17becf; stroke: #17becf"/>
     <use xlink:href="#me52b7f5723" x="450.113929" y="66.539985" style="fill: #17becf; stroke: #17becf"/>
     <use xlink:href="#me52b7f5723" x="466.342092" y="57.876176" style="fill: #17becf; stroke: #17becf"/>
     <use xlink:href="#me52b7f5723" x="482.570255" y="57.876176" style="fill: #17becf; stroke: #17becf"/>
     <use xlink:href="#me52b7f5723" x="498.798418" y="57.876176" style="fill: #17becf; stroke: #17becf"/>
     <use xlink:href="#me52b7f5723" x="515.026582" y="57.876176" style="fill: #17becf; stroke: #17becf"/>
     <use xlink:href="#me52b7f5723" x="531.254745" y="57.876176" style="fill: #17becf; stroke: #17becf"/>
     <use xlink:href="#me52b7f5723" x="547.482908" y="57.876176" style="fill: #17becf; stroke: #17becf"/>
     <use xlink:href="#me52b7f5723" x="563.711071" y="49.212366" style="fill: #17becf; stroke: #17becf"/>
     <use xlink:href="#me52b7f5723" x="579.939235" y="49.212366" style="fill: #17becf; stroke: #17becf"/>
     <use xlink:href="#me52b7f5723" x="596.167398" y="49.212366" style="fill: #17becf; stroke: #17becf"/>
     <use xlink:href="#me52b7f5723" x="612.395561" y="49.212366" style="fill: #17becf; stroke: #17becf"/>
     <use xlink:href="#me52b7f5723" x="628.623724" y="49.212366" style="fill: #17becf; stroke: #17becf"/>
     <use xlink:href="#me52b7f5723" x="644.851888" y="40.548557" style="fill: #17becf; stroke: #17becf"/>
     <use xlink:href="#me52b7f5723" x="661.080051" y="40.548557" style="fill: #17becf; stroke: #17becf"/>
     <use xlink:href="#me52b7f5723" x="677.308214" y="40.548557" style="fill: #17becf; stroke: #17becf"/>
     <use xlink:href="#me52b7f5723" x="693.536378" y="40.548557" style="fill: #17becf; stroke: #17becf"/>
    </g>
   </g>
   <g id="line2d_30">
    <path d="M 44.409847 378.437128 
L 45.762194 378.437128 
L 47.114541 369.773318 
L 48.466888 369.773318 
L 70.104439 231.152366 
L 72.809133 231.152366 
L 76.866173 205.160937 
L 78.21852 205.160937 
L 79.570867 196.497128 
L 86.332602 196.497128 
L 89.037296 179.169509 
L 91.74199 179.169509 
L 93.094337 170.505699 
L 94.446684 170.505699 
L 95.799031 161.84189 
L 97.151378 161.84189 
L 98.503724 153.17808 
L 101.208418 153.17808 
L 102.560765 144.514271 
L 103.913112 144.514271 
L 105.265459 135.850461 
L 107.970153 135.850461 
L 109.3225 127.186652 
L 110.674847 127.186652 
L 113.379541 109.859033 
L 122.845969 109.859033 
L 124.198316 101.195223 
L 174.235153 101.195223 
L 175.5875 92.531414 
L 186.406276 92.531414 
L 187.758622 83.867604 
L 351.392602 83.867604 
L 352.744949 75.203795 
L 360.859031 75.203795 
L 362.211378 66.539985 
L 364.916071 66.539985 
L 367.620765 49.212366 
L 433.885765 49.212366 
L 435.238112 40.548557 
L 705.7075 40.548557 
L 705.7075 40.548557 
" clip-path="url(#p4c40e460eb)" style="fill: none; stroke: #e31818; stroke-width: 2.5; stroke-linecap: square"/>
    <defs>
     <path id="mec97ece7f3" d="M 0 1.5 
C 0.397805 1.5 0.77937 1.341951 1.06066 1.06066 
C 1.341951 0.77937 1.5 0.397805 1.5 0 
C 1.5 -0.397805 1.341951 -0.77937 1.06066 -1.06066 
C 0.77937 -1.341951 0.397805 -1.5 0 -1.5 
C -0.397805 -1.5 -0.77937 -1.341951 -1.06066 -1.06066 
C -1.341951 -0.77937 -1.5 -0.397805 -1.5 0 
C -1.5 0.397805 -1.341951 0.77937 -1.06066 1.06066 
C -0.77937 1.341951 -0.397805 1.5 0 1.5 
z
" style="stroke: #e31818"/>
    </defs>
    <g clip-path="url(#p4c40e460eb)">
     <use xlink:href="#mec97ece7f3" x="44.409847" y="378.437128" style="fill: #e31818; stroke: #e31818"/>
     <use xlink:href="#mec97ece7f3" x="60.63801" y="291.799033" style="fill: #e31818; stroke: #e31818"/>
     <use xlink:href="#mec97ece7f3" x="76.866173" y="205.160937" style="fill: #e31818; stroke: #e31818"/>
     <use xlink:href="#mec97ece7f3" x="93.094337" y="170.505699" style="fill: #e31818; stroke: #e31818"/>
     <use xlink:href="#mec97ece7f3" x="109.3225" y="127.186652" style="fill: #e31818; stroke: #e31818"/>
     <use xlink:href="#mec97ece7f3" x="125.550663" y="101.195223" style="fill: #e31818; stroke: #e31818"/>
     <use xlink:href="#mec97ece7f3" x="141.778827" y="101.195223" style="fill: #e31818; stroke: #e31818"/>
     <use xlink:href="#mec97ece7f3" x="158.00699" y="101.195223" style="fill: #e31818; stroke: #e31818"/>
     <use xlink:href="#mec97ece7f3" x="174.235153" y="101.195223" style="fill: #e31818; stroke: #e31818"/>
     <use xlink:href="#mec97ece7f3" x="190.463316" y="83.867604" style="fill: #e31818; stroke: #e31818"/>
     <use xlink:href="#mec97ece7f3" x="206.69148" y="83.867604" style="fill: #e31818; stroke: #e31818"/>
     <use xlink:href="#mec97ece7f3" x="222.919643" y="83.867604" style="fill: #e31818; stroke: #e31818"/>
     <use xlink:href="#mec97ece7f3" x="239.147806" y="83.867604" style="fill: #e31818; stroke: #e31818"/>
     <use xlink:href="#mec97ece7f3" x="255.375969" y="83.867604" style="fill: #e31818; stroke: #e31818"/>
     <use xlink:href="#mec97ece7f3" x="271.604133" y="83.867604" style="fill: #e31818; stroke: #e31818"/>
     <use xlink:href="#mec97ece7f3" x="287.832296" y="83.867604" style="fill: #e31818; stroke: #e31818"/>
     <use xlink:href="#mec97ece7f3" x="304.060459" y="83.867604" style="fill: #e31818; stroke: #e31818"/>
     <use xlink:href="#mec97ece7f3" x="320.288622" y="83.867604" style="fill: #e31818; stroke: #e31818"/>
     <use xlink:href="#mec97ece7f3" x="336.516786" y="83.867604" style="fill: #e31818; stroke: #e31818"/>
     <use xlink:href="#mec97ece7f3" x="352.744949" y="75.203795" style="fill: #e31818; stroke: #e31818"/>
     <use xlink:href="#mec97ece7f3" x="368.973112" y="49.212366" style="fill: #e31818; stroke: #e31818"/>
     <use xlink:href="#mec97ece7f3" x="385.201276" y="49.212366" style="fill: #e31818; stroke: #e31818"/>
     <use xlink:href="#mec97ece7f3" x="401.429439" y="49.212366" style="fill: #e31818; stroke: #e31818"/>
     <use xlink:href="#mec97ece7f3" x="417.657602" y="49.212366" style="fill: #e31818; stroke: #e31818"/>
     <use xlink:href="#mec97ece7f3" x="433.885765" y="49.212366" style="fill: #e31818; stroke: #e31818"/>
     <use xlink:href="#mec97ece7f3" x="450.113929" y="40.548557" style="fill: #e31818; stroke: #e31818"/>
     <use xlink:href="#mec97ece7f3" x="466.342092" y="40.548557" style="fill: #e31818; stroke: #e31818"/>
     <use xlink:href="#mec97ece7f3" x="482.570255" y="40.548557" style="fill: #e31818; stroke: #e31818"/>
     <use xlink:href="#mec97ece7f3" x="498.798418" y="40.548557" style="fill: #e31818; stroke: #e31818"/>
     <use xlink:href="#mec97ece7f3" x="515.026582" y="40.548557" style="fill: #e31818; stroke: #e31818"/>
     <use xlink:href="#mec97ece7f3" x="531.254745" y="40.548557" style="fill: #e31818; stroke: #e31818"/>
     <use xlink:href="#mec97ece7f3" x="547.482908" y="40.548557" style="fill: #e31818; stroke: #e31818"/>
     <use xlink:href="#mec97ece7f3" x="563.711071" y="40.548557" style="fill: #e31818; stroke: #e31818"/>
     <use xlink:href="#mec97ece7f3" x="579.939235" y="40.548557" style="fill: #e31818; stroke: #e31818"/>
     <use xlink:href="#mec97ece7f3" x="596.167398" y="40.548557" style="fill: #e31818; stroke: #e31818"/>
     <use xlink:href="#mec97ece7f3" x="612.395561" y="40.548557" style="fill: #e31818; stroke: #e31818"/>
     <use xlink:href="#mec97ece7f3" x="628.623724" y="40.548557" style="fill: #e31818; stroke: #e31818"/>
     <use xlink:href="#mec97ece7f3" x="644.851888" y="40.548557" style="fill: #e31818; stroke: #e31818"/>
     <use xlink:href="#mec97ece7f3" x="661.080051" y="40.548557" style="fill: #e31818; stroke: #e31818"/>
     <use xlink:href="#mec97ece7f3" x="677.308214" y="40.548557" style="fill: #e31818; stroke: #e31818"/>
     <use xlink:href="#mec97ece7f3" x="693.536378" y="40.548557" style="fill: #e31818; stroke: #e31818"/>
    </g>
   </g>
   <g id="patch_3">
    <path d="M 43.0575 387.100937 
L 43.0575 23.220937 
" style="fill: none; stroke: #000000; stroke-width: 0.8; stroke-linejoin: miter; stroke-linecap: square"/>
   </g>
   <g id="patch_4">
    <path d="M 705.7075 387.100937 
L 705.7075 23.220937 
" style="fill: none; stroke: #000000; stroke-width: 0.8; stroke-linejoin: miter; stroke-linecap: square"/>
   </g>
   <g id="patch_5">
    <path d="M 43.0575 387.100937 
L 705.7075 387.100937 
" style="fill: none; stroke: #000000; stroke-width: 0.8; stroke-linejoin: miter; stroke-linecap: square"/>
   </g>
   <g id="patch_6">
    <path d="M 43.0575 23.220937 
L 705.7075 23.220937 
" style="fill: none; stroke: #000000; stroke-width: 0.8; stroke-linejoin: miter; stroke-linecap: square"/>
   </g>
   <g id="text_14">
    <!-- Recall vs k - raisin -->
    <g transform="translate(313.297656 17.220937) scale(0.14 -0.14)">
     <defs>
      <path id="Arial-BoldMT-76" d="M 1372 0 
L 34 3319 
L 956 3319 
L 1581 1625 
L 1763 1059 
Q 1834 1275 1853 1344 
Q 1897 1484 1947 1625 
L 2578 3319 
L 3481 3319 
L 2163 0 
L 1372 0 
z
" transform="scale(0.015625)"/>
      <path id="Arial-BoldMT-2d" d="M 359 1222 
L 359 2100 
L 2084 2100 
L 2084 1222 
L 359 1222 
z
" transform="scale(0.015625)"/>
      <path id="Arial-BoldMT-69" d="M 459 3769 
L 459 4581 
L 1338 4581 
L 1338 3769 
L 459 3769 
z
M 459 0 
L 459 3319 
L 1338 3319 
L 1338 0 
L 459 0 
z
" transform="scale(0.015625)"/>
     </defs>
     <use xlink:href="#Arial-BoldMT-52"/>
     <use xlink:href="#Arial-BoldMT-65" transform="translate(72.216797 0)"/>
     <use xlink:href="#Arial-BoldMT-63" transform="translate(127.832031 0)"/>
     <use xlink:href="#Arial-BoldMT-61" transform="translate(183.447266 0)"/>
     <use xlink:href="#Arial-BoldMT-6c" transform="translate(239.0625 0)"/>
     <use xlink:href="#Arial-BoldMT-6c" transform="translate(266.845703 0)"/>
     <use xlink:href="#Arial-BoldMT-20" transform="translate(294.628906 0)"/>
     <use xlink:href="#Arial-BoldMT-76" transform="translate(322.412109 0)"/>
     <use xlink:href="#Arial-BoldMT-73" transform="translate(378.027344 0)"/>
     <use xlink:href="#Arial-BoldMT-20" transform="translate(433.642578 0)"/>
     <use xlink:href="#Arial-BoldMT-6b" transform="translate(461.425781 0)"/>
     <use xlink:href="#Arial-BoldMT-20" transform="translate(517.041016 0)"/>
     <use xlink:href="#Arial-BoldMT-2d" transform="translate(544.824219 0)"/>
     <use xlink:href="#Arial-BoldMT-20" transform="translate(578.125 0)"/>
     <use xlink:href="#Arial-BoldMT-72" transform="translate(605.908203 0)"/>
     <use xlink:href="#Arial-BoldMT-61" transform="translate(644.824219 0)"/>
     <use xlink:href="#Arial-BoldMT-69" transform="translate(700.439453 0)"/>
     <use xlink:href="#Arial-BoldMT-73" transform="translate(728.222656 0)"/>
     <use xlink:href="#Arial-BoldMT-69" transform="translate(783.837891 0)"/>
     <use xlink:href="#Arial-BoldMT-6e" transform="translate(811.621094 0)"/>
    </g>
   </g>
   <g id="legend_1">
    <g id="patch_7">
     <path d="M 633.610469 382.600937 
L 699.4075 382.600937 
Q 701.2075 382.600937 701.2075 380.800937 
L 701.2075 279.854687 
Q 701.2075 278.054688 699.4075 278.054688 
L 633.610469 278.054688 
Q 631.810469 278.054688 631.810469 279.854687 
L 631.810469 380.800937 
Q 631.810469 382.600937 633.610469 382.600937 
z
" style="fill: #ffffff; opacity: 0.8; stroke: #cccccc; stroke-linejoin: miter"/>
    </g>
    <g id="line2d_31">
     <path d="M 635.410469 284.946719 
L 644.410469 284.946719 
L 653.410469 284.946719 
" style="fill: none; stroke: #1f77b4; stroke-width: 2; stroke-linecap: square"/>
     <g>
      <use xlink:href="#m20062c9e56" x="644.410469" y="284.946719" style="fill: #1f77b4; stroke: #1f77b4"/>
     </g>
    </g>
    <g id="text_15">
     <!-- ADFNR -->
     <g transform="translate(660.610469 288.096719) scale(0.09 -0.09)">
      <defs>
       <path id="ArialMT-41" d="M -9 0 
L 1750 4581 
L 2403 4581 
L 4278 0 
L 3588 0 
L 3053 1388 
L 1138 1388 
L 634 0 
L -9 0 
z
M 1313 1881 
L 2866 1881 
L 2388 3150 
Q 2169 3728 2063 4100 
Q 1975 3659 1816 3225 
L 1313 1881 
z
" transform="scale(0.015625)"/>
       <path id="ArialMT-44" d="M 494 0 
L 494 4581 
L 2072 4581 
Q 2606 4581 2888 4516 
Q 3281 4425 3559 4188 
Q 3922 3881 4101 3404 
Q 4281 2928 4281 2316 
Q 4281 1794 4159 1391 
Q 4038 988 3847 723 
Q 3656 459 3429 307 
Q 3203 156 2883 78 
Q 2563 0 2147 0 
L 494 0 
z
M 1100 541 
L 2078 541 
Q 2531 541 2789 625 
Q 3047 709 3200 863 
Q 3416 1078 3536 1442 
Q 3656 1806 3656 2325 
Q 3656 3044 3420 3430 
Q 3184 3816 2847 3947 
Q 2603 4041 2063 4041 
L 1100 4041 
L 1100 541 
z
" transform="scale(0.015625)"/>
       <path id="ArialMT-46" d="M 525 0 
L 525 4581 
L 3616 4581 
L 3616 4041 
L 1131 4041 
L 1131 2622 
L 3281 2622 
L 3281 2081 
L 1131 2081 
L 1131 0 
L 525 0 
z
" transform="scale(0.015625)"/>
       <path id="ArialMT-4e" d="M 488 0 
L 488 4581 
L 1109 4581 
L 3516 984 
L 3516 4581 
L 4097 4581 
L 4097 0 
L 3475 0 
L 1069 3600 
L 1069 0 
L 488 0 
z
" transform="scale(0.015625)"/>
       <path id="ArialMT-52" d="M 503 0 
L 503 4581 
L 2534 4581 
Q 3147 4581 3465 4457 
Q 3784 4334 3975 4021 
Q 4166 3709 4166 3331 
Q 4166 2844 3850 2509 
Q 3534 2175 2875 2084 
Q 3116 1969 3241 1856 
Q 3506 1613 3744 1247 
L 4541 0 
L 3778 0 
L 3172 953 
Q 2906 1366 2734 1584 
Q 2563 1803 2427 1890 
Q 2291 1978 2150 2013 
Q 2047 2034 1813 2034 
L 1109 2034 
L 1109 0 
L 503 0 
z
M 1109 2559 
L 2413 2559 
Q 2828 2559 3062 2645 
Q 3297 2731 3419 2920 
Q 3541 3109 3541 3331 
Q 3541 3656 3305 3865 
Q 3069 4075 2559 4075 
L 1109 4075 
L 1109 2559 
z
" transform="scale(0.015625)"/>
      </defs>
      <use xlink:href="#ArialMT-41"/>
      <use xlink:href="#ArialMT-44" transform="translate(66.699219 0)"/>
      <use xlink:href="#ArialMT-46" transform="translate(138.916016 0)"/>
      <use xlink:href="#ArialMT-4e" transform="translate(200 0)"/>
      <use xlink:href="#ArialMT-52" transform="translate(272.216797 0)"/>
     </g>
    </g>
    <g id="line2d_32">
     <path d="M 635.410469 297.6775 
L 644.410469 297.6775 
L 653.410469 297.6775 
" style="fill: none; stroke: #ff7f0e; stroke-width: 2; stroke-linecap: square"/>
     <g>
      <use xlink:href="#mc1367a5c70" x="644.410469" y="297.6775" style="fill: #ff7f0e; stroke: #ff7f0e"/>
     </g>
    </g>
    <g id="text_16">
     <!-- DASOD -->
     <g transform="translate(660.610469 300.8275) scale(0.09 -0.09)">
      <defs>
       <path id="ArialMT-53" d="M 288 1472 
L 859 1522 
Q 900 1178 1048 958 
Q 1197 738 1509 602 
Q 1822 466 2213 466 
Q 2559 466 2825 569 
Q 3091 672 3220 851 
Q 3350 1031 3350 1244 
Q 3350 1459 3225 1620 
Q 3100 1781 2813 1891 
Q 2628 1963 1997 2114 
Q 1366 2266 1113 2400 
Q 784 2572 623 2826 
Q 463 3081 463 3397 
Q 463 3744 659 4045 
Q 856 4347 1234 4503 
Q 1613 4659 2075 4659 
Q 2584 4659 2973 4495 
Q 3363 4331 3572 4012 
Q 3781 3694 3797 3291 
L 3216 3247 
Q 3169 3681 2898 3903 
Q 2628 4125 2100 4125 
Q 1550 4125 1298 3923 
Q 1047 3722 1047 3438 
Q 1047 3191 1225 3031 
Q 1400 2872 2139 2705 
Q 2878 2538 3153 2413 
Q 3553 2228 3743 1945 
Q 3934 1663 3934 1294 
Q 3934 928 3725 604 
Q 3516 281 3123 101 
Q 2731 -78 2241 -78 
Q 1619 -78 1198 103 
Q 778 284 539 648 
Q 300 1013 288 1472 
z
" transform="scale(0.015625)"/>
       <path id="ArialMT-4f" d="M 309 2231 
Q 309 3372 921 4017 
Q 1534 4663 2503 4663 
Q 3138 4663 3647 4359 
Q 4156 4056 4423 3514 
Q 4691 2972 4691 2284 
Q 4691 1588 4409 1038 
Q 4128 488 3612 205 
Q 3097 -78 2500 -78 
Q 1853 -78 1343 234 
Q 834 547 571 1087 
Q 309 1628 309 2231 
z
M 934 2222 
Q 934 1394 1379 917 
Q 1825 441 2497 441 
Q 3181 441 3623 922 
Q 4066 1403 4066 2288 
Q 4066 2847 3877 3264 
Q 3688 3681 3323 3911 
Q 2959 4141 2506 4141 
Q 1863 4141 1398 3698 
Q 934 3256 934 2222 
z
" transform="scale(0.015625)"/>
      </defs>
      <use xlink:href="#ArialMT-44"/>
      <use xlink:href="#ArialMT-41" transform="translate(72.216797 0)"/>
      <use xlink:href="#ArialMT-53" transform="translate(138.916016 0)"/>
      <use xlink:href="#ArialMT-4f" transform="translate(205.615234 0)"/>
      <use xlink:href="#ArialMT-44" transform="translate(283.398438 0)"/>
     </g>
    </g>
    <g id="line2d_33">
     <path d="M 635.410469 310.408281 
L 644.410469 310.408281 
L 653.410469 310.408281 
" style="fill: none; stroke: #2ca02c; stroke-width: 2; stroke-linecap: square"/>
     <g>
      <use xlink:href="#m99199e52e5" x="644.410469" y="310.408281" style="fill: #2ca02c; stroke: #2ca02c"/>
     </g>
    </g>
    <g id="text_17">
     <!-- GCN -->
     <g transform="translate(660.610469 313.558281) scale(0.09 -0.09)">
      <defs>
       <path id="ArialMT-47" d="M 2638 1797 
L 2638 2334 
L 4578 2338 
L 4578 638 
Q 4131 281 3656 101 
Q 3181 -78 2681 -78 
Q 2006 -78 1454 211 
Q 903 500 622 1047 
Q 341 1594 341 2269 
Q 341 2938 620 3517 
Q 900 4097 1425 4378 
Q 1950 4659 2634 4659 
Q 3131 4659 3532 4498 
Q 3934 4338 4162 4050 
Q 4391 3763 4509 3300 
L 3963 3150 
Q 3859 3500 3706 3700 
Q 3553 3900 3268 4020 
Q 2984 4141 2638 4141 
Q 2222 4141 1919 4014 
Q 1616 3888 1430 3681 
Q 1244 3475 1141 3228 
Q 966 2803 966 2306 
Q 966 1694 1177 1281 
Q 1388 869 1791 669 
Q 2194 469 2647 469 
Q 3041 469 3416 620 
Q 3791 772 3984 944 
L 3984 1797 
L 2638 1797 
z
" transform="scale(0.015625)"/>
       <path id="ArialMT-43" d="M 3763 1606 
L 4369 1453 
Q 4178 706 3683 314 
Q 3188 -78 2472 -78 
Q 1731 -78 1267 223 
Q 803 525 561 1097 
Q 319 1669 319 2325 
Q 319 3041 592 3573 
Q 866 4106 1370 4382 
Q 1875 4659 2481 4659 
Q 3169 4659 3637 4309 
Q 4106 3959 4291 3325 
L 3694 3184 
Q 3534 3684 3231 3912 
Q 2928 4141 2469 4141 
Q 1941 4141 1586 3887 
Q 1231 3634 1087 3207 
Q 944 2781 944 2328 
Q 944 1744 1114 1308 
Q 1284 872 1643 656 
Q 2003 441 2422 441 
Q 2931 441 3284 734 
Q 3638 1028 3763 1606 
z
" transform="scale(0.015625)"/>
      </defs>
      <use xlink:href="#ArialMT-47"/>
      <use xlink:href="#ArialMT-43" transform="translate(77.783203 0)"/>
      <use xlink:href="#ArialMT-4e" transform="translate(150 0)"/>
     </g>
    </g>
    <g id="line2d_34">
     <path d="M 635.410469 323.139063 
L 644.410469 323.139063 
L 653.410469 323.139063 
" style="fill: none; stroke: #9467bd; stroke-width: 2; stroke-linecap: square"/>
     <g>
      <use xlink:href="#m79f66a4089" x="644.410469" y="323.139063" style="fill: #9467bd; stroke: #9467bd"/>
     </g>
    </g>
    <g id="text_18">
     <!-- GCOD -->
     <g transform="translate(660.610469 326.289062) scale(0.09 -0.09)">
      <use xlink:href="#ArialMT-47"/>
      <use xlink:href="#ArialMT-43" transform="translate(77.783203 0)"/>
      <use xlink:href="#ArialMT-4f" transform="translate(150 0)"/>
      <use xlink:href="#ArialMT-44" transform="translate(227.783203 0)"/>
     </g>
    </g>
    <g id="line2d_35">
     <path d="M 635.410469 335.869844 
L 644.410469 335.869844 
L 653.410469 335.869844 
" style="fill: none; stroke: #8c564b; stroke-width: 2; stroke-linecap: square"/>
     <g>
      <use xlink:href="#m7dec1ea360" x="644.410469" y="335.869844" style="fill: #8c564b; stroke: #8c564b"/>
     </g>
    </g>
    <g id="text_19">
     <!-- IE -->
     <g transform="translate(660.610469 339.019844) scale(0.09 -0.09)">
      <defs>
       <path id="ArialMT-49" d="M 597 0 
L 597 4581 
L 1203 4581 
L 1203 0 
L 597 0 
z
" transform="scale(0.015625)"/>
       <path id="ArialMT-45" d="M 506 0 
L 506 4581 
L 3819 4581 
L 3819 4041 
L 1113 4041 
L 1113 2638 
L 3647 2638 
L 3647 2100 
L 1113 2100 
L 1113 541 
L 3925 541 
L 3925 0 
L 506 0 
z
" transform="scale(0.015625)"/>
      </defs>
      <use xlink:href="#ArialMT-49"/>
      <use xlink:href="#ArialMT-45" transform="translate(27.783203 0)"/>
     </g>
    </g>
    <g id="line2d_36">
     <path d="M 635.410469 348.600625 
L 644.410469 348.600625 
L 653.410469 348.600625 
" style="fill: none; stroke: #e377c2; stroke-width: 2; stroke-linecap: square"/>
     <g>
      <use xlink:href="#m6c22d8edba" x="644.410469" y="348.600625" style="fill: #e377c2; stroke: #e377c2"/>
     </g>
    </g>
    <g id="text_20">
     <!-- KNN -->
     <g transform="translate(660.610469 351.750625) scale(0.09 -0.09)">
      <defs>
       <path id="ArialMT-4b" d="M 469 0 
L 469 4581 
L 1075 4581 
L 1075 2309 
L 3350 4581 
L 4172 4581 
L 2250 2725 
L 4256 0 
L 3456 0 
L 1825 2319 
L 1075 1588 
L 1075 0 
L 469 0 
z
" transform="scale(0.015625)"/>
      </defs>
      <use xlink:href="#ArialMT-4b"/>
      <use xlink:href="#ArialMT-4e" transform="translate(66.699219 0)"/>
      <use xlink:href="#ArialMT-4e" transform="translate(138.916016 0)"/>
     </g>
    </g>
    <g id="line2d_37">
     <path d="M 635.410469 361.331406 
L 644.410469 361.331406 
L 653.410469 361.331406 
" style="fill: none; stroke: #17becf; stroke-width: 2; stroke-linecap: square"/>
     <g>
      <use xlink:href="#me52b7f5723" x="644.410469" y="361.331406" style="fill: #17becf; stroke: #17becf"/>
     </g>
    </g>
    <g id="text_21">
     <!-- NIEOD -->
     <g transform="translate(660.610469 364.481406) scale(0.09 -0.09)">
      <use xlink:href="#ArialMT-4e"/>
      <use xlink:href="#ArialMT-49" transform="translate(72.216797 0)"/>
      <use xlink:href="#ArialMT-45" transform="translate(100 0)"/>
      <use xlink:href="#ArialMT-4f" transform="translate(166.699219 0)"/>
      <use xlink:href="#ArialMT-44" transform="translate(244.482422 0)"/>
     </g>
    </g>
    <g id="line2d_38">
     <path d="M 635.410469 374.062187 
L 644.410469 374.062187 
L 653.410469 374.062187 
" style="fill: none; stroke: #e31818; stroke-width: 2.5; stroke-linecap: square"/>
     <g>
      <use xlink:href="#mec97ece7f3" x="644.410469" y="374.062187" style="fill: #e31818; stroke: #e31818"/>
     </g>
    </g>
    <g id="text_22">
     <!-- NMIGOD -->
     <g transform="translate(660.610469 377.212187) scale(0.09 -0.09)">
      <defs>
       <path id="ArialMT-4d" d="M 475 0 
L 475 4581 
L 1388 4581 
L 2472 1338 
Q 2622 884 2691 659 
Q 2769 909 2934 1394 
L 4031 4581 
L 4847 4581 
L 4847 0 
L 4263 0 
L 4263 3834 
L 2931 0 
L 2384 0 
L 1059 3900 
L 1059 0 
L 475 0 
z
" transform="scale(0.015625)"/>
      </defs>
      <use xlink:href="#ArialMT-4e"/>
      <use xlink:href="#ArialMT-4d" transform="translate(72.216797 0)"/>
      <use xlink:href="#ArialMT-49" transform="translate(155.517578 0)"/>
      <use xlink:href="#ArialMT-47" transform="translate(183.300781 0)"/>
      <use xlink:href="#ArialMT-4f" transform="translate(261.083984 0)"/>
      <use xlink:href="#ArialMT-44" transform="translate(338.867188 0)"/>
     </g>
    </g>
   </g>
  </g>
 </g>
 <defs>
  <clipPath id="p4c40e460eb">
   <rect x="43.0575" y="23.220937" width="662.65" height="363.88"/>
  </clipPath>
 </defs>
</svg>
