<?xml version="1.0" encoding="utf-8" standalone="no"?>
<!DOCTYPE svg PUBLIC "-//W3C//DTD SVG 1.1//EN"
  "http://www.w3.org/Graphics/SVG/1.1/DTD/svg11.dtd">
<svg xmlns:xlink="http://www.w3.org/1999/xlink" width="712.9075pt" height="425.7075pt" viewBox="0 0 712.9075 425.7075" xmlns="http://www.w3.org/2000/svg" version="1.1">
 <metadata>
  <rdf:RDF xmlns:dc="http://purl.org/dc/elements/1.1/" xmlns:cc="http://creativecommons.org/ns#" xmlns:rdf="http://www.w3.org/1999/02/22-rdf-syntax-ns#">
   <cc:Work>
    <dc:type rdf:resource="http://purl.org/dc/dcmitype/StillImage"/>
    <dc:date>2026-06-11T18:29:02.517598</dc:date>
    <dc:format>image/svg+xml</dc:format>
    <dc:creator>
     <cc:Agent>
      <dc:title>Matplotlib v3.10.0, https://matplotlib.org/</dc:title>
     </cc:Agent>
    </dc:creator>
   </cc:Work>
  </rdf:RDF>
 </metadata>
 <defs>
  <style type="text/css">*{stroke-linejoin: round; stroke-linecap: butt}</style>
 </defs>
 <g id="figure_1">
  <g id="patch_1">
   <path d="M -0 425.7075 
L 712.9075 425.7075 
L 712.9075 0 
L -0 0 
z
" style="fill: #ffffff"/>
  </g>
  <g id="axes_1">
   <g id="patch_2">
    <path d="M 43.0575 387.100937 
L 705.7075 387.100937 
L 705.7075 23.220937 
L 43.0575 23.220937 
z
" style="fill: #ffffff"/>
   </g>
   <g id="matplotlib.axis_1">
    <g id="xtick_1">
     <g id="line2d_1">
      <path d="M 43.0575 387.100937 
L 43.0575 23.220937 
" clip-path="url(#pfc0b52f407)" style="fill: none; stroke-dasharray: 2.96,1.28; stroke-dashoffset: 0; stroke: #b0b0b0; stroke-opacity: 0.5; stroke-width: 0.8"/>
     </g>
     <g id="line2d_2">
      <defs>
       <path id="m9fcfb53811" d="M 0 0 
L 0 3.5 
" style="stroke: #000000; stroke-width: 0.8"/>
      </defs>
      <g>
       <use xlink:href="#m9fcfb53811" x="43.0575" y="387.100937" style="stroke: #000000; stroke-width: 0.8"/>
      </g>
     </g>
     <g id="text_1">
      <!-- 0 -->
      <g transform="translate(40.277031 401.25875) scale(0.1 -0.1)">
       <defs>
        <path id="ArialMT-30" d="M 266 2259 
Q 266 3072 433 3567 
Q 600 4063 929 4331 
Q 1259 4600 1759 4600 
Q 2128 4600 2406 4451 
Q 2684 4303 2865 4023 
Q 3047 3744 3150 3342 
Q 3253 2941 3253 2259 
Q 3253 1453 3087 958 
Q 2922 463 2592 192 
Q 2263 -78 1759 -78 
Q 1097 -78 719 397 
Q 266 969 266 2259 
z
M 844 2259 
Q 844 1131 1108 757 
Q 1372 384 1759 384 
Q 2147 384 2411 759 
Q 2675 1134 2675 2259 
Q 2675 3391 2411 3762 
Q 2147 4134 1753 4134 
Q 1366 4134 1134 3806 
Q 844 3388 844 2259 
z
" transform="scale(0.015625)"/>
       </defs>
       <use xlink:href="#ArialMT-30"/>
      </g>
     </g>
    </g>
    <g id="xtick_2">
     <g id="line2d_3">
      <path d="M 178.292194 387.100937 
L 178.292194 23.220937 
" clip-path="url(#pfc0b52f407)" style="fill: none; stroke-dasharray: 2.96,1.28; stroke-dashoffset: 0; stroke: #b0b0b0; stroke-opacity: 0.5; stroke-width: 0.8"/>
     </g>
     <g id="line2d_4">
      <g>
       <use xlink:href="#m9fcfb53811" x="178.292194" y="387.100937" style="stroke: #000000; stroke-width: 0.8"/>
      </g>
     </g>
     <g id="text_2">
      <!-- 100 -->
      <g transform="translate(169.950788 401.25875) scale(0.1 -0.1)">
       <defs>
        <path id="ArialMT-31" d="M 2384 0 
L 1822 0 
L 1822 3584 
Q 1619 3391 1289 3197 
Q 959 3003 697 2906 
L 697 3450 
Q 1169 3672 1522 3987 
Q 1875 4303 2022 4600 
L 2384 4600 
L 2384 0 
z
" transform="scale(0.015625)"/>
       </defs>
       <use xlink:href="#ArialMT-31"/>
       <use xlink:href="#ArialMT-30" transform="translate(55.615234 0)"/>
       <use xlink:href="#ArialMT-30" transform="translate(111.230469 0)"/>
      </g>
     </g>
    </g>
    <g id="xtick_3">
     <g id="line2d_5">
      <path d="M 313.526888 387.100937 
L 313.526888 23.220937 
" clip-path="url(#pfc0b52f407)" style="fill: none; stroke-dasharray: 2.96,1.28; stroke-dashoffset: 0; stroke: #b0b0b0; stroke-opacity: 0.5; stroke-width: 0.8"/>
     </g>
     <g id="line2d_6">
      <g>
       <use xlink:href="#m9fcfb53811" x="313.526888" y="387.100937" style="stroke: #000000; stroke-width: 0.8"/>
      </g>
     </g>
     <g id="text_3">
      <!-- 200 -->
      <g transform="translate(305.185482 401.25875) scale(0.1 -0.1)">
       <defs>
        <path id="ArialMT-32" d="M 3222 541 
L 3222 0 
L 194 0 
Q 188 203 259 391 
Q 375 700 629 1000 
Q 884 1300 1366 1694 
Q 2113 2306 2375 2664 
Q 2638 3022 2638 3341 
Q 2638 3675 2398 3904 
Q 2159 4134 1775 4134 
Q 1369 4134 1125 3890 
Q 881 3647 878 3216 
L 300 3275 
Q 359 3922 746 4261 
Q 1134 4600 1788 4600 
Q 2447 4600 2831 4234 
Q 3216 3869 3216 3328 
Q 3216 3053 3103 2787 
Q 2991 2522 2730 2228 
Q 2469 1934 1863 1422 
Q 1356 997 1212 845 
Q 1069 694 975 541 
L 3222 541 
z
" transform="scale(0.015625)"/>
       </defs>
       <use xlink:href="#ArialMT-32"/>
       <use xlink:href="#ArialMT-30" transform="translate(55.615234 0)"/>
       <use xlink:href="#ArialMT-30" transform="translate(111.230469 0)"/>
      </g>
     </g>
    </g>
    <g id="xtick_4">
     <g id="line2d_7">
      <path d="M 448.761582 387.100937 
L 448.761582 23.220937 
" clip-path="url(#pfc0b52f407)" style="fill: none; stroke-dasharray: 2.96,1.28; stroke-dashoffset: 0; stroke: #b0b0b0; stroke-opacity: 0.5; stroke-width: 0.8"/>
     </g>
     <g id="line2d_8">
      <g>
       <use xlink:href="#m9fcfb53811" x="448.761582" y="387.100937" style="stroke: #000000; stroke-width: 0.8"/>
      </g>
     </g>
     <g id="text_4">
      <!-- 300 -->
      <g transform="translate(440.420175 401.25875) scale(0.1 -0.1)">
       <defs>
        <path id="ArialMT-33" d="M 269 1209 
L 831 1284 
Q 928 806 1161 595 
Q 1394 384 1728 384 
Q 2125 384 2398 659 
Q 2672 934 2672 1341 
Q 2672 1728 2419 1979 
Q 2166 2231 1775 2231 
Q 1616 2231 1378 2169 
L 1441 2663 
Q 1497 2656 1531 2656 
Q 1891 2656 2178 2843 
Q 2466 3031 2466 3422 
Q 2466 3731 2256 3934 
Q 2047 4138 1716 4138 
Q 1388 4138 1169 3931 
Q 950 3725 888 3313 
L 325 3413 
Q 428 3978 793 4289 
Q 1159 4600 1703 4600 
Q 2078 4600 2393 4439 
Q 2709 4278 2876 4000 
Q 3044 3722 3044 3409 
Q 3044 3113 2884 2869 
Q 2725 2625 2413 2481 
Q 2819 2388 3044 2092 
Q 3269 1797 3269 1353 
Q 3269 753 2831 336 
Q 2394 -81 1725 -81 
Q 1122 -81 723 278 
Q 325 638 269 1209 
z
" transform="scale(0.015625)"/>
       </defs>
       <use xlink:href="#ArialMT-33"/>
       <use xlink:href="#ArialMT-30" transform="translate(55.615234 0)"/>
       <use xlink:href="#ArialMT-30" transform="translate(111.230469 0)"/>
      </g>
     </g>
    </g>
    <g id="xtick_5">
     <g id="line2d_9">
      <path d="M 583.996276 387.100937 
L 583.996276 23.220937 
" clip-path="url(#pfc0b52f407)" style="fill: none; stroke-dasharray: 2.96,1.28; stroke-dashoffset: 0; stroke: #b0b0b0; stroke-opacity: 0.5; stroke-width: 0.8"/>
     </g>
     <g id="line2d_10">
      <g>
       <use xlink:href="#m9fcfb53811" x="583.996276" y="387.100937" style="stroke: #000000; stroke-width: 0.8"/>
      </g>
     </g>
     <g id="text_5">
      <!-- 400 -->
      <g transform="translate(575.654869 401.25875) scale(0.1 -0.1)">
       <defs>
        <path id="ArialMT-34" d="M 2069 0 
L 2069 1097 
L 81 1097 
L 81 1613 
L 2172 4581 
L 2631 4581 
L 2631 1613 
L 3250 1613 
L 3250 1097 
L 2631 1097 
L 2631 0 
L 2069 0 
z
M 2069 1613 
L 2069 3678 
L 634 1613 
L 2069 1613 
z
" transform="scale(0.015625)"/>
       </defs>
       <use xlink:href="#ArialMT-34"/>
       <use xlink:href="#ArialMT-30" transform="translate(55.615234 0)"/>
       <use xlink:href="#ArialMT-30" transform="translate(111.230469 0)"/>
      </g>
     </g>
    </g>
    <g id="text_6">
     <!-- k (Threshold Index) -->
     <g transform="translate(319.048438 415.981875) scale(0.12 -0.12)">
      <defs>
       <path id="Arial-BoldMT-6b" d="M 428 0 
L 428 4581 
L 1306 4581 
L 1306 2150 
L 2334 3319 
L 3416 3319 
L 2281 2106 
L 3497 0 
L 2550 0 
L 1716 1491 
L 1306 1063 
L 1306 0 
L 428 0 
z
" transform="scale(0.015625)"/>
       <path id="Arial-BoldMT-20" transform="scale(0.015625)"/>
       <path id="Arial-BoldMT-28" d="M 1916 -1347 
L 1313 -1347 
Q 834 -625 584 153 
Q 334 931 334 1659 
Q 334 2563 644 3369 
Q 913 4069 1325 4659 
L 1925 4659 
Q 1497 3713 1336 3048 
Q 1175 2384 1175 1641 
Q 1175 1128 1270 590 
Q 1366 53 1531 -431 
Q 1641 -750 1916 -1347 
z
" transform="scale(0.015625)"/>
       <path id="Arial-BoldMT-54" d="M 1497 0 
L 1497 3806 
L 138 3806 
L 138 4581 
L 3778 4581 
L 3778 3806 
L 2422 3806 
L 2422 0 
L 1497 0 
z
" transform="scale(0.015625)"/>
       <path id="Arial-BoldMT-68" d="M 1334 4581 
L 1334 2897 
Q 1759 3394 2350 3394 
Q 2653 3394 2897 3281 
Q 3141 3169 3264 2994 
Q 3388 2819 3433 2606 
Q 3478 2394 3478 1947 
L 3478 0 
L 2600 0 
L 2600 1753 
Q 2600 2275 2550 2415 
Q 2500 2556 2373 2639 
Q 2247 2722 2056 2722 
Q 1838 2722 1666 2615 
Q 1494 2509 1414 2295 
Q 1334 2081 1334 1663 
L 1334 0 
L 456 0 
L 456 4581 
L 1334 4581 
z
" transform="scale(0.015625)"/>
       <path id="Arial-BoldMT-72" d="M 1300 0 
L 422 0 
L 422 3319 
L 1238 3319 
L 1238 2847 
Q 1447 3181 1614 3287 
Q 1781 3394 1994 3394 
Q 2294 3394 2572 3228 
L 2300 2463 
Q 2078 2606 1888 2606 
Q 1703 2606 1575 2504 
Q 1447 2403 1373 2137 
Q 1300 1872 1300 1025 
L 1300 0 
z
" transform="scale(0.015625)"/>
       <path id="Arial-BoldMT-65" d="M 2381 1056 
L 3256 909 
Q 3088 428 2723 176 
Q 2359 -75 1813 -75 
Q 947 -75 531 491 
Q 203 944 203 1634 
Q 203 2459 634 2926 
Q 1066 3394 1725 3394 
Q 2466 3394 2894 2905 
Q 3322 2416 3303 1406 
L 1103 1406 
Q 1113 1016 1316 798 
Q 1519 581 1822 581 
Q 2028 581 2168 693 
Q 2309 806 2381 1056 
z
M 2431 1944 
Q 2422 2325 2234 2523 
Q 2047 2722 1778 2722 
Q 1491 2722 1303 2513 
Q 1116 2303 1119 1944 
L 2431 1944 
z
" transform="scale(0.015625)"/>
       <path id="Arial-BoldMT-73" d="M 150 947 
L 1031 1081 
Q 1088 825 1259 692 
Q 1431 559 1741 559 
Q 2081 559 2253 684 
Q 2369 772 2369 919 
Q 2369 1019 2306 1084 
Q 2241 1147 2013 1200 
Q 950 1434 666 1628 
Q 272 1897 272 2375 
Q 272 2806 612 3100 
Q 953 3394 1669 3394 
Q 2350 3394 2681 3172 
Q 3013 2950 3138 2516 
L 2309 2363 
Q 2256 2556 2107 2659 
Q 1959 2763 1684 2763 
Q 1338 2763 1188 2666 
Q 1088 2597 1088 2488 
Q 1088 2394 1175 2328 
Q 1294 2241 1995 2081 
Q 2697 1922 2975 1691 
Q 3250 1456 3250 1038 
Q 3250 581 2869 253 
Q 2488 -75 1741 -75 
Q 1063 -75 667 200 
Q 272 475 150 947 
z
" transform="scale(0.015625)"/>
       <path id="Arial-BoldMT-6f" d="M 256 1706 
Q 256 2144 472 2553 
Q 688 2963 1083 3178 
Q 1478 3394 1966 3394 
Q 2719 3394 3200 2905 
Q 3681 2416 3681 1669 
Q 3681 916 3195 420 
Q 2709 -75 1972 -75 
Q 1516 -75 1102 131 
Q 688 338 472 736 
Q 256 1134 256 1706 
z
M 1156 1659 
Q 1156 1166 1390 903 
Q 1625 641 1969 641 
Q 2313 641 2545 903 
Q 2778 1166 2778 1666 
Q 2778 2153 2545 2415 
Q 2313 2678 1969 2678 
Q 1625 2678 1390 2415 
Q 1156 2153 1156 1659 
z
" transform="scale(0.015625)"/>
       <path id="Arial-BoldMT-6c" d="M 459 0 
L 459 4581 
L 1338 4581 
L 1338 0 
L 459 0 
z
" transform="scale(0.015625)"/>
       <path id="Arial-BoldMT-64" d="M 3503 0 
L 2688 0 
L 2688 488 
Q 2484 203 2207 64 
Q 1931 -75 1650 -75 
Q 1078 -75 670 386 
Q 263 847 263 1672 
Q 263 2516 659 2955 
Q 1056 3394 1663 3394 
Q 2219 3394 2625 2931 
L 2625 4581 
L 3503 4581 
L 3503 0 
z
M 1159 1731 
Q 1159 1200 1306 963 
Q 1519 619 1900 619 
Q 2203 619 2415 876 
Q 2628 1134 2628 1647 
Q 2628 2219 2422 2470 
Q 2216 2722 1894 2722 
Q 1581 2722 1370 2473 
Q 1159 2225 1159 1731 
z
" transform="scale(0.015625)"/>
       <path id="Arial-BoldMT-49" d="M 438 0 
L 438 4581 
L 1363 4581 
L 1363 0 
L 438 0 
z
" transform="scale(0.015625)"/>
       <path id="Arial-BoldMT-6e" d="M 3478 0 
L 2600 0 
L 2600 1694 
Q 2600 2231 2544 2389 
Q 2488 2547 2361 2634 
Q 2234 2722 2056 2722 
Q 1828 2722 1647 2597 
Q 1466 2472 1398 2265 
Q 1331 2059 1331 1503 
L 1331 0 
L 453 0 
L 453 3319 
L 1269 3319 
L 1269 2831 
Q 1703 3394 2363 3394 
Q 2653 3394 2893 3289 
Q 3134 3184 3257 3021 
Q 3381 2859 3429 2653 
Q 3478 2447 3478 2063 
L 3478 0 
z
" transform="scale(0.015625)"/>
       <path id="Arial-BoldMT-78" d="M 38 0 
L 1234 1709 
L 88 3319 
L 1159 3319 
L 1747 2406 
L 2366 3319 
L 3397 3319 
L 2272 1747 
L 3500 0 
L 2422 0 
L 1747 1028 
L 1066 0 
L 38 0 
z
" transform="scale(0.015625)"/>
       <path id="Arial-BoldMT-29" d="M 216 -1347 
Q 475 -791 581 -494 
Q 688 -197 778 190 
Q 869 578 912 926 
Q 956 1275 956 1641 
Q 956 2384 797 3048 
Q 638 3713 209 4659 
L 806 4659 
Q 1278 3988 1539 3234 
Q 1800 2481 1800 1706 
Q 1800 1053 1594 306 
Q 1359 -531 822 -1347 
L 216 -1347 
z
" transform="scale(0.015625)"/>
      </defs>
      <use xlink:href="#Arial-BoldMT-6b"/>
      <use xlink:href="#Arial-BoldMT-20" transform="translate(55.615234 0)"/>
      <use xlink:href="#Arial-BoldMT-28" transform="translate(83.398438 0)"/>
      <use xlink:href="#Arial-BoldMT-54" transform="translate(116.699219 0)"/>
      <use xlink:href="#Arial-BoldMT-68" transform="translate(177.783203 0)"/>
      <use xlink:href="#Arial-BoldMT-72" transform="translate(238.867188 0)"/>
      <use xlink:href="#Arial-BoldMT-65" transform="translate(277.783203 0)"/>
      <use xlink:href="#Arial-BoldMT-73" transform="translate(333.398438 0)"/>
      <use xlink:href="#Arial-BoldMT-68" transform="translate(389.013672 0)"/>
      <use xlink:href="#Arial-BoldMT-6f" transform="translate(450.097656 0)"/>
      <use xlink:href="#Arial-BoldMT-6c" transform="translate(511.181641 0)"/>
      <use xlink:href="#Arial-BoldMT-64" transform="translate(538.964844 0)"/>
      <use xlink:href="#Arial-BoldMT-20" transform="translate(600.048828 0)"/>
      <use xlink:href="#Arial-BoldMT-49" transform="translate(627.832031 0)"/>
      <use xlink:href="#Arial-BoldMT-6e" transform="translate(655.615234 0)"/>
      <use xlink:href="#Arial-BoldMT-64" transform="translate(716.699219 0)"/>
      <use xlink:href="#Arial-BoldMT-65" transform="translate(777.783203 0)"/>
      <use xlink:href="#Arial-BoldMT-78" transform="translate(833.398438 0)"/>
      <use xlink:href="#Arial-BoldMT-29" transform="translate(889.013672 0)"/>
     </g>
    </g>
   </g>
   <g id="matplotlib.axis_2">
    <g id="ytick_1">
     <g id="line2d_11">
      <path d="M 43.0575 387.100937 
L 705.7075 387.100937 
" clip-path="url(#pfc0b52f407)" style="fill: none; stroke-dasharray: 2.96,1.28; stroke-dashoffset: 0; stroke: #b0b0b0; stroke-opacity: 0.5; stroke-width: 0.8"/>
     </g>
     <g id="line2d_12">
      <defs>
       <path id="mdbc0a4d3b8" d="M 0 0 
L -3.5 0 
" style="stroke: #000000; stroke-width: 0.8"/>
      </defs>
      <g>
       <use xlink:href="#mdbc0a4d3b8" x="43.0575" y="387.100937" style="stroke: #000000; stroke-width: 0.8"/>
      </g>
     </g>
     <g id="text_7">
      <!-- 0.0 -->
      <g transform="translate(22.1575 390.679844) scale(0.1 -0.1)">
       <defs>
        <path id="ArialMT-2e" d="M 581 0 
L 581 641 
L 1222 641 
L 1222 0 
L 581 0 
z
" transform="scale(0.015625)"/>
       </defs>
       <use xlink:href="#ArialMT-30"/>
       <use xlink:href="#ArialMT-2e" transform="translate(55.615234 0)"/>
       <use xlink:href="#ArialMT-30" transform="translate(83.398438 0)"/>
      </g>
     </g>
    </g>
    <g id="ytick_2">
     <g id="line2d_13">
      <path d="M 43.0575 317.790461 
L 705.7075 317.790461 
" clip-path="url(#pfc0b52f407)" style="fill: none; stroke-dasharray: 2.96,1.28; stroke-dashoffset: 0; stroke: #b0b0b0; stroke-opacity: 0.5; stroke-width: 0.8"/>
     </g>
     <g id="line2d_14">
      <g>
       <use xlink:href="#mdbc0a4d3b8" x="43.0575" y="317.790461" style="stroke: #000000; stroke-width: 0.8"/>
      </g>
     </g>
     <g id="text_8">
      <!-- 0.2 -->
      <g transform="translate(22.1575 321.369368) scale(0.1 -0.1)">
       <use xlink:href="#ArialMT-30"/>
       <use xlink:href="#ArialMT-2e" transform="translate(55.615234 0)"/>
       <use xlink:href="#ArialMT-32" transform="translate(83.398438 0)"/>
      </g>
     </g>
    </g>
    <g id="ytick_3">
     <g id="line2d_15">
      <path d="M 43.0575 248.479985 
L 705.7075 248.479985 
" clip-path="url(#pfc0b52f407)" style="fill: none; stroke-dasharray: 2.96,1.28; stroke-dashoffset: 0; stroke: #b0b0b0; stroke-opacity: 0.5; stroke-width: 0.8"/>
     </g>
     <g id="line2d_16">
      <g>
       <use xlink:href="#mdbc0a4d3b8" x="43.0575" y="248.479985" style="stroke: #000000; stroke-width: 0.8"/>
      </g>
     </g>
     <g id="text_9">
      <!-- 0.4 -->
      <g transform="translate(22.1575 252.058891) scale(0.1 -0.1)">
       <use xlink:href="#ArialMT-30"/>
       <use xlink:href="#ArialMT-2e" transform="translate(55.615234 0)"/>
       <use xlink:href="#ArialMT-34" transform="translate(83.398438 0)"/>
      </g>
     </g>
    </g>
    <g id="ytick_4">
     <g id="line2d_17">
      <path d="M 43.0575 179.169509 
L 705.7075 179.169509 
" clip-path="url(#pfc0b52f407)" style="fill: none; stroke-dasharray: 2.96,1.28; stroke-dashoffset: 0; stroke: #b0b0b0; stroke-opacity: 0.5; stroke-width: 0.8"/>
     </g>
     <g id="line2d_18">
      <g>
       <use xlink:href="#mdbc0a4d3b8" x="43.0575" y="179.169509" style="stroke: #000000; stroke-width: 0.8"/>
      </g>
     </g>
     <g id="text_10">
      <!-- 0.6 -->
      <g transform="translate(22.1575 182.748415) scale(0.1 -0.1)">
       <defs>
        <path id="ArialMT-36" d="M 3184 3459 
L 2625 3416 
Q 2550 3747 2413 3897 
Q 2184 4138 1850 4138 
Q 1581 4138 1378 3988 
Q 1113 3794 959 3422 
Q 806 3050 800 2363 
Q 1003 2672 1297 2822 
Q 1591 2972 1913 2972 
Q 2475 2972 2870 2558 
Q 3266 2144 3266 1488 
Q 3266 1056 3080 686 
Q 2894 316 2569 119 
Q 2244 -78 1831 -78 
Q 1128 -78 684 439 
Q 241 956 241 2144 
Q 241 3472 731 4075 
Q 1159 4600 1884 4600 
Q 2425 4600 2770 4297 
Q 3116 3994 3184 3459 
z
M 888 1484 
Q 888 1194 1011 928 
Q 1134 663 1356 523 
Q 1578 384 1822 384 
Q 2178 384 2434 671 
Q 2691 959 2691 1453 
Q 2691 1928 2437 2201 
Q 2184 2475 1800 2475 
Q 1419 2475 1153 2201 
Q 888 1928 888 1484 
z
" transform="scale(0.015625)"/>
       </defs>
       <use xlink:href="#ArialMT-30"/>
       <use xlink:href="#ArialMT-2e" transform="translate(55.615234 0)"/>
       <use xlink:href="#ArialMT-36" transform="translate(83.398438 0)"/>
      </g>
     </g>
    </g>
    <g id="ytick_5">
     <g id="line2d_19">
      <path d="M 43.0575 109.859033 
L 705.7075 109.859033 
" clip-path="url(#pfc0b52f407)" style="fill: none; stroke-dasharray: 2.96,1.28; stroke-dashoffset: 0; stroke: #b0b0b0; stroke-opacity: 0.5; stroke-width: 0.8"/>
     </g>
     <g id="line2d_20">
      <g>
       <use xlink:href="#mdbc0a4d3b8" x="43.0575" y="109.859033" style="stroke: #000000; stroke-width: 0.8"/>
      </g>
     </g>
     <g id="text_11">
      <!-- 0.8 -->
      <g transform="translate(22.1575 113.437939) scale(0.1 -0.1)">
       <defs>
        <path id="ArialMT-38" d="M 1131 2484 
Q 781 2613 612 2850 
Q 444 3088 444 3419 
Q 444 3919 803 4259 
Q 1163 4600 1759 4600 
Q 2359 4600 2725 4251 
Q 3091 3903 3091 3403 
Q 3091 3084 2923 2848 
Q 2756 2613 2416 2484 
Q 2838 2347 3058 2040 
Q 3278 1734 3278 1309 
Q 3278 722 2862 322 
Q 2447 -78 1769 -78 
Q 1091 -78 675 323 
Q 259 725 259 1325 
Q 259 1772 486 2073 
Q 713 2375 1131 2484 
z
M 1019 3438 
Q 1019 3113 1228 2906 
Q 1438 2700 1772 2700 
Q 2097 2700 2305 2904 
Q 2513 3109 2513 3406 
Q 2513 3716 2298 3927 
Q 2084 4138 1766 4138 
Q 1444 4138 1231 3931 
Q 1019 3725 1019 3438 
z
M 838 1322 
Q 838 1081 952 856 
Q 1066 631 1291 507 
Q 1516 384 1775 384 
Q 2178 384 2440 643 
Q 2703 903 2703 1303 
Q 2703 1709 2433 1975 
Q 2163 2241 1756 2241 
Q 1359 2241 1098 1978 
Q 838 1716 838 1322 
z
" transform="scale(0.015625)"/>
       </defs>
       <use xlink:href="#ArialMT-30"/>
       <use xlink:href="#ArialMT-2e" transform="translate(55.615234 0)"/>
       <use xlink:href="#ArialMT-38" transform="translate(83.398438 0)"/>
      </g>
     </g>
    </g>
    <g id="ytick_6">
     <g id="line2d_21">
      <path d="M 43.0575 40.548557 
L 705.7075 40.548557 
" clip-path="url(#pfc0b52f407)" style="fill: none; stroke-dasharray: 2.96,1.28; stroke-dashoffset: 0; stroke: #b0b0b0; stroke-opacity: 0.5; stroke-width: 0.8"/>
     </g>
     <g id="line2d_22">
      <g>
       <use xlink:href="#mdbc0a4d3b8" x="43.0575" y="40.548557" style="stroke: #000000; stroke-width: 0.8"/>
      </g>
     </g>
     <g id="text_12">
      <!-- 1.0 -->
      <g transform="translate(22.1575 44.127463) scale(0.1 -0.1)">
       <use xlink:href="#ArialMT-31"/>
       <use xlink:href="#ArialMT-2e" transform="translate(55.615234 0)"/>
       <use xlink:href="#ArialMT-30" transform="translate(83.398438 0)"/>
      </g>
     </g>
    </g>
    <g id="text_13">
     <!-- F1-Score -->
     <g transform="translate(15.789375 230.835312) rotate(-90) scale(0.12 -0.12)">
      <defs>
       <path id="Arial-BoldMT-46" d="M 472 0 
L 472 4581 
L 3613 4581 
L 3613 3806 
L 1397 3806 
L 1397 2722 
L 3309 2722 
L 3309 1947 
L 1397 1947 
L 1397 0 
L 472 0 
z
" transform="scale(0.015625)"/>
       <path id="Arial-BoldMT-31" d="M 2519 0 
L 1641 0 
L 1641 3309 
Q 1159 2859 506 2644 
L 506 3441 
Q 850 3553 1253 3867 
Q 1656 4181 1806 4600 
L 2519 4600 
L 2519 0 
z
" transform="scale(0.015625)"/>
       <path id="Arial-BoldMT-2d" d="M 359 1222 
L 359 2100 
L 2084 2100 
L 2084 1222 
L 359 1222 
z
" transform="scale(0.015625)"/>
       <path id="Arial-BoldMT-53" d="M 231 1491 
L 1131 1578 
Q 1213 1125 1461 912 
Q 1709 700 2131 700 
Q 2578 700 2804 889 
Q 3031 1078 3031 1331 
Q 3031 1494 2936 1608 
Q 2841 1722 2603 1806 
Q 2441 1863 1863 2006 
Q 1119 2191 819 2459 
Q 397 2838 397 3381 
Q 397 3731 595 4036 
Q 794 4341 1167 4500 
Q 1541 4659 2069 4659 
Q 2931 4659 3367 4281 
Q 3803 3903 3825 3272 
L 2900 3231 
Q 2841 3584 2645 3739 
Q 2450 3894 2059 3894 
Q 1656 3894 1428 3728 
Q 1281 3622 1281 3444 
Q 1281 3281 1419 3166 
Q 1594 3019 2269 2859 
Q 2944 2700 3267 2529 
Q 3591 2359 3773 2064 
Q 3956 1769 3956 1334 
Q 3956 941 3737 597 
Q 3519 253 3119 86 
Q 2719 -81 2122 -81 
Q 1253 -81 787 320 
Q 322 722 231 1491 
z
" transform="scale(0.015625)"/>
       <path id="Arial-BoldMT-63" d="M 3353 2338 
L 2488 2181 
Q 2444 2441 2289 2572 
Q 2134 2703 1888 2703 
Q 1559 2703 1364 2476 
Q 1169 2250 1169 1719 
Q 1169 1128 1367 884 
Q 1566 641 1900 641 
Q 2150 641 2309 783 
Q 2469 925 2534 1272 
L 3397 1125 
Q 3263 531 2881 228 
Q 2500 -75 1859 -75 
Q 1131 -75 698 384 
Q 266 844 266 1656 
Q 266 2478 700 2936 
Q 1134 3394 1875 3394 
Q 2481 3394 2839 3133 
Q 3197 2872 3353 2338 
z
" transform="scale(0.015625)"/>
      </defs>
      <use xlink:href="#Arial-BoldMT-46"/>
      <use xlink:href="#Arial-BoldMT-31" transform="translate(61.083984 0)"/>
      <use xlink:href="#Arial-BoldMT-2d" transform="translate(116.699219 0)"/>
      <use xlink:href="#Arial-BoldMT-53" transform="translate(150 0)"/>
      <use xlink:href="#Arial-BoldMT-63" transform="translate(216.699219 0)"/>
      <use xlink:href="#Arial-BoldMT-6f" transform="translate(272.314453 0)"/>
      <use xlink:href="#Arial-BoldMT-72" transform="translate(333.398438 0)"/>
      <use xlink:href="#Arial-BoldMT-65" transform="translate(372.314453 0)"/>
     </g>
    </g>
   </g>
   <g id="line2d_23">
    <path d="M 44.409847 387.100937 
L 47.114541 354.863507 
L 48.466888 355.596176 
L 51.171582 326.830958 
L 53.876276 300.462842 
L 56.580969 276.204176 
L 59.285663 253.81156 
L 60.63801 256.326454 
L 61.990357 245.91293 
L 64.695051 250.955359 
L 66.047398 241.184146 
L 67.399745 243.699952 
L 68.752092 234.382939 
L 71.456786 239.390087 
L 74.16148 222.075994 
L 78.21852 229.577128 
L 80.923214 234.210181 
L 83.627908 218.775495 
L 86.332602 223.451202 
L 87.684949 216.198393 
L 91.74199 222.944547 
L 95.799031 229.178334 
L 99.856071 234.95599 
L 102.560765 238.578489 
L 103.913112 232.171638 
L 105.265459 233.973141 
L 107.970153 221.700937 
L 112.027194 227.153685 
L 113.379541 221.358494 
L 117.436582 226.592466 
L 121.493622 231.505991 
L 122.845969 233.077657 
L 124.198316 227.686842 
L 125.550663 229.2652 
L 126.90301 224.017464 
L 130.960051 228.676992 
L 132.312398 223.632833 
L 137.721786 229.577128 
L 141.778827 233.759176 
L 143.131173 229.024413 
L 144.48352 230.398991 
L 145.835867 225.774829 
L 147.188214 227.153685 
L 148.540561 222.635401 
L 153.949949 228.027713 
L 159.359337 233.077657 
L 164.768724 237.816835 
L 170.178112 242.273077 
L 172.882806 244.402898 
L 174.235153 240.385331 
L 179.644541 244.547476 
L 186.406276 249.429444 
L 189.110969 251.289869 
L 190.463316 247.549643 
L 197.225051 252.080529 
L 199.929745 244.925602 
L 206.69148 249.340985 
L 208.043827 245.91293 
L 214.805561 250.140116 
L 221.567296 254.121536 
L 228.329031 257.878016 
L 236.443112 262.114833 
L 244.557194 266.082646 
L 252.671276 269.806285 
L 260.785357 273.307618 
L 270.251786 277.137201 
L 279.718214 280.717416 
L 289.184643 284.071851 
L 291.889337 278.803318 
L 302.708112 282.537719 
L 313.526888 286.02316 
L 324.345663 289.283733 
L 335.164439 292.340521 
L 336.516786 290.012333 
L 347.335561 292.943309 
L 348.687908 290.691629 
L 360.859031 293.846842 
L 374.3825 297.118916 
L 385.201276 299.575763 
L 386.553622 297.515968 
L 401.429439 300.746902 
L 416.305255 303.752897 
L 432.533418 306.802215 
L 450.113929 309.863457 
L 467.694439 312.699861 
L 486.627296 315.530337 
L 506.9125 318.333363 
L 528.550051 321.09096 
L 551.539949 323.788483 
L 575.882194 326.414345 
L 601.576786 328.959699 
L 621.86199 330.8232 
L 623.214337 329.46536 
L 651.613622 331.935456 
L 665.137092 333.038766 
L 666.489439 331.763232 
L 697.593418 334.192177 
L 705.7075 334.791144 
L 705.7075 334.791144 
" clip-path="url(#pfc0b52f407)" style="fill: none; stroke: #1f77b4; stroke-width: 2; stroke-linecap: square"/>
    <defs>
     <path id="m4dc3e48f45" d="M 0 1.5 
C 0.397805 1.5 0.77937 1.341951 1.06066 1.06066 
C 1.341951 0.77937 1.5 0.397805 1.5 0 
C 1.5 -0.397805 1.341951 -0.77937 1.06066 -1.06066 
C 0.77937 -1.341951 0.397805 -1.5 0 -1.5 
C -0.397805 -1.5 -0.77937 -1.341951 -1.06066 -1.06066 
C -1.341951 -0.77937 -1.5 -0.397805 -1.5 0 
C -1.5 0.397805 -1.341951 0.77937 -1.06066 1.06066 
C -0.77937 1.341951 -0.397805 1.5 0 1.5 
z
" style="stroke: #1f77b4"/>
    </defs>
    <g clip-path="url(#pfc0b52f407)">
     <use xlink:href="#m4dc3e48f45" x="44.409847" y="387.100937" style="fill: #1f77b4; stroke: #1f77b4"/>
     <use xlink:href="#m4dc3e48f45" x="60.63801" y="256.326454" style="fill: #1f77b4; stroke: #1f77b4"/>
     <use xlink:href="#m4dc3e48f45" x="76.866173" y="227.153685" style="fill: #1f77b4; stroke: #1f77b4"/>
     <use xlink:href="#m4dc3e48f45" x="93.094337" y="225.076448" style="fill: #1f77b4; stroke: #1f77b4"/>
     <use xlink:href="#m4dc3e48f45" x="109.3225" y="223.559364" style="fill: #1f77b4; stroke: #1f77b4"/>
     <use xlink:href="#m4dc3e48f45" x="125.550663" y="229.2652" style="fill: #1f77b4; stroke: #1f77b4"/>
     <use xlink:href="#m4dc3e48f45" x="141.778827" y="233.759176" style="fill: #1f77b4; stroke: #1f77b4"/>
     <use xlink:href="#m4dc3e48f45" x="158.00699" y="231.845471" style="fill: #1f77b4; stroke: #1f77b4"/>
     <use xlink:href="#m4dc3e48f45" x="174.235153" y="240.385331" style="fill: #1f77b4; stroke: #1f77b4"/>
     <use xlink:href="#m4dc3e48f45" x="190.463316" y="247.549643" style="fill: #1f77b4; stroke: #1f77b4"/>
     <use xlink:href="#m4dc3e48f45" x="206.69148" y="249.340985" style="fill: #1f77b4; stroke: #1f77b4"/>
     <use xlink:href="#m4dc3e48f45" x="222.919643" y="254.890203" style="fill: #1f77b4; stroke: #1f77b4"/>
     <use xlink:href="#m4dc3e48f45" x="239.147806" y="263.466034" style="fill: #1f77b4; stroke: #1f77b4"/>
     <use xlink:href="#m4dc3e48f45" x="255.375969" y="270.997094" style="fill: #1f77b4; stroke: #1f77b4"/>
     <use xlink:href="#m4dc3e48f45" x="271.604133" y="277.663344" style="fill: #1f77b4; stroke: #1f77b4"/>
     <use xlink:href="#m4dc3e48f45" x="287.832296" y="283.605656" style="fill: #1f77b4; stroke: #1f77b4"/>
     <use xlink:href="#m4dc3e48f45" x="304.060459" y="282.986488" style="fill: #1f77b4; stroke: #1f77b4"/>
     <use xlink:href="#m4dc3e48f45" x="320.288622" y="288.085972" style="fill: #1f77b4; stroke: #1f77b4"/>
     <use xlink:href="#m4dc3e48f45" x="336.516786" y="290.012333" style="fill: #1f77b4; stroke: #1f77b4"/>
     <use xlink:href="#m4dc3e48f45" x="352.744949" y="291.766825" style="fill: #1f77b4; stroke: #1f77b4"/>
     <use xlink:href="#m4dc3e48f45" x="368.973112" y="295.838033" style="fill: #1f77b4; stroke: #1f77b4"/>
     <use xlink:href="#m4dc3e48f45" x="385.201276" y="299.575763" style="fill: #1f77b4; stroke: #1f77b4"/>
     <use xlink:href="#m4dc3e48f45" x="401.429439" y="300.746902" style="fill: #1f77b4; stroke: #1f77b4"/>
     <use xlink:href="#m4dc3e48f45" x="417.657602" y="304.015824" style="fill: #1f77b4; stroke: #1f77b4"/>
     <use xlink:href="#m4dc3e48f45" x="433.885765" y="307.046284" style="fill: #1f77b4; stroke: #1f77b4"/>
     <use xlink:href="#m4dc3e48f45" x="450.113929" y="309.863457" style="fill: #1f77b4; stroke: #1f77b4"/>
     <use xlink:href="#m4dc3e48f45" x="466.342092" y="312.489093" style="fill: #1f77b4; stroke: #1f77b4"/>
     <use xlink:href="#m4dc3e48f45" x="482.570255" y="314.942086" style="fill: #1f77b4; stroke: #1f77b4"/>
     <use xlink:href="#m4dc3e48f45" x="498.798418" y="317.238919" style="fill: #1f77b4; stroke: #1f77b4"/>
     <use xlink:href="#m4dc3e48f45" x="515.026582" y="319.394046" style="fill: #1f77b4; stroke: #1f77b4"/>
     <use xlink:href="#m4dc3e48f45" x="531.254745" y="321.420187" style="fill: #1f77b4; stroke: #1f77b4"/>
     <use xlink:href="#m4dc3e48f45" x="547.482908" y="323.328587" style="fill: #1f77b4; stroke: #1f77b4"/>
     <use xlink:href="#m4dc3e48f45" x="563.711071" y="325.129218" style="fill: #1f77b4; stroke: #1f77b4"/>
     <use xlink:href="#m4dc3e48f45" x="579.939235" y="326.830958" style="fill: #1f77b4; stroke: #1f77b4"/>
     <use xlink:href="#m4dc3e48f45" x="596.167398" y="328.441737" style="fill: #1f77b4; stroke: #1f77b4"/>
     <use xlink:href="#m4dc3e48f45" x="612.395561" y="329.968658" style="fill: #1f77b4; stroke: #1f77b4"/>
     <use xlink:href="#m4dc3e48f45" x="628.623724" y="329.952765" style="fill: #1f77b4; stroke: #1f77b4"/>
     <use xlink:href="#m4dc3e48f45" x="644.851888" y="331.36674" style="fill: #1f77b4; stroke: #1f77b4"/>
     <use xlink:href="#m4dc3e48f45" x="661.080051" y="332.712435" style="fill: #1f77b4; stroke: #1f77b4"/>
     <use xlink:href="#m4dc3e48f45" x="677.308214" y="332.63298" style="fill: #1f77b4; stroke: #1f77b4"/>
     <use xlink:href="#m4dc3e48f45" x="693.536378" y="333.88752" style="fill: #1f77b4; stroke: #1f77b4"/>
    </g>
   </g>
   <g id="line2d_24">
    <path d="M 44.409847 387.100937 
L 45.762194 387.100937 
L 48.466888 355.596176 
L 51.171582 326.830958 
L 53.876276 300.462842 
L 56.580969 276.204176 
L 59.285663 253.81156 
L 61.990357 233.077657 
L 64.695051 213.824747 
L 66.047398 204.704948 
L 67.399745 207.849706 
L 70.104439 190.721255 
L 71.456786 193.940594 
L 74.16148 178.069343 
L 76.866173 163.174784 
L 79.570867 149.169452 
L 83.627908 159.366516 
L 87.684949 168.725465 
L 91.74199 177.345549 
L 95.799031 185.310944 
L 99.856071 192.693504 
L 101.208418 186.685103 
L 105.265459 193.676353 
L 109.3225 200.196283 
L 113.379541 206.291 
L 114.731888 208.235192 
L 117.436582 197.409108 
L 121.493622 203.216001 
L 125.550663 208.677929 
L 129.607704 213.824747 
L 133.664745 218.682958 
L 139.074133 224.752074 
L 144.48352 230.398991 
L 149.892908 235.666284 
L 155.302296 240.590988 
L 160.711684 245.205474 
L 166.121071 249.53816 
L 171.530459 253.614094 
L 172.882806 249.499257 
L 178.292194 253.430733 
L 185.053929 258.040051 
L 191.815663 262.34208 
L 198.577398 266.36656 
L 205.339133 270.139509 
L 212.100867 273.683795 
L 220.214949 277.663344 
L 221.567296 274.26993 
L 225.624337 276.204176 
L 226.976684 272.896176 
L 235.090765 276.661168 
L 243.204847 280.185841 
L 247.261888 281.865136 
L 249.966582 275.77323 
L 251.318929 276.347084 
L 252.671276 273.360669 
L 259.43301 276.204176 
L 260.785357 273.307618 
L 267.547092 276.069592 
L 268.899439 273.257643 
L 278.365867 276.981489 
L 287.832296 280.469436 
L 298.651071 284.194554 
L 304.060459 285.961187 
L 305.412806 283.431422 
L 316.231582 286.858513 
L 327.050357 290.066271 
L 339.22148 293.438132 
L 351.392602 296.583525 
L 364.916071 299.839547 
L 378.439541 302.869456 
L 382.496582 303.737822 
L 383.848929 301.649665 
L 397.372398 304.479178 
L 398.724745 302.464382 
L 413.600561 305.429357 
L 429.828724 308.435673 
L 447.409235 311.452335 
L 464.989745 314.246176 
L 483.922602 317.03297 
L 504.207806 319.791551 
L 525.845357 322.504272 
L 548.835255 325.156792 
L 573.1775 327.737798 
L 588.053316 329.211826 
L 590.75801 326.356925 
L 617.804949 328.96957 
L 623.214337 329.46536 
L 624.566684 328.113298 
L 652.965969 330.636191 
L 682.717602 333.057681 
L 705.7075 334.791144 
L 705.7075 334.791144 
" clip-path="url(#pfc0b52f407)" style="fill: none; stroke: #ff7f0e; stroke-width: 2; stroke-linecap: square"/>
    <defs>
     <path id="md3d58a5a55" d="M 0 1.5 
C 0.397805 1.5 0.77937 1.341951 1.06066 1.06066 
C 1.341951 0.77937 1.5 0.397805 1.5 0 
C 1.5 -0.397805 1.341951 -0.77937 1.06066 -1.06066 
C 0.77937 -1.341951 0.397805 -1.5 0 -1.5 
C -0.397805 -1.5 -0.77937 -1.341951 -1.06066 -1.06066 
C -1.341951 -0.77937 -1.5 -0.397805 -1.5 0 
C -1.5 0.397805 -1.341951 0.77937 -1.06066 1.06066 
C -0.77937 1.341951 -0.397805 1.5 0 1.5 
z
" style="stroke: #ff7f0e"/>
    </defs>
    <g clip-path="url(#pfc0b52f407)">
     <use xlink:href="#md3d58a5a55" x="44.409847" y="387.100937" style="fill: #ff7f0e; stroke: #ff7f0e"/>
     <use xlink:href="#md3d58a5a55" x="60.63801" y="243.249006" style="fill: #ff7f0e; stroke: #ff7f0e"/>
     <use xlink:href="#md3d58a5a55" x="76.866173" y="163.174784" style="fill: #ff7f0e; stroke: #ff7f0e"/>
     <use xlink:href="#md3d58a5a55" x="93.094337" y="180.069645" style="fill: #ff7f0e; stroke: #ff7f0e"/>
     <use xlink:href="#md3d58a5a55" x="109.3225" y="200.196283" style="fill: #ff7f0e; stroke: #ff7f0e"/>
     <use xlink:href="#md3d58a5a55" x="125.550663" y="208.677929" style="fill: #ff7f0e; stroke: #ff7f0e"/>
     <use xlink:href="#md3d58a5a55" x="141.778827" y="227.625506" style="fill: #ff7f0e; stroke: #ff7f0e"/>
     <use xlink:href="#md3d58a5a55" x="158.00699" y="242.935147" style="fill: #ff7f0e; stroke: #ff7f0e"/>
     <use xlink:href="#md3d58a5a55" x="174.235153" y="250.503649" style="fill: #ff7f0e; stroke: #ff7f0e"/>
     <use xlink:href="#md3d58a5a55" x="190.463316" y="261.504773" style="fill: #ff7f0e; stroke: #ff7f0e"/>
     <use xlink:href="#md3d58a5a55" x="206.69148" y="270.865977" style="fill: #ff7f0e; stroke: #ff7f0e"/>
     <use xlink:href="#md3d58a5a55" x="222.919643" y="274.922132" style="fill: #ff7f0e; stroke: #ff7f0e"/>
     <use xlink:href="#md3d58a5a55" x="239.147806" y="278.452083" style="fill: #ff7f0e; stroke: #ff7f0e"/>
     <use xlink:href="#md3d58a5a55" x="255.375969" y="274.515392" style="fill: #ff7f0e; stroke: #ff7f0e"/>
     <use xlink:href="#md3d58a5a55" x="271.604133" y="274.347053" style="fill: #ff7f0e; stroke: #ff7f0e"/>
     <use xlink:href="#md3d58a5a55" x="287.832296" y="280.469436" style="fill: #ff7f0e; stroke: #ff7f0e"/>
     <use xlink:href="#md3d58a5a55" x="304.060459" y="285.961187" style="fill: #ff7f0e; stroke: #ff7f0e"/>
     <use xlink:href="#md3d58a5a55" x="320.288622" y="288.085972" style="fill: #ff7f0e; stroke: #ff7f0e"/>
     <use xlink:href="#md3d58a5a55" x="336.516786" y="292.709238" style="fill: #ff7f0e; stroke: #ff7f0e"/>
     <use xlink:href="#md3d58a5a55" x="352.744949" y="296.920021" style="fill: #ff7f0e; stroke: #ff7f0e"/>
     <use xlink:href="#md3d58a5a55" x="368.973112" y="300.771163" style="fill: #ff7f0e; stroke: #ff7f0e"/>
     <use xlink:href="#md3d58a5a55" x="385.201276" y="301.941308" style="fill: #ff7f0e; stroke: #ff7f0e"/>
     <use xlink:href="#md3d58a5a55" x="401.429439" y="303.019376" style="fill: #ff7f0e; stroke: #ff7f0e"/>
     <use xlink:href="#md3d58a5a55" x="417.657602" y="306.202274" style="fill: #ff7f0e; stroke: #ff7f0e"/>
     <use xlink:href="#md3d58a5a55" x="433.885765" y="309.152986" style="fill: #ff7f0e; stroke: #ff7f0e"/>
     <use xlink:href="#md3d58a5a55" x="450.113929" y="311.896022" style="fill: #ff7f0e; stroke: #ff7f0e"/>
     <use xlink:href="#md3d58a5a55" x="466.342092" y="314.452563" style="fill: #ff7f0e; stroke: #ff7f0e"/>
     <use xlink:href="#md3d58a5a55" x="482.570255" y="316.841003" style="fill: #ff7f0e; stroke: #ff7f0e"/>
     <use xlink:href="#md3d58a5a55" x="498.798418" y="319.077393" style="fill: #ff7f0e; stroke: #ff7f0e"/>
     <use xlink:href="#md3d58a5a55" x="515.026582" y="321.175806" style="fill: #ff7f0e; stroke: #ff7f0e"/>
     <use xlink:href="#md3d58a5a55" x="531.254745" y="323.148628" style="fill: #ff7f0e; stroke: #ff7f0e"/>
     <use xlink:href="#md3d58a5a55" x="547.482908" y="325.006806" style="fill: #ff7f0e; stroke: #ff7f0e"/>
     <use xlink:href="#md3d58a5a55" x="563.711071" y="326.760052" style="fill: #ff7f0e; stroke: #ff7f0e"/>
     <use xlink:href="#md3d58a5a55" x="579.939235" y="328.41701" style="fill: #ff7f0e; stroke: #ff7f0e"/>
     <use xlink:href="#md3d58a5a55" x="596.167398" y="326.898074" style="fill: #ff7f0e; stroke: #ff7f0e"/>
     <use xlink:href="#md3d58a5a55" x="612.395561" y="328.465177" style="fill: #ff7f0e; stroke: #ff7f0e"/>
     <use xlink:href="#md3d58a5a55" x="628.623724" y="328.487427" style="fill: #ff7f0e; stroke: #ff7f0e"/>
     <use xlink:href="#md3d58a5a55" x="644.851888" y="329.937658" style="fill: #ff7f0e; stroke: #ff7f0e"/>
     <use xlink:href="#md3d58a5a55" x="661.080051" y="331.317858" style="fill: #ff7f0e; stroke: #ff7f0e"/>
     <use xlink:href="#md3d58a5a55" x="677.308214" y="332.63298" style="fill: #ff7f0e; stroke: #ff7f0e"/>
     <use xlink:href="#md3d58a5a55" x="693.536378" y="333.88752" style="fill: #ff7f0e; stroke: #ff7f0e"/>
    </g>
   </g>
   <g id="line2d_25">
    <path d="M 44.409847 370.195943 
L 47.114541 338.744791 
L 49.819235 310.089297 
L 52.523929 283.872569 
L 55.228622 259.795981 
L 56.580969 262.34208 
L 57.933316 251.198043 
L 60.63801 256.326454 
L 63.342704 261.08189 
L 64.695051 250.955359 
L 66.047398 253.343878 
L 68.752092 234.382939 
L 70.104439 225.376493 
L 72.809133 230.593411 
L 76.866173 237.816835 
L 80.923214 244.402898 
L 84.980255 250.432393 
L 89.037296 255.97301 
L 93.094337 261.08189 
L 94.446684 262.697519 
L 95.799031 255.498768 
L 99.856071 260.313481 
L 103.913112 264.788332 
L 107.970153 268.95808 
L 112.027194 272.8529 
L 116.084235 276.499114 
L 121.493622 281.013474 
L 126.90301 285.173767 
L 132.312398 289.020075 
L 137.721786 292.586652 
L 143.131173 295.902943 
L 148.540561 298.9944 
L 155.302296 302.575967 
L 158.00699 303.928366 
L 159.359337 299.087634 
L 160.711684 299.780653 
L 162.064031 295.047961 
L 168.825765 298.5086 
L 175.5875 301.718467 
L 182.349235 304.703868 
L 185.053929 305.840379 
L 186.406276 301.649665 
L 194.520357 305.022742 
L 202.634439 308.139636 
L 210.74852 311.028464 
L 220.214949 314.142542 
L 229.681378 317.011692 
L 239.147806 319.663717 
L 249.966582 322.459043 
L 255.375969 323.771568 
L 256.728316 320.590885 
L 267.547092 323.173799 
L 279.718214 325.849819 
L 293.241684 328.572091 
L 306.765153 331.06268 
L 321.640969 333.568456 
L 337.869133 336.058339 
L 354.097296 338.326899 
L 371.677806 340.567402 
L 390.610663 342.760902 
L 397.372398 343.495009 
L 398.724745 341.351448 
L 400.077092 341.50194 
L 401.429439 339.37897 
L 421.714643 341.615937 
L 443.352194 343.78189 
L 467.694439 345.984553 
L 469.046786 346.100374 
L 470.399133 344.268621 
L 496.093724 346.438791 
L 500.150765 346.761507 
L 501.503112 345.039171 
L 528.550051 347.14753 
L 558.301684 349.235357 
L 574.529847 350.284749 
L 575.882194 348.772564 
L 578.586888 348.948382 
L 579.939235 347.449635 
L 583.996276 347.719985 
L 585.348622 346.237618 
L 606.986173 347.668281 
L 608.33852 346.24105 
L 639.4425 348.194849 
L 640.794847 346.83759 
L 644.851888 347.086642 
L 646.204235 345.742834 
L 648.908929 345.912335 
L 650.261276 344.579173 
L 669.194133 345.762681 
L 670.54648 344.469494 
L 671.898827 344.553913 
L 673.251173 343.268225 
L 680.012908 343.697117 
L 681.365255 342.42817 
L 682.717602 342.515251 
L 684.069949 341.253541 
L 685.422296 341.342565 
L 686.774643 340.088018 
L 696.241071 340.717254 
L 701.650459 335.808555 
L 703.002806 335.905699 
L 704.355153 334.69226 
L 705.7075 334.791144 
L 705.7075 334.791144 
" clip-path="url(#pfc0b52f407)" style="fill: none; stroke: #2ca02c; stroke-width: 2; stroke-linecap: square"/>
    <defs>
     <path id="m7a4df2b5a4" d="M 0 1.5 
C 0.397805 1.5 0.77937 1.341951 1.06066 1.06066 
C 1.341951 0.77937 1.5 0.397805 1.5 0 
C 1.5 -0.397805 1.341951 -0.77937 1.06066 -1.06066 
C 0.77937 -1.341951 0.397805 -1.5 0 -1.5 
C -0.397805 -1.5 -0.77937 -1.341951 -1.06066 -1.06066 
C -1.341951 -0.77937 -1.5 -0.397805 -1.5 0 
C -1.5 0.397805 -1.341951 0.77937 -1.06066 1.06066 
C -0.77937 1.341951 -0.397805 1.5 0 1.5 
z
" style="stroke: #2ca02c"/>
    </defs>
    <g clip-path="url(#pfc0b52f407)">
     <use xlink:href="#m7a4df2b5a4" x="44.409847" y="370.195943" style="fill: #2ca02c; stroke: #2ca02c"/>
     <use xlink:href="#m7a4df2b5a4" x="60.63801" y="256.326454" style="fill: #2ca02c; stroke: #2ca02c"/>
     <use xlink:href="#m7a4df2b5a4" x="76.866173" y="237.816835" style="fill: #2ca02c; stroke: #2ca02c"/>
     <use xlink:href="#m7a4df2b5a4" x="93.094337" y="261.08189" style="fill: #2ca02c; stroke: #2ca02c"/>
     <use xlink:href="#m7a4df2b5a4" x="109.3225" y="270.285528" style="fill: #2ca02c; stroke: #2ca02c"/>
     <use xlink:href="#m7a4df2b5a4" x="125.550663" y="284.164587" style="fill: #2ca02c; stroke: #2ca02c"/>
     <use xlink:href="#m7a4df2b5a4" x="141.778827" y="295.095881" style="fill: #2ca02c; stroke: #2ca02c"/>
     <use xlink:href="#m7a4df2b5a4" x="158.00699" y="303.928366" style="fill: #2ca02c; stroke: #2ca02c"/>
     <use xlink:href="#m7a4df2b5a4" x="174.235153" y="301.095237" style="fill: #2ca02c; stroke: #2ca02c"/>
     <use xlink:href="#m7a4df2b5a4" x="190.463316" y="303.370161" style="fill: #2ca02c; stroke: #2ca02c"/>
     <use xlink:href="#m7a4df2b5a4" x="206.69148" y="309.610964" style="fill: #2ca02c; stroke: #2ca02c"/>
     <use xlink:href="#m7a4df2b5a4" x="222.919643" y="314.985991" style="fill: #2ca02c; stroke: #2ca02c"/>
     <use xlink:href="#m7a4df2b5a4" x="239.147806" y="319.663717" style="fill: #2ca02c; stroke: #2ca02c"/>
     <use xlink:href="#m7a4df2b5a4" x="255.375969" y="323.771568" style="fill: #2ca02c; stroke: #2ca02c"/>
     <use xlink:href="#m7a4df2b5a4" x="271.604133" y="324.091414" style="fill: #2ca02c; stroke: #2ca02c"/>
     <use xlink:href="#m7a4df2b5a4" x="287.832296" y="327.512745" style="fill: #2ca02c; stroke: #2ca02c"/>
     <use xlink:href="#m7a4df2b5a4" x="304.060459" y="330.581665" style="fill: #2ca02c; stroke: #2ca02c"/>
     <use xlink:href="#m7a4df2b5a4" x="320.288622" y="333.349956" style="fill: #2ca02c; stroke: #2ca02c"/>
     <use xlink:href="#m7a4df2b5a4" x="336.516786" y="335.859729" style="fill: #2ca02c; stroke: #2ca02c"/>
     <use xlink:href="#m7a4df2b5a4" x="352.744949" y="338.145583" style="fill: #2ca02c; stroke: #2ca02c"/>
     <use xlink:href="#m7a4df2b5a4" x="368.973112" y="340.236203" style="fill: #2ca02c; stroke: #2ca02c"/>
     <use xlink:href="#m7a4df2b5a4" x="385.201276" y="342.155578" style="fill: #2ca02c; stroke: #2ca02c"/>
     <use xlink:href="#m7a4df2b5a4" x="401.429439" y="339.37897" style="fill: #2ca02c; stroke: #2ca02c"/>
     <use xlink:href="#m7a4df2b5a4" x="417.657602" y="341.18548" style="fill: #2ca02c; stroke: #2ca02c"/>
     <use xlink:href="#m7a4df2b5a4" x="433.885765" y="342.860208" style="fill: #2ca02c; stroke: #2ca02c"/>
     <use xlink:href="#m7a4df2b5a4" x="450.113929" y="344.417067" style="fill: #2ca02c; stroke: #2ca02c"/>
     <use xlink:href="#m7a4df2b5a4" x="466.342092" y="345.868076" style="fill: #2ca02c; stroke: #2ca02c"/>
     <use xlink:href="#m7a4df2b5a4" x="482.570255" y="345.32476" style="fill: #2ca02c; stroke: #2ca02c"/>
     <use xlink:href="#m7a4df2b5a4" x="498.798418" y="346.654506" style="fill: #2ca02c; stroke: #2ca02c"/>
     <use xlink:href="#m7a4df2b5a4" x="515.026582" y="346.12045" style="fill: #2ca02c; stroke: #2ca02c"/>
     <use xlink:href="#m7a4df2b5a4" x="531.254745" y="347.346799" style="fill: #2ca02c; stroke: #2ca02c"/>
     <use xlink:href="#m7a4df2b5a4" x="547.482908" y="348.501883" style="fill: #2ca02c; stroke: #2ca02c"/>
     <use xlink:href="#m7a4df2b5a4" x="563.711071" y="349.591739" style="fill: #2ca02c; stroke: #2ca02c"/>
     <use xlink:href="#m7a4df2b5a4" x="579.939235" y="347.449635" style="fill: #2ca02c; stroke: #2ca02c"/>
     <use xlink:href="#m7a4df2b5a4" x="596.167398" y="346.965695" style="fill: #2ca02c; stroke: #2ca02c"/>
     <use xlink:href="#m7a4df2b5a4" x="612.395561" y="346.506949" style="fill: #2ca02c; stroke: #2ca02c"/>
     <use xlink:href="#m7a4df2b5a4" x="628.623724" y="347.536818" style="fill: #2ca02c; stroke: #2ca02c"/>
     <use xlink:href="#m7a4df2b5a4" x="644.851888" y="347.086642" style="fill: #2ca02c; stroke: #2ca02c"/>
     <use xlink:href="#m7a4df2b5a4" x="661.080051" y="345.263628" style="fill: #2ca02c; stroke: #2ca02c"/>
     <use xlink:href="#m7a4df2b5a4" x="677.308214" y="343.526571" style="fill: #2ca02c; stroke: #2ca02c"/>
     <use xlink:href="#m7a4df2b5a4" x="693.536378" y="340.539197" style="fill: #2ca02c; stroke: #2ca02c"/>
    </g>
   </g>
   <g id="line2d_26">
    <path d="M 44.409847 370.195943 
L 45.762194 370.598443 
L 48.466888 339.843795 
L 52.523929 342.860208 
L 56.580969 345.514652 
L 60.63801 347.868592 
L 64.695051 349.970325 
L 68.752092 351.858322 
L 74.16148 354.095949 
L 79.570867 356.066396 
L 84.980255 357.814821 
L 91.74199 359.741539 
L 98.503724 361.430391 
L 106.617806 363.200773 
L 114.731888 364.742719 
L 124.198316 366.307795 
L 135.017092 367.848027 
L 147.188214 369.329021 
L 160.711684 370.728384 
L 175.5875 372.033443 
L 191.815663 373.238842 
L 210.74852 374.422192 
L 221.567296 375.011901 
L 222.919643 371.075394 
L 243.204847 372.354028 
L 266.194745 373.576942 
L 274.308827 373.961511 
L 275.661173 370.754127 
L 300.003418 372.033443 
L 328.402704 373.29407 
L 341.926173 373.823068 
L 343.27852 371.228309 
L 344.630867 371.288662 
L 348.687908 363.650025 
L 356.80199 364.167324 
L 358.154337 361.712485 
L 359.506684 361.805143 
L 362.211378 356.965948 
L 364.916071 357.182746 
L 366.268418 354.805734 
L 387.905969 356.557338 
L 389.258316 354.318956 
L 413.600561 356.198177 
L 421.714643 343.78189 
L 428.476378 333.785187 
L 433.885765 334.433402 
L 435.238112 332.492684 
L 455.523316 334.866955 
L 477.160867 337.182035 
L 478.513214 335.405278 
L 479.865561 335.547691 
L 483.922602 330.289072 
L 494.741378 331.504299 
L 496.093724 329.804277 
L 519.083622 332.289081 
L 543.425867 334.695456 
L 546.130561 331.585265 
L 571.825153 334.032591 
L 585.348622 335.235955 
L 586.700969 333.785187 
L 590.75801 334.144619 
L 592.110357 332.709308 
L 620.509643 335.155184 
L 650.261276 337.492212 
L 655.670663 337.894717 
L 657.02301 336.591279 
L 659.727704 336.794947 
L 662.432398 334.213426 
L 663.784745 334.319413 
L 666.489439 331.763232 
L 697.593418 334.192177 
L 705.7075 334.791144 
L 705.7075 334.791144 
" clip-path="url(#pfc0b52f407)" style="fill: none; stroke: #9467bd; stroke-width: 2; stroke-linecap: square"/>
    <defs>
     <path id="m54e95c32bf" d="M 0 1.5 
C 0.397805 1.5 0.77937 1.341951 1.06066 1.06066 
C 1.341951 0.77937 1.5 0.397805 1.5 0 
C 1.5 -0.397805 1.341951 -0.77937 1.06066 -1.06066 
C 0.77937 -1.341951 0.397805 -1.5 0 -1.5 
C -0.397805 -1.5 -0.77937 -1.341951 -1.06066 -1.06066 
C -1.341951 -0.77937 -1.5 -0.397805 -1.5 0 
C -1.5 0.397805 -1.341951 0.77937 -1.06066 1.06066 
C -0.77937 1.341951 -0.397805 1.5 0 1.5 
z
" style="stroke: #9467bd"/>
    </defs>
    <g clip-path="url(#pfc0b52f407)">
     <use xlink:href="#m54e95c32bf" x="44.409847" y="370.195943" style="fill: #9467bd; stroke: #9467bd"/>
     <use xlink:href="#m54e95c32bf" x="60.63801" y="347.868592" style="fill: #9467bd; stroke: #9467bd"/>
     <use xlink:href="#m54e95c32bf" x="76.866173" y="355.111487" style="fill: #9467bd; stroke: #9467bd"/>
     <use xlink:href="#m54e95c32bf" x="93.094337" y="360.096856" style="fill: #9467bd; stroke: #9467bd"/>
     <use xlink:href="#m54e95c32bf" x="109.3225" y="363.737856" style="fill: #9467bd; stroke: #9467bd"/>
     <use xlink:href="#m54e95c32bf" x="125.550663" y="366.513667" style="fill: #9467bd; stroke: #9467bd"/>
     <use xlink:href="#m54e95c32bf" x="141.778827" y="368.699926" style="fill: #9467bd; stroke: #9467bd"/>
     <use xlink:href="#m54e95c32bf" x="158.00699" y="370.466423" style="fill: #9467bd; stroke: #9467bd"/>
     <use xlink:href="#m54e95c32bf" x="174.235153" y="371.923461" style="fill: #9467bd; stroke: #9467bd"/>
     <use xlink:href="#m54e95c32bf" x="190.463316" y="373.145808" style="fill: #9467bd; stroke: #9467bd"/>
     <use xlink:href="#m54e95c32bf" x="206.69148" y="374.185942" style="fill: #9467bd; stroke: #9467bd"/>
     <use xlink:href="#m54e95c32bf" x="222.919643" y="371.075394" style="fill: #9467bd; stroke: #9467bd"/>
     <use xlink:href="#m54e95c32bf" x="239.147806" y="372.114889" style="fill: #9467bd; stroke: #9467bd"/>
     <use xlink:href="#m54e95c32bf" x="255.375969" y="373.027744" style="fill: #9467bd; stroke: #9467bd"/>
     <use xlink:href="#m54e95c32bf" x="271.604133" y="373.835775" style="fill: #9467bd; stroke: #9467bd"/>
     <use xlink:href="#m54e95c32bf" x="287.832296" y="371.419834" style="fill: #9467bd; stroke: #9467bd"/>
     <use xlink:href="#m54e95c32bf" x="304.060459" y="372.227445" style="fill: #9467bd; stroke: #9467bd"/>
     <use xlink:href="#m54e95c32bf" x="320.288622" y="372.955942" style="fill: #9467bd; stroke: #9467bd"/>
     <use xlink:href="#m54e95c32bf" x="336.516786" y="373.616409" style="fill: #9467bd; stroke: #9467bd"/>
     <use xlink:href="#m54e95c32bf" x="352.744949" y="363.911559" style="fill: #9467bd; stroke: #9467bd"/>
     <use xlink:href="#m54e95c32bf" x="368.973112" y="355.035593" style="fill: #9467bd; stroke: #9467bd"/>
     <use xlink:href="#m54e95c32bf" x="385.201276" y="356.348849" style="fill: #9467bd; stroke: #9467bd"/>
     <use xlink:href="#m54e95c32bf" x="401.429439" y="355.286293" style="fill: #9467bd; stroke: #9467bd"/>
     <use xlink:href="#m54e95c32bf" x="417.657602" y="349.931281" style="fill: #9467bd; stroke: #9467bd"/>
     <use xlink:href="#m54e95c32bf" x="433.885765" y="334.433402" style="fill: #9467bd; stroke: #9467bd"/>
     <use xlink:href="#m54e95c32bf" x="450.113929" y="334.25424" style="fill: #9467bd; stroke: #9467bd"/>
     <use xlink:href="#m54e95c32bf" x="466.342092" y="336.050728" style="fill: #9467bd; stroke: #9467bd"/>
     <use xlink:href="#m54e95c32bf" x="482.570255" y="332.03234" style="fill: #9467bd; stroke: #9467bd"/>
     <use xlink:href="#m54e95c32bf" x="498.798418" y="330.108238" style="fill: #9467bd; stroke: #9467bd"/>
     <use xlink:href="#m54e95c32bf" x="515.026582" y="331.866368" style="fill: #9467bd; stroke: #9467bd"/>
     <use xlink:href="#m54e95c32bf" x="531.254745" y="333.519273" style="fill: #9467bd; stroke: #9467bd"/>
     <use xlink:href="#m54e95c32bf" x="547.482908" y="331.719685" style="fill: #9467bd; stroke: #9467bd"/>
     <use xlink:href="#m54e95c32bf" x="563.711071" y="333.283391" style="fill: #9467bd; stroke: #9467bd"/>
     <use xlink:href="#m54e95c32bf" x="579.939235" y="334.761219" style="fill: #9467bd; stroke: #9467bd"/>
     <use xlink:href="#m54e95c32bf" x="596.167398" y="333.072727" style="fill: #9467bd; stroke: #9467bd"/>
     <use xlink:href="#m54e95c32bf" x="612.395561" y="334.479101" style="fill: #9467bd; stroke: #9467bd"/>
     <use xlink:href="#m54e95c32bf" x="628.623724" y="335.814116" style="fill: #9467bd; stroke: #9467bd"/>
     <use xlink:href="#m54e95c32bf" x="644.851888" y="337.083068" style="fill: #9467bd; stroke: #9467bd"/>
     <use xlink:href="#m54e95c32bf" x="661.080051" y="335.501589" style="fill: #9467bd; stroke: #9467bd"/>
     <use xlink:href="#m54e95c32bf" x="677.308214" y="332.63298" style="fill: #9467bd; stroke: #9467bd"/>
     <use xlink:href="#m54e95c32bf" x="693.536378" y="333.88752" style="fill: #9467bd; stroke: #9467bd"/>
    </g>
   </g>
   <g id="line2d_27">
    <path d="M 44.409847 387.100937 
L 47.114541 354.863507 
L 49.819235 325.491625 
L 52.523929 298.619479 
L 55.228622 273.940976 
L 57.933316 251.198043 
L 60.63801 230.171557 
L 63.342704 210.674271 
L 66.047398 216.86468 
L 68.752092 222.635401 
L 71.456786 228.027713 
L 74.16148 233.077657 
L 78.21852 240.078715 
L 82.275561 246.470986 
L 86.332602 252.330567 
L 90.389643 257.721382 
L 94.446684 262.697519 
L 98.503724 267.305053 
L 102.560765 271.583477 
L 106.617806 275.566838 
L 110.674847 279.284641 
L 114.731888 282.762586 
L 120.141276 287.065199 
L 125.550663 291.02701 
L 126.90301 291.968911 
L 128.255357 286.163351 
L 133.664745 289.936719 
L 139.074133 293.438132 
L 144.48352 296.695969 
L 149.892908 299.734791 
L 156.654643 303.25762 
L 163.416378 306.507361 
L 170.178112 309.514584 
L 176.939847 312.30546 
L 185.053929 315.400445 
L 193.16801 318.249471 
L 201.282092 320.880737 
L 210.74852 323.707209 
L 220.214949 326.302274 
L 231.033724 329.019533 
L 241.8525 331.504299 
L 254.023622 334.057206 
L 266.194745 336.385955 
L 279.718214 338.744791 
L 294.594031 341.098409 
L 304.060459 342.480459 
L 305.412806 339.709159 
L 308.1175 340.110784 
L 309.469847 337.384562 
L 325.69801 339.780532 
L 335.164439 341.074449 
L 336.516786 338.556635 
L 354.097296 340.893953 
L 373.030153 343.171762 
L 393.315357 345.375567 
L 414.952908 347.494951 
L 437.942806 349.522968 
L 463.637398 351.557104 
L 490.684337 353.473213 
L 520.435969 355.355681 
L 552.892296 357.182746 
L 588.053316 358.938667 
L 627.271378 360.668976 
L 648.908929 361.535598 
L 659.727704 350.768833 
L 669.194133 341.628856 
L 688.12699 342.860208 
L 697.593418 334.192177 
L 705.7075 334.791144 
L 705.7075 334.791144 
" clip-path="url(#pfc0b52f407)" style="fill: none; stroke: #8c564b; stroke-width: 2; stroke-linecap: square"/>
    <defs>
     <path id="mba91d597fd" d="M 0 1.5 
C 0.397805 1.5 0.77937 1.341951 1.06066 1.06066 
C 1.341951 0.77937 1.5 0.397805 1.5 0 
C 1.5 -0.397805 1.341951 -0.77937 1.06066 -1.06066 
C 0.77937 -1.341951 0.397805 -1.5 0 -1.5 
C -0.397805 -1.5 -0.77937 -1.341951 -1.06066 -1.06066 
C -1.341951 -0.77937 -1.5 -0.397805 -1.5 0 
C -1.5 0.397805 -1.341951 0.77937 -1.06066 1.06066 
C -0.77937 1.341951 -0.397805 1.5 0 1.5 
z
" style="stroke: #8c564b"/>
    </defs>
    <g clip-path="url(#pfc0b52f407)">
     <use xlink:href="#mba91d597fd" x="44.409847" y="387.100937" style="fill: #8c564b; stroke: #8c564b"/>
     <use xlink:href="#mba91d597fd" x="60.63801" y="230.171557" style="fill: #8c564b; stroke: #8c564b"/>
     <use xlink:href="#mba91d597fd" x="76.866173" y="237.816835" style="fill: #8c564b; stroke: #8c564b"/>
     <use xlink:href="#mba91d597fd" x="93.094337" y="261.08189" style="fill: #8c564b; stroke: #8c564b"/>
     <use xlink:href="#mba91d597fd" x="109.3225" y="278.073222" style="fill: #8c564b; stroke: #8c564b"/>
     <use xlink:href="#mba91d597fd" x="125.550663" y="291.02701" style="fill: #8c564b; stroke: #8c564b"/>
     <use xlink:href="#mba91d597fd" x="141.778827" y="295.095881" style="fill: #8c564b; stroke: #8c564b"/>
     <use xlink:href="#mba91d597fd" x="158.00699" y="303.928366" style="fill: #8c564b; stroke: #8c564b"/>
     <use xlink:href="#mba91d597fd" x="174.235153" y="311.213555" style="fill: #8c564b; stroke: #8c564b"/>
     <use xlink:href="#mba91d597fd" x="190.463316" y="317.32529" style="fill: #8c564b; stroke: #8c564b"/>
     <use xlink:href="#mba91d597fd" x="206.69148" y="322.52596" style="fill: #8c564b; stroke: #8c564b"/>
     <use xlink:href="#mba91d597fd" x="222.919643" y="327.005149" style="fill: #8c564b; stroke: #8c564b"/>
     <use xlink:href="#mba91d597fd" x="239.147806" y="330.903254" style="fill: #8c564b; stroke: #8c564b"/>
     <use xlink:href="#mba91d597fd" x="255.375969" y="334.326463" style="fill: #8c564b; stroke: #8c564b"/>
     <use xlink:href="#mba91d597fd" x="271.604133" y="337.356577" style="fill: #8c564b; stroke: #8c564b"/>
     <use xlink:href="#mba91d597fd" x="287.832296" y="340.057628" style="fill: #8c564b; stroke: #8c564b"/>
     <use xlink:href="#mba91d597fd" x="304.060459" y="342.480459" style="fill: #8c564b; stroke: #8c564b"/>
     <use xlink:href="#mba91d597fd" x="320.288622" y="339.007954" style="fill: #8c564b; stroke: #8c564b"/>
     <use xlink:href="#mba91d597fd" x="336.516786" y="338.556635" style="fill: #8c564b; stroke: #8c564b"/>
     <use xlink:href="#mba91d597fd" x="352.744949" y="340.72218" style="fill: #8c564b; stroke: #8c564b"/>
     <use xlink:href="#mba91d597fd" x="368.973112" y="342.702768" style="fill: #8c564b; stroke: #8c564b"/>
     <use xlink:href="#mba91d597fd" x="385.201276" y="344.521123" style="fill: #8c564b; stroke: #8c564b"/>
     <use xlink:href="#mba91d597fd" x="401.429439" y="346.196394" style="fill: #8c564b; stroke: #8c564b"/>
     <use xlink:href="#mba91d597fd" x="417.657602" y="347.744831" style="fill: #8c564b; stroke: #8c564b"/>
     <use xlink:href="#mba91d597fd" x="433.885765" y="349.180312" style="fill: #8c564b; stroke: #8c564b"/>
     <use xlink:href="#mba91d597fd" x="450.113929" y="350.514762" style="fill: #8c564b; stroke: #8c564b"/>
     <use xlink:href="#mba91d597fd" x="466.342092" y="351.758485" style="fill: #8c564b; stroke: #8c564b"/>
     <use xlink:href="#mba91d597fd" x="482.570255" y="352.920429" style="fill: #8c564b; stroke: #8c564b"/>
     <use xlink:href="#mba91d597fd" x="498.798418" y="354.008402" style="fill: #8c564b; stroke: #8c564b"/>
     <use xlink:href="#mba91d597fd" x="515.026582" y="355.029252" style="fill: #8c564b; stroke: #8c564b"/>
     <use xlink:href="#mba91d597fd" x="531.254745" y="355.989003" style="fill: #8c564b; stroke: #8c564b"/>
     <use xlink:href="#mba91d597fd" x="547.482908" y="356.892982" style="fill: #8c564b; stroke: #8c564b"/>
     <use xlink:href="#mba91d597fd" x="563.711071" y="357.745912" style="fill: #8c564b; stroke: #8c564b"/>
     <use xlink:href="#mba91d597fd" x="579.939235" y="358.552" style="fill: #8c564b; stroke: #8c564b"/>
     <use xlink:href="#mba91d597fd" x="596.167398" y="359.315" style="fill: #8c564b; stroke: #8c564b"/>
     <use xlink:href="#mba91d597fd" x="612.395561" y="360.038279" style="fill: #8c564b; stroke: #8c564b"/>
     <use xlink:href="#mba91d597fd" x="628.623724" y="360.724858" style="fill: #8c564b; stroke: #8c564b"/>
     <use xlink:href="#mba91d597fd" x="644.851888" y="361.377462" style="fill: #8c564b; stroke: #8c564b"/>
     <use xlink:href="#mba91d597fd" x="661.080051" y="349.447359" style="fill: #8c564b; stroke: #8c564b"/>
     <use xlink:href="#mba91d597fd" x="677.308214" y="342.164872" style="fill: #8c564b; stroke: #8c564b"/>
     <use xlink:href="#mba91d597fd" x="693.536378" y="337.878526" style="fill: #8c564b; stroke: #8c564b"/>
    </g>
   </g>
   <g id="line2d_28">
    <path d="M 44.409847 387.100937 
L 45.762194 370.598443 
L 47.114541 370.982222 
L 49.819235 340.893953 
L 52.523929 313.366388 
L 55.228622 288.085972 
L 57.933316 264.788332 
L 60.63801 243.249006 
L 61.990357 245.91293 
L 63.342704 235.87808 
L 66.047398 241.184146 
L 67.399745 231.74987 
L 70.104439 236.928239 
L 71.456786 239.390087 
L 72.809133 230.593411 
L 74.16148 233.077657 
L 76.866173 216.490535 
L 80.923214 224.017464 
L 83.627908 208.873999 
L 87.684949 216.198393 
L 89.037296 209.141607 
L 93.094337 216.075087 
L 97.151378 222.488557 
L 98.503724 215.963959 
L 101.208418 220.087742 
L 102.560765 213.824747 
L 103.913112 215.86329 
L 105.265459 209.795068 
L 109.3225 215.771671 
L 113.379541 221.358494 
L 114.731888 215.687932 
L 117.436582 219.296627 
L 118.788929 213.824747 
L 121.493622 217.360996 
L 122.845969 212.074482 
L 126.90301 217.222319 
L 128.255357 212.142454 
L 132.312398 217.094109 
L 136.369439 221.773196 
L 139.074133 224.752074 
L 140.42648 220.013182 
L 143.131173 222.944547 
L 144.48352 218.344995 
L 145.835867 219.799788 
L 147.188214 215.30574 
L 152.597602 220.98492 
L 158.00699 226.300633 
L 163.416378 231.286689 
L 166.121071 233.665532 
L 167.473418 229.577128 
L 172.882806 234.210181 
L 174.235153 230.267013 
L 176.939847 232.523616 
L 178.292194 228.676992 
L 183.701582 233.077657 
L 189.110969 237.240448 
L 193.16801 240.217809 
L 194.520357 236.624246 
L 201.282092 241.416497 
L 202.634439 242.338551 
L 203.986786 238.889856 
L 210.74852 243.408487 
L 213.453214 245.139721 
L 214.805561 241.83946 
L 221.567296 246.062178 
L 228.329031 250.046324 
L 233.738418 253.075155 
L 235.090765 250.003292 
L 243.204847 254.378749 
L 251.318929 258.483559 
L 259.43301 262.34208 
L 267.547092 265.975833 
L 277.01352 269.956471 
L 286.479949 273.683795 
L 295.946378 277.18124 
L 306.765153 280.923187 
L 317.583929 284.418751 
L 328.402704 287.69149 
L 340.573827 291.132586 
L 352.744949 294.343423 
L 366.268418 297.668065 
L 367.620765 295.512094 
L 381.144235 298.67033 
L 396.020051 301.902013 
L 410.895867 304.905822 
L 427.124031 307.950085 
L 439.295153 310.089297 
L 440.6475 308.244707 
L 458.22801 311.198975 
L 464.989745 312.277128 
L 466.342092 310.525624 
L 485.274949 313.446753 
L 505.560153 316.338933 
L 527.197704 319.183637 
L 550.187602 321.965791 
L 574.529847 324.673488 
L 600.224439 327.297651 
L 627.271378 329.831688 
L 655.670663 332.271149 
L 686.774643 334.715112 
L 703.002806 335.905699 
L 704.355153 334.69226 
L 705.7075 334.791144 
L 705.7075 334.791144 
" clip-path="url(#pfc0b52f407)" style="fill: none; stroke: #e377c2; stroke-width: 2; stroke-linecap: square"/>
    <defs>
     <path id="ma30b522083" d="M 0 1.5 
C 0.397805 1.5 0.77937 1.341951 1.06066 1.06066 
C 1.341951 0.77937 1.5 0.397805 1.5 0 
C 1.5 -0.397805 1.341951 -0.77937 1.06066 -1.06066 
C 0.77937 -1.341951 0.397805 -1.5 0 -1.5 
C -0.397805 -1.5 -0.77937 -1.341951 -1.06066 -1.06066 
C -1.341951 -0.77937 -1.5 -0.397805 -1.5 0 
C -1.5 0.397805 -1.341951 0.77937 -1.06066 1.06066 
C -0.77937 1.341951 -0.397805 1.5 0 1.5 
z
" style="stroke: #e377c2"/>
    </defs>
    <g clip-path="url(#pfc0b52f407)">
     <use xlink:href="#ma30b522083" x="44.409847" y="387.100937" style="fill: #e377c2; stroke: #e377c2"/>
     <use xlink:href="#ma30b522083" x="60.63801" y="243.249006" style="fill: #e377c2; stroke: #e377c2"/>
     <use xlink:href="#ma30b522083" x="76.866173" y="216.490535" style="fill: #e377c2; stroke: #e377c2"/>
     <use xlink:href="#ma30b522083" x="93.094337" y="216.075087" style="fill: #e377c2; stroke: #e377c2"/>
     <use xlink:href="#ma30b522083" x="109.3225" y="215.771671" style="fill: #e377c2; stroke: #e377c2"/>
     <use xlink:href="#ma30b522083" x="125.550663" y="215.540353" style="fill: #e377c2; stroke: #e377c2"/>
     <use xlink:href="#ma30b522083" x="141.778827" y="221.491835" style="fill: #e377c2; stroke: #e377c2"/>
     <use xlink:href="#ma30b522083" x="158.00699" y="226.300633" style="fill: #e377c2; stroke: #e377c2"/>
     <use xlink:href="#ma30b522083" x="174.235153" y="230.267013" style="fill: #e377c2; stroke: #e377c2"/>
     <use xlink:href="#ma30b522083" x="190.463316" y="238.246224" style="fill: #e377c2; stroke: #e377c2"/>
     <use xlink:href="#ma30b522083" x="206.69148" y="240.730988" style="fill: #e377c2; stroke: #e377c2"/>
     <use xlink:href="#ma30b522083" x="222.919643" y="246.877431" style="fill: #e377c2; stroke: #e377c2"/>
     <use xlink:href="#ma30b522083" x="239.147806" y="252.226497" style="fill: #e377c2; stroke: #e377c2"/>
     <use xlink:href="#ma30b522083" x="255.375969" y="260.442199" style="fill: #e377c2; stroke: #e377c2"/>
     <use xlink:href="#ma30b522083" x="271.604133" y="267.714471" style="fill: #e377c2; stroke: #e377c2"/>
     <use xlink:href="#ma30b522083" x="287.832296" y="274.196994" style="fill: #e377c2; stroke: #e377c2"/>
     <use xlink:href="#ma30b522083" x="304.060459" y="280.01179" style="fill: #e377c2; stroke: #e377c2"/>
     <use xlink:href="#ma30b522083" x="320.288622" y="285.256972" style="fill: #e377c2; stroke: #e377c2"/>
     <use xlink:href="#ma30b522083" x="336.516786" y="290.012333" style="fill: #e377c2; stroke: #e377c2"/>
     <use xlink:href="#ma30b522083" x="352.744949" y="294.343423" style="fill: #e377c2; stroke: #e377c2"/>
     <use xlink:href="#ma30b522083" x="368.973112" y="295.838033" style="fill: #e377c2; stroke: #e377c2"/>
     <use xlink:href="#ma30b522083" x="385.201276" y="299.575763" style="fill: #e377c2; stroke: #e377c2"/>
     <use xlink:href="#ma30b522083" x="401.429439" y="303.019376" style="fill: #e377c2; stroke: #e377c2"/>
     <use xlink:href="#ma30b522083" x="417.657602" y="306.202274" style="fill: #e377c2; stroke: #e377c2"/>
     <use xlink:href="#ma30b522083" x="433.885765" y="309.152986" style="fill: #e377c2; stroke: #e377c2"/>
     <use xlink:href="#ma30b522083" x="450.113929" y="309.863457" style="fill: #e377c2; stroke: #e377c2"/>
     <use xlink:href="#ma30b522083" x="466.342092" y="310.525624" style="fill: #e377c2; stroke: #e377c2"/>
     <use xlink:href="#ma30b522083" x="482.570255" y="313.043168" style="fill: #e377c2; stroke: #e377c2"/>
     <use xlink:href="#ma30b522083" x="498.798418" y="315.400445" style="fill: #e377c2; stroke: #e377c2"/>
     <use xlink:href="#ma30b522083" x="515.026582" y="317.612285" style="fill: #e377c2; stroke: #e377c2"/>
     <use xlink:href="#ma30b522083" x="531.254745" y="319.691746" style="fill: #e377c2; stroke: #e377c2"/>
     <use xlink:href="#ma30b522083" x="547.482908" y="321.650367" style="fill: #e377c2; stroke: #e377c2"/>
     <use xlink:href="#ma30b522083" x="563.711071" y="323.498383" style="fill: #e377c2; stroke: #e377c2"/>
     <use xlink:href="#ma30b522083" x="579.939235" y="325.244906" style="fill: #e377c2; stroke: #e377c2"/>
     <use xlink:href="#ma30b522083" x="596.167398" y="326.898074" style="fill: #e377c2; stroke: #e377c2"/>
     <use xlink:href="#ma30b522083" x="612.395561" y="328.465177" style="fill: #e377c2; stroke: #e377c2"/>
     <use xlink:href="#ma30b522083" x="628.623724" y="329.952765" style="fill: #e377c2; stroke: #e377c2"/>
     <use xlink:href="#ma30b522083" x="644.851888" y="331.36674" style="fill: #e377c2; stroke: #e377c2"/>
     <use xlink:href="#ma30b522083" x="661.080051" y="332.712435" style="fill: #e377c2; stroke: #e377c2"/>
     <use xlink:href="#ma30b522083" x="677.308214" y="333.994679" style="fill: #e377c2; stroke: #e377c2"/>
     <use xlink:href="#ma30b522083" x="693.536378" y="335.217856" style="fill: #e377c2; stroke: #e377c2"/>
    </g>
   </g>
   <g id="line2d_29">
    <path d="M 44.409847 387.100937 
L 45.762194 387.100937 
L 48.466888 355.596176 
L 51.171582 326.830958 
L 53.876276 300.462842 
L 56.580969 276.204176 
L 59.285663 253.81156 
L 61.990357 233.077657 
L 64.695051 213.824747 
L 67.399745 195.899624 
L 70.104439 179.169509 
L 72.809133 185.876974 
L 74.16148 189.071006 
L 76.866173 173.837934 
L 78.21852 177.069191 
L 79.570867 169.859146 
L 83.627908 179.169509 
L 84.980255 182.098121 
L 89.037296 162.310204 
L 93.094337 171.068284 
L 97.151378 179.169509 
L 101.208418 186.685103 
L 105.265459 193.676353 
L 109.3225 200.196283 
L 113.379541 206.291 
L 114.731888 208.235192 
L 116.084235 202.764565 
L 120.141276 208.46569 
L 122.845969 198.072366 
L 124.198316 199.962652 
L 125.550663 194.953083 
L 129.607704 200.495809 
L 133.664745 205.727729 
L 137.721786 210.674271 
L 139.074133 206.019513 
L 144.48352 212.317998 
L 149.892908 218.193054 
L 153.949949 222.346527 
L 155.302296 218.050996 
L 158.00699 220.755795 
L 159.359337 216.575163 
L 164.768724 221.82211 
L 170.178112 226.755806 
L 175.5875 231.403491 
L 179.644541 234.716203 
L 180.996888 230.908315 
L 186.406276 235.187565 
L 193.16801 240.217809 
L 199.929745 244.925602 
L 206.69148 249.340985 
L 213.453214 253.490381 
L 220.214949 257.397122 
L 226.976684 261.08189 
L 235.090765 265.236364 
L 243.204847 269.125659 
L 251.318929 272.774379 
L 252.671276 269.806285 
L 258.080663 272.163967 
L 259.43301 269.273128 
L 268.899439 273.257643 
L 278.365867 276.981489 
L 287.832296 280.469436 
L 298.651071 284.194554 
L 309.469847 287.668187 
L 320.288622 290.914971 
L 332.459745 294.323135 
L 344.630867 297.498041 
L 356.80199 300.462842 
L 358.154337 298.241353 
L 366.268418 300.152311 
L 367.620765 297.987468 
L 381.144235 301.060346 
L 396.020051 304.204687 
L 410.895867 307.127311 
L 427.124031 310.089297 
L 444.704541 313.060073 
L 447.409235 313.496892 
L 448.761582 311.674831 
L 459.580357 313.408765 
L 460.932704 311.633943 
L 479.865561 314.544516 
L 500.150765 317.423739 
L 521.788316 320.25327 
L 543.425867 322.86196 
L 558.301684 324.540413 
L 559.654031 323.046232 
L 583.996276 325.666652 
L 609.690867 328.209683 
L 635.385459 330.550549 
L 636.737806 329.221625 
L 666.489439 331.763232 
L 697.593418 334.192177 
L 705.7075 334.791144 
L 705.7075 334.791144 
" clip-path="url(#pfc0b52f407)" style="fill: none; stroke: #17becf; stroke-width: 2; stroke-linecap: square"/>
    <defs>
     <path id="mb82949465d" d="M 0 1.5 
C 0.397805 1.5 0.77937 1.341951 1.06066 1.06066 
C 1.341951 0.77937 1.5 0.397805 1.5 0 
C 1.5 -0.397805 1.341951 -0.77937 1.06066 -1.06066 
C 0.77937 -1.341951 0.397805 -1.5 0 -1.5 
C -0.397805 -1.5 -0.77937 -1.341951 -1.06066 -1.06066 
C -1.341951 -0.77937 -1.5 -0.397805 -1.5 0 
C -1.5 0.397805 -1.341951 0.77937 -1.06066 1.06066 
C -0.77937 1.341951 -0.397805 1.5 0 1.5 
z
" style="stroke: #17becf"/>
    </defs>
    <g clip-path="url(#pfc0b52f407)">
     <use xlink:href="#mb82949465d" x="44.409847" y="387.100937" style="fill: #17becf; stroke: #17becf"/>
     <use xlink:href="#mb82949465d" x="60.63801" y="243.249006" style="fill: #17becf; stroke: #17becf"/>
     <use xlink:href="#mb82949465d" x="76.866173" y="173.837934" style="fill: #17becf; stroke: #17becf"/>
     <use xlink:href="#mb82949465d" x="93.094337" y="171.068284" style="fill: #17becf; stroke: #17becf"/>
     <use xlink:href="#mb82949465d" x="109.3225" y="200.196283" style="fill: #17becf; stroke: #17becf"/>
     <use xlink:href="#mb82949465d" x="125.550663" y="194.953083" style="fill: #17becf; stroke: #17becf"/>
     <use xlink:href="#mb82949465d" x="141.778827" y="209.224494" style="fill: #17becf; stroke: #17becf"/>
     <use xlink:href="#mb82949465d" x="158.00699" y="220.755795" style="fill: #17becf; stroke: #17becf"/>
     <use xlink:href="#mb82949465d" x="174.235153" y="230.267013" style="fill: #17becf; stroke: #17becf"/>
     <use xlink:href="#mb82949465d" x="190.463316" y="238.246224" style="fill: #17becf; stroke: #17becf"/>
     <use xlink:href="#mb82949465d" x="206.69148" y="249.340985" style="fill: #17becf; stroke: #17becf"/>
     <use xlink:href="#mb82949465d" x="222.919643" y="258.896588" style="fill: #17becf; stroke: #17becf"/>
     <use xlink:href="#mb82949465d" x="239.147806" y="267.212546" style="fill: #17becf; stroke: #17becf"/>
     <use xlink:href="#mb82949465d" x="255.375969" y="270.997094" style="fill: #17becf; stroke: #17becf"/>
     <use xlink:href="#mb82949465d" x="271.604133" y="274.347053" style="fill: #17becf; stroke: #17becf"/>
     <use xlink:href="#mb82949465d" x="287.832296" y="280.469436" style="fill: #17becf; stroke: #17becf"/>
     <use xlink:href="#mb82949465d" x="304.060459" y="285.961187" style="fill: #17becf; stroke: #17becf"/>
     <use xlink:href="#mb82949465d" x="320.288622" y="290.914971" style="fill: #17becf; stroke: #17becf"/>
     <use xlink:href="#mb82949465d" x="336.516786" y="295.406144" style="fill: #17becf; stroke: #17becf"/>
     <use xlink:href="#mb82949465d" x="352.744949" y="299.496618" style="fill: #17becf; stroke: #17becf"/>
     <use xlink:href="#mb82949465d" x="368.973112" y="298.304598" style="fill: #17becf; stroke: #17becf"/>
     <use xlink:href="#mb82949465d" x="385.201276" y="301.941308" style="fill: #17becf; stroke: #17becf"/>
     <use xlink:href="#mb82949465d" x="401.429439" y="305.291851" style="fill: #17becf; stroke: #17becf"/>
     <use xlink:href="#mb82949465d" x="417.657602" y="308.388725" style="fill: #17becf; stroke: #17becf"/>
     <use xlink:href="#mb82949465d" x="433.885765" y="311.259687" style="fill: #17becf; stroke: #17becf"/>
     <use xlink:href="#mb82949465d" x="450.113929" y="311.896022" style="fill: #17becf; stroke: #17becf"/>
     <use xlink:href="#mb82949465d" x="466.342092" y="312.489093" style="fill: #17becf; stroke: #17becf"/>
     <use xlink:href="#mb82949465d" x="482.570255" y="314.942086" style="fill: #17becf; stroke: #17becf"/>
     <use xlink:href="#mb82949465d" x="498.798418" y="317.238919" style="fill: #17becf; stroke: #17becf"/>
     <use xlink:href="#mb82949465d" x="515.026582" y="319.394046" style="fill: #17becf; stroke: #17becf"/>
     <use xlink:href="#mb82949465d" x="531.254745" y="321.420187" style="fill: #17becf; stroke: #17becf"/>
     <use xlink:href="#mb82949465d" x="547.482908" y="323.328587" style="fill: #17becf; stroke: #17becf"/>
     <use xlink:href="#mb82949465d" x="563.711071" y="323.498383" style="fill: #17becf; stroke: #17becf"/>
     <use xlink:href="#mb82949465d" x="579.939235" y="325.244906" style="fill: #17becf; stroke: #17becf"/>
     <use xlink:href="#mb82949465d" x="596.167398" y="326.898074" style="fill: #17becf; stroke: #17becf"/>
     <use xlink:href="#mb82949465d" x="612.395561" y="328.465177" style="fill: #17becf; stroke: #17becf"/>
     <use xlink:href="#mb82949465d" x="628.623724" y="329.952765" style="fill: #17becf; stroke: #17becf"/>
     <use xlink:href="#mb82949465d" x="644.851888" y="329.937658" style="fill: #17becf; stroke: #17becf"/>
     <use xlink:href="#mb82949465d" x="661.080051" y="331.317858" style="fill: #17becf; stroke: #17becf"/>
     <use xlink:href="#mb82949465d" x="677.308214" y="332.63298" style="fill: #17becf; stroke: #17becf"/>
     <use xlink:href="#mb82949465d" x="693.536378" y="333.88752" style="fill: #17becf; stroke: #17becf"/>
    </g>
   </g>
   <g id="line2d_30">
    <path d="M 44.409847 370.195943 
L 45.762194 370.598443 
L 47.114541 354.863507 
L 48.466888 355.596176 
L 51.171582 326.830958 
L 53.876276 300.462842 
L 56.580969 276.204176 
L 59.285663 253.81156 
L 61.990357 233.077657 
L 64.695051 213.824747 
L 67.399745 195.899624 
L 70.104439 179.169509 
L 72.809133 185.876974 
L 75.513827 170.505699 
L 76.866173 163.174784 
L 78.21852 166.567604 
L 79.570867 159.514299 
L 83.627908 169.268012 
L 86.332602 175.318927 
L 89.037296 162.310204 
L 91.74199 168.22575 
L 93.094337 162.066924 
L 94.446684 164.951975 
L 95.799031 158.99051 
L 97.151378 161.84189 
L 98.503724 156.066017 
L 101.208418 161.633123 
L 102.560765 156.066017 
L 103.913112 158.784075 
L 105.265459 153.379564 
L 107.970153 158.691414 
L 109.3225 153.470119 
L 110.674847 156.066017 
L 113.379541 146.02102 
L 117.436582 153.63407 
L 121.493622 160.781015 
L 122.845969 163.067075 
L 124.198316 158.376366 
L 128.255357 165.038247 
L 132.312398 171.32304 
L 136.369439 177.261881 
L 140.42648 182.88257 
L 144.48352 188.210006 
L 149.892908 194.895415 
L 155.302296 201.146001 
L 160.711684 207.00285 
L 166.121071 212.502028 
L 171.530459 217.675329 
L 174.235153 220.148696 
L 175.5875 216.335996 
L 180.996888 221.146276 
L 186.406276 225.692979 
L 187.758622 222.075994 
L 193.16801 226.447516 
L 199.929745 231.596664 
L 206.69148 236.425989 
L 213.453214 240.964391 
L 220.214949 245.23739 
L 226.976684 249.267604 
L 233.738418 253.075155 
L 241.8525 257.375447 
L 249.966582 261.408364 
L 258.080663 265.19809 
L 266.194745 268.765978 
L 275.661173 272.673265 
L 285.127602 276.33077 
L 294.594031 279.761704 
L 305.412806 283.431422 
L 316.231582 286.858513 
L 327.050357 290.066271 
L 339.22148 293.438132 
L 351.392602 296.583525 
L 352.744949 294.343423 
L 360.859031 296.367223 
L 362.211378 294.184719 
L 364.916071 294.853181 
L 367.620765 290.561346 
L 381.144235 293.890297 
L 394.667704 296.997318 
L 409.54352 300.184263 
L 424.419337 303.153466 
L 433.885765 304.939583 
L 435.238112 303.088239 
L 451.466276 306.036053 
L 469.046786 309.004626 
L 487.979643 311.96763 
L 508.264847 314.902525 
L 528.550051 317.616751 
L 550.187602 320.295659 
L 573.1775 322.924571 
L 597.519745 325.491625 
L 624.566684 328.113298 
L 652.965969 330.636191 
L 682.717602 333.057681 
L 705.7075 334.791144 
L 705.7075 334.791144 
" clip-path="url(#pfc0b52f407)" style="fill: none; stroke: #e31818; stroke-width: 2.5; stroke-linecap: square"/>
    <defs>
     <path id="m002caceeb5" d="M 0 1.5 
C 0.397805 1.5 0.77937 1.341951 1.06066 1.06066 
C 1.341951 0.77937 1.5 0.397805 1.5 0 
C 1.5 -0.397805 1.341951 -0.77937 1.06066 -1.06066 
C 0.77937 -1.341951 0.397805 -1.5 0 -1.5 
C -0.397805 -1.5 -0.77937 -1.341951 -1.06066 -1.06066 
C -1.341951 -0.77937 -1.5 -0.397805 -1.5 0 
C -1.5 0.397805 -1.341951 0.77937 -1.06066 1.06066 
C -0.77937 1.341951 -0.397805 1.5 0 1.5 
z
" style="stroke: #e31818"/>
    </defs>
    <g clip-path="url(#pfc0b52f407)">
     <use xlink:href="#m002caceeb5" x="44.409847" y="370.195943" style="fill: #e31818; stroke: #e31818"/>
     <use xlink:href="#m002caceeb5" x="60.63801" y="243.249006" style="fill: #e31818; stroke: #e31818"/>
     <use xlink:href="#m002caceeb5" x="76.866173" y="163.174784" style="fill: #e31818; stroke: #e31818"/>
     <use xlink:href="#m002caceeb5" x="93.094337" y="162.066924" style="fill: #e31818; stroke: #e31818"/>
     <use xlink:href="#m002caceeb5" x="109.3225" y="153.470119" style="fill: #e31818; stroke: #e31818"/>
     <use xlink:href="#m002caceeb5" x="125.550663" y="160.640966" style="fill: #e31818; stroke: #e31818"/>
     <use xlink:href="#m002caceeb5" x="141.778827" y="184.689812" style="fill: #e31818; stroke: #e31818"/>
     <use xlink:href="#m002caceeb5" x="158.00699" y="204.12128" style="fill: #e31818; stroke: #e31818"/>
     <use xlink:href="#m002caceeb5" x="174.235153" y="220.148696" style="fill: #e31818; stroke: #e31818"/>
     <use xlink:href="#m002caceeb5" x="190.463316" y="224.291094" style="fill: #e31818; stroke: #e31818"/>
     <use xlink:href="#m002caceeb5" x="206.69148" y="236.425989" style="fill: #e31818; stroke: #e31818"/>
     <use xlink:href="#m002caceeb5" x="222.919643" y="246.877431" style="fill: #e31818; stroke: #e31818"/>
     <use xlink:href="#m002caceeb5" x="239.147806" y="255.97301" style="fill: #e31818; stroke: #e31818"/>
     <use xlink:href="#m002caceeb5" x="255.375969" y="263.960498" style="fill: #e31818; stroke: #e31818"/>
     <use xlink:href="#m002caceeb5" x="271.604133" y="271.030762" style="fill: #e31818; stroke: #e31818"/>
     <use xlink:href="#m002caceeb5" x="287.832296" y="277.333215" style="fill: #e31818; stroke: #e31818"/>
     <use xlink:href="#m002caceeb5" x="304.060459" y="282.986488" style="fill: #e31818; stroke: #e31818"/>
     <use xlink:href="#m002caceeb5" x="320.288622" y="288.085972" style="fill: #e31818; stroke: #e31818"/>
     <use xlink:href="#m002caceeb5" x="336.516786" y="292.709238" style="fill: #e31818; stroke: #e31818"/>
     <use xlink:href="#m002caceeb5" x="352.744949" y="294.343423" style="fill: #e31818; stroke: #e31818"/>
     <use xlink:href="#m002caceeb5" x="368.973112" y="290.904903" style="fill: #e31818; stroke: #e31818"/>
     <use xlink:href="#m002caceeb5" x="385.201276" y="294.844672" style="fill: #e31818; stroke: #e31818"/>
     <use xlink:href="#m002caceeb5" x="401.429439" y="298.474427" style="fill: #e31818; stroke: #e31818"/>
     <use xlink:href="#m002caceeb5" x="417.657602" y="301.829374" style="fill: #e31818; stroke: #e31818"/>
     <use xlink:href="#m002caceeb5" x="433.885765" y="304.939583" style="fill: #e31818; stroke: #e31818"/>
     <use xlink:href="#m002caceeb5" x="450.113929" y="305.798326" style="fill: #e31818; stroke: #e31818"/>
     <use xlink:href="#m002caceeb5" x="466.342092" y="308.562154" style="fill: #e31818; stroke: #e31818"/>
     <use xlink:href="#m002caceeb5" x="482.570255" y="311.144251" style="fill: #e31818; stroke: #e31818"/>
     <use xlink:href="#m002caceeb5" x="498.798418" y="313.561971" style="fill: #e31818; stroke: #e31818"/>
     <use xlink:href="#m002caceeb5" x="515.026582" y="315.830525" style="fill: #e31818; stroke: #e31818"/>
     <use xlink:href="#m002caceeb5" x="531.254745" y="317.963305" style="fill: #e31818; stroke: #e31818"/>
     <use xlink:href="#m002caceeb5" x="547.482908" y="319.972147" style="fill: #e31818; stroke: #e31818"/>
     <use xlink:href="#m002caceeb5" x="563.711071" y="321.867548" style="fill: #e31818; stroke: #e31818"/>
     <use xlink:href="#m002caceeb5" x="579.939235" y="323.658854" style="fill: #e31818; stroke: #e31818"/>
     <use xlink:href="#m002caceeb5" x="596.167398" y="325.354411" style="fill: #e31818; stroke: #e31818"/>
     <use xlink:href="#m002caceeb5" x="612.395561" y="326.961696" style="fill: #e31818; stroke: #e31818"/>
     <use xlink:href="#m002caceeb5" x="628.623724" y="328.487427" style="fill: #e31818; stroke: #e31818"/>
     <use xlink:href="#m002caceeb5" x="644.851888" y="329.937658" style="fill: #e31818; stroke: #e31818"/>
     <use xlink:href="#m002caceeb5" x="661.080051" y="331.317858" style="fill: #e31818; stroke: #e31818"/>
     <use xlink:href="#m002caceeb5" x="677.308214" y="332.63298" style="fill: #e31818; stroke: #e31818"/>
     <use xlink:href="#m002caceeb5" x="693.536378" y="333.88752" style="fill: #e31818; stroke: #e31818"/>
    </g>
   </g>
   <g id="patch_3">
    <path d="M 43.0575 387.100937 
L 43.0575 23.220937 
" style="fill: none; stroke: #000000; stroke-width: 0.8; stroke-linejoin: miter; stroke-linecap: square"/>
   </g>
   <g id="patch_4">
    <path d="M 705.7075 387.100937 
L 705.7075 23.220937 
" style="fill: none; stroke: #000000; stroke-width: 0.8; stroke-linejoin: miter; stroke-linecap: square"/>
   </g>
   <g id="patch_5">
    <path d="M 43.0575 387.100937 
L 705.7075 387.100937 
" style="fill: none; stroke: #000000; stroke-width: 0.8; stroke-linejoin: miter; stroke-linecap: square"/>
   </g>
   <g id="patch_6">
    <path d="M 43.0575 23.220937 
L 705.7075 23.220937 
" style="fill: none; stroke: #000000; stroke-width: 0.8; stroke-linejoin: miter; stroke-linecap: square"/>
   </g>
   <g id="text_14">
    <!-- F1-Score vs k - raisin -->
    <g transform="translate(303.966875 17.220937) scale(0.14 -0.14)">
     <defs>
      <path id="Arial-BoldMT-76" d="M 1372 0 
L 34 3319 
L 956 3319 
L 1581 1625 
L 1763 1059 
Q 1834 1275 1853 1344 
Q 1897 1484 1947 1625 
L 2578 3319 
L 3481 3319 
L 2163 0 
L 1372 0 
z
" transform="scale(0.015625)"/>
      <path id="Arial-BoldMT-61" d="M 1116 2306 
L 319 2450 
Q 453 2931 781 3162 
Q 1109 3394 1756 3394 
Q 2344 3394 2631 3255 
Q 2919 3116 3036 2902 
Q 3153 2688 3153 2116 
L 3144 1091 
Q 3144 653 3186 445 
Q 3228 238 3344 0 
L 2475 0 
Q 2441 88 2391 259 
Q 2369 338 2359 363 
Q 2134 144 1878 34 
Q 1622 -75 1331 -75 
Q 819 -75 523 203 
Q 228 481 228 906 
Q 228 1188 362 1408 
Q 497 1628 739 1745 
Q 981 1863 1438 1950 
Q 2053 2066 2291 2166 
L 2291 2253 
Q 2291 2506 2166 2614 
Q 2041 2722 1694 2722 
Q 1459 2722 1328 2630 
Q 1197 2538 1116 2306 
z
M 2291 1594 
Q 2122 1538 1756 1459 
Q 1391 1381 1278 1306 
Q 1106 1184 1106 997 
Q 1106 813 1243 678 
Q 1381 544 1594 544 
Q 1831 544 2047 700 
Q 2206 819 2256 991 
Q 2291 1103 2291 1419 
L 2291 1594 
z
" transform="scale(0.015625)"/>
      <path id="Arial-BoldMT-69" d="M 459 3769 
L 459 4581 
L 1338 4581 
L 1338 3769 
L 459 3769 
z
M 459 0 
L 459 3319 
L 1338 3319 
L 1338 0 
L 459 0 
z
" transform="scale(0.015625)"/>
     </defs>
     <use xlink:href="#Arial-BoldMT-46"/>
     <use xlink:href="#Arial-BoldMT-31" transform="translate(61.083984 0)"/>
     <use xlink:href="#Arial-BoldMT-2d" transform="translate(116.699219 0)"/>
     <use xlink:href="#Arial-BoldMT-53" transform="translate(150 0)"/>
     <use xlink:href="#Arial-BoldMT-63" transform="translate(216.699219 0)"/>
     <use xlink:href="#Arial-BoldMT-6f" transform="translate(272.314453 0)"/>
     <use xlink:href="#Arial-BoldMT-72" transform="translate(333.398438 0)"/>
     <use xlink:href="#Arial-BoldMT-65" transform="translate(372.314453 0)"/>
     <use xlink:href="#Arial-BoldMT-20" transform="translate(427.929688 0)"/>
     <use xlink:href="#Arial-BoldMT-76" transform="translate(455.712891 0)"/>
     <use xlink:href="#Arial-BoldMT-73" transform="translate(511.328125 0)"/>
     <use xlink:href="#Arial-BoldMT-20" transform="translate(566.943359 0)"/>
     <use xlink:href="#Arial-BoldMT-6b" transform="translate(594.726562 0)"/>
     <use xlink:href="#Arial-BoldMT-20" transform="translate(650.341797 0)"/>
     <use xlink:href="#Arial-BoldMT-2d" transform="translate(678.125 0)"/>
     <use xlink:href="#Arial-BoldMT-20" transform="translate(711.425781 0)"/>
     <use xlink:href="#Arial-BoldMT-72" transform="translate(739.208984 0)"/>
     <use xlink:href="#Arial-BoldMT-61" transform="translate(778.125 0)"/>
     <use xlink:href="#Arial-BoldMT-69" transform="translate(833.740234 0)"/>
     <use xlink:href="#Arial-BoldMT-73" transform="translate(861.523438 0)"/>
     <use xlink:href="#Arial-BoldMT-69" transform="translate(917.138672 0)"/>
     <use xlink:href="#Arial-BoldMT-6e" transform="translate(944.921875 0)"/>
    </g>
   </g>
   <g id="legend_1">
    <g id="patch_7">
     <path d="M 633.610469 132.267187 
L 699.4075 132.267187 
Q 701.2075 132.267187 701.2075 130.467187 
L 701.2075 29.520938 
Q 701.2075 27.720937 699.4075 27.720937 
L 633.610469 27.720937 
Q 631.810469 27.720937 631.810469 29.520938 
L 631.810469 130.467187 
Q 631.810469 132.267187 633.610469 132.267187 
z
" style="fill: #ffffff; opacity: 0.8; stroke: #cccccc; stroke-linejoin: miter"/>
    </g>
    <g id="line2d_31">
     <path d="M 635.410469 34.612969 
L 644.410469 34.612969 
L 653.410469 34.612969 
" style="fill: none; stroke: #1f77b4; stroke-width: 2; stroke-linecap: square"/>
     <g>
      <use xlink:href="#m4dc3e48f45" x="644.410469" y="34.612969" style="fill: #1f77b4; stroke: #1f77b4"/>
     </g>
    </g>
    <g id="text_15">
     <!-- ADFNR -->
     <g transform="translate(660.610469 37.762969) scale(0.09 -0.09)">
      <defs>
       <path id="ArialMT-41" d="M -9 0 
L 1750 4581 
L 2403 4581 
L 4278 0 
L 3588 0 
L 3053 1388 
L 1138 1388 
L 634 0 
L -9 0 
z
M 1313 1881 
L 2866 1881 
L 2388 3150 
Q 2169 3728 2063 4100 
Q 1975 3659 1816 3225 
L 1313 1881 
z
" transform="scale(0.015625)"/>
       <path id="ArialMT-44" d="M 494 0 
L 494 4581 
L 2072 4581 
Q 2606 4581 2888 4516 
Q 3281 4425 3559 4188 
Q 3922 3881 4101 3404 
Q 4281 2928 4281 2316 
Q 4281 1794 4159 1391 
Q 4038 988 3847 723 
Q 3656 459 3429 307 
Q 3203 156 2883 78 
Q 2563 0 2147 0 
L 494 0 
z
M 1100 541 
L 2078 541 
Q 2531 541 2789 625 
Q 3047 709 3200 863 
Q 3416 1078 3536 1442 
Q 3656 1806 3656 2325 
Q 3656 3044 3420 3430 
Q 3184 3816 2847 3947 
Q 2603 4041 2063 4041 
L 1100 4041 
L 1100 541 
z
" transform="scale(0.015625)"/>
       <path id="ArialMT-46" d="M 525 0 
L 525 4581 
L 3616 4581 
L 3616 4041 
L 1131 4041 
L 1131 2622 
L 3281 2622 
L 3281 2081 
L 1131 2081 
L 1131 0 
L 525 0 
z
" transform="scale(0.015625)"/>
       <path id="ArialMT-4e" d="M 488 0 
L 488 4581 
L 1109 4581 
L 3516 984 
L 3516 4581 
L 4097 4581 
L 4097 0 
L 3475 0 
L 1069 3600 
L 1069 0 
L 488 0 
z
" transform="scale(0.015625)"/>
       <path id="ArialMT-52" d="M 503 0 
L 503 4581 
L 2534 4581 
Q 3147 4581 3465 4457 
Q 3784 4334 3975 4021 
Q 4166 3709 4166 3331 
Q 4166 2844 3850 2509 
Q 3534 2175 2875 2084 
Q 3116 1969 3241 1856 
Q 3506 1613 3744 1247 
L 4541 0 
L 3778 0 
L 3172 953 
Q 2906 1366 2734 1584 
Q 2563 1803 2427 1890 
Q 2291 1978 2150 2013 
Q 2047 2034 1813 2034 
L 1109 2034 
L 1109 0 
L 503 0 
z
M 1109 2559 
L 2413 2559 
Q 2828 2559 3062 2645 
Q 3297 2731 3419 2920 
Q 3541 3109 3541 3331 
Q 3541 3656 3305 3865 
Q 3069 4075 2559 4075 
L 1109 4075 
L 1109 2559 
z
" transform="scale(0.015625)"/>
      </defs>
      <use xlink:href="#ArialMT-41"/>
      <use xlink:href="#ArialMT-44" transform="translate(66.699219 0)"/>
      <use xlink:href="#ArialMT-46" transform="translate(138.916016 0)"/>
      <use xlink:href="#ArialMT-4e" transform="translate(200 0)"/>
      <use xlink:href="#ArialMT-52" transform="translate(272.216797 0)"/>
     </g>
    </g>
    <g id="line2d_32">
     <path d="M 635.410469 47.34375 
L 644.410469 47.34375 
L 653.410469 47.34375 
" style="fill: none; stroke: #ff7f0e; stroke-width: 2; stroke-linecap: square"/>
     <g>
      <use xlink:href="#md3d58a5a55" x="644.410469" y="47.34375" style="fill: #ff7f0e; stroke: #ff7f0e"/>
     </g>
    </g>
    <g id="text_16">
     <!-- DASOD -->
     <g transform="translate(660.610469 50.49375) scale(0.09 -0.09)">
      <defs>
       <path id="ArialMT-53" d="M 288 1472 
L 859 1522 
Q 900 1178 1048 958 
Q 1197 738 1509 602 
Q 1822 466 2213 466 
Q 2559 466 2825 569 
Q 3091 672 3220 851 
Q 3350 1031 3350 1244 
Q 3350 1459 3225 1620 
Q 3100 1781 2813 1891 
Q 2628 1963 1997 2114 
Q 1366 2266 1113 2400 
Q 784 2572 623 2826 
Q 463 3081 463 3397 
Q 463 3744 659 4045 
Q 856 4347 1234 4503 
Q 1613 4659 2075 4659 
Q 2584 4659 2973 4495 
Q 3363 4331 3572 4012 
Q 3781 3694 3797 3291 
L 3216 3247 
Q 3169 3681 2898 3903 
Q 2628 4125 2100 4125 
Q 1550 4125 1298 3923 
Q 1047 3722 1047 3438 
Q 1047 3191 1225 3031 
Q 1400 2872 2139 2705 
Q 2878 2538 3153 2413 
Q 3553 2228 3743 1945 
Q 3934 1663 3934 1294 
Q 3934 928 3725 604 
Q 3516 281 3123 101 
Q 2731 -78 2241 -78 
Q 1619 -78 1198 103 
Q 778 284 539 648 
Q 300 1013 288 1472 
z
" transform="scale(0.015625)"/>
       <path id="ArialMT-4f" d="M 309 2231 
Q 309 3372 921 4017 
Q 1534 4663 2503 4663 
Q 3138 4663 3647 4359 
Q 4156 4056 4423 3514 
Q 4691 2972 4691 2284 
Q 4691 1588 4409 1038 
Q 4128 488 3612 205 
Q 3097 -78 2500 -78 
Q 1853 -78 1343 234 
Q 834 547 571 1087 
Q 309 1628 309 2231 
z
M 934 2222 
Q 934 1394 1379 917 
Q 1825 441 2497 441 
Q 3181 441 3623 922 
Q 4066 1403 4066 2288 
Q 4066 2847 3877 3264 
Q 3688 3681 3323 3911 
Q 2959 4141 2506 4141 
Q 1863 4141 1398 3698 
Q 934 3256 934 2222 
z
" transform="scale(0.015625)"/>
      </defs>
      <use xlink:href="#ArialMT-44"/>
      <use xlink:href="#ArialMT-41" transform="translate(72.216797 0)"/>
      <use xlink:href="#ArialMT-53" transform="translate(138.916016 0)"/>
      <use xlink:href="#ArialMT-4f" transform="translate(205.615234 0)"/>
      <use xlink:href="#ArialMT-44" transform="translate(283.398438 0)"/>
     </g>
    </g>
    <g id="line2d_33">
     <path d="M 635.410469 60.074531 
L 644.410469 60.074531 
L 653.410469 60.074531 
" style="fill: none; stroke: #2ca02c; stroke-width: 2; stroke-linecap: square"/>
     <g>
      <use xlink:href="#m7a4df2b5a4" x="644.410469" y="60.074531" style="fill: #2ca02c; stroke: #2ca02c"/>
     </g>
    </g>
    <g id="text_17">
     <!-- GCN -->
     <g transform="translate(660.610469 63.224531) scale(0.09 -0.09)">
      <defs>
       <path id="ArialMT-47" d="M 2638 1797 
L 2638 2334 
L 4578 2338 
L 4578 638 
Q 4131 281 3656 101 
Q 3181 -78 2681 -78 
Q 2006 -78 1454 211 
Q 903 500 622 1047 
Q 341 1594 341 2269 
Q 341 2938 620 3517 
Q 900 4097 1425 4378 
Q 1950 4659 2634 4659 
Q 3131 4659 3532 4498 
Q 3934 4338 4162 4050 
Q 4391 3763 4509 3300 
L 3963 3150 
Q 3859 3500 3706 3700 
Q 3553 3900 3268 4020 
Q 2984 4141 2638 4141 
Q 2222 4141 1919 4014 
Q 1616 3888 1430 3681 
Q 1244 3475 1141 3228 
Q 966 2803 966 2306 
Q 966 1694 1177 1281 
Q 1388 869 1791 669 
Q 2194 469 2647 469 
Q 3041 469 3416 620 
Q 3791 772 3984 944 
L 3984 1797 
L 2638 1797 
z
" transform="scale(0.015625)"/>
       <path id="ArialMT-43" d="M 3763 1606 
L 4369 1453 
Q 4178 706 3683 314 
Q 3188 -78 2472 -78 
Q 1731 -78 1267 223 
Q 803 525 561 1097 
Q 319 1669 319 2325 
Q 319 3041 592 3573 
Q 866 4106 1370 4382 
Q 1875 4659 2481 4659 
Q 3169 4659 3637 4309 
Q 4106 3959 4291 3325 
L 3694 3184 
Q 3534 3684 3231 3912 
Q 2928 4141 2469 4141 
Q 1941 4141 1586 3887 
Q 1231 3634 1087 3207 
Q 944 2781 944 2328 
Q 944 1744 1114 1308 
Q 1284 872 1643 656 
Q 2003 441 2422 441 
Q 2931 441 3284 734 
Q 3638 1028 3763 1606 
z
" transform="scale(0.015625)"/>
      </defs>
      <use xlink:href="#ArialMT-47"/>
      <use xlink:href="#ArialMT-43" transform="translate(77.783203 0)"/>
      <use xlink:href="#ArialMT-4e" transform="translate(150 0)"/>
     </g>
    </g>
    <g id="line2d_34">
     <path d="M 635.410469 72.805312 
L 644.410469 72.805312 
L 653.410469 72.805312 
" style="fill: none; stroke: #9467bd; stroke-width: 2; stroke-linecap: square"/>
     <g>
      <use xlink:href="#m54e95c32bf" x="644.410469" y="72.805312" style="fill: #9467bd; stroke: #9467bd"/>
     </g>
    </g>
    <g id="text_18">
     <!-- GCOD -->
     <g transform="translate(660.610469 75.955312) scale(0.09 -0.09)">
      <use xlink:href="#ArialMT-47"/>
      <use xlink:href="#ArialMT-43" transform="translate(77.783203 0)"/>
      <use xlink:href="#ArialMT-4f" transform="translate(150 0)"/>
      <use xlink:href="#ArialMT-44" transform="translate(227.783203 0)"/>
     </g>
    </g>
    <g id="line2d_35">
     <path d="M 635.410469 85.536094 
L 644.410469 85.536094 
L 653.410469 85.536094 
" style="fill: none; stroke: #8c564b; stroke-width: 2; stroke-linecap: square"/>
     <g>
      <use xlink:href="#mba91d597fd" x="644.410469" y="85.536094" style="fill: #8c564b; stroke: #8c564b"/>
     </g>
    </g>
    <g id="text_19">
     <!-- IE -->
     <g transform="translate(660.610469 88.686094) scale(0.09 -0.09)">
      <defs>
       <path id="ArialMT-49" d="M 597 0 
L 597 4581 
L 1203 4581 
L 1203 0 
L 597 0 
z
" transform="scale(0.015625)"/>
       <path id="ArialMT-45" d="M 506 0 
L 506 4581 
L 3819 4581 
L 3819 4041 
L 1113 4041 
L 1113 2638 
L 3647 2638 
L 3647 2100 
L 1113 2100 
L 1113 541 
L 3925 541 
L 3925 0 
L 506 0 
z
" transform="scale(0.015625)"/>
      </defs>
      <use xlink:href="#ArialMT-49"/>
      <use xlink:href="#ArialMT-45" transform="translate(27.783203 0)"/>
     </g>
    </g>
    <g id="line2d_36">
     <path d="M 635.410469 98.266875 
L 644.410469 98.266875 
L 653.410469 98.266875 
" style="fill: none; stroke: #e377c2; stroke-width: 2; stroke-linecap: square"/>
     <g>
      <use xlink:href="#ma30b522083" x="644.410469" y="98.266875" style="fill: #e377c2; stroke: #e377c2"/>
     </g>
    </g>
    <g id="text_20">
     <!-- KNN -->
     <g transform="translate(660.610469 101.416875) scale(0.09 -0.09)">
      <defs>
       <path id="ArialMT-4b" d="M 469 0 
L 469 4581 
L 1075 4581 
L 1075 2309 
L 3350 4581 
L 4172 4581 
L 2250 2725 
L 4256 0 
L 3456 0 
L 1825 2319 
L 1075 1588 
L 1075 0 
L 469 0 
z
" transform="scale(0.015625)"/>
      </defs>
      <use xlink:href="#ArialMT-4b"/>
      <use xlink:href="#ArialMT-4e" transform="translate(66.699219 0)"/>
      <use xlink:href="#ArialMT-4e" transform="translate(138.916016 0)"/>
     </g>
    </g>
    <g id="line2d_37">
     <path d="M 635.410469 110.997656 
L 644.410469 110.997656 
L 653.410469 110.997656 
" style="fill: none; stroke: #17becf; stroke-width: 2; stroke-linecap: square"/>
     <g>
      <use xlink:href="#mb82949465d" x="644.410469" y="110.997656" style="fill: #17becf; stroke: #17becf"/>
     </g>
    </g>
    <g id="text_21">
     <!-- NIEOD -->
     <g transform="translate(660.610469 114.147656) scale(0.09 -0.09)">
      <use xlink:href="#ArialMT-4e"/>
      <use xlink:href="#ArialMT-49" transform="translate(72.216797 0)"/>
      <use xlink:href="#ArialMT-45" transform="translate(100 0)"/>
      <use xlink:href="#ArialMT-4f" transform="translate(166.699219 0)"/>
      <use xlink:href="#ArialMT-44" transform="translate(244.482422 0)"/>
     </g>
    </g>
    <g id="line2d_38">
     <path d="M 635.410469 123.728437 
L 644.410469 123.728437 
L 653.410469 123.728437 
" style="fill: none; stroke: #e31818; stroke-width: 2.5; stroke-linecap: square"/>
     <g>
      <use xlink:href="#m002caceeb5" x="644.410469" y="123.728437" style="fill: #e31818; stroke: #e31818"/>
     </g>
    </g>
    <g id="text_22">
     <!-- NMIGOD -->
     <g transform="translate(660.610469 126.878437) scale(0.09 -0.09)">
      <defs>
       <path id="ArialMT-4d" d="M 475 0 
L 475 4581 
L 1388 4581 
L 2472 1338 
Q 2622 884 2691 659 
Q 2769 909 2934 1394 
L 4031 4581 
L 4847 4581 
L 4847 0 
L 4263 0 
L 4263 3834 
L 2931 0 
L 2384 0 
L 1059 3900 
L 1059 0 
L 475 0 
z
" transform="scale(0.015625)"/>
      </defs>
      <use xlink:href="#ArialMT-4e"/>
      <use xlink:href="#ArialMT-4d" transform="translate(72.216797 0)"/>
      <use xlink:href="#ArialMT-49" transform="translate(155.517578 0)"/>
      <use xlink:href="#ArialMT-47" transform="translate(183.300781 0)"/>
      <use xlink:href="#ArialMT-4f" transform="translate(261.083984 0)"/>
      <use xlink:href="#ArialMT-44" transform="translate(338.867188 0)"/>
     </g>
    </g>
   </g>
  </g>
 </g>
 <defs>
  <clipPath id="pfc0b52f407">
   <rect x="43.0575" y="23.220937" width="662.65" height="363.88"/>
  </clipPath>
 </defs>
</svg>
