<?xml version="1.0" encoding="utf-8" standalone="no"?>
<!DOCTYPE svg PUBLIC "-//W3C//DTD SVG 1.1//EN"
  "http://www.w3.org/Graphics/SVG/1.1/DTD/svg11.dtd">
<svg xmlns:xlink="http://www.w3.org/1999/xlink" width="712.9075pt" height="425.7075pt" viewBox="0 0 712.9075 425.7075" xmlns="http://www.w3.org/2000/svg" version="1.1">
 <metadata>
  <rdf:RDF xmlns:dc="http://purl.org/dc/elements/1.1/" xmlns:cc="http://creativecommons.org/ns#" xmlns:rdf="http://www.w3.org/1999/02/22-rdf-syntax-ns#">
   <cc:Work>
    <dc:type rdf:resource="http://purl.org/dc/dcmitype/StillImage"/>
    <dc:date>2026-06-11T18:29:00.479573</dc:date>
    <dc:format>image/svg+xml</dc:format>
    <dc:creator>
     <cc:Agent>
      <dc:title>Matplotlib v3.10.0, https://matplotlib.org/</dc:title>
     </cc:Agent>
    </dc:creator>
   </cc:Work>
  </rdf:RDF>
 </metadata>
 <defs>
  <style type="text/css">*{stroke-linejoin: round; stroke-linecap: butt}</style>
 </defs>
 <g id="figure_1">
  <g id="patch_1">
   <path d="M -0 425.7075 
L 712.9075 425.7075 
L 712.9075 0 
L -0 0 
z
" style="fill: #ffffff"/>
  </g>
  <g id="axes_1">
   <g id="patch_2">
    <path d="M 43.0575 387.100937 
L 705.7075 387.100937 
L 705.7075 23.220937 
L 43.0575 23.220937 
z
" style="fill: #ffffff"/>
   </g>
   <g id="matplotlib.axis_1">
    <g id="xtick_1">
     <g id="line2d_1">
      <path d="M 43.0575 387.100937 
L 43.0575 23.220937 
" clip-path="url(#p63af5d7402)" style="fill: none; stroke-dasharray: 2.96,1.28; stroke-dashoffset: 0; stroke: #b0b0b0; stroke-opacity: 0.5; stroke-width: 0.8"/>
     </g>
     <g id="line2d_2">
      <defs>
       <path id="m129c4e01fc" d="M 0 0 
L 0 3.5 
" style="stroke: #000000; stroke-width: 0.8"/>
      </defs>
      <g>
       <use xlink:href="#m129c4e01fc" x="43.0575" y="387.100937" style="stroke: #000000; stroke-width: 0.8"/>
      </g>
     </g>
     <g id="text_1">
      <!-- 0 -->
      <g transform="translate(40.277031 401.25875) scale(0.1 -0.1)">
       <defs>
        <path id="ArialMT-30" d="M 266 2259 
Q 266 3072 433 3567 
Q 600 4063 929 4331 
Q 1259 4600 1759 4600 
Q 2128 4600 2406 4451 
Q 2684 4303 2865 4023 
Q 3047 3744 3150 3342 
Q 3253 2941 3253 2259 
Q 3253 1453 3087 958 
Q 2922 463 2592 192 
Q 2263 -78 1759 -78 
Q 1097 -78 719 397 
Q 266 969 266 2259 
z
M 844 2259 
Q 844 1131 1108 757 
Q 1372 384 1759 384 
Q 2147 384 2411 759 
Q 2675 1134 2675 2259 
Q 2675 3391 2411 3762 
Q 2147 4134 1753 4134 
Q 1366 4134 1134 3806 
Q 844 3388 844 2259 
z
" transform="scale(0.015625)"/>
       </defs>
       <use xlink:href="#ArialMT-30"/>
      </g>
     </g>
    </g>
    <g id="xtick_2">
     <g id="line2d_3">
      <path d="M 126.937247 387.100937 
L 126.937247 23.220937 
" clip-path="url(#p63af5d7402)" style="fill: none; stroke-dasharray: 2.96,1.28; stroke-dashoffset: 0; stroke: #b0b0b0; stroke-opacity: 0.5; stroke-width: 0.8"/>
     </g>
     <g id="line2d_4">
      <g>
       <use xlink:href="#m129c4e01fc" x="126.937247" y="387.100937" style="stroke: #000000; stroke-width: 0.8"/>
      </g>
     </g>
     <g id="text_2">
      <!-- 50 -->
      <g transform="translate(121.376309 401.25875) scale(0.1 -0.1)">
       <defs>
        <path id="ArialMT-35" d="M 266 1200 
L 856 1250 
Q 922 819 1161 601 
Q 1400 384 1738 384 
Q 2144 384 2425 690 
Q 2706 997 2706 1503 
Q 2706 1984 2436 2262 
Q 2166 2541 1728 2541 
Q 1456 2541 1237 2417 
Q 1019 2294 894 2097 
L 366 2166 
L 809 4519 
L 3088 4519 
L 3088 3981 
L 1259 3981 
L 1013 2750 
Q 1425 3038 1878 3038 
Q 2478 3038 2890 2622 
Q 3303 2206 3303 1553 
Q 3303 931 2941 478 
Q 2500 -78 1738 -78 
Q 1113 -78 717 272 
Q 322 622 266 1200 
z
" transform="scale(0.015625)"/>
       </defs>
       <use xlink:href="#ArialMT-35"/>
       <use xlink:href="#ArialMT-30" transform="translate(55.615234 0)"/>
      </g>
     </g>
    </g>
    <g id="xtick_3">
     <g id="line2d_5">
      <path d="M 210.816994 387.100937 
L 210.816994 23.220937 
" clip-path="url(#p63af5d7402)" style="fill: none; stroke-dasharray: 2.96,1.28; stroke-dashoffset: 0; stroke: #b0b0b0; stroke-opacity: 0.5; stroke-width: 0.8"/>
     </g>
     <g id="line2d_6">
      <g>
       <use xlink:href="#m129c4e01fc" x="210.816994" y="387.100937" style="stroke: #000000; stroke-width: 0.8"/>
      </g>
     </g>
     <g id="text_3">
      <!-- 100 -->
      <g transform="translate(202.475587 401.25875) scale(0.1 -0.1)">
       <defs>
        <path id="ArialMT-31" d="M 2384 0 
L 1822 0 
L 1822 3584 
Q 1619 3391 1289 3197 
Q 959 3003 697 2906 
L 697 3450 
Q 1169 3672 1522 3987 
Q 1875 4303 2022 4600 
L 2384 4600 
L 2384 0 
z
" transform="scale(0.015625)"/>
       </defs>
       <use xlink:href="#ArialMT-31"/>
       <use xlink:href="#ArialMT-30" transform="translate(55.615234 0)"/>
       <use xlink:href="#ArialMT-30" transform="translate(111.230469 0)"/>
      </g>
     </g>
    </g>
    <g id="xtick_4">
     <g id="line2d_7">
      <path d="M 294.696741 387.100937 
L 294.696741 23.220937 
" clip-path="url(#p63af5d7402)" style="fill: none; stroke-dasharray: 2.96,1.28; stroke-dashoffset: 0; stroke: #b0b0b0; stroke-opacity: 0.5; stroke-width: 0.8"/>
     </g>
     <g id="line2d_8">
      <g>
       <use xlink:href="#m129c4e01fc" x="294.696741" y="387.100937" style="stroke: #000000; stroke-width: 0.8"/>
      </g>
     </g>
     <g id="text_4">
      <!-- 150 -->
      <g transform="translate(286.355334 401.25875) scale(0.1 -0.1)">
       <use xlink:href="#ArialMT-31"/>
       <use xlink:href="#ArialMT-35" transform="translate(55.615234 0)"/>
       <use xlink:href="#ArialMT-30" transform="translate(111.230469 0)"/>
      </g>
     </g>
    </g>
    <g id="xtick_5">
     <g id="line2d_9">
      <path d="M 378.576487 387.100937 
L 378.576487 23.220937 
" clip-path="url(#p63af5d7402)" style="fill: none; stroke-dasharray: 2.96,1.28; stroke-dashoffset: 0; stroke: #b0b0b0; stroke-opacity: 0.5; stroke-width: 0.8"/>
     </g>
     <g id="line2d_10">
      <g>
       <use xlink:href="#m129c4e01fc" x="378.576487" y="387.100937" style="stroke: #000000; stroke-width: 0.8"/>
      </g>
     </g>
     <g id="text_5">
      <!-- 200 -->
      <g transform="translate(370.235081 401.25875) scale(0.1 -0.1)">
       <defs>
        <path id="ArialMT-32" d="M 3222 541 
L 3222 0 
L 194 0 
Q 188 203 259 391 
Q 375 700 629 1000 
Q 884 1300 1366 1694 
Q 2113 2306 2375 2664 
Q 2638 3022 2638 3341 
Q 2638 3675 2398 3904 
Q 2159 4134 1775 4134 
Q 1369 4134 1125 3890 
Q 881 3647 878 3216 
L 300 3275 
Q 359 3922 746 4261 
Q 1134 4600 1788 4600 
Q 2447 4600 2831 4234 
Q 3216 3869 3216 3328 
Q 3216 3053 3103 2787 
Q 2991 2522 2730 2228 
Q 2469 1934 1863 1422 
Q 1356 997 1212 845 
Q 1069 694 975 541 
L 3222 541 
z
" transform="scale(0.015625)"/>
       </defs>
       <use xlink:href="#ArialMT-32"/>
       <use xlink:href="#ArialMT-30" transform="translate(55.615234 0)"/>
       <use xlink:href="#ArialMT-30" transform="translate(111.230469 0)"/>
      </g>
     </g>
    </g>
    <g id="xtick_6">
     <g id="line2d_11">
      <path d="M 462.456234 387.100937 
L 462.456234 23.220937 
" clip-path="url(#p63af5d7402)" style="fill: none; stroke-dasharray: 2.96,1.28; stroke-dashoffset: 0; stroke: #b0b0b0; stroke-opacity: 0.5; stroke-width: 0.8"/>
     </g>
     <g id="line2d_12">
      <g>
       <use xlink:href="#m129c4e01fc" x="462.456234" y="387.100937" style="stroke: #000000; stroke-width: 0.8"/>
      </g>
     </g>
     <g id="text_6">
      <!-- 250 -->
      <g transform="translate(454.114828 401.25875) scale(0.1 -0.1)">
       <use xlink:href="#ArialMT-32"/>
       <use xlink:href="#ArialMT-35" transform="translate(55.615234 0)"/>
       <use xlink:href="#ArialMT-30" transform="translate(111.230469 0)"/>
      </g>
     </g>
    </g>
    <g id="xtick_7">
     <g id="line2d_13">
      <path d="M 546.335981 387.100937 
L 546.335981 23.220937 
" clip-path="url(#p63af5d7402)" style="fill: none; stroke-dasharray: 2.96,1.28; stroke-dashoffset: 0; stroke: #b0b0b0; stroke-opacity: 0.5; stroke-width: 0.8"/>
     </g>
     <g id="line2d_14">
      <g>
       <use xlink:href="#m129c4e01fc" x="546.335981" y="387.100937" style="stroke: #000000; stroke-width: 0.8"/>
      </g>
     </g>
     <g id="text_7">
      <!-- 300 -->
      <g transform="translate(537.994575 401.25875) scale(0.1 -0.1)">
       <defs>
        <path id="ArialMT-33" d="M 269 1209 
L 831 1284 
Q 928 806 1161 595 
Q 1394 384 1728 384 
Q 2125 384 2398 659 
Q 2672 934 2672 1341 
Q 2672 1728 2419 1979 
Q 2166 2231 1775 2231 
Q 1616 2231 1378 2169 
L 1441 2663 
Q 1497 2656 1531 2656 
Q 1891 2656 2178 2843 
Q 2466 3031 2466 3422 
Q 2466 3731 2256 3934 
Q 2047 4138 1716 4138 
Q 1388 4138 1169 3931 
Q 950 3725 888 3313 
L 325 3413 
Q 428 3978 793 4289 
Q 1159 4600 1703 4600 
Q 2078 4600 2393 4439 
Q 2709 4278 2876 4000 
Q 3044 3722 3044 3409 
Q 3044 3113 2884 2869 
Q 2725 2625 2413 2481 
Q 2819 2388 3044 2092 
Q 3269 1797 3269 1353 
Q 3269 753 2831 336 
Q 2394 -81 1725 -81 
Q 1122 -81 723 278 
Q 325 638 269 1209 
z
" transform="scale(0.015625)"/>
       </defs>
       <use xlink:href="#ArialMT-33"/>
       <use xlink:href="#ArialMT-30" transform="translate(55.615234 0)"/>
       <use xlink:href="#ArialMT-30" transform="translate(111.230469 0)"/>
      </g>
     </g>
    </g>
    <g id="xtick_8">
     <g id="line2d_15">
      <path d="M 630.215728 387.100937 
L 630.215728 23.220937 
" clip-path="url(#p63af5d7402)" style="fill: none; stroke-dasharray: 2.96,1.28; stroke-dashoffset: 0; stroke: #b0b0b0; stroke-opacity: 0.5; stroke-width: 0.8"/>
     </g>
     <g id="line2d_16">
      <g>
       <use xlink:href="#m129c4e01fc" x="630.215728" y="387.100937" style="stroke: #000000; stroke-width: 0.8"/>
      </g>
     </g>
     <g id="text_8">
      <!-- 350 -->
      <g transform="translate(621.874322 401.25875) scale(0.1 -0.1)">
       <use xlink:href="#ArialMT-33"/>
       <use xlink:href="#ArialMT-35" transform="translate(55.615234 0)"/>
       <use xlink:href="#ArialMT-30" transform="translate(111.230469 0)"/>
      </g>
     </g>
    </g>
    <g id="text_9">
     <!-- k (Threshold Index) -->
     <g transform="translate(319.048438 415.981875) scale(0.12 -0.12)">
      <defs>
       <path id="Arial-BoldMT-6b" d="M 428 0 
L 428 4581 
L 1306 4581 
L 1306 2150 
L 2334 3319 
L 3416 3319 
L 2281 2106 
L 3497 0 
L 2550 0 
L 1716 1491 
L 1306 1063 
L 1306 0 
L 428 0 
z
" transform="scale(0.015625)"/>
       <path id="Arial-BoldMT-20" transform="scale(0.015625)"/>
       <path id="Arial-BoldMT-28" d="M 1916 -1347 
L 1313 -1347 
Q 834 -625 584 153 
Q 334 931 334 1659 
Q 334 2563 644 3369 
Q 913 4069 1325 4659 
L 1925 4659 
Q 1497 3713 1336 3048 
Q 1175 2384 1175 1641 
Q 1175 1128 1270 590 
Q 1366 53 1531 -431 
Q 1641 -750 1916 -1347 
z
" transform="scale(0.015625)"/>
       <path id="Arial-BoldMT-54" d="M 1497 0 
L 1497 3806 
L 138 3806 
L 138 4581 
L 3778 4581 
L 3778 3806 
L 2422 3806 
L 2422 0 
L 1497 0 
z
" transform="scale(0.015625)"/>
       <path id="Arial-BoldMT-68" d="M 1334 4581 
L 1334 2897 
Q 1759 3394 2350 3394 
Q 2653 3394 2897 3281 
Q 3141 3169 3264 2994 
Q 3388 2819 3433 2606 
Q 3478 2394 3478 1947 
L 3478 0 
L 2600 0 
L 2600 1753 
Q 2600 2275 2550 2415 
Q 2500 2556 2373 2639 
Q 2247 2722 2056 2722 
Q 1838 2722 1666 2615 
Q 1494 2509 1414 2295 
Q 1334 2081 1334 1663 
L 1334 0 
L 456 0 
L 456 4581 
L 1334 4581 
z
" transform="scale(0.015625)"/>
       <path id="Arial-BoldMT-72" d="M 1300 0 
L 422 0 
L 422 3319 
L 1238 3319 
L 1238 2847 
Q 1447 3181 1614 3287 
Q 1781 3394 1994 3394 
Q 2294 3394 2572 3228 
L 2300 2463 
Q 2078 2606 1888 2606 
Q 1703 2606 1575 2504 
Q 1447 2403 1373 2137 
Q 1300 1872 1300 1025 
L 1300 0 
z
" transform="scale(0.015625)"/>
       <path id="Arial-BoldMT-65" d="M 2381 1056 
L 3256 909 
Q 3088 428 2723 176 
Q 2359 -75 1813 -75 
Q 947 -75 531 491 
Q 203 944 203 1634 
Q 203 2459 634 2926 
Q 1066 3394 1725 3394 
Q 2466 3394 2894 2905 
Q 3322 2416 3303 1406 
L 1103 1406 
Q 1113 1016 1316 798 
Q 1519 581 1822 581 
Q 2028 581 2168 693 
Q 2309 806 2381 1056 
z
M 2431 1944 
Q 2422 2325 2234 2523 
Q 2047 2722 1778 2722 
Q 1491 2722 1303 2513 
Q 1116 2303 1119 1944 
L 2431 1944 
z
" transform="scale(0.015625)"/>
       <path id="Arial-BoldMT-73" d="M 150 947 
L 1031 1081 
Q 1088 825 1259 692 
Q 1431 559 1741 559 
Q 2081 559 2253 684 
Q 2369 772 2369 919 
Q 2369 1019 2306 1084 
Q 2241 1147 2013 1200 
Q 950 1434 666 1628 
Q 272 1897 272 2375 
Q 272 2806 612 3100 
Q 953 3394 1669 3394 
Q 2350 3394 2681 3172 
Q 3013 2950 3138 2516 
L 2309 2363 
Q 2256 2556 2107 2659 
Q 1959 2763 1684 2763 
Q 1338 2763 1188 2666 
Q 1088 2597 1088 2488 
Q 1088 2394 1175 2328 
Q 1294 2241 1995 2081 
Q 2697 1922 2975 1691 
Q 3250 1456 3250 1038 
Q 3250 581 2869 253 
Q 2488 -75 1741 -75 
Q 1063 -75 667 200 
Q 272 475 150 947 
z
" transform="scale(0.015625)"/>
       <path id="Arial-BoldMT-6f" d="M 256 1706 
Q 256 2144 472 2553 
Q 688 2963 1083 3178 
Q 1478 3394 1966 3394 
Q 2719 3394 3200 2905 
Q 3681 2416 3681 1669 
Q 3681 916 3195 420 
Q 2709 -75 1972 -75 
Q 1516 -75 1102 131 
Q 688 338 472 736 
Q 256 1134 256 1706 
z
M 1156 1659 
Q 1156 1166 1390 903 
Q 1625 641 1969 641 
Q 2313 641 2545 903 
Q 2778 1166 2778 1666 
Q 2778 2153 2545 2415 
Q 2313 2678 1969 2678 
Q 1625 2678 1390 2415 
Q 1156 2153 1156 1659 
z
" transform="scale(0.015625)"/>
       <path id="Arial-BoldMT-6c" d="M 459 0 
L 459 4581 
L 1338 4581 
L 1338 0 
L 459 0 
z
" transform="scale(0.015625)"/>
       <path id="Arial-BoldMT-64" d="M 3503 0 
L 2688 0 
L 2688 488 
Q 2484 203 2207 64 
Q 1931 -75 1650 -75 
Q 1078 -75 670 386 
Q 263 847 263 1672 
Q 263 2516 659 2955 
Q 1056 3394 1663 3394 
Q 2219 3394 2625 2931 
L 2625 4581 
L 3503 4581 
L 3503 0 
z
M 1159 1731 
Q 1159 1200 1306 963 
Q 1519 619 1900 619 
Q 2203 619 2415 876 
Q 2628 1134 2628 1647 
Q 2628 2219 2422 2470 
Q 2216 2722 1894 2722 
Q 1581 2722 1370 2473 
Q 1159 2225 1159 1731 
z
" transform="scale(0.015625)"/>
       <path id="Arial-BoldMT-49" d="M 438 0 
L 438 4581 
L 1363 4581 
L 1363 0 
L 438 0 
z
" transform="scale(0.015625)"/>
       <path id="Arial-BoldMT-6e" d="M 3478 0 
L 2600 0 
L 2600 1694 
Q 2600 2231 2544 2389 
Q 2488 2547 2361 2634 
Q 2234 2722 2056 2722 
Q 1828 2722 1647 2597 
Q 1466 2472 1398 2265 
Q 1331 2059 1331 1503 
L 1331 0 
L 453 0 
L 453 3319 
L 1269 3319 
L 1269 2831 
Q 1703 3394 2363 3394 
Q 2653 3394 2893 3289 
Q 3134 3184 3257 3021 
Q 3381 2859 3429 2653 
Q 3478 2447 3478 2063 
L 3478 0 
z
" transform="scale(0.015625)"/>
       <path id="Arial-BoldMT-78" d="M 38 0 
L 1234 1709 
L 88 3319 
L 1159 3319 
L 1747 2406 
L 2366 3319 
L 3397 3319 
L 2272 1747 
L 3500 0 
L 2422 0 
L 1747 1028 
L 1066 0 
L 38 0 
z
" transform="scale(0.015625)"/>
       <path id="Arial-BoldMT-29" d="M 216 -1347 
Q 475 -791 581 -494 
Q 688 -197 778 190 
Q 869 578 912 926 
Q 956 1275 956 1641 
Q 956 2384 797 3048 
Q 638 3713 209 4659 
L 806 4659 
Q 1278 3988 1539 3234 
Q 1800 2481 1800 1706 
Q 1800 1053 1594 306 
Q 1359 -531 822 -1347 
L 216 -1347 
z
" transform="scale(0.015625)"/>
      </defs>
      <use xlink:href="#Arial-BoldMT-6b"/>
      <use xlink:href="#Arial-BoldMT-20" transform="translate(55.615234 0)"/>
      <use xlink:href="#Arial-BoldMT-28" transform="translate(83.398438 0)"/>
      <use xlink:href="#Arial-BoldMT-54" transform="translate(116.699219 0)"/>
      <use xlink:href="#Arial-BoldMT-68" transform="translate(177.783203 0)"/>
      <use xlink:href="#Arial-BoldMT-72" transform="translate(238.867188 0)"/>
      <use xlink:href="#Arial-BoldMT-65" transform="translate(277.783203 0)"/>
      <use xlink:href="#Arial-BoldMT-73" transform="translate(333.398438 0)"/>
      <use xlink:href="#Arial-BoldMT-68" transform="translate(389.013672 0)"/>
      <use xlink:href="#Arial-BoldMT-6f" transform="translate(450.097656 0)"/>
      <use xlink:href="#Arial-BoldMT-6c" transform="translate(511.181641 0)"/>
      <use xlink:href="#Arial-BoldMT-64" transform="translate(538.964844 0)"/>
      <use xlink:href="#Arial-BoldMT-20" transform="translate(600.048828 0)"/>
      <use xlink:href="#Arial-BoldMT-49" transform="translate(627.832031 0)"/>
      <use xlink:href="#Arial-BoldMT-6e" transform="translate(655.615234 0)"/>
      <use xlink:href="#Arial-BoldMT-64" transform="translate(716.699219 0)"/>
      <use xlink:href="#Arial-BoldMT-65" transform="translate(777.783203 0)"/>
      <use xlink:href="#Arial-BoldMT-78" transform="translate(833.398438 0)"/>
      <use xlink:href="#Arial-BoldMT-29" transform="translate(889.013672 0)"/>
     </g>
    </g>
   </g>
   <g id="matplotlib.axis_2">
    <g id="ytick_1">
     <g id="line2d_17">
      <path d="M 43.0575 387.100937 
L 705.7075 387.100937 
" clip-path="url(#p63af5d7402)" style="fill: none; stroke-dasharray: 2.96,1.28; stroke-dashoffset: 0; stroke: #b0b0b0; stroke-opacity: 0.5; stroke-width: 0.8"/>
     </g>
     <g id="line2d_18">
      <defs>
       <path id="mb27ee70fde" d="M 0 0 
L -3.5 0 
" style="stroke: #000000; stroke-width: 0.8"/>
      </defs>
      <g>
       <use xlink:href="#mb27ee70fde" x="43.0575" y="387.100937" style="stroke: #000000; stroke-width: 0.8"/>
      </g>
     </g>
     <g id="text_10">
      <!-- 0.0 -->
      <g transform="translate(22.1575 390.679844) scale(0.1 -0.1)">
       <defs>
        <path id="ArialMT-2e" d="M 581 0 
L 581 641 
L 1222 641 
L 1222 0 
L 581 0 
z
" transform="scale(0.015625)"/>
       </defs>
       <use xlink:href="#ArialMT-30"/>
       <use xlink:href="#ArialMT-2e" transform="translate(55.615234 0)"/>
       <use xlink:href="#ArialMT-30" transform="translate(83.398438 0)"/>
      </g>
     </g>
    </g>
    <g id="ytick_2">
     <g id="line2d_19">
      <path d="M 43.0575 317.790461 
L 705.7075 317.790461 
" clip-path="url(#p63af5d7402)" style="fill: none; stroke-dasharray: 2.96,1.28; stroke-dashoffset: 0; stroke: #b0b0b0; stroke-opacity: 0.5; stroke-width: 0.8"/>
     </g>
     <g id="line2d_20">
      <g>
       <use xlink:href="#mb27ee70fde" x="43.0575" y="317.790461" style="stroke: #000000; stroke-width: 0.8"/>
      </g>
     </g>
     <g id="text_11">
      <!-- 0.2 -->
      <g transform="translate(22.1575 321.369368) scale(0.1 -0.1)">
       <use xlink:href="#ArialMT-30"/>
       <use xlink:href="#ArialMT-2e" transform="translate(55.615234 0)"/>
       <use xlink:href="#ArialMT-32" transform="translate(83.398438 0)"/>
      </g>
     </g>
    </g>
    <g id="ytick_3">
     <g id="line2d_21">
      <path d="M 43.0575 248.479985 
L 705.7075 248.479985 
" clip-path="url(#p63af5d7402)" style="fill: none; stroke-dasharray: 2.96,1.28; stroke-dashoffset: 0; stroke: #b0b0b0; stroke-opacity: 0.5; stroke-width: 0.8"/>
     </g>
     <g id="line2d_22">
      <g>
       <use xlink:href="#mb27ee70fde" x="43.0575" y="248.479985" style="stroke: #000000; stroke-width: 0.8"/>
      </g>
     </g>
     <g id="text_12">
      <!-- 0.4 -->
      <g transform="translate(22.1575 252.058891) scale(0.1 -0.1)">
       <defs>
        <path id="ArialMT-34" d="M 2069 0 
L 2069 1097 
L 81 1097 
L 81 1613 
L 2172 4581 
L 2631 4581 
L 2631 1613 
L 3250 1613 
L 3250 1097 
L 2631 1097 
L 2631 0 
L 2069 0 
z
M 2069 1613 
L 2069 3678 
L 634 1613 
L 2069 1613 
z
" transform="scale(0.015625)"/>
       </defs>
       <use xlink:href="#ArialMT-30"/>
       <use xlink:href="#ArialMT-2e" transform="translate(55.615234 0)"/>
       <use xlink:href="#ArialMT-34" transform="translate(83.398438 0)"/>
      </g>
     </g>
    </g>
    <g id="ytick_4">
     <g id="line2d_23">
      <path d="M 43.0575 179.169509 
L 705.7075 179.169509 
" clip-path="url(#p63af5d7402)" style="fill: none; stroke-dasharray: 2.96,1.28; stroke-dashoffset: 0; stroke: #b0b0b0; stroke-opacity: 0.5; stroke-width: 0.8"/>
     </g>
     <g id="line2d_24">
      <g>
       <use xlink:href="#mb27ee70fde" x="43.0575" y="179.169509" style="stroke: #000000; stroke-width: 0.8"/>
      </g>
     </g>
     <g id="text_13">
      <!-- 0.6 -->
      <g transform="translate(22.1575 182.748415) scale(0.1 -0.1)">
       <defs>
        <path id="ArialMT-36" d="M 3184 3459 
L 2625 3416 
Q 2550 3747 2413 3897 
Q 2184 4138 1850 4138 
Q 1581 4138 1378 3988 
Q 1113 3794 959 3422 
Q 806 3050 800 2363 
Q 1003 2672 1297 2822 
Q 1591 2972 1913 2972 
Q 2475 2972 2870 2558 
Q 3266 2144 3266 1488 
Q 3266 1056 3080 686 
Q 2894 316 2569 119 
Q 2244 -78 1831 -78 
Q 1128 -78 684 439 
Q 241 956 241 2144 
Q 241 3472 731 4075 
Q 1159 4600 1884 4600 
Q 2425 4600 2770 4297 
Q 3116 3994 3184 3459 
z
M 888 1484 
Q 888 1194 1011 928 
Q 1134 663 1356 523 
Q 1578 384 1822 384 
Q 2178 384 2434 671 
Q 2691 959 2691 1453 
Q 2691 1928 2437 2201 
Q 2184 2475 1800 2475 
Q 1419 2475 1153 2201 
Q 888 1928 888 1484 
z
" transform="scale(0.015625)"/>
       </defs>
       <use xlink:href="#ArialMT-30"/>
       <use xlink:href="#ArialMT-2e" transform="translate(55.615234 0)"/>
       <use xlink:href="#ArialMT-36" transform="translate(83.398438 0)"/>
      </g>
     </g>
    </g>
    <g id="ytick_5">
     <g id="line2d_25">
      <path d="M 43.0575 109.859033 
L 705.7075 109.859033 
" clip-path="url(#p63af5d7402)" style="fill: none; stroke-dasharray: 2.96,1.28; stroke-dashoffset: 0; stroke: #b0b0b0; stroke-opacity: 0.5; stroke-width: 0.8"/>
     </g>
     <g id="line2d_26">
      <g>
       <use xlink:href="#mb27ee70fde" x="43.0575" y="109.859033" style="stroke: #000000; stroke-width: 0.8"/>
      </g>
     </g>
     <g id="text_14">
      <!-- 0.8 -->
      <g transform="translate(22.1575 113.437939) scale(0.1 -0.1)">
       <defs>
        <path id="ArialMT-38" d="M 1131 2484 
Q 781 2613 612 2850 
Q 444 3088 444 3419 
Q 444 3919 803 4259 
Q 1163 4600 1759 4600 
Q 2359 4600 2725 4251 
Q 3091 3903 3091 3403 
Q 3091 3084 2923 2848 
Q 2756 2613 2416 2484 
Q 2838 2347 3058 2040 
Q 3278 1734 3278 1309 
Q 3278 722 2862 322 
Q 2447 -78 1769 -78 
Q 1091 -78 675 323 
Q 259 725 259 1325 
Q 259 1772 486 2073 
Q 713 2375 1131 2484 
z
M 1019 3438 
Q 1019 3113 1228 2906 
Q 1438 2700 1772 2700 
Q 2097 2700 2305 2904 
Q 2513 3109 2513 3406 
Q 2513 3716 2298 3927 
Q 2084 4138 1766 4138 
Q 1444 4138 1231 3931 
Q 1019 3725 1019 3438 
z
M 838 1322 
Q 838 1081 952 856 
Q 1066 631 1291 507 
Q 1516 384 1775 384 
Q 2178 384 2440 643 
Q 2703 903 2703 1303 
Q 2703 1709 2433 1975 
Q 2163 2241 1756 2241 
Q 1359 2241 1098 1978 
Q 838 1716 838 1322 
z
" transform="scale(0.015625)"/>
       </defs>
       <use xlink:href="#ArialMT-30"/>
       <use xlink:href="#ArialMT-2e" transform="translate(55.615234 0)"/>
       <use xlink:href="#ArialMT-38" transform="translate(83.398438 0)"/>
      </g>
     </g>
    </g>
    <g id="ytick_6">
     <g id="line2d_27">
      <path d="M 43.0575 40.548557 
L 705.7075 40.548557 
" clip-path="url(#p63af5d7402)" style="fill: none; stroke-dasharray: 2.96,1.28; stroke-dashoffset: 0; stroke: #b0b0b0; stroke-opacity: 0.5; stroke-width: 0.8"/>
     </g>
     <g id="line2d_28">
      <g>
       <use xlink:href="#mb27ee70fde" x="43.0575" y="40.548557" style="stroke: #000000; stroke-width: 0.8"/>
      </g>
     </g>
     <g id="text_15">
      <!-- 1.0 -->
      <g transform="translate(22.1575 44.127463) scale(0.1 -0.1)">
       <use xlink:href="#ArialMT-31"/>
       <use xlink:href="#ArialMT-2e" transform="translate(55.615234 0)"/>
       <use xlink:href="#ArialMT-30" transform="translate(83.398438 0)"/>
      </g>
     </g>
    </g>
    <g id="text_16">
     <!-- Recall -->
     <g transform="translate(15.789375 222.8375) rotate(-90) scale(0.12 -0.12)">
      <defs>
       <path id="Arial-BoldMT-52" d="M 469 0 
L 469 4581 
L 2416 4581 
Q 3150 4581 3483 4457 
Q 3816 4334 4016 4018 
Q 4216 3703 4216 3297 
Q 4216 2781 3912 2445 
Q 3609 2109 3006 2022 
Q 3306 1847 3501 1637 
Q 3697 1428 4028 894 
L 4588 0 
L 3481 0 
L 2813 997 
Q 2456 1531 2325 1670 
Q 2194 1809 2047 1861 
Q 1900 1913 1581 1913 
L 1394 1913 
L 1394 0 
L 469 0 
z
M 1394 2644 
L 2078 2644 
Q 2744 2644 2909 2700 
Q 3075 2756 3169 2893 
Q 3263 3031 3263 3238 
Q 3263 3469 3139 3611 
Q 3016 3753 2791 3791 
Q 2678 3806 2116 3806 
L 1394 3806 
L 1394 2644 
z
" transform="scale(0.015625)"/>
       <path id="Arial-BoldMT-63" d="M 3353 2338 
L 2488 2181 
Q 2444 2441 2289 2572 
Q 2134 2703 1888 2703 
Q 1559 2703 1364 2476 
Q 1169 2250 1169 1719 
Q 1169 1128 1367 884 
Q 1566 641 1900 641 
Q 2150 641 2309 783 
Q 2469 925 2534 1272 
L 3397 1125 
Q 3263 531 2881 228 
Q 2500 -75 1859 -75 
Q 1131 -75 698 384 
Q 266 844 266 1656 
Q 266 2478 700 2936 
Q 1134 3394 1875 3394 
Q 2481 3394 2839 3133 
Q 3197 2872 3353 2338 
z
" transform="scale(0.015625)"/>
       <path id="Arial-BoldMT-61" d="M 1116 2306 
L 319 2450 
Q 453 2931 781 3162 
Q 1109 3394 1756 3394 
Q 2344 3394 2631 3255 
Q 2919 3116 3036 2902 
Q 3153 2688 3153 2116 
L 3144 1091 
Q 3144 653 3186 445 
Q 3228 238 3344 0 
L 2475 0 
Q 2441 88 2391 259 
Q 2369 338 2359 363 
Q 2134 144 1878 34 
Q 1622 -75 1331 -75 
Q 819 -75 523 203 
Q 228 481 228 906 
Q 228 1188 362 1408 
Q 497 1628 739 1745 
Q 981 1863 1438 1950 
Q 2053 2066 2291 2166 
L 2291 2253 
Q 2291 2506 2166 2614 
Q 2041 2722 1694 2722 
Q 1459 2722 1328 2630 
Q 1197 2538 1116 2306 
z
M 2291 1594 
Q 2122 1538 1756 1459 
Q 1391 1381 1278 1306 
Q 1106 1184 1106 997 
Q 1106 813 1243 678 
Q 1381 544 1594 544 
Q 1831 544 2047 700 
Q 2206 819 2256 991 
Q 2291 1103 2291 1419 
L 2291 1594 
z
" transform="scale(0.015625)"/>
      </defs>
      <use xlink:href="#Arial-BoldMT-52"/>
      <use xlink:href="#Arial-BoldMT-65" transform="translate(72.216797 0)"/>
      <use xlink:href="#Arial-BoldMT-63" transform="translate(127.832031 0)"/>
      <use xlink:href="#Arial-BoldMT-61" transform="translate(183.447266 0)"/>
      <use xlink:href="#Arial-BoldMT-6c" transform="translate(239.0625 0)"/>
      <use xlink:href="#Arial-BoldMT-6c" transform="translate(266.845703 0)"/>
     </g>
    </g>
   </g>
   <g id="line2d_29">
    <path d="M 44.735095 387.100937 
L 46.41269 375.150855 
L 48.090285 375.150855 
L 49.76788 363.200773 
L 81.642184 363.200773 
L 83.319778 351.250691 
L 90.030158 351.250691 
L 91.707753 339.300609 
L 123.582057 339.300609 
L 126.937247 315.400445 
L 140.358006 315.400445 
L 142.035601 303.450363 
L 150.423576 303.450363 
L 152.101171 291.500281 
L 153.778766 291.500281 
L 157.133956 267.600116 
L 177.265095 267.600116 
L 178.94269 255.650034 
L 247.724082 255.650034 
L 249.401677 243.699952 
L 262.822437 243.699952 
L 264.500032 231.74987 
L 274.565601 231.74987 
L 276.243196 219.799788 
L 286.308766 219.799788 
L 287.986361 207.849706 
L 296.374335 207.849706 
L 298.05193 195.899624 
L 308.1175 195.899624 
L 309.795095 183.949542 
L 318.18307 183.949542 
L 319.860665 171.99946 
L 339.991804 171.99946 
L 343.346994 148.099295 
L 365.155728 148.099295 
L 366.833323 136.149213 
L 390.319652 136.149213 
L 391.997247 124.199131 
L 412.128386 124.199131 
L 413.805981 112.249049 
L 417.161171 112.249049 
L 418.838766 100.298967 
L 437.29231 100.298967 
L 438.969905 88.348885 
L 502.718513 88.348885 
L 504.396108 76.398803 
L 561.434335 76.398803 
L 563.11193 64.448721 
L 571.499905 64.448721 
L 573.1775 52.498639 
L 662.090032 52.498639 
L 663.767627 40.548557 
L 705.7075 40.548557 
L 705.7075 40.548557 
" clip-path="url(#p63af5d7402)" style="fill: none; stroke: #1f77b4; stroke-width: 2; stroke-linecap: square"/>
    <defs>
     <path id="m05a58686fd" d="M 0 1.5 
C 0.397805 1.5 0.77937 1.341951 1.06066 1.06066 
C 1.341951 0.77937 1.5 0.397805 1.5 0 
C 1.5 -0.397805 1.341951 -0.77937 1.06066 -1.06066 
C 0.77937 -1.341951 0.397805 -1.5 0 -1.5 
C -0.397805 -1.5 -0.77937 -1.341951 -1.06066 -1.06066 
C -1.341951 -0.77937 -1.5 -0.397805 -1.5 0 
C -1.5 0.397805 -1.341951 0.77937 -1.06066 1.06066 
C -0.77937 1.341951 -0.397805 1.5 0 1.5 
z
" style="stroke: #1f77b4"/>
    </defs>
    <g clip-path="url(#p63af5d7402)">
     <use xlink:href="#m05a58686fd" x="44.735095" y="387.100937" style="fill: #1f77b4; stroke: #1f77b4"/>
     <use xlink:href="#m05a58686fd" x="59.833449" y="363.200773" style="fill: #1f77b4; stroke: #1f77b4"/>
     <use xlink:href="#m05a58686fd" x="74.931804" y="363.200773" style="fill: #1f77b4; stroke: #1f77b4"/>
     <use xlink:href="#m05a58686fd" x="90.030158" y="351.250691" style="fill: #1f77b4; stroke: #1f77b4"/>
     <use xlink:href="#m05a58686fd" x="105.128513" y="339.300609" style="fill: #1f77b4; stroke: #1f77b4"/>
     <use xlink:href="#m05a58686fd" x="120.226867" y="339.300609" style="fill: #1f77b4; stroke: #1f77b4"/>
     <use xlink:href="#m05a58686fd" x="135.325222" y="315.400445" style="fill: #1f77b4; stroke: #1f77b4"/>
     <use xlink:href="#m05a58686fd" x="150.423576" y="303.450363" style="fill: #1f77b4; stroke: #1f77b4"/>
     <use xlink:href="#m05a58686fd" x="165.52193" y="267.600116" style="fill: #1f77b4; stroke: #1f77b4"/>
     <use xlink:href="#m05a58686fd" x="180.620285" y="255.650034" style="fill: #1f77b4; stroke: #1f77b4"/>
     <use xlink:href="#m05a58686fd" x="195.718639" y="255.650034" style="fill: #1f77b4; stroke: #1f77b4"/>
     <use xlink:href="#m05a58686fd" x="210.816994" y="255.650034" style="fill: #1f77b4; stroke: #1f77b4"/>
     <use xlink:href="#m05a58686fd" x="225.915348" y="255.650034" style="fill: #1f77b4; stroke: #1f77b4"/>
     <use xlink:href="#m05a58686fd" x="241.013703" y="255.650034" style="fill: #1f77b4; stroke: #1f77b4"/>
     <use xlink:href="#m05a58686fd" x="256.112057" y="243.699952" style="fill: #1f77b4; stroke: #1f77b4"/>
     <use xlink:href="#m05a58686fd" x="271.210411" y="231.74987" style="fill: #1f77b4; stroke: #1f77b4"/>
     <use xlink:href="#m05a58686fd" x="286.308766" y="219.799788" style="fill: #1f77b4; stroke: #1f77b4"/>
     <use xlink:href="#m05a58686fd" x="301.40712" y="195.899624" style="fill: #1f77b4; stroke: #1f77b4"/>
     <use xlink:href="#m05a58686fd" x="316.505475" y="183.949542" style="fill: #1f77b4; stroke: #1f77b4"/>
     <use xlink:href="#m05a58686fd" x="331.603829" y="171.99946" style="fill: #1f77b4; stroke: #1f77b4"/>
     <use xlink:href="#m05a58686fd" x="346.702184" y="148.099295" style="fill: #1f77b4; stroke: #1f77b4"/>
     <use xlink:href="#m05a58686fd" x="361.800538" y="148.099295" style="fill: #1f77b4; stroke: #1f77b4"/>
     <use xlink:href="#m05a58686fd" x="376.898892" y="136.149213" style="fill: #1f77b4; stroke: #1f77b4"/>
     <use xlink:href="#m05a58686fd" x="391.997247" y="124.199131" style="fill: #1f77b4; stroke: #1f77b4"/>
     <use xlink:href="#m05a58686fd" x="407.095601" y="124.199131" style="fill: #1f77b4; stroke: #1f77b4"/>
     <use xlink:href="#m05a58686fd" x="422.193956" y="100.298967" style="fill: #1f77b4; stroke: #1f77b4"/>
     <use xlink:href="#m05a58686fd" x="437.29231" y="100.298967" style="fill: #1f77b4; stroke: #1f77b4"/>
     <use xlink:href="#m05a58686fd" x="452.390665" y="88.348885" style="fill: #1f77b4; stroke: #1f77b4"/>
     <use xlink:href="#m05a58686fd" x="467.489019" y="88.348885" style="fill: #1f77b4; stroke: #1f77b4"/>
     <use xlink:href="#m05a58686fd" x="482.587373" y="88.348885" style="fill: #1f77b4; stroke: #1f77b4"/>
     <use xlink:href="#m05a58686fd" x="497.685728" y="88.348885" style="fill: #1f77b4; stroke: #1f77b4"/>
     <use xlink:href="#m05a58686fd" x="512.784082" y="76.398803" style="fill: #1f77b4; stroke: #1f77b4"/>
     <use xlink:href="#m05a58686fd" x="527.882437" y="76.398803" style="fill: #1f77b4; stroke: #1f77b4"/>
     <use xlink:href="#m05a58686fd" x="542.980791" y="76.398803" style="fill: #1f77b4; stroke: #1f77b4"/>
     <use xlink:href="#m05a58686fd" x="558.079146" y="76.398803" style="fill: #1f77b4; stroke: #1f77b4"/>
     <use xlink:href="#m05a58686fd" x="573.1775" y="52.498639" style="fill: #1f77b4; stroke: #1f77b4"/>
     <use xlink:href="#m05a58686fd" x="588.275854" y="52.498639" style="fill: #1f77b4; stroke: #1f77b4"/>
     <use xlink:href="#m05a58686fd" x="603.374209" y="52.498639" style="fill: #1f77b4; stroke: #1f77b4"/>
     <use xlink:href="#m05a58686fd" x="618.472563" y="52.498639" style="fill: #1f77b4; stroke: #1f77b4"/>
     <use xlink:href="#m05a58686fd" x="633.570918" y="52.498639" style="fill: #1f77b4; stroke: #1f77b4"/>
     <use xlink:href="#m05a58686fd" x="648.669272" y="52.498639" style="fill: #1f77b4; stroke: #1f77b4"/>
     <use xlink:href="#m05a58686fd" x="663.767627" y="40.548557" style="fill: #1f77b4; stroke: #1f77b4"/>
     <use xlink:href="#m05a58686fd" x="678.865981" y="40.548557" style="fill: #1f77b4; stroke: #1f77b4"/>
     <use xlink:href="#m05a58686fd" x="693.964335" y="40.548557" style="fill: #1f77b4; stroke: #1f77b4"/>
    </g>
   </g>
   <g id="line2d_30">
    <path d="M 44.735095 387.100937 
L 46.41269 387.100937 
L 49.76788 363.200773 
L 66.543829 363.200773 
L 68.221424 351.250691 
L 71.576614 351.250691 
L 73.254209 339.300609 
L 103.450918 339.300609 
L 106.806108 315.400445 
L 128.614842 315.400445 
L 130.292437 303.450363 
L 153.778766 303.450363 
L 157.133956 279.550199 
L 189.008259 279.550199 
L 190.685854 267.600116 
L 200.751424 267.600116 
L 202.429019 255.650034 
L 227.592943 255.650034 
L 229.270538 243.699952 
L 232.625728 243.699952 
L 234.303323 231.74987 
L 239.336108 231.74987 
L 244.368892 195.899624 
L 256.112057 195.899624 
L 257.789652 183.949542 
L 299.729525 183.949542 
L 301.40712 171.99946 
L 314.82788 171.99946 
L 316.505475 160.049378 
L 341.669399 160.049378 
L 343.346994 148.099295 
L 351.734968 148.099295 
L 353.412563 136.149213 
L 355.090158 136.149213 
L 356.767753 124.199131 
L 371.866108 124.199131 
L 373.543703 112.249049 
L 408.773196 112.249049 
L 410.450791 100.298967 
L 428.904335 100.298967 
L 430.58193 88.348885 
L 437.29231 88.348885 
L 438.969905 76.398803 
L 480.909778 76.398803 
L 482.587373 64.448721 
L 494.330538 64.448721 
L 496.008133 52.498639 
L 568.144715 52.498639 
L 569.82231 40.548557 
L 705.7075 40.548557 
L 705.7075 40.548557 
" clip-path="url(#p63af5d7402)" style="fill: none; stroke: #ff7f0e; stroke-width: 2; stroke-linecap: square"/>
    <defs>
     <path id="m79fc31e1d7" d="M 0 1.5 
C 0.397805 1.5 0.77937 1.341951 1.06066 1.06066 
C 1.341951 0.77937 1.5 0.397805 1.5 0 
C 1.5 -0.397805 1.341951 -0.77937 1.06066 -1.06066 
C 0.77937 -1.341951 0.397805 -1.5 0 -1.5 
C -0.397805 -1.5 -0.77937 -1.341951 -1.06066 -1.06066 
C -1.341951 -0.77937 -1.5 -0.397805 -1.5 0 
C -1.5 0.397805 -1.341951 0.77937 -1.06066 1.06066 
C -0.77937 1.341951 -0.397805 1.5 0 1.5 
z
" style="stroke: #ff7f0e"/>
    </defs>
    <g clip-path="url(#p63af5d7402)">
     <use xlink:href="#m79fc31e1d7" x="44.735095" y="387.100937" style="fill: #ff7f0e; stroke: #ff7f0e"/>
     <use xlink:href="#m79fc31e1d7" x="59.833449" y="363.200773" style="fill: #ff7f0e; stroke: #ff7f0e"/>
     <use xlink:href="#m79fc31e1d7" x="74.931804" y="339.300609" style="fill: #ff7f0e; stroke: #ff7f0e"/>
     <use xlink:href="#m79fc31e1d7" x="90.030158" y="339.300609" style="fill: #ff7f0e; stroke: #ff7f0e"/>
     <use xlink:href="#m79fc31e1d7" x="105.128513" y="327.350527" style="fill: #ff7f0e; stroke: #ff7f0e"/>
     <use xlink:href="#m79fc31e1d7" x="120.226867" y="315.400445" style="fill: #ff7f0e; stroke: #ff7f0e"/>
     <use xlink:href="#m79fc31e1d7" x="135.325222" y="303.450363" style="fill: #ff7f0e; stroke: #ff7f0e"/>
     <use xlink:href="#m79fc31e1d7" x="150.423576" y="303.450363" style="fill: #ff7f0e; stroke: #ff7f0e"/>
     <use xlink:href="#m79fc31e1d7" x="165.52193" y="279.550199" style="fill: #ff7f0e; stroke: #ff7f0e"/>
     <use xlink:href="#m79fc31e1d7" x="180.620285" y="279.550199" style="fill: #ff7f0e; stroke: #ff7f0e"/>
     <use xlink:href="#m79fc31e1d7" x="195.718639" y="267.600116" style="fill: #ff7f0e; stroke: #ff7f0e"/>
     <use xlink:href="#m79fc31e1d7" x="210.816994" y="255.650034" style="fill: #ff7f0e; stroke: #ff7f0e"/>
     <use xlink:href="#m79fc31e1d7" x="225.915348" y="255.650034" style="fill: #ff7f0e; stroke: #ff7f0e"/>
     <use xlink:href="#m79fc31e1d7" x="241.013703" y="219.799788" style="fill: #ff7f0e; stroke: #ff7f0e"/>
     <use xlink:href="#m79fc31e1d7" x="256.112057" y="195.899624" style="fill: #ff7f0e; stroke: #ff7f0e"/>
     <use xlink:href="#m79fc31e1d7" x="271.210411" y="183.949542" style="fill: #ff7f0e; stroke: #ff7f0e"/>
     <use xlink:href="#m79fc31e1d7" x="286.308766" y="183.949542" style="fill: #ff7f0e; stroke: #ff7f0e"/>
     <use xlink:href="#m79fc31e1d7" x="301.40712" y="171.99946" style="fill: #ff7f0e; stroke: #ff7f0e"/>
     <use xlink:href="#m79fc31e1d7" x="316.505475" y="160.049378" style="fill: #ff7f0e; stroke: #ff7f0e"/>
     <use xlink:href="#m79fc31e1d7" x="331.603829" y="160.049378" style="fill: #ff7f0e; stroke: #ff7f0e"/>
     <use xlink:href="#m79fc31e1d7" x="346.702184" y="148.099295" style="fill: #ff7f0e; stroke: #ff7f0e"/>
     <use xlink:href="#m79fc31e1d7" x="361.800538" y="124.199131" style="fill: #ff7f0e; stroke: #ff7f0e"/>
     <use xlink:href="#m79fc31e1d7" x="376.898892" y="112.249049" style="fill: #ff7f0e; stroke: #ff7f0e"/>
     <use xlink:href="#m79fc31e1d7" x="391.997247" y="112.249049" style="fill: #ff7f0e; stroke: #ff7f0e"/>
     <use xlink:href="#m79fc31e1d7" x="407.095601" y="112.249049" style="fill: #ff7f0e; stroke: #ff7f0e"/>
     <use xlink:href="#m79fc31e1d7" x="422.193956" y="100.298967" style="fill: #ff7f0e; stroke: #ff7f0e"/>
     <use xlink:href="#m79fc31e1d7" x="437.29231" y="88.348885" style="fill: #ff7f0e; stroke: #ff7f0e"/>
     <use xlink:href="#m79fc31e1d7" x="452.390665" y="76.398803" style="fill: #ff7f0e; stroke: #ff7f0e"/>
     <use xlink:href="#m79fc31e1d7" x="467.489019" y="76.398803" style="fill: #ff7f0e; stroke: #ff7f0e"/>
     <use xlink:href="#m79fc31e1d7" x="482.587373" y="64.448721" style="fill: #ff7f0e; stroke: #ff7f0e"/>
     <use xlink:href="#m79fc31e1d7" x="497.685728" y="52.498639" style="fill: #ff7f0e; stroke: #ff7f0e"/>
     <use xlink:href="#m79fc31e1d7" x="512.784082" y="52.498639" style="fill: #ff7f0e; stroke: #ff7f0e"/>
     <use xlink:href="#m79fc31e1d7" x="527.882437" y="52.498639" style="fill: #ff7f0e; stroke: #ff7f0e"/>
     <use xlink:href="#m79fc31e1d7" x="542.980791" y="52.498639" style="fill: #ff7f0e; stroke: #ff7f0e"/>
     <use xlink:href="#m79fc31e1d7" x="558.079146" y="52.498639" style="fill: #ff7f0e; stroke: #ff7f0e"/>
     <use xlink:href="#m79fc31e1d7" x="573.1775" y="40.548557" style="fill: #ff7f0e; stroke: #ff7f0e"/>
     <use xlink:href="#m79fc31e1d7" x="588.275854" y="40.548557" style="fill: #ff7f0e; stroke: #ff7f0e"/>
     <use xlink:href="#m79fc31e1d7" x="603.374209" y="40.548557" style="fill: #ff7f0e; stroke: #ff7f0e"/>
     <use xlink:href="#m79fc31e1d7" x="618.472563" y="40.548557" style="fill: #ff7f0e; stroke: #ff7f0e"/>
     <use xlink:href="#m79fc31e1d7" x="633.570918" y="40.548557" style="fill: #ff7f0e; stroke: #ff7f0e"/>
     <use xlink:href="#m79fc31e1d7" x="648.669272" y="40.548557" style="fill: #ff7f0e; stroke: #ff7f0e"/>
     <use xlink:href="#m79fc31e1d7" x="663.767627" y="40.548557" style="fill: #ff7f0e; stroke: #ff7f0e"/>
     <use xlink:href="#m79fc31e1d7" x="678.865981" y="40.548557" style="fill: #ff7f0e; stroke: #ff7f0e"/>
     <use xlink:href="#m79fc31e1d7" x="693.964335" y="40.548557" style="fill: #ff7f0e; stroke: #ff7f0e"/>
    </g>
   </g>
   <g id="line2d_31">
    <path d="M 44.735095 387.100937 
L 53.12307 387.100937 
L 54.800665 375.150855 
L 84.997373 375.150855 
L 86.674968 363.200773 
L 98.418133 363.200773 
L 100.095728 351.250691 
L 103.450918 351.250691 
L 105.128513 339.300609 
L 128.614842 339.300609 
L 130.292437 327.350527 
L 131.970032 327.350527 
L 133.647627 315.400445 
L 173.909905 315.400445 
L 175.5875 303.450363 
L 180.620285 303.450363 
L 182.29788 291.500281 
L 204.106614 291.500281 
L 205.784209 279.550199 
L 217.527373 279.550199 
L 219.204968 267.600116 
L 227.592943 267.600116 
L 229.270538 255.650034 
L 259.467247 255.650034 
L 261.144842 243.699952 
L 296.374335 243.699952 
L 298.05193 231.74987 
L 303.084715 231.74987 
L 308.1175 195.899624 
L 371.866108 195.899624 
L 373.543703 183.949542 
L 397.030032 183.949542 
L 400.385222 160.049378 
L 452.390665 160.049378 
L 454.068259 148.099295 
L 484.264968 148.099295 
L 485.942563 136.149213 
L 509.428892 136.149213 
L 511.106487 124.199131 
L 539.625601 124.199131 
L 541.303196 112.249049 
L 542.980791 112.249049 
L 544.658386 100.298967 
L 548.013576 100.298967 
L 549.691171 88.348885 
L 551.368766 88.348885 
L 553.046361 76.398803 
L 608.406994 76.398803 
L 610.084589 64.448721 
L 648.669272 64.448721 
L 650.346867 52.498639 
L 665.445222 52.498639 
L 667.122816 40.548557 
L 705.7075 40.548557 
L 705.7075 40.548557 
" clip-path="url(#p63af5d7402)" style="fill: none; stroke: #2ca02c; stroke-width: 2; stroke-linecap: square"/>
    <defs>
     <path id="m0316337ce8" d="M 0 1.5 
C 0.397805 1.5 0.77937 1.341951 1.06066 1.06066 
C 1.341951 0.77937 1.5 0.397805 1.5 0 
C 1.5 -0.397805 1.341951 -0.77937 1.06066 -1.06066 
C 0.77937 -1.341951 0.397805 -1.5 0 -1.5 
C -0.397805 -1.5 -0.77937 -1.341951 -1.06066 -1.06066 
C -1.341951 -0.77937 -1.5 -0.397805 -1.5 0 
C -1.5 0.397805 -1.341951 0.77937 -1.06066 1.06066 
C -0.77937 1.341951 -0.397805 1.5 0 1.5 
z
" style="stroke: #2ca02c"/>
    </defs>
    <g clip-path="url(#p63af5d7402)">
     <use xlink:href="#m0316337ce8" x="44.735095" y="387.100937" style="fill: #2ca02c; stroke: #2ca02c"/>
     <use xlink:href="#m0316337ce8" x="59.833449" y="375.150855" style="fill: #2ca02c; stroke: #2ca02c"/>
     <use xlink:href="#m0316337ce8" x="74.931804" y="375.150855" style="fill: #2ca02c; stroke: #2ca02c"/>
     <use xlink:href="#m0316337ce8" x="90.030158" y="363.200773" style="fill: #2ca02c; stroke: #2ca02c"/>
     <use xlink:href="#m0316337ce8" x="105.128513" y="339.300609" style="fill: #2ca02c; stroke: #2ca02c"/>
     <use xlink:href="#m0316337ce8" x="120.226867" y="339.300609" style="fill: #2ca02c; stroke: #2ca02c"/>
     <use xlink:href="#m0316337ce8" x="135.325222" y="315.400445" style="fill: #2ca02c; stroke: #2ca02c"/>
     <use xlink:href="#m0316337ce8" x="150.423576" y="315.400445" style="fill: #2ca02c; stroke: #2ca02c"/>
     <use xlink:href="#m0316337ce8" x="165.52193" y="315.400445" style="fill: #2ca02c; stroke: #2ca02c"/>
     <use xlink:href="#m0316337ce8" x="180.620285" y="303.450363" style="fill: #2ca02c; stroke: #2ca02c"/>
     <use xlink:href="#m0316337ce8" x="195.718639" y="291.500281" style="fill: #2ca02c; stroke: #2ca02c"/>
     <use xlink:href="#m0316337ce8" x="210.816994" y="279.550199" style="fill: #2ca02c; stroke: #2ca02c"/>
     <use xlink:href="#m0316337ce8" x="225.915348" y="267.600116" style="fill: #2ca02c; stroke: #2ca02c"/>
     <use xlink:href="#m0316337ce8" x="241.013703" y="255.650034" style="fill: #2ca02c; stroke: #2ca02c"/>
     <use xlink:href="#m0316337ce8" x="256.112057" y="255.650034" style="fill: #2ca02c; stroke: #2ca02c"/>
     <use xlink:href="#m0316337ce8" x="271.210411" y="243.699952" style="fill: #2ca02c; stroke: #2ca02c"/>
     <use xlink:href="#m0316337ce8" x="286.308766" y="243.699952" style="fill: #2ca02c; stroke: #2ca02c"/>
     <use xlink:href="#m0316337ce8" x="301.40712" y="231.74987" style="fill: #2ca02c; stroke: #2ca02c"/>
     <use xlink:href="#m0316337ce8" x="316.505475" y="195.899624" style="fill: #2ca02c; stroke: #2ca02c"/>
     <use xlink:href="#m0316337ce8" x="331.603829" y="195.899624" style="fill: #2ca02c; stroke: #2ca02c"/>
     <use xlink:href="#m0316337ce8" x="346.702184" y="195.899624" style="fill: #2ca02c; stroke: #2ca02c"/>
     <use xlink:href="#m0316337ce8" x="361.800538" y="195.899624" style="fill: #2ca02c; stroke: #2ca02c"/>
     <use xlink:href="#m0316337ce8" x="376.898892" y="183.949542" style="fill: #2ca02c; stroke: #2ca02c"/>
     <use xlink:href="#m0316337ce8" x="391.997247" y="183.949542" style="fill: #2ca02c; stroke: #2ca02c"/>
     <use xlink:href="#m0316337ce8" x="407.095601" y="160.049378" style="fill: #2ca02c; stroke: #2ca02c"/>
     <use xlink:href="#m0316337ce8" x="422.193956" y="160.049378" style="fill: #2ca02c; stroke: #2ca02c"/>
     <use xlink:href="#m0316337ce8" x="437.29231" y="160.049378" style="fill: #2ca02c; stroke: #2ca02c"/>
     <use xlink:href="#m0316337ce8" x="452.390665" y="160.049378" style="fill: #2ca02c; stroke: #2ca02c"/>
     <use xlink:href="#m0316337ce8" x="467.489019" y="148.099295" style="fill: #2ca02c; stroke: #2ca02c"/>
     <use xlink:href="#m0316337ce8" x="482.587373" y="148.099295" style="fill: #2ca02c; stroke: #2ca02c"/>
     <use xlink:href="#m0316337ce8" x="497.685728" y="136.149213" style="fill: #2ca02c; stroke: #2ca02c"/>
     <use xlink:href="#m0316337ce8" x="512.784082" y="124.199131" style="fill: #2ca02c; stroke: #2ca02c"/>
     <use xlink:href="#m0316337ce8" x="527.882437" y="124.199131" style="fill: #2ca02c; stroke: #2ca02c"/>
     <use xlink:href="#m0316337ce8" x="542.980791" y="112.249049" style="fill: #2ca02c; stroke: #2ca02c"/>
     <use xlink:href="#m0316337ce8" x="558.079146" y="76.398803" style="fill: #2ca02c; stroke: #2ca02c"/>
     <use xlink:href="#m0316337ce8" x="573.1775" y="76.398803" style="fill: #2ca02c; stroke: #2ca02c"/>
     <use xlink:href="#m0316337ce8" x="588.275854" y="76.398803" style="fill: #2ca02c; stroke: #2ca02c"/>
     <use xlink:href="#m0316337ce8" x="603.374209" y="76.398803" style="fill: #2ca02c; stroke: #2ca02c"/>
     <use xlink:href="#m0316337ce8" x="618.472563" y="64.448721" style="fill: #2ca02c; stroke: #2ca02c"/>
     <use xlink:href="#m0316337ce8" x="633.570918" y="64.448721" style="fill: #2ca02c; stroke: #2ca02c"/>
     <use xlink:href="#m0316337ce8" x="648.669272" y="64.448721" style="fill: #2ca02c; stroke: #2ca02c"/>
     <use xlink:href="#m0316337ce8" x="663.767627" y="52.498639" style="fill: #2ca02c; stroke: #2ca02c"/>
     <use xlink:href="#m0316337ce8" x="678.865981" y="40.548557" style="fill: #2ca02c; stroke: #2ca02c"/>
     <use xlink:href="#m0316337ce8" x="693.964335" y="40.548557" style="fill: #2ca02c; stroke: #2ca02c"/>
    </g>
   </g>
   <g id="line2d_32">
    <path d="M 44.735095 387.100937 
L 48.090285 387.100937 
L 49.76788 375.150855 
L 53.12307 375.150855 
L 54.800665 363.200773 
L 56.478259 363.200773 
L 58.155854 351.250691 
L 90.030158 351.250691 
L 91.707753 339.300609 
L 118.549272 339.300609 
L 120.226867 327.350527 
L 130.292437 327.350527 
L 131.970032 315.400445 
L 135.325222 315.400445 
L 137.002816 303.450363 
L 148.745981 303.450363 
L 150.423576 291.500281 
L 170.554715 291.500281 
L 172.23231 279.550199 
L 189.008259 279.550199 
L 190.685854 267.600116 
L 219.204968 267.600116 
L 222.560158 243.699952 
L 239.336108 243.699952 
L 241.013703 231.74987 
L 251.079272 231.74987 
L 252.756867 219.799788 
L 266.177627 219.799788 
L 267.855222 207.849706 
L 279.598386 207.849706 
L 281.275981 195.899624 
L 284.631171 195.899624 
L 286.308766 183.949542 
L 287.986361 183.949542 
L 289.663956 171.99946 
L 319.860665 171.99946 
L 321.538259 160.049378 
L 326.571044 160.049378 
L 328.248639 148.099295 
L 403.740411 148.099295 
L 405.418006 136.149213 
L 412.128386 136.149213 
L 413.805981 124.199131 
L 449.035475 124.199131 
L 450.71307 112.249049 
L 455.745854 112.249049 
L 457.423449 100.298967 
L 482.587373 100.298967 
L 484.264968 88.348885 
L 507.751297 88.348885 
L 509.428892 76.398803 
L 526.204842 76.398803 
L 527.882437 64.448721 
L 618.472563 64.448721 
L 620.150158 52.498639 
L 626.860538 52.498639 
L 628.538133 40.548557 
L 705.7075 40.548557 
L 705.7075 40.548557 
" clip-path="url(#p63af5d7402)" style="fill: none; stroke: #9467bd; stroke-width: 2; stroke-linecap: square"/>
    <defs>
     <path id="m811625a583" d="M 0 1.5 
C 0.397805 1.5 0.77937 1.341951 1.06066 1.06066 
C 1.341951 0.77937 1.5 0.397805 1.5 0 
C 1.5 -0.397805 1.341951 -0.77937 1.06066 -1.06066 
C 0.77937 -1.341951 0.397805 -1.5 0 -1.5 
C -0.397805 -1.5 -0.77937 -1.341951 -1.06066 -1.06066 
C -1.341951 -0.77937 -1.5 -0.397805 -1.5 0 
C -1.5 0.397805 -1.341951 0.77937 -1.06066 1.06066 
C -0.77937 1.341951 -0.397805 1.5 0 1.5 
z
" style="stroke: #9467bd"/>
    </defs>
    <g clip-path="url(#p63af5d7402)">
     <use xlink:href="#m811625a583" x="44.735095" y="387.100937" style="fill: #9467bd; stroke: #9467bd"/>
     <use xlink:href="#m811625a583" x="59.833449" y="351.250691" style="fill: #9467bd; stroke: #9467bd"/>
     <use xlink:href="#m811625a583" x="74.931804" y="351.250691" style="fill: #9467bd; stroke: #9467bd"/>
     <use xlink:href="#m811625a583" x="90.030158" y="351.250691" style="fill: #9467bd; stroke: #9467bd"/>
     <use xlink:href="#m811625a583" x="105.128513" y="339.300609" style="fill: #9467bd; stroke: #9467bd"/>
     <use xlink:href="#m811625a583" x="120.226867" y="327.350527" style="fill: #9467bd; stroke: #9467bd"/>
     <use xlink:href="#m811625a583" x="135.325222" y="315.400445" style="fill: #9467bd; stroke: #9467bd"/>
     <use xlink:href="#m811625a583" x="150.423576" y="291.500281" style="fill: #9467bd; stroke: #9467bd"/>
     <use xlink:href="#m811625a583" x="165.52193" y="291.500281" style="fill: #9467bd; stroke: #9467bd"/>
     <use xlink:href="#m811625a583" x="180.620285" y="279.550199" style="fill: #9467bd; stroke: #9467bd"/>
     <use xlink:href="#m811625a583" x="195.718639" y="267.600116" style="fill: #9467bd; stroke: #9467bd"/>
     <use xlink:href="#m811625a583" x="210.816994" y="267.600116" style="fill: #9467bd; stroke: #9467bd"/>
     <use xlink:href="#m811625a583" x="225.915348" y="243.699952" style="fill: #9467bd; stroke: #9467bd"/>
     <use xlink:href="#m811625a583" x="241.013703" y="231.74987" style="fill: #9467bd; stroke: #9467bd"/>
     <use xlink:href="#m811625a583" x="256.112057" y="219.799788" style="fill: #9467bd; stroke: #9467bd"/>
     <use xlink:href="#m811625a583" x="271.210411" y="207.849706" style="fill: #9467bd; stroke: #9467bd"/>
     <use xlink:href="#m811625a583" x="286.308766" y="183.949542" style="fill: #9467bd; stroke: #9467bd"/>
     <use xlink:href="#m811625a583" x="301.40712" y="171.99946" style="fill: #9467bd; stroke: #9467bd"/>
     <use xlink:href="#m811625a583" x="316.505475" y="171.99946" style="fill: #9467bd; stroke: #9467bd"/>
     <use xlink:href="#m811625a583" x="331.603829" y="148.099295" style="fill: #9467bd; stroke: #9467bd"/>
     <use xlink:href="#m811625a583" x="346.702184" y="148.099295" style="fill: #9467bd; stroke: #9467bd"/>
     <use xlink:href="#m811625a583" x="361.800538" y="148.099295" style="fill: #9467bd; stroke: #9467bd"/>
     <use xlink:href="#m811625a583" x="376.898892" y="148.099295" style="fill: #9467bd; stroke: #9467bd"/>
     <use xlink:href="#m811625a583" x="391.997247" y="148.099295" style="fill: #9467bd; stroke: #9467bd"/>
     <use xlink:href="#m811625a583" x="407.095601" y="136.149213" style="fill: #9467bd; stroke: #9467bd"/>
     <use xlink:href="#m811625a583" x="422.193956" y="124.199131" style="fill: #9467bd; stroke: #9467bd"/>
     <use xlink:href="#m811625a583" x="437.29231" y="124.199131" style="fill: #9467bd; stroke: #9467bd"/>
     <use xlink:href="#m811625a583" x="452.390665" y="112.249049" style="fill: #9467bd; stroke: #9467bd"/>
     <use xlink:href="#m811625a583" x="467.489019" y="100.298967" style="fill: #9467bd; stroke: #9467bd"/>
     <use xlink:href="#m811625a583" x="482.587373" y="100.298967" style="fill: #9467bd; stroke: #9467bd"/>
     <use xlink:href="#m811625a583" x="497.685728" y="88.348885" style="fill: #9467bd; stroke: #9467bd"/>
     <use xlink:href="#m811625a583" x="512.784082" y="76.398803" style="fill: #9467bd; stroke: #9467bd"/>
     <use xlink:href="#m811625a583" x="527.882437" y="64.448721" style="fill: #9467bd; stroke: #9467bd"/>
     <use xlink:href="#m811625a583" x="542.980791" y="64.448721" style="fill: #9467bd; stroke: #9467bd"/>
     <use xlink:href="#m811625a583" x="558.079146" y="64.448721" style="fill: #9467bd; stroke: #9467bd"/>
     <use xlink:href="#m811625a583" x="573.1775" y="64.448721" style="fill: #9467bd; stroke: #9467bd"/>
     <use xlink:href="#m811625a583" x="588.275854" y="64.448721" style="fill: #9467bd; stroke: #9467bd"/>
     <use xlink:href="#m811625a583" x="603.374209" y="64.448721" style="fill: #9467bd; stroke: #9467bd"/>
     <use xlink:href="#m811625a583" x="618.472563" y="64.448721" style="fill: #9467bd; stroke: #9467bd"/>
     <use xlink:href="#m811625a583" x="633.570918" y="40.548557" style="fill: #9467bd; stroke: #9467bd"/>
     <use xlink:href="#m811625a583" x="648.669272" y="40.548557" style="fill: #9467bd; stroke: #9467bd"/>
     <use xlink:href="#m811625a583" x="663.767627" y="40.548557" style="fill: #9467bd; stroke: #9467bd"/>
     <use xlink:href="#m811625a583" x="678.865981" y="40.548557" style="fill: #9467bd; stroke: #9467bd"/>
     <use xlink:href="#m811625a583" x="693.964335" y="40.548557" style="fill: #9467bd; stroke: #9467bd"/>
    </g>
   </g>
   <g id="line2d_33">
    <path d="M 44.735095 387.100937 
L 46.41269 387.100937 
L 48.090285 375.150855 
L 53.12307 375.150855 
L 54.800665 363.200773 
L 56.478259 363.200773 
L 58.155854 351.250691 
L 84.997373 351.250691 
L 86.674968 339.300609 
L 100.095728 339.300609 
L 101.773323 327.350527 
L 108.483703 327.350527 
L 110.161297 315.400445 
L 133.647627 315.400445 
L 135.325222 303.450363 
L 192.363449 303.450363 
L 194.041044 291.500281 
L 195.718639 291.500281 
L 197.396234 279.550199 
L 204.106614 279.550199 
L 205.784209 267.600116 
L 214.172184 267.600116 
L 215.849778 255.650034 
L 225.915348 255.650034 
L 227.592943 243.699952 
L 247.724082 243.699952 
L 249.401677 231.74987 
L 257.789652 231.74987 
L 262.822437 195.899624 
L 298.05193 195.899624 
L 299.729525 183.949542 
L 329.926234 183.949542 
L 331.603829 171.99946 
L 339.991804 171.99946 
L 341.669399 160.049378 
L 366.833323 160.049378 
L 368.510918 148.099295 
L 388.642057 148.099295 
L 390.319652 136.149213 
L 405.418006 136.149213 
L 410.450791 100.298967 
L 412.128386 100.298967 
L 413.805981 88.348885 
L 418.838766 88.348885 
L 420.516361 76.398803 
L 522.849652 76.398803 
L 524.527247 64.448721 
L 598.341424 64.448721 
L 600.019019 52.498639 
L 645.314082 52.498639 
L 646.991677 40.548557 
L 705.7075 40.548557 
L 705.7075 40.548557 
" clip-path="url(#p63af5d7402)" style="fill: none; stroke: #8c564b; stroke-width: 2; stroke-linecap: square"/>
    <defs>
     <path id="m4010eb4ef9" d="M 0 1.5 
C 0.397805 1.5 0.77937 1.341951 1.06066 1.06066 
C 1.341951 0.77937 1.5 0.397805 1.5 0 
C 1.5 -0.397805 1.341951 -0.77937 1.06066 -1.06066 
C 0.77937 -1.341951 0.397805 -1.5 0 -1.5 
C -0.397805 -1.5 -0.77937 -1.341951 -1.06066 -1.06066 
C -1.341951 -0.77937 -1.5 -0.397805 -1.5 0 
C -1.5 0.397805 -1.341951 0.77937 -1.06066 1.06066 
C -0.77937 1.341951 -0.397805 1.5 0 1.5 
z
" style="stroke: #8c564b"/>
    </defs>
    <g clip-path="url(#p63af5d7402)">
     <use xlink:href="#m4010eb4ef9" x="44.735095" y="387.100937" style="fill: #8c564b; stroke: #8c564b"/>
     <use xlink:href="#m4010eb4ef9" x="59.833449" y="351.250691" style="fill: #8c564b; stroke: #8c564b"/>
     <use xlink:href="#m4010eb4ef9" x="74.931804" y="351.250691" style="fill: #8c564b; stroke: #8c564b"/>
     <use xlink:href="#m4010eb4ef9" x="90.030158" y="339.300609" style="fill: #8c564b; stroke: #8c564b"/>
     <use xlink:href="#m4010eb4ef9" x="105.128513" y="327.350527" style="fill: #8c564b; stroke: #8c564b"/>
     <use xlink:href="#m4010eb4ef9" x="120.226867" y="315.400445" style="fill: #8c564b; stroke: #8c564b"/>
     <use xlink:href="#m4010eb4ef9" x="135.325222" y="303.450363" style="fill: #8c564b; stroke: #8c564b"/>
     <use xlink:href="#m4010eb4ef9" x="150.423576" y="303.450363" style="fill: #8c564b; stroke: #8c564b"/>
     <use xlink:href="#m4010eb4ef9" x="165.52193" y="303.450363" style="fill: #8c564b; stroke: #8c564b"/>
     <use xlink:href="#m4010eb4ef9" x="180.620285" y="303.450363" style="fill: #8c564b; stroke: #8c564b"/>
     <use xlink:href="#m4010eb4ef9" x="195.718639" y="291.500281" style="fill: #8c564b; stroke: #8c564b"/>
     <use xlink:href="#m4010eb4ef9" x="210.816994" y="267.600116" style="fill: #8c564b; stroke: #8c564b"/>
     <use xlink:href="#m4010eb4ef9" x="225.915348" y="255.650034" style="fill: #8c564b; stroke: #8c564b"/>
     <use xlink:href="#m4010eb4ef9" x="241.013703" y="243.699952" style="fill: #8c564b; stroke: #8c564b"/>
     <use xlink:href="#m4010eb4ef9" x="256.112057" y="231.74987" style="fill: #8c564b; stroke: #8c564b"/>
     <use xlink:href="#m4010eb4ef9" x="271.210411" y="195.899624" style="fill: #8c564b; stroke: #8c564b"/>
     <use xlink:href="#m4010eb4ef9" x="286.308766" y="195.899624" style="fill: #8c564b; stroke: #8c564b"/>
     <use xlink:href="#m4010eb4ef9" x="301.40712" y="183.949542" style="fill: #8c564b; stroke: #8c564b"/>
     <use xlink:href="#m4010eb4ef9" x="316.505475" y="183.949542" style="fill: #8c564b; stroke: #8c564b"/>
     <use xlink:href="#m4010eb4ef9" x="331.603829" y="171.99946" style="fill: #8c564b; stroke: #8c564b"/>
     <use xlink:href="#m4010eb4ef9" x="346.702184" y="160.049378" style="fill: #8c564b; stroke: #8c564b"/>
     <use xlink:href="#m4010eb4ef9" x="361.800538" y="160.049378" style="fill: #8c564b; stroke: #8c564b"/>
     <use xlink:href="#m4010eb4ef9" x="376.898892" y="148.099295" style="fill: #8c564b; stroke: #8c564b"/>
     <use xlink:href="#m4010eb4ef9" x="391.997247" y="136.149213" style="fill: #8c564b; stroke: #8c564b"/>
     <use xlink:href="#m4010eb4ef9" x="407.095601" y="124.199131" style="fill: #8c564b; stroke: #8c564b"/>
     <use xlink:href="#m4010eb4ef9" x="422.193956" y="76.398803" style="fill: #8c564b; stroke: #8c564b"/>
     <use xlink:href="#m4010eb4ef9" x="437.29231" y="76.398803" style="fill: #8c564b; stroke: #8c564b"/>
     <use xlink:href="#m4010eb4ef9" x="452.390665" y="76.398803" style="fill: #8c564b; stroke: #8c564b"/>
     <use xlink:href="#m4010eb4ef9" x="467.489019" y="76.398803" style="fill: #8c564b; stroke: #8c564b"/>
     <use xlink:href="#m4010eb4ef9" x="482.587373" y="76.398803" style="fill: #8c564b; stroke: #8c564b"/>
     <use xlink:href="#m4010eb4ef9" x="497.685728" y="76.398803" style="fill: #8c564b; stroke: #8c564b"/>
     <use xlink:href="#m4010eb4ef9" x="512.784082" y="76.398803" style="fill: #8c564b; stroke: #8c564b"/>
     <use xlink:href="#m4010eb4ef9" x="527.882437" y="64.448721" style="fill: #8c564b; stroke: #8c564b"/>
     <use xlink:href="#m4010eb4ef9" x="542.980791" y="64.448721" style="fill: #8c564b; stroke: #8c564b"/>
     <use xlink:href="#m4010eb4ef9" x="558.079146" y="64.448721" style="fill: #8c564b; stroke: #8c564b"/>
     <use xlink:href="#m4010eb4ef9" x="573.1775" y="64.448721" style="fill: #8c564b; stroke: #8c564b"/>
     <use xlink:href="#m4010eb4ef9" x="588.275854" y="64.448721" style="fill: #8c564b; stroke: #8c564b"/>
     <use xlink:href="#m4010eb4ef9" x="603.374209" y="52.498639" style="fill: #8c564b; stroke: #8c564b"/>
     <use xlink:href="#m4010eb4ef9" x="618.472563" y="52.498639" style="fill: #8c564b; stroke: #8c564b"/>
     <use xlink:href="#m4010eb4ef9" x="633.570918" y="52.498639" style="fill: #8c564b; stroke: #8c564b"/>
     <use xlink:href="#m4010eb4ef9" x="648.669272" y="40.548557" style="fill: #8c564b; stroke: #8c564b"/>
     <use xlink:href="#m4010eb4ef9" x="663.767627" y="40.548557" style="fill: #8c564b; stroke: #8c564b"/>
     <use xlink:href="#m4010eb4ef9" x="678.865981" y="40.548557" style="fill: #8c564b; stroke: #8c564b"/>
     <use xlink:href="#m4010eb4ef9" x="693.964335" y="40.548557" style="fill: #8c564b; stroke: #8c564b"/>
    </g>
   </g>
   <g id="line2d_34">
    <path d="M 44.735095 387.100937 
L 56.478259 387.100937 
L 58.155854 375.150855 
L 61.511044 375.150855 
L 63.188639 363.200773 
L 86.674968 363.200773 
L 90.030158 339.300609 
L 108.483703 339.300609 
L 111.838892 315.400445 
L 113.516487 315.400445 
L 116.871677 291.500281 
L 121.904462 291.500281 
L 123.582057 279.550199 
L 125.259652 279.550199 
L 126.937247 267.600116 
L 128.614842 267.600116 
L 130.292437 255.650034 
L 147.068386 255.650034 
L 148.745981 243.699952 
L 173.909905 243.699952 
L 175.5875 231.74987 
L 259.467247 231.74987 
L 261.144842 219.799788 
L 271.210411 219.799788 
L 272.888006 207.849706 
L 279.598386 207.849706 
L 281.275981 195.899624 
L 282.953576 195.899624 
L 284.631171 183.949542 
L 351.734968 183.949542 
L 353.412563 171.99946 
L 380.254082 171.99946 
L 381.931677 160.049378 
L 385.286867 160.049378 
L 388.642057 136.149213 
L 390.319652 136.149213 
L 391.997247 124.199131 
L 418.838766 124.199131 
L 420.516361 112.249049 
L 449.035475 112.249049 
L 450.71307 100.298967 
L 469.166614 100.298967 
L 470.844209 88.348885 
L 475.876994 88.348885 
L 477.554589 76.398803 
L 526.204842 76.398803 
L 527.882437 64.448721 
L 583.24307 64.448721 
L 584.920665 52.498639 
L 621.827753 52.498639 
L 623.505348 40.548557 
L 705.7075 40.548557 
L 705.7075 40.548557 
" clip-path="url(#p63af5d7402)" style="fill: none; stroke: #e377c2; stroke-width: 2; stroke-linecap: square"/>
    <defs>
     <path id="m8c288981c3" d="M 0 1.5 
C 0.397805 1.5 0.77937 1.341951 1.06066 1.06066 
C 1.341951 0.77937 1.5 0.397805 1.5 0 
C 1.5 -0.397805 1.341951 -0.77937 1.06066 -1.06066 
C 0.77937 -1.341951 0.397805 -1.5 0 -1.5 
C -0.397805 -1.5 -0.77937 -1.341951 -1.06066 -1.06066 
C -1.341951 -0.77937 -1.5 -0.397805 -1.5 0 
C -1.5 0.397805 -1.341951 0.77937 -1.06066 1.06066 
C -0.77937 1.341951 -0.397805 1.5 0 1.5 
z
" style="stroke: #e377c2"/>
    </defs>
    <g clip-path="url(#p63af5d7402)">
     <use xlink:href="#m8c288981c3" x="44.735095" y="387.100937" style="fill: #e377c2; stroke: #e377c2"/>
     <use xlink:href="#m8c288981c3" x="59.833449" y="375.150855" style="fill: #e377c2; stroke: #e377c2"/>
     <use xlink:href="#m8c288981c3" x="74.931804" y="363.200773" style="fill: #e377c2; stroke: #e377c2"/>
     <use xlink:href="#m8c288981c3" x="90.030158" y="339.300609" style="fill: #e377c2; stroke: #e377c2"/>
     <use xlink:href="#m8c288981c3" x="105.128513" y="339.300609" style="fill: #e377c2; stroke: #e377c2"/>
     <use xlink:href="#m8c288981c3" x="120.226867" y="291.500281" style="fill: #e377c2; stroke: #e377c2"/>
     <use xlink:href="#m8c288981c3" x="135.325222" y="255.650034" style="fill: #e377c2; stroke: #e377c2"/>
     <use xlink:href="#m8c288981c3" x="150.423576" y="243.699952" style="fill: #e377c2; stroke: #e377c2"/>
     <use xlink:href="#m8c288981c3" x="165.52193" y="243.699952" style="fill: #e377c2; stroke: #e377c2"/>
     <use xlink:href="#m8c288981c3" x="180.620285" y="231.74987" style="fill: #e377c2; stroke: #e377c2"/>
     <use xlink:href="#m8c288981c3" x="195.718639" y="231.74987" style="fill: #e377c2; stroke: #e377c2"/>
     <use xlink:href="#m8c288981c3" x="210.816994" y="231.74987" style="fill: #e377c2; stroke: #e377c2"/>
     <use xlink:href="#m8c288981c3" x="225.915348" y="231.74987" style="fill: #e377c2; stroke: #e377c2"/>
     <use xlink:href="#m8c288981c3" x="241.013703" y="231.74987" style="fill: #e377c2; stroke: #e377c2"/>
     <use xlink:href="#m8c288981c3" x="256.112057" y="231.74987" style="fill: #e377c2; stroke: #e377c2"/>
     <use xlink:href="#m8c288981c3" x="271.210411" y="219.799788" style="fill: #e377c2; stroke: #e377c2"/>
     <use xlink:href="#m8c288981c3" x="286.308766" y="183.949542" style="fill: #e377c2; stroke: #e377c2"/>
     <use xlink:href="#m8c288981c3" x="301.40712" y="183.949542" style="fill: #e377c2; stroke: #e377c2"/>
     <use xlink:href="#m8c288981c3" x="316.505475" y="183.949542" style="fill: #e377c2; stroke: #e377c2"/>
     <use xlink:href="#m8c288981c3" x="331.603829" y="183.949542" style="fill: #e377c2; stroke: #e377c2"/>
     <use xlink:href="#m8c288981c3" x="346.702184" y="183.949542" style="fill: #e377c2; stroke: #e377c2"/>
     <use xlink:href="#m8c288981c3" x="361.800538" y="171.99946" style="fill: #e377c2; stroke: #e377c2"/>
     <use xlink:href="#m8c288981c3" x="376.898892" y="171.99946" style="fill: #e377c2; stroke: #e377c2"/>
     <use xlink:href="#m8c288981c3" x="391.997247" y="124.199131" style="fill: #e377c2; stroke: #e377c2"/>
     <use xlink:href="#m8c288981c3" x="407.095601" y="124.199131" style="fill: #e377c2; stroke: #e377c2"/>
     <use xlink:href="#m8c288981c3" x="422.193956" y="112.249049" style="fill: #e377c2; stroke: #e377c2"/>
     <use xlink:href="#m8c288981c3" x="437.29231" y="112.249049" style="fill: #e377c2; stroke: #e377c2"/>
     <use xlink:href="#m8c288981c3" x="452.390665" y="100.298967" style="fill: #e377c2; stroke: #e377c2"/>
     <use xlink:href="#m8c288981c3" x="467.489019" y="100.298967" style="fill: #e377c2; stroke: #e377c2"/>
     <use xlink:href="#m8c288981c3" x="482.587373" y="76.398803" style="fill: #e377c2; stroke: #e377c2"/>
     <use xlink:href="#m8c288981c3" x="497.685728" y="76.398803" style="fill: #e377c2; stroke: #e377c2"/>
     <use xlink:href="#m8c288981c3" x="512.784082" y="76.398803" style="fill: #e377c2; stroke: #e377c2"/>
     <use xlink:href="#m8c288981c3" x="527.882437" y="64.448721" style="fill: #e377c2; stroke: #e377c2"/>
     <use xlink:href="#m8c288981c3" x="542.980791" y="64.448721" style="fill: #e377c2; stroke: #e377c2"/>
     <use xlink:href="#m8c288981c3" x="558.079146" y="64.448721" style="fill: #e377c2; stroke: #e377c2"/>
     <use xlink:href="#m8c288981c3" x="573.1775" y="64.448721" style="fill: #e377c2; stroke: #e377c2"/>
     <use xlink:href="#m8c288981c3" x="588.275854" y="52.498639" style="fill: #e377c2; stroke: #e377c2"/>
     <use xlink:href="#m8c288981c3" x="603.374209" y="52.498639" style="fill: #e377c2; stroke: #e377c2"/>
     <use xlink:href="#m8c288981c3" x="618.472563" y="52.498639" style="fill: #e377c2; stroke: #e377c2"/>
     <use xlink:href="#m8c288981c3" x="633.570918" y="40.548557" style="fill: #e377c2; stroke: #e377c2"/>
     <use xlink:href="#m8c288981c3" x="648.669272" y="40.548557" style="fill: #e377c2; stroke: #e377c2"/>
     <use xlink:href="#m8c288981c3" x="663.767627" y="40.548557" style="fill: #e377c2; stroke: #e377c2"/>
     <use xlink:href="#m8c288981c3" x="678.865981" y="40.548557" style="fill: #e377c2; stroke: #e377c2"/>
     <use xlink:href="#m8c288981c3" x="693.964335" y="40.548557" style="fill: #e377c2; stroke: #e377c2"/>
    </g>
   </g>
   <g id="line2d_35">
    <path d="M 44.735095 387.100937 
L 49.76788 387.100937 
L 54.800665 351.250691 
L 78.286994 351.250691 
L 79.964589 339.300609 
L 88.352563 339.300609 
L 90.030158 327.350527 
L 100.095728 327.350527 
L 101.773323 315.400445 
L 106.806108 315.400445 
L 108.483703 303.450363 
L 150.423576 303.450363 
L 152.101171 291.500281 
L 153.778766 291.500281 
L 155.456361 279.550199 
L 167.199525 279.550199 
L 168.87712 267.600116 
L 177.265095 267.600116 
L 178.94269 255.650034 
L 180.620285 255.650034 
L 182.29788 243.699952 
L 194.041044 243.699952 
L 197.396234 219.799788 
L 262.822437 219.799788 
L 264.500032 207.849706 
L 271.210411 207.849706 
L 272.888006 195.899624 
L 276.243196 195.899624 
L 277.920791 183.949542 
L 303.084715 183.949542 
L 304.76231 171.99946 
L 318.18307 171.99946 
L 319.860665 160.049378 
L 341.669399 160.049378 
L 343.346994 148.099295 
L 365.155728 148.099295 
L 366.833323 136.149213 
L 403.740411 136.149213 
L 405.418006 124.199131 
L 418.838766 124.199131 
L 420.516361 112.249049 
L 432.259525 112.249049 
L 433.93712 100.298967 
L 465.811424 100.298967 
L 467.489019 88.348885 
L 516.139272 88.348885 
L 517.816867 76.398803 
L 527.882437 76.398803 
L 529.560032 64.448721 
L 542.980791 64.448721 
L 544.658386 52.498639 
L 586.598259 52.498639 
L 588.275854 40.548557 
L 705.7075 40.548557 
L 705.7075 40.548557 
" clip-path="url(#p63af5d7402)" style="fill: none; stroke: #17becf; stroke-width: 2; stroke-linecap: square"/>
    <defs>
     <path id="me8b71289ef" d="M 0 1.5 
C 0.397805 1.5 0.77937 1.341951 1.06066 1.06066 
C 1.341951 0.77937 1.5 0.397805 1.5 0 
C 1.5 -0.397805 1.341951 -0.77937 1.06066 -1.06066 
C 0.77937 -1.341951 0.397805 -1.5 0 -1.5 
C -0.397805 -1.5 -0.77937 -1.341951 -1.06066 -1.06066 
C -1.341951 -0.77937 -1.5 -0.397805 -1.5 0 
C -1.5 0.397805 -1.341951 0.77937 -1.06066 1.06066 
C -0.77937 1.341951 -0.397805 1.5 0 1.5 
z
" style="stroke: #17becf"/>
    </defs>
    <g clip-path="url(#p63af5d7402)">
     <use xlink:href="#me8b71289ef" x="44.735095" y="387.100937" style="fill: #17becf; stroke: #17becf"/>
     <use xlink:href="#me8b71289ef" x="59.833449" y="351.250691" style="fill: #17becf; stroke: #17becf"/>
     <use xlink:href="#me8b71289ef" x="74.931804" y="351.250691" style="fill: #17becf; stroke: #17becf"/>
     <use xlink:href="#me8b71289ef" x="90.030158" y="327.350527" style="fill: #17becf; stroke: #17becf"/>
     <use xlink:href="#me8b71289ef" x="105.128513" y="315.400445" style="fill: #17becf; stroke: #17becf"/>
     <use xlink:href="#me8b71289ef" x="120.226867" y="303.450363" style="fill: #17becf; stroke: #17becf"/>
     <use xlink:href="#me8b71289ef" x="135.325222" y="303.450363" style="fill: #17becf; stroke: #17becf"/>
     <use xlink:href="#me8b71289ef" x="150.423576" y="303.450363" style="fill: #17becf; stroke: #17becf"/>
     <use xlink:href="#me8b71289ef" x="165.52193" y="279.550199" style="fill: #17becf; stroke: #17becf"/>
     <use xlink:href="#me8b71289ef" x="180.620285" y="255.650034" style="fill: #17becf; stroke: #17becf"/>
     <use xlink:href="#me8b71289ef" x="195.718639" y="231.74987" style="fill: #17becf; stroke: #17becf"/>
     <use xlink:href="#me8b71289ef" x="210.816994" y="219.799788" style="fill: #17becf; stroke: #17becf"/>
     <use xlink:href="#me8b71289ef" x="225.915348" y="219.799788" style="fill: #17becf; stroke: #17becf"/>
     <use xlink:href="#me8b71289ef" x="241.013703" y="219.799788" style="fill: #17becf; stroke: #17becf"/>
     <use xlink:href="#me8b71289ef" x="256.112057" y="219.799788" style="fill: #17becf; stroke: #17becf"/>
     <use xlink:href="#me8b71289ef" x="271.210411" y="207.849706" style="fill: #17becf; stroke: #17becf"/>
     <use xlink:href="#me8b71289ef" x="286.308766" y="183.949542" style="fill: #17becf; stroke: #17becf"/>
     <use xlink:href="#me8b71289ef" x="301.40712" y="183.949542" style="fill: #17becf; stroke: #17becf"/>
     <use xlink:href="#me8b71289ef" x="316.505475" y="171.99946" style="fill: #17becf; stroke: #17becf"/>
     <use xlink:href="#me8b71289ef" x="331.603829" y="160.049378" style="fill: #17becf; stroke: #17becf"/>
     <use xlink:href="#me8b71289ef" x="346.702184" y="148.099295" style="fill: #17becf; stroke: #17becf"/>
     <use xlink:href="#me8b71289ef" x="361.800538" y="148.099295" style="fill: #17becf; stroke: #17becf"/>
     <use xlink:href="#me8b71289ef" x="376.898892" y="136.149213" style="fill: #17becf; stroke: #17becf"/>
     <use xlink:href="#me8b71289ef" x="391.997247" y="136.149213" style="fill: #17becf; stroke: #17becf"/>
     <use xlink:href="#me8b71289ef" x="407.095601" y="124.199131" style="fill: #17becf; stroke: #17becf"/>
     <use xlink:href="#me8b71289ef" x="422.193956" y="112.249049" style="fill: #17becf; stroke: #17becf"/>
     <use xlink:href="#me8b71289ef" x="437.29231" y="100.298967" style="fill: #17becf; stroke: #17becf"/>
     <use xlink:href="#me8b71289ef" x="452.390665" y="100.298967" style="fill: #17becf; stroke: #17becf"/>
     <use xlink:href="#me8b71289ef" x="467.489019" y="88.348885" style="fill: #17becf; stroke: #17becf"/>
     <use xlink:href="#me8b71289ef" x="482.587373" y="88.348885" style="fill: #17becf; stroke: #17becf"/>
     <use xlink:href="#me8b71289ef" x="497.685728" y="88.348885" style="fill: #17becf; stroke: #17becf"/>
     <use xlink:href="#me8b71289ef" x="512.784082" y="88.348885" style="fill: #17becf; stroke: #17becf"/>
     <use xlink:href="#me8b71289ef" x="527.882437" y="76.398803" style="fill: #17becf; stroke: #17becf"/>
     <use xlink:href="#me8b71289ef" x="542.980791" y="64.448721" style="fill: #17becf; stroke: #17becf"/>
     <use xlink:href="#me8b71289ef" x="558.079146" y="52.498639" style="fill: #17becf; stroke: #17becf"/>
     <use xlink:href="#me8b71289ef" x="573.1775" y="52.498639" style="fill: #17becf; stroke: #17becf"/>
     <use xlink:href="#me8b71289ef" x="588.275854" y="40.548557" style="fill: #17becf; stroke: #17becf"/>
     <use xlink:href="#me8b71289ef" x="603.374209" y="40.548557" style="fill: #17becf; stroke: #17becf"/>
     <use xlink:href="#me8b71289ef" x="618.472563" y="40.548557" style="fill: #17becf; stroke: #17becf"/>
     <use xlink:href="#me8b71289ef" x="633.570918" y="40.548557" style="fill: #17becf; stroke: #17becf"/>
     <use xlink:href="#me8b71289ef" x="648.669272" y="40.548557" style="fill: #17becf; stroke: #17becf"/>
     <use xlink:href="#me8b71289ef" x="663.767627" y="40.548557" style="fill: #17becf; stroke: #17becf"/>
     <use xlink:href="#me8b71289ef" x="678.865981" y="40.548557" style="fill: #17becf; stroke: #17becf"/>
     <use xlink:href="#me8b71289ef" x="693.964335" y="40.548557" style="fill: #17becf; stroke: #17becf"/>
    </g>
   </g>
   <g id="line2d_36">
    <path d="M 44.735095 375.150855 
L 46.41269 363.200773 
L 48.090285 363.200773 
L 49.76788 351.250691 
L 63.188639 351.250691 
L 64.866234 339.300609 
L 66.543829 339.300609 
L 68.221424 327.350527 
L 79.964589 327.350527 
L 81.642184 315.400445 
L 88.352563 315.400445 
L 90.030158 303.450363 
L 91.707753 303.450363 
L 93.385348 291.500281 
L 98.418133 291.500281 
L 100.095728 279.550199 
L 106.806108 279.550199 
L 108.483703 267.600116 
L 130.292437 267.600116 
L 131.970032 255.650034 
L 168.87712 255.650034 
L 170.554715 243.699952 
L 210.816994 243.699952 
L 212.494589 231.74987 
L 239.336108 231.74987 
L 241.013703 219.799788 
L 259.467247 219.799788 
L 261.144842 207.849706 
L 282.953576 207.849706 
L 284.631171 195.899624 
L 298.05193 195.899624 
L 299.729525 183.949542 
L 303.084715 183.949542 
L 304.76231 171.99946 
L 328.248639 171.99946 
L 329.926234 160.049378 
L 351.734968 160.049378 
L 353.412563 148.099295 
L 358.445348 148.099295 
L 361.800538 124.199131 
L 469.166614 124.199131 
L 470.844209 112.249049 
L 497.685728 112.249049 
L 499.363323 100.298967 
L 537.948006 100.298967 
L 539.625601 88.348885 
L 561.434335 88.348885 
L 563.11193 76.398803 
L 628.538133 76.398803 
L 631.893323 52.498639 
L 645.314082 52.498639 
L 646.991677 40.548557 
L 705.7075 40.548557 
L 705.7075 40.548557 
" clip-path="url(#p63af5d7402)" style="fill: none; stroke: #e31818; stroke-width: 2.5; stroke-linecap: square"/>
    <defs>
     <path id="mb37298d2b0" d="M 0 1.5 
C 0.397805 1.5 0.77937 1.341951 1.06066 1.06066 
C 1.341951 0.77937 1.5 0.397805 1.5 0 
C 1.5 -0.397805 1.341951 -0.77937 1.06066 -1.06066 
C 0.77937 -1.341951 0.397805 -1.5 0 -1.5 
C -0.397805 -1.5 -0.77937 -1.341951 -1.06066 -1.06066 
C -1.341951 -0.77937 -1.5 -0.397805 -1.5 0 
C -1.5 0.397805 -1.341951 0.77937 -1.06066 1.06066 
C -0.77937 1.341951 -0.397805 1.5 0 1.5 
z
" style="stroke: #e31818"/>
    </defs>
    <g clip-path="url(#p63af5d7402)">
     <use xlink:href="#mb37298d2b0" x="44.735095" y="375.150855" style="fill: #e31818; stroke: #e31818"/>
     <use xlink:href="#mb37298d2b0" x="59.833449" y="351.250691" style="fill: #e31818; stroke: #e31818"/>
     <use xlink:href="#mb37298d2b0" x="74.931804" y="327.350527" style="fill: #e31818; stroke: #e31818"/>
     <use xlink:href="#mb37298d2b0" x="90.030158" y="303.450363" style="fill: #e31818; stroke: #e31818"/>
     <use xlink:href="#mb37298d2b0" x="105.128513" y="279.550199" style="fill: #e31818; stroke: #e31818"/>
     <use xlink:href="#mb37298d2b0" x="120.226867" y="267.600116" style="fill: #e31818; stroke: #e31818"/>
     <use xlink:href="#mb37298d2b0" x="135.325222" y="255.650034" style="fill: #e31818; stroke: #e31818"/>
     <use xlink:href="#mb37298d2b0" x="150.423576" y="255.650034" style="fill: #e31818; stroke: #e31818"/>
     <use xlink:href="#mb37298d2b0" x="165.52193" y="255.650034" style="fill: #e31818; stroke: #e31818"/>
     <use xlink:href="#mb37298d2b0" x="180.620285" y="243.699952" style="fill: #e31818; stroke: #e31818"/>
     <use xlink:href="#mb37298d2b0" x="195.718639" y="243.699952" style="fill: #e31818; stroke: #e31818"/>
     <use xlink:href="#mb37298d2b0" x="210.816994" y="243.699952" style="fill: #e31818; stroke: #e31818"/>
     <use xlink:href="#mb37298d2b0" x="225.915348" y="231.74987" style="fill: #e31818; stroke: #e31818"/>
     <use xlink:href="#mb37298d2b0" x="241.013703" y="219.799788" style="fill: #e31818; stroke: #e31818"/>
     <use xlink:href="#mb37298d2b0" x="256.112057" y="219.799788" style="fill: #e31818; stroke: #e31818"/>
     <use xlink:href="#mb37298d2b0" x="271.210411" y="207.849706" style="fill: #e31818; stroke: #e31818"/>
     <use xlink:href="#mb37298d2b0" x="286.308766" y="195.899624" style="fill: #e31818; stroke: #e31818"/>
     <use xlink:href="#mb37298d2b0" x="301.40712" y="183.949542" style="fill: #e31818; stroke: #e31818"/>
     <use xlink:href="#mb37298d2b0" x="316.505475" y="171.99946" style="fill: #e31818; stroke: #e31818"/>
     <use xlink:href="#mb37298d2b0" x="331.603829" y="160.049378" style="fill: #e31818; stroke: #e31818"/>
     <use xlink:href="#mb37298d2b0" x="346.702184" y="160.049378" style="fill: #e31818; stroke: #e31818"/>
     <use xlink:href="#mb37298d2b0" x="361.800538" y="124.199131" style="fill: #e31818; stroke: #e31818"/>
     <use xlink:href="#mb37298d2b0" x="376.898892" y="124.199131" style="fill: #e31818; stroke: #e31818"/>
     <use xlink:href="#mb37298d2b0" x="391.997247" y="124.199131" style="fill: #e31818; stroke: #e31818"/>
     <use xlink:href="#mb37298d2b0" x="407.095601" y="124.199131" style="fill: #e31818; stroke: #e31818"/>
     <use xlink:href="#mb37298d2b0" x="422.193956" y="124.199131" style="fill: #e31818; stroke: #e31818"/>
     <use xlink:href="#mb37298d2b0" x="437.29231" y="124.199131" style="fill: #e31818; stroke: #e31818"/>
     <use xlink:href="#mb37298d2b0" x="452.390665" y="124.199131" style="fill: #e31818; stroke: #e31818"/>
     <use xlink:href="#mb37298d2b0" x="467.489019" y="124.199131" style="fill: #e31818; stroke: #e31818"/>
     <use xlink:href="#mb37298d2b0" x="482.587373" y="112.249049" style="fill: #e31818; stroke: #e31818"/>
     <use xlink:href="#mb37298d2b0" x="497.685728" y="112.249049" style="fill: #e31818; stroke: #e31818"/>
     <use xlink:href="#mb37298d2b0" x="512.784082" y="100.298967" style="fill: #e31818; stroke: #e31818"/>
     <use xlink:href="#mb37298d2b0" x="527.882437" y="100.298967" style="fill: #e31818; stroke: #e31818"/>
     <use xlink:href="#mb37298d2b0" x="542.980791" y="88.348885" style="fill: #e31818; stroke: #e31818"/>
     <use xlink:href="#mb37298d2b0" x="558.079146" y="88.348885" style="fill: #e31818; stroke: #e31818"/>
     <use xlink:href="#mb37298d2b0" x="573.1775" y="76.398803" style="fill: #e31818; stroke: #e31818"/>
     <use xlink:href="#mb37298d2b0" x="588.275854" y="76.398803" style="fill: #e31818; stroke: #e31818"/>
     <use xlink:href="#mb37298d2b0" x="603.374209" y="76.398803" style="fill: #e31818; stroke: #e31818"/>
     <use xlink:href="#mb37298d2b0" x="618.472563" y="76.398803" style="fill: #e31818; stroke: #e31818"/>
     <use xlink:href="#mb37298d2b0" x="633.570918" y="52.498639" style="fill: #e31818; stroke: #e31818"/>
     <use xlink:href="#mb37298d2b0" x="648.669272" y="40.548557" style="fill: #e31818; stroke: #e31818"/>
     <use xlink:href="#mb37298d2b0" x="663.767627" y="40.548557" style="fill: #e31818; stroke: #e31818"/>
     <use xlink:href="#mb37298d2b0" x="678.865981" y="40.548557" style="fill: #e31818; stroke: #e31818"/>
     <use xlink:href="#mb37298d2b0" x="693.964335" y="40.548557" style="fill: #e31818; stroke: #e31818"/>
    </g>
   </g>
   <g id="patch_3">
    <path d="M 43.0575 387.100937 
L 43.0575 23.220937 
" style="fill: none; stroke: #000000; stroke-width: 0.8; stroke-linejoin: miter; stroke-linecap: square"/>
   </g>
   <g id="patch_4">
    <path d="M 705.7075 387.100937 
L 705.7075 23.220937 
" style="fill: none; stroke: #000000; stroke-width: 0.8; stroke-linejoin: miter; stroke-linecap: square"/>
   </g>
   <g id="patch_5">
    <path d="M 43.0575 387.100937 
L 705.7075 387.100937 
" style="fill: none; stroke: #000000; stroke-width: 0.8; stroke-linejoin: miter; stroke-linecap: square"/>
   </g>
   <g id="patch_6">
    <path d="M 43.0575 23.220937 
L 705.7075 23.220937 
" style="fill: none; stroke: #000000; stroke-width: 0.8; stroke-linejoin: miter; stroke-linecap: square"/>
   </g>
   <g id="text_17">
    <!-- Recall vs k - student-mat -->
    <g transform="translate(291.920313 17.220937) scale(0.14 -0.14)">
     <defs>
      <path id="Arial-BoldMT-76" d="M 1372 0 
L 34 3319 
L 956 3319 
L 1581 1625 
L 1763 1059 
Q 1834 1275 1853 1344 
Q 1897 1484 1947 1625 
L 2578 3319 
L 3481 3319 
L 2163 0 
L 1372 0 
z
" transform="scale(0.015625)"/>
      <path id="Arial-BoldMT-2d" d="M 359 1222 
L 359 2100 
L 2084 2100 
L 2084 1222 
L 359 1222 
z
" transform="scale(0.015625)"/>
      <path id="Arial-BoldMT-74" d="M 1981 3319 
L 1981 2619 
L 1381 2619 
L 1381 1281 
Q 1381 875 1398 808 
Q 1416 741 1477 697 
Q 1538 653 1625 653 
Q 1747 653 1978 738 
L 2053 56 
Q 1747 -75 1359 -75 
Q 1122 -75 931 4 
Q 741 84 652 211 
Q 563 338 528 553 
Q 500 706 500 1172 
L 500 2619 
L 97 2619 
L 97 3319 
L 500 3319 
L 500 3978 
L 1381 4491 
L 1381 3319 
L 1981 3319 
z
" transform="scale(0.015625)"/>
      <path id="Arial-BoldMT-75" d="M 2644 0 
L 2644 497 
Q 2463 231 2167 78 
Q 1872 -75 1544 -75 
Q 1209 -75 943 72 
Q 678 219 559 484 
Q 441 750 441 1219 
L 441 3319 
L 1319 3319 
L 1319 1794 
Q 1319 1094 1367 936 
Q 1416 778 1544 686 
Q 1672 594 1869 594 
Q 2094 594 2272 717 
Q 2450 841 2515 1023 
Q 2581 1206 2581 1919 
L 2581 3319 
L 3459 3319 
L 3459 0 
L 2644 0 
z
" transform="scale(0.015625)"/>
      <path id="Arial-BoldMT-6d" d="M 394 3319 
L 1203 3319 
L 1203 2866 
Q 1638 3394 2238 3394 
Q 2556 3394 2790 3262 
Q 3025 3131 3175 2866 
Q 3394 3131 3647 3262 
Q 3900 3394 4188 3394 
Q 4553 3394 4806 3245 
Q 5059 3097 5184 2809 
Q 5275 2597 5275 2122 
L 5275 0 
L 4397 0 
L 4397 1897 
Q 4397 2391 4306 2534 
Q 4184 2722 3931 2722 
Q 3747 2722 3584 2609 
Q 3422 2497 3350 2280 
Q 3278 2063 3278 1594 
L 3278 0 
L 2400 0 
L 2400 1819 
Q 2400 2303 2353 2443 
Q 2306 2584 2207 2653 
Q 2109 2722 1941 2722 
Q 1738 2722 1575 2612 
Q 1413 2503 1342 2297 
Q 1272 2091 1272 1613 
L 1272 0 
L 394 0 
L 394 3319 
z
" transform="scale(0.015625)"/>
     </defs>
     <use xlink:href="#Arial-BoldMT-52"/>
     <use xlink:href="#Arial-BoldMT-65" transform="translate(72.216797 0)"/>
     <use xlink:href="#Arial-BoldMT-63" transform="translate(127.832031 0)"/>
     <use xlink:href="#Arial-BoldMT-61" transform="translate(183.447266 0)"/>
     <use xlink:href="#Arial-BoldMT-6c" transform="translate(239.0625 0)"/>
     <use xlink:href="#Arial-BoldMT-6c" transform="translate(266.845703 0)"/>
     <use xlink:href="#Arial-BoldMT-20" transform="translate(294.628906 0)"/>
     <use xlink:href="#Arial-BoldMT-76" transform="translate(322.412109 0)"/>
     <use xlink:href="#Arial-BoldMT-73" transform="translate(378.027344 0)"/>
     <use xlink:href="#Arial-BoldMT-20" transform="translate(433.642578 0)"/>
     <use xlink:href="#Arial-BoldMT-6b" transform="translate(461.425781 0)"/>
     <use xlink:href="#Arial-BoldMT-20" transform="translate(517.041016 0)"/>
     <use xlink:href="#Arial-BoldMT-2d" transform="translate(544.824219 0)"/>
     <use xlink:href="#Arial-BoldMT-20" transform="translate(578.125 0)"/>
     <use xlink:href="#Arial-BoldMT-73" transform="translate(605.908203 0)"/>
     <use xlink:href="#Arial-BoldMT-74" transform="translate(661.523438 0)"/>
     <use xlink:href="#Arial-BoldMT-75" transform="translate(694.824219 0)"/>
     <use xlink:href="#Arial-BoldMT-64" transform="translate(755.908203 0)"/>
     <use xlink:href="#Arial-BoldMT-65" transform="translate(816.992188 0)"/>
     <use xlink:href="#Arial-BoldMT-6e" transform="translate(872.607422 0)"/>
     <use xlink:href="#Arial-BoldMT-74" transform="translate(933.691406 0)"/>
     <use xlink:href="#Arial-BoldMT-2d" transform="translate(966.992188 0)"/>
     <use xlink:href="#Arial-BoldMT-6d" transform="translate(1000.292969 0)"/>
     <use xlink:href="#Arial-BoldMT-61" transform="translate(1089.208984 0)"/>
     <use xlink:href="#Arial-BoldMT-74" transform="translate(1144.824219 0)"/>
    </g>
   </g>
   <g id="legend_1">
    <g id="patch_7">
     <path d="M 49.3575 132.267187 
L 115.154531 132.267187 
Q 116.954531 132.267187 116.954531 130.467187 
L 116.954531 29.520938 
Q 116.954531 27.720937 115.154531 27.720937 
L 49.3575 27.720937 
Q 47.5575 27.720937 47.5575 29.520938 
L 47.5575 130.467187 
Q 47.5575 132.267187 49.3575 132.267187 
z
" style="fill: #ffffff; opacity: 0.8; stroke: #cccccc; stroke-linejoin: miter"/>
    </g>
    <g id="line2d_37">
     <path d="M 51.1575 34.612969 
L 60.1575 34.612969 
L 69.1575 34.612969 
" style="fill: none; stroke: #1f77b4; stroke-width: 2; stroke-linecap: square"/>
     <g>
      <use xlink:href="#m05a58686fd" x="60.1575" y="34.612969" style="fill: #1f77b4; stroke: #1f77b4"/>
     </g>
    </g>
    <g id="text_18">
     <!-- ADFNR -->
     <g transform="translate(76.3575 37.762969) scale(0.09 -0.09)">
      <defs>
       <path id="ArialMT-41" d="M -9 0 
L 1750 4581 
L 2403 4581 
L 4278 0 
L 3588 0 
L 3053 1388 
L 1138 1388 
L 634 0 
L -9 0 
z
M 1313 1881 
L 2866 1881 
L 2388 3150 
Q 2169 3728 2063 4100 
Q 1975 3659 1816 3225 
L 1313 1881 
z
" transform="scale(0.015625)"/>
       <path id="ArialMT-44" d="M 494 0 
L 494 4581 
L 2072 4581 
Q 2606 4581 2888 4516 
Q 3281 4425 3559 4188 
Q 3922 3881 4101 3404 
Q 4281 2928 4281 2316 
Q 4281 1794 4159 1391 
Q 4038 988 3847 723 
Q 3656 459 3429 307 
Q 3203 156 2883 78 
Q 2563 0 2147 0 
L 494 0 
z
M 1100 541 
L 2078 541 
Q 2531 541 2789 625 
Q 3047 709 3200 863 
Q 3416 1078 3536 1442 
Q 3656 1806 3656 2325 
Q 3656 3044 3420 3430 
Q 3184 3816 2847 3947 
Q 2603 4041 2063 4041 
L 1100 4041 
L 1100 541 
z
" transform="scale(0.015625)"/>
       <path id="ArialMT-46" d="M 525 0 
L 525 4581 
L 3616 4581 
L 3616 4041 
L 1131 4041 
L 1131 2622 
L 3281 2622 
L 3281 2081 
L 1131 2081 
L 1131 0 
L 525 0 
z
" transform="scale(0.015625)"/>
       <path id="ArialMT-4e" d="M 488 0 
L 488 4581 
L 1109 4581 
L 3516 984 
L 3516 4581 
L 4097 4581 
L 4097 0 
L 3475 0 
L 1069 3600 
L 1069 0 
L 488 0 
z
" transform="scale(0.015625)"/>
       <path id="ArialMT-52" d="M 503 0 
L 503 4581 
L 2534 4581 
Q 3147 4581 3465 4457 
Q 3784 4334 3975 4021 
Q 4166 3709 4166 3331 
Q 4166 2844 3850 2509 
Q 3534 2175 2875 2084 
Q 3116 1969 3241 1856 
Q 3506 1613 3744 1247 
L 4541 0 
L 3778 0 
L 3172 953 
Q 2906 1366 2734 1584 
Q 2563 1803 2427 1890 
Q 2291 1978 2150 2013 
Q 2047 2034 1813 2034 
L 1109 2034 
L 1109 0 
L 503 0 
z
M 1109 2559 
L 2413 2559 
Q 2828 2559 3062 2645 
Q 3297 2731 3419 2920 
Q 3541 3109 3541 3331 
Q 3541 3656 3305 3865 
Q 3069 4075 2559 4075 
L 1109 4075 
L 1109 2559 
z
" transform="scale(0.015625)"/>
      </defs>
      <use xlink:href="#ArialMT-41"/>
      <use xlink:href="#ArialMT-44" transform="translate(66.699219 0)"/>
      <use xlink:href="#ArialMT-46" transform="translate(138.916016 0)"/>
      <use xlink:href="#ArialMT-4e" transform="translate(200 0)"/>
      <use xlink:href="#ArialMT-52" transform="translate(272.216797 0)"/>
     </g>
    </g>
    <g id="line2d_38">
     <path d="M 51.1575 47.34375 
L 60.1575 47.34375 
L 69.1575 47.34375 
" style="fill: none; stroke: #ff7f0e; stroke-width: 2; stroke-linecap: square"/>
     <g>
      <use xlink:href="#m79fc31e1d7" x="60.1575" y="47.34375" style="fill: #ff7f0e; stroke: #ff7f0e"/>
     </g>
    </g>
    <g id="text_19">
     <!-- DASOD -->
     <g transform="translate(76.3575 50.49375) scale(0.09 -0.09)">
      <defs>
       <path id="ArialMT-53" d="M 288 1472 
L 859 1522 
Q 900 1178 1048 958 
Q 1197 738 1509 602 
Q 1822 466 2213 466 
Q 2559 466 2825 569 
Q 3091 672 3220 851 
Q 3350 1031 3350 1244 
Q 3350 1459 3225 1620 
Q 3100 1781 2813 1891 
Q 2628 1963 1997 2114 
Q 1366 2266 1113 2400 
Q 784 2572 623 2826 
Q 463 3081 463 3397 
Q 463 3744 659 4045 
Q 856 4347 1234 4503 
Q 1613 4659 2075 4659 
Q 2584 4659 2973 4495 
Q 3363 4331 3572 4012 
Q 3781 3694 3797 3291 
L 3216 3247 
Q 3169 3681 2898 3903 
Q 2628 4125 2100 4125 
Q 1550 4125 1298 3923 
Q 1047 3722 1047 3438 
Q 1047 3191 1225 3031 
Q 1400 2872 2139 2705 
Q 2878 2538 3153 2413 
Q 3553 2228 3743 1945 
Q 3934 1663 3934 1294 
Q 3934 928 3725 604 
Q 3516 281 3123 101 
Q 2731 -78 2241 -78 
Q 1619 -78 1198 103 
Q 778 284 539 648 
Q 300 1013 288 1472 
z
" transform="scale(0.015625)"/>
       <path id="ArialMT-4f" d="M 309 2231 
Q 309 3372 921 4017 
Q 1534 4663 2503 4663 
Q 3138 4663 3647 4359 
Q 4156 4056 4423 3514 
Q 4691 2972 4691 2284 
Q 4691 1588 4409 1038 
Q 4128 488 3612 205 
Q 3097 -78 2500 -78 
Q 1853 -78 1343 234 
Q 834 547 571 1087 
Q 309 1628 309 2231 
z
M 934 2222 
Q 934 1394 1379 917 
Q 1825 441 2497 441 
Q 3181 441 3623 922 
Q 4066 1403 4066 2288 
Q 4066 2847 3877 3264 
Q 3688 3681 3323 3911 
Q 2959 4141 2506 4141 
Q 1863 4141 1398 3698 
Q 934 3256 934 2222 
z
" transform="scale(0.015625)"/>
      </defs>
      <use xlink:href="#ArialMT-44"/>
      <use xlink:href="#ArialMT-41" transform="translate(72.216797 0)"/>
      <use xlink:href="#ArialMT-53" transform="translate(138.916016 0)"/>
      <use xlink:href="#ArialMT-4f" transform="translate(205.615234 0)"/>
      <use xlink:href="#ArialMT-44" transform="translate(283.398438 0)"/>
     </g>
    </g>
    <g id="line2d_39">
     <path d="M 51.1575 60.074531 
L 60.1575 60.074531 
L 69.1575 60.074531 
" style="fill: none; stroke: #2ca02c; stroke-width: 2; stroke-linecap: square"/>
     <g>
      <use xlink:href="#m0316337ce8" x="60.1575" y="60.074531" style="fill: #2ca02c; stroke: #2ca02c"/>
     </g>
    </g>
    <g id="text_20">
     <!-- GCN -->
     <g transform="translate(76.3575 63.224531) scale(0.09 -0.09)">
      <defs>
       <path id="ArialMT-47" d="M 2638 1797 
L 2638 2334 
L 4578 2338 
L 4578 638 
Q 4131 281 3656 101 
Q 3181 -78 2681 -78 
Q 2006 -78 1454 211 
Q 903 500 622 1047 
Q 341 1594 341 2269 
Q 341 2938 620 3517 
Q 900 4097 1425 4378 
Q 1950 4659 2634 4659 
Q 3131 4659 3532 4498 
Q 3934 4338 4162 4050 
Q 4391 3763 4509 3300 
L 3963 3150 
Q 3859 3500 3706 3700 
Q 3553 3900 3268 4020 
Q 2984 4141 2638 4141 
Q 2222 4141 1919 4014 
Q 1616 3888 1430 3681 
Q 1244 3475 1141 3228 
Q 966 2803 966 2306 
Q 966 1694 1177 1281 
Q 1388 869 1791 669 
Q 2194 469 2647 469 
Q 3041 469 3416 620 
Q 3791 772 3984 944 
L 3984 1797 
L 2638 1797 
z
" transform="scale(0.015625)"/>
       <path id="ArialMT-43" d="M 3763 1606 
L 4369 1453 
Q 4178 706 3683 314 
Q 3188 -78 2472 -78 
Q 1731 -78 1267 223 
Q 803 525 561 1097 
Q 319 1669 319 2325 
Q 319 3041 592 3573 
Q 866 4106 1370 4382 
Q 1875 4659 2481 4659 
Q 3169 4659 3637 4309 
Q 4106 3959 4291 3325 
L 3694 3184 
Q 3534 3684 3231 3912 
Q 2928 4141 2469 4141 
Q 1941 4141 1586 3887 
Q 1231 3634 1087 3207 
Q 944 2781 944 2328 
Q 944 1744 1114 1308 
Q 1284 872 1643 656 
Q 2003 441 2422 441 
Q 2931 441 3284 734 
Q 3638 1028 3763 1606 
z
" transform="scale(0.015625)"/>
      </defs>
      <use xlink:href="#ArialMT-47"/>
      <use xlink:href="#ArialMT-43" transform="translate(77.783203 0)"/>
      <use xlink:href="#ArialMT-4e" transform="translate(150 0)"/>
     </g>
    </g>
    <g id="line2d_40">
     <path d="M 51.1575 72.805312 
L 60.1575 72.805312 
L 69.1575 72.805312 
" style="fill: none; stroke: #9467bd; stroke-width: 2; stroke-linecap: square"/>
     <g>
      <use xlink:href="#m811625a583" x="60.1575" y="72.805312" style="fill: #9467bd; stroke: #9467bd"/>
     </g>
    </g>
    <g id="text_21">
     <!-- GCOD -->
     <g transform="translate(76.3575 75.955312) scale(0.09 -0.09)">
      <use xlink:href="#ArialMT-47"/>
      <use xlink:href="#ArialMT-43" transform="translate(77.783203 0)"/>
      <use xlink:href="#ArialMT-4f" transform="translate(150 0)"/>
      <use xlink:href="#ArialMT-44" transform="translate(227.783203 0)"/>
     </g>
    </g>
    <g id="line2d_41">
     <path d="M 51.1575 85.536094 
L 60.1575 85.536094 
L 69.1575 85.536094 
" style="fill: none; stroke: #8c564b; stroke-width: 2; stroke-linecap: square"/>
     <g>
      <use xlink:href="#m4010eb4ef9" x="60.1575" y="85.536094" style="fill: #8c564b; stroke: #8c564b"/>
     </g>
    </g>
    <g id="text_22">
     <!-- IE -->
     <g transform="translate(76.3575 88.686094) scale(0.09 -0.09)">
      <defs>
       <path id="ArialMT-49" d="M 597 0 
L 597 4581 
L 1203 4581 
L 1203 0 
L 597 0 
z
" transform="scale(0.015625)"/>
       <path id="ArialMT-45" d="M 506 0 
L 506 4581 
L 3819 4581 
L 3819 4041 
L 1113 4041 
L 1113 2638 
L 3647 2638 
L 3647 2100 
L 1113 2100 
L 1113 541 
L 3925 541 
L 3925 0 
L 506 0 
z
" transform="scale(0.015625)"/>
      </defs>
      <use xlink:href="#ArialMT-49"/>
      <use xlink:href="#ArialMT-45" transform="translate(27.783203 0)"/>
     </g>
    </g>
    <g id="line2d_42">
     <path d="M 51.1575 98.266875 
L 60.1575 98.266875 
L 69.1575 98.266875 
" style="fill: none; stroke: #e377c2; stroke-width: 2; stroke-linecap: square"/>
     <g>
      <use xlink:href="#m8c288981c3" x="60.1575" y="98.266875" style="fill: #e377c2; stroke: #e377c2"/>
     </g>
    </g>
    <g id="text_23">
     <!-- KNN -->
     <g transform="translate(76.3575 101.416875) scale(0.09 -0.09)">
      <defs>
       <path id="ArialMT-4b" d="M 469 0 
L 469 4581 
L 1075 4581 
L 1075 2309 
L 3350 4581 
L 4172 4581 
L 2250 2725 
L 4256 0 
L 3456 0 
L 1825 2319 
L 1075 1588 
L 1075 0 
L 469 0 
z
" transform="scale(0.015625)"/>
      </defs>
      <use xlink:href="#ArialMT-4b"/>
      <use xlink:href="#ArialMT-4e" transform="translate(66.699219 0)"/>
      <use xlink:href="#ArialMT-4e" transform="translate(138.916016 0)"/>
     </g>
    </g>
    <g id="line2d_43">
     <path d="M 51.1575 110.997656 
L 60.1575 110.997656 
L 69.1575 110.997656 
" style="fill: none; stroke: #17becf; stroke-width: 2; stroke-linecap: square"/>
     <g>
      <use xlink:href="#me8b71289ef" x="60.1575" y="110.997656" style="fill: #17becf; stroke: #17becf"/>
     </g>
    </g>
    <g id="text_24">
     <!-- NIEOD -->
     <g transform="translate(76.3575 114.147656) scale(0.09 -0.09)">
      <use xlink:href="#ArialMT-4e"/>
      <use xlink:href="#ArialMT-49" transform="translate(72.216797 0)"/>
      <use xlink:href="#ArialMT-45" transform="translate(100 0)"/>
      <use xlink:href="#ArialMT-4f" transform="translate(166.699219 0)"/>
      <use xlink:href="#ArialMT-44" transform="translate(244.482422 0)"/>
     </g>
    </g>
    <g id="line2d_44">
     <path d="M 51.1575 123.728437 
L 60.1575 123.728437 
L 69.1575 123.728437 
" style="fill: none; stroke: #e31818; stroke-width: 2.5; stroke-linecap: square"/>
     <g>
      <use xlink:href="#mb37298d2b0" x="60.1575" y="123.728437" style="fill: #e31818; stroke: #e31818"/>
     </g>
    </g>
    <g id="text_25">
     <!-- NMIGOD -->
     <g transform="translate(76.3575 126.878437) scale(0.09 -0.09)">
      <defs>
       <path id="ArialMT-4d" d="M 475 0 
L 475 4581 
L 1388 4581 
L 2472 1338 
Q 2622 884 2691 659 
Q 2769 909 2934 1394 
L 4031 4581 
L 4847 4581 
L 4847 0 
L 4263 0 
L 4263 3834 
L 2931 0 
L 2384 0 
L 1059 3900 
L 1059 0 
L 475 0 
z
" transform="scale(0.015625)"/>
      </defs>
      <use xlink:href="#ArialMT-4e"/>
      <use xlink:href="#ArialMT-4d" transform="translate(72.216797 0)"/>
      <use xlink:href="#ArialMT-49" transform="translate(155.517578 0)"/>
      <use xlink:href="#ArialMT-47" transform="translate(183.300781 0)"/>
      <use xlink:href="#ArialMT-4f" transform="translate(261.083984 0)"/>
      <use xlink:href="#ArialMT-44" transform="translate(338.867188 0)"/>
     </g>
    </g>
   </g>
  </g>
 </g>
 <defs>
  <clipPath id="p63af5d7402">
   <rect x="43.0575" y="23.220937" width="662.65" height="363.88"/>
  </clipPath>
 </defs>
</svg>
