<?xml version="1.0" encoding="utf-8" standalone="no"?>
<!DOCTYPE svg PUBLIC "-//W3C//DTD SVG 1.1//EN"
  "http://www.w3.org/Graphics/SVG/1.1/DTD/svg11.dtd">
<svg xmlns:xlink="http://www.w3.org/1999/xlink" width="712.878906pt" height="425.7075pt" viewBox="0 0 712.878906 425.7075" xmlns="http://www.w3.org/2000/svg" version="1.1">
 <metadata>
  <rdf:RDF xmlns:dc="http://purl.org/dc/elements/1.1/" xmlns:cc="http://creativecommons.org/ns#" xmlns:rdf="http://www.w3.org/1999/02/22-rdf-syntax-ns#">
   <cc:Work>
    <dc:type rdf:resource="http://purl.org/dc/dcmitype/StillImage"/>
    <dc:date>2026-06-11T18:28:58.177545</dc:date>
    <dc:format>image/svg+xml</dc:format>
    <dc:creator>
     <cc:Agent>
      <dc:title>Matplotlib v3.10.0, https://matplotlib.org/</dc:title>
     </cc:Agent>
    </dc:creator>
   </cc:Work>
  </rdf:RDF>
 </metadata>
 <defs>
  <style type="text/css">*{stroke-linejoin: round; stroke-linecap: butt}</style>
 </defs>
 <g id="figure_1">
  <g id="patch_1">
   <path d="M -0 425.7075 
L 712.878906 425.7075 
L 712.878906 0 
L -0 0 
z
" style="fill: #ffffff"/>
  </g>
  <g id="axes_1">
   <g id="patch_2">
    <path d="M 43.0575 387.100937 
L 697.3375 387.100937 
L 697.3375 23.220937 
L 43.0575 23.220937 
z
" style="fill: #ffffff"/>
   </g>
   <g id="matplotlib.axis_1">
    <g id="xtick_1">
     <g id="line2d_1">
      <path d="M 43.0575 387.100937 
L 43.0575 23.220937 
" clip-path="url(#p05bd19c2fe)" style="fill: none; stroke-dasharray: 2.96,1.28; stroke-dashoffset: 0; stroke: #b0b0b0; stroke-opacity: 0.5; stroke-width: 0.8"/>
     </g>
     <g id="line2d_2">
      <defs>
       <path id="m20e8e14538" d="M 0 0 
L 0 3.5 
" style="stroke: #000000; stroke-width: 0.8"/>
      </defs>
      <g>
       <use xlink:href="#m20e8e14538" x="43.0575" y="387.100937" style="stroke: #000000; stroke-width: 0.8"/>
      </g>
     </g>
     <g id="text_1">
      <!-- 0 -->
      <g transform="translate(40.277031 401.25875) scale(0.1 -0.1)">
       <defs>
        <path id="ArialMT-30" d="M 266 2259 
Q 266 3072 433 3567 
Q 600 4063 929 4331 
Q 1259 4600 1759 4600 
Q 2128 4600 2406 4451 
Q 2684 4303 2865 4023 
Q 3047 3744 3150 3342 
Q 3253 2941 3253 2259 
Q 3253 1453 3087 958 
Q 2922 463 2592 192 
Q 2263 -78 1759 -78 
Q 1097 -78 719 397 
Q 266 969 266 2259 
z
M 844 2259 
Q 844 1131 1108 757 
Q 1372 384 1759 384 
Q 2147 384 2411 759 
Q 2675 1134 2675 2259 
Q 2675 3391 2411 3762 
Q 2147 4134 1753 4134 
Q 1366 4134 1134 3806 
Q 844 3388 844 2259 
z
" transform="scale(0.015625)"/>
       </defs>
       <use xlink:href="#ArialMT-30"/>
      </g>
     </g>
    </g>
    <g id="xtick_2">
     <g id="line2d_3">
      <path d="M 124.8425 387.100937 
L 124.8425 23.220937 
" clip-path="url(#p05bd19c2fe)" style="fill: none; stroke-dasharray: 2.96,1.28; stroke-dashoffset: 0; stroke: #b0b0b0; stroke-opacity: 0.5; stroke-width: 0.8"/>
     </g>
     <g id="line2d_4">
      <g>
       <use xlink:href="#m20e8e14538" x="124.8425" y="387.100937" style="stroke: #000000; stroke-width: 0.8"/>
      </g>
     </g>
     <g id="text_2">
      <!-- 20 -->
      <g transform="translate(119.281563 401.25875) scale(0.1 -0.1)">
       <defs>
        <path id="ArialMT-32" d="M 3222 541 
L 3222 0 
L 194 0 
Q 188 203 259 391 
Q 375 700 629 1000 
Q 884 1300 1366 1694 
Q 2113 2306 2375 2664 
Q 2638 3022 2638 3341 
Q 2638 3675 2398 3904 
Q 2159 4134 1775 4134 
Q 1369 4134 1125 3890 
Q 881 3647 878 3216 
L 300 3275 
Q 359 3922 746 4261 
Q 1134 4600 1788 4600 
Q 2447 4600 2831 4234 
Q 3216 3869 3216 3328 
Q 3216 3053 3103 2787 
Q 2991 2522 2730 2228 
Q 2469 1934 1863 1422 
Q 1356 997 1212 845 
Q 1069 694 975 541 
L 3222 541 
z
" transform="scale(0.015625)"/>
       </defs>
       <use xlink:href="#ArialMT-32"/>
       <use xlink:href="#ArialMT-30" transform="translate(55.615234 0)"/>
      </g>
     </g>
    </g>
    <g id="xtick_3">
     <g id="line2d_5">
      <path d="M 206.6275 387.100937 
L 206.6275 23.220937 
" clip-path="url(#p05bd19c2fe)" style="fill: none; stroke-dasharray: 2.96,1.28; stroke-dashoffset: 0; stroke: #b0b0b0; stroke-opacity: 0.5; stroke-width: 0.8"/>
     </g>
     <g id="line2d_6">
      <g>
       <use xlink:href="#m20e8e14538" x="206.6275" y="387.100937" style="stroke: #000000; stroke-width: 0.8"/>
      </g>
     </g>
     <g id="text_3">
      <!-- 40 -->
      <g transform="translate(201.066563 401.25875) scale(0.1 -0.1)">
       <defs>
        <path id="ArialMT-34" d="M 2069 0 
L 2069 1097 
L 81 1097 
L 81 1613 
L 2172 4581 
L 2631 4581 
L 2631 1613 
L 3250 1613 
L 3250 1097 
L 2631 1097 
L 2631 0 
L 2069 0 
z
M 2069 1613 
L 2069 3678 
L 634 1613 
L 2069 1613 
z
" transform="scale(0.015625)"/>
       </defs>
       <use xlink:href="#ArialMT-34"/>
       <use xlink:href="#ArialMT-30" transform="translate(55.615234 0)"/>
      </g>
     </g>
    </g>
    <g id="xtick_4">
     <g id="line2d_7">
      <path d="M 288.4125 387.100937 
L 288.4125 23.220937 
" clip-path="url(#p05bd19c2fe)" style="fill: none; stroke-dasharray: 2.96,1.28; stroke-dashoffset: 0; stroke: #b0b0b0; stroke-opacity: 0.5; stroke-width: 0.8"/>
     </g>
     <g id="line2d_8">
      <g>
       <use xlink:href="#m20e8e14538" x="288.4125" y="387.100937" style="stroke: #000000; stroke-width: 0.8"/>
      </g>
     </g>
     <g id="text_4">
      <!-- 60 -->
      <g transform="translate(282.851562 401.25875) scale(0.1 -0.1)">
       <defs>
        <path id="ArialMT-36" d="M 3184 3459 
L 2625 3416 
Q 2550 3747 2413 3897 
Q 2184 4138 1850 4138 
Q 1581 4138 1378 3988 
Q 1113 3794 959 3422 
Q 806 3050 800 2363 
Q 1003 2672 1297 2822 
Q 1591 2972 1913 2972 
Q 2475 2972 2870 2558 
Q 3266 2144 3266 1488 
Q 3266 1056 3080 686 
Q 2894 316 2569 119 
Q 2244 -78 1831 -78 
Q 1128 -78 684 439 
Q 241 956 241 2144 
Q 241 3472 731 4075 
Q 1159 4600 1884 4600 
Q 2425 4600 2770 4297 
Q 3116 3994 3184 3459 
z
M 888 1484 
Q 888 1194 1011 928 
Q 1134 663 1356 523 
Q 1578 384 1822 384 
Q 2178 384 2434 671 
Q 2691 959 2691 1453 
Q 2691 1928 2437 2201 
Q 2184 2475 1800 2475 
Q 1419 2475 1153 2201 
Q 888 1928 888 1484 
z
" transform="scale(0.015625)"/>
       </defs>
       <use xlink:href="#ArialMT-36"/>
       <use xlink:href="#ArialMT-30" transform="translate(55.615234 0)"/>
      </g>
     </g>
    </g>
    <g id="xtick_5">
     <g id="line2d_9">
      <path d="M 370.1975 387.100937 
L 370.1975 23.220937 
" clip-path="url(#p05bd19c2fe)" style="fill: none; stroke-dasharray: 2.96,1.28; stroke-dashoffset: 0; stroke: #b0b0b0; stroke-opacity: 0.5; stroke-width: 0.8"/>
     </g>
     <g id="line2d_10">
      <g>
       <use xlink:href="#m20e8e14538" x="370.1975" y="387.100937" style="stroke: #000000; stroke-width: 0.8"/>
      </g>
     </g>
     <g id="text_5">
      <!-- 80 -->
      <g transform="translate(364.636563 401.25875) scale(0.1 -0.1)">
       <defs>
        <path id="ArialMT-38" d="M 1131 2484 
Q 781 2613 612 2850 
Q 444 3088 444 3419 
Q 444 3919 803 4259 
Q 1163 4600 1759 4600 
Q 2359 4600 2725 4251 
Q 3091 3903 3091 3403 
Q 3091 3084 2923 2848 
Q 2756 2613 2416 2484 
Q 2838 2347 3058 2040 
Q 3278 1734 3278 1309 
Q 3278 722 2862 322 
Q 2447 -78 1769 -78 
Q 1091 -78 675 323 
Q 259 725 259 1325 
Q 259 1772 486 2073 
Q 713 2375 1131 2484 
z
M 1019 3438 
Q 1019 3113 1228 2906 
Q 1438 2700 1772 2700 
Q 2097 2700 2305 2904 
Q 2513 3109 2513 3406 
Q 2513 3716 2298 3927 
Q 2084 4138 1766 4138 
Q 1444 4138 1231 3931 
Q 1019 3725 1019 3438 
z
M 838 1322 
Q 838 1081 952 856 
Q 1066 631 1291 507 
Q 1516 384 1775 384 
Q 2178 384 2440 643 
Q 2703 903 2703 1303 
Q 2703 1709 2433 1975 
Q 2163 2241 1756 2241 
Q 1359 2241 1098 1978 
Q 838 1716 838 1322 
z
" transform="scale(0.015625)"/>
       </defs>
       <use xlink:href="#ArialMT-38"/>
       <use xlink:href="#ArialMT-30" transform="translate(55.615234 0)"/>
      </g>
     </g>
    </g>
    <g id="xtick_6">
     <g id="line2d_11">
      <path d="M 451.9825 387.100937 
L 451.9825 23.220937 
" clip-path="url(#p05bd19c2fe)" style="fill: none; stroke-dasharray: 2.96,1.28; stroke-dashoffset: 0; stroke: #b0b0b0; stroke-opacity: 0.5; stroke-width: 0.8"/>
     </g>
     <g id="line2d_12">
      <g>
       <use xlink:href="#m20e8e14538" x="451.9825" y="387.100937" style="stroke: #000000; stroke-width: 0.8"/>
      </g>
     </g>
     <g id="text_6">
      <!-- 100 -->
      <g transform="translate(443.641094 401.25875) scale(0.1 -0.1)">
       <defs>
        <path id="ArialMT-31" d="M 2384 0 
L 1822 0 
L 1822 3584 
Q 1619 3391 1289 3197 
Q 959 3003 697 2906 
L 697 3450 
Q 1169 3672 1522 3987 
Q 1875 4303 2022 4600 
L 2384 4600 
L 2384 0 
z
" transform="scale(0.015625)"/>
       </defs>
       <use xlink:href="#ArialMT-31"/>
       <use xlink:href="#ArialMT-30" transform="translate(55.615234 0)"/>
       <use xlink:href="#ArialMT-30" transform="translate(111.230469 0)"/>
      </g>
     </g>
    </g>
    <g id="xtick_7">
     <g id="line2d_13">
      <path d="M 533.7675 387.100937 
L 533.7675 23.220937 
" clip-path="url(#p05bd19c2fe)" style="fill: none; stroke-dasharray: 2.96,1.28; stroke-dashoffset: 0; stroke: #b0b0b0; stroke-opacity: 0.5; stroke-width: 0.8"/>
     </g>
     <g id="line2d_14">
      <g>
       <use xlink:href="#m20e8e14538" x="533.7675" y="387.100937" style="stroke: #000000; stroke-width: 0.8"/>
      </g>
     </g>
     <g id="text_7">
      <!-- 120 -->
      <g transform="translate(525.426094 401.25875) scale(0.1 -0.1)">
       <use xlink:href="#ArialMT-31"/>
       <use xlink:href="#ArialMT-32" transform="translate(55.615234 0)"/>
       <use xlink:href="#ArialMT-30" transform="translate(111.230469 0)"/>
      </g>
     </g>
    </g>
    <g id="xtick_8">
     <g id="line2d_15">
      <path d="M 615.5525 387.100937 
L 615.5525 23.220937 
" clip-path="url(#p05bd19c2fe)" style="fill: none; stroke-dasharray: 2.96,1.28; stroke-dashoffset: 0; stroke: #b0b0b0; stroke-opacity: 0.5; stroke-width: 0.8"/>
     </g>
     <g id="line2d_16">
      <g>
       <use xlink:href="#m20e8e14538" x="615.5525" y="387.100937" style="stroke: #000000; stroke-width: 0.8"/>
      </g>
     </g>
     <g id="text_8">
      <!-- 140 -->
      <g transform="translate(607.211094 401.25875) scale(0.1 -0.1)">
       <use xlink:href="#ArialMT-31"/>
       <use xlink:href="#ArialMT-34" transform="translate(55.615234 0)"/>
       <use xlink:href="#ArialMT-30" transform="translate(111.230469 0)"/>
      </g>
     </g>
    </g>
    <g id="xtick_9">
     <g id="line2d_17">
      <path d="M 697.3375 387.100937 
L 697.3375 23.220937 
" clip-path="url(#p05bd19c2fe)" style="fill: none; stroke-dasharray: 2.96,1.28; stroke-dashoffset: 0; stroke: #b0b0b0; stroke-opacity: 0.5; stroke-width: 0.8"/>
     </g>
     <g id="line2d_18">
      <g>
       <use xlink:href="#m20e8e14538" x="697.3375" y="387.100937" style="stroke: #000000; stroke-width: 0.8"/>
      </g>
     </g>
     <g id="text_9">
      <!-- 160 -->
      <g transform="translate(688.996094 401.25875) scale(0.1 -0.1)">
       <use xlink:href="#ArialMT-31"/>
       <use xlink:href="#ArialMT-36" transform="translate(55.615234 0)"/>
       <use xlink:href="#ArialMT-30" transform="translate(111.230469 0)"/>
      </g>
     </g>
    </g>
    <g id="text_10">
     <!-- k (Threshold Index) -->
     <g transform="translate(314.863438 415.981875) scale(0.12 -0.12)">
      <defs>
       <path id="Arial-BoldMT-6b" d="M 428 0 
L 428 4581 
L 1306 4581 
L 1306 2150 
L 2334 3319 
L 3416 3319 
L 2281 2106 
L 3497 0 
L 2550 0 
L 1716 1491 
L 1306 1063 
L 1306 0 
L 428 0 
z
" transform="scale(0.015625)"/>
       <path id="Arial-BoldMT-20" transform="scale(0.015625)"/>
       <path id="Arial-BoldMT-28" d="M 1916 -1347 
L 1313 -1347 
Q 834 -625 584 153 
Q 334 931 334 1659 
Q 334 2563 644 3369 
Q 913 4069 1325 4659 
L 1925 4659 
Q 1497 3713 1336 3048 
Q 1175 2384 1175 1641 
Q 1175 1128 1270 590 
Q 1366 53 1531 -431 
Q 1641 -750 1916 -1347 
z
" transform="scale(0.015625)"/>
       <path id="Arial-BoldMT-54" d="M 1497 0 
L 1497 3806 
L 138 3806 
L 138 4581 
L 3778 4581 
L 3778 3806 
L 2422 3806 
L 2422 0 
L 1497 0 
z
" transform="scale(0.015625)"/>
       <path id="Arial-BoldMT-68" d="M 1334 4581 
L 1334 2897 
Q 1759 3394 2350 3394 
Q 2653 3394 2897 3281 
Q 3141 3169 3264 2994 
Q 3388 2819 3433 2606 
Q 3478 2394 3478 1947 
L 3478 0 
L 2600 0 
L 2600 1753 
Q 2600 2275 2550 2415 
Q 2500 2556 2373 2639 
Q 2247 2722 2056 2722 
Q 1838 2722 1666 2615 
Q 1494 2509 1414 2295 
Q 1334 2081 1334 1663 
L 1334 0 
L 456 0 
L 456 4581 
L 1334 4581 
z
" transform="scale(0.015625)"/>
       <path id="Arial-BoldMT-72" d="M 1300 0 
L 422 0 
L 422 3319 
L 1238 3319 
L 1238 2847 
Q 1447 3181 1614 3287 
Q 1781 3394 1994 3394 
Q 2294 3394 2572 3228 
L 2300 2463 
Q 2078 2606 1888 2606 
Q 1703 2606 1575 2504 
Q 1447 2403 1373 2137 
Q 1300 1872 1300 1025 
L 1300 0 
z
" transform="scale(0.015625)"/>
       <path id="Arial-BoldMT-65" d="M 2381 1056 
L 3256 909 
Q 3088 428 2723 176 
Q 2359 -75 1813 -75 
Q 947 -75 531 491 
Q 203 944 203 1634 
Q 203 2459 634 2926 
Q 1066 3394 1725 3394 
Q 2466 3394 2894 2905 
Q 3322 2416 3303 1406 
L 1103 1406 
Q 1113 1016 1316 798 
Q 1519 581 1822 581 
Q 2028 581 2168 693 
Q 2309 806 2381 1056 
z
M 2431 1944 
Q 2422 2325 2234 2523 
Q 2047 2722 1778 2722 
Q 1491 2722 1303 2513 
Q 1116 2303 1119 1944 
L 2431 1944 
z
" transform="scale(0.015625)"/>
       <path id="Arial-BoldMT-73" d="M 150 947 
L 1031 1081 
Q 1088 825 1259 692 
Q 1431 559 1741 559 
Q 2081 559 2253 684 
Q 2369 772 2369 919 
Q 2369 1019 2306 1084 
Q 2241 1147 2013 1200 
Q 950 1434 666 1628 
Q 272 1897 272 2375 
Q 272 2806 612 3100 
Q 953 3394 1669 3394 
Q 2350 3394 2681 3172 
Q 3013 2950 3138 2516 
L 2309 2363 
Q 2256 2556 2107 2659 
Q 1959 2763 1684 2763 
Q 1338 2763 1188 2666 
Q 1088 2597 1088 2488 
Q 1088 2394 1175 2328 
Q 1294 2241 1995 2081 
Q 2697 1922 2975 1691 
Q 3250 1456 3250 1038 
Q 3250 581 2869 253 
Q 2488 -75 1741 -75 
Q 1063 -75 667 200 
Q 272 475 150 947 
z
" transform="scale(0.015625)"/>
       <path id="Arial-BoldMT-6f" d="M 256 1706 
Q 256 2144 472 2553 
Q 688 2963 1083 3178 
Q 1478 3394 1966 3394 
Q 2719 3394 3200 2905 
Q 3681 2416 3681 1669 
Q 3681 916 3195 420 
Q 2709 -75 1972 -75 
Q 1516 -75 1102 131 
Q 688 338 472 736 
Q 256 1134 256 1706 
z
M 1156 1659 
Q 1156 1166 1390 903 
Q 1625 641 1969 641 
Q 2313 641 2545 903 
Q 2778 1166 2778 1666 
Q 2778 2153 2545 2415 
Q 2313 2678 1969 2678 
Q 1625 2678 1390 2415 
Q 1156 2153 1156 1659 
z
" transform="scale(0.015625)"/>
       <path id="Arial-BoldMT-6c" d="M 459 0 
L 459 4581 
L 1338 4581 
L 1338 0 
L 459 0 
z
" transform="scale(0.015625)"/>
       <path id="Arial-BoldMT-64" d="M 3503 0 
L 2688 0 
L 2688 488 
Q 2484 203 2207 64 
Q 1931 -75 1650 -75 
Q 1078 -75 670 386 
Q 263 847 263 1672 
Q 263 2516 659 2955 
Q 1056 3394 1663 3394 
Q 2219 3394 2625 2931 
L 2625 4581 
L 3503 4581 
L 3503 0 
z
M 1159 1731 
Q 1159 1200 1306 963 
Q 1519 619 1900 619 
Q 2203 619 2415 876 
Q 2628 1134 2628 1647 
Q 2628 2219 2422 2470 
Q 2216 2722 1894 2722 
Q 1581 2722 1370 2473 
Q 1159 2225 1159 1731 
z
" transform="scale(0.015625)"/>
       <path id="Arial-BoldMT-49" d="M 438 0 
L 438 4581 
L 1363 4581 
L 1363 0 
L 438 0 
z
" transform="scale(0.015625)"/>
       <path id="Arial-BoldMT-6e" d="M 3478 0 
L 2600 0 
L 2600 1694 
Q 2600 2231 2544 2389 
Q 2488 2547 2361 2634 
Q 2234 2722 2056 2722 
Q 1828 2722 1647 2597 
Q 1466 2472 1398 2265 
Q 1331 2059 1331 1503 
L 1331 0 
L 453 0 
L 453 3319 
L 1269 3319 
L 1269 2831 
Q 1703 3394 2363 3394 
Q 2653 3394 2893 3289 
Q 3134 3184 3257 3021 
Q 3381 2859 3429 2653 
Q 3478 2447 3478 2063 
L 3478 0 
z
" transform="scale(0.015625)"/>
       <path id="Arial-BoldMT-78" d="M 38 0 
L 1234 1709 
L 88 3319 
L 1159 3319 
L 1747 2406 
L 2366 3319 
L 3397 3319 
L 2272 1747 
L 3500 0 
L 2422 0 
L 1747 1028 
L 1066 0 
L 38 0 
z
" transform="scale(0.015625)"/>
       <path id="Arial-BoldMT-29" d="M 216 -1347 
Q 475 -791 581 -494 
Q 688 -197 778 190 
Q 869 578 912 926 
Q 956 1275 956 1641 
Q 956 2384 797 3048 
Q 638 3713 209 4659 
L 806 4659 
Q 1278 3988 1539 3234 
Q 1800 2481 1800 1706 
Q 1800 1053 1594 306 
Q 1359 -531 822 -1347 
L 216 -1347 
z
" transform="scale(0.015625)"/>
      </defs>
      <use xlink:href="#Arial-BoldMT-6b"/>
      <use xlink:href="#Arial-BoldMT-20" transform="translate(55.615234 0)"/>
      <use xlink:href="#Arial-BoldMT-28" transform="translate(83.398438 0)"/>
      <use xlink:href="#Arial-BoldMT-54" transform="translate(116.699219 0)"/>
      <use xlink:href="#Arial-BoldMT-68" transform="translate(177.783203 0)"/>
      <use xlink:href="#Arial-BoldMT-72" transform="translate(238.867188 0)"/>
      <use xlink:href="#Arial-BoldMT-65" transform="translate(277.783203 0)"/>
      <use xlink:href="#Arial-BoldMT-73" transform="translate(333.398438 0)"/>
      <use xlink:href="#Arial-BoldMT-68" transform="translate(389.013672 0)"/>
      <use xlink:href="#Arial-BoldMT-6f" transform="translate(450.097656 0)"/>
      <use xlink:href="#Arial-BoldMT-6c" transform="translate(511.181641 0)"/>
      <use xlink:href="#Arial-BoldMT-64" transform="translate(538.964844 0)"/>
      <use xlink:href="#Arial-BoldMT-20" transform="translate(600.048828 0)"/>
      <use xlink:href="#Arial-BoldMT-49" transform="translate(627.832031 0)"/>
      <use xlink:href="#Arial-BoldMT-6e" transform="translate(655.615234 0)"/>
      <use xlink:href="#Arial-BoldMT-64" transform="translate(716.699219 0)"/>
      <use xlink:href="#Arial-BoldMT-65" transform="translate(777.783203 0)"/>
      <use xlink:href="#Arial-BoldMT-78" transform="translate(833.398438 0)"/>
      <use xlink:href="#Arial-BoldMT-29" transform="translate(889.013672 0)"/>
     </g>
    </g>
   </g>
   <g id="matplotlib.axis_2">
    <g id="ytick_1">
     <g id="line2d_19">
      <path d="M 43.0575 387.100937 
L 697.3375 387.100937 
" clip-path="url(#p05bd19c2fe)" style="fill: none; stroke-dasharray: 2.96,1.28; stroke-dashoffset: 0; stroke: #b0b0b0; stroke-opacity: 0.5; stroke-width: 0.8"/>
     </g>
     <g id="line2d_20">
      <defs>
       <path id="m0163034293" d="M 0 0 
L -3.5 0 
" style="stroke: #000000; stroke-width: 0.8"/>
      </defs>
      <g>
       <use xlink:href="#m0163034293" x="43.0575" y="387.100937" style="stroke: #000000; stroke-width: 0.8"/>
      </g>
     </g>
     <g id="text_11">
      <!-- 0.0 -->
      <g transform="translate(22.1575 390.679844) scale(0.1 -0.1)">
       <defs>
        <path id="ArialMT-2e" d="M 581 0 
L 581 641 
L 1222 641 
L 1222 0 
L 581 0 
z
" transform="scale(0.015625)"/>
       </defs>
       <use xlink:href="#ArialMT-30"/>
       <use xlink:href="#ArialMT-2e" transform="translate(55.615234 0)"/>
       <use xlink:href="#ArialMT-30" transform="translate(83.398438 0)"/>
      </g>
     </g>
    </g>
    <g id="ytick_2">
     <g id="line2d_21">
      <path d="M 43.0575 317.790461 
L 697.3375 317.790461 
" clip-path="url(#p05bd19c2fe)" style="fill: none; stroke-dasharray: 2.96,1.28; stroke-dashoffset: 0; stroke: #b0b0b0; stroke-opacity: 0.5; stroke-width: 0.8"/>
     </g>
     <g id="line2d_22">
      <g>
       <use xlink:href="#m0163034293" x="43.0575" y="317.790461" style="stroke: #000000; stroke-width: 0.8"/>
      </g>
     </g>
     <g id="text_12">
      <!-- 0.2 -->
      <g transform="translate(22.1575 321.369368) scale(0.1 -0.1)">
       <use xlink:href="#ArialMT-30"/>
       <use xlink:href="#ArialMT-2e" transform="translate(55.615234 0)"/>
       <use xlink:href="#ArialMT-32" transform="translate(83.398438 0)"/>
      </g>
     </g>
    </g>
    <g id="ytick_3">
     <g id="line2d_23">
      <path d="M 43.0575 248.479985 
L 697.3375 248.479985 
" clip-path="url(#p05bd19c2fe)" style="fill: none; stroke-dasharray: 2.96,1.28; stroke-dashoffset: 0; stroke: #b0b0b0; stroke-opacity: 0.5; stroke-width: 0.8"/>
     </g>
     <g id="line2d_24">
      <g>
       <use xlink:href="#m0163034293" x="43.0575" y="248.479985" style="stroke: #000000; stroke-width: 0.8"/>
      </g>
     </g>
     <g id="text_13">
      <!-- 0.4 -->
      <g transform="translate(22.1575 252.058891) scale(0.1 -0.1)">
       <use xlink:href="#ArialMT-30"/>
       <use xlink:href="#ArialMT-2e" transform="translate(55.615234 0)"/>
       <use xlink:href="#ArialMT-34" transform="translate(83.398438 0)"/>
      </g>
     </g>
    </g>
    <g id="ytick_4">
     <g id="line2d_25">
      <path d="M 43.0575 179.169509 
L 697.3375 179.169509 
" clip-path="url(#p05bd19c2fe)" style="fill: none; stroke-dasharray: 2.96,1.28; stroke-dashoffset: 0; stroke: #b0b0b0; stroke-opacity: 0.5; stroke-width: 0.8"/>
     </g>
     <g id="line2d_26">
      <g>
       <use xlink:href="#m0163034293" x="43.0575" y="179.169509" style="stroke: #000000; stroke-width: 0.8"/>
      </g>
     </g>
     <g id="text_14">
      <!-- 0.6 -->
      <g transform="translate(22.1575 182.748415) scale(0.1 -0.1)">
       <use xlink:href="#ArialMT-30"/>
       <use xlink:href="#ArialMT-2e" transform="translate(55.615234 0)"/>
       <use xlink:href="#ArialMT-36" transform="translate(83.398438 0)"/>
      </g>
     </g>
    </g>
    <g id="ytick_5">
     <g id="line2d_27">
      <path d="M 43.0575 109.859033 
L 697.3375 109.859033 
" clip-path="url(#p05bd19c2fe)" style="fill: none; stroke-dasharray: 2.96,1.28; stroke-dashoffset: 0; stroke: #b0b0b0; stroke-opacity: 0.5; stroke-width: 0.8"/>
     </g>
     <g id="line2d_28">
      <g>
       <use xlink:href="#m0163034293" x="43.0575" y="109.859033" style="stroke: #000000; stroke-width: 0.8"/>
      </g>
     </g>
     <g id="text_15">
      <!-- 0.8 -->
      <g transform="translate(22.1575 113.437939) scale(0.1 -0.1)">
       <use xlink:href="#ArialMT-30"/>
       <use xlink:href="#ArialMT-2e" transform="translate(55.615234 0)"/>
       <use xlink:href="#ArialMT-38" transform="translate(83.398438 0)"/>
      </g>
     </g>
    </g>
    <g id="ytick_6">
     <g id="line2d_29">
      <path d="M 43.0575 40.548557 
L 697.3375 40.548557 
" clip-path="url(#p05bd19c2fe)" style="fill: none; stroke-dasharray: 2.96,1.28; stroke-dashoffset: 0; stroke: #b0b0b0; stroke-opacity: 0.5; stroke-width: 0.8"/>
     </g>
     <g id="line2d_30">
      <g>
       <use xlink:href="#m0163034293" x="43.0575" y="40.548557" style="stroke: #000000; stroke-width: 0.8"/>
      </g>
     </g>
     <g id="text_16">
      <!-- 1.0 -->
      <g transform="translate(22.1575 44.127463) scale(0.1 -0.1)">
       <use xlink:href="#ArialMT-31"/>
       <use xlink:href="#ArialMT-2e" transform="translate(55.615234 0)"/>
       <use xlink:href="#ArialMT-30" transform="translate(83.398438 0)"/>
      </g>
     </g>
    </g>
    <g id="text_17">
     <!-- F1-Score -->
     <g transform="translate(15.789375 230.835312) rotate(-90) scale(0.12 -0.12)">
      <defs>
       <path id="Arial-BoldMT-46" d="M 472 0 
L 472 4581 
L 3613 4581 
L 3613 3806 
L 1397 3806 
L 1397 2722 
L 3309 2722 
L 3309 1947 
L 1397 1947 
L 1397 0 
L 472 0 
z
" transform="scale(0.015625)"/>
       <path id="Arial-BoldMT-31" d="M 2519 0 
L 1641 0 
L 1641 3309 
Q 1159 2859 506 2644 
L 506 3441 
Q 850 3553 1253 3867 
Q 1656 4181 1806 4600 
L 2519 4600 
L 2519 0 
z
" transform="scale(0.015625)"/>
       <path id="Arial-BoldMT-2d" d="M 359 1222 
L 359 2100 
L 2084 2100 
L 2084 1222 
L 359 1222 
z
" transform="scale(0.015625)"/>
       <path id="Arial-BoldMT-53" d="M 231 1491 
L 1131 1578 
Q 1213 1125 1461 912 
Q 1709 700 2131 700 
Q 2578 700 2804 889 
Q 3031 1078 3031 1331 
Q 3031 1494 2936 1608 
Q 2841 1722 2603 1806 
Q 2441 1863 1863 2006 
Q 1119 2191 819 2459 
Q 397 2838 397 3381 
Q 397 3731 595 4036 
Q 794 4341 1167 4500 
Q 1541 4659 2069 4659 
Q 2931 4659 3367 4281 
Q 3803 3903 3825 3272 
L 2900 3231 
Q 2841 3584 2645 3739 
Q 2450 3894 2059 3894 
Q 1656 3894 1428 3728 
Q 1281 3622 1281 3444 
Q 1281 3281 1419 3166 
Q 1594 3019 2269 2859 
Q 2944 2700 3267 2529 
Q 3591 2359 3773 2064 
Q 3956 1769 3956 1334 
Q 3956 941 3737 597 
Q 3519 253 3119 86 
Q 2719 -81 2122 -81 
Q 1253 -81 787 320 
Q 322 722 231 1491 
z
" transform="scale(0.015625)"/>
       <path id="Arial-BoldMT-63" d="M 3353 2338 
L 2488 2181 
Q 2444 2441 2289 2572 
Q 2134 2703 1888 2703 
Q 1559 2703 1364 2476 
Q 1169 2250 1169 1719 
Q 1169 1128 1367 884 
Q 1566 641 1900 641 
Q 2150 641 2309 783 
Q 2469 925 2534 1272 
L 3397 1125 
Q 3263 531 2881 228 
Q 2500 -75 1859 -75 
Q 1131 -75 698 384 
Q 266 844 266 1656 
Q 266 2478 700 2936 
Q 1134 3394 1875 3394 
Q 2481 3394 2839 3133 
Q 3197 2872 3353 2338 
z
" transform="scale(0.015625)"/>
      </defs>
      <use xlink:href="#Arial-BoldMT-46"/>
      <use xlink:href="#Arial-BoldMT-31" transform="translate(61.083984 0)"/>
      <use xlink:href="#Arial-BoldMT-2d" transform="translate(116.699219 0)"/>
      <use xlink:href="#Arial-BoldMT-53" transform="translate(150 0)"/>
      <use xlink:href="#Arial-BoldMT-63" transform="translate(216.699219 0)"/>
      <use xlink:href="#Arial-BoldMT-6f" transform="translate(272.314453 0)"/>
      <use xlink:href="#Arial-BoldMT-72" transform="translate(333.398438 0)"/>
      <use xlink:href="#Arial-BoldMT-65" transform="translate(372.314453 0)"/>
     </g>
    </g>
   </g>
   <g id="line2d_31">
    <path d="M 47.14675 387.100937 
L 51.236 365.441414 
L 55.32525 345.094588 
L 63.50375 347.494951 
L 67.593 329.342207 
L 71.68225 312.170693 
L 75.7715 295.902943 
L 79.86075 298.241353 
L 83.95 283.135223 
L 88.03925 285.670972 
L 92.1285 271.583477 
L 100.307 276.834271 
L 104.39625 263.882313 
L 108.4855 251.493484 
L 112.57475 239.631839 
L 120.75325 245.650986 
L 124.8425 248.479985 
L 128.93175 237.607754 
L 133.021 227.153685 
L 137.11025 217.094109 
L 141.1995 207.40711 
L 145.28875 210.674271 
L 149.378 201.447876 
L 157.5565 207.849706 
L 161.64575 199.140324 
L 165.735 190.721255 
L 169.82425 182.578221 
L 173.9135 174.697865 
L 178.00275 167.06768 
L 182.092 159.675938 
L 190.2705 166.567604 
L 194.35975 159.514299 
L 202.53825 166.111013 
L 206.6275 169.268012 
L 214.806 156.066017 
L 222.9845 162.310204 
L 227.07375 165.307414 
L 231.163 159.10595 
L 239.3415 164.951975 
L 247.52 170.505699 
L 251.60925 164.622866 
L 255.6985 167.336013 
L 263.877 156.066017 
L 272.0555 161.438922 
L 280.234 166.567604 
L 284.32325 161.257813 
L 292.50175 166.221398 
L 300.68025 170.971496 
L 308.85875 175.521589 
L 317.03725 179.88405 
L 321.1265 174.92601 
L 329.305 179.169509 
L 341.57275 185.225764 
L 353.8405 190.939212 
L 366.10825 196.338159 
L 378.376 201.447876 
L 390.64375 206.291 
L 402.9115 210.887862 
L 415.17925 215.256782 
L 427.447 219.414302 
L 439.71475 223.375403 
L 451.9825 227.153685 
L 468.3395 231.92823 
L 484.6965 236.425989 
L 501.0535 240.670354 
L 517.4105 244.682151 
L 533.7675 248.479985 
L 550.1245 252.080529 
L 570.57075 256.326454 
L 591.017 260.313481 
L 611.46325 264.064589 
L 631.9095 267.600116 
L 652.35575 270.938128 
L 676.89125 274.705571 
L 697.3375 277.663344 
L 697.3375 277.663344 
" clip-path="url(#p05bd19c2fe)" style="fill: none; stroke: #1f77b4; stroke-width: 2; stroke-linecap: square"/>
    <defs>
     <path id="m5e651c0261" d="M 0 1.5 
C 0.397805 1.5 0.77937 1.341951 1.06066 1.06066 
C 1.341951 0.77937 1.5 0.397805 1.5 0 
C 1.5 -0.397805 1.341951 -0.77937 1.06066 -1.06066 
C 0.77937 -1.341951 0.397805 -1.5 0 -1.5 
C -0.397805 -1.5 -0.77937 -1.341951 -1.06066 -1.06066 
C -1.341951 -0.77937 -1.5 -0.397805 -1.5 0 
C -1.5 0.397805 -1.341951 0.77937 -1.06066 1.06066 
C -0.77937 1.341951 -0.397805 1.5 0 1.5 
z
" style="stroke: #1f77b4"/>
    </defs>
    <g clip-path="url(#p05bd19c2fe)">
     <use xlink:href="#m5e651c0261" x="47.14675" y="387.100937" style="fill: #1f77b4; stroke: #1f77b4"/>
     <use xlink:href="#m5e651c0261" x="63.50375" y="347.494951" style="fill: #1f77b4; stroke: #1f77b4"/>
     <use xlink:href="#m5e651c0261" x="79.86075" y="298.241353" style="fill: #1f77b4; stroke: #1f77b4"/>
     <use xlink:href="#m5e651c0261" x="96.21775" y="274.26993" style="fill: #1f77b4; stroke: #1f77b4"/>
     <use xlink:href="#m5e651c0261" x="112.57475" y="239.631839" style="fill: #1f77b4; stroke: #1f77b4"/>
     <use xlink:href="#m5e651c0261" x="128.93175" y="237.607754" style="fill: #1f77b4; stroke: #1f77b4"/>
     <use xlink:href="#m5e651c0261" x="145.28875" y="210.674271" style="fill: #1f77b4; stroke: #1f77b4"/>
     <use xlink:href="#m5e651c0261" x="161.64575" y="199.140324" style="fill: #1f77b4; stroke: #1f77b4"/>
     <use xlink:href="#m5e651c0261" x="178.00275" y="167.06768" style="fill: #1f77b4; stroke: #1f77b4"/>
     <use xlink:href="#m5e651c0261" x="194.35975" y="159.514299" style="fill: #1f77b4; stroke: #1f77b4"/>
     <use xlink:href="#m5e651c0261" x="210.71675" y="162.574043" style="fill: #1f77b4; stroke: #1f77b4"/>
     <use xlink:href="#m5e651c0261" x="227.07375" y="165.307414" style="fill: #1f77b4; stroke: #1f77b4"/>
     <use xlink:href="#m5e651c0261" x="243.43075" y="167.763988" style="fill: #1f77b4; stroke: #1f77b4"/>
     <use xlink:href="#m5e651c0261" x="259.78775" y="161.633123" style="fill: #1f77b4; stroke: #1f77b4"/>
     <use xlink:href="#m5e651c0261" x="276.14475" y="164.032738" style="fill: #1f77b4; stroke: #1f77b4"/>
     <use xlink:href="#m5e651c0261" x="292.50175" y="166.221398" style="fill: #1f77b4; stroke: #1f77b4"/>
     <use xlink:href="#m5e651c0261" x="308.85875" y="175.521589" style="fill: #1f77b4; stroke: #1f77b4"/>
     <use xlink:href="#m5e651c0261" x="325.21575" y="177.069191" style="fill: #1f77b4; stroke: #1f77b4"/>
     <use xlink:href="#m5e651c0261" x="341.57275" y="185.225764" style="fill: #1f77b4; stroke: #1f77b4"/>
     <use xlink:href="#m5e651c0261" x="357.92975" y="192.7725" style="fill: #1f77b4; stroke: #1f77b4"/>
     <use xlink:href="#m5e651c0261" x="374.28675" y="199.775326" style="fill: #1f77b4; stroke: #1f77b4"/>
     <use xlink:href="#m5e651c0261" x="390.64375" y="206.291" style="fill: #1f77b4; stroke: #1f77b4"/>
     <use xlink:href="#m5e651c0261" x="407.00075" y="212.368645" style="fill: #1f77b4; stroke: #1f77b4"/>
     <use xlink:href="#m5e651c0261" x="423.35775" y="218.050996" style="fill: #1f77b4; stroke: #1f77b4"/>
     <use xlink:href="#m5e651c0261" x="439.71475" y="223.375403" style="fill: #1f77b4; stroke: #1f77b4"/>
     <use xlink:href="#m5e651c0261" x="456.07175" y="228.374656" style="fill: #1f77b4; stroke: #1f77b4"/>
     <use xlink:href="#m5e651c0261" x="472.42875" y="233.077657" style="fill: #1f77b4; stroke: #1f77b4"/>
     <use xlink:href="#m5e651c0261" x="488.78575" y="237.509982" style="fill: #1f77b4; stroke: #1f77b4"/>
     <use xlink:href="#m5e651c0261" x="505.14275" y="241.694344" style="fill: #1f77b4; stroke: #1f77b4"/>
     <use xlink:href="#m5e651c0261" x="521.49975" y="245.650986" style="fill: #1f77b4; stroke: #1f77b4"/>
     <use xlink:href="#m5e651c0261" x="537.85675" y="249.398005" style="fill: #1f77b4; stroke: #1f77b4"/>
     <use xlink:href="#m5e651c0261" x="554.21375" y="252.951629" style="fill: #1f77b4; stroke: #1f77b4"/>
     <use xlink:href="#m5e651c0261" x="570.57075" y="256.326454" style="fill: #1f77b4; stroke: #1f77b4"/>
     <use xlink:href="#m5e651c0261" x="586.92775" y="259.535644" style="fill: #1f77b4; stroke: #1f77b4"/>
     <use xlink:href="#m5e651c0261" x="603.28475" y="262.5911" style="fill: #1f77b4; stroke: #1f77b4"/>
     <use xlink:href="#m5e651c0261" x="619.64175" y="265.503611" style="fill: #1f77b4; stroke: #1f77b4"/>
     <use xlink:href="#m5e651c0261" x="635.99875" y="268.282978" style="fill: #1f77b4; stroke: #1f77b4"/>
     <use xlink:href="#m5e651c0261" x="652.35575" y="270.938128" style="fill: #1f77b4; stroke: #1f77b4"/>
     <use xlink:href="#m5e651c0261" x="668.71275" y="273.477206" style="fill: #1f77b4; stroke: #1f77b4"/>
     <use xlink:href="#m5e651c0261" x="685.06975" y="275.90766" style="fill: #1f77b4; stroke: #1f77b4"/>
    </g>
   </g>
   <g id="line2d_32">
    <path d="M 47.14675 387.100937 
L 51.236 365.441414 
L 55.32525 366.097763 
L 59.4145 346.330069 
L 63.50375 347.494951 
L 67.593 329.342207 
L 71.68225 312.170693 
L 79.86075 316.01327 
L 88.03925 319.480961 
L 92.1285 321.09096 
L 96.21775 306.507361 
L 100.307 292.586652 
L 104.39625 294.686969 
L 108.4855 281.628474 
L 112.57475 269.125659 
L 120.75325 273.940976 
L 124.8425 262.34208 
L 128.93175 264.788332 
L 133.021 253.81156 
L 137.11025 243.249006 
L 145.28875 248.479985 
L 149.378 238.578489 
L 153.46725 241.184146 
L 157.5565 231.74987 
L 165.735 236.928239 
L 173.9135 241.77252 
L 178.00275 233.077657 
L 182.092 235.484271 
L 186.18125 227.153685 
L 190.2705 219.075541 
L 194.35975 221.583382 
L 202.53825 206.291 
L 206.6275 198.972502 
L 210.71675 201.622198 
L 218.89525 187.714636 
L 227.07375 174.548811 
L 235.25225 162.066924 
L 243.43075 150.217032 
L 251.60925 156.066017 
L 255.6985 158.883516 
L 259.78775 153.282464 
L 267.96625 158.784075 
L 276.14475 164.032738 
L 284.32325 153.470119 
L 292.50175 158.604862 
L 300.68025 163.518756 
L 308.85875 168.22575 
L 317.03725 172.73864 
L 325.21575 177.069191 
L 337.4835 183.246596 
L 349.75125 189.071006 
L 362.019 194.571837 
L 374.28675 199.775326 
L 386.5545 204.704948 
L 398.82225 209.381768 
L 411.09 213.824747 
L 423.35775 218.050996 
L 435.6255 222.075994 
L 447.89325 225.913784 
L 464.25025 230.761518 
L 480.60725 235.326172 
L 496.96425 239.631839 
L 513.32125 243.699952 
L 529.67825 247.549643 
L 546.03525 251.198043 
L 566.4815 255.498768 
L 586.92775 259.535644 
L 607.374 263.33223 
L 627.82025 266.90936 
L 648.2665 270.285528 
L 672.802 274.094726 
L 697.3375 277.663344 
L 697.3375 277.663344 
" clip-path="url(#p05bd19c2fe)" style="fill: none; stroke: #ff7f0e; stroke-width: 2; stroke-linecap: square"/>
    <defs>
     <path id="mb2c2b20a23" d="M 0 1.5 
C 0.397805 1.5 0.77937 1.341951 1.06066 1.06066 
C 1.341951 0.77937 1.5 0.397805 1.5 0 
C 1.5 -0.397805 1.341951 -0.77937 1.06066 -1.06066 
C 0.77937 -1.341951 0.397805 -1.5 0 -1.5 
C -0.397805 -1.5 -0.77937 -1.341951 -1.06066 -1.06066 
C -1.341951 -0.77937 -1.5 -0.397805 -1.5 0 
C -1.5 0.397805 -1.341951 0.77937 -1.06066 1.06066 
C -0.77937 1.341951 -0.397805 1.5 0 1.5 
z
" style="stroke: #ff7f0e"/>
    </defs>
    <g clip-path="url(#p05bd19c2fe)">
     <use xlink:href="#mb2c2b20a23" x="47.14675" y="387.100937" style="fill: #ff7f0e; stroke: #ff7f0e"/>
     <use xlink:href="#mb2c2b20a23" x="63.50375" y="347.494951" style="fill: #ff7f0e; stroke: #ff7f0e"/>
     <use xlink:href="#mb2c2b20a23" x="79.86075" y="316.01327" style="fill: #ff7f0e; stroke: #ff7f0e"/>
     <use xlink:href="#mb2c2b20a23" x="96.21775" y="306.507361" style="fill: #ff7f0e; stroke: #ff7f0e"/>
     <use xlink:href="#mb2c2b20a23" x="112.57475" y="269.125659" style="fill: #ff7f0e; stroke: #ff7f0e"/>
     <use xlink:href="#mb2c2b20a23" x="128.93175" y="264.788332" style="fill: #ff7f0e; stroke: #ff7f0e"/>
     <use xlink:href="#mb2c2b20a23" x="145.28875" y="248.479985" style="fill: #ff7f0e; stroke: #ff7f0e"/>
     <use xlink:href="#mb2c2b20a23" x="161.64575" y="234.382939" style="fill: #ff7f0e; stroke: #ff7f0e"/>
     <use xlink:href="#mb2c2b20a23" x="178.00275" y="233.077657" style="fill: #ff7f0e; stroke: #ff7f0e"/>
     <use xlink:href="#mb2c2b20a23" x="194.35975" y="221.583382" style="fill: #ff7f0e; stroke: #ff7f0e"/>
     <use xlink:href="#mb2c2b20a23" x="210.71675" y="201.622198" style="fill: #ff7f0e; stroke: #ff7f0e"/>
     <use xlink:href="#mb2c2b20a23" x="227.07375" y="174.548811" style="fill: #ff7f0e; stroke: #ff7f0e"/>
     <use xlink:href="#mb2c2b20a23" x="243.43075" y="150.217032" style="fill: #ff7f0e; stroke: #ff7f0e"/>
     <use xlink:href="#mb2c2b20a23" x="259.78775" y="153.282464" style="fill: #ff7f0e; stroke: #ff7f0e"/>
     <use xlink:href="#mb2c2b20a23" x="276.14475" y="164.032738" style="fill: #ff7f0e; stroke: #ff7f0e"/>
     <use xlink:href="#mb2c2b20a23" x="292.50175" y="158.604862" style="fill: #ff7f0e; stroke: #ff7f0e"/>
     <use xlink:href="#mb2c2b20a23" x="308.85875" y="168.22575" style="fill: #ff7f0e; stroke: #ff7f0e"/>
     <use xlink:href="#mb2c2b20a23" x="325.21575" y="177.069191" style="fill: #ff7f0e; stroke: #ff7f0e"/>
     <use xlink:href="#mb2c2b20a23" x="341.57275" y="185.225764" style="fill: #ff7f0e; stroke: #ff7f0e"/>
     <use xlink:href="#mb2c2b20a23" x="357.92975" y="192.7725" style="fill: #ff7f0e; stroke: #ff7f0e"/>
     <use xlink:href="#mb2c2b20a23" x="374.28675" y="199.775326" style="fill: #ff7f0e; stroke: #ff7f0e"/>
     <use xlink:href="#mb2c2b20a23" x="390.64375" y="206.291" style="fill: #ff7f0e; stroke: #ff7f0e"/>
     <use xlink:href="#mb2c2b20a23" x="407.00075" y="212.368645" style="fill: #ff7f0e; stroke: #ff7f0e"/>
     <use xlink:href="#mb2c2b20a23" x="423.35775" y="218.050996" style="fill: #ff7f0e; stroke: #ff7f0e"/>
     <use xlink:href="#mb2c2b20a23" x="439.71475" y="223.375403" style="fill: #ff7f0e; stroke: #ff7f0e"/>
     <use xlink:href="#mb2c2b20a23" x="456.07175" y="228.374656" style="fill: #ff7f0e; stroke: #ff7f0e"/>
     <use xlink:href="#mb2c2b20a23" x="472.42875" y="233.077657" style="fill: #ff7f0e; stroke: #ff7f0e"/>
     <use xlink:href="#mb2c2b20a23" x="488.78575" y="237.509982" style="fill: #ff7f0e; stroke: #ff7f0e"/>
     <use xlink:href="#mb2c2b20a23" x="505.14275" y="241.694344" style="fill: #ff7f0e; stroke: #ff7f0e"/>
     <use xlink:href="#mb2c2b20a23" x="521.49975" y="245.650986" style="fill: #ff7f0e; stroke: #ff7f0e"/>
     <use xlink:href="#mb2c2b20a23" x="537.85675" y="249.398005" style="fill: #ff7f0e; stroke: #ff7f0e"/>
     <use xlink:href="#mb2c2b20a23" x="554.21375" y="252.951629" style="fill: #ff7f0e; stroke: #ff7f0e"/>
     <use xlink:href="#mb2c2b20a23" x="570.57075" y="256.326454" style="fill: #ff7f0e; stroke: #ff7f0e"/>
     <use xlink:href="#mb2c2b20a23" x="586.92775" y="259.535644" style="fill: #ff7f0e; stroke: #ff7f0e"/>
     <use xlink:href="#mb2c2b20a23" x="603.28475" y="262.5911" style="fill: #ff7f0e; stroke: #ff7f0e"/>
     <use xlink:href="#mb2c2b20a23" x="619.64175" y="265.503611" style="fill: #ff7f0e; stroke: #ff7f0e"/>
     <use xlink:href="#mb2c2b20a23" x="635.99875" y="268.282978" style="fill: #ff7f0e; stroke: #ff7f0e"/>
     <use xlink:href="#mb2c2b20a23" x="652.35575" y="270.938128" style="fill: #ff7f0e; stroke: #ff7f0e"/>
     <use xlink:href="#mb2c2b20a23" x="668.71275" y="273.477206" style="fill: #ff7f0e; stroke: #ff7f0e"/>
     <use xlink:href="#mb2c2b20a23" x="685.06975" y="275.90766" style="fill: #ff7f0e; stroke: #ff7f0e"/>
    </g>
   </g>
   <g id="line2d_33">
    <path d="M 47.14675 387.100937 
L 51.236 387.100937 
L 55.32525 366.097763 
L 67.593 367.848027 
L 79.86075 369.329021 
L 92.1285 370.598443 
L 100.307 371.348557 
L 104.39625 356.296281 
L 108.4855 341.898453 
L 116.664 343.78189 
L 120.75325 344.665952 
L 124.8425 331.652557 
L 128.93175 319.14949 
L 133.021 320.456249 
L 137.11025 308.636247 
L 145.28875 311.489509 
L 149.378 312.839713 
L 153.46725 301.982809 
L 157.5565 291.500281 
L 165.735 294.686969 
L 169.82425 284.839579 
L 178.00275 288.085972 
L 182.092 278.803318 
L 190.2705 282.085064 
L 194.35975 273.307618 
L 198.449 274.98105 
L 206.6275 258.381482 
L 214.806 261.957022 
L 222.9845 265.33929 
L 231.163 268.543544 
L 235.25225 270.08325 
L 243.43075 255.498768 
L 251.60925 258.748204 
L 263.877 263.33223 
L 276.14475 267.600116 
L 288.4125 271.583477 
L 296.591 274.094726 
L 300.68025 267.857107 
L 304.7695 269.125659 
L 308.85875 263.071664 
L 321.1265 266.868479 
L 333.39425 270.43974 
L 345.662 273.804967 
L 357.92975 276.981489 
L 374.28675 280.949758 
L 382.46525 282.82854 
L 386.5545 277.663344 
L 394.733 279.550199 
L 398.82225 274.545463 
L 407.00075 276.437152 
L 411.09 271.583477 
L 427.447 275.309847 
L 443.804 278.803318 
L 460.161 282.085064 
L 476.518 285.173767 
L 496.96425 288.788205 
L 505.14275 290.163209 
L 509.232 286.02316 
L 517.4105 287.407787 
L 525.589 279.388711 
L 546.03525 282.908718 
L 562.39225 285.563297 
L 570.57075 278.122201 
L 582.8385 280.140326 
L 586.92775 276.54435 
L 607.374 279.834724 
L 631.9095 283.533559 
L 652.35575 286.426503 
L 656.445 283.135223 
L 680.9805 286.488956 
L 685.06975 283.320545 
L 689.159 283.872569 
L 697.3375 277.663344 
L 697.3375 277.663344 
" clip-path="url(#p05bd19c2fe)" style="fill: none; stroke: #2ca02c; stroke-width: 2; stroke-linecap: square"/>
    <defs>
     <path id="mef7eee8f6f" d="M 0 1.5 
C 0.397805 1.5 0.77937 1.341951 1.06066 1.06066 
C 1.341951 0.77937 1.5 0.397805 1.5 0 
C 1.5 -0.397805 1.341951 -0.77937 1.06066 -1.06066 
C 0.77937 -1.341951 0.397805 -1.5 0 -1.5 
C -0.397805 -1.5 -0.77937 -1.341951 -1.06066 -1.06066 
C -1.341951 -0.77937 -1.5 -0.397805 -1.5 0 
C -1.5 0.397805 -1.341951 0.77937 -1.06066 1.06066 
C -0.77937 1.341951 -0.397805 1.5 0 1.5 
z
" style="stroke: #2ca02c"/>
    </defs>
    <g clip-path="url(#p05bd19c2fe)">
     <use xlink:href="#mef7eee8f6f" x="47.14675" y="387.100937" style="fill: #2ca02c; stroke: #2ca02c"/>
     <use xlink:href="#mef7eee8f6f" x="63.50375" y="367.297944" style="fill: #2ca02c; stroke: #2ca02c"/>
     <use xlink:href="#mef7eee8f6f" x="79.86075" y="369.329021" style="fill: #2ca02c; stroke: #2ca02c"/>
     <use xlink:href="#mef7eee8f6f" x="96.21775" y="370.982222" style="fill: #2ca02c; stroke: #2ca02c"/>
     <use xlink:href="#mef7eee8f6f" x="112.57475" y="342.860208" style="fill: #2ca02c; stroke: #2ca02c"/>
     <use xlink:href="#mef7eee8f6f" x="128.93175" y="319.14949" style="fill: #2ca02c; stroke: #2ca02c"/>
     <use xlink:href="#mef7eee8f6f" x="145.28875" y="311.489509" style="fill: #2ca02c; stroke: #2ca02c"/>
     <use xlink:href="#mef7eee8f6f" x="161.64575" y="293.120631" style="fill: #2ca02c; stroke: #2ca02c"/>
     <use xlink:href="#mef7eee8f6f" x="178.00275" y="288.085972" style="fill: #2ca02c; stroke: #2ca02c"/>
     <use xlink:href="#mef7eee8f6f" x="194.35975" y="273.307618" style="fill: #2ca02c; stroke: #2ca02c"/>
     <use xlink:href="#mef7eee8f6f" x="210.71675" y="260.194432" style="fill: #2ca02c; stroke: #2ca02c"/>
     <use xlink:href="#mef7eee8f6f" x="227.07375" y="266.962779" style="fill: #2ca02c; stroke: #2ca02c"/>
     <use xlink:href="#mef7eee8f6f" x="243.43075" y="255.498768" style="fill: #2ca02c; stroke: #2ca02c"/>
     <use xlink:href="#mef7eee8f6f" x="259.78775" y="261.841041" style="fill: #2ca02c; stroke: #2ca02c"/>
     <use xlink:href="#mef7eee8f6f" x="276.14475" y="267.600116" style="fill: #2ca02c; stroke: #2ca02c"/>
     <use xlink:href="#mef7eee8f6f" x="292.50175" y="272.8529" style="fill: #2ca02c; stroke: #2ca02c"/>
     <use xlink:href="#mef7eee8f6f" x="308.85875" y="263.071664" style="fill: #2ca02c; stroke: #2ca02c"/>
     <use xlink:href="#mef7eee8f6f" x="325.21575" y="268.082948" style="fill: #2ca02c; stroke: #2ca02c"/>
     <use xlink:href="#mef7eee8f6f" x="341.57275" y="272.705006" style="fill: #2ca02c; stroke: #2ca02c"/>
     <use xlink:href="#mef7eee8f6f" x="357.92975" y="276.981489" style="fill: #2ca02c; stroke: #2ca02c"/>
     <use xlink:href="#mef7eee8f6f" x="374.28675" y="280.949758" style="fill: #2ca02c; stroke: #2ca02c"/>
     <use xlink:href="#mef7eee8f6f" x="390.64375" y="278.614975" style="fill: #2ca02c; stroke: #2ca02c"/>
     <use xlink:href="#mef7eee8f6f" x="407.00075" y="276.437152" style="fill: #2ca02c; stroke: #2ca02c"/>
     <use xlink:href="#mef7eee8f6f" x="423.35775" y="274.400976" style="fill: #2ca02c; stroke: #2ca02c"/>
     <use xlink:href="#mef7eee8f6f" x="439.71475" y="277.950581" style="fill: #2ca02c; stroke: #2ca02c"/>
     <use xlink:href="#mef7eee8f6f" x="456.07175" y="281.283417" style="fill: #2ca02c; stroke: #2ca02c"/>
     <use xlink:href="#mef7eee8f6f" x="472.42875" y="284.418751" style="fill: #2ca02c; stroke: #2ca02c"/>
     <use xlink:href="#mef7eee8f6f" x="488.78575" y="287.373634" style="fill: #2ca02c; stroke: #2ca02c"/>
     <use xlink:href="#mef7eee8f6f" x="505.14275" y="290.163209" style="fill: #2ca02c; stroke: #2ca02c"/>
     <use xlink:href="#mef7eee8f6f" x="521.49975" y="283.370973" style="fill: #2ca02c; stroke: #2ca02c"/>
     <use xlink:href="#mef7eee8f6f" x="537.85675" y="281.528689" style="fill: #2ca02c; stroke: #2ca02c"/>
     <use xlink:href="#mef7eee8f6f" x="554.21375" y="284.253134" style="fill: #2ca02c; stroke: #2ca02c"/>
     <use xlink:href="#mef7eee8f6f" x="570.57075" y="278.122201" style="fill: #2ca02c; stroke: #2ca02c"/>
     <use xlink:href="#mef7eee8f6f" x="586.92775" y="276.54435" style="fill: #2ca02c; stroke: #2ca02c"/>
     <use xlink:href="#mef7eee8f6f" x="603.28475" y="279.192412" style="fill: #2ca02c; stroke: #2ca02c"/>
     <use xlink:href="#mef7eee8f6f" x="619.64175" y="281.716588" style="fill: #2ca02c; stroke: #2ca02c"/>
     <use xlink:href="#mef7eee8f6f" x="635.99875" y="284.125373" style="fill: #2ca02c; stroke: #2ca02c"/>
     <use xlink:href="#mef7eee8f6f" x="652.35575" y="286.426503" style="fill: #2ca02c; stroke: #2ca02c"/>
     <use xlink:href="#mef7eee8f6f" x="668.71275" y="284.839579" style="fill: #2ca02c; stroke: #2ca02c"/>
     <use xlink:href="#mef7eee8f6f" x="685.06975" y="283.320545" style="fill: #2ca02c; stroke: #2ca02c"/>
    </g>
   </g>
   <g id="line2d_34">
    <path d="M 47.14675 387.100937 
L 51.236 365.441414 
L 55.32525 366.097763 
L 59.4145 346.330069 
L 63.50375 347.494951 
L 67.593 329.342207 
L 71.68225 312.170693 
L 75.7715 295.902943 
L 83.95 300.462842 
L 88.03925 285.670972 
L 92.1285 288.085972 
L 96.21775 274.26993 
L 100.307 276.834271 
L 104.39625 263.882313 
L 112.57475 269.125659 
L 116.664 271.583477 
L 120.75325 259.795981 
L 124.8425 262.34208 
L 128.93175 251.198043 
L 133.021 240.482622 
L 141.1995 245.91293 
L 145.28875 235.87808 
L 149.378 226.201618 
L 153.46725 229.024413 
L 157.5565 219.799788 
L 161.64575 210.887862 
L 169.82425 216.66534 
L 173.9135 208.235192 
L 178.00275 211.074331 
L 182.092 202.994985 
L 186.18125 195.164234 
L 190.2705 198.072366 
L 194.35975 190.548841 
L 202.53825 196.246003 
L 206.6275 198.972502 
L 214.806 184.945382 
L 218.89525 178.22005 
L 222.9845 181.042765 
L 227.07375 174.548811 
L 235.25225 180.069645 
L 239.3415 182.723892 
L 243.43075 176.537466 
L 247.52 179.169509 
L 251.60925 173.179715 
L 255.6985 175.78851 
L 263.877 164.317264 
L 272.0555 169.49828 
L 280.234 174.443795 
L 284.32325 176.833201 
L 288.4125 171.468345 
L 296.591 176.15601 
L 300.68025 170.971496 
L 308.85875 175.521589 
L 317.03725 179.88405 
L 321.1265 181.998508 
L 325.21575 177.069191 
L 337.4835 183.246596 
L 349.75125 189.071006 
L 362.019 194.571837 
L 374.28675 199.775326 
L 386.5545 204.704948 
L 398.82225 209.381768 
L 411.09 213.824747 
L 423.35775 218.050996 
L 435.6255 222.075994 
L 447.89325 225.913784 
L 464.25025 230.761518 
L 480.60725 235.326172 
L 496.96425 239.631839 
L 513.32125 243.699952 
L 529.67825 247.549643 
L 546.03525 251.198043 
L 566.4815 255.498768 
L 586.92775 259.535644 
L 607.374 263.33223 
L 627.82025 266.90936 
L 648.2665 270.285528 
L 672.802 274.094726 
L 697.3375 277.663344 
L 697.3375 277.663344 
" clip-path="url(#p05bd19c2fe)" style="fill: none; stroke: #9467bd; stroke-width: 2; stroke-linecap: square"/>
    <defs>
     <path id="m581269a6f4" d="M 0 1.5 
C 0.397805 1.5 0.77937 1.341951 1.06066 1.06066 
C 1.341951 0.77937 1.5 0.397805 1.5 0 
C 1.5 -0.397805 1.341951 -0.77937 1.06066 -1.06066 
C 0.77937 -1.341951 0.397805 -1.5 0 -1.5 
C -0.397805 -1.5 -0.77937 -1.341951 -1.06066 -1.06066 
C -1.341951 -0.77937 -1.5 -0.397805 -1.5 0 
C -1.5 0.397805 -1.341951 0.77937 -1.06066 1.06066 
C -0.77937 1.341951 -0.397805 1.5 0 1.5 
z
" style="stroke: #9467bd"/>
    </defs>
    <g clip-path="url(#p05bd19c2fe)">
     <use xlink:href="#m581269a6f4" x="47.14675" y="387.100937" style="fill: #9467bd; stroke: #9467bd"/>
     <use xlink:href="#m581269a6f4" x="63.50375" y="347.494951" style="fill: #9467bd; stroke: #9467bd"/>
     <use xlink:href="#m581269a6f4" x="79.86075" y="298.241353" style="fill: #9467bd; stroke: #9467bd"/>
     <use xlink:href="#m581269a6f4" x="96.21775" y="274.26993" style="fill: #9467bd; stroke: #9467bd"/>
     <use xlink:href="#m581269a6f4" x="112.57475" y="269.125659" style="fill: #9467bd; stroke: #9467bd"/>
     <use xlink:href="#m581269a6f4" x="128.93175" y="251.198043" style="fill: #9467bd; stroke: #9467bd"/>
     <use xlink:href="#m581269a6f4" x="145.28875" y="235.87808" style="fill: #9467bd; stroke: #9467bd"/>
     <use xlink:href="#m581269a6f4" x="161.64575" y="210.887862" style="fill: #9467bd; stroke: #9467bd"/>
     <use xlink:href="#m581269a6f4" x="178.00275" y="211.074331" style="fill: #9467bd; stroke: #9467bd"/>
     <use xlink:href="#m581269a6f4" x="194.35975" y="190.548841" style="fill: #9467bd; stroke: #9467bd"/>
     <use xlink:href="#m581269a6f4" x="210.71675" y="191.860159" style="fill: #9467bd; stroke: #9467bd"/>
     <use xlink:href="#m581269a6f4" x="227.07375" y="174.548811" style="fill: #9467bd; stroke: #9467bd"/>
     <use xlink:href="#m581269a6f4" x="243.43075" y="176.537466" style="fill: #9467bd; stroke: #9467bd"/>
     <use xlink:href="#m581269a6f4" x="259.78775" y="169.983783" style="fill: #9467bd; stroke: #9467bd"/>
     <use xlink:href="#m581269a6f4" x="276.14475" y="171.99946" style="fill: #9467bd; stroke: #9467bd"/>
     <use xlink:href="#m581269a6f4" x="292.50175" y="173.837934" style="fill: #9467bd; stroke: #9467bd"/>
     <use xlink:href="#m581269a6f4" x="308.85875" y="175.521589" style="fill: #9467bd; stroke: #9467bd"/>
     <use xlink:href="#m581269a6f4" x="325.21575" y="177.069191" style="fill: #9467bd; stroke: #9467bd"/>
     <use xlink:href="#m581269a6f4" x="341.57275" y="185.225764" style="fill: #9467bd; stroke: #9467bd"/>
     <use xlink:href="#m581269a6f4" x="357.92975" y="192.7725" style="fill: #9467bd; stroke: #9467bd"/>
     <use xlink:href="#m581269a6f4" x="374.28675" y="199.775326" style="fill: #9467bd; stroke: #9467bd"/>
     <use xlink:href="#m581269a6f4" x="390.64375" y="206.291" style="fill: #9467bd; stroke: #9467bd"/>
     <use xlink:href="#m581269a6f4" x="407.00075" y="212.368645" style="fill: #9467bd; stroke: #9467bd"/>
     <use xlink:href="#m581269a6f4" x="423.35775" y="218.050996" style="fill: #9467bd; stroke: #9467bd"/>
     <use xlink:href="#m581269a6f4" x="439.71475" y="223.375403" style="fill: #9467bd; stroke: #9467bd"/>
     <use xlink:href="#m581269a6f4" x="456.07175" y="228.374656" style="fill: #9467bd; stroke: #9467bd"/>
     <use xlink:href="#m581269a6f4" x="472.42875" y="233.077657" style="fill: #9467bd; stroke: #9467bd"/>
     <use xlink:href="#m581269a6f4" x="488.78575" y="237.509982" style="fill: #9467bd; stroke: #9467bd"/>
     <use xlink:href="#m581269a6f4" x="505.14275" y="241.694344" style="fill: #9467bd; stroke: #9467bd"/>
     <use xlink:href="#m581269a6f4" x="521.49975" y="245.650986" style="fill: #9467bd; stroke: #9467bd"/>
     <use xlink:href="#m581269a6f4" x="537.85675" y="249.398005" style="fill: #9467bd; stroke: #9467bd"/>
     <use xlink:href="#m581269a6f4" x="554.21375" y="252.951629" style="fill: #9467bd; stroke: #9467bd"/>
     <use xlink:href="#m581269a6f4" x="570.57075" y="256.326454" style="fill: #9467bd; stroke: #9467bd"/>
     <use xlink:href="#m581269a6f4" x="586.92775" y="259.535644" style="fill: #9467bd; stroke: #9467bd"/>
     <use xlink:href="#m581269a6f4" x="603.28475" y="262.5911" style="fill: #9467bd; stroke: #9467bd"/>
     <use xlink:href="#m581269a6f4" x="619.64175" y="265.503611" style="fill: #9467bd; stroke: #9467bd"/>
     <use xlink:href="#m581269a6f4" x="635.99875" y="268.282978" style="fill: #9467bd; stroke: #9467bd"/>
     <use xlink:href="#m581269a6f4" x="652.35575" y="270.938128" style="fill: #9467bd; stroke: #9467bd"/>
     <use xlink:href="#m581269a6f4" x="668.71275" y="273.477206" style="fill: #9467bd; stroke: #9467bd"/>
     <use xlink:href="#m581269a6f4" x="685.06975" y="275.90766" style="fill: #9467bd; stroke: #9467bd"/>
    </g>
   </g>
   <g id="line2d_35">
    <path d="M 47.14675 387.100937 
L 55.32525 387.100937 
L 59.4145 366.715503 
L 71.68225 368.368376 
L 83.95 369.773318 
L 88.03925 370.195943 
L 92.1285 354.095949 
L 96.21775 354.863507 
L 100.307 339.843795 
L 104.39625 325.491625 
L 112.57475 328.113298 
L 116.664 314.902525 
L 124.8425 317.790461 
L 133.021 320.456249 
L 141.1995 322.924571 
L 149.378 325.216584 
L 153.46725 314.142542 
L 157.5565 303.450363 
L 165.735 306.238715 
L 169.82425 307.564325 
L 173.9135 297.668065 
L 182.092 300.462842 
L 186.18125 291.132586 
L 190.2705 282.085064 
L 198.449 285.173767 
L 206.6275 268.282978 
L 214.806 271.583477 
L 222.9845 274.705571 
L 235.25225 279.084611 
L 239.3415 271.583477 
L 251.60925 275.861902 
L 263.877 279.834724 
L 276.14475 283.533559 
L 288.4125 286.985805 
L 296.591 274.094726 
L 300.68025 267.857107 
L 312.948 271.583477 
L 325.21575 275.084006 
L 337.4835 278.378622 
L 349.75125 281.484974 
L 353.8405 282.481351 
L 357.92975 276.981489 
L 374.28675 280.949758 
L 390.64375 284.641973 
L 398.82225 286.393408 
L 407.00075 276.437152 
L 423.35775 280.035974 
L 427.447 280.899401 
L 435.6255 271.583477 
L 439.71475 272.493063 
L 443.804 267.973557 
L 447.89325 268.897025 
L 451.9825 264.47471 
L 456.07175 265.410788 
L 460.161 261.08189 
L 476.518 264.788332 
L 480.60725 265.681125 
L 484.6965 261.538481 
L 492.875 263.33223 
L 501.0535 255.313412 
L 513.32125 258.040051 
L 517.4105 254.176737 
L 525.589 255.97301 
L 529.67825 252.201353 
L 546.03525 255.728139 
L 550.1245 256.58121 
L 554.21375 252.951629 
L 574.66 257.143795 
L 595.10625 261.08189 
L 615.5525 264.788332 
L 635.99875 268.282978 
L 660.53425 272.221695 
L 685.06975 275.90766 
L 697.3375 277.663344 
L 697.3375 277.663344 
" clip-path="url(#p05bd19c2fe)" style="fill: none; stroke: #8c564b; stroke-width: 2; stroke-linecap: square"/>
    <defs>
     <path id="m578af747bf" d="M 0 1.5 
C 0.397805 1.5 0.77937 1.341951 1.06066 1.06066 
C 1.341951 0.77937 1.5 0.397805 1.5 0 
C 1.5 -0.397805 1.341951 -0.77937 1.06066 -1.06066 
C 0.77937 -1.341951 0.397805 -1.5 0 -1.5 
C -0.397805 -1.5 -0.77937 -1.341951 -1.06066 -1.06066 
C -1.341951 -0.77937 -1.5 -0.397805 -1.5 0 
C -1.5 0.397805 -1.341951 0.77937 -1.06066 1.06066 
C -0.77937 1.341951 -0.397805 1.5 0 1.5 
z
" style="stroke: #8c564b"/>
    </defs>
    <g clip-path="url(#p05bd19c2fe)">
     <use xlink:href="#m578af747bf" x="47.14675" y="387.100937" style="fill: #8c564b; stroke: #8c564b"/>
     <use xlink:href="#m578af747bf" x="63.50375" y="367.297944" style="fill: #8c564b; stroke: #8c564b"/>
     <use xlink:href="#m578af747bf" x="79.86075" y="369.329021" style="fill: #8c564b; stroke: #8c564b"/>
     <use xlink:href="#m578af747bf" x="96.21775" y="354.863507" style="fill: #8c564b; stroke: #8c564b"/>
     <use xlink:href="#m578af747bf" x="112.57475" y="328.113298" style="fill: #8c564b; stroke: #8c564b"/>
     <use xlink:href="#m578af747bf" x="128.93175" y="319.14949" style="fill: #8c564b; stroke: #8c564b"/>
     <use xlink:href="#m578af747bf" x="145.28875" y="324.091414" style="fill: #8c564b; stroke: #8c564b"/>
     <use xlink:href="#m578af747bf" x="161.64575" y="304.868169" style="fill: #8c564b; stroke: #8c564b"/>
     <use xlink:href="#m578af747bf" x="178.00275" y="299.087634" style="fill: #8c564b; stroke: #8c564b"/>
     <use xlink:href="#m578af747bf" x="194.35975" y="283.652466" style="fill: #8c564b; stroke: #8c564b"/>
     <use xlink:href="#m578af747bf" x="210.71675" y="269.956471" style="fill: #8c564b; stroke: #8c564b"/>
     <use xlink:href="#m578af747bf" x="227.07375" y="276.204176" style="fill: #8c564b; stroke: #8c564b"/>
     <use xlink:href="#m578af747bf" x="243.43075" y="273.045724" style="fill: #8c564b; stroke: #8c564b"/>
     <use xlink:href="#m578af747bf" x="259.78775" y="278.54236" style="fill: #8c564b; stroke: #8c564b"/>
     <use xlink:href="#m578af747bf" x="276.14475" y="283.533559" style="fill: #8c564b; stroke: #8c564b"/>
     <use xlink:href="#m578af747bf" x="292.50175" y="280.469436" style="fill: #8c564b; stroke: #8c564b"/>
     <use xlink:href="#m578af747bf" x="308.85875" y="270.367504" style="fill: #8c564b; stroke: #8c564b"/>
     <use xlink:href="#m578af747bf" x="325.21575" y="275.084006" style="fill: #8c564b; stroke: #8c564b"/>
     <use xlink:href="#m578af747bf" x="341.57275" y="279.434178" style="fill: #8c564b; stroke: #8c564b"/>
     <use xlink:href="#m578af747bf" x="357.92975" y="276.981489" style="fill: #8c564b; stroke: #8c564b"/>
     <use xlink:href="#m578af747bf" x="374.28675" y="280.949758" style="fill: #8c564b; stroke: #8c564b"/>
     <use xlink:href="#m578af747bf" x="390.64375" y="284.641973" style="fill: #8c564b; stroke: #8c564b"/>
     <use xlink:href="#m578af747bf" x="407.00075" y="276.437152" style="fill: #8c564b; stroke: #8c564b"/>
     <use xlink:href="#m578af747bf" x="423.35775" y="280.035974" style="fill: #8c564b; stroke: #8c564b"/>
     <use xlink:href="#m578af747bf" x="439.71475" y="272.493063" style="fill: #8c564b; stroke: #8c564b"/>
     <use xlink:href="#m578af747bf" x="456.07175" y="265.410788" style="fill: #8c564b; stroke: #8c564b"/>
     <use xlink:href="#m578af747bf" x="472.42875" y="263.882313" style="fill: #8c564b; stroke: #8c564b"/>
     <use xlink:href="#m578af747bf" x="488.78575" y="262.441808" style="fill: #8c564b; stroke: #8c564b"/>
     <use xlink:href="#m578af747bf" x="505.14275" y="256.235003" style="fill: #8c564b; stroke: #8c564b"/>
     <use xlink:href="#m578af747bf" x="521.49975" y="255.080983" style="fill: #8c564b; stroke: #8c564b"/>
     <use xlink:href="#m578af747bf" x="537.85675" y="253.988102" style="fill: #8c564b; stroke: #8c564b"/>
     <use xlink:href="#m578af747bf" x="554.21375" y="252.951629" style="fill: #8c564b; stroke: #8c564b"/>
     <use xlink:href="#m578af747bf" x="570.57075" y="256.326454" style="fill: #8c564b; stroke: #8c564b"/>
     <use xlink:href="#m578af747bf" x="586.92775" y="259.535644" style="fill: #8c564b; stroke: #8c564b"/>
     <use xlink:href="#m578af747bf" x="603.28475" y="262.5911" style="fill: #8c564b; stroke: #8c564b"/>
     <use xlink:href="#m578af747bf" x="619.64175" y="265.503611" style="fill: #8c564b; stroke: #8c564b"/>
     <use xlink:href="#m578af747bf" x="635.99875" y="268.282978" style="fill: #8c564b; stroke: #8c564b"/>
     <use xlink:href="#m578af747bf" x="652.35575" y="270.938128" style="fill: #8c564b; stroke: #8c564b"/>
     <use xlink:href="#m578af747bf" x="668.71275" y="273.477206" style="fill: #8c564b; stroke: #8c564b"/>
     <use xlink:href="#m578af747bf" x="685.06975" y="275.90766" style="fill: #8c564b; stroke: #8c564b"/>
    </g>
   </g>
   <g id="line2d_36">
    <path d="M 47.14675 387.100937 
L 63.50375 387.100937 
L 67.593 367.848027 
L 79.86075 369.329021 
L 92.1285 370.598443 
L 104.39625 371.698609 
L 108.4855 356.965948 
L 116.664 358.221572 
L 120.75325 344.665952 
L 124.8425 345.514652 
L 128.93175 332.73978 
L 137.11025 334.791144 
L 149.378 337.593455 
L 153.46725 338.462007 
L 157.5565 327.350527 
L 161.64575 316.615707 
L 173.9135 320.026283 
L 186.18125 323.122036 
L 198.449 325.944635 
L 206.6275 327.691958 
L 210.71675 318.766665 
L 222.9845 321.536974 
L 231.163 305.022742 
L 243.43075 308.139636 
L 251.60925 310.089297 
L 255.6985 302.575967 
L 263.877 304.588466 
L 272.0555 290.388645 
L 276.14475 283.533559 
L 288.4125 286.985805 
L 292.50175 280.469436 
L 296.591 281.628474 
L 304.7695 269.125659 
L 317.03725 272.774379 
L 321.1265 273.940976 
L 325.21575 268.082948 
L 337.4835 271.583477 
L 345.662 273.804967 
L 353.8405 262.865178 
L 357.92975 264.02626 
L 366.10825 253.566993 
L 370.1975 254.780937 
L 374.28675 249.728823 
L 386.5545 253.343878 
L 390.64375 248.479985 
L 402.9115 252.004247 
L 415.17925 255.353751 
L 419.2685 250.75246 
L 423.35775 251.860984 
L 431.53625 242.935147 
L 447.89325 247.405404 
L 464.25025 251.606774 
L 468.3395 252.617924 
L 472.42875 248.479985 
L 488.78575 252.469077 
L 505.14275 256.235003 
L 521.49975 259.795981 
L 541.946 263.983644 
L 546.03525 260.258236 
L 554.21375 261.894916 
L 558.303 258.254539 
L 578.74925 262.25598 
L 595.10625 265.282525 
L 599.1955 261.841041 
L 619.64175 265.503611 
L 640.088 268.95808 
L 664.6235 272.8529 
L 689.159 276.499114 
L 697.3375 277.663344 
L 697.3375 277.663344 
" clip-path="url(#p05bd19c2fe)" style="fill: none; stroke: #e377c2; stroke-width: 2; stroke-linecap: square"/>
    <defs>
     <path id="m27e3f51e1d" d="M 0 1.5 
C 0.397805 1.5 0.77937 1.341951 1.06066 1.06066 
C 1.341951 0.77937 1.5 0.397805 1.5 0 
C 1.5 -0.397805 1.341951 -0.77937 1.06066 -1.06066 
C 0.77937 -1.341951 0.397805 -1.5 0 -1.5 
C -0.397805 -1.5 -0.77937 -1.341951 -1.06066 -1.06066 
C -1.341951 -0.77937 -1.5 -0.397805 -1.5 0 
C -1.5 0.397805 -1.341951 0.77937 -1.06066 1.06066 
C -0.77937 1.341951 -0.397805 1.5 0 1.5 
z
" style="stroke: #e377c2"/>
    </defs>
    <g clip-path="url(#p05bd19c2fe)">
     <use xlink:href="#m27e3f51e1d" x="47.14675" y="387.100937" style="fill: #e377c2; stroke: #e377c2"/>
     <use xlink:href="#m27e3f51e1d" x="63.50375" y="387.100937" style="fill: #e377c2; stroke: #e377c2"/>
     <use xlink:href="#m27e3f51e1d" x="79.86075" y="369.329021" style="fill: #e377c2; stroke: #e377c2"/>
     <use xlink:href="#m27e3f51e1d" x="96.21775" y="370.982222" style="fill: #e377c2; stroke: #e377c2"/>
     <use xlink:href="#m27e3f51e1d" x="112.57475" y="357.607118" style="fill: #e377c2; stroke: #e377c2"/>
     <use xlink:href="#m27e3f51e1d" x="128.93175" y="332.73978" style="fill: #e377c2; stroke: #e377c2"/>
     <use xlink:href="#m27e3f51e1d" x="145.28875" y="336.693318" style="fill: #e377c2; stroke: #e377c2"/>
     <use xlink:href="#m27e3f51e1d" x="161.64575" y="316.615707" style="fill: #e377c2; stroke: #e377c2"/>
     <use xlink:href="#m27e3f51e1d" x="178.00275" y="321.09096" style="fill: #e377c2; stroke: #e377c2"/>
     <use xlink:href="#m27e3f51e1d" x="194.35975" y="325.031854" style="fill: #e377c2; stroke: #e377c2"/>
     <use xlink:href="#m27e3f51e1d" x="210.71675" y="318.766665" style="fill: #e377c2; stroke: #e377c2"/>
     <use xlink:href="#m27e3f51e1d" x="227.07375" y="313.169763" style="fill: #e377c2; stroke: #e377c2"/>
     <use xlink:href="#m27e3f51e1d" x="243.43075" y="308.139636" style="fill: #e377c2; stroke: #e377c2"/>
     <use xlink:href="#m27e3f51e1d" x="259.78775" y="303.59434" style="fill: #e377c2; stroke: #e377c2"/>
     <use xlink:href="#m27e3f51e1d" x="276.14475" y="283.533559" style="fill: #e377c2; stroke: #e377c2"/>
     <use xlink:href="#m27e3f51e1d" x="292.50175" y="280.469436" style="fill: #e377c2; stroke: #e377c2"/>
     <use xlink:href="#m27e3f51e1d" x="308.85875" y="270.367504" style="fill: #e377c2; stroke: #e377c2"/>
     <use xlink:href="#m27e3f51e1d" x="325.21575" y="268.082948" style="fill: #e377c2; stroke: #e377c2"/>
     <use xlink:href="#m27e3f51e1d" x="341.57275" y="272.705006" style="fill: #e377c2; stroke: #e377c2"/>
     <use xlink:href="#m27e3f51e1d" x="357.92975" y="264.02626" style="fill: #e377c2; stroke: #e377c2"/>
     <use xlink:href="#m27e3f51e1d" x="374.28675" y="249.728823" style="fill: #e377c2; stroke: #e377c2"/>
     <use xlink:href="#m27e3f51e1d" x="390.64375" y="248.479985" style="fill: #e377c2; stroke: #e377c2"/>
     <use xlink:href="#m27e3f51e1d" x="407.00075" y="253.139513" style="fill: #e377c2; stroke: #e377c2"/>
     <use xlink:href="#m27e3f51e1d" x="423.35775" y="251.860984" style="fill: #e377c2; stroke: #e377c2"/>
     <use xlink:href="#m27e3f51e1d" x="439.71475" y="245.205474" style="fill: #e377c2; stroke: #e377c2"/>
     <use xlink:href="#m27e3f51e1d" x="456.07175" y="249.53816" style="fill: #e377c2; stroke: #e377c2"/>
     <use xlink:href="#m27e3f51e1d" x="472.42875" y="248.479985" style="fill: #e377c2; stroke: #e377c2"/>
     <use xlink:href="#m27e3f51e1d" x="488.78575" y="252.469077" style="fill: #e377c2; stroke: #e377c2"/>
     <use xlink:href="#m27e3f51e1d" x="505.14275" y="256.235003" style="fill: #e377c2; stroke: #e377c2"/>
     <use xlink:href="#m27e3f51e1d" x="521.49975" y="259.795981" style="fill: #e377c2; stroke: #e377c2"/>
     <use xlink:href="#m27e3f51e1d" x="537.85675" y="263.168298" style="fill: #e377c2; stroke: #e377c2"/>
     <use xlink:href="#m27e3f51e1d" x="554.21375" y="261.894916" style="fill: #e377c2; stroke: #e377c2"/>
     <use xlink:href="#m27e3f51e1d" x="570.57075" y="260.685604" style="fill: #e377c2; stroke: #e377c2"/>
     <use xlink:href="#m27e3f51e1d" x="586.92775" y="263.78782" style="fill: #e377c2; stroke: #e377c2"/>
     <use xlink:href="#m27e3f51e1d" x="603.28475" y="262.5911" style="fill: #e377c2; stroke: #e377c2"/>
     <use xlink:href="#m27e3f51e1d" x="619.64175" y="265.503611" style="fill: #e377c2; stroke: #e377c2"/>
     <use xlink:href="#m27e3f51e1d" x="635.99875" y="268.282978" style="fill: #e377c2; stroke: #e377c2"/>
     <use xlink:href="#m27e3f51e1d" x="652.35575" y="270.938128" style="fill: #e377c2; stroke: #e377c2"/>
     <use xlink:href="#m27e3f51e1d" x="668.71275" y="273.477206" style="fill: #e377c2; stroke: #e377c2"/>
     <use xlink:href="#m27e3f51e1d" x="685.06975" y="275.90766" style="fill: #e377c2; stroke: #e377c2"/>
    </g>
   </g>
   <g id="line2d_37">
    <path d="M 47.14675 387.100937 
L 51.236 365.441414 
L 55.32525 345.094588 
L 59.4145 325.944635 
L 63.50375 307.888965 
L 67.593 290.836387 
L 71.68225 274.705571 
L 75.7715 277.663344 
L 79.86075 262.697519 
L 83.95 265.807604 
L 88.03925 251.860984 
L 92.1285 238.578489 
L 96.21775 225.913784 
L 100.307 229.577128 
L 104.39625 233.077657 
L 108.4855 236.425989 
L 112.57475 224.884929 
L 116.664 228.26443 
L 120.75325 217.360996 
L 124.8425 220.755795 
L 128.93175 210.427175 
L 133.021 200.495809 
L 137.11025 190.939212 
L 141.1995 181.736564 
L 145.28875 172.868557 
L 149.378 164.317264 
L 153.46725 156.066017 
L 161.64575 163.897709 
L 165.735 156.066017 
L 169.82425 159.853475 
L 173.9135 152.339647 
L 178.00275 145.064354 
L 186.18125 131.185333 
L 190.2705 135.062842 
L 198.449 122.090293 
L 206.6275 109.859033 
L 214.806 117.560197 
L 222.9845 124.845082 
L 227.07375 119.10043 
L 235.25225 126.061482 
L 239.3415 120.522183 
L 247.52 127.186652 
L 255.6985 133.526025 
L 263.877 139.563523 
L 272.0555 145.320207 
L 280.234 150.815223 
L 288.4125 156.066017 
L 296.591 161.088515 
L 304.7695 165.89729 
L 312.948 170.505699 
L 321.1265 174.92601 
L 329.305 179.169509 
L 341.57275 185.225764 
L 353.8405 190.939212 
L 366.10825 196.338159 
L 378.376 201.447876 
L 390.64375 206.291 
L 402.9115 210.887862 
L 415.17925 215.256782 
L 427.447 219.414302 
L 439.71475 223.375403 
L 451.9825 227.153685 
L 468.3395 231.92823 
L 484.6965 236.425989 
L 501.0535 240.670354 
L 517.4105 244.682151 
L 533.7675 248.479985 
L 550.1245 252.080529 
L 570.57075 256.326454 
L 591.017 260.313481 
L 611.46325 264.064589 
L 631.9095 267.600116 
L 652.35575 270.938128 
L 676.89125 274.705571 
L 697.3375 277.663344 
L 697.3375 277.663344 
" clip-path="url(#p05bd19c2fe)" style="fill: none; stroke: #17becf; stroke-width: 2; stroke-linecap: square"/>
    <defs>
     <path id="m1bd85cfb59" d="M 0 1.5 
C 0.397805 1.5 0.77937 1.341951 1.06066 1.06066 
C 1.341951 0.77937 1.5 0.397805 1.5 0 
C 1.5 -0.397805 1.341951 -0.77937 1.06066 -1.06066 
C 0.77937 -1.341951 0.397805 -1.5 0 -1.5 
C -0.397805 -1.5 -0.77937 -1.341951 -1.06066 -1.06066 
C -1.341951 -0.77937 -1.5 -0.397805 -1.5 0 
C -1.5 0.397805 -1.341951 0.77937 -1.06066 1.06066 
C -0.77937 1.341951 -0.397805 1.5 0 1.5 
z
" style="stroke: #17becf"/>
    </defs>
    <g clip-path="url(#p05bd19c2fe)">
     <use xlink:href="#m1bd85cfb59" x="47.14675" y="387.100937" style="fill: #17becf; stroke: #17becf"/>
     <use xlink:href="#m1bd85cfb59" x="63.50375" y="307.888965" style="fill: #17becf; stroke: #17becf"/>
     <use xlink:href="#m1bd85cfb59" x="79.86075" y="262.697519" style="fill: #17becf; stroke: #17becf"/>
     <use xlink:href="#m1bd85cfb59" x="96.21775" y="225.913784" style="fill: #17becf; stroke: #17becf"/>
     <use xlink:href="#m1bd85cfb59" x="112.57475" y="224.884929" style="fill: #17becf; stroke: #17becf"/>
     <use xlink:href="#m1bd85cfb59" x="128.93175" y="210.427175" style="fill: #17becf; stroke: #17becf"/>
     <use xlink:href="#m1bd85cfb59" x="145.28875" y="172.868557" style="fill: #17becf; stroke: #17becf"/>
     <use xlink:href="#m1bd85cfb59" x="161.64575" y="163.897709" style="fill: #17becf; stroke: #17becf"/>
     <use xlink:href="#m1bd85cfb59" x="178.00275" y="145.064354" style="fill: #17becf; stroke: #17becf"/>
     <use xlink:href="#m1bd85cfb59" x="194.35975" y="128.479758" style="fill: #17becf; stroke: #17becf"/>
     <use xlink:href="#m1bd85cfb59" x="210.71675" y="113.763848" style="fill: #17becf; stroke: #17becf"/>
     <use xlink:href="#m1bd85cfb59" x="227.07375" y="119.10043" style="fill: #17becf; stroke: #17becf"/>
     <use xlink:href="#m1bd85cfb59" x="243.43075" y="123.896598" style="fill: #17becf; stroke: #17becf"/>
     <use xlink:href="#m1bd85cfb59" x="259.78775" y="136.581144" style="fill: #17becf; stroke: #17becf"/>
     <use xlink:href="#m1bd85cfb59" x="276.14475" y="148.099295" style="fill: #17becf; stroke: #17becf"/>
     <use xlink:href="#m1bd85cfb59" x="292.50175" y="158.604862" style="fill: #17becf; stroke: #17becf"/>
     <use xlink:href="#m1bd85cfb59" x="308.85875" y="168.22575" style="fill: #17becf; stroke: #17becf"/>
     <use xlink:href="#m1bd85cfb59" x="325.21575" y="177.069191" style="fill: #17becf; stroke: #17becf"/>
     <use xlink:href="#m1bd85cfb59" x="341.57275" y="185.225764" style="fill: #17becf; stroke: #17becf"/>
     <use xlink:href="#m1bd85cfb59" x="357.92975" y="192.7725" style="fill: #17becf; stroke: #17becf"/>
     <use xlink:href="#m1bd85cfb59" x="374.28675" y="199.775326" style="fill: #17becf; stroke: #17becf"/>
     <use xlink:href="#m1bd85cfb59" x="390.64375" y="206.291" style="fill: #17becf; stroke: #17becf"/>
     <use xlink:href="#m1bd85cfb59" x="407.00075" y="212.368645" style="fill: #17becf; stroke: #17becf"/>
     <use xlink:href="#m1bd85cfb59" x="423.35775" y="218.050996" style="fill: #17becf; stroke: #17becf"/>
     <use xlink:href="#m1bd85cfb59" x="439.71475" y="223.375403" style="fill: #17becf; stroke: #17becf"/>
     <use xlink:href="#m1bd85cfb59" x="456.07175" y="228.374656" style="fill: #17becf; stroke: #17becf"/>
     <use xlink:href="#m1bd85cfb59" x="472.42875" y="233.077657" style="fill: #17becf; stroke: #17becf"/>
     <use xlink:href="#m1bd85cfb59" x="488.78575" y="237.509982" style="fill: #17becf; stroke: #17becf"/>
     <use xlink:href="#m1bd85cfb59" x="505.14275" y="241.694344" style="fill: #17becf; stroke: #17becf"/>
     <use xlink:href="#m1bd85cfb59" x="521.49975" y="245.650986" style="fill: #17becf; stroke: #17becf"/>
     <use xlink:href="#m1bd85cfb59" x="537.85675" y="249.398005" style="fill: #17becf; stroke: #17becf"/>
     <use xlink:href="#m1bd85cfb59" x="554.21375" y="252.951629" style="fill: #17becf; stroke: #17becf"/>
     <use xlink:href="#m1bd85cfb59" x="570.57075" y="256.326454" style="fill: #17becf; stroke: #17becf"/>
     <use xlink:href="#m1bd85cfb59" x="586.92775" y="259.535644" style="fill: #17becf; stroke: #17becf"/>
     <use xlink:href="#m1bd85cfb59" x="603.28475" y="262.5911" style="fill: #17becf; stroke: #17becf"/>
     <use xlink:href="#m1bd85cfb59" x="619.64175" y="265.503611" style="fill: #17becf; stroke: #17becf"/>
     <use xlink:href="#m1bd85cfb59" x="635.99875" y="268.282978" style="fill: #17becf; stroke: #17becf"/>
     <use xlink:href="#m1bd85cfb59" x="652.35575" y="270.938128" style="fill: #17becf; stroke: #17becf"/>
     <use xlink:href="#m1bd85cfb59" x="668.71275" y="273.477206" style="fill: #17becf; stroke: #17becf"/>
     <use xlink:href="#m1bd85cfb59" x="685.06975" y="275.90766" style="fill: #17becf; stroke: #17becf"/>
    </g>
   </g>
   <g id="line2d_38">
    <path d="M 47.14675 364.742719 
L 51.236 343.78189 
L 55.32525 324.091414 
L 59.4145 305.559201 
L 63.50375 288.085972 
L 67.593 271.583477 
L 71.68225 255.97301 
L 75.7715 241.184146 
L 79.86075 227.153685 
L 83.95 213.824747 
L 88.03925 201.146001 
L 92.1285 189.071006 
L 96.21775 177.557637 
L 100.307 166.567604 
L 104.39625 156.066017 
L 108.4855 146.02102 
L 112.57475 136.40347 
L 116.664 127.186652 
L 120.75325 118.34603 
L 124.8425 109.859033 
L 128.93175 101.704859 
L 133.021 93.864307 
L 137.11025 86.319626 
L 141.1995 79.054377 
L 145.28875 72.053318 
L 149.378 65.302298 
L 153.46725 58.788156 
L 157.5565 52.498639 
L 161.64575 46.422326 
L 165.735 40.548557 
L 173.9135 51.727666 
L 182.092 62.20808 
L 190.2705 72.053318 
L 198.449 81.319425 
L 206.6275 90.05604 
L 214.806 98.307287 
L 222.9845 106.112521 
L 231.163 113.506953 
L 239.3415 120.522183 
L 247.52 127.186652 
L 255.6985 133.526025 
L 263.877 139.563523 
L 272.0555 145.320207 
L 280.234 150.815223 
L 288.4125 156.066017 
L 296.591 161.088515 
L 304.7695 165.89729 
L 312.948 170.505699 
L 321.1265 174.92601 
L 329.305 179.169509 
L 341.57275 185.225764 
L 353.8405 190.939212 
L 366.10825 196.338159 
L 378.376 201.447876 
L 390.64375 206.291 
L 402.9115 210.887862 
L 415.17925 215.256782 
L 427.447 219.414302 
L 439.71475 223.375403 
L 451.9825 227.153685 
L 468.3395 231.92823 
L 484.6965 236.425989 
L 501.0535 240.670354 
L 517.4105 244.682151 
L 533.7675 248.479985 
L 550.1245 252.080529 
L 570.57075 256.326454 
L 591.017 260.313481 
L 611.46325 264.064589 
L 631.9095 267.600116 
L 652.35575 270.938128 
L 676.89125 274.705571 
L 697.3375 277.663344 
L 697.3375 277.663344 
" clip-path="url(#p05bd19c2fe)" style="fill: none; stroke: #e31818; stroke-width: 2.5; stroke-linecap: square"/>
    <defs>
     <path id="m9382eb3c85" d="M 0 1.5 
C 0.397805 1.5 0.77937 1.341951 1.06066 1.06066 
C 1.341951 0.77937 1.5 0.397805 1.5 0 
C 1.5 -0.397805 1.341951 -0.77937 1.06066 -1.06066 
C 0.77937 -1.341951 0.397805 -1.5 0 -1.5 
C -0.397805 -1.5 -0.77937 -1.341951 -1.06066 -1.06066 
C -1.341951 -0.77937 -1.5 -0.397805 -1.5 0 
C -1.5 0.397805 -1.341951 0.77937 -1.06066 1.06066 
C -0.77937 1.341951 -0.397805 1.5 0 1.5 
z
" style="stroke: #e31818"/>
    </defs>
    <g clip-path="url(#p05bd19c2fe)">
     <use xlink:href="#m9382eb3c85" x="47.14675" y="364.742719" style="fill: #e31818; stroke: #e31818"/>
     <use xlink:href="#m9382eb3c85" x="63.50375" y="288.085972" style="fill: #e31818; stroke: #e31818"/>
     <use xlink:href="#m9382eb3c85" x="79.86075" y="227.153685" style="fill: #e31818; stroke: #e31818"/>
     <use xlink:href="#m9382eb3c85" x="96.21775" y="177.557637" style="fill: #e31818; stroke: #e31818"/>
     <use xlink:href="#m9382eb3c85" x="112.57475" y="136.40347" style="fill: #e31818; stroke: #e31818"/>
     <use xlink:href="#m9382eb3c85" x="128.93175" y="101.704859" style="fill: #e31818; stroke: #e31818"/>
     <use xlink:href="#m9382eb3c85" x="145.28875" y="72.053318" style="fill: #e31818; stroke: #e31818"/>
     <use xlink:href="#m9382eb3c85" x="161.64575" y="46.422326" style="fill: #e31818; stroke: #e31818"/>
     <use xlink:href="#m9382eb3c85" x="178.00275" y="57.051051" style="fill: #e31818; stroke: #e31818"/>
     <use xlink:href="#m9382eb3c85" x="194.35975" y="76.755522" style="fill: #e31818; stroke: #e31818"/>
     <use xlink:href="#m9382eb3c85" x="210.71675" y="94.23977" style="fill: #e31818; stroke: #e31818"/>
     <use xlink:href="#m9382eb3c85" x="227.07375" y="109.859033" style="fill: #e31818; stroke: #e31818"/>
     <use xlink:href="#m9382eb3c85" x="243.43075" y="123.896598" style="fill: #e31818; stroke: #e31818"/>
     <use xlink:href="#m9382eb3c85" x="259.78775" y="136.581144" style="fill: #e31818; stroke: #e31818"/>
     <use xlink:href="#m9382eb3c85" x="276.14475" y="148.099295" style="fill: #e31818; stroke: #e31818"/>
     <use xlink:href="#m9382eb3c85" x="292.50175" y="158.604862" style="fill: #e31818; stroke: #e31818"/>
     <use xlink:href="#m9382eb3c85" x="308.85875" y="168.22575" style="fill: #e31818; stroke: #e31818"/>
     <use xlink:href="#m9382eb3c85" x="325.21575" y="177.069191" style="fill: #e31818; stroke: #e31818"/>
     <use xlink:href="#m9382eb3c85" x="341.57275" y="185.225764" style="fill: #e31818; stroke: #e31818"/>
     <use xlink:href="#m9382eb3c85" x="357.92975" y="192.7725" style="fill: #e31818; stroke: #e31818"/>
     <use xlink:href="#m9382eb3c85" x="374.28675" y="199.775326" style="fill: #e31818; stroke: #e31818"/>
     <use xlink:href="#m9382eb3c85" x="390.64375" y="206.291" style="fill: #e31818; stroke: #e31818"/>
     <use xlink:href="#m9382eb3c85" x="407.00075" y="212.368645" style="fill: #e31818; stroke: #e31818"/>
     <use xlink:href="#m9382eb3c85" x="423.35775" y="218.050996" style="fill: #e31818; stroke: #e31818"/>
     <use xlink:href="#m9382eb3c85" x="439.71475" y="223.375403" style="fill: #e31818; stroke: #e31818"/>
     <use xlink:href="#m9382eb3c85" x="456.07175" y="228.374656" style="fill: #e31818; stroke: #e31818"/>
     <use xlink:href="#m9382eb3c85" x="472.42875" y="233.077657" style="fill: #e31818; stroke: #e31818"/>
     <use xlink:href="#m9382eb3c85" x="488.78575" y="237.509982" style="fill: #e31818; stroke: #e31818"/>
     <use xlink:href="#m9382eb3c85" x="505.14275" y="241.694344" style="fill: #e31818; stroke: #e31818"/>
     <use xlink:href="#m9382eb3c85" x="521.49975" y="245.650986" style="fill: #e31818; stroke: #e31818"/>
     <use xlink:href="#m9382eb3c85" x="537.85675" y="249.398005" style="fill: #e31818; stroke: #e31818"/>
     <use xlink:href="#m9382eb3c85" x="554.21375" y="252.951629" style="fill: #e31818; stroke: #e31818"/>
     <use xlink:href="#m9382eb3c85" x="570.57075" y="256.326454" style="fill: #e31818; stroke: #e31818"/>
     <use xlink:href="#m9382eb3c85" x="586.92775" y="259.535644" style="fill: #e31818; stroke: #e31818"/>
     <use xlink:href="#m9382eb3c85" x="603.28475" y="262.5911" style="fill: #e31818; stroke: #e31818"/>
     <use xlink:href="#m9382eb3c85" x="619.64175" y="265.503611" style="fill: #e31818; stroke: #e31818"/>
     <use xlink:href="#m9382eb3c85" x="635.99875" y="268.282978" style="fill: #e31818; stroke: #e31818"/>
     <use xlink:href="#m9382eb3c85" x="652.35575" y="270.938128" style="fill: #e31818; stroke: #e31818"/>
     <use xlink:href="#m9382eb3c85" x="668.71275" y="273.477206" style="fill: #e31818; stroke: #e31818"/>
     <use xlink:href="#m9382eb3c85" x="685.06975" y="275.90766" style="fill: #e31818; stroke: #e31818"/>
    </g>
   </g>
   <g id="patch_3">
    <path d="M 43.0575 387.100937 
L 43.0575 23.220937 
" style="fill: none; stroke: #000000; stroke-width: 0.8; stroke-linejoin: miter; stroke-linecap: square"/>
   </g>
   <g id="patch_4">
    <path d="M 697.3375 387.100937 
L 697.3375 23.220937 
" style="fill: none; stroke: #000000; stroke-width: 0.8; stroke-linejoin: miter; stroke-linecap: square"/>
   </g>
   <g id="patch_5">
    <path d="M 43.0575 387.100937 
L 697.3375 387.100937 
" style="fill: none; stroke: #000000; stroke-width: 0.8; stroke-linejoin: miter; stroke-linecap: square"/>
   </g>
   <g id="patch_6">
    <path d="M 43.0575 23.220937 
L 697.3375 23.220937 
" style="fill: none; stroke: #000000; stroke-width: 0.8; stroke-linejoin: miter; stroke-linecap: square"/>
   </g>
   <g id="text_18">
    <!-- F1-Score vs k - wine -->
    <g transform="translate(302.899063 17.220937) scale(0.14 -0.14)">
     <defs>
      <path id="Arial-BoldMT-76" d="M 1372 0 
L 34 3319 
L 956 3319 
L 1581 1625 
L 1763 1059 
Q 1834 1275 1853 1344 
Q 1897 1484 1947 1625 
L 2578 3319 
L 3481 3319 
L 2163 0 
L 1372 0 
z
" transform="scale(0.015625)"/>
      <path id="Arial-BoldMT-77" d="M 1078 0 
L 28 3319 
L 881 3319 
L 1503 1144 
L 2075 3319 
L 2922 3319 
L 3475 1144 
L 4109 3319 
L 4975 3319 
L 3909 0 
L 3066 0 
L 2494 2134 
L 1931 0 
L 1078 0 
z
" transform="scale(0.015625)"/>
      <path id="Arial-BoldMT-69" d="M 459 3769 
L 459 4581 
L 1338 4581 
L 1338 3769 
L 459 3769 
z
M 459 0 
L 459 3319 
L 1338 3319 
L 1338 0 
L 459 0 
z
" transform="scale(0.015625)"/>
     </defs>
     <use xlink:href="#Arial-BoldMT-46"/>
     <use xlink:href="#Arial-BoldMT-31" transform="translate(61.083984 0)"/>
     <use xlink:href="#Arial-BoldMT-2d" transform="translate(116.699219 0)"/>
     <use xlink:href="#Arial-BoldMT-53" transform="translate(150 0)"/>
     <use xlink:href="#Arial-BoldMT-63" transform="translate(216.699219 0)"/>
     <use xlink:href="#Arial-BoldMT-6f" transform="translate(272.314453 0)"/>
     <use xlink:href="#Arial-BoldMT-72" transform="translate(333.398438 0)"/>
     <use xlink:href="#Arial-BoldMT-65" transform="translate(372.314453 0)"/>
     <use xlink:href="#Arial-BoldMT-20" transform="translate(427.929688 0)"/>
     <use xlink:href="#Arial-BoldMT-76" transform="translate(455.712891 0)"/>
     <use xlink:href="#Arial-BoldMT-73" transform="translate(511.328125 0)"/>
     <use xlink:href="#Arial-BoldMT-20" transform="translate(566.943359 0)"/>
     <use xlink:href="#Arial-BoldMT-6b" transform="translate(594.726562 0)"/>
     <use xlink:href="#Arial-BoldMT-20" transform="translate(650.341797 0)"/>
     <use xlink:href="#Arial-BoldMT-2d" transform="translate(678.125 0)"/>
     <use xlink:href="#Arial-BoldMT-20" transform="translate(711.425781 0)"/>
     <use xlink:href="#Arial-BoldMT-77" transform="translate(739.208984 0)"/>
     <use xlink:href="#Arial-BoldMT-69" transform="translate(816.992188 0)"/>
     <use xlink:href="#Arial-BoldMT-6e" transform="translate(844.775391 0)"/>
     <use xlink:href="#Arial-BoldMT-65" transform="translate(905.859375 0)"/>
    </g>
   </g>
   <g id="legend_1">
    <g id="patch_7">
     <path d="M 625.240469 132.267187 
L 691.0375 132.267187 
Q 692.8375 132.267187 692.8375 130.467187 
L 692.8375 29.520938 
Q 692.8375 27.720937 691.0375 27.720937 
L 625.240469 27.720937 
Q 623.440469 27.720937 623.440469 29.520938 
L 623.440469 130.467187 
Q 623.440469 132.267187 625.240469 132.267187 
z
" style="fill: #ffffff; opacity: 0.8; stroke: #cccccc; stroke-linejoin: miter"/>
    </g>
    <g id="line2d_39">
     <path d="M 627.040469 34.612969 
L 636.040469 34.612969 
L 645.040469 34.612969 
" style="fill: none; stroke: #1f77b4; stroke-width: 2; stroke-linecap: square"/>
     <g>
      <use xlink:href="#m5e651c0261" x="636.040469" y="34.612969" style="fill: #1f77b4; stroke: #1f77b4"/>
     </g>
    </g>
    <g id="text_19">
     <!-- ADFNR -->
     <g transform="translate(652.240469 37.762969) scale(0.09 -0.09)">
      <defs>
       <path id="ArialMT-41" d="M -9 0 
L 1750 4581 
L 2403 4581 
L 4278 0 
L 3588 0 
L 3053 1388 
L 1138 1388 
L 634 0 
L -9 0 
z
M 1313 1881 
L 2866 1881 
L 2388 3150 
Q 2169 3728 2063 4100 
Q 1975 3659 1816 3225 
L 1313 1881 
z
" transform="scale(0.015625)"/>
       <path id="ArialMT-44" d="M 494 0 
L 494 4581 
L 2072 4581 
Q 2606 4581 2888 4516 
Q 3281 4425 3559 4188 
Q 3922 3881 4101 3404 
Q 4281 2928 4281 2316 
Q 4281 1794 4159 1391 
Q 4038 988 3847 723 
Q 3656 459 3429 307 
Q 3203 156 2883 78 
Q 2563 0 2147 0 
L 494 0 
z
M 1100 541 
L 2078 541 
Q 2531 541 2789 625 
Q 3047 709 3200 863 
Q 3416 1078 3536 1442 
Q 3656 1806 3656 2325 
Q 3656 3044 3420 3430 
Q 3184 3816 2847 3947 
Q 2603 4041 2063 4041 
L 1100 4041 
L 1100 541 
z
" transform="scale(0.015625)"/>
       <path id="ArialMT-46" d="M 525 0 
L 525 4581 
L 3616 4581 
L 3616 4041 
L 1131 4041 
L 1131 2622 
L 3281 2622 
L 3281 2081 
L 1131 2081 
L 1131 0 
L 525 0 
z
" transform="scale(0.015625)"/>
       <path id="ArialMT-4e" d="M 488 0 
L 488 4581 
L 1109 4581 
L 3516 984 
L 3516 4581 
L 4097 4581 
L 4097 0 
L 3475 0 
L 1069 3600 
L 1069 0 
L 488 0 
z
" transform="scale(0.015625)"/>
       <path id="ArialMT-52" d="M 503 0 
L 503 4581 
L 2534 4581 
Q 3147 4581 3465 4457 
Q 3784 4334 3975 4021 
Q 4166 3709 4166 3331 
Q 4166 2844 3850 2509 
Q 3534 2175 2875 2084 
Q 3116 1969 3241 1856 
Q 3506 1613 3744 1247 
L 4541 0 
L 3778 0 
L 3172 953 
Q 2906 1366 2734 1584 
Q 2563 1803 2427 1890 
Q 2291 1978 2150 2013 
Q 2047 2034 1813 2034 
L 1109 2034 
L 1109 0 
L 503 0 
z
M 1109 2559 
L 2413 2559 
Q 2828 2559 3062 2645 
Q 3297 2731 3419 2920 
Q 3541 3109 3541 3331 
Q 3541 3656 3305 3865 
Q 3069 4075 2559 4075 
L 1109 4075 
L 1109 2559 
z
" transform="scale(0.015625)"/>
      </defs>
      <use xlink:href="#ArialMT-41"/>
      <use xlink:href="#ArialMT-44" transform="translate(66.699219 0)"/>
      <use xlink:href="#ArialMT-46" transform="translate(138.916016 0)"/>
      <use xlink:href="#ArialMT-4e" transform="translate(200 0)"/>
      <use xlink:href="#ArialMT-52" transform="translate(272.216797 0)"/>
     </g>
    </g>
    <g id="line2d_40">
     <path d="M 627.040469 47.34375 
L 636.040469 47.34375 
L 645.040469 47.34375 
" style="fill: none; stroke: #ff7f0e; stroke-width: 2; stroke-linecap: square"/>
     <g>
      <use xlink:href="#mb2c2b20a23" x="636.040469" y="47.34375" style="fill: #ff7f0e; stroke: #ff7f0e"/>
     </g>
    </g>
    <g id="text_20">
     <!-- DASOD -->
     <g transform="translate(652.240469 50.49375) scale(0.09 -0.09)">
      <defs>
       <path id="ArialMT-53" d="M 288 1472 
L 859 1522 
Q 900 1178 1048 958 
Q 1197 738 1509 602 
Q 1822 466 2213 466 
Q 2559 466 2825 569 
Q 3091 672 3220 851 
Q 3350 1031 3350 1244 
Q 3350 1459 3225 1620 
Q 3100 1781 2813 1891 
Q 2628 1963 1997 2114 
Q 1366 2266 1113 2400 
Q 784 2572 623 2826 
Q 463 3081 463 3397 
Q 463 3744 659 4045 
Q 856 4347 1234 4503 
Q 1613 4659 2075 4659 
Q 2584 4659 2973 4495 
Q 3363 4331 3572 4012 
Q 3781 3694 3797 3291 
L 3216 3247 
Q 3169 3681 2898 3903 
Q 2628 4125 2100 4125 
Q 1550 4125 1298 3923 
Q 1047 3722 1047 3438 
Q 1047 3191 1225 3031 
Q 1400 2872 2139 2705 
Q 2878 2538 3153 2413 
Q 3553 2228 3743 1945 
Q 3934 1663 3934 1294 
Q 3934 928 3725 604 
Q 3516 281 3123 101 
Q 2731 -78 2241 -78 
Q 1619 -78 1198 103 
Q 778 284 539 648 
Q 300 1013 288 1472 
z
" transform="scale(0.015625)"/>
       <path id="ArialMT-4f" d="M 309 2231 
Q 309 3372 921 4017 
Q 1534 4663 2503 4663 
Q 3138 4663 3647 4359 
Q 4156 4056 4423 3514 
Q 4691 2972 4691 2284 
Q 4691 1588 4409 1038 
Q 4128 488 3612 205 
Q 3097 -78 2500 -78 
Q 1853 -78 1343 234 
Q 834 547 571 1087 
Q 309 1628 309 2231 
z
M 934 2222 
Q 934 1394 1379 917 
Q 1825 441 2497 441 
Q 3181 441 3623 922 
Q 4066 1403 4066 2288 
Q 4066 2847 3877 3264 
Q 3688 3681 3323 3911 
Q 2959 4141 2506 4141 
Q 1863 4141 1398 3698 
Q 934 3256 934 2222 
z
" transform="scale(0.015625)"/>
      </defs>
      <use xlink:href="#ArialMT-44"/>
      <use xlink:href="#ArialMT-41" transform="translate(72.216797 0)"/>
      <use xlink:href="#ArialMT-53" transform="translate(138.916016 0)"/>
      <use xlink:href="#ArialMT-4f" transform="translate(205.615234 0)"/>
      <use xlink:href="#ArialMT-44" transform="translate(283.398438 0)"/>
     </g>
    </g>
    <g id="line2d_41">
     <path d="M 627.040469 60.074531 
L 636.040469 60.074531 
L 645.040469 60.074531 
" style="fill: none; stroke: #2ca02c; stroke-width: 2; stroke-linecap: square"/>
     <g>
      <use xlink:href="#mef7eee8f6f" x="636.040469" y="60.074531" style="fill: #2ca02c; stroke: #2ca02c"/>
     </g>
    </g>
    <g id="text_21">
     <!-- GCN -->
     <g transform="translate(652.240469 63.224531) scale(0.09 -0.09)">
      <defs>
       <path id="ArialMT-47" d="M 2638 1797 
L 2638 2334 
L 4578 2338 
L 4578 638 
Q 4131 281 3656 101 
Q 3181 -78 2681 -78 
Q 2006 -78 1454 211 
Q 903 500 622 1047 
Q 341 1594 341 2269 
Q 341 2938 620 3517 
Q 900 4097 1425 4378 
Q 1950 4659 2634 4659 
Q 3131 4659 3532 4498 
Q 3934 4338 4162 4050 
Q 4391 3763 4509 3300 
L 3963 3150 
Q 3859 3500 3706 3700 
Q 3553 3900 3268 4020 
Q 2984 4141 2638 4141 
Q 2222 4141 1919 4014 
Q 1616 3888 1430 3681 
Q 1244 3475 1141 3228 
Q 966 2803 966 2306 
Q 966 1694 1177 1281 
Q 1388 869 1791 669 
Q 2194 469 2647 469 
Q 3041 469 3416 620 
Q 3791 772 3984 944 
L 3984 1797 
L 2638 1797 
z
" transform="scale(0.015625)"/>
       <path id="ArialMT-43" d="M 3763 1606 
L 4369 1453 
Q 4178 706 3683 314 
Q 3188 -78 2472 -78 
Q 1731 -78 1267 223 
Q 803 525 561 1097 
Q 319 1669 319 2325 
Q 319 3041 592 3573 
Q 866 4106 1370 4382 
Q 1875 4659 2481 4659 
Q 3169 4659 3637 4309 
Q 4106 3959 4291 3325 
L 3694 3184 
Q 3534 3684 3231 3912 
Q 2928 4141 2469 4141 
Q 1941 4141 1586 3887 
Q 1231 3634 1087 3207 
Q 944 2781 944 2328 
Q 944 1744 1114 1308 
Q 1284 872 1643 656 
Q 2003 441 2422 441 
Q 2931 441 3284 734 
Q 3638 1028 3763 1606 
z
" transform="scale(0.015625)"/>
      </defs>
      <use xlink:href="#ArialMT-47"/>
      <use xlink:href="#ArialMT-43" transform="translate(77.783203 0)"/>
      <use xlink:href="#ArialMT-4e" transform="translate(150 0)"/>
     </g>
    </g>
    <g id="line2d_42">
     <path d="M 627.040469 72.805312 
L 636.040469 72.805312 
L 645.040469 72.805312 
" style="fill: none; stroke: #9467bd; stroke-width: 2; stroke-linecap: square"/>
     <g>
      <use xlink:href="#m581269a6f4" x="636.040469" y="72.805312" style="fill: #9467bd; stroke: #9467bd"/>
     </g>
    </g>
    <g id="text_22">
     <!-- GCOD -->
     <g transform="translate(652.240469 75.955312) scale(0.09 -0.09)">
      <use xlink:href="#ArialMT-47"/>
      <use xlink:href="#ArialMT-43" transform="translate(77.783203 0)"/>
      <use xlink:href="#ArialMT-4f" transform="translate(150 0)"/>
      <use xlink:href="#ArialMT-44" transform="translate(227.783203 0)"/>
     </g>
    </g>
    <g id="line2d_43">
     <path d="M 627.040469 85.536094 
L 636.040469 85.536094 
L 645.040469 85.536094 
" style="fill: none; stroke: #8c564b; stroke-width: 2; stroke-linecap: square"/>
     <g>
      <use xlink:href="#m578af747bf" x="636.040469" y="85.536094" style="fill: #8c564b; stroke: #8c564b"/>
     </g>
    </g>
    <g id="text_23">
     <!-- IE -->
     <g transform="translate(652.240469 88.686094) scale(0.09 -0.09)">
      <defs>
       <path id="ArialMT-49" d="M 597 0 
L 597 4581 
L 1203 4581 
L 1203 0 
L 597 0 
z
" transform="scale(0.015625)"/>
       <path id="ArialMT-45" d="M 506 0 
L 506 4581 
L 3819 4581 
L 3819 4041 
L 1113 4041 
L 1113 2638 
L 3647 2638 
L 3647 2100 
L 1113 2100 
L 1113 541 
L 3925 541 
L 3925 0 
L 506 0 
z
" transform="scale(0.015625)"/>
      </defs>
      <use xlink:href="#ArialMT-49"/>
      <use xlink:href="#ArialMT-45" transform="translate(27.783203 0)"/>
     </g>
    </g>
    <g id="line2d_44">
     <path d="M 627.040469 98.266875 
L 636.040469 98.266875 
L 645.040469 98.266875 
" style="fill: none; stroke: #e377c2; stroke-width: 2; stroke-linecap: square"/>
     <g>
      <use xlink:href="#m27e3f51e1d" x="636.040469" y="98.266875" style="fill: #e377c2; stroke: #e377c2"/>
     </g>
    </g>
    <g id="text_24">
     <!-- KNN -->
     <g transform="translate(652.240469 101.416875) scale(0.09 -0.09)">
      <defs>
       <path id="ArialMT-4b" d="M 469 0 
L 469 4581 
L 1075 4581 
L 1075 2309 
L 3350 4581 
L 4172 4581 
L 2250 2725 
L 4256 0 
L 3456 0 
L 1825 2319 
L 1075 1588 
L 1075 0 
L 469 0 
z
" transform="scale(0.015625)"/>
      </defs>
      <use xlink:href="#ArialMT-4b"/>
      <use xlink:href="#ArialMT-4e" transform="translate(66.699219 0)"/>
      <use xlink:href="#ArialMT-4e" transform="translate(138.916016 0)"/>
     </g>
    </g>
    <g id="line2d_45">
     <path d="M 627.040469 110.997656 
L 636.040469 110.997656 
L 645.040469 110.997656 
" style="fill: none; stroke: #17becf; stroke-width: 2; stroke-linecap: square"/>
     <g>
      <use xlink:href="#m1bd85cfb59" x="636.040469" y="110.997656" style="fill: #17becf; stroke: #17becf"/>
     </g>
    </g>
    <g id="text_25">
     <!-- NIEOD -->
     <g transform="translate(652.240469 114.147656) scale(0.09 -0.09)">
      <use xlink:href="#ArialMT-4e"/>
      <use xlink:href="#ArialMT-49" transform="translate(72.216797 0)"/>
      <use xlink:href="#ArialMT-45" transform="translate(100 0)"/>
      <use xlink:href="#ArialMT-4f" transform="translate(166.699219 0)"/>
      <use xlink:href="#ArialMT-44" transform="translate(244.482422 0)"/>
     </g>
    </g>
    <g id="line2d_46">
     <path d="M 627.040469 123.728437 
L 636.040469 123.728437 
L 645.040469 123.728437 
" style="fill: none; stroke: #e31818; stroke-width: 2.5; stroke-linecap: square"/>
     <g>
      <use xlink:href="#m9382eb3c85" x="636.040469" y="123.728437" style="fill: #e31818; stroke: #e31818"/>
     </g>
    </g>
    <g id="text_26">
     <!-- NMIGOD -->
     <g transform="translate(652.240469 126.878437) scale(0.09 -0.09)">
      <defs>
       <path id="ArialMT-4d" d="M 475 0 
L 475 4581 
L 1388 4581 
L 2472 1338 
Q 2622 884 2691 659 
Q 2769 909 2934 1394 
L 4031 4581 
L 4847 4581 
L 4847 0 
L 4263 0 
L 4263 3834 
L 2931 0 
L 2384 0 
L 1059 3900 
L 1059 0 
L 475 0 
z
" transform="scale(0.015625)"/>
      </defs>
      <use xlink:href="#ArialMT-4e"/>
      <use xlink:href="#ArialMT-4d" transform="translate(72.216797 0)"/>
      <use xlink:href="#ArialMT-49" transform="translate(155.517578 0)"/>
      <use xlink:href="#ArialMT-47" transform="translate(183.300781 0)"/>
      <use xlink:href="#ArialMT-4f" transform="translate(261.083984 0)"/>
      <use xlink:href="#ArialMT-44" transform="translate(338.867188 0)"/>
     </g>
    </g>
   </g>
  </g>
 </g>
 <defs>
  <clipPath id="p05bd19c2fe">
   <rect x="43.0575" y="23.220937" width="654.28" height="363.88"/>
  </clipPath>
 </defs>
</svg>
