<?xml version="1.0" encoding="utf-8" standalone="no"?>
<!DOCTYPE svg PUBLIC "-//W3C//DTD SVG 1.1//EN"
  "http://www.w3.org/Graphics/SVG/1.1/DTD/svg11.dtd">
<svg xmlns:xlink="http://www.w3.org/1999/xlink" width="712.878906pt" height="425.7075pt" viewBox="0 0 712.878906 425.7075" xmlns="http://www.w3.org/2000/svg" version="1.1">
 <metadata>
  <rdf:RDF xmlns:dc="http://purl.org/dc/elements/1.1/" xmlns:cc="http://creativecommons.org/ns#" xmlns:rdf="http://www.w3.org/1999/02/22-rdf-syntax-ns#">
   <cc:Work>
    <dc:type rdf:resource="http://purl.org/dc/dcmitype/StillImage"/>
    <dc:date>2026-06-11T18:28:57.936603</dc:date>
    <dc:format>image/svg+xml</dc:format>
    <dc:creator>
     <cc:Agent>
      <dc:title>Matplotlib v3.10.0, https://matplotlib.org/</dc:title>
     </cc:Agent>
    </dc:creator>
   </cc:Work>
  </rdf:RDF>
 </metadata>
 <defs>
  <style type="text/css">*{stroke-linejoin: round; stroke-linecap: butt}</style>
 </defs>
 <g id="figure_1">
  <g id="patch_1">
   <path d="M -0 425.7075 
L 712.878906 425.7075 
L 712.878906 0 
L -0 0 
z
" style="fill: #ffffff"/>
  </g>
  <g id="axes_1">
   <g id="patch_2">
    <path d="M 43.0575 387.100937 
L 697.3375 387.100937 
L 697.3375 23.220937 
L 43.0575 23.220937 
z
" style="fill: #ffffff"/>
   </g>
   <g id="matplotlib.axis_1">
    <g id="xtick_1">
     <g id="line2d_1">
      <path d="M 43.0575 387.100937 
L 43.0575 23.220937 
" clip-path="url(#p93e57a6f82)" style="fill: none; stroke-dasharray: 2.96,1.28; stroke-dashoffset: 0; stroke: #b0b0b0; stroke-opacity: 0.5; stroke-width: 0.8"/>
     </g>
     <g id="line2d_2">
      <defs>
       <path id="m75d7adcb8c" d="M 0 0 
L 0 3.5 
" style="stroke: #000000; stroke-width: 0.8"/>
      </defs>
      <g>
       <use xlink:href="#m75d7adcb8c" x="43.0575" y="387.100937" style="stroke: #000000; stroke-width: 0.8"/>
      </g>
     </g>
     <g id="text_1">
      <!-- 0 -->
      <g transform="translate(40.277031 401.25875) scale(0.1 -0.1)">
       <defs>
        <path id="ArialMT-30" d="M 266 2259 
Q 266 3072 433 3567 
Q 600 4063 929 4331 
Q 1259 4600 1759 4600 
Q 2128 4600 2406 4451 
Q 2684 4303 2865 4023 
Q 3047 3744 3150 3342 
Q 3253 2941 3253 2259 
Q 3253 1453 3087 958 
Q 2922 463 2592 192 
Q 2263 -78 1759 -78 
Q 1097 -78 719 397 
Q 266 969 266 2259 
z
M 844 2259 
Q 844 1131 1108 757 
Q 1372 384 1759 384 
Q 2147 384 2411 759 
Q 2675 1134 2675 2259 
Q 2675 3391 2411 3762 
Q 2147 4134 1753 4134 
Q 1366 4134 1134 3806 
Q 844 3388 844 2259 
z
" transform="scale(0.015625)"/>
       </defs>
       <use xlink:href="#ArialMT-30"/>
      </g>
     </g>
    </g>
    <g id="xtick_2">
     <g id="line2d_3">
      <path d="M 124.8425 387.100937 
L 124.8425 23.220937 
" clip-path="url(#p93e57a6f82)" style="fill: none; stroke-dasharray: 2.96,1.28; stroke-dashoffset: 0; stroke: #b0b0b0; stroke-opacity: 0.5; stroke-width: 0.8"/>
     </g>
     <g id="line2d_4">
      <g>
       <use xlink:href="#m75d7adcb8c" x="124.8425" y="387.100937" style="stroke: #000000; stroke-width: 0.8"/>
      </g>
     </g>
     <g id="text_2">
      <!-- 20 -->
      <g transform="translate(119.281563 401.25875) scale(0.1 -0.1)">
       <defs>
        <path id="ArialMT-32" d="M 3222 541 
L 3222 0 
L 194 0 
Q 188 203 259 391 
Q 375 700 629 1000 
Q 884 1300 1366 1694 
Q 2113 2306 2375 2664 
Q 2638 3022 2638 3341 
Q 2638 3675 2398 3904 
Q 2159 4134 1775 4134 
Q 1369 4134 1125 3890 
Q 881 3647 878 3216 
L 300 3275 
Q 359 3922 746 4261 
Q 1134 4600 1788 4600 
Q 2447 4600 2831 4234 
Q 3216 3869 3216 3328 
Q 3216 3053 3103 2787 
Q 2991 2522 2730 2228 
Q 2469 1934 1863 1422 
Q 1356 997 1212 845 
Q 1069 694 975 541 
L 3222 541 
z
" transform="scale(0.015625)"/>
       </defs>
       <use xlink:href="#ArialMT-32"/>
       <use xlink:href="#ArialMT-30" transform="translate(55.615234 0)"/>
      </g>
     </g>
    </g>
    <g id="xtick_3">
     <g id="line2d_5">
      <path d="M 206.6275 387.100937 
L 206.6275 23.220937 
" clip-path="url(#p93e57a6f82)" style="fill: none; stroke-dasharray: 2.96,1.28; stroke-dashoffset: 0; stroke: #b0b0b0; stroke-opacity: 0.5; stroke-width: 0.8"/>
     </g>
     <g id="line2d_6">
      <g>
       <use xlink:href="#m75d7adcb8c" x="206.6275" y="387.100937" style="stroke: #000000; stroke-width: 0.8"/>
      </g>
     </g>
     <g id="text_3">
      <!-- 40 -->
      <g transform="translate(201.066563 401.25875) scale(0.1 -0.1)">
       <defs>
        <path id="ArialMT-34" d="M 2069 0 
L 2069 1097 
L 81 1097 
L 81 1613 
L 2172 4581 
L 2631 4581 
L 2631 1613 
L 3250 1613 
L 3250 1097 
L 2631 1097 
L 2631 0 
L 2069 0 
z
M 2069 1613 
L 2069 3678 
L 634 1613 
L 2069 1613 
z
" transform="scale(0.015625)"/>
       </defs>
       <use xlink:href="#ArialMT-34"/>
       <use xlink:href="#ArialMT-30" transform="translate(55.615234 0)"/>
      </g>
     </g>
    </g>
    <g id="xtick_4">
     <g id="line2d_7">
      <path d="M 288.4125 387.100937 
L 288.4125 23.220937 
" clip-path="url(#p93e57a6f82)" style="fill: none; stroke-dasharray: 2.96,1.28; stroke-dashoffset: 0; stroke: #b0b0b0; stroke-opacity: 0.5; stroke-width: 0.8"/>
     </g>
     <g id="line2d_8">
      <g>
       <use xlink:href="#m75d7adcb8c" x="288.4125" y="387.100937" style="stroke: #000000; stroke-width: 0.8"/>
      </g>
     </g>
     <g id="text_4">
      <!-- 60 -->
      <g transform="translate(282.851562 401.25875) scale(0.1 -0.1)">
       <defs>
        <path id="ArialMT-36" d="M 3184 3459 
L 2625 3416 
Q 2550 3747 2413 3897 
Q 2184 4138 1850 4138 
Q 1581 4138 1378 3988 
Q 1113 3794 959 3422 
Q 806 3050 800 2363 
Q 1003 2672 1297 2822 
Q 1591 2972 1913 2972 
Q 2475 2972 2870 2558 
Q 3266 2144 3266 1488 
Q 3266 1056 3080 686 
Q 2894 316 2569 119 
Q 2244 -78 1831 -78 
Q 1128 -78 684 439 
Q 241 956 241 2144 
Q 241 3472 731 4075 
Q 1159 4600 1884 4600 
Q 2425 4600 2770 4297 
Q 3116 3994 3184 3459 
z
M 888 1484 
Q 888 1194 1011 928 
Q 1134 663 1356 523 
Q 1578 384 1822 384 
Q 2178 384 2434 671 
Q 2691 959 2691 1453 
Q 2691 1928 2437 2201 
Q 2184 2475 1800 2475 
Q 1419 2475 1153 2201 
Q 888 1928 888 1484 
z
" transform="scale(0.015625)"/>
       </defs>
       <use xlink:href="#ArialMT-36"/>
       <use xlink:href="#ArialMT-30" transform="translate(55.615234 0)"/>
      </g>
     </g>
    </g>
    <g id="xtick_5">
     <g id="line2d_9">
      <path d="M 370.1975 387.100937 
L 370.1975 23.220937 
" clip-path="url(#p93e57a6f82)" style="fill: none; stroke-dasharray: 2.96,1.28; stroke-dashoffset: 0; stroke: #b0b0b0; stroke-opacity: 0.5; stroke-width: 0.8"/>
     </g>
     <g id="line2d_10">
      <g>
       <use xlink:href="#m75d7adcb8c" x="370.1975" y="387.100937" style="stroke: #000000; stroke-width: 0.8"/>
      </g>
     </g>
     <g id="text_5">
      <!-- 80 -->
      <g transform="translate(364.636563 401.25875) scale(0.1 -0.1)">
       <defs>
        <path id="ArialMT-38" d="M 1131 2484 
Q 781 2613 612 2850 
Q 444 3088 444 3419 
Q 444 3919 803 4259 
Q 1163 4600 1759 4600 
Q 2359 4600 2725 4251 
Q 3091 3903 3091 3403 
Q 3091 3084 2923 2848 
Q 2756 2613 2416 2484 
Q 2838 2347 3058 2040 
Q 3278 1734 3278 1309 
Q 3278 722 2862 322 
Q 2447 -78 1769 -78 
Q 1091 -78 675 323 
Q 259 725 259 1325 
Q 259 1772 486 2073 
Q 713 2375 1131 2484 
z
M 1019 3438 
Q 1019 3113 1228 2906 
Q 1438 2700 1772 2700 
Q 2097 2700 2305 2904 
Q 2513 3109 2513 3406 
Q 2513 3716 2298 3927 
Q 2084 4138 1766 4138 
Q 1444 4138 1231 3931 
Q 1019 3725 1019 3438 
z
M 838 1322 
Q 838 1081 952 856 
Q 1066 631 1291 507 
Q 1516 384 1775 384 
Q 2178 384 2440 643 
Q 2703 903 2703 1303 
Q 2703 1709 2433 1975 
Q 2163 2241 1756 2241 
Q 1359 2241 1098 1978 
Q 838 1716 838 1322 
z
" transform="scale(0.015625)"/>
       </defs>
       <use xlink:href="#ArialMT-38"/>
       <use xlink:href="#ArialMT-30" transform="translate(55.615234 0)"/>
      </g>
     </g>
    </g>
    <g id="xtick_6">
     <g id="line2d_11">
      <path d="M 451.9825 387.100937 
L 451.9825 23.220937 
" clip-path="url(#p93e57a6f82)" style="fill: none; stroke-dasharray: 2.96,1.28; stroke-dashoffset: 0; stroke: #b0b0b0; stroke-opacity: 0.5; stroke-width: 0.8"/>
     </g>
     <g id="line2d_12">
      <g>
       <use xlink:href="#m75d7adcb8c" x="451.9825" y="387.100937" style="stroke: #000000; stroke-width: 0.8"/>
      </g>
     </g>
     <g id="text_6">
      <!-- 100 -->
      <g transform="translate(443.641094 401.25875) scale(0.1 -0.1)">
       <defs>
        <path id="ArialMT-31" d="M 2384 0 
L 1822 0 
L 1822 3584 
Q 1619 3391 1289 3197 
Q 959 3003 697 2906 
L 697 3450 
Q 1169 3672 1522 3987 
Q 1875 4303 2022 4600 
L 2384 4600 
L 2384 0 
z
" transform="scale(0.015625)"/>
       </defs>
       <use xlink:href="#ArialMT-31"/>
       <use xlink:href="#ArialMT-30" transform="translate(55.615234 0)"/>
       <use xlink:href="#ArialMT-30" transform="translate(111.230469 0)"/>
      </g>
     </g>
    </g>
    <g id="xtick_7">
     <g id="line2d_13">
      <path d="M 533.7675 387.100937 
L 533.7675 23.220937 
" clip-path="url(#p93e57a6f82)" style="fill: none; stroke-dasharray: 2.96,1.28; stroke-dashoffset: 0; stroke: #b0b0b0; stroke-opacity: 0.5; stroke-width: 0.8"/>
     </g>
     <g id="line2d_14">
      <g>
       <use xlink:href="#m75d7adcb8c" x="533.7675" y="387.100937" style="stroke: #000000; stroke-width: 0.8"/>
      </g>
     </g>
     <g id="text_7">
      <!-- 120 -->
      <g transform="translate(525.426094 401.25875) scale(0.1 -0.1)">
       <use xlink:href="#ArialMT-31"/>
       <use xlink:href="#ArialMT-32" transform="translate(55.615234 0)"/>
       <use xlink:href="#ArialMT-30" transform="translate(111.230469 0)"/>
      </g>
     </g>
    </g>
    <g id="xtick_8">
     <g id="line2d_15">
      <path d="M 615.5525 387.100937 
L 615.5525 23.220937 
" clip-path="url(#p93e57a6f82)" style="fill: none; stroke-dasharray: 2.96,1.28; stroke-dashoffset: 0; stroke: #b0b0b0; stroke-opacity: 0.5; stroke-width: 0.8"/>
     </g>
     <g id="line2d_16">
      <g>
       <use xlink:href="#m75d7adcb8c" x="615.5525" y="387.100937" style="stroke: #000000; stroke-width: 0.8"/>
      </g>
     </g>
     <g id="text_8">
      <!-- 140 -->
      <g transform="translate(607.211094 401.25875) scale(0.1 -0.1)">
       <use xlink:href="#ArialMT-31"/>
       <use xlink:href="#ArialMT-34" transform="translate(55.615234 0)"/>
       <use xlink:href="#ArialMT-30" transform="translate(111.230469 0)"/>
      </g>
     </g>
    </g>
    <g id="xtick_9">
     <g id="line2d_17">
      <path d="M 697.3375 387.100937 
L 697.3375 23.220937 
" clip-path="url(#p93e57a6f82)" style="fill: none; stroke-dasharray: 2.96,1.28; stroke-dashoffset: 0; stroke: #b0b0b0; stroke-opacity: 0.5; stroke-width: 0.8"/>
     </g>
     <g id="line2d_18">
      <g>
       <use xlink:href="#m75d7adcb8c" x="697.3375" y="387.100937" style="stroke: #000000; stroke-width: 0.8"/>
      </g>
     </g>
     <g id="text_9">
      <!-- 160 -->
      <g transform="translate(688.996094 401.25875) scale(0.1 -0.1)">
       <use xlink:href="#ArialMT-31"/>
       <use xlink:href="#ArialMT-36" transform="translate(55.615234 0)"/>
       <use xlink:href="#ArialMT-30" transform="translate(111.230469 0)"/>
      </g>
     </g>
    </g>
    <g id="text_10">
     <!-- k (Threshold Index) -->
     <g transform="translate(314.863438 415.981875) scale(0.12 -0.12)">
      <defs>
       <path id="Arial-BoldMT-6b" d="M 428 0 
L 428 4581 
L 1306 4581 
L 1306 2150 
L 2334 3319 
L 3416 3319 
L 2281 2106 
L 3497 0 
L 2550 0 
L 1716 1491 
L 1306 1063 
L 1306 0 
L 428 0 
z
" transform="scale(0.015625)"/>
       <path id="Arial-BoldMT-20" transform="scale(0.015625)"/>
       <path id="Arial-BoldMT-28" d="M 1916 -1347 
L 1313 -1347 
Q 834 -625 584 153 
Q 334 931 334 1659 
Q 334 2563 644 3369 
Q 913 4069 1325 4659 
L 1925 4659 
Q 1497 3713 1336 3048 
Q 1175 2384 1175 1641 
Q 1175 1128 1270 590 
Q 1366 53 1531 -431 
Q 1641 -750 1916 -1347 
z
" transform="scale(0.015625)"/>
       <path id="Arial-BoldMT-54" d="M 1497 0 
L 1497 3806 
L 138 3806 
L 138 4581 
L 3778 4581 
L 3778 3806 
L 2422 3806 
L 2422 0 
L 1497 0 
z
" transform="scale(0.015625)"/>
       <path id="Arial-BoldMT-68" d="M 1334 4581 
L 1334 2897 
Q 1759 3394 2350 3394 
Q 2653 3394 2897 3281 
Q 3141 3169 3264 2994 
Q 3388 2819 3433 2606 
Q 3478 2394 3478 1947 
L 3478 0 
L 2600 0 
L 2600 1753 
Q 2600 2275 2550 2415 
Q 2500 2556 2373 2639 
Q 2247 2722 2056 2722 
Q 1838 2722 1666 2615 
Q 1494 2509 1414 2295 
Q 1334 2081 1334 1663 
L 1334 0 
L 456 0 
L 456 4581 
L 1334 4581 
z
" transform="scale(0.015625)"/>
       <path id="Arial-BoldMT-72" d="M 1300 0 
L 422 0 
L 422 3319 
L 1238 3319 
L 1238 2847 
Q 1447 3181 1614 3287 
Q 1781 3394 1994 3394 
Q 2294 3394 2572 3228 
L 2300 2463 
Q 2078 2606 1888 2606 
Q 1703 2606 1575 2504 
Q 1447 2403 1373 2137 
Q 1300 1872 1300 1025 
L 1300 0 
z
" transform="scale(0.015625)"/>
       <path id="Arial-BoldMT-65" d="M 2381 1056 
L 3256 909 
Q 3088 428 2723 176 
Q 2359 -75 1813 -75 
Q 947 -75 531 491 
Q 203 944 203 1634 
Q 203 2459 634 2926 
Q 1066 3394 1725 3394 
Q 2466 3394 2894 2905 
Q 3322 2416 3303 1406 
L 1103 1406 
Q 1113 1016 1316 798 
Q 1519 581 1822 581 
Q 2028 581 2168 693 
Q 2309 806 2381 1056 
z
M 2431 1944 
Q 2422 2325 2234 2523 
Q 2047 2722 1778 2722 
Q 1491 2722 1303 2513 
Q 1116 2303 1119 1944 
L 2431 1944 
z
" transform="scale(0.015625)"/>
       <path id="Arial-BoldMT-73" d="M 150 947 
L 1031 1081 
Q 1088 825 1259 692 
Q 1431 559 1741 559 
Q 2081 559 2253 684 
Q 2369 772 2369 919 
Q 2369 1019 2306 1084 
Q 2241 1147 2013 1200 
Q 950 1434 666 1628 
Q 272 1897 272 2375 
Q 272 2806 612 3100 
Q 953 3394 1669 3394 
Q 2350 3394 2681 3172 
Q 3013 2950 3138 2516 
L 2309 2363 
Q 2256 2556 2107 2659 
Q 1959 2763 1684 2763 
Q 1338 2763 1188 2666 
Q 1088 2597 1088 2488 
Q 1088 2394 1175 2328 
Q 1294 2241 1995 2081 
Q 2697 1922 2975 1691 
Q 3250 1456 3250 1038 
Q 3250 581 2869 253 
Q 2488 -75 1741 -75 
Q 1063 -75 667 200 
Q 272 475 150 947 
z
" transform="scale(0.015625)"/>
       <path id="Arial-BoldMT-6f" d="M 256 1706 
Q 256 2144 472 2553 
Q 688 2963 1083 3178 
Q 1478 3394 1966 3394 
Q 2719 3394 3200 2905 
Q 3681 2416 3681 1669 
Q 3681 916 3195 420 
Q 2709 -75 1972 -75 
Q 1516 -75 1102 131 
Q 688 338 472 736 
Q 256 1134 256 1706 
z
M 1156 1659 
Q 1156 1166 1390 903 
Q 1625 641 1969 641 
Q 2313 641 2545 903 
Q 2778 1166 2778 1666 
Q 2778 2153 2545 2415 
Q 2313 2678 1969 2678 
Q 1625 2678 1390 2415 
Q 1156 2153 1156 1659 
z
" transform="scale(0.015625)"/>
       <path id="Arial-BoldMT-6c" d="M 459 0 
L 459 4581 
L 1338 4581 
L 1338 0 
L 459 0 
z
" transform="scale(0.015625)"/>
       <path id="Arial-BoldMT-64" d="M 3503 0 
L 2688 0 
L 2688 488 
Q 2484 203 2207 64 
Q 1931 -75 1650 -75 
Q 1078 -75 670 386 
Q 263 847 263 1672 
Q 263 2516 659 2955 
Q 1056 3394 1663 3394 
Q 2219 3394 2625 2931 
L 2625 4581 
L 3503 4581 
L 3503 0 
z
M 1159 1731 
Q 1159 1200 1306 963 
Q 1519 619 1900 619 
Q 2203 619 2415 876 
Q 2628 1134 2628 1647 
Q 2628 2219 2422 2470 
Q 2216 2722 1894 2722 
Q 1581 2722 1370 2473 
Q 1159 2225 1159 1731 
z
" transform="scale(0.015625)"/>
       <path id="Arial-BoldMT-49" d="M 438 0 
L 438 4581 
L 1363 4581 
L 1363 0 
L 438 0 
z
" transform="scale(0.015625)"/>
       <path id="Arial-BoldMT-6e" d="M 3478 0 
L 2600 0 
L 2600 1694 
Q 2600 2231 2544 2389 
Q 2488 2547 2361 2634 
Q 2234 2722 2056 2722 
Q 1828 2722 1647 2597 
Q 1466 2472 1398 2265 
Q 1331 2059 1331 1503 
L 1331 0 
L 453 0 
L 453 3319 
L 1269 3319 
L 1269 2831 
Q 1703 3394 2363 3394 
Q 2653 3394 2893 3289 
Q 3134 3184 3257 3021 
Q 3381 2859 3429 2653 
Q 3478 2447 3478 2063 
L 3478 0 
z
" transform="scale(0.015625)"/>
       <path id="Arial-BoldMT-78" d="M 38 0 
L 1234 1709 
L 88 3319 
L 1159 3319 
L 1747 2406 
L 2366 3319 
L 3397 3319 
L 2272 1747 
L 3500 0 
L 2422 0 
L 1747 1028 
L 1066 0 
L 38 0 
z
" transform="scale(0.015625)"/>
       <path id="Arial-BoldMT-29" d="M 216 -1347 
Q 475 -791 581 -494 
Q 688 -197 778 190 
Q 869 578 912 926 
Q 956 1275 956 1641 
Q 956 2384 797 3048 
Q 638 3713 209 4659 
L 806 4659 
Q 1278 3988 1539 3234 
Q 1800 2481 1800 1706 
Q 1800 1053 1594 306 
Q 1359 -531 822 -1347 
L 216 -1347 
z
" transform="scale(0.015625)"/>
      </defs>
      <use xlink:href="#Arial-BoldMT-6b"/>
      <use xlink:href="#Arial-BoldMT-20" transform="translate(55.615234 0)"/>
      <use xlink:href="#Arial-BoldMT-28" transform="translate(83.398438 0)"/>
      <use xlink:href="#Arial-BoldMT-54" transform="translate(116.699219 0)"/>
      <use xlink:href="#Arial-BoldMT-68" transform="translate(177.783203 0)"/>
      <use xlink:href="#Arial-BoldMT-72" transform="translate(238.867188 0)"/>
      <use xlink:href="#Arial-BoldMT-65" transform="translate(277.783203 0)"/>
      <use xlink:href="#Arial-BoldMT-73" transform="translate(333.398438 0)"/>
      <use xlink:href="#Arial-BoldMT-68" transform="translate(389.013672 0)"/>
      <use xlink:href="#Arial-BoldMT-6f" transform="translate(450.097656 0)"/>
      <use xlink:href="#Arial-BoldMT-6c" transform="translate(511.181641 0)"/>
      <use xlink:href="#Arial-BoldMT-64" transform="translate(538.964844 0)"/>
      <use xlink:href="#Arial-BoldMT-20" transform="translate(600.048828 0)"/>
      <use xlink:href="#Arial-BoldMT-49" transform="translate(627.832031 0)"/>
      <use xlink:href="#Arial-BoldMT-6e" transform="translate(655.615234 0)"/>
      <use xlink:href="#Arial-BoldMT-64" transform="translate(716.699219 0)"/>
      <use xlink:href="#Arial-BoldMT-65" transform="translate(777.783203 0)"/>
      <use xlink:href="#Arial-BoldMT-78" transform="translate(833.398438 0)"/>
      <use xlink:href="#Arial-BoldMT-29" transform="translate(889.013672 0)"/>
     </g>
    </g>
   </g>
   <g id="matplotlib.axis_2">
    <g id="ytick_1">
     <g id="line2d_19">
      <path d="M 43.0575 387.100937 
L 697.3375 387.100937 
" clip-path="url(#p93e57a6f82)" style="fill: none; stroke-dasharray: 2.96,1.28; stroke-dashoffset: 0; stroke: #b0b0b0; stroke-opacity: 0.5; stroke-width: 0.8"/>
     </g>
     <g id="line2d_20">
      <defs>
       <path id="m8f930217b8" d="M 0 0 
L -3.5 0 
" style="stroke: #000000; stroke-width: 0.8"/>
      </defs>
      <g>
       <use xlink:href="#m8f930217b8" x="43.0575" y="387.100937" style="stroke: #000000; stroke-width: 0.8"/>
      </g>
     </g>
     <g id="text_11">
      <!-- 0.0 -->
      <g transform="translate(22.1575 390.679844) scale(0.1 -0.1)">
       <defs>
        <path id="ArialMT-2e" d="M 581 0 
L 581 641 
L 1222 641 
L 1222 0 
L 581 0 
z
" transform="scale(0.015625)"/>
       </defs>
       <use xlink:href="#ArialMT-30"/>
       <use xlink:href="#ArialMT-2e" transform="translate(55.615234 0)"/>
       <use xlink:href="#ArialMT-30" transform="translate(83.398438 0)"/>
      </g>
     </g>
    </g>
    <g id="ytick_2">
     <g id="line2d_21">
      <path d="M 43.0575 317.790461 
L 697.3375 317.790461 
" clip-path="url(#p93e57a6f82)" style="fill: none; stroke-dasharray: 2.96,1.28; stroke-dashoffset: 0; stroke: #b0b0b0; stroke-opacity: 0.5; stroke-width: 0.8"/>
     </g>
     <g id="line2d_22">
      <g>
       <use xlink:href="#m8f930217b8" x="43.0575" y="317.790461" style="stroke: #000000; stroke-width: 0.8"/>
      </g>
     </g>
     <g id="text_12">
      <!-- 0.2 -->
      <g transform="translate(22.1575 321.369368) scale(0.1 -0.1)">
       <use xlink:href="#ArialMT-30"/>
       <use xlink:href="#ArialMT-2e" transform="translate(55.615234 0)"/>
       <use xlink:href="#ArialMT-32" transform="translate(83.398438 0)"/>
      </g>
     </g>
    </g>
    <g id="ytick_3">
     <g id="line2d_23">
      <path d="M 43.0575 248.479985 
L 697.3375 248.479985 
" clip-path="url(#p93e57a6f82)" style="fill: none; stroke-dasharray: 2.96,1.28; stroke-dashoffset: 0; stroke: #b0b0b0; stroke-opacity: 0.5; stroke-width: 0.8"/>
     </g>
     <g id="line2d_24">
      <g>
       <use xlink:href="#m8f930217b8" x="43.0575" y="248.479985" style="stroke: #000000; stroke-width: 0.8"/>
      </g>
     </g>
     <g id="text_13">
      <!-- 0.4 -->
      <g transform="translate(22.1575 252.058891) scale(0.1 -0.1)">
       <use xlink:href="#ArialMT-30"/>
       <use xlink:href="#ArialMT-2e" transform="translate(55.615234 0)"/>
       <use xlink:href="#ArialMT-34" transform="translate(83.398438 0)"/>
      </g>
     </g>
    </g>
    <g id="ytick_4">
     <g id="line2d_25">
      <path d="M 43.0575 179.169509 
L 697.3375 179.169509 
" clip-path="url(#p93e57a6f82)" style="fill: none; stroke-dasharray: 2.96,1.28; stroke-dashoffset: 0; stroke: #b0b0b0; stroke-opacity: 0.5; stroke-width: 0.8"/>
     </g>
     <g id="line2d_26">
      <g>
       <use xlink:href="#m8f930217b8" x="43.0575" y="179.169509" style="stroke: #000000; stroke-width: 0.8"/>
      </g>
     </g>
     <g id="text_14">
      <!-- 0.6 -->
      <g transform="translate(22.1575 182.748415) scale(0.1 -0.1)">
       <use xlink:href="#ArialMT-30"/>
       <use xlink:href="#ArialMT-2e" transform="translate(55.615234 0)"/>
       <use xlink:href="#ArialMT-36" transform="translate(83.398438 0)"/>
      </g>
     </g>
    </g>
    <g id="ytick_5">
     <g id="line2d_27">
      <path d="M 43.0575 109.859033 
L 697.3375 109.859033 
" clip-path="url(#p93e57a6f82)" style="fill: none; stroke-dasharray: 2.96,1.28; stroke-dashoffset: 0; stroke: #b0b0b0; stroke-opacity: 0.5; stroke-width: 0.8"/>
     </g>
     <g id="line2d_28">
      <g>
       <use xlink:href="#m8f930217b8" x="43.0575" y="109.859033" style="stroke: #000000; stroke-width: 0.8"/>
      </g>
     </g>
     <g id="text_15">
      <!-- 0.8 -->
      <g transform="translate(22.1575 113.437939) scale(0.1 -0.1)">
       <use xlink:href="#ArialMT-30"/>
       <use xlink:href="#ArialMT-2e" transform="translate(55.615234 0)"/>
       <use xlink:href="#ArialMT-38" transform="translate(83.398438 0)"/>
      </g>
     </g>
    </g>
    <g id="ytick_6">
     <g id="line2d_29">
      <path d="M 43.0575 40.548557 
L 697.3375 40.548557 
" clip-path="url(#p93e57a6f82)" style="fill: none; stroke-dasharray: 2.96,1.28; stroke-dashoffset: 0; stroke: #b0b0b0; stroke-opacity: 0.5; stroke-width: 0.8"/>
     </g>
     <g id="line2d_30">
      <g>
       <use xlink:href="#m8f930217b8" x="43.0575" y="40.548557" style="stroke: #000000; stroke-width: 0.8"/>
      </g>
     </g>
     <g id="text_16">
      <!-- 1.0 -->
      <g transform="translate(22.1575 44.127463) scale(0.1 -0.1)">
       <use xlink:href="#ArialMT-31"/>
       <use xlink:href="#ArialMT-2e" transform="translate(55.615234 0)"/>
       <use xlink:href="#ArialMT-30" transform="translate(83.398438 0)"/>
      </g>
     </g>
    </g>
    <g id="text_17">
     <!-- Precision -->
     <g transform="translate(15.789375 232.17125) rotate(-90) scale(0.12 -0.12)">
      <defs>
       <path id="Arial-BoldMT-50" d="M 466 0 
L 466 4581 
L 1950 4581 
Q 2794 4581 3050 4513 
Q 3444 4409 3709 4064 
Q 3975 3719 3975 3172 
Q 3975 2750 3822 2462 
Q 3669 2175 3433 2011 
Q 3197 1847 2953 1794 
Q 2622 1728 1994 1728 
L 1391 1728 
L 1391 0 
L 466 0 
z
M 1391 3806 
L 1391 2506 
L 1897 2506 
Q 2444 2506 2628 2578 
Q 2813 2650 2917 2803 
Q 3022 2956 3022 3159 
Q 3022 3409 2875 3571 
Q 2728 3734 2503 3775 
Q 2338 3806 1838 3806 
L 1391 3806 
z
" transform="scale(0.015625)"/>
       <path id="Arial-BoldMT-63" d="M 3353 2338 
L 2488 2181 
Q 2444 2441 2289 2572 
Q 2134 2703 1888 2703 
Q 1559 2703 1364 2476 
Q 1169 2250 1169 1719 
Q 1169 1128 1367 884 
Q 1566 641 1900 641 
Q 2150 641 2309 783 
Q 2469 925 2534 1272 
L 3397 1125 
Q 3263 531 2881 228 
Q 2500 -75 1859 -75 
Q 1131 -75 698 384 
Q 266 844 266 1656 
Q 266 2478 700 2936 
Q 1134 3394 1875 3394 
Q 2481 3394 2839 3133 
Q 3197 2872 3353 2338 
z
" transform="scale(0.015625)"/>
       <path id="Arial-BoldMT-69" d="M 459 3769 
L 459 4581 
L 1338 4581 
L 1338 3769 
L 459 3769 
z
M 459 0 
L 459 3319 
L 1338 3319 
L 1338 0 
L 459 0 
z
" transform="scale(0.015625)"/>
      </defs>
      <use xlink:href="#Arial-BoldMT-50"/>
      <use xlink:href="#Arial-BoldMT-72" transform="translate(66.699219 0)"/>
      <use xlink:href="#Arial-BoldMT-65" transform="translate(105.615234 0)"/>
      <use xlink:href="#Arial-BoldMT-63" transform="translate(161.230469 0)"/>
      <use xlink:href="#Arial-BoldMT-69" transform="translate(216.845703 0)"/>
      <use xlink:href="#Arial-BoldMT-73" transform="translate(244.628906 0)"/>
      <use xlink:href="#Arial-BoldMT-69" transform="translate(300.244141 0)"/>
      <use xlink:href="#Arial-BoldMT-6f" transform="translate(328.027344 0)"/>
      <use xlink:href="#Arial-BoldMT-6e" transform="translate(389.111328 0)"/>
     </g>
    </g>
   </g>
   <g id="line2d_31">
    <path d="M 47.14675 387.100937 
L 51.236 213.824747 
L 55.32525 156.066017 
L 59.4145 213.824747 
L 63.50375 248.479985 
L 67.593 213.824747 
L 71.68225 189.071006 
L 75.7715 170.505699 
L 79.86075 194.571837 
L 83.95 179.169509 
L 88.03925 198.072366 
L 92.1285 184.945382 
L 96.21775 200.495809 
L 100.307 213.824747 
L 104.39625 202.273001 
L 108.4855 192.165223 
L 112.57475 183.246596 
L 116.664 194.571837 
L 120.75325 204.704948 
L 124.8425 213.824747 
L 128.93175 205.5735 
L 133.021 198.072366 
L 137.11025 191.223505 
L 141.1995 184.945382 
L 145.28875 193.031604 
L 149.378 187.166872 
L 153.46725 194.571837 
L 157.5565 201.447876 
L 161.64575 195.899624 
L 165.735 190.721255 
L 169.82425 185.876974 
L 173.9135 181.335461 
L 178.00275 177.069191 
L 182.092 173.053879 
L 186.18125 179.169509 
L 190.2705 184.945382 
L 194.35975 181.042765 
L 198.449 186.465349 
L 202.53825 191.609851 
L 206.6275 196.497128 
L 210.71675 192.693504 
L 214.806 189.071006 
L 218.89525 193.676353 
L 222.9845 198.072366 
L 227.07375 202.273001 
L 231.163 198.757252 
L 235.25225 202.764565 
L 239.3415 206.604906 
L 247.52 213.824747 
L 251.60925 210.427175 
L 255.6985 213.824747 
L 263.877 207.40711 
L 272.0555 213.824747 
L 280.234 219.799788 
L 284.32325 216.761632 
L 292.50175 222.346527 
L 300.68025 227.576826 
L 308.85875 232.48526 
L 317.03725 237.100653 
L 321.1265 234.210181 
L 329.305 238.578489 
L 337.4835 242.704112 
L 345.662 246.606729 
L 353.8405 250.303945 
L 362.019 253.81156 
L 370.1975 257.143795 
L 382.46525 261.841041 
L 394.733 266.210572 
L 407.00075 270.285528 
L 419.2685 274.094726 
L 431.53625 277.663344 
L 443.804 281.013474 
L 456.07175 284.164587 
L 468.3395 287.133905 
L 484.6965 290.836387 
L 501.0535 294.274407 
L 517.4105 297.475322 
L 533.7675 300.462842 
L 550.1245 303.25762 
L 570.57075 306.507361 
L 591.017 309.514584 
L 611.46325 312.30546 
L 635.99875 315.400445 
L 660.53425 318.249471 
L 685.06975 320.880737 
L 697.3375 322.122366 
L 697.3375 322.122366 
" clip-path="url(#p93e57a6f82)" style="fill: none; stroke: #1f77b4; stroke-width: 2; stroke-linecap: square"/>
    <defs>
     <path id="m4df69d67f4" d="M 0 1.5 
C 0.397805 1.5 0.77937 1.341951 1.06066 1.06066 
C 1.341951 0.77937 1.5 0.397805 1.5 0 
C 1.5 -0.397805 1.341951 -0.77937 1.06066 -1.06066 
C 0.77937 -1.341951 0.397805 -1.5 0 -1.5 
C -0.397805 -1.5 -0.77937 -1.341951 -1.06066 -1.06066 
C -1.341951 -0.77937 -1.5 -0.397805 -1.5 0 
C -1.5 0.397805 -1.341951 0.77937 -1.06066 1.06066 
C -0.77937 1.341951 -0.397805 1.5 0 1.5 
z
" style="stroke: #1f77b4"/>
    </defs>
    <g clip-path="url(#p93e57a6f82)">
     <use xlink:href="#m4df69d67f4" x="47.14675" y="387.100937" style="fill: #1f77b4; stroke: #1f77b4"/>
     <use xlink:href="#m4df69d67f4" x="63.50375" y="248.479985" style="fill: #1f77b4; stroke: #1f77b4"/>
     <use xlink:href="#m4df69d67f4" x="79.86075" y="194.571837" style="fill: #1f77b4; stroke: #1f77b4"/>
     <use xlink:href="#m4df69d67f4" x="96.21775" y="200.495809" style="fill: #1f77b4; stroke: #1f77b4"/>
     <use xlink:href="#m4df69d67f4" x="112.57475" y="183.246596" style="fill: #1f77b4; stroke: #1f77b4"/>
     <use xlink:href="#m4df69d67f4" x="128.93175" y="205.5735" style="fill: #1f77b4; stroke: #1f77b4"/>
     <use xlink:href="#m4df69d67f4" x="145.28875" y="193.031604" style="fill: #1f77b4; stroke: #1f77b4"/>
     <use xlink:href="#m4df69d67f4" x="161.64575" y="195.899624" style="fill: #1f77b4; stroke: #1f77b4"/>
     <use xlink:href="#m4df69d67f4" x="178.00275" y="177.069191" style="fill: #1f77b4; stroke: #1f77b4"/>
     <use xlink:href="#m4df69d67f4" x="194.35975" y="181.042765" style="fill: #1f77b4; stroke: #1f77b4"/>
     <use xlink:href="#m4df69d67f4" x="210.71675" y="192.693504" style="fill: #1f77b4; stroke: #1f77b4"/>
     <use xlink:href="#m4df69d67f4" x="227.07375" y="202.273001" style="fill: #1f77b4; stroke: #1f77b4"/>
     <use xlink:href="#m4df69d67f4" x="243.43075" y="210.288498" style="fill: #1f77b4; stroke: #1f77b4"/>
     <use xlink:href="#m4df69d67f4" x="259.78775" y="210.555385" style="fill: #1f77b4; stroke: #1f77b4"/>
     <use xlink:href="#m4df69d67f4" x="276.14475" y="216.86468" style="fill: #1f77b4; stroke: #1f77b4"/>
     <use xlink:href="#m4df69d67f4" x="292.50175" y="222.346527" style="fill: #1f77b4; stroke: #1f77b4"/>
     <use xlink:href="#m4df69d67f4" x="308.85875" y="232.48526" style="fill: #1f77b4; stroke: #1f77b4"/>
     <use xlink:href="#m4df69d67f4" x="325.21575" y="236.425989" style="fill: #1f77b4; stroke: #1f77b4"/>
     <use xlink:href="#m4df69d67f4" x="341.57275" y="244.682151" style="fill: #1f77b4; stroke: #1f77b4"/>
     <use xlink:href="#m4df69d67f4" x="357.92975" y="252.080529" style="fill: #1f77b4; stroke: #1f77b4"/>
     <use xlink:href="#m4df69d67f4" x="374.28675" y="258.748204" style="fill: #1f77b4; stroke: #1f77b4"/>
     <use xlink:href="#m4df69d67f4" x="390.64375" y="264.788332" style="fill: #1f77b4; stroke: #1f77b4"/>
     <use xlink:href="#m4df69d67f4" x="407.00075" y="270.285528" style="fill: #1f77b4; stroke: #1f77b4"/>
     <use xlink:href="#m4df69d67f4" x="423.35775" y="275.309847" style="fill: #1f77b4; stroke: #1f77b4"/>
     <use xlink:href="#m4df69d67f4" x="439.71475" y="279.919789" style="fill: #1f77b4; stroke: #1f77b4"/>
     <use xlink:href="#m4df69d67f4" x="456.07175" y="284.164587" style="fill: #1f77b4; stroke: #1f77b4"/>
     <use xlink:href="#m4df69d67f4" x="472.42875" y="288.085972" style="fill: #1f77b4; stroke: #1f77b4"/>
     <use xlink:href="#m4df69d67f4" x="488.78575" y="291.719548" style="fill: #1f77b4; stroke: #1f77b4"/>
     <use xlink:href="#m4df69d67f4" x="505.14275" y="295.095881" style="fill: #1f77b4; stroke: #1f77b4"/>
     <use xlink:href="#m4df69d67f4" x="521.49975" y="298.241353" style="fill: #1f77b4; stroke: #1f77b4"/>
     <use xlink:href="#m4df69d67f4" x="537.85675" y="301.17886" style="fill: #1f77b4; stroke: #1f77b4"/>
     <use xlink:href="#m4df69d67f4" x="554.21375" y="303.928366" style="fill: #1f77b4; stroke: #1f77b4"/>
     <use xlink:href="#m4df69d67f4" x="570.57075" y="306.507361" style="fill: #1f77b4; stroke: #1f77b4"/>
     <use xlink:href="#m4df69d67f4" x="586.92775" y="308.931228" style="fill: #1f77b4; stroke: #1f77b4"/>
     <use xlink:href="#m4df69d67f4" x="603.28475" y="311.213555" style="fill: #1f77b4; stroke: #1f77b4"/>
     <use xlink:href="#m4df69d67f4" x="619.64175" y="313.366388" style="fill: #1f77b4; stroke: #1f77b4"/>
     <use xlink:href="#m4df69d67f4" x="635.99875" y="315.400445" style="fill: #1f77b4; stroke: #1f77b4"/>
     <use xlink:href="#m4df69d67f4" x="652.35575" y="317.32529" style="fill: #1f77b4; stroke: #1f77b4"/>
     <use xlink:href="#m4df69d67f4" x="668.71275" y="319.14949" style="fill: #1f77b4; stroke: #1f77b4"/>
     <use xlink:href="#m4df69d67f4" x="685.06975" y="320.880737" style="fill: #1f77b4; stroke: #1f77b4"/>
    </g>
   </g>
   <g id="line2d_32">
    <path d="M 47.14675 387.100937 
L 51.236 213.824747 
L 55.32525 271.583477 
L 59.4145 213.824747 
L 63.50375 248.479985 
L 67.593 213.824747 
L 71.68225 189.071006 
L 75.7715 213.824747 
L 79.86075 233.077657 
L 83.95 248.479985 
L 88.03925 261.08189 
L 92.1285 271.583477 
L 96.21775 253.81156 
L 100.307 238.578489 
L 104.39625 248.479985 
L 108.4855 235.484271 
L 112.57475 224.017464 
L 116.664 233.077657 
L 120.75325 241.184146 
L 124.8425 231.152366 
L 128.93175 238.578489 
L 133.021 229.577128 
L 137.11025 221.358494 
L 141.1995 228.26443 
L 145.28875 234.61789 
L 149.378 227.153685 
L 153.46725 233.077657 
L 157.5565 226.201618 
L 161.64575 231.74987 
L 165.735 236.928239 
L 169.82425 241.77252 
L 173.9135 246.314033 
L 178.00275 240.078715 
L 182.092 244.402898 
L 186.18125 238.578489 
L 190.2705 233.077657 
L 194.35975 237.240448 
L 198.449 232.064346 
L 202.53825 227.153685 
L 206.6275 222.488557 
L 210.71675 226.503493 
L 214.806 222.075994 
L 218.89525 217.854426 
L 222.9845 213.824747 
L 227.07375 209.974165 
L 231.163 206.291 
L 235.25225 202.764565 
L 243.43075 196.143503 
L 251.60925 203.63203 
L 255.6985 207.160278 
L 259.78775 204.016661 
L 267.96625 210.674271 
L 276.14475 216.86468 
L 284.32325 210.887862 
L 292.50175 216.66534 
L 300.68025 222.075994 
L 308.85875 227.153685 
L 317.03725 231.92823 
L 325.21575 236.425989 
L 333.39425 240.670354 
L 341.57275 244.682151 
L 349.75125 248.479985 
L 357.92975 252.080529 
L 366.10825 255.498768 
L 374.28675 258.748204 
L 386.5545 263.33223 
L 398.82225 267.600116 
L 411.09 271.583477 
L 423.35775 275.309847 
L 435.6255 278.803318 
L 447.89325 282.085064 
L 460.161 285.173767 
L 476.518 289.020075 
L 492.875 292.586652 
L 509.232 295.902943 
L 525.589 298.9944 
L 541.946 301.883139 
L 562.39225 305.23817 
L 582.8385 308.339033 
L 603.28475 311.213555 
L 623.731 313.885646 
L 648.2665 316.853833 
L 672.802 319.590733 
L 697.3375 322.122366 
L 697.3375 322.122366 
" clip-path="url(#p93e57a6f82)" style="fill: none; stroke: #ff7f0e; stroke-width: 2; stroke-linecap: square"/>
    <defs>
     <path id="m23f7094e37" d="M 0 1.5 
C 0.397805 1.5 0.77937 1.341951 1.06066 1.06066 
C 1.341951 0.77937 1.5 0.397805 1.5 0 
C 1.5 -0.397805 1.341951 -0.77937 1.06066 -1.06066 
C 0.77937 -1.341951 0.397805 -1.5 0 -1.5 
C -0.397805 -1.5 -0.77937 -1.341951 -1.06066 -1.06066 
C -1.341951 -0.77937 -1.5 -0.397805 -1.5 0 
C -1.5 0.397805 -1.341951 0.77937 -1.06066 1.06066 
C -0.77937 1.341951 -0.397805 1.5 0 1.5 
z
" style="stroke: #ff7f0e"/>
    </defs>
    <g clip-path="url(#p93e57a6f82)">
     <use xlink:href="#m23f7094e37" x="47.14675" y="387.100937" style="fill: #ff7f0e; stroke: #ff7f0e"/>
     <use xlink:href="#m23f7094e37" x="63.50375" y="248.479985" style="fill: #ff7f0e; stroke: #ff7f0e"/>
     <use xlink:href="#m23f7094e37" x="79.86075" y="233.077657" style="fill: #ff7f0e; stroke: #ff7f0e"/>
     <use xlink:href="#m23f7094e37" x="96.21775" y="253.81156" style="fill: #ff7f0e; stroke: #ff7f0e"/>
     <use xlink:href="#m23f7094e37" x="112.57475" y="224.017464" style="fill: #ff7f0e; stroke: #ff7f0e"/>
     <use xlink:href="#m23f7094e37" x="128.93175" y="238.578489" style="fill: #ff7f0e; stroke: #ff7f0e"/>
     <use xlink:href="#m23f7094e37" x="145.28875" y="234.61789" style="fill: #ff7f0e; stroke: #ff7f0e"/>
     <use xlink:href="#m23f7094e37" x="161.64575" y="231.74987" style="fill: #ff7f0e; stroke: #ff7f0e"/>
     <use xlink:href="#m23f7094e37" x="178.00275" y="240.078715" style="fill: #ff7f0e; stroke: #ff7f0e"/>
     <use xlink:href="#m23f7094e37" x="194.35975" y="237.240448" style="fill: #ff7f0e; stroke: #ff7f0e"/>
     <use xlink:href="#m23f7094e37" x="210.71675" y="226.503493" style="fill: #ff7f0e; stroke: #ff7f0e"/>
     <use xlink:href="#m23f7094e37" x="227.07375" y="209.974165" style="fill: #ff7f0e; stroke: #ff7f0e"/>
     <use xlink:href="#m23f7094e37" x="243.43075" y="196.143503" style="fill: #ff7f0e; stroke: #ff7f0e"/>
     <use xlink:href="#m23f7094e37" x="259.78775" y="204.016661" style="fill: #ff7f0e; stroke: #ff7f0e"/>
     <use xlink:href="#m23f7094e37" x="276.14475" y="216.86468" style="fill: #ff7f0e; stroke: #ff7f0e"/>
     <use xlink:href="#m23f7094e37" x="292.50175" y="216.66534" style="fill: #ff7f0e; stroke: #ff7f0e"/>
     <use xlink:href="#m23f7094e37" x="308.85875" y="227.153685" style="fill: #ff7f0e; stroke: #ff7f0e"/>
     <use xlink:href="#m23f7094e37" x="325.21575" y="236.425989" style="fill: #ff7f0e; stroke: #ff7f0e"/>
     <use xlink:href="#m23f7094e37" x="341.57275" y="244.682151" style="fill: #ff7f0e; stroke: #ff7f0e"/>
     <use xlink:href="#m23f7094e37" x="357.92975" y="252.080529" style="fill: #ff7f0e; stroke: #ff7f0e"/>
     <use xlink:href="#m23f7094e37" x="374.28675" y="258.748204" style="fill: #ff7f0e; stroke: #ff7f0e"/>
     <use xlink:href="#m23f7094e37" x="390.64375" y="264.788332" style="fill: #ff7f0e; stroke: #ff7f0e"/>
     <use xlink:href="#m23f7094e37" x="407.00075" y="270.285528" style="fill: #ff7f0e; stroke: #ff7f0e"/>
     <use xlink:href="#m23f7094e37" x="423.35775" y="275.309847" style="fill: #ff7f0e; stroke: #ff7f0e"/>
     <use xlink:href="#m23f7094e37" x="439.71475" y="279.919789" style="fill: #ff7f0e; stroke: #ff7f0e"/>
     <use xlink:href="#m23f7094e37" x="456.07175" y="284.164587" style="fill: #ff7f0e; stroke: #ff7f0e"/>
     <use xlink:href="#m23f7094e37" x="472.42875" y="288.085972" style="fill: #ff7f0e; stroke: #ff7f0e"/>
     <use xlink:href="#m23f7094e37" x="488.78575" y="291.719548" style="fill: #ff7f0e; stroke: #ff7f0e"/>
     <use xlink:href="#m23f7094e37" x="505.14275" y="295.095881" style="fill: #ff7f0e; stroke: #ff7f0e"/>
     <use xlink:href="#m23f7094e37" x="521.49975" y="298.241353" style="fill: #ff7f0e; stroke: #ff7f0e"/>
     <use xlink:href="#m23f7094e37" x="537.85675" y="301.17886" style="fill: #ff7f0e; stroke: #ff7f0e"/>
     <use xlink:href="#m23f7094e37" x="554.21375" y="303.928366" style="fill: #ff7f0e; stroke: #ff7f0e"/>
     <use xlink:href="#m23f7094e37" x="570.57075" y="306.507361" style="fill: #ff7f0e; stroke: #ff7f0e"/>
     <use xlink:href="#m23f7094e37" x="586.92775" y="308.931228" style="fill: #ff7f0e; stroke: #ff7f0e"/>
     <use xlink:href="#m23f7094e37" x="603.28475" y="311.213555" style="fill: #ff7f0e; stroke: #ff7f0e"/>
     <use xlink:href="#m23f7094e37" x="619.64175" y="313.366388" style="fill: #ff7f0e; stroke: #ff7f0e"/>
     <use xlink:href="#m23f7094e37" x="635.99875" y="315.400445" style="fill: #ff7f0e; stroke: #ff7f0e"/>
     <use xlink:href="#m23f7094e37" x="652.35575" y="317.32529" style="fill: #ff7f0e; stroke: #ff7f0e"/>
     <use xlink:href="#m23f7094e37" x="668.71275" y="319.14949" style="fill: #ff7f0e; stroke: #ff7f0e"/>
     <use xlink:href="#m23f7094e37" x="685.06975" y="320.880737" style="fill: #ff7f0e; stroke: #ff7f0e"/>
    </g>
   </g>
   <g id="line2d_33">
    <path d="M 47.14675 387.100937 
L 51.236 387.100937 
L 55.32525 271.583477 
L 59.4145 300.462842 
L 63.50375 317.790461 
L 67.593 329.342207 
L 71.68225 337.593455 
L 75.7715 343.78189 
L 79.86075 348.595117 
L 83.95 352.445699 
L 88.03925 355.596176 
L 92.1285 358.221572 
L 96.21775 360.443062 
L 100.307 362.347196 
L 104.39625 340.893953 
L 108.4855 322.122366 
L 112.57475 325.944635 
L 116.664 329.342207 
L 120.75325 332.382141 
L 124.8425 317.790461 
L 128.93175 304.588466 
L 133.021 308.339033 
L 137.11025 296.695969 
L 141.1995 300.462842 
L 145.28875 303.928366 
L 149.378 307.127311 
L 153.46725 297.254024 
L 157.5565 288.085972 
L 161.64575 291.500281 
L 165.735 294.686969 
L 169.82425 286.488956 
L 173.9135 289.63308 
L 178.00275 292.586652 
L 182.092 285.173767 
L 186.18125 288.085972 
L 190.2705 290.836387 
L 194.35975 284.071851 
L 198.449 286.783143 
L 202.53825 280.469436 
L 206.6275 274.471414 
L 214.806 279.834724 
L 222.9845 284.710461 
L 231.163 289.162221 
L 235.25225 291.246024 
L 239.3415 286.02316 
L 243.43075 281.013474 
L 251.60925 285.173767 
L 259.78775 289.020075 
L 267.96625 292.586652 
L 276.14475 295.902943 
L 284.32325 298.9944 
L 292.50175 301.883139 
L 296.591 303.25762 
L 300.68025 299.087634 
L 304.7695 300.462842 
L 308.85875 296.464161 
L 317.03725 299.169736 
L 329.305 302.938216 
L 341.57275 306.396958 
L 353.8405 309.582642 
L 366.10825 312.526375 
L 378.376 315.254712 
L 382.46525 316.120329 
L 386.5545 312.839713 
L 394.733 314.566718 
L 398.82225 311.417084 
L 407.00075 313.117845 
L 411.09 310.089297 
L 427.447 313.366388 
L 443.804 316.375962 
L 460.161 319.14949 
L 476.518 321.713696 
L 496.96425 324.659067 
L 505.14275 325.764233 
L 509.232 323.262341 
L 517.4105 324.363006 
L 525.589 319.552592 
L 546.03525 322.29846 
L 562.39225 324.339483 
L 570.57075 319.939623 
L 582.8385 321.466017 
L 586.92775 319.353856 
L 611.46325 322.27819 
L 635.99875 324.960511 
L 652.35575 326.62871 
L 656.445 324.721509 
L 680.9805 327.120718 
L 685.06975 325.295417 
L 689.159 325.686592 
L 697.3375 322.122366 
L 697.3375 322.122366 
" clip-path="url(#p93e57a6f82)" style="fill: none; stroke: #2ca02c; stroke-width: 2; stroke-linecap: square"/>
    <defs>
     <path id="mf35e56fc2b" d="M 0 1.5 
C 0.397805 1.5 0.77937 1.341951 1.06066 1.06066 
C 1.341951 0.77937 1.5 0.397805 1.5 0 
C 1.5 -0.397805 1.341951 -0.77937 1.06066 -1.06066 
C 0.77937 -1.341951 0.397805 -1.5 0 -1.5 
C -0.397805 -1.5 -0.77937 -1.341951 -1.06066 -1.06066 
C -1.341951 -0.77937 -1.5 -0.397805 -1.5 0 
C -1.5 0.397805 -1.341951 0.77937 -1.06066 1.06066 
C -0.77937 1.341951 -0.397805 1.5 0 1.5 
z
" style="stroke: #2ca02c"/>
    </defs>
    <g clip-path="url(#p93e57a6f82)">
     <use xlink:href="#mf35e56fc2b" x="47.14675" y="387.100937" style="fill: #2ca02c; stroke: #2ca02c"/>
     <use xlink:href="#mf35e56fc2b" x="63.50375" y="317.790461" style="fill: #2ca02c; stroke: #2ca02c"/>
     <use xlink:href="#mf35e56fc2b" x="79.86075" y="348.595117" style="fill: #2ca02c; stroke: #2ca02c"/>
     <use xlink:href="#mf35e56fc2b" x="96.21775" y="360.443062" style="fill: #2ca02c; stroke: #2ca02c"/>
     <use xlink:href="#mf35e56fc2b" x="112.57475" y="325.944635" style="fill: #2ca02c; stroke: #2ca02c"/>
     <use xlink:href="#mf35e56fc2b" x="128.93175" y="304.588466" style="fill: #2ca02c; stroke: #2ca02c"/>
     <use xlink:href="#mf35e56fc2b" x="145.28875" y="303.928366" style="fill: #2ca02c; stroke: #2ca02c"/>
     <use xlink:href="#mf35e56fc2b" x="161.64575" y="291.500281" style="fill: #2ca02c; stroke: #2ca02c"/>
     <use xlink:href="#mf35e56fc2b" x="178.00275" y="292.586652" style="fill: #2ca02c; stroke: #2ca02c"/>
     <use xlink:href="#mf35e56fc2b" x="194.35975" y="284.071851" style="fill: #2ca02c; stroke: #2ca02c"/>
     <use xlink:href="#mf35e56fc2b" x="210.71675" y="277.218475" style="fill: #2ca02c; stroke: #2ca02c"/>
     <use xlink:href="#mf35e56fc2b" x="227.07375" y="286.985805" style="fill: #2ca02c; stroke: #2ca02c"/>
     <use xlink:href="#mf35e56fc2b" x="243.43075" y="281.013474" style="fill: #2ca02c; stroke: #2ca02c"/>
     <use xlink:href="#mf35e56fc2b" x="259.78775" y="289.020075" style="fill: #2ca02c; stroke: #2ca02c"/>
     <use xlink:href="#mf35e56fc2b" x="276.14475" y="295.902943" style="fill: #2ca02c; stroke: #2ca02c"/>
     <use xlink:href="#mf35e56fc2b" x="292.50175" y="301.883139" style="fill: #2ca02c; stroke: #2ca02c"/>
     <use xlink:href="#mf35e56fc2b" x="308.85875" y="296.464161" style="fill: #2ca02c; stroke: #2ca02c"/>
     <use xlink:href="#mf35e56fc2b" x="325.21575" y="301.718467" style="fill: #2ca02c; stroke: #2ca02c"/>
     <use xlink:href="#mf35e56fc2b" x="341.57275" y="306.396958" style="fill: #2ca02c; stroke: #2ca02c"/>
     <use xlink:href="#mf35e56fc2b" x="357.92975" y="310.589373" style="fill: #2ca02c; stroke: #2ca02c"/>
     <use xlink:href="#mf35e56fc2b" x="374.28675" y="314.367722" style="fill: #2ca02c; stroke: #2ca02c"/>
     <use xlink:href="#mf35e56fc2b" x="390.64375" y="313.713374" style="fill: #2ca02c; stroke: #2ca02c"/>
     <use xlink:href="#mf35e56fc2b" x="407.00075" y="313.117845" style="fill: #2ca02c; stroke: #2ca02c"/>
     <use xlink:href="#mf35e56fc2b" x="423.35775" y="312.573544" style="fill: #2ca02c; stroke: #2ca02c"/>
     <use xlink:href="#mf35e56fc2b" x="439.71475" y="315.646838" style="fill: #2ca02c; stroke: #2ca02c"/>
     <use xlink:href="#mf35e56fc2b" x="456.07175" y="318.476704" style="fill: #2ca02c; stroke: #2ca02c"/>
     <use xlink:href="#mf35e56fc2b" x="472.42875" y="321.09096" style="fill: #2ca02c; stroke: #2ca02c"/>
     <use xlink:href="#mf35e56fc2b" x="488.78575" y="323.513345" style="fill: #2ca02c; stroke: #2ca02c"/>
     <use xlink:href="#mf35e56fc2b" x="505.14275" y="325.764233" style="fill: #2ca02c; stroke: #2ca02c"/>
     <use xlink:href="#mf35e56fc2b" x="521.49975" y="321.937242" style="fill: #2ca02c; stroke: #2ca02c"/>
     <use xlink:href="#mf35e56fc2b" x="537.85675" y="321.227344" style="fill: #2ca02c; stroke: #2ca02c"/>
     <use xlink:href="#mf35e56fc2b" x="554.21375" y="323.335299" style="fill: #2ca02c; stroke: #2ca02c"/>
     <use xlink:href="#mf35e56fc2b" x="570.57075" y="319.939623" style="fill: #2ca02c; stroke: #2ca02c"/>
     <use xlink:href="#mf35e56fc2b" x="586.92775" y="319.353856" style="fill: #2ca02c; stroke: #2ca02c"/>
     <use xlink:href="#mf35e56fc2b" x="603.28475" y="321.331873" style="fill: #2ca02c; stroke: #2ca02c"/>
     <use xlink:href="#mf35e56fc2b" x="619.64175" y="323.197662" style="fill: #2ca02c; stroke: #2ca02c"/>
     <use xlink:href="#mf35e56fc2b" x="635.99875" y="324.960511" style="fill: #2ca02c; stroke: #2ca02c"/>
     <use xlink:href="#mf35e56fc2b" x="652.35575" y="326.62871" style="fill: #2ca02c; stroke: #2ca02c"/>
     <use xlink:href="#mf35e56fc2b" x="668.71275" y="325.944635" style="fill: #2ca02c; stroke: #2ca02c"/>
     <use xlink:href="#mf35e56fc2b" x="685.06975" y="325.295417" style="fill: #2ca02c; stroke: #2ca02c"/>
    </g>
   </g>
   <g id="line2d_34">
    <path d="M 47.14675 387.100937 
L 51.236 213.824747 
L 55.32525 271.583477 
L 59.4145 213.824747 
L 63.50375 248.479985 
L 67.593 213.824747 
L 71.68225 189.071006 
L 75.7715 170.505699 
L 79.86075 194.571837 
L 83.95 213.824747 
L 88.03925 198.072366 
L 92.1285 213.824747 
L 96.21775 200.495809 
L 100.307 213.824747 
L 104.39625 202.273001 
L 108.4855 213.824747 
L 112.57475 224.017464 
L 116.664 233.077657 
L 120.75325 222.944547 
L 124.8425 231.152366 
L 128.93175 222.075994 
L 133.021 213.824747 
L 137.11025 221.358494 
L 141.1995 228.26443 
L 145.28875 220.755795 
L 149.378 213.824747 
L 153.46725 220.242384 
L 157.5565 213.824747 
L 161.64575 207.849706 
L 165.735 213.824747 
L 169.82425 219.414302 
L 173.9135 213.824747 
L 178.00275 219.075541 
L 182.092 213.824747 
L 186.18125 208.873999 
L 190.2705 213.824747 
L 194.35975 209.141607 
L 198.449 213.824747 
L 202.53825 218.267726 
L 206.6275 222.488557 
L 210.71675 218.050996 
L 214.806 213.824747 
L 218.89525 209.795068 
L 222.9845 213.824747 
L 227.07375 209.974165 
L 231.163 213.824747 
L 235.25225 217.511474 
L 239.3415 221.044588 
L 243.43075 217.360996 
L 247.52 220.755795 
L 251.60925 217.222319 
L 255.6985 220.489216 
L 263.877 213.824747 
L 272.0555 220.013182 
L 280.234 225.774829 
L 284.32325 228.50917 
L 288.4125 225.376493 
L 296.591 230.593411 
L 300.68025 227.576826 
L 308.85875 232.48526 
L 317.03725 237.100653 
L 321.1265 239.30654 
L 325.21575 236.425989 
L 333.39425 240.670354 
L 341.57275 244.682151 
L 349.75125 248.479985 
L 357.92975 252.080529 
L 366.10825 255.498768 
L 374.28675 258.748204 
L 386.5545 263.33223 
L 398.82225 267.600116 
L 411.09 271.583477 
L 423.35775 275.309847 
L 435.6255 278.803318 
L 447.89325 282.085064 
L 460.161 285.173767 
L 476.518 289.020075 
L 492.875 292.586652 
L 509.232 295.902943 
L 525.589 298.9944 
L 541.946 301.883139 
L 562.39225 305.23817 
L 582.8385 308.339033 
L 603.28475 311.213555 
L 623.731 313.885646 
L 648.2665 316.853833 
L 672.802 319.590733 
L 697.3375 322.122366 
L 697.3375 322.122366 
" clip-path="url(#p93e57a6f82)" style="fill: none; stroke: #9467bd; stroke-width: 2; stroke-linecap: square"/>
    <defs>
     <path id="md5863b7459" d="M 0 1.5 
C 0.397805 1.5 0.77937 1.341951 1.06066 1.06066 
C 1.341951 0.77937 1.5 0.397805 1.5 0 
C 1.5 -0.397805 1.341951 -0.77937 1.06066 -1.06066 
C 0.77937 -1.341951 0.397805 -1.5 0 -1.5 
C -0.397805 -1.5 -0.77937 -1.341951 -1.06066 -1.06066 
C -1.341951 -0.77937 -1.5 -0.397805 -1.5 0 
C -1.5 0.397805 -1.341951 0.77937 -1.06066 1.06066 
C -0.77937 1.341951 -0.397805 1.5 0 1.5 
z
" style="stroke: #9467bd"/>
    </defs>
    <g clip-path="url(#p93e57a6f82)">
     <use xlink:href="#md5863b7459" x="47.14675" y="387.100937" style="fill: #9467bd; stroke: #9467bd"/>
     <use xlink:href="#md5863b7459" x="63.50375" y="248.479985" style="fill: #9467bd; stroke: #9467bd"/>
     <use xlink:href="#md5863b7459" x="79.86075" y="194.571837" style="fill: #9467bd; stroke: #9467bd"/>
     <use xlink:href="#md5863b7459" x="96.21775" y="200.495809" style="fill: #9467bd; stroke: #9467bd"/>
     <use xlink:href="#md5863b7459" x="112.57475" y="224.017464" style="fill: #9467bd; stroke: #9467bd"/>
     <use xlink:href="#md5863b7459" x="128.93175" y="222.075994" style="fill: #9467bd; stroke: #9467bd"/>
     <use xlink:href="#md5863b7459" x="145.28875" y="220.755795" style="fill: #9467bd; stroke: #9467bd"/>
     <use xlink:href="#md5863b7459" x="161.64575" y="207.849706" style="fill: #9467bd; stroke: #9467bd"/>
     <use xlink:href="#md5863b7459" x="178.00275" y="219.075541" style="fill: #9467bd; stroke: #9467bd"/>
     <use xlink:href="#md5863b7459" x="194.35975" y="209.141607" style="fill: #9467bd; stroke: #9467bd"/>
     <use xlink:href="#md5863b7459" x="210.71675" y="218.050996" style="fill: #9467bd; stroke: #9467bd"/>
     <use xlink:href="#md5863b7459" x="227.07375" y="209.974165" style="fill: #9467bd; stroke: #9467bd"/>
     <use xlink:href="#md5863b7459" x="243.43075" y="217.360996" style="fill: #9467bd; stroke: #9467bd"/>
     <use xlink:href="#md5863b7459" x="259.78775" y="217.094109" style="fill: #9467bd; stroke: #9467bd"/>
     <use xlink:href="#md5863b7459" x="276.14475" y="222.944547" style="fill: #9467bd; stroke: #9467bd"/>
     <use xlink:href="#md5863b7459" x="292.50175" y="228.027713" style="fill: #9467bd; stroke: #9467bd"/>
     <use xlink:href="#md5863b7459" x="308.85875" y="232.48526" style="fill: #9467bd; stroke: #9467bd"/>
     <use xlink:href="#md5863b7459" x="325.21575" y="236.425989" style="fill: #9467bd; stroke: #9467bd"/>
     <use xlink:href="#md5863b7459" x="341.57275" y="244.682151" style="fill: #9467bd; stroke: #9467bd"/>
     <use xlink:href="#md5863b7459" x="357.92975" y="252.080529" style="fill: #9467bd; stroke: #9467bd"/>
     <use xlink:href="#md5863b7459" x="374.28675" y="258.748204" style="fill: #9467bd; stroke: #9467bd"/>
     <use xlink:href="#md5863b7459" x="390.64375" y="264.788332" style="fill: #9467bd; stroke: #9467bd"/>
     <use xlink:href="#md5863b7459" x="407.00075" y="270.285528" style="fill: #9467bd; stroke: #9467bd"/>
     <use xlink:href="#md5863b7459" x="423.35775" y="275.309847" style="fill: #9467bd; stroke: #9467bd"/>
     <use xlink:href="#md5863b7459" x="439.71475" y="279.919789" style="fill: #9467bd; stroke: #9467bd"/>
     <use xlink:href="#md5863b7459" x="456.07175" y="284.164587" style="fill: #9467bd; stroke: #9467bd"/>
     <use xlink:href="#md5863b7459" x="472.42875" y="288.085972" style="fill: #9467bd; stroke: #9467bd"/>
     <use xlink:href="#md5863b7459" x="488.78575" y="291.719548" style="fill: #9467bd; stroke: #9467bd"/>
     <use xlink:href="#md5863b7459" x="505.14275" y="295.095881" style="fill: #9467bd; stroke: #9467bd"/>
     <use xlink:href="#md5863b7459" x="521.49975" y="298.241353" style="fill: #9467bd; stroke: #9467bd"/>
     <use xlink:href="#md5863b7459" x="537.85675" y="301.17886" style="fill: #9467bd; stroke: #9467bd"/>
     <use xlink:href="#md5863b7459" x="554.21375" y="303.928366" style="fill: #9467bd; stroke: #9467bd"/>
     <use xlink:href="#md5863b7459" x="570.57075" y="306.507361" style="fill: #9467bd; stroke: #9467bd"/>
     <use xlink:href="#md5863b7459" x="586.92775" y="308.931228" style="fill: #9467bd; stroke: #9467bd"/>
     <use xlink:href="#md5863b7459" x="603.28475" y="311.213555" style="fill: #9467bd; stroke: #9467bd"/>
     <use xlink:href="#md5863b7459" x="619.64175" y="313.366388" style="fill: #9467bd; stroke: #9467bd"/>
     <use xlink:href="#md5863b7459" x="635.99875" y="315.400445" style="fill: #9467bd; stroke: #9467bd"/>
     <use xlink:href="#md5863b7459" x="652.35575" y="317.32529" style="fill: #9467bd; stroke: #9467bd"/>
     <use xlink:href="#md5863b7459" x="668.71275" y="319.14949" style="fill: #9467bd; stroke: #9467bd"/>
     <use xlink:href="#md5863b7459" x="685.06975" y="320.880737" style="fill: #9467bd; stroke: #9467bd"/>
    </g>
   </g>
   <g id="line2d_35">
    <path d="M 47.14675 387.100937 
L 55.32525 387.100937 
L 59.4145 300.462842 
L 63.50375 317.790461 
L 67.593 329.342207 
L 71.68225 337.593455 
L 75.7715 343.78189 
L 79.86075 348.595117 
L 83.95 352.445699 
L 88.03925 355.596176 
L 92.1285 329.342207 
L 96.21775 333.785187 
L 100.307 312.839713 
L 104.39625 294.686969 
L 108.4855 300.462842 
L 112.57475 305.559201 
L 116.664 290.836387 
L 120.75325 295.902943 
L 124.8425 300.462842 
L 128.93175 304.588466 
L 133.021 308.339033 
L 137.11025 311.763463 
L 141.1995 314.902525 
L 145.28875 317.790461 
L 149.378 320.456249 
L 153.46725 310.089297 
L 157.5565 300.462842 
L 161.64575 303.450363 
L 165.735 306.238715 
L 169.82425 308.847174 
L 173.9135 300.462842 
L 178.00275 303.088239 
L 182.092 305.559201 
L 186.18125 297.987468 
L 190.2705 290.836387 
L 194.35975 293.438132 
L 198.449 295.902943 
L 202.53825 289.355394 
L 206.6275 283.135223 
L 214.806 288.085972 
L 222.9845 292.586652 
L 231.163 296.695969 
L 235.25225 298.619479 
L 239.3415 293.243001 
L 247.52 296.997318 
L 255.6985 300.462842 
L 263.877 303.671661 
L 272.0555 306.651278 
L 280.234 309.425404 
L 288.4125 312.014588 
L 296.591 303.25762 
L 300.68025 299.087634 
L 308.85875 301.795736 
L 321.1265 305.559201 
L 333.39425 309.004626 
L 345.662 312.170693 
L 353.8405 314.142542 
L 357.92975 310.589373 
L 370.1975 313.458557 
L 382.46525 316.120329 
L 394.733 318.596397 
L 398.82225 319.383806 
L 407.00075 313.117845 
L 423.35775 316.299913 
L 427.447 317.053116 
L 435.6255 311.292604 
L 439.71475 312.074133 
L 443.804 309.303464 
L 447.89325 310.089297 
L 451.9825 307.39389 
L 456.07175 308.183069 
L 460.161 305.559201 
L 476.518 308.636247 
L 480.60725 309.369562 
L 484.6965 306.880479 
L 492.875 308.339033 
L 501.0535 303.55706 
L 513.32125 305.736465 
L 517.4105 303.450363 
L 525.589 304.868169 
L 529.67825 302.646996 
L 546.03525 305.393466 
L 550.1245 306.052397 
L 554.21375 303.928366 
L 574.66 307.127311 
L 595.10625 310.089297 
L 615.5525 312.839713 
L 640.088 315.891544 
L 664.6235 318.702441 
L 689.159 321.299853 
L 697.3375 322.122366 
L 697.3375 322.122366 
" clip-path="url(#p93e57a6f82)" style="fill: none; stroke: #8c564b; stroke-width: 2; stroke-linecap: square"/>
    <defs>
     <path id="m457d6f392a" d="M 0 1.5 
C 0.397805 1.5 0.77937 1.341951 1.06066 1.06066 
C 1.341951 0.77937 1.5 0.397805 1.5 0 
C 1.5 -0.397805 1.341951 -0.77937 1.06066 -1.06066 
C 0.77937 -1.341951 0.397805 -1.5 0 -1.5 
C -0.397805 -1.5 -0.77937 -1.341951 -1.06066 -1.06066 
C -1.341951 -0.77937 -1.5 -0.397805 -1.5 0 
C -1.5 0.397805 -1.341951 0.77937 -1.06066 1.06066 
C -0.77937 1.341951 -0.397805 1.5 0 1.5 
z
" style="stroke: #8c564b"/>
    </defs>
    <g clip-path="url(#p93e57a6f82)">
     <use xlink:href="#m457d6f392a" x="47.14675" y="387.100937" style="fill: #8c564b; stroke: #8c564b"/>
     <use xlink:href="#m457d6f392a" x="63.50375" y="317.790461" style="fill: #8c564b; stroke: #8c564b"/>
     <use xlink:href="#m457d6f392a" x="79.86075" y="348.595117" style="fill: #8c564b; stroke: #8c564b"/>
     <use xlink:href="#m457d6f392a" x="96.21775" y="333.785187" style="fill: #8c564b; stroke: #8c564b"/>
     <use xlink:href="#m457d6f392a" x="112.57475" y="305.559201" style="fill: #8c564b; stroke: #8c564b"/>
     <use xlink:href="#m457d6f392a" x="128.93175" y="304.588466" style="fill: #8c564b; stroke: #8c564b"/>
     <use xlink:href="#m457d6f392a" x="145.28875" y="317.790461" style="fill: #8c564b; stroke: #8c564b"/>
     <use xlink:href="#m457d6f392a" x="161.64575" y="303.450363" style="fill: #8c564b; stroke: #8c564b"/>
     <use xlink:href="#m457d6f392a" x="178.00275" y="303.088239" style="fill: #8c564b; stroke: #8c564b"/>
     <use xlink:href="#m457d6f392a" x="194.35975" y="293.438132" style="fill: #8c564b; stroke: #8c564b"/>
     <use xlink:href="#m457d6f392a" x="210.71675" y="285.670972" style="fill: #8c564b; stroke: #8c564b"/>
     <use xlink:href="#m457d6f392a" x="227.07375" y="294.686969" style="fill: #8c564b; stroke: #8c564b"/>
     <use xlink:href="#m457d6f392a" x="243.43075" y="295.158469" style="fill: #8c564b; stroke: #8c564b"/>
     <use xlink:href="#m457d6f392a" x="259.78775" y="302.097523" style="fill: #8c564b; stroke: #8c564b"/>
     <use xlink:href="#m457d6f392a" x="276.14475" y="308.062675" style="fill: #8c564b; stroke: #8c564b"/>
     <use xlink:href="#m457d6f392a" x="292.50175" y="307.564325" style="fill: #8c564b; stroke: #8c564b"/>
     <use xlink:href="#m457d6f392a" x="308.85875" y="301.795736" style="fill: #8c564b; stroke: #8c564b"/>
     <use xlink:href="#m457d6f392a" x="325.21575" y="306.740965" style="fill: #8c564b; stroke: #8c564b"/>
     <use xlink:href="#m457d6f392a" x="341.57275" y="311.144251" style="fill: #8c564b; stroke: #8c564b"/>
     <use xlink:href="#m457d6f392a" x="357.92975" y="310.589373" style="fill: #8c564b; stroke: #8c564b"/>
     <use xlink:href="#m457d6f392a" x="374.28675" y="314.367722" style="fill: #8c564b; stroke: #8c564b"/>
     <use xlink:href="#m457d6f392a" x="390.64375" y="317.790461" style="fill: #8c564b; stroke: #8c564b"/>
     <use xlink:href="#m457d6f392a" x="407.00075" y="313.117845" style="fill: #8c564b; stroke: #8c564b"/>
     <use xlink:href="#m457d6f392a" x="423.35775" y="316.299913" style="fill: #8c564b; stroke: #8c564b"/>
     <use xlink:href="#m457d6f392a" x="439.71475" y="312.074133" style="fill: #8c564b; stroke: #8c564b"/>
     <use xlink:href="#m457d6f392a" x="456.07175" y="308.183069" style="fill: #8c564b; stroke: #8c564b"/>
     <use xlink:href="#m457d6f392a" x="472.42875" y="307.888965" style="fill: #8c564b; stroke: #8c564b"/>
     <use xlink:href="#m457d6f392a" x="488.78575" y="307.616446" style="fill: #8c564b; stroke: #8c564b"/>
     <use xlink:href="#m457d6f392a" x="505.14275" y="304.296386" style="fill: #8c564b; stroke: #8c564b"/>
     <use xlink:href="#m457d6f392a" x="521.49975" y="304.165325" style="fill: #8c564b; stroke: #8c564b"/>
     <use xlink:href="#m457d6f392a" x="537.85675" y="304.042929" style="fill: #8c564b; stroke: #8c564b"/>
     <use xlink:href="#m457d6f392a" x="554.21375" y="303.928366" style="fill: #8c564b; stroke: #8c564b"/>
     <use xlink:href="#m457d6f392a" x="570.57075" y="306.507361" style="fill: #8c564b; stroke: #8c564b"/>
     <use xlink:href="#m457d6f392a" x="586.92775" y="308.931228" style="fill: #8c564b; stroke: #8c564b"/>
     <use xlink:href="#m457d6f392a" x="603.28475" y="311.213555" style="fill: #8c564b; stroke: #8c564b"/>
     <use xlink:href="#m457d6f392a" x="619.64175" y="313.366388" style="fill: #8c564b; stroke: #8c564b"/>
     <use xlink:href="#m457d6f392a" x="635.99875" y="315.400445" style="fill: #8c564b; stroke: #8c564b"/>
     <use xlink:href="#m457d6f392a" x="652.35575" y="317.32529" style="fill: #8c564b; stroke: #8c564b"/>
     <use xlink:href="#m457d6f392a" x="668.71275" y="319.14949" style="fill: #8c564b; stroke: #8c564b"/>
     <use xlink:href="#m457d6f392a" x="685.06975" y="320.880737" style="fill: #8c564b; stroke: #8c564b"/>
    </g>
   </g>
   <g id="line2d_36">
    <path d="M 47.14675 387.100937 
L 63.50375 387.100937 
L 67.593 329.342207 
L 71.68225 337.593455 
L 75.7715 343.78189 
L 79.86075 348.595117 
L 83.95 352.445699 
L 88.03925 355.596176 
L 92.1285 358.221572 
L 96.21775 360.443062 
L 100.307 362.347196 
L 104.39625 363.997445 
L 108.4855 343.78189 
L 112.57475 346.330069 
L 116.664 348.595117 
L 120.75325 332.382141 
L 124.8425 335.11808 
L 128.93175 321.09096 
L 133.021 324.091414 
L 137.11025 326.830958 
L 141.1995 329.342207 
L 145.28875 331.652557 
L 149.378 333.785187 
L 153.46725 335.759844 
L 157.5565 325.216584 
L 161.64575 315.400445 
L 165.735 317.790461 
L 169.82425 320.026283 
L 173.9135 322.122366 
L 182.092 325.944635 
L 190.2705 329.342207 
L 198.449 332.382141 
L 206.6275 335.11808 
L 210.71675 327.933458 
L 218.89525 330.685434 
L 222.9845 331.967604 
L 227.07375 325.491625 
L 231.163 319.297211 
L 239.3415 322.122366 
L 247.52 324.721509 
L 251.60925 325.944635 
L 255.6985 320.456249 
L 263.877 322.924571 
L 267.96625 317.790461 
L 276.14475 308.062675 
L 284.32325 310.741938 
L 288.4125 312.014588 
L 292.50175 307.564325 
L 296.591 308.847174 
L 304.7695 300.462842 
L 312.948 303.088239 
L 321.1265 305.559201 
L 325.21575 301.718467 
L 337.4835 305.27607 
L 345.662 307.487553 
L 353.8405 300.462842 
L 357.92975 301.588012 
L 366.10825 294.979419 
L 370.1975 296.130937 
L 374.28675 292.975599 
L 386.5545 296.337219 
L 390.64375 293.32794 
L 402.9115 296.524747 
L 415.17925 299.510775 
L 419.2685 296.695969 
L 423.35775 297.668065 
L 431.53625 292.255023 
L 443.804 295.158469 
L 460.161 298.764056 
L 468.3395 300.462842 
L 472.42875 297.987468 
L 488.78575 301.257687 
L 505.14275 304.296386 
L 521.49975 307.127311 
L 541.946 310.404919 
L 546.03525 308.210965 
L 554.21375 309.473204 
L 558.303 307.338882 
L 578.74925 310.383235 
L 595.10625 312.656352 
L 599.1955 310.655559 
L 619.64175 313.366388 
L 644.17725 316.375962 
L 668.71275 319.14949 
L 693.24825 321.713696 
L 697.3375 322.122366 
L 697.3375 322.122366 
" clip-path="url(#p93e57a6f82)" style="fill: none; stroke: #e377c2; stroke-width: 2; stroke-linecap: square"/>
    <defs>
     <path id="mc1e72786cb" d="M 0 1.5 
C 0.397805 1.5 0.77937 1.341951 1.06066 1.06066 
C 1.341951 0.77937 1.5 0.397805 1.5 0 
C 1.5 -0.397805 1.341951 -0.77937 1.06066 -1.06066 
C 0.77937 -1.341951 0.397805 -1.5 0 -1.5 
C -0.397805 -1.5 -0.77937 -1.341951 -1.06066 -1.06066 
C -1.341951 -0.77937 -1.5 -0.397805 -1.5 0 
C -1.5 0.397805 -1.341951 0.77937 -1.06066 1.06066 
C -0.77937 1.341951 -0.397805 1.5 0 1.5 
z
" style="stroke: #e377c2"/>
    </defs>
    <g clip-path="url(#p93e57a6f82)">
     <use xlink:href="#mc1e72786cb" x="47.14675" y="387.100937" style="fill: #e377c2; stroke: #e377c2"/>
     <use xlink:href="#mc1e72786cb" x="63.50375" y="387.100937" style="fill: #e377c2; stroke: #e377c2"/>
     <use xlink:href="#mc1e72786cb" x="79.86075" y="348.595117" style="fill: #e377c2; stroke: #e377c2"/>
     <use xlink:href="#mc1e72786cb" x="96.21775" y="360.443062" style="fill: #e377c2; stroke: #e377c2"/>
     <use xlink:href="#mc1e72786cb" x="112.57475" y="346.330069" style="fill: #e377c2; stroke: #e377c2"/>
     <use xlink:href="#mc1e72786cb" x="128.93175" y="321.09096" style="fill: #e377c2; stroke: #e377c2"/>
     <use xlink:href="#mc1e72786cb" x="145.28875" y="331.652557" style="fill: #e377c2; stroke: #e377c2"/>
     <use xlink:href="#mc1e72786cb" x="161.64575" y="315.400445" style="fill: #e377c2; stroke: #e377c2"/>
     <use xlink:href="#mc1e72786cb" x="178.00275" y="324.091414" style="fill: #e377c2; stroke: #e377c2"/>
     <use xlink:href="#mc1e72786cb" x="194.35975" y="330.903254" style="fill: #e377c2; stroke: #e377c2"/>
     <use xlink:href="#mc1e72786cb" x="210.71675" y="327.933458" style="fill: #e377c2; stroke: #e377c2"/>
     <use xlink:href="#mc1e72786cb" x="227.07375" y="325.491625" style="fill: #e377c2; stroke: #e377c2"/>
     <use xlink:href="#mc1e72786cb" x="243.43075" y="323.448459" style="fill: #e377c2; stroke: #e377c2"/>
     <use xlink:href="#mc1e72786cb" x="259.78775" y="321.713696" style="fill: #e377c2; stroke: #e377c2"/>
     <use xlink:href="#mc1e72786cb" x="276.14475" y="308.062675" style="fill: #e377c2; stroke: #e377c2"/>
     <use xlink:href="#mc1e72786cb" x="292.50175" y="307.564325" style="fill: #e377c2; stroke: #e377c2"/>
     <use xlink:href="#mc1e72786cb" x="308.85875" y="301.795736" style="fill: #e377c2; stroke: #e377c2"/>
     <use xlink:href="#mc1e72786cb" x="325.21575" y="301.718467" style="fill: #e377c2; stroke: #e377c2"/>
     <use xlink:href="#mc1e72786cb" x="341.57275" y="306.396958" style="fill: #e377c2; stroke: #e377c2"/>
     <use xlink:href="#mc1e72786cb" x="357.92975" y="301.588012" style="fill: #e377c2; stroke: #e377c2"/>
     <use xlink:href="#mc1e72786cb" x="374.28675" y="292.975599" style="fill: #e377c2; stroke: #e377c2"/>
     <use xlink:href="#mc1e72786cb" x="390.64375" y="293.32794" style="fill: #e377c2; stroke: #e377c2"/>
     <use xlink:href="#mc1e72786cb" x="407.00075" y="297.542457" style="fill: #e377c2; stroke: #e377c2"/>
     <use xlink:href="#mc1e72786cb" x="423.35775" y="297.668065" style="fill: #e377c2; stroke: #e377c2"/>
     <use xlink:href="#mc1e72786cb" x="439.71475" y="294.210609" style="fill: #e377c2; stroke: #e377c2"/>
     <use xlink:href="#mc1e72786cb" x="456.07175" y="297.889433" style="fill: #e377c2; stroke: #e377c2"/>
     <use xlink:href="#mc1e72786cb" x="472.42875" y="297.987468" style="fill: #e377c2; stroke: #e377c2"/>
     <use xlink:href="#mc1e72786cb" x="488.78575" y="301.257687" style="fill: #e377c2; stroke: #e377c2"/>
     <use xlink:href="#mc1e72786cb" x="505.14275" y="304.296386" style="fill: #e377c2; stroke: #e377c2"/>
     <use xlink:href="#mc1e72786cb" x="521.49975" y="307.127311" style="fill: #e377c2; stroke: #e377c2"/>
     <use xlink:href="#mc1e72786cb" x="537.85675" y="309.771067" style="fill: #e377c2; stroke: #e377c2"/>
     <use xlink:href="#mc1e72786cb" x="554.21375" y="309.473204" style="fill: #e377c2; stroke: #e377c2"/>
     <use xlink:href="#mc1e72786cb" x="570.57075" y="309.193813" style="fill: #e377c2; stroke: #e377c2"/>
     <use xlink:href="#mc1e72786cb" x="586.92775" y="311.536885" style="fill: #e377c2; stroke: #e377c2"/>
     <use xlink:href="#mc1e72786cb" x="603.28475" y="311.213555" style="fill: #e377c2; stroke: #e377c2"/>
     <use xlink:href="#mc1e72786cb" x="619.64175" y="313.366388" style="fill: #e377c2; stroke: #e377c2"/>
     <use xlink:href="#mc1e72786cb" x="635.99875" y="315.400445" style="fill: #e377c2; stroke: #e377c2"/>
     <use xlink:href="#mc1e72786cb" x="652.35575" y="317.32529" style="fill: #e377c2; stroke: #e377c2"/>
     <use xlink:href="#mc1e72786cb" x="668.71275" y="319.14949" style="fill: #e377c2; stroke: #e377c2"/>
     <use xlink:href="#mc1e72786cb" x="685.06975" y="320.880737" style="fill: #e377c2; stroke: #e377c2"/>
    </g>
   </g>
   <g id="line2d_37">
    <path d="M 47.14675 387.100937 
L 51.236 213.824747 
L 55.32525 156.066017 
L 59.4145 127.186652 
L 63.50375 109.859033 
L 67.593 98.307287 
L 71.68225 90.05604 
L 75.7715 127.186652 
L 79.86075 117.560197 
L 83.95 144.514271 
L 88.03925 135.062842 
L 92.1285 127.186652 
L 96.21775 120.522183 
L 100.307 139.563523 
L 104.39625 156.066017 
L 108.4855 170.505699 
L 112.57475 162.861162 
L 116.664 175.318927 
L 120.75325 168.22575 
L 124.8425 179.169509 
L 128.93175 172.568511 
L 133.021 166.567604 
L 137.11025 161.088515 
L 141.1995 156.066017 
L 145.28875 151.445318 
L 149.378 147.180058 
L 153.46725 143.230743 
L 157.5565 151.940393 
L 161.64575 160.049378 
L 165.735 156.066017 
L 169.82425 163.518756 
L 173.9135 159.675938 
L 178.00275 156.066017 
L 182.092 152.668445 
L 186.18125 149.465019 
L 190.2705 156.066017 
L 194.35975 152.943923 
L 198.449 149.986151 
L 202.53825 147.180058 
L 206.6275 144.514271 
L 210.71675 150.431019 
L 214.806 156.066017 
L 218.89525 161.438922 
L 222.9845 166.567604 
L 227.07375 163.767181 
L 231.163 168.622263 
L 235.25225 173.270745 
L 239.3415 170.505699 
L 243.43075 174.92601 
L 247.52 179.169509 
L 255.6985 187.166872 
L 263.877 194.571837 
L 272.0555 201.447876 
L 280.234 207.849706 
L 288.4125 213.824747 
L 296.591 219.414302 
L 304.7695 224.654509 
L 312.948 229.577128 
L 321.1265 234.210181 
L 329.305 238.578489 
L 337.4835 242.704112 
L 345.662 246.606729 
L 353.8405 250.303945 
L 362.019 253.81156 
L 370.1975 257.143795 
L 382.46525 261.841041 
L 394.733 266.210572 
L 407.00075 270.285528 
L 419.2685 274.094726 
L 431.53625 277.663344 
L 443.804 281.013474 
L 456.07175 284.164587 
L 468.3395 287.133905 
L 484.6965 290.836387 
L 501.0535 294.274407 
L 517.4105 297.475322 
L 533.7675 300.462842 
L 550.1245 303.25762 
L 570.57075 306.507361 
L 591.017 309.514584 
L 611.46325 312.30546 
L 635.99875 315.400445 
L 660.53425 318.249471 
L 685.06975 320.880737 
L 697.3375 322.122366 
L 697.3375 322.122366 
" clip-path="url(#p93e57a6f82)" style="fill: none; stroke: #17becf; stroke-width: 2; stroke-linecap: square"/>
    <defs>
     <path id="ma486bdf435" d="M 0 1.5 
C 0.397805 1.5 0.77937 1.341951 1.06066 1.06066 
C 1.341951 0.77937 1.5 0.397805 1.5 0 
C 1.5 -0.397805 1.341951 -0.77937 1.06066 -1.06066 
C 0.77937 -1.341951 0.397805 -1.5 0 -1.5 
C -0.397805 -1.5 -0.77937 -1.341951 -1.06066 -1.06066 
C -1.341951 -0.77937 -1.5 -0.397805 -1.5 0 
C -1.5 0.397805 -1.341951 0.77937 -1.06066 1.06066 
C -0.77937 1.341951 -0.397805 1.5 0 1.5 
z
" style="stroke: #17becf"/>
    </defs>
    <g clip-path="url(#p93e57a6f82)">
     <use xlink:href="#ma486bdf435" x="47.14675" y="387.100937" style="fill: #17becf; stroke: #17becf"/>
     <use xlink:href="#ma486bdf435" x="63.50375" y="109.859033" style="fill: #17becf; stroke: #17becf"/>
     <use xlink:href="#ma486bdf435" x="79.86075" y="117.560197" style="fill: #17becf; stroke: #17becf"/>
     <use xlink:href="#ma486bdf435" x="96.21775" y="120.522183" style="fill: #17becf; stroke: #17becf"/>
     <use xlink:href="#ma486bdf435" x="112.57475" y="162.861162" style="fill: #17becf; stroke: #17becf"/>
     <use xlink:href="#ma486bdf435" x="128.93175" y="172.568511" style="fill: #17becf; stroke: #17becf"/>
     <use xlink:href="#ma486bdf435" x="145.28875" y="151.445318" style="fill: #17becf; stroke: #17becf"/>
     <use xlink:href="#ma486bdf435" x="161.64575" y="160.049378" style="fill: #17becf; stroke: #17becf"/>
     <use xlink:href="#ma486bdf435" x="178.00275" y="156.066017" style="fill: #17becf; stroke: #17becf"/>
     <use xlink:href="#ma486bdf435" x="194.35975" y="152.943923" style="fill: #17becf; stroke: #17becf"/>
     <use xlink:href="#ma486bdf435" x="210.71675" y="150.431019" style="fill: #17becf; stroke: #17becf"/>
     <use xlink:href="#ma486bdf435" x="227.07375" y="163.767181" style="fill: #17becf; stroke: #17becf"/>
     <use xlink:href="#ma486bdf435" x="243.43075" y="174.92601" style="fill: #17becf; stroke: #17becf"/>
     <use xlink:href="#ma486bdf435" x="259.78775" y="190.939212" style="fill: #17becf; stroke: #17becf"/>
     <use xlink:href="#ma486bdf435" x="276.14475" y="204.704948" style="fill: #17becf; stroke: #17becf"/>
     <use xlink:href="#ma486bdf435" x="292.50175" y="216.66534" style="fill: #17becf; stroke: #17becf"/>
     <use xlink:href="#ma486bdf435" x="308.85875" y="227.153685" style="fill: #17becf; stroke: #17becf"/>
     <use xlink:href="#ma486bdf435" x="325.21575" y="236.425989" style="fill: #17becf; stroke: #17becf"/>
     <use xlink:href="#ma486bdf435" x="341.57275" y="244.682151" style="fill: #17becf; stroke: #17becf"/>
     <use xlink:href="#ma486bdf435" x="357.92975" y="252.080529" style="fill: #17becf; stroke: #17becf"/>
     <use xlink:href="#ma486bdf435" x="374.28675" y="258.748204" style="fill: #17becf; stroke: #17becf"/>
     <use xlink:href="#ma486bdf435" x="390.64375" y="264.788332" style="fill: #17becf; stroke: #17becf"/>
     <use xlink:href="#ma486bdf435" x="407.00075" y="270.285528" style="fill: #17becf; stroke: #17becf"/>
     <use xlink:href="#ma486bdf435" x="423.35775" y="275.309847" style="fill: #17becf; stroke: #17becf"/>
     <use xlink:href="#ma486bdf435" x="439.71475" y="279.919789" style="fill: #17becf; stroke: #17becf"/>
     <use xlink:href="#ma486bdf435" x="456.07175" y="284.164587" style="fill: #17becf; stroke: #17becf"/>
     <use xlink:href="#ma486bdf435" x="472.42875" y="288.085972" style="fill: #17becf; stroke: #17becf"/>
     <use xlink:href="#ma486bdf435" x="488.78575" y="291.719548" style="fill: #17becf; stroke: #17becf"/>
     <use xlink:href="#ma486bdf435" x="505.14275" y="295.095881" style="fill: #17becf; stroke: #17becf"/>
     <use xlink:href="#ma486bdf435" x="521.49975" y="298.241353" style="fill: #17becf; stroke: #17becf"/>
     <use xlink:href="#ma486bdf435" x="537.85675" y="301.17886" style="fill: #17becf; stroke: #17becf"/>
     <use xlink:href="#ma486bdf435" x="554.21375" y="303.928366" style="fill: #17becf; stroke: #17becf"/>
     <use xlink:href="#ma486bdf435" x="570.57075" y="306.507361" style="fill: #17becf; stroke: #17becf"/>
     <use xlink:href="#ma486bdf435" x="586.92775" y="308.931228" style="fill: #17becf; stroke: #17becf"/>
     <use xlink:href="#ma486bdf435" x="603.28475" y="311.213555" style="fill: #17becf; stroke: #17becf"/>
     <use xlink:href="#ma486bdf435" x="619.64175" y="313.366388" style="fill: #17becf; stroke: #17becf"/>
     <use xlink:href="#ma486bdf435" x="635.99875" y="315.400445" style="fill: #17becf; stroke: #17becf"/>
     <use xlink:href="#ma486bdf435" x="652.35575" y="317.32529" style="fill: #17becf; stroke: #17becf"/>
     <use xlink:href="#ma486bdf435" x="668.71275" y="319.14949" style="fill: #17becf; stroke: #17becf"/>
     <use xlink:href="#ma486bdf435" x="685.06975" y="320.880737" style="fill: #17becf; stroke: #17becf"/>
    </g>
   </g>
   <g id="line2d_38">
    <path d="M 47.14675 40.548557 
L 165.735 40.548557 
L 169.82425 51.727666 
L 173.9135 62.20808 
L 178.00275 72.053318 
L 182.092 81.319425 
L 186.18125 90.05604 
L 190.2705 98.307287 
L 194.35975 106.112521 
L 198.449 113.506953 
L 202.53825 120.522183 
L 206.6275 127.186652 
L 210.71675 133.526025 
L 214.806 139.563523 
L 218.89525 145.320207 
L 222.9845 150.815223 
L 227.07375 156.066017 
L 231.163 161.088515 
L 235.25225 165.89729 
L 239.3415 170.505699 
L 243.43075 174.92601 
L 247.52 179.169509 
L 255.6985 187.166872 
L 263.877 194.571837 
L 272.0555 201.447876 
L 280.234 207.849706 
L 288.4125 213.824747 
L 296.591 219.414302 
L 304.7695 224.654509 
L 312.948 229.577128 
L 321.1265 234.210181 
L 329.305 238.578489 
L 337.4835 242.704112 
L 345.662 246.606729 
L 353.8405 250.303945 
L 362.019 253.81156 
L 370.1975 257.143795 
L 382.46525 261.841041 
L 394.733 266.210572 
L 407.00075 270.285528 
L 419.2685 274.094726 
L 431.53625 277.663344 
L 443.804 281.013474 
L 456.07175 284.164587 
L 468.3395 287.133905 
L 484.6965 290.836387 
L 501.0535 294.274407 
L 517.4105 297.475322 
L 533.7675 300.462842 
L 550.1245 303.25762 
L 570.57075 306.507361 
L 591.017 309.514584 
L 611.46325 312.30546 
L 635.99875 315.400445 
L 660.53425 318.249471 
L 685.06975 320.880737 
L 697.3375 322.122366 
L 697.3375 322.122366 
" clip-path="url(#p93e57a6f82)" style="fill: none; stroke: #e31818; stroke-width: 2.5; stroke-linecap: square"/>
    <defs>
     <path id="meed557aa28" d="M 0 1.5 
C 0.397805 1.5 0.77937 1.341951 1.06066 1.06066 
C 1.341951 0.77937 1.5 0.397805 1.5 0 
C 1.5 -0.397805 1.341951 -0.77937 1.06066 -1.06066 
C 0.77937 -1.341951 0.397805 -1.5 0 -1.5 
C -0.397805 -1.5 -0.77937 -1.341951 -1.06066 -1.06066 
C -1.341951 -0.77937 -1.5 -0.397805 -1.5 0 
C -1.5 0.397805 -1.341951 0.77937 -1.06066 1.06066 
C -0.77937 1.341951 -0.397805 1.5 0 1.5 
z
" style="stroke: #e31818"/>
    </defs>
    <g clip-path="url(#p93e57a6f82)">
     <use xlink:href="#meed557aa28" x="47.14675" y="40.548557" style="fill: #e31818; stroke: #e31818"/>
     <use xlink:href="#meed557aa28" x="63.50375" y="40.548557" style="fill: #e31818; stroke: #e31818"/>
     <use xlink:href="#meed557aa28" x="79.86075" y="40.548557" style="fill: #e31818; stroke: #e31818"/>
     <use xlink:href="#meed557aa28" x="96.21775" y="40.548557" style="fill: #e31818; stroke: #e31818"/>
     <use xlink:href="#meed557aa28" x="112.57475" y="40.548557" style="fill: #e31818; stroke: #e31818"/>
     <use xlink:href="#meed557aa28" x="128.93175" y="40.548557" style="fill: #e31818; stroke: #e31818"/>
     <use xlink:href="#meed557aa28" x="145.28875" y="40.548557" style="fill: #e31818; stroke: #e31818"/>
     <use xlink:href="#meed557aa28" x="161.64575" y="40.548557" style="fill: #e31818; stroke: #e31818"/>
     <use xlink:href="#meed557aa28" x="178.00275" y="72.053318" style="fill: #e31818; stroke: #e31818"/>
     <use xlink:href="#meed557aa28" x="194.35975" y="106.112521" style="fill: #e31818; stroke: #e31818"/>
     <use xlink:href="#meed557aa28" x="210.71675" y="133.526025" style="fill: #e31818; stroke: #e31818"/>
     <use xlink:href="#meed557aa28" x="227.07375" y="156.066017" style="fill: #e31818; stroke: #e31818"/>
     <use xlink:href="#meed557aa28" x="243.43075" y="174.92601" style="fill: #e31818; stroke: #e31818"/>
     <use xlink:href="#meed557aa28" x="259.78775" y="190.939212" style="fill: #e31818; stroke: #e31818"/>
     <use xlink:href="#meed557aa28" x="276.14475" y="204.704948" style="fill: #e31818; stroke: #e31818"/>
     <use xlink:href="#meed557aa28" x="292.50175" y="216.66534" style="fill: #e31818; stroke: #e31818"/>
     <use xlink:href="#meed557aa28" x="308.85875" y="227.153685" style="fill: #e31818; stroke: #e31818"/>
     <use xlink:href="#meed557aa28" x="325.21575" y="236.425989" style="fill: #e31818; stroke: #e31818"/>
     <use xlink:href="#meed557aa28" x="341.57275" y="244.682151" style="fill: #e31818; stroke: #e31818"/>
     <use xlink:href="#meed557aa28" x="357.92975" y="252.080529" style="fill: #e31818; stroke: #e31818"/>
     <use xlink:href="#meed557aa28" x="374.28675" y="258.748204" style="fill: #e31818; stroke: #e31818"/>
     <use xlink:href="#meed557aa28" x="390.64375" y="264.788332" style="fill: #e31818; stroke: #e31818"/>
     <use xlink:href="#meed557aa28" x="407.00075" y="270.285528" style="fill: #e31818; stroke: #e31818"/>
     <use xlink:href="#meed557aa28" x="423.35775" y="275.309847" style="fill: #e31818; stroke: #e31818"/>
     <use xlink:href="#meed557aa28" x="439.71475" y="279.919789" style="fill: #e31818; stroke: #e31818"/>
     <use xlink:href="#meed557aa28" x="456.07175" y="284.164587" style="fill: #e31818; stroke: #e31818"/>
     <use xlink:href="#meed557aa28" x="472.42875" y="288.085972" style="fill: #e31818; stroke: #e31818"/>
     <use xlink:href="#meed557aa28" x="488.78575" y="291.719548" style="fill: #e31818; stroke: #e31818"/>
     <use xlink:href="#meed557aa28" x="505.14275" y="295.095881" style="fill: #e31818; stroke: #e31818"/>
     <use xlink:href="#meed557aa28" x="521.49975" y="298.241353" style="fill: #e31818; stroke: #e31818"/>
     <use xlink:href="#meed557aa28" x="537.85675" y="301.17886" style="fill: #e31818; stroke: #e31818"/>
     <use xlink:href="#meed557aa28" x="554.21375" y="303.928366" style="fill: #e31818; stroke: #e31818"/>
     <use xlink:href="#meed557aa28" x="570.57075" y="306.507361" style="fill: #e31818; stroke: #e31818"/>
     <use xlink:href="#meed557aa28" x="586.92775" y="308.931228" style="fill: #e31818; stroke: #e31818"/>
     <use xlink:href="#meed557aa28" x="603.28475" y="311.213555" style="fill: #e31818; stroke: #e31818"/>
     <use xlink:href="#meed557aa28" x="619.64175" y="313.366388" style="fill: #e31818; stroke: #e31818"/>
     <use xlink:href="#meed557aa28" x="635.99875" y="315.400445" style="fill: #e31818; stroke: #e31818"/>
     <use xlink:href="#meed557aa28" x="652.35575" y="317.32529" style="fill: #e31818; stroke: #e31818"/>
     <use xlink:href="#meed557aa28" x="668.71275" y="319.14949" style="fill: #e31818; stroke: #e31818"/>
     <use xlink:href="#meed557aa28" x="685.06975" y="320.880737" style="fill: #e31818; stroke: #e31818"/>
    </g>
   </g>
   <g id="patch_3">
    <path d="M 43.0575 387.100937 
L 43.0575 23.220937 
" style="fill: none; stroke: #000000; stroke-width: 0.8; stroke-linejoin: miter; stroke-linecap: square"/>
   </g>
   <g id="patch_4">
    <path d="M 697.3375 387.100937 
L 697.3375 23.220937 
" style="fill: none; stroke: #000000; stroke-width: 0.8; stroke-linejoin: miter; stroke-linecap: square"/>
   </g>
   <g id="patch_5">
    <path d="M 43.0575 387.100937 
L 697.3375 387.100937 
" style="fill: none; stroke: #000000; stroke-width: 0.8; stroke-linejoin: miter; stroke-linecap: square"/>
   </g>
   <g id="patch_6">
    <path d="M 43.0575 23.220937 
L 697.3375 23.220937 
" style="fill: none; stroke: #000000; stroke-width: 0.8; stroke-linejoin: miter; stroke-linecap: square"/>
   </g>
   <g id="text_18">
    <!-- Precision vs k - wine -->
    <g transform="translate(301.340469 17.220937) scale(0.14 -0.14)">
     <defs>
      <path id="Arial-BoldMT-76" d="M 1372 0 
L 34 3319 
L 956 3319 
L 1581 1625 
L 1763 1059 
Q 1834 1275 1853 1344 
Q 1897 1484 1947 1625 
L 2578 3319 
L 3481 3319 
L 2163 0 
L 1372 0 
z
" transform="scale(0.015625)"/>
      <path id="Arial-BoldMT-2d" d="M 359 1222 
L 359 2100 
L 2084 2100 
L 2084 1222 
L 359 1222 
z
" transform="scale(0.015625)"/>
      <path id="Arial-BoldMT-77" d="M 1078 0 
L 28 3319 
L 881 3319 
L 1503 1144 
L 2075 3319 
L 2922 3319 
L 3475 1144 
L 4109 3319 
L 4975 3319 
L 3909 0 
L 3066 0 
L 2494 2134 
L 1931 0 
L 1078 0 
z
" transform="scale(0.015625)"/>
     </defs>
     <use xlink:href="#Arial-BoldMT-50"/>
     <use xlink:href="#Arial-BoldMT-72" transform="translate(66.699219 0)"/>
     <use xlink:href="#Arial-BoldMT-65" transform="translate(105.615234 0)"/>
     <use xlink:href="#Arial-BoldMT-63" transform="translate(161.230469 0)"/>
     <use xlink:href="#Arial-BoldMT-69" transform="translate(216.845703 0)"/>
     <use xlink:href="#Arial-BoldMT-73" transform="translate(244.628906 0)"/>
     <use xlink:href="#Arial-BoldMT-69" transform="translate(300.244141 0)"/>
     <use xlink:href="#Arial-BoldMT-6f" transform="translate(328.027344 0)"/>
     <use xlink:href="#Arial-BoldMT-6e" transform="translate(389.111328 0)"/>
     <use xlink:href="#Arial-BoldMT-20" transform="translate(450.195312 0)"/>
     <use xlink:href="#Arial-BoldMT-76" transform="translate(477.978516 0)"/>
     <use xlink:href="#Arial-BoldMT-73" transform="translate(533.59375 0)"/>
     <use xlink:href="#Arial-BoldMT-20" transform="translate(589.208984 0)"/>
     <use xlink:href="#Arial-BoldMT-6b" transform="translate(616.992188 0)"/>
     <use xlink:href="#Arial-BoldMT-20" transform="translate(672.607422 0)"/>
     <use xlink:href="#Arial-BoldMT-2d" transform="translate(700.390625 0)"/>
     <use xlink:href="#Arial-BoldMT-20" transform="translate(733.691406 0)"/>
     <use xlink:href="#Arial-BoldMT-77" transform="translate(761.474609 0)"/>
     <use xlink:href="#Arial-BoldMT-69" transform="translate(839.257812 0)"/>
     <use xlink:href="#Arial-BoldMT-6e" transform="translate(867.041016 0)"/>
     <use xlink:href="#Arial-BoldMT-65" transform="translate(928.125 0)"/>
    </g>
   </g>
   <g id="legend_1">
    <g id="patch_7">
     <path d="M 625.240469 132.267187 
L 691.0375 132.267187 
Q 692.8375 132.267187 692.8375 130.467187 
L 692.8375 29.520938 
Q 692.8375 27.720937 691.0375 27.720937 
L 625.240469 27.720937 
Q 623.440469 27.720937 623.440469 29.520938 
L 623.440469 130.467187 
Q 623.440469 132.267187 625.240469 132.267187 
z
" style="fill: #ffffff; opacity: 0.8; stroke: #cccccc; stroke-linejoin: miter"/>
    </g>
    <g id="line2d_39">
     <path d="M 627.040469 34.612969 
L 636.040469 34.612969 
L 645.040469 34.612969 
" style="fill: none; stroke: #1f77b4; stroke-width: 2; stroke-linecap: square"/>
     <g>
      <use xlink:href="#m4df69d67f4" x="636.040469" y="34.612969" style="fill: #1f77b4; stroke: #1f77b4"/>
     </g>
    </g>
    <g id="text_19">
     <!-- ADFNR -->
     <g transform="translate(652.240469 37.762969) scale(0.09 -0.09)">
      <defs>
       <path id="ArialMT-41" d="M -9 0 
L 1750 4581 
L 2403 4581 
L 4278 0 
L 3588 0 
L 3053 1388 
L 1138 1388 
L 634 0 
L -9 0 
z
M 1313 1881 
L 2866 1881 
L 2388 3150 
Q 2169 3728 2063 4100 
Q 1975 3659 1816 3225 
L 1313 1881 
z
" transform="scale(0.015625)"/>
       <path id="ArialMT-44" d="M 494 0 
L 494 4581 
L 2072 4581 
Q 2606 4581 2888 4516 
Q 3281 4425 3559 4188 
Q 3922 3881 4101 3404 
Q 4281 2928 4281 2316 
Q 4281 1794 4159 1391 
Q 4038 988 3847 723 
Q 3656 459 3429 307 
Q 3203 156 2883 78 
Q 2563 0 2147 0 
L 494 0 
z
M 1100 541 
L 2078 541 
Q 2531 541 2789 625 
Q 3047 709 3200 863 
Q 3416 1078 3536 1442 
Q 3656 1806 3656 2325 
Q 3656 3044 3420 3430 
Q 3184 3816 2847 3947 
Q 2603 4041 2063 4041 
L 1100 4041 
L 1100 541 
z
" transform="scale(0.015625)"/>
       <path id="ArialMT-46" d="M 525 0 
L 525 4581 
L 3616 4581 
L 3616 4041 
L 1131 4041 
L 1131 2622 
L 3281 2622 
L 3281 2081 
L 1131 2081 
L 1131 0 
L 525 0 
z
" transform="scale(0.015625)"/>
       <path id="ArialMT-4e" d="M 488 0 
L 488 4581 
L 1109 4581 
L 3516 984 
L 3516 4581 
L 4097 4581 
L 4097 0 
L 3475 0 
L 1069 3600 
L 1069 0 
L 488 0 
z
" transform="scale(0.015625)"/>
       <path id="ArialMT-52" d="M 503 0 
L 503 4581 
L 2534 4581 
Q 3147 4581 3465 4457 
Q 3784 4334 3975 4021 
Q 4166 3709 4166 3331 
Q 4166 2844 3850 2509 
Q 3534 2175 2875 2084 
Q 3116 1969 3241 1856 
Q 3506 1613 3744 1247 
L 4541 0 
L 3778 0 
L 3172 953 
Q 2906 1366 2734 1584 
Q 2563 1803 2427 1890 
Q 2291 1978 2150 2013 
Q 2047 2034 1813 2034 
L 1109 2034 
L 1109 0 
L 503 0 
z
M 1109 2559 
L 2413 2559 
Q 2828 2559 3062 2645 
Q 3297 2731 3419 2920 
Q 3541 3109 3541 3331 
Q 3541 3656 3305 3865 
Q 3069 4075 2559 4075 
L 1109 4075 
L 1109 2559 
z
" transform="scale(0.015625)"/>
      </defs>
      <use xlink:href="#ArialMT-41"/>
      <use xlink:href="#ArialMT-44" transform="translate(66.699219 0)"/>
      <use xlink:href="#ArialMT-46" transform="translate(138.916016 0)"/>
      <use xlink:href="#ArialMT-4e" transform="translate(200 0)"/>
      <use xlink:href="#ArialMT-52" transform="translate(272.216797 0)"/>
     </g>
    </g>
    <g id="line2d_40">
     <path d="M 627.040469 47.34375 
L 636.040469 47.34375 
L 645.040469 47.34375 
" style="fill: none; stroke: #ff7f0e; stroke-width: 2; stroke-linecap: square"/>
     <g>
      <use xlink:href="#m23f7094e37" x="636.040469" y="47.34375" style="fill: #ff7f0e; stroke: #ff7f0e"/>
     </g>
    </g>
    <g id="text_20">
     <!-- DASOD -->
     <g transform="translate(652.240469 50.49375) scale(0.09 -0.09)">
      <defs>
       <path id="ArialMT-53" d="M 288 1472 
L 859 1522 
Q 900 1178 1048 958 
Q 1197 738 1509 602 
Q 1822 466 2213 466 
Q 2559 466 2825 569 
Q 3091 672 3220 851 
Q 3350 1031 3350 1244 
Q 3350 1459 3225 1620 
Q 3100 1781 2813 1891 
Q 2628 1963 1997 2114 
Q 1366 2266 1113 2400 
Q 784 2572 623 2826 
Q 463 3081 463 3397 
Q 463 3744 659 4045 
Q 856 4347 1234 4503 
Q 1613 4659 2075 4659 
Q 2584 4659 2973 4495 
Q 3363 4331 3572 4012 
Q 3781 3694 3797 3291 
L 3216 3247 
Q 3169 3681 2898 3903 
Q 2628 4125 2100 4125 
Q 1550 4125 1298 3923 
Q 1047 3722 1047 3438 
Q 1047 3191 1225 3031 
Q 1400 2872 2139 2705 
Q 2878 2538 3153 2413 
Q 3553 2228 3743 1945 
Q 3934 1663 3934 1294 
Q 3934 928 3725 604 
Q 3516 281 3123 101 
Q 2731 -78 2241 -78 
Q 1619 -78 1198 103 
Q 778 284 539 648 
Q 300 1013 288 1472 
z
" transform="scale(0.015625)"/>
       <path id="ArialMT-4f" d="M 309 2231 
Q 309 3372 921 4017 
Q 1534 4663 2503 4663 
Q 3138 4663 3647 4359 
Q 4156 4056 4423 3514 
Q 4691 2972 4691 2284 
Q 4691 1588 4409 1038 
Q 4128 488 3612 205 
Q 3097 -78 2500 -78 
Q 1853 -78 1343 234 
Q 834 547 571 1087 
Q 309 1628 309 2231 
z
M 934 2222 
Q 934 1394 1379 917 
Q 1825 441 2497 441 
Q 3181 441 3623 922 
Q 4066 1403 4066 2288 
Q 4066 2847 3877 3264 
Q 3688 3681 3323 3911 
Q 2959 4141 2506 4141 
Q 1863 4141 1398 3698 
Q 934 3256 934 2222 
z
" transform="scale(0.015625)"/>
      </defs>
      <use xlink:href="#ArialMT-44"/>
      <use xlink:href="#ArialMT-41" transform="translate(72.216797 0)"/>
      <use xlink:href="#ArialMT-53" transform="translate(138.916016 0)"/>
      <use xlink:href="#ArialMT-4f" transform="translate(205.615234 0)"/>
      <use xlink:href="#ArialMT-44" transform="translate(283.398438 0)"/>
     </g>
    </g>
    <g id="line2d_41">
     <path d="M 627.040469 60.074531 
L 636.040469 60.074531 
L 645.040469 60.074531 
" style="fill: none; stroke: #2ca02c; stroke-width: 2; stroke-linecap: square"/>
     <g>
      <use xlink:href="#mf35e56fc2b" x="636.040469" y="60.074531" style="fill: #2ca02c; stroke: #2ca02c"/>
     </g>
    </g>
    <g id="text_21">
     <!-- GCN -->
     <g transform="translate(652.240469 63.224531) scale(0.09 -0.09)">
      <defs>
       <path id="ArialMT-47" d="M 2638 1797 
L 2638 2334 
L 4578 2338 
L 4578 638 
Q 4131 281 3656 101 
Q 3181 -78 2681 -78 
Q 2006 -78 1454 211 
Q 903 500 622 1047 
Q 341 1594 341 2269 
Q 341 2938 620 3517 
Q 900 4097 1425 4378 
Q 1950 4659 2634 4659 
Q 3131 4659 3532 4498 
Q 3934 4338 4162 4050 
Q 4391 3763 4509 3300 
L 3963 3150 
Q 3859 3500 3706 3700 
Q 3553 3900 3268 4020 
Q 2984 4141 2638 4141 
Q 2222 4141 1919 4014 
Q 1616 3888 1430 3681 
Q 1244 3475 1141 3228 
Q 966 2803 966 2306 
Q 966 1694 1177 1281 
Q 1388 869 1791 669 
Q 2194 469 2647 469 
Q 3041 469 3416 620 
Q 3791 772 3984 944 
L 3984 1797 
L 2638 1797 
z
" transform="scale(0.015625)"/>
       <path id="ArialMT-43" d="M 3763 1606 
L 4369 1453 
Q 4178 706 3683 314 
Q 3188 -78 2472 -78 
Q 1731 -78 1267 223 
Q 803 525 561 1097 
Q 319 1669 319 2325 
Q 319 3041 592 3573 
Q 866 4106 1370 4382 
Q 1875 4659 2481 4659 
Q 3169 4659 3637 4309 
Q 4106 3959 4291 3325 
L 3694 3184 
Q 3534 3684 3231 3912 
Q 2928 4141 2469 4141 
Q 1941 4141 1586 3887 
Q 1231 3634 1087 3207 
Q 944 2781 944 2328 
Q 944 1744 1114 1308 
Q 1284 872 1643 656 
Q 2003 441 2422 441 
Q 2931 441 3284 734 
Q 3638 1028 3763 1606 
z
" transform="scale(0.015625)"/>
      </defs>
      <use xlink:href="#ArialMT-47"/>
      <use xlink:href="#ArialMT-43" transform="translate(77.783203 0)"/>
      <use xlink:href="#ArialMT-4e" transform="translate(150 0)"/>
     </g>
    </g>
    <g id="line2d_42">
     <path d="M 627.040469 72.805312 
L 636.040469 72.805312 
L 645.040469 72.805312 
" style="fill: none; stroke: #9467bd; stroke-width: 2; stroke-linecap: square"/>
     <g>
      <use xlink:href="#md5863b7459" x="636.040469" y="72.805312" style="fill: #9467bd; stroke: #9467bd"/>
     </g>
    </g>
    <g id="text_22">
     <!-- GCOD -->
     <g transform="translate(652.240469 75.955312) scale(0.09 -0.09)">
      <use xlink:href="#ArialMT-47"/>
      <use xlink:href="#ArialMT-43" transform="translate(77.783203 0)"/>
      <use xlink:href="#ArialMT-4f" transform="translate(150 0)"/>
      <use xlink:href="#ArialMT-44" transform="translate(227.783203 0)"/>
     </g>
    </g>
    <g id="line2d_43">
     <path d="M 627.040469 85.536094 
L 636.040469 85.536094 
L 645.040469 85.536094 
" style="fill: none; stroke: #8c564b; stroke-width: 2; stroke-linecap: square"/>
     <g>
      <use xlink:href="#m457d6f392a" x="636.040469" y="85.536094" style="fill: #8c564b; stroke: #8c564b"/>
     </g>
    </g>
    <g id="text_23">
     <!-- IE -->
     <g transform="translate(652.240469 88.686094) scale(0.09 -0.09)">
      <defs>
       <path id="ArialMT-49" d="M 597 0 
L 597 4581 
L 1203 4581 
L 1203 0 
L 597 0 
z
" transform="scale(0.015625)"/>
       <path id="ArialMT-45" d="M 506 0 
L 506 4581 
L 3819 4581 
L 3819 4041 
L 1113 4041 
L 1113 2638 
L 3647 2638 
L 3647 2100 
L 1113 2100 
L 1113 541 
L 3925 541 
L 3925 0 
L 506 0 
z
" transform="scale(0.015625)"/>
      </defs>
      <use xlink:href="#ArialMT-49"/>
      <use xlink:href="#ArialMT-45" transform="translate(27.783203 0)"/>
     </g>
    </g>
    <g id="line2d_44">
     <path d="M 627.040469 98.266875 
L 636.040469 98.266875 
L 645.040469 98.266875 
" style="fill: none; stroke: #e377c2; stroke-width: 2; stroke-linecap: square"/>
     <g>
      <use xlink:href="#mc1e72786cb" x="636.040469" y="98.266875" style="fill: #e377c2; stroke: #e377c2"/>
     </g>
    </g>
    <g id="text_24">
     <!-- KNN -->
     <g transform="translate(652.240469 101.416875) scale(0.09 -0.09)">
      <defs>
       <path id="ArialMT-4b" d="M 469 0 
L 469 4581 
L 1075 4581 
L 1075 2309 
L 3350 4581 
L 4172 4581 
L 2250 2725 
L 4256 0 
L 3456 0 
L 1825 2319 
L 1075 1588 
L 1075 0 
L 469 0 
z
" transform="scale(0.015625)"/>
      </defs>
      <use xlink:href="#ArialMT-4b"/>
      <use xlink:href="#ArialMT-4e" transform="translate(66.699219 0)"/>
      <use xlink:href="#ArialMT-4e" transform="translate(138.916016 0)"/>
     </g>
    </g>
    <g id="line2d_45">
     <path d="M 627.040469 110.997656 
L 636.040469 110.997656 
L 645.040469 110.997656 
" style="fill: none; stroke: #17becf; stroke-width: 2; stroke-linecap: square"/>
     <g>
      <use xlink:href="#ma486bdf435" x="636.040469" y="110.997656" style="fill: #17becf; stroke: #17becf"/>
     </g>
    </g>
    <g id="text_25">
     <!-- NIEOD -->
     <g transform="translate(652.240469 114.147656) scale(0.09 -0.09)">
      <use xlink:href="#ArialMT-4e"/>
      <use xlink:href="#ArialMT-49" transform="translate(72.216797 0)"/>
      <use xlink:href="#ArialMT-45" transform="translate(100 0)"/>
      <use xlink:href="#ArialMT-4f" transform="translate(166.699219 0)"/>
      <use xlink:href="#ArialMT-44" transform="translate(244.482422 0)"/>
     </g>
    </g>
    <g id="line2d_46">
     <path d="M 627.040469 123.728437 
L 636.040469 123.728437 
L 645.040469 123.728437 
" style="fill: none; stroke: #e31818; stroke-width: 2.5; stroke-linecap: square"/>
     <g>
      <use xlink:href="#meed557aa28" x="636.040469" y="123.728437" style="fill: #e31818; stroke: #e31818"/>
     </g>
    </g>
    <g id="text_26">
     <!-- NMIGOD -->
     <g transform="translate(652.240469 126.878437) scale(0.09 -0.09)">
      <defs>
       <path id="ArialMT-4d" d="M 475 0 
L 475 4581 
L 1388 4581 
L 2472 1338 
Q 2622 884 2691 659 
Q 2769 909 2934 1394 
L 4031 4581 
L 4847 4581 
L 4847 0 
L 4263 0 
L 4263 3834 
L 2931 0 
L 2384 0 
L 1059 3900 
L 1059 0 
L 475 0 
z
" transform="scale(0.015625)"/>
      </defs>
      <use xlink:href="#ArialMT-4e"/>
      <use xlink:href="#ArialMT-4d" transform="translate(72.216797 0)"/>
      <use xlink:href="#ArialMT-49" transform="translate(155.517578 0)"/>
      <use xlink:href="#ArialMT-47" transform="translate(183.300781 0)"/>
      <use xlink:href="#ArialMT-4f" transform="translate(261.083984 0)"/>
      <use xlink:href="#ArialMT-44" transform="translate(338.867188 0)"/>
     </g>
    </g>
   </g>
  </g>
 </g>
 <defs>
  <clipPath id="p93e57a6f82">
   <rect x="43.0575" y="23.220937" width="654.28" height="363.88"/>
  </clipPath>
 </defs>
</svg>
