<?xml version="1.0" encoding="utf-8" standalone="no"?>
<!DOCTYPE svg PUBLIC "-//W3C//DTD SVG 1.1//EN"
  "http://www.w3.org/Graphics/SVG/1.1/DTD/svg11.dtd">
<svg xmlns:xlink="http://www.w3.org/1999/xlink" width="712.9075pt" height="425.7075pt" viewBox="0 0 712.9075 425.7075" xmlns="http://www.w3.org/2000/svg" version="1.1">
 <metadata>
  <rdf:RDF xmlns:dc="http://purl.org/dc/elements/1.1/" xmlns:cc="http://creativecommons.org/ns#" xmlns:rdf="http://www.w3.org/1999/02/22-rdf-syntax-ns#">
   <cc:Work>
    <dc:type rdf:resource="http://purl.org/dc/dcmitype/StillImage"/>
    <dc:date>2026-06-11T18:29:03.727323</dc:date>
    <dc:format>image/svg+xml</dc:format>
    <dc:creator>
     <cc:Agent>
      <dc:title>Matplotlib v3.10.0, https://matplotlib.org/</dc:title>
     </cc:Agent>
    </dc:creator>
   </cc:Work>
  </rdf:RDF>
 </metadata>
 <defs>
  <style type="text/css">*{stroke-linejoin: round; stroke-linecap: butt}</style>
 </defs>
 <g id="figure_1">
  <g id="patch_1">
   <path d="M -0 425.7075 
L 712.9075 425.7075 
L 712.9075 0 
L -0 0 
z
" style="fill: #ffffff"/>
  </g>
  <g id="axes_1">
   <g id="patch_2">
    <path d="M 43.0575 387.100937 
L 705.7075 387.100937 
L 705.7075 23.220937 
L 43.0575 23.220937 
z
" style="fill: #ffffff"/>
   </g>
   <g id="matplotlib.axis_1">
    <g id="xtick_1">
     <g id="line2d_1">
      <path d="M 43.0575 387.100937 
L 43.0575 23.220937 
" clip-path="url(#p5d45c6fe0c)" style="fill: none; stroke-dasharray: 2.96,1.28; stroke-dashoffset: 0; stroke: #b0b0b0; stroke-opacity: 0.5; stroke-width: 0.8"/>
     </g>
     <g id="line2d_2">
      <defs>
       <path id="mbc0d01c328" d="M 0 0 
L 0 3.5 
" style="stroke: #000000; stroke-width: 0.8"/>
      </defs>
      <g>
       <use xlink:href="#mbc0d01c328" x="43.0575" y="387.100937" style="stroke: #000000; stroke-width: 0.8"/>
      </g>
     </g>
     <g id="text_1">
      <!-- 0 -->
      <g transform="translate(40.277031 401.25875) scale(0.1 -0.1)">
       <defs>
        <path id="ArialMT-30" d="M 266 2259 
Q 266 3072 433 3567 
Q 600 4063 929 4331 
Q 1259 4600 1759 4600 
Q 2128 4600 2406 4451 
Q 2684 4303 2865 4023 
Q 3047 3744 3150 3342 
Q 3253 2941 3253 2259 
Q 3253 1453 3087 958 
Q 2922 463 2592 192 
Q 2263 -78 1759 -78 
Q 1097 -78 719 397 
Q 266 969 266 2259 
z
M 844 2259 
Q 844 1131 1108 757 
Q 1372 384 1759 384 
Q 2147 384 2411 759 
Q 2675 1134 2675 2259 
Q 2675 3391 2411 3762 
Q 2147 4134 1753 4134 
Q 1366 4134 1134 3806 
Q 844 3388 844 2259 
z
" transform="scale(0.015625)"/>
       </defs>
       <use xlink:href="#ArialMT-30"/>
      </g>
     </g>
    </g>
    <g id="xtick_2">
     <g id="line2d_3">
      <path d="M 159.209998 387.100937 
L 159.209998 23.220937 
" clip-path="url(#p5d45c6fe0c)" style="fill: none; stroke-dasharray: 2.96,1.28; stroke-dashoffset: 0; stroke: #b0b0b0; stroke-opacity: 0.5; stroke-width: 0.8"/>
     </g>
     <g id="line2d_4">
      <g>
       <use xlink:href="#mbc0d01c328" x="159.209998" y="387.100937" style="stroke: #000000; stroke-width: 0.8"/>
      </g>
     </g>
     <g id="text_2">
      <!-- 200 -->
      <g transform="translate(150.868592 401.25875) scale(0.1 -0.1)">
       <defs>
        <path id="ArialMT-32" d="M 3222 541 
L 3222 0 
L 194 0 
Q 188 203 259 391 
Q 375 700 629 1000 
Q 884 1300 1366 1694 
Q 2113 2306 2375 2664 
Q 2638 3022 2638 3341 
Q 2638 3675 2398 3904 
Q 2159 4134 1775 4134 
Q 1369 4134 1125 3890 
Q 881 3647 878 3216 
L 300 3275 
Q 359 3922 746 4261 
Q 1134 4600 1788 4600 
Q 2447 4600 2831 4234 
Q 3216 3869 3216 3328 
Q 3216 3053 3103 2787 
Q 2991 2522 2730 2228 
Q 2469 1934 1863 1422 
Q 1356 997 1212 845 
Q 1069 694 975 541 
L 3222 541 
z
" transform="scale(0.015625)"/>
       </defs>
       <use xlink:href="#ArialMT-32"/>
       <use xlink:href="#ArialMT-30" transform="translate(55.615234 0)"/>
       <use xlink:href="#ArialMT-30" transform="translate(111.230469 0)"/>
      </g>
     </g>
    </g>
    <g id="xtick_3">
     <g id="line2d_5">
      <path d="M 275.362496 387.100937 
L 275.362496 23.220937 
" clip-path="url(#p5d45c6fe0c)" style="fill: none; stroke-dasharray: 2.96,1.28; stroke-dashoffset: 0; stroke: #b0b0b0; stroke-opacity: 0.5; stroke-width: 0.8"/>
     </g>
     <g id="line2d_6">
      <g>
       <use xlink:href="#mbc0d01c328" x="275.362496" y="387.100937" style="stroke: #000000; stroke-width: 0.8"/>
      </g>
     </g>
     <g id="text_3">
      <!-- 400 -->
      <g transform="translate(267.021089 401.25875) scale(0.1 -0.1)">
       <defs>
        <path id="ArialMT-34" d="M 2069 0 
L 2069 1097 
L 81 1097 
L 81 1613 
L 2172 4581 
L 2631 4581 
L 2631 1613 
L 3250 1613 
L 3250 1097 
L 2631 1097 
L 2631 0 
L 2069 0 
z
M 2069 1613 
L 2069 3678 
L 634 1613 
L 2069 1613 
z
" transform="scale(0.015625)"/>
       </defs>
       <use xlink:href="#ArialMT-34"/>
       <use xlink:href="#ArialMT-30" transform="translate(55.615234 0)"/>
       <use xlink:href="#ArialMT-30" transform="translate(111.230469 0)"/>
      </g>
     </g>
    </g>
    <g id="xtick_4">
     <g id="line2d_7">
      <path d="M 391.514993 387.100937 
L 391.514993 23.220937 
" clip-path="url(#p5d45c6fe0c)" style="fill: none; stroke-dasharray: 2.96,1.28; stroke-dashoffset: 0; stroke: #b0b0b0; stroke-opacity: 0.5; stroke-width: 0.8"/>
     </g>
     <g id="line2d_8">
      <g>
       <use xlink:href="#mbc0d01c328" x="391.514993" y="387.100937" style="stroke: #000000; stroke-width: 0.8"/>
      </g>
     </g>
     <g id="text_4">
      <!-- 600 -->
      <g transform="translate(383.173587 401.25875) scale(0.1 -0.1)">
       <defs>
        <path id="ArialMT-36" d="M 3184 3459 
L 2625 3416 
Q 2550 3747 2413 3897 
Q 2184 4138 1850 4138 
Q 1581 4138 1378 3988 
Q 1113 3794 959 3422 
Q 806 3050 800 2363 
Q 1003 2672 1297 2822 
Q 1591 2972 1913 2972 
Q 2475 2972 2870 2558 
Q 3266 2144 3266 1488 
Q 3266 1056 3080 686 
Q 2894 316 2569 119 
Q 2244 -78 1831 -78 
Q 1128 -78 684 439 
Q 241 956 241 2144 
Q 241 3472 731 4075 
Q 1159 4600 1884 4600 
Q 2425 4600 2770 4297 
Q 3116 3994 3184 3459 
z
M 888 1484 
Q 888 1194 1011 928 
Q 1134 663 1356 523 
Q 1578 384 1822 384 
Q 2178 384 2434 671 
Q 2691 959 2691 1453 
Q 2691 1928 2437 2201 
Q 2184 2475 1800 2475 
Q 1419 2475 1153 2201 
Q 888 1928 888 1484 
z
" transform="scale(0.015625)"/>
       </defs>
       <use xlink:href="#ArialMT-36"/>
       <use xlink:href="#ArialMT-30" transform="translate(55.615234 0)"/>
       <use xlink:href="#ArialMT-30" transform="translate(111.230469 0)"/>
      </g>
     </g>
    </g>
    <g id="xtick_5">
     <g id="line2d_9">
      <path d="M 507.667491 387.100937 
L 507.667491 23.220937 
" clip-path="url(#p5d45c6fe0c)" style="fill: none; stroke-dasharray: 2.96,1.28; stroke-dashoffset: 0; stroke: #b0b0b0; stroke-opacity: 0.5; stroke-width: 0.8"/>
     </g>
     <g id="line2d_10">
      <g>
       <use xlink:href="#mbc0d01c328" x="507.667491" y="387.100937" style="stroke: #000000; stroke-width: 0.8"/>
      </g>
     </g>
     <g id="text_5">
      <!-- 800 -->
      <g transform="translate(499.326085 401.25875) scale(0.1 -0.1)">
       <defs>
        <path id="ArialMT-38" d="M 1131 2484 
Q 781 2613 612 2850 
Q 444 3088 444 3419 
Q 444 3919 803 4259 
Q 1163 4600 1759 4600 
Q 2359 4600 2725 4251 
Q 3091 3903 3091 3403 
Q 3091 3084 2923 2848 
Q 2756 2613 2416 2484 
Q 2838 2347 3058 2040 
Q 3278 1734 3278 1309 
Q 3278 722 2862 322 
Q 2447 -78 1769 -78 
Q 1091 -78 675 323 
Q 259 725 259 1325 
Q 259 1772 486 2073 
Q 713 2375 1131 2484 
z
M 1019 3438 
Q 1019 3113 1228 2906 
Q 1438 2700 1772 2700 
Q 2097 2700 2305 2904 
Q 2513 3109 2513 3406 
Q 2513 3716 2298 3927 
Q 2084 4138 1766 4138 
Q 1444 4138 1231 3931 
Q 1019 3725 1019 3438 
z
M 838 1322 
Q 838 1081 952 856 
Q 1066 631 1291 507 
Q 1516 384 1775 384 
Q 2178 384 2440 643 
Q 2703 903 2703 1303 
Q 2703 1709 2433 1975 
Q 2163 2241 1756 2241 
Q 1359 2241 1098 1978 
Q 838 1716 838 1322 
z
" transform="scale(0.015625)"/>
       </defs>
       <use xlink:href="#ArialMT-38"/>
       <use xlink:href="#ArialMT-30" transform="translate(55.615234 0)"/>
       <use xlink:href="#ArialMT-30" transform="translate(111.230469 0)"/>
      </g>
     </g>
    </g>
    <g id="xtick_6">
     <g id="line2d_11">
      <path d="M 623.819989 387.100937 
L 623.819989 23.220937 
" clip-path="url(#p5d45c6fe0c)" style="fill: none; stroke-dasharray: 2.96,1.28; stroke-dashoffset: 0; stroke: #b0b0b0; stroke-opacity: 0.5; stroke-width: 0.8"/>
     </g>
     <g id="line2d_12">
      <g>
       <use xlink:href="#mbc0d01c328" x="623.819989" y="387.100937" style="stroke: #000000; stroke-width: 0.8"/>
      </g>
     </g>
     <g id="text_6">
      <!-- 1000 -->
      <g transform="translate(612.698114 401.25875) scale(0.1 -0.1)">
       <defs>
        <path id="ArialMT-31" d="M 2384 0 
L 1822 0 
L 1822 3584 
Q 1619 3391 1289 3197 
Q 959 3003 697 2906 
L 697 3450 
Q 1169 3672 1522 3987 
Q 1875 4303 2022 4600 
L 2384 4600 
L 2384 0 
z
" transform="scale(0.015625)"/>
       </defs>
       <use xlink:href="#ArialMT-31"/>
       <use xlink:href="#ArialMT-30" transform="translate(55.615234 0)"/>
       <use xlink:href="#ArialMT-30" transform="translate(111.230469 0)"/>
       <use xlink:href="#ArialMT-30" transform="translate(166.845703 0)"/>
      </g>
     </g>
    </g>
    <g id="text_7">
     <!-- k (Threshold Index) -->
     <g transform="translate(319.048438 415.981875) scale(0.12 -0.12)">
      <defs>
       <path id="Arial-BoldMT-6b" d="M 428 0 
L 428 4581 
L 1306 4581 
L 1306 2150 
L 2334 3319 
L 3416 3319 
L 2281 2106 
L 3497 0 
L 2550 0 
L 1716 1491 
L 1306 1063 
L 1306 0 
L 428 0 
z
" transform="scale(0.015625)"/>
       <path id="Arial-BoldMT-20" transform="scale(0.015625)"/>
       <path id="Arial-BoldMT-28" d="M 1916 -1347 
L 1313 -1347 
Q 834 -625 584 153 
Q 334 931 334 1659 
Q 334 2563 644 3369 
Q 913 4069 1325 4659 
L 1925 4659 
Q 1497 3713 1336 3048 
Q 1175 2384 1175 1641 
Q 1175 1128 1270 590 
Q 1366 53 1531 -431 
Q 1641 -750 1916 -1347 
z
" transform="scale(0.015625)"/>
       <path id="Arial-BoldMT-54" d="M 1497 0 
L 1497 3806 
L 138 3806 
L 138 4581 
L 3778 4581 
L 3778 3806 
L 2422 3806 
L 2422 0 
L 1497 0 
z
" transform="scale(0.015625)"/>
       <path id="Arial-BoldMT-68" d="M 1334 4581 
L 1334 2897 
Q 1759 3394 2350 3394 
Q 2653 3394 2897 3281 
Q 3141 3169 3264 2994 
Q 3388 2819 3433 2606 
Q 3478 2394 3478 1947 
L 3478 0 
L 2600 0 
L 2600 1753 
Q 2600 2275 2550 2415 
Q 2500 2556 2373 2639 
Q 2247 2722 2056 2722 
Q 1838 2722 1666 2615 
Q 1494 2509 1414 2295 
Q 1334 2081 1334 1663 
L 1334 0 
L 456 0 
L 456 4581 
L 1334 4581 
z
" transform="scale(0.015625)"/>
       <path id="Arial-BoldMT-72" d="M 1300 0 
L 422 0 
L 422 3319 
L 1238 3319 
L 1238 2847 
Q 1447 3181 1614 3287 
Q 1781 3394 1994 3394 
Q 2294 3394 2572 3228 
L 2300 2463 
Q 2078 2606 1888 2606 
Q 1703 2606 1575 2504 
Q 1447 2403 1373 2137 
Q 1300 1872 1300 1025 
L 1300 0 
z
" transform="scale(0.015625)"/>
       <path id="Arial-BoldMT-65" d="M 2381 1056 
L 3256 909 
Q 3088 428 2723 176 
Q 2359 -75 1813 -75 
Q 947 -75 531 491 
Q 203 944 203 1634 
Q 203 2459 634 2926 
Q 1066 3394 1725 3394 
Q 2466 3394 2894 2905 
Q 3322 2416 3303 1406 
L 1103 1406 
Q 1113 1016 1316 798 
Q 1519 581 1822 581 
Q 2028 581 2168 693 
Q 2309 806 2381 1056 
z
M 2431 1944 
Q 2422 2325 2234 2523 
Q 2047 2722 1778 2722 
Q 1491 2722 1303 2513 
Q 1116 2303 1119 1944 
L 2431 1944 
z
" transform="scale(0.015625)"/>
       <path id="Arial-BoldMT-73" d="M 150 947 
L 1031 1081 
Q 1088 825 1259 692 
Q 1431 559 1741 559 
Q 2081 559 2253 684 
Q 2369 772 2369 919 
Q 2369 1019 2306 1084 
Q 2241 1147 2013 1200 
Q 950 1434 666 1628 
Q 272 1897 272 2375 
Q 272 2806 612 3100 
Q 953 3394 1669 3394 
Q 2350 3394 2681 3172 
Q 3013 2950 3138 2516 
L 2309 2363 
Q 2256 2556 2107 2659 
Q 1959 2763 1684 2763 
Q 1338 2763 1188 2666 
Q 1088 2597 1088 2488 
Q 1088 2394 1175 2328 
Q 1294 2241 1995 2081 
Q 2697 1922 2975 1691 
Q 3250 1456 3250 1038 
Q 3250 581 2869 253 
Q 2488 -75 1741 -75 
Q 1063 -75 667 200 
Q 272 475 150 947 
z
" transform="scale(0.015625)"/>
       <path id="Arial-BoldMT-6f" d="M 256 1706 
Q 256 2144 472 2553 
Q 688 2963 1083 3178 
Q 1478 3394 1966 3394 
Q 2719 3394 3200 2905 
Q 3681 2416 3681 1669 
Q 3681 916 3195 420 
Q 2709 -75 1972 -75 
Q 1516 -75 1102 131 
Q 688 338 472 736 
Q 256 1134 256 1706 
z
M 1156 1659 
Q 1156 1166 1390 903 
Q 1625 641 1969 641 
Q 2313 641 2545 903 
Q 2778 1166 2778 1666 
Q 2778 2153 2545 2415 
Q 2313 2678 1969 2678 
Q 1625 2678 1390 2415 
Q 1156 2153 1156 1659 
z
" transform="scale(0.015625)"/>
       <path id="Arial-BoldMT-6c" d="M 459 0 
L 459 4581 
L 1338 4581 
L 1338 0 
L 459 0 
z
" transform="scale(0.015625)"/>
       <path id="Arial-BoldMT-64" d="M 3503 0 
L 2688 0 
L 2688 488 
Q 2484 203 2207 64 
Q 1931 -75 1650 -75 
Q 1078 -75 670 386 
Q 263 847 263 1672 
Q 263 2516 659 2955 
Q 1056 3394 1663 3394 
Q 2219 3394 2625 2931 
L 2625 4581 
L 3503 4581 
L 3503 0 
z
M 1159 1731 
Q 1159 1200 1306 963 
Q 1519 619 1900 619 
Q 2203 619 2415 876 
Q 2628 1134 2628 1647 
Q 2628 2219 2422 2470 
Q 2216 2722 1894 2722 
Q 1581 2722 1370 2473 
Q 1159 2225 1159 1731 
z
" transform="scale(0.015625)"/>
       <path id="Arial-BoldMT-49" d="M 438 0 
L 438 4581 
L 1363 4581 
L 1363 0 
L 438 0 
z
" transform="scale(0.015625)"/>
       <path id="Arial-BoldMT-6e" d="M 3478 0 
L 2600 0 
L 2600 1694 
Q 2600 2231 2544 2389 
Q 2488 2547 2361 2634 
Q 2234 2722 2056 2722 
Q 1828 2722 1647 2597 
Q 1466 2472 1398 2265 
Q 1331 2059 1331 1503 
L 1331 0 
L 453 0 
L 453 3319 
L 1269 3319 
L 1269 2831 
Q 1703 3394 2363 3394 
Q 2653 3394 2893 3289 
Q 3134 3184 3257 3021 
Q 3381 2859 3429 2653 
Q 3478 2447 3478 2063 
L 3478 0 
z
" transform="scale(0.015625)"/>
       <path id="Arial-BoldMT-78" d="M 38 0 
L 1234 1709 
L 88 3319 
L 1159 3319 
L 1747 2406 
L 2366 3319 
L 3397 3319 
L 2272 1747 
L 3500 0 
L 2422 0 
L 1747 1028 
L 1066 0 
L 38 0 
z
" transform="scale(0.015625)"/>
       <path id="Arial-BoldMT-29" d="M 216 -1347 
Q 475 -791 581 -494 
Q 688 -197 778 190 
Q 869 578 912 926 
Q 956 1275 956 1641 
Q 956 2384 797 3048 
Q 638 3713 209 4659 
L 806 4659 
Q 1278 3988 1539 3234 
Q 1800 2481 1800 1706 
Q 1800 1053 1594 306 
Q 1359 -531 822 -1347 
L 216 -1347 
z
" transform="scale(0.015625)"/>
      </defs>
      <use xlink:href="#Arial-BoldMT-6b"/>
      <use xlink:href="#Arial-BoldMT-20" transform="translate(55.615234 0)"/>
      <use xlink:href="#Arial-BoldMT-28" transform="translate(83.398438 0)"/>
      <use xlink:href="#Arial-BoldMT-54" transform="translate(116.699219 0)"/>
      <use xlink:href="#Arial-BoldMT-68" transform="translate(177.783203 0)"/>
      <use xlink:href="#Arial-BoldMT-72" transform="translate(238.867188 0)"/>
      <use xlink:href="#Arial-BoldMT-65" transform="translate(277.783203 0)"/>
      <use xlink:href="#Arial-BoldMT-73" transform="translate(333.398438 0)"/>
      <use xlink:href="#Arial-BoldMT-68" transform="translate(389.013672 0)"/>
      <use xlink:href="#Arial-BoldMT-6f" transform="translate(450.097656 0)"/>
      <use xlink:href="#Arial-BoldMT-6c" transform="translate(511.181641 0)"/>
      <use xlink:href="#Arial-BoldMT-64" transform="translate(538.964844 0)"/>
      <use xlink:href="#Arial-BoldMT-20" transform="translate(600.048828 0)"/>
      <use xlink:href="#Arial-BoldMT-49" transform="translate(627.832031 0)"/>
      <use xlink:href="#Arial-BoldMT-6e" transform="translate(655.615234 0)"/>
      <use xlink:href="#Arial-BoldMT-64" transform="translate(716.699219 0)"/>
      <use xlink:href="#Arial-BoldMT-65" transform="translate(777.783203 0)"/>
      <use xlink:href="#Arial-BoldMT-78" transform="translate(833.398438 0)"/>
      <use xlink:href="#Arial-BoldMT-29" transform="translate(889.013672 0)"/>
     </g>
    </g>
   </g>
   <g id="matplotlib.axis_2">
    <g id="ytick_1">
     <g id="line2d_13">
      <path d="M 43.0575 387.100937 
L 705.7075 387.100937 
" clip-path="url(#p5d45c6fe0c)" style="fill: none; stroke-dasharray: 2.96,1.28; stroke-dashoffset: 0; stroke: #b0b0b0; stroke-opacity: 0.5; stroke-width: 0.8"/>
     </g>
     <g id="line2d_14">
      <defs>
       <path id="m2f60f927aa" d="M 0 0 
L -3.5 0 
" style="stroke: #000000; stroke-width: 0.8"/>
      </defs>
      <g>
       <use xlink:href="#m2f60f927aa" x="43.0575" y="387.100937" style="stroke: #000000; stroke-width: 0.8"/>
      </g>
     </g>
     <g id="text_8">
      <!-- 0.0 -->
      <g transform="translate(22.1575 390.679844) scale(0.1 -0.1)">
       <defs>
        <path id="ArialMT-2e" d="M 581 0 
L 581 641 
L 1222 641 
L 1222 0 
L 581 0 
z
" transform="scale(0.015625)"/>
       </defs>
       <use xlink:href="#ArialMT-30"/>
       <use xlink:href="#ArialMT-2e" transform="translate(55.615234 0)"/>
       <use xlink:href="#ArialMT-30" transform="translate(83.398438 0)"/>
      </g>
     </g>
    </g>
    <g id="ytick_2">
     <g id="line2d_15">
      <path d="M 43.0575 317.790461 
L 705.7075 317.790461 
" clip-path="url(#p5d45c6fe0c)" style="fill: none; stroke-dasharray: 2.96,1.28; stroke-dashoffset: 0; stroke: #b0b0b0; stroke-opacity: 0.5; stroke-width: 0.8"/>
     </g>
     <g id="line2d_16">
      <g>
       <use xlink:href="#m2f60f927aa" x="43.0575" y="317.790461" style="stroke: #000000; stroke-width: 0.8"/>
      </g>
     </g>
     <g id="text_9">
      <!-- 0.2 -->
      <g transform="translate(22.1575 321.369368) scale(0.1 -0.1)">
       <use xlink:href="#ArialMT-30"/>
       <use xlink:href="#ArialMT-2e" transform="translate(55.615234 0)"/>
       <use xlink:href="#ArialMT-32" transform="translate(83.398438 0)"/>
      </g>
     </g>
    </g>
    <g id="ytick_3">
     <g id="line2d_17">
      <path d="M 43.0575 248.479985 
L 705.7075 248.479985 
" clip-path="url(#p5d45c6fe0c)" style="fill: none; stroke-dasharray: 2.96,1.28; stroke-dashoffset: 0; stroke: #b0b0b0; stroke-opacity: 0.5; stroke-width: 0.8"/>
     </g>
     <g id="line2d_18">
      <g>
       <use xlink:href="#m2f60f927aa" x="43.0575" y="248.479985" style="stroke: #000000; stroke-width: 0.8"/>
      </g>
     </g>
     <g id="text_10">
      <!-- 0.4 -->
      <g transform="translate(22.1575 252.058891) scale(0.1 -0.1)">
       <use xlink:href="#ArialMT-30"/>
       <use xlink:href="#ArialMT-2e" transform="translate(55.615234 0)"/>
       <use xlink:href="#ArialMT-34" transform="translate(83.398438 0)"/>
      </g>
     </g>
    </g>
    <g id="ytick_4">
     <g id="line2d_19">
      <path d="M 43.0575 179.169509 
L 705.7075 179.169509 
" clip-path="url(#p5d45c6fe0c)" style="fill: none; stroke-dasharray: 2.96,1.28; stroke-dashoffset: 0; stroke: #b0b0b0; stroke-opacity: 0.5; stroke-width: 0.8"/>
     </g>
     <g id="line2d_20">
      <g>
       <use xlink:href="#m2f60f927aa" x="43.0575" y="179.169509" style="stroke: #000000; stroke-width: 0.8"/>
      </g>
     </g>
     <g id="text_11">
      <!-- 0.6 -->
      <g transform="translate(22.1575 182.748415) scale(0.1 -0.1)">
       <use xlink:href="#ArialMT-30"/>
       <use xlink:href="#ArialMT-2e" transform="translate(55.615234 0)"/>
       <use xlink:href="#ArialMT-36" transform="translate(83.398438 0)"/>
      </g>
     </g>
    </g>
    <g id="ytick_5">
     <g id="line2d_21">
      <path d="M 43.0575 109.859033 
L 705.7075 109.859033 
" clip-path="url(#p5d45c6fe0c)" style="fill: none; stroke-dasharray: 2.96,1.28; stroke-dashoffset: 0; stroke: #b0b0b0; stroke-opacity: 0.5; stroke-width: 0.8"/>
     </g>
     <g id="line2d_22">
      <g>
       <use xlink:href="#m2f60f927aa" x="43.0575" y="109.859033" style="stroke: #000000; stroke-width: 0.8"/>
      </g>
     </g>
     <g id="text_12">
      <!-- 0.8 -->
      <g transform="translate(22.1575 113.437939) scale(0.1 -0.1)">
       <use xlink:href="#ArialMT-30"/>
       <use xlink:href="#ArialMT-2e" transform="translate(55.615234 0)"/>
       <use xlink:href="#ArialMT-38" transform="translate(83.398438 0)"/>
      </g>
     </g>
    </g>
    <g id="ytick_6">
     <g id="line2d_23">
      <path d="M 43.0575 40.548557 
L 705.7075 40.548557 
" clip-path="url(#p5d45c6fe0c)" style="fill: none; stroke-dasharray: 2.96,1.28; stroke-dashoffset: 0; stroke: #b0b0b0; stroke-opacity: 0.5; stroke-width: 0.8"/>
     </g>
     <g id="line2d_24">
      <g>
       <use xlink:href="#m2f60f927aa" x="43.0575" y="40.548557" style="stroke: #000000; stroke-width: 0.8"/>
      </g>
     </g>
     <g id="text_13">
      <!-- 1.0 -->
      <g transform="translate(22.1575 44.127463) scale(0.1 -0.1)">
       <use xlink:href="#ArialMT-31"/>
       <use xlink:href="#ArialMT-2e" transform="translate(55.615234 0)"/>
       <use xlink:href="#ArialMT-30" transform="translate(83.398438 0)"/>
      </g>
     </g>
    </g>
    <g id="text_14">
     <!-- Precision -->
     <g transform="translate(15.789375 232.17125) rotate(-90) scale(0.12 -0.12)">
      <defs>
       <path id="Arial-BoldMT-50" d="M 466 0 
L 466 4581 
L 1950 4581 
Q 2794 4581 3050 4513 
Q 3444 4409 3709 4064 
Q 3975 3719 3975 3172 
Q 3975 2750 3822 2462 
Q 3669 2175 3433 2011 
Q 3197 1847 2953 1794 
Q 2622 1728 1994 1728 
L 1391 1728 
L 1391 0 
L 466 0 
z
M 1391 3806 
L 1391 2506 
L 1897 2506 
Q 2444 2506 2628 2578 
Q 2813 2650 2917 2803 
Q 3022 2956 3022 3159 
Q 3022 3409 2875 3571 
Q 2728 3734 2503 3775 
Q 2338 3806 1838 3806 
L 1391 3806 
z
" transform="scale(0.015625)"/>
       <path id="Arial-BoldMT-63" d="M 3353 2338 
L 2488 2181 
Q 2444 2441 2289 2572 
Q 2134 2703 1888 2703 
Q 1559 2703 1364 2476 
Q 1169 2250 1169 1719 
Q 1169 1128 1367 884 
Q 1566 641 1900 641 
Q 2150 641 2309 783 
Q 2469 925 2534 1272 
L 3397 1125 
Q 3263 531 2881 228 
Q 2500 -75 1859 -75 
Q 1131 -75 698 384 
Q 266 844 266 1656 
Q 266 2478 700 2936 
Q 1134 3394 1875 3394 
Q 2481 3394 2839 3133 
Q 3197 2872 3353 2338 
z
" transform="scale(0.015625)"/>
       <path id="Arial-BoldMT-69" d="M 459 3769 
L 459 4581 
L 1338 4581 
L 1338 3769 
L 459 3769 
z
M 459 0 
L 459 3319 
L 1338 3319 
L 1338 0 
L 459 0 
z
" transform="scale(0.015625)"/>
      </defs>
      <use xlink:href="#Arial-BoldMT-50"/>
      <use xlink:href="#Arial-BoldMT-72" transform="translate(66.699219 0)"/>
      <use xlink:href="#Arial-BoldMT-65" transform="translate(105.615234 0)"/>
      <use xlink:href="#Arial-BoldMT-63" transform="translate(161.230469 0)"/>
      <use xlink:href="#Arial-BoldMT-69" transform="translate(216.845703 0)"/>
      <use xlink:href="#Arial-BoldMT-73" transform="translate(244.628906 0)"/>
      <use xlink:href="#Arial-BoldMT-69" transform="translate(300.244141 0)"/>
      <use xlink:href="#Arial-BoldMT-6f" transform="translate(328.027344 0)"/>
      <use xlink:href="#Arial-BoldMT-6e" transform="translate(389.111328 0)"/>
     </g>
    </g>
   </g>
   <g id="line2d_25">
    <path d="M 43.638262 387.100937 
L 44.219025 387.100937 
L 44.799787 271.583477 
L 45.38055 213.824747 
L 45.961312 179.169509 
L 46.542075 156.066017 
L 47.122837 139.563523 
L 47.7036 170.505699 
L 48.284362 194.571837 
L 49.445887 229.577128 
L 50.607412 253.81156 
L 51.768937 271.583477 
L 52.930462 285.173767 
L 54.091987 295.902943 
L 55.253512 304.588466 
L 56.415037 311.763463 
L 57.576562 317.790461 
L 58.738087 322.924571 
L 59.899612 327.350527 
L 61.6419 332.952128 
L 63.384187 337.593455 
L 65.126475 341.50194 
L 66.868762 344.838452 
L 68.61105 347.719985 
L 70.353337 350.233663 
L 72.676387 353.125214 
L 74.999437 355.596176 
L 77.322487 357.732092 
L 79.645537 359.59678 
L 82.549349 361.619145 
L 85.453162 363.364473 
L 88.937737 365.167243 
L 92.422312 366.715503 
L 96.487649 368.266569 
L 101.133749 369.773318 
L 106.360611 371.204039 
L 112.168236 372.539913 
L 118.556624 373.772 
L 126.106536 374.983721 
L 134.817973 376.13409 
L 144.690936 377.199441 
L 156.306185 378.214979 
L 169.663723 379.152488 
L 185.34431 380.02844 
L 204.509472 380.867981 
L 227.739972 381.652001 
L 256.197333 382.379515 
L 291.623845 383.052428 
L 336.342557 383.669726 
L 394.418806 384.236868 
L 471.079454 384.749836 
L 575.03594 385.209276 
L 705.7075 385.582303 
L 705.7075 385.582303 
" clip-path="url(#p5d45c6fe0c)" style="fill: none; stroke: #1f77b4; stroke-width: 2; stroke-linecap: square"/>
    <defs>
     <path id="ma24f2d2942" d="M 0 1.5 
C 0.397805 1.5 0.77937 1.341951 1.06066 1.06066 
C 1.341951 0.77937 1.5 0.397805 1.5 0 
C 1.5 -0.397805 1.341951 -0.77937 1.06066 -1.06066 
C 0.77937 -1.341951 0.397805 -1.5 0 -1.5 
C -0.397805 -1.5 -0.77937 -1.341951 -1.06066 -1.06066 
C -1.341951 -0.77937 -1.5 -0.397805 -1.5 0 
C -1.5 0.397805 -1.341951 0.77937 -1.06066 1.06066 
C -0.77937 1.341951 -0.397805 1.5 0 1.5 
z
" style="stroke: #1f77b4"/>
    </defs>
    <g clip-path="url(#p5d45c6fe0c)">
     <use xlink:href="#ma24f2d2942" x="43.638262" y="387.100937" style="fill: #1f77b4; stroke: #1f77b4"/>
     <use xlink:href="#ma24f2d2942" x="59.899612" y="327.350527" style="fill: #1f77b4; stroke: #1f77b4"/>
     <use xlink:href="#ma24f2d2942" x="76.160962" y="356.701606" style="fill: #1f77b4; stroke: #1f77b4"/>
     <use xlink:href="#ma24f2d2942" x="92.422312" y="366.715503" style="fill: #1f77b4; stroke: #1f77b4"/>
     <use xlink:href="#ma24f2d2942" x="108.683661" y="371.766761" style="fill: #1f77b4; stroke: #1f77b4"/>
     <use xlink:href="#ma24f2d2942" x="124.945011" y="374.811846" style="fill: #1f77b4; stroke: #1f77b4"/>
     <use xlink:href="#ma24f2d2942" x="141.206361" y="376.847908" style="fill: #1f77b4; stroke: #1f77b4"/>
     <use xlink:href="#ma24f2d2942" x="157.46771" y="378.305192" style="fill: #1f77b4; stroke: #1f77b4"/>
     <use xlink:href="#ma24f2d2942" x="173.72906" y="379.399773" style="fill: #1f77b4; stroke: #1f77b4"/>
     <use xlink:href="#ma24f2d2942" x="189.99041" y="380.252076" style="fill: #1f77b4; stroke: #1f77b4"/>
     <use xlink:href="#ma24f2d2942" x="206.251759" y="380.934525" style="fill: #1f77b4; stroke: #1f77b4"/>
     <use xlink:href="#ma24f2d2942" x="222.513109" y="381.493294" style="fill: #1f77b4; stroke: #1f77b4"/>
     <use xlink:href="#ma24f2d2942" x="238.774459" y="381.959211" style="fill: #1f77b4; stroke: #1f77b4"/>
     <use xlink:href="#ma24f2d2942" x="255.035809" y="382.353645" style="fill: #1f77b4; stroke: #1f77b4"/>
     <use xlink:href="#ma24f2d2942" x="271.297158" y="382.691874" style="fill: #1f77b4; stroke: #1f77b4"/>
     <use xlink:href="#ma24f2d2942" x="287.558508" y="382.985113" style="fill: #1f77b4; stroke: #1f77b4"/>
     <use xlink:href="#ma24f2d2942" x="303.819858" y="383.24178" style="fill: #1f77b4; stroke: #1f77b4"/>
     <use xlink:href="#ma24f2d2942" x="320.081207" y="383.468313" style="fill: #1f77b4; stroke: #1f77b4"/>
     <use xlink:href="#ma24f2d2942" x="336.342557" y="383.669726" style="fill: #1f77b4; stroke: #1f77b4"/>
     <use xlink:href="#ma24f2d2942" x="352.603907" y="383.849977" style="fill: #1f77b4; stroke: #1f77b4"/>
     <use xlink:href="#ma24f2d2942" x="368.865256" y="384.012235" style="fill: #1f77b4; stroke: #1f77b4"/>
     <use xlink:href="#ma24f2d2942" x="385.126606" y="384.159067" style="fill: #1f77b4; stroke: #1f77b4"/>
     <use xlink:href="#ma24f2d2942" x="401.387956" y="384.292571" style="fill: #1f77b4; stroke: #1f77b4"/>
     <use xlink:href="#ma24f2d2942" x="417.649305" y="384.414485" style="fill: #1f77b4; stroke: #1f77b4"/>
     <use xlink:href="#ma24f2d2942" x="433.910655" y="384.526254" style="fill: #1f77b4; stroke: #1f77b4"/>
     <use xlink:href="#ma24f2d2942" x="450.172005" y="384.629095" style="fill: #1f77b4; stroke: #1f77b4"/>
     <use xlink:href="#ma24f2d2942" x="466.433355" y="384.724035" style="fill: #1f77b4; stroke: #1f77b4"/>
     <use xlink:href="#ma24f2d2942" x="482.694704" y="384.811952" style="fill: #1f77b4; stroke: #1f77b4"/>
     <use xlink:href="#ma24f2d2942" x="498.956054" y="384.893597" style="fill: #1f77b4; stroke: #1f77b4"/>
     <use xlink:href="#ma24f2d2942" x="515.217404" y="384.969619" style="fill: #1f77b4; stroke: #1f77b4"/>
     <use xlink:href="#ma24f2d2942" x="531.478753" y="385.040579" style="fill: #1f77b4; stroke: #1f77b4"/>
     <use xlink:href="#ma24f2d2942" x="547.740103" y="385.106965" style="fill: #1f77b4; stroke: #1f77b4"/>
     <use xlink:href="#ma24f2d2942" x="564.001453" y="385.169207" style="fill: #1f77b4; stroke: #1f77b4"/>
     <use xlink:href="#ma24f2d2942" x="580.262802" y="385.227681" style="fill: #1f77b4; stroke: #1f77b4"/>
     <use xlink:href="#ma24f2d2942" x="596.524152" y="385.282719" style="fill: #1f77b4; stroke: #1f77b4"/>
     <use xlink:href="#ma24f2d2942" x="612.785502" y="385.334615" style="fill: #1f77b4; stroke: #1f77b4"/>
     <use xlink:href="#ma24f2d2942" x="629.046851" y="385.383631" style="fill: #1f77b4; stroke: #1f77b4"/>
     <use xlink:href="#ma24f2d2942" x="645.308201" y="385.43" style="fill: #1f77b4; stroke: #1f77b4"/>
     <use xlink:href="#ma24f2d2942" x="661.569551" y="385.473931" style="fill: #1f77b4; stroke: #1f77b4"/>
     <use xlink:href="#ma24f2d2942" x="677.830901" y="385.515611" style="fill: #1f77b4; stroke: #1f77b4"/>
     <use xlink:href="#ma24f2d2942" x="694.09225" y="385.555209" style="fill: #1f77b4; stroke: #1f77b4"/>
    </g>
   </g>
   <g id="line2d_26">
    <path d="M 43.638262 387.100937 
L 44.799787 387.100937 
L 45.38055 300.462842 
L 45.961312 317.790461 
L 46.542075 329.342207 
L 47.122837 337.593455 
L 47.7036 343.78189 
L 48.284362 348.595117 
L 49.445887 355.596176 
L 50.607412 360.443062 
L 51.188175 337.593455 
L 52.3497 343.78189 
L 53.511225 348.595117 
L 54.67275 352.445699 
L 55.834275 355.596176 
L 56.9958 358.221572 
L 58.157325 360.443062 
L 59.899612 363.200773 
L 61.6419 365.441414 
L 63.384187 367.297944 
L 65.126475 368.861339 
L 67.449525 370.598443 
L 69.772574 372.033443 
L 72.676387 373.510648 
L 75.580199 374.724067 
L 79.064774 375.921828 
L 83.130112 377.055941 
L 83.710874 377.199441 
L 84.291637 372.457879 
L 88.356974 373.772 
L 93.003074 375.011901 
L 98.229936 376.157178 
L 104.037561 377.199441 
L 109.845186 378.060441 
L 110.425949 375.150855 
L 117.395099 376.271176 
L 125.525773 377.338899 
L 134.817973 378.32746 
L 145.852461 379.269245 
L 159.209998 380.16989 
L 174.890585 380.994288 
L 194.055747 381.769362 
L 217.286247 382.480239 
L 246.324371 383.140339 
L 247.485896 383.162842 
L 248.066659 382.192264 
L 281.170121 382.874689 
L 322.98502 383.505996 
L 376.995931 384.087439 
L 447.848955 384.614909 
L 543.094003 385.088438 
L 675.507851 385.509788 
L 705.7075 385.582303 
L 705.7075 385.582303 
" clip-path="url(#p5d45c6fe0c)" style="fill: none; stroke: #ff7f0e; stroke-width: 2; stroke-linecap: square"/>
    <defs>
     <path id="m68cfdebda0" d="M 0 1.5 
C 0.397805 1.5 0.77937 1.341951 1.06066 1.06066 
C 1.341951 0.77937 1.5 0.397805 1.5 0 
C 1.5 -0.397805 1.341951 -0.77937 1.06066 -1.06066 
C 0.77937 -1.341951 0.397805 -1.5 0 -1.5 
C -0.397805 -1.5 -0.77937 -1.341951 -1.06066 -1.06066 
C -1.341951 -0.77937 -1.5 -0.397805 -1.5 0 
C -1.5 0.397805 -1.341951 0.77937 -1.06066 1.06066 
C -0.77937 1.341951 -0.397805 1.5 0 1.5 
z
" style="stroke: #ff7f0e"/>
    </defs>
    <g clip-path="url(#p5d45c6fe0c)">
     <use xlink:href="#m68cfdebda0" x="43.638262" y="387.100937" style="fill: #ff7f0e; stroke: #ff7f0e"/>
     <use xlink:href="#m68cfdebda0" x="59.899612" y="363.200773" style="fill: #ff7f0e; stroke: #ff7f0e"/>
     <use xlink:href="#m68cfdebda0" x="76.160962" y="374.941205" style="fill: #ff7f0e; stroke: #ff7f0e"/>
     <use xlink:href="#m68cfdebda0" x="92.422312" y="374.869677" style="fill: #ff7f0e; stroke: #ff7f0e"/>
     <use xlink:href="#m68cfdebda0" x="108.683661" y="377.900432" style="fill: #ff7f0e; stroke: #ff7f0e"/>
     <use xlink:href="#m68cfdebda0" x="124.945011" y="377.269664" style="fill: #ff7f0e; stroke: #ff7f0e"/>
     <use xlink:href="#m68cfdebda0" x="141.206361" y="378.898514" style="fill: #ff7f0e; stroke: #ff7f0e"/>
     <use xlink:href="#m68cfdebda0" x="157.46771" y="380.064341" style="fill: #ff7f0e; stroke: #ff7f0e"/>
     <use xlink:href="#m68cfdebda0" x="173.72906" y="380.940006" style="fill: #ff7f0e; stroke: #ff7f0e"/>
     <use xlink:href="#m68cfdebda0" x="189.99041" y="381.621848" style="fill: #ff7f0e; stroke: #ff7f0e"/>
     <use xlink:href="#m68cfdebda0" x="206.251759" y="382.167808" style="fill: #ff7f0e; stroke: #ff7f0e"/>
     <use xlink:href="#m68cfdebda0" x="222.513109" y="382.614823" style="fill: #ff7f0e; stroke: #ff7f0e"/>
     <use xlink:href="#m68cfdebda0" x="238.774459" y="382.987556" style="fill: #ff7f0e; stroke: #ff7f0e"/>
     <use xlink:href="#m68cfdebda0" x="255.035809" y="382.353645" style="fill: #ff7f0e; stroke: #ff7f0e"/>
     <use xlink:href="#m68cfdebda0" x="271.297158" y="382.691874" style="fill: #ff7f0e; stroke: #ff7f0e"/>
     <use xlink:href="#m68cfdebda0" x="287.558508" y="382.985113" style="fill: #ff7f0e; stroke: #ff7f0e"/>
     <use xlink:href="#m68cfdebda0" x="303.819858" y="383.24178" style="fill: #ff7f0e; stroke: #ff7f0e"/>
     <use xlink:href="#m68cfdebda0" x="320.081207" y="383.468313" style="fill: #ff7f0e; stroke: #ff7f0e"/>
     <use xlink:href="#m68cfdebda0" x="336.342557" y="383.669726" style="fill: #ff7f0e; stroke: #ff7f0e"/>
     <use xlink:href="#m68cfdebda0" x="352.603907" y="383.849977" style="fill: #ff7f0e; stroke: #ff7f0e"/>
     <use xlink:href="#m68cfdebda0" x="368.865256" y="384.012235" style="fill: #ff7f0e; stroke: #ff7f0e"/>
     <use xlink:href="#m68cfdebda0" x="385.126606" y="384.159067" style="fill: #ff7f0e; stroke: #ff7f0e"/>
     <use xlink:href="#m68cfdebda0" x="401.387956" y="384.292571" style="fill: #ff7f0e; stroke: #ff7f0e"/>
     <use xlink:href="#m68cfdebda0" x="417.649305" y="384.414485" style="fill: #ff7f0e; stroke: #ff7f0e"/>
     <use xlink:href="#m68cfdebda0" x="433.910655" y="384.526254" style="fill: #ff7f0e; stroke: #ff7f0e"/>
     <use xlink:href="#m68cfdebda0" x="450.172005" y="384.629095" style="fill: #ff7f0e; stroke: #ff7f0e"/>
     <use xlink:href="#m68cfdebda0" x="466.433355" y="384.724035" style="fill: #ff7f0e; stroke: #ff7f0e"/>
     <use xlink:href="#m68cfdebda0" x="482.694704" y="384.811952" style="fill: #ff7f0e; stroke: #ff7f0e"/>
     <use xlink:href="#m68cfdebda0" x="498.956054" y="384.893597" style="fill: #ff7f0e; stroke: #ff7f0e"/>
     <use xlink:href="#m68cfdebda0" x="515.217404" y="384.969619" style="fill: #ff7f0e; stroke: #ff7f0e"/>
     <use xlink:href="#m68cfdebda0" x="531.478753" y="385.040579" style="fill: #ff7f0e; stroke: #ff7f0e"/>
     <use xlink:href="#m68cfdebda0" x="547.740103" y="385.106965" style="fill: #ff7f0e; stroke: #ff7f0e"/>
     <use xlink:href="#m68cfdebda0" x="564.001453" y="385.169207" style="fill: #ff7f0e; stroke: #ff7f0e"/>
     <use xlink:href="#m68cfdebda0" x="580.262802" y="385.227681" style="fill: #ff7f0e; stroke: #ff7f0e"/>
     <use xlink:href="#m68cfdebda0" x="596.524152" y="385.282719" style="fill: #ff7f0e; stroke: #ff7f0e"/>
     <use xlink:href="#m68cfdebda0" x="612.785502" y="385.334615" style="fill: #ff7f0e; stroke: #ff7f0e"/>
     <use xlink:href="#m68cfdebda0" x="629.046851" y="385.383631" style="fill: #ff7f0e; stroke: #ff7f0e"/>
     <use xlink:href="#m68cfdebda0" x="645.308201" y="385.43" style="fill: #ff7f0e; stroke: #ff7f0e"/>
     <use xlink:href="#m68cfdebda0" x="661.569551" y="385.473931" style="fill: #ff7f0e; stroke: #ff7f0e"/>
     <use xlink:href="#m68cfdebda0" x="677.830901" y="385.515611" style="fill: #ff7f0e; stroke: #ff7f0e"/>
     <use xlink:href="#m68cfdebda0" x="694.09225" y="385.555209" style="fill: #ff7f0e; stroke: #ff7f0e"/>
    </g>
   </g>
   <g id="line2d_27">
    <path d="M 43.638262 387.100937 
L 44.219025 213.824747 
L 44.799787 156.066017 
L 45.38055 213.824747 
L 45.961312 248.479985 
L 46.542075 271.583477 
L 47.122837 288.085972 
L 47.7036 257.143795 
L 48.284362 271.583477 
L 49.445887 229.577128 
L 50.607412 253.81156 
L 51.768937 271.583477 
L 52.930462 285.173767 
L 54.091987 295.902943 
L 55.253512 304.588466 
L 56.415037 311.763463 
L 57.576562 317.790461 
L 58.738087 322.924571 
L 59.899612 327.350527 
L 61.6419 332.952128 
L 63.384187 337.593455 
L 65.126475 341.50194 
L 66.868762 344.838452 
L 68.61105 347.719985 
L 70.353337 350.233663 
L 72.676387 353.125214 
L 74.999437 355.596176 
L 77.322487 357.732092 
L 79.645537 359.59678 
L 82.549349 361.619145 
L 85.453162 363.364473 
L 88.937737 365.167243 
L 92.422312 366.715503 
L 96.487649 368.266569 
L 101.133749 369.773318 
L 106.360611 371.204039 
L 112.168236 372.539913 
L 118.556624 373.772 
L 126.106536 374.983721 
L 134.817973 376.13409 
L 144.690936 377.199441 
L 156.306185 378.214979 
L 169.663723 379.152488 
L 185.34431 380.02844 
L 204.509472 380.867981 
L 227.739972 381.652001 
L 256.197333 382.379515 
L 291.623845 383.052428 
L 336.342557 383.669726 
L 394.418806 384.236868 
L 471.079454 384.749836 
L 575.03594 385.209276 
L 705.7075 385.582303 
L 705.7075 385.582303 
" clip-path="url(#p5d45c6fe0c)" style="fill: none; stroke: #2ca02c; stroke-width: 2; stroke-linecap: square"/>
    <defs>
     <path id="m448feeed9f" d="M 0 1.5 
C 0.397805 1.5 0.77937 1.341951 1.06066 1.06066 
C 1.341951 0.77937 1.5 0.397805 1.5 0 
C 1.5 -0.397805 1.341951 -0.77937 1.06066 -1.06066 
C 0.77937 -1.341951 0.397805 -1.5 0 -1.5 
C -0.397805 -1.5 -0.77937 -1.341951 -1.06066 -1.06066 
C -1.341951 -0.77937 -1.5 -0.397805 -1.5 0 
C -1.5 0.397805 -1.341951 0.77937 -1.06066 1.06066 
C -0.77937 1.341951 -0.397805 1.5 0 1.5 
z
" style="stroke: #2ca02c"/>
    </defs>
    <g clip-path="url(#p5d45c6fe0c)">
     <use xlink:href="#m448feeed9f" x="43.638262" y="387.100937" style="fill: #2ca02c; stroke: #2ca02c"/>
     <use xlink:href="#m448feeed9f" x="59.899612" y="327.350527" style="fill: #2ca02c; stroke: #2ca02c"/>
     <use xlink:href="#m448feeed9f" x="76.160962" y="356.701606" style="fill: #2ca02c; stroke: #2ca02c"/>
     <use xlink:href="#m448feeed9f" x="92.422312" y="366.715503" style="fill: #2ca02c; stroke: #2ca02c"/>
     <use xlink:href="#m448feeed9f" x="108.683661" y="371.766761" style="fill: #2ca02c; stroke: #2ca02c"/>
     <use xlink:href="#m448feeed9f" x="124.945011" y="374.811846" style="fill: #2ca02c; stroke: #2ca02c"/>
     <use xlink:href="#m448feeed9f" x="141.206361" y="376.847908" style="fill: #2ca02c; stroke: #2ca02c"/>
     <use xlink:href="#m448feeed9f" x="157.46771" y="378.305192" style="fill: #2ca02c; stroke: #2ca02c"/>
     <use xlink:href="#m448feeed9f" x="173.72906" y="379.399773" style="fill: #2ca02c; stroke: #2ca02c"/>
     <use xlink:href="#m448feeed9f" x="189.99041" y="380.252076" style="fill: #2ca02c; stroke: #2ca02c"/>
     <use xlink:href="#m448feeed9f" x="206.251759" y="380.934525" style="fill: #2ca02c; stroke: #2ca02c"/>
     <use xlink:href="#m448feeed9f" x="222.513109" y="381.493294" style="fill: #2ca02c; stroke: #2ca02c"/>
     <use xlink:href="#m448feeed9f" x="238.774459" y="381.959211" style="fill: #2ca02c; stroke: #2ca02c"/>
     <use xlink:href="#m448feeed9f" x="255.035809" y="382.353645" style="fill: #2ca02c; stroke: #2ca02c"/>
     <use xlink:href="#m448feeed9f" x="271.297158" y="382.691874" style="fill: #2ca02c; stroke: #2ca02c"/>
     <use xlink:href="#m448feeed9f" x="287.558508" y="382.985113" style="fill: #2ca02c; stroke: #2ca02c"/>
     <use xlink:href="#m448feeed9f" x="303.819858" y="383.24178" style="fill: #2ca02c; stroke: #2ca02c"/>
     <use xlink:href="#m448feeed9f" x="320.081207" y="383.468313" style="fill: #2ca02c; stroke: #2ca02c"/>
     <use xlink:href="#m448feeed9f" x="336.342557" y="383.669726" style="fill: #2ca02c; stroke: #2ca02c"/>
     <use xlink:href="#m448feeed9f" x="352.603907" y="383.849977" style="fill: #2ca02c; stroke: #2ca02c"/>
     <use xlink:href="#m448feeed9f" x="368.865256" y="384.012235" style="fill: #2ca02c; stroke: #2ca02c"/>
     <use xlink:href="#m448feeed9f" x="385.126606" y="384.159067" style="fill: #2ca02c; stroke: #2ca02c"/>
     <use xlink:href="#m448feeed9f" x="401.387956" y="384.292571" style="fill: #2ca02c; stroke: #2ca02c"/>
     <use xlink:href="#m448feeed9f" x="417.649305" y="384.414485" style="fill: #2ca02c; stroke: #2ca02c"/>
     <use xlink:href="#m448feeed9f" x="433.910655" y="384.526254" style="fill: #2ca02c; stroke: #2ca02c"/>
     <use xlink:href="#m448feeed9f" x="450.172005" y="384.629095" style="fill: #2ca02c; stroke: #2ca02c"/>
     <use xlink:href="#m448feeed9f" x="466.433355" y="384.724035" style="fill: #2ca02c; stroke: #2ca02c"/>
     <use xlink:href="#m448feeed9f" x="482.694704" y="384.811952" style="fill: #2ca02c; stroke: #2ca02c"/>
     <use xlink:href="#m448feeed9f" x="498.956054" y="384.893597" style="fill: #2ca02c; stroke: #2ca02c"/>
     <use xlink:href="#m448feeed9f" x="515.217404" y="384.969619" style="fill: #2ca02c; stroke: #2ca02c"/>
     <use xlink:href="#m448feeed9f" x="531.478753" y="385.040579" style="fill: #2ca02c; stroke: #2ca02c"/>
     <use xlink:href="#m448feeed9f" x="547.740103" y="385.106965" style="fill: #2ca02c; stroke: #2ca02c"/>
     <use xlink:href="#m448feeed9f" x="564.001453" y="385.169207" style="fill: #2ca02c; stroke: #2ca02c"/>
     <use xlink:href="#m448feeed9f" x="580.262802" y="385.227681" style="fill: #2ca02c; stroke: #2ca02c"/>
     <use xlink:href="#m448feeed9f" x="596.524152" y="385.282719" style="fill: #2ca02c; stroke: #2ca02c"/>
     <use xlink:href="#m448feeed9f" x="612.785502" y="385.334615" style="fill: #2ca02c; stroke: #2ca02c"/>
     <use xlink:href="#m448feeed9f" x="629.046851" y="385.383631" style="fill: #2ca02c; stroke: #2ca02c"/>
     <use xlink:href="#m448feeed9f" x="645.308201" y="385.43" style="fill: #2ca02c; stroke: #2ca02c"/>
     <use xlink:href="#m448feeed9f" x="661.569551" y="385.473931" style="fill: #2ca02c; stroke: #2ca02c"/>
     <use xlink:href="#m448feeed9f" x="677.830901" y="385.515611" style="fill: #2ca02c; stroke: #2ca02c"/>
     <use xlink:href="#m448feeed9f" x="694.09225" y="385.555209" style="fill: #2ca02c; stroke: #2ca02c"/>
    </g>
   </g>
   <g id="line2d_28">
    <path d="M 43.638262 387.100937 
L 52.3497 387.100937 
L 52.930462 366.715503 
L 54.091987 368.861339 
L 55.253512 370.598443 
L 56.415037 372.033443 
L 58.157325 373.772 
L 59.31885 349.970325 
L 61.061137 353.56361 
L 62.803425 356.522786 
L 63.384187 357.396448 
L 63.96495 348.595117 
L 65.707237 351.557104 
L 67.449525 354.095949 
L 69.191812 356.296281 
L 69.772574 356.965948 
L 70.353337 350.233663 
L 72.676387 353.125214 
L 74.999437 355.596176 
L 77.322487 357.732092 
L 79.645537 359.59678 
L 82.549349 361.619145 
L 85.453162 363.364473 
L 88.937737 365.167243 
L 92.422312 366.715503 
L 96.487649 368.266569 
L 101.133749 369.773318 
L 106.360611 371.204039 
L 112.168236 372.539913 
L 118.556624 373.772 
L 126.106536 374.983721 
L 134.817973 376.13409 
L 144.690936 377.199441 
L 156.306185 378.214979 
L 169.663723 379.152488 
L 185.34431 380.02844 
L 204.509472 380.867981 
L 227.739972 381.652001 
L 256.197333 382.379515 
L 291.623845 383.052428 
L 336.342557 383.669726 
L 394.418806 384.236868 
L 471.079454 384.749836 
L 575.03594 385.209276 
L 705.7075 385.582303 
L 705.7075 385.582303 
" clip-path="url(#p5d45c6fe0c)" style="fill: none; stroke: #9467bd; stroke-width: 2; stroke-linecap: square"/>
    <defs>
     <path id="m5b0acd17a1" d="M 0 1.5 
C 0.397805 1.5 0.77937 1.341951 1.06066 1.06066 
C 1.341951 0.77937 1.5 0.397805 1.5 0 
C 1.5 -0.397805 1.341951 -0.77937 1.06066 -1.06066 
C 0.77937 -1.341951 0.397805 -1.5 0 -1.5 
C -0.397805 -1.5 -0.77937 -1.341951 -1.06066 -1.06066 
C -1.341951 -0.77937 -1.5 -0.397805 -1.5 0 
C -1.5 0.397805 -1.341951 0.77937 -1.06066 1.06066 
C -0.77937 1.341951 -0.397805 1.5 0 1.5 
z
" style="stroke: #9467bd"/>
    </defs>
    <g clip-path="url(#p5d45c6fe0c)">
     <use xlink:href="#m5b0acd17a1" x="43.638262" y="387.100937" style="fill: #9467bd; stroke: #9467bd"/>
     <use xlink:href="#m5b0acd17a1" x="59.899612" y="351.250691" style="fill: #9467bd; stroke: #9467bd"/>
     <use xlink:href="#m5b0acd17a1" x="76.160962" y="356.701606" style="fill: #9467bd; stroke: #9467bd"/>
     <use xlink:href="#m5b0acd17a1" x="92.422312" y="366.715503" style="fill: #9467bd; stroke: #9467bd"/>
     <use xlink:href="#m5b0acd17a1" x="108.683661" y="371.766761" style="fill: #9467bd; stroke: #9467bd"/>
     <use xlink:href="#m5b0acd17a1" x="124.945011" y="374.811846" style="fill: #9467bd; stroke: #9467bd"/>
     <use xlink:href="#m5b0acd17a1" x="141.206361" y="376.847908" style="fill: #9467bd; stroke: #9467bd"/>
     <use xlink:href="#m5b0acd17a1" x="157.46771" y="378.305192" style="fill: #9467bd; stroke: #9467bd"/>
     <use xlink:href="#m5b0acd17a1" x="173.72906" y="379.399773" style="fill: #9467bd; stroke: #9467bd"/>
     <use xlink:href="#m5b0acd17a1" x="189.99041" y="380.252076" style="fill: #9467bd; stroke: #9467bd"/>
     <use xlink:href="#m5b0acd17a1" x="206.251759" y="380.934525" style="fill: #9467bd; stroke: #9467bd"/>
     <use xlink:href="#m5b0acd17a1" x="222.513109" y="381.493294" style="fill: #9467bd; stroke: #9467bd"/>
     <use xlink:href="#m5b0acd17a1" x="238.774459" y="381.959211" style="fill: #9467bd; stroke: #9467bd"/>
     <use xlink:href="#m5b0acd17a1" x="255.035809" y="382.353645" style="fill: #9467bd; stroke: #9467bd"/>
     <use xlink:href="#m5b0acd17a1" x="271.297158" y="382.691874" style="fill: #9467bd; stroke: #9467bd"/>
     <use xlink:href="#m5b0acd17a1" x="287.558508" y="382.985113" style="fill: #9467bd; stroke: #9467bd"/>
     <use xlink:href="#m5b0acd17a1" x="303.819858" y="383.24178" style="fill: #9467bd; stroke: #9467bd"/>
     <use xlink:href="#m5b0acd17a1" x="320.081207" y="383.468313" style="fill: #9467bd; stroke: #9467bd"/>
     <use xlink:href="#m5b0acd17a1" x="336.342557" y="383.669726" style="fill: #9467bd; stroke: #9467bd"/>
     <use xlink:href="#m5b0acd17a1" x="352.603907" y="383.849977" style="fill: #9467bd; stroke: #9467bd"/>
     <use xlink:href="#m5b0acd17a1" x="368.865256" y="384.012235" style="fill: #9467bd; stroke: #9467bd"/>
     <use xlink:href="#m5b0acd17a1" x="385.126606" y="384.159067" style="fill: #9467bd; stroke: #9467bd"/>
     <use xlink:href="#m5b0acd17a1" x="401.387956" y="384.292571" style="fill: #9467bd; stroke: #9467bd"/>
     <use xlink:href="#m5b0acd17a1" x="417.649305" y="384.414485" style="fill: #9467bd; stroke: #9467bd"/>
     <use xlink:href="#m5b0acd17a1" x="433.910655" y="384.526254" style="fill: #9467bd; stroke: #9467bd"/>
     <use xlink:href="#m5b0acd17a1" x="450.172005" y="384.629095" style="fill: #9467bd; stroke: #9467bd"/>
     <use xlink:href="#m5b0acd17a1" x="466.433355" y="384.724035" style="fill: #9467bd; stroke: #9467bd"/>
     <use xlink:href="#m5b0acd17a1" x="482.694704" y="384.811952" style="fill: #9467bd; stroke: #9467bd"/>
     <use xlink:href="#m5b0acd17a1" x="498.956054" y="384.893597" style="fill: #9467bd; stroke: #9467bd"/>
     <use xlink:href="#m5b0acd17a1" x="515.217404" y="384.969619" style="fill: #9467bd; stroke: #9467bd"/>
     <use xlink:href="#m5b0acd17a1" x="531.478753" y="385.040579" style="fill: #9467bd; stroke: #9467bd"/>
     <use xlink:href="#m5b0acd17a1" x="547.740103" y="385.106965" style="fill: #9467bd; stroke: #9467bd"/>
     <use xlink:href="#m5b0acd17a1" x="564.001453" y="385.169207" style="fill: #9467bd; stroke: #9467bd"/>
     <use xlink:href="#m5b0acd17a1" x="580.262802" y="385.227681" style="fill: #9467bd; stroke: #9467bd"/>
     <use xlink:href="#m5b0acd17a1" x="596.524152" y="385.282719" style="fill: #9467bd; stroke: #9467bd"/>
     <use xlink:href="#m5b0acd17a1" x="612.785502" y="385.334615" style="fill: #9467bd; stroke: #9467bd"/>
     <use xlink:href="#m5b0acd17a1" x="629.046851" y="385.383631" style="fill: #9467bd; stroke: #9467bd"/>
     <use xlink:href="#m5b0acd17a1" x="645.308201" y="385.43" style="fill: #9467bd; stroke: #9467bd"/>
     <use xlink:href="#m5b0acd17a1" x="661.569551" y="385.473931" style="fill: #9467bd; stroke: #9467bd"/>
     <use xlink:href="#m5b0acd17a1" x="677.830901" y="385.515611" style="fill: #9467bd; stroke: #9467bd"/>
     <use xlink:href="#m5b0acd17a1" x="694.09225" y="385.555209" style="fill: #9467bd; stroke: #9467bd"/>
    </g>
   </g>
   <g id="line2d_29">
    <path d="M 43.638262 387.100937 
L 44.219025 213.824747 
L 44.799787 156.066017 
L 45.38055 213.824747 
L 45.961312 248.479985 
L 46.542075 271.583477 
L 47.122837 288.085972 
L 47.7036 257.143795 
L 48.284362 271.583477 
L 48.865125 283.135223 
L 49.445887 261.08189 
L 50.02665 271.583477 
L 50.607412 253.81156 
L 51.768937 271.583477 
L 52.930462 285.173767 
L 54.091987 295.902943 
L 55.253512 304.588466 
L 56.415037 311.763463 
L 57.576562 317.790461 
L 58.738087 322.924571 
L 59.899612 327.350527 
L 61.6419 332.952128 
L 63.384187 337.593455 
L 65.126475 341.50194 
L 66.868762 344.838452 
L 68.61105 347.719985 
L 70.353337 350.233663 
L 72.676387 353.125214 
L 74.999437 355.596176 
L 77.322487 357.732092 
L 79.645537 359.59678 
L 82.549349 361.619145 
L 85.453162 363.364473 
L 88.937737 365.167243 
L 92.422312 366.715503 
L 96.487649 368.266569 
L 101.133749 369.773318 
L 106.360611 371.204039 
L 112.168236 372.539913 
L 118.556624 373.772 
L 126.106536 374.983721 
L 134.817973 376.13409 
L 144.690936 377.199441 
L 156.306185 378.214979 
L 169.663723 379.152488 
L 185.34431 380.02844 
L 204.509472 380.867981 
L 227.739972 381.652001 
L 256.197333 382.379515 
L 291.623845 383.052428 
L 336.342557 383.669726 
L 394.418806 384.236868 
L 471.079454 384.749836 
L 575.03594 385.209276 
L 705.7075 385.582303 
L 705.7075 385.582303 
" clip-path="url(#p5d45c6fe0c)" style="fill: none; stroke: #8c564b; stroke-width: 2; stroke-linecap: square"/>
    <defs>
     <path id="m5b9ce17380" d="M 0 1.5 
C 0.397805 1.5 0.77937 1.341951 1.06066 1.06066 
C 1.341951 0.77937 1.5 0.397805 1.5 0 
C 1.5 -0.397805 1.341951 -0.77937 1.06066 -1.06066 
C 0.77937 -1.341951 0.397805 -1.5 0 -1.5 
C -0.397805 -1.5 -0.77937 -1.341951 -1.06066 -1.06066 
C -1.341951 -0.77937 -1.5 -0.397805 -1.5 0 
C -1.5 0.397805 -1.341951 0.77937 -1.06066 1.06066 
C -0.77937 1.341951 -0.397805 1.5 0 1.5 
z
" style="stroke: #8c564b"/>
    </defs>
    <g clip-path="url(#p5d45c6fe0c)">
     <use xlink:href="#m5b9ce17380" x="43.638262" y="387.100937" style="fill: #8c564b; stroke: #8c564b"/>
     <use xlink:href="#m5b9ce17380" x="59.899612" y="327.350527" style="fill: #8c564b; stroke: #8c564b"/>
     <use xlink:href="#m5b9ce17380" x="76.160962" y="356.701606" style="fill: #8c564b; stroke: #8c564b"/>
     <use xlink:href="#m5b9ce17380" x="92.422312" y="366.715503" style="fill: #8c564b; stroke: #8c564b"/>
     <use xlink:href="#m5b9ce17380" x="108.683661" y="371.766761" style="fill: #8c564b; stroke: #8c564b"/>
     <use xlink:href="#m5b9ce17380" x="124.945011" y="374.811846" style="fill: #8c564b; stroke: #8c564b"/>
     <use xlink:href="#m5b9ce17380" x="141.206361" y="376.847908" style="fill: #8c564b; stroke: #8c564b"/>
     <use xlink:href="#m5b9ce17380" x="157.46771" y="378.305192" style="fill: #8c564b; stroke: #8c564b"/>
     <use xlink:href="#m5b9ce17380" x="173.72906" y="379.399773" style="fill: #8c564b; stroke: #8c564b"/>
     <use xlink:href="#m5b9ce17380" x="189.99041" y="380.252076" style="fill: #8c564b; stroke: #8c564b"/>
     <use xlink:href="#m5b9ce17380" x="206.251759" y="380.934525" style="fill: #8c564b; stroke: #8c564b"/>
     <use xlink:href="#m5b9ce17380" x="222.513109" y="381.493294" style="fill: #8c564b; stroke: #8c564b"/>
     <use xlink:href="#m5b9ce17380" x="238.774459" y="381.959211" style="fill: #8c564b; stroke: #8c564b"/>
     <use xlink:href="#m5b9ce17380" x="255.035809" y="382.353645" style="fill: #8c564b; stroke: #8c564b"/>
     <use xlink:href="#m5b9ce17380" x="271.297158" y="382.691874" style="fill: #8c564b; stroke: #8c564b"/>
     <use xlink:href="#m5b9ce17380" x="287.558508" y="382.985113" style="fill: #8c564b; stroke: #8c564b"/>
     <use xlink:href="#m5b9ce17380" x="303.819858" y="383.24178" style="fill: #8c564b; stroke: #8c564b"/>
     <use xlink:href="#m5b9ce17380" x="320.081207" y="383.468313" style="fill: #8c564b; stroke: #8c564b"/>
     <use xlink:href="#m5b9ce17380" x="336.342557" y="383.669726" style="fill: #8c564b; stroke: #8c564b"/>
     <use xlink:href="#m5b9ce17380" x="352.603907" y="383.849977" style="fill: #8c564b; stroke: #8c564b"/>
     <use xlink:href="#m5b9ce17380" x="368.865256" y="384.012235" style="fill: #8c564b; stroke: #8c564b"/>
     <use xlink:href="#m5b9ce17380" x="385.126606" y="384.159067" style="fill: #8c564b; stroke: #8c564b"/>
     <use xlink:href="#m5b9ce17380" x="401.387956" y="384.292571" style="fill: #8c564b; stroke: #8c564b"/>
     <use xlink:href="#m5b9ce17380" x="417.649305" y="384.414485" style="fill: #8c564b; stroke: #8c564b"/>
     <use xlink:href="#m5b9ce17380" x="433.910655" y="384.526254" style="fill: #8c564b; stroke: #8c564b"/>
     <use xlink:href="#m5b9ce17380" x="450.172005" y="384.629095" style="fill: #8c564b; stroke: #8c564b"/>
     <use xlink:href="#m5b9ce17380" x="466.433355" y="384.724035" style="fill: #8c564b; stroke: #8c564b"/>
     <use xlink:href="#m5b9ce17380" x="482.694704" y="384.811952" style="fill: #8c564b; stroke: #8c564b"/>
     <use xlink:href="#m5b9ce17380" x="498.956054" y="384.893597" style="fill: #8c564b; stroke: #8c564b"/>
     <use xlink:href="#m5b9ce17380" x="515.217404" y="384.969619" style="fill: #8c564b; stroke: #8c564b"/>
     <use xlink:href="#m5b9ce17380" x="531.478753" y="385.040579" style="fill: #8c564b; stroke: #8c564b"/>
     <use xlink:href="#m5b9ce17380" x="547.740103" y="385.106965" style="fill: #8c564b; stroke: #8c564b"/>
     <use xlink:href="#m5b9ce17380" x="564.001453" y="385.169207" style="fill: #8c564b; stroke: #8c564b"/>
     <use xlink:href="#m5b9ce17380" x="580.262802" y="385.227681" style="fill: #8c564b; stroke: #8c564b"/>
     <use xlink:href="#m5b9ce17380" x="596.524152" y="385.282719" style="fill: #8c564b; stroke: #8c564b"/>
     <use xlink:href="#m5b9ce17380" x="612.785502" y="385.334615" style="fill: #8c564b; stroke: #8c564b"/>
     <use xlink:href="#m5b9ce17380" x="629.046851" y="385.383631" style="fill: #8c564b; stroke: #8c564b"/>
     <use xlink:href="#m5b9ce17380" x="645.308201" y="385.43" style="fill: #8c564b; stroke: #8c564b"/>
     <use xlink:href="#m5b9ce17380" x="661.569551" y="385.473931" style="fill: #8c564b; stroke: #8c564b"/>
     <use xlink:href="#m5b9ce17380" x="677.830901" y="385.515611" style="fill: #8c564b; stroke: #8c564b"/>
     <use xlink:href="#m5b9ce17380" x="694.09225" y="385.555209" style="fill: #8c564b; stroke: #8c564b"/>
    </g>
   </g>
   <g id="line2d_30">
    <path d="M 43.638262 387.100937 
L 47.7036 387.100937 
L 48.284362 348.595117 
L 48.865125 317.790461 
L 50.02665 329.342207 
L 50.607412 307.127311 
L 51.188175 312.839713 
L 51.768937 294.686969 
L 52.930462 305.559201 
L 53.511225 290.836387 
L 54.67275 300.462842 
L 55.834275 308.339033 
L 56.9958 314.902525 
L 58.157325 320.456249 
L 59.31885 325.216584 
L 61.061137 331.205392 
L 62.803425 336.137352 
L 64.545712 340.269535 
L 66.288 343.78189 
L 68.030287 346.804149 
L 69.772574 349.4322 
L 71.514862 351.73845 
L 73.837912 354.407317 
L 76.160962 356.701606 
L 78.484012 358.695005 
L 81.387824 360.846969 
L 84.291637 362.69584 
L 87.195449 364.301439 
L 90.680024 365.969695 
L 94.745362 367.631703 
L 98.810699 369.051334 
L 103.456799 370.439765 
L 108.683661 371.766761 
L 114.491286 373.013442 
L 121.460436 374.265664 
L 129.010348 375.393087 
L 137.721786 376.470496 
L 148.175511 377.527667 
L 160.371523 378.522908 
L 174.309823 379.433849 
L 191.151935 380.305793 
L 211.478622 381.125896 
L 235.870646 381.881775 
L 266.070296 382.588537 
L 303.819858 383.24178 
L 352.023144 383.843866 
L 414.745493 384.393497 
L 498.375291 384.890782 
L 612.785502 385.334615 
L 705.7075 385.582303 
L 705.7075 385.582303 
" clip-path="url(#p5d45c6fe0c)" style="fill: none; stroke: #e377c2; stroke-width: 2; stroke-linecap: square"/>
    <defs>
     <path id="m81f2d1352d" d="M 0 1.5 
C 0.397805 1.5 0.77937 1.341951 1.06066 1.06066 
C 1.341951 0.77937 1.5 0.397805 1.5 0 
C 1.5 -0.397805 1.341951 -0.77937 1.06066 -1.06066 
C 0.77937 -1.341951 0.397805 -1.5 0 -1.5 
C -0.397805 -1.5 -0.77937 -1.341951 -1.06066 -1.06066 
C -1.341951 -0.77937 -1.5 -0.397805 -1.5 0 
C -1.5 0.397805 -1.341951 0.77937 -1.06066 1.06066 
C -0.77937 1.341951 -0.397805 1.5 0 1.5 
z
" style="stroke: #e377c2"/>
    </defs>
    <g clip-path="url(#p5d45c6fe0c)">
     <use xlink:href="#m81f2d1352d" x="43.638262" y="387.100937" style="fill: #e377c2; stroke: #e377c2"/>
     <use xlink:href="#m81f2d1352d" x="59.899612" y="327.350527" style="fill: #e377c2; stroke: #e377c2"/>
     <use xlink:href="#m81f2d1352d" x="76.160962" y="356.701606" style="fill: #e377c2; stroke: #e377c2"/>
     <use xlink:href="#m81f2d1352d" x="92.422312" y="366.715503" style="fill: #e377c2; stroke: #e377c2"/>
     <use xlink:href="#m81f2d1352d" x="108.683661" y="371.766761" style="fill: #e377c2; stroke: #e377c2"/>
     <use xlink:href="#m81f2d1352d" x="124.945011" y="374.811846" style="fill: #e377c2; stroke: #e377c2"/>
     <use xlink:href="#m81f2d1352d" x="141.206361" y="376.847908" style="fill: #e377c2; stroke: #e377c2"/>
     <use xlink:href="#m81f2d1352d" x="157.46771" y="378.305192" style="fill: #e377c2; stroke: #e377c2"/>
     <use xlink:href="#m81f2d1352d" x="173.72906" y="379.399773" style="fill: #e377c2; stroke: #e377c2"/>
     <use xlink:href="#m81f2d1352d" x="189.99041" y="380.252076" style="fill: #e377c2; stroke: #e377c2"/>
     <use xlink:href="#m81f2d1352d" x="206.251759" y="380.934525" style="fill: #e377c2; stroke: #e377c2"/>
     <use xlink:href="#m81f2d1352d" x="222.513109" y="381.493294" style="fill: #e377c2; stroke: #e377c2"/>
     <use xlink:href="#m81f2d1352d" x="238.774459" y="381.959211" style="fill: #e377c2; stroke: #e377c2"/>
     <use xlink:href="#m81f2d1352d" x="255.035809" y="382.353645" style="fill: #e377c2; stroke: #e377c2"/>
     <use xlink:href="#m81f2d1352d" x="271.297158" y="382.691874" style="fill: #e377c2; stroke: #e377c2"/>
     <use xlink:href="#m81f2d1352d" x="287.558508" y="382.985113" style="fill: #e377c2; stroke: #e377c2"/>
     <use xlink:href="#m81f2d1352d" x="303.819858" y="383.24178" style="fill: #e377c2; stroke: #e377c2"/>
     <use xlink:href="#m81f2d1352d" x="320.081207" y="383.468313" style="fill: #e377c2; stroke: #e377c2"/>
     <use xlink:href="#m81f2d1352d" x="336.342557" y="383.669726" style="fill: #e377c2; stroke: #e377c2"/>
     <use xlink:href="#m81f2d1352d" x="352.603907" y="383.849977" style="fill: #e377c2; stroke: #e377c2"/>
     <use xlink:href="#m81f2d1352d" x="368.865256" y="384.012235" style="fill: #e377c2; stroke: #e377c2"/>
     <use xlink:href="#m81f2d1352d" x="385.126606" y="384.159067" style="fill: #e377c2; stroke: #e377c2"/>
     <use xlink:href="#m81f2d1352d" x="401.387956" y="384.292571" style="fill: #e377c2; stroke: #e377c2"/>
     <use xlink:href="#m81f2d1352d" x="417.649305" y="384.414485" style="fill: #e377c2; stroke: #e377c2"/>
     <use xlink:href="#m81f2d1352d" x="433.910655" y="384.526254" style="fill: #e377c2; stroke: #e377c2"/>
     <use xlink:href="#m81f2d1352d" x="450.172005" y="384.629095" style="fill: #e377c2; stroke: #e377c2"/>
     <use xlink:href="#m81f2d1352d" x="466.433355" y="384.724035" style="fill: #e377c2; stroke: #e377c2"/>
     <use xlink:href="#m81f2d1352d" x="482.694704" y="384.811952" style="fill: #e377c2; stroke: #e377c2"/>
     <use xlink:href="#m81f2d1352d" x="498.956054" y="384.893597" style="fill: #e377c2; stroke: #e377c2"/>
     <use xlink:href="#m81f2d1352d" x="515.217404" y="384.969619" style="fill: #e377c2; stroke: #e377c2"/>
     <use xlink:href="#m81f2d1352d" x="531.478753" y="385.040579" style="fill: #e377c2; stroke: #e377c2"/>
     <use xlink:href="#m81f2d1352d" x="547.740103" y="385.106965" style="fill: #e377c2; stroke: #e377c2"/>
     <use xlink:href="#m81f2d1352d" x="564.001453" y="385.169207" style="fill: #e377c2; stroke: #e377c2"/>
     <use xlink:href="#m81f2d1352d" x="580.262802" y="385.227681" style="fill: #e377c2; stroke: #e377c2"/>
     <use xlink:href="#m81f2d1352d" x="596.524152" y="385.282719" style="fill: #e377c2; stroke: #e377c2"/>
     <use xlink:href="#m81f2d1352d" x="612.785502" y="385.334615" style="fill: #e377c2; stroke: #e377c2"/>
     <use xlink:href="#m81f2d1352d" x="629.046851" y="385.383631" style="fill: #e377c2; stroke: #e377c2"/>
     <use xlink:href="#m81f2d1352d" x="645.308201" y="385.43" style="fill: #e377c2; stroke: #e377c2"/>
     <use xlink:href="#m81f2d1352d" x="661.569551" y="385.473931" style="fill: #e377c2; stroke: #e377c2"/>
     <use xlink:href="#m81f2d1352d" x="677.830901" y="385.515611" style="fill: #e377c2; stroke: #e377c2"/>
     <use xlink:href="#m81f2d1352d" x="694.09225" y="385.555209" style="fill: #e377c2; stroke: #e377c2"/>
    </g>
   </g>
   <g id="line2d_31">
    <path d="M 43.638262 387.100937 
L 45.38055 387.100937 
L 45.961312 317.790461 
L 46.542075 329.342207 
L 47.122837 288.085972 
L 47.7036 300.462842 
L 48.284362 271.583477 
L 48.865125 248.479985 
L 50.02665 271.583477 
L 51.188175 288.085972 
L 52.3497 300.462842 
L 53.511225 310.089297 
L 54.67275 317.790461 
L 55.253512 304.588466 
L 56.415037 311.763463 
L 57.576562 317.790461 
L 58.738087 322.924571 
L 59.899612 327.350527 
L 61.6419 332.952128 
L 63.384187 337.593455 
L 65.126475 341.50194 
L 66.868762 344.838452 
L 68.61105 347.719985 
L 70.353337 350.233663 
L 72.676387 353.125214 
L 74.999437 355.596176 
L 77.322487 357.732092 
L 79.645537 359.59678 
L 82.549349 361.619145 
L 85.453162 363.364473 
L 88.937737 365.167243 
L 92.422312 366.715503 
L 96.487649 368.266569 
L 101.133749 369.773318 
L 106.360611 371.204039 
L 112.168236 372.539913 
L 118.556624 373.772 
L 126.106536 374.983721 
L 134.817973 376.13409 
L 144.690936 377.199441 
L 156.306185 378.214979 
L 169.663723 379.152488 
L 185.34431 380.02844 
L 204.509472 380.867981 
L 227.739972 381.652001 
L 256.197333 382.379515 
L 291.623845 383.052428 
L 336.342557 383.669726 
L 394.418806 384.236868 
L 471.079454 384.749836 
L 575.03594 385.209276 
L 705.7075 385.582303 
L 705.7075 385.582303 
" clip-path="url(#p5d45c6fe0c)" style="fill: none; stroke: #17becf; stroke-width: 2; stroke-linecap: square"/>
    <defs>
     <path id="mc3bd9b9269" d="M 0 1.5 
C 0.397805 1.5 0.77937 1.341951 1.06066 1.06066 
C 1.341951 0.77937 1.5 0.397805 1.5 0 
C 1.5 -0.397805 1.341951 -0.77937 1.06066 -1.06066 
C 0.77937 -1.341951 0.397805 -1.5 0 -1.5 
C -0.397805 -1.5 -0.77937 -1.341951 -1.06066 -1.06066 
C -1.341951 -0.77937 -1.5 -0.397805 -1.5 0 
C -1.5 0.397805 -1.341951 0.77937 -1.06066 1.06066 
C -0.77937 1.341951 -0.397805 1.5 0 1.5 
z
" style="stroke: #17becf"/>
    </defs>
    <g clip-path="url(#p5d45c6fe0c)">
     <use xlink:href="#mc3bd9b9269" x="43.638262" y="387.100937" style="fill: #17becf; stroke: #17becf"/>
     <use xlink:href="#mc3bd9b9269" x="59.899612" y="327.350527" style="fill: #17becf; stroke: #17becf"/>
     <use xlink:href="#mc3bd9b9269" x="76.160962" y="356.701606" style="fill: #17becf; stroke: #17becf"/>
     <use xlink:href="#mc3bd9b9269" x="92.422312" y="366.715503" style="fill: #17becf; stroke: #17becf"/>
     <use xlink:href="#mc3bd9b9269" x="108.683661" y="371.766761" style="fill: #17becf; stroke: #17becf"/>
     <use xlink:href="#mc3bd9b9269" x="124.945011" y="374.811846" style="fill: #17becf; stroke: #17becf"/>
     <use xlink:href="#mc3bd9b9269" x="141.206361" y="376.847908" style="fill: #17becf; stroke: #17becf"/>
     <use xlink:href="#mc3bd9b9269" x="157.46771" y="378.305192" style="fill: #17becf; stroke: #17becf"/>
     <use xlink:href="#mc3bd9b9269" x="173.72906" y="379.399773" style="fill: #17becf; stroke: #17becf"/>
     <use xlink:href="#mc3bd9b9269" x="189.99041" y="380.252076" style="fill: #17becf; stroke: #17becf"/>
     <use xlink:href="#mc3bd9b9269" x="206.251759" y="380.934525" style="fill: #17becf; stroke: #17becf"/>
     <use xlink:href="#mc3bd9b9269" x="222.513109" y="381.493294" style="fill: #17becf; stroke: #17becf"/>
     <use xlink:href="#mc3bd9b9269" x="238.774459" y="381.959211" style="fill: #17becf; stroke: #17becf"/>
     <use xlink:href="#mc3bd9b9269" x="255.035809" y="382.353645" style="fill: #17becf; stroke: #17becf"/>
     <use xlink:href="#mc3bd9b9269" x="271.297158" y="382.691874" style="fill: #17becf; stroke: #17becf"/>
     <use xlink:href="#mc3bd9b9269" x="287.558508" y="382.985113" style="fill: #17becf; stroke: #17becf"/>
     <use xlink:href="#mc3bd9b9269" x="303.819858" y="383.24178" style="fill: #17becf; stroke: #17becf"/>
     <use xlink:href="#mc3bd9b9269" x="320.081207" y="383.468313" style="fill: #17becf; stroke: #17becf"/>
     <use xlink:href="#mc3bd9b9269" x="336.342557" y="383.669726" style="fill: #17becf; stroke: #17becf"/>
     <use xlink:href="#mc3bd9b9269" x="352.603907" y="383.849977" style="fill: #17becf; stroke: #17becf"/>
     <use xlink:href="#mc3bd9b9269" x="368.865256" y="384.012235" style="fill: #17becf; stroke: #17becf"/>
     <use xlink:href="#mc3bd9b9269" x="385.126606" y="384.159067" style="fill: #17becf; stroke: #17becf"/>
     <use xlink:href="#mc3bd9b9269" x="401.387956" y="384.292571" style="fill: #17becf; stroke: #17becf"/>
     <use xlink:href="#mc3bd9b9269" x="417.649305" y="384.414485" style="fill: #17becf; stroke: #17becf"/>
     <use xlink:href="#mc3bd9b9269" x="433.910655" y="384.526254" style="fill: #17becf; stroke: #17becf"/>
     <use xlink:href="#mc3bd9b9269" x="450.172005" y="384.629095" style="fill: #17becf; stroke: #17becf"/>
     <use xlink:href="#mc3bd9b9269" x="466.433355" y="384.724035" style="fill: #17becf; stroke: #17becf"/>
     <use xlink:href="#mc3bd9b9269" x="482.694704" y="384.811952" style="fill: #17becf; stroke: #17becf"/>
     <use xlink:href="#mc3bd9b9269" x="498.956054" y="384.893597" style="fill: #17becf; stroke: #17becf"/>
     <use xlink:href="#mc3bd9b9269" x="515.217404" y="384.969619" style="fill: #17becf; stroke: #17becf"/>
     <use xlink:href="#mc3bd9b9269" x="531.478753" y="385.040579" style="fill: #17becf; stroke: #17becf"/>
     <use xlink:href="#mc3bd9b9269" x="547.740103" y="385.106965" style="fill: #17becf; stroke: #17becf"/>
     <use xlink:href="#mc3bd9b9269" x="564.001453" y="385.169207" style="fill: #17becf; stroke: #17becf"/>
     <use xlink:href="#mc3bd9b9269" x="580.262802" y="385.227681" style="fill: #17becf; stroke: #17becf"/>
     <use xlink:href="#mc3bd9b9269" x="596.524152" y="385.282719" style="fill: #17becf; stroke: #17becf"/>
     <use xlink:href="#mc3bd9b9269" x="612.785502" y="385.334615" style="fill: #17becf; stroke: #17becf"/>
     <use xlink:href="#mc3bd9b9269" x="629.046851" y="385.383631" style="fill: #17becf; stroke: #17becf"/>
     <use xlink:href="#mc3bd9b9269" x="645.308201" y="385.43" style="fill: #17becf; stroke: #17becf"/>
     <use xlink:href="#mc3bd9b9269" x="661.569551" y="385.473931" style="fill: #17becf; stroke: #17becf"/>
     <use xlink:href="#mc3bd9b9269" x="677.830901" y="385.515611" style="fill: #17becf; stroke: #17becf"/>
     <use xlink:href="#mc3bd9b9269" x="694.09225" y="385.555209" style="fill: #17becf; stroke: #17becf"/>
    </g>
   </g>
   <g id="line2d_32">
    <path d="M 43.638262 40.548557 
L 44.219025 213.824747 
L 44.799787 271.583477 
L 45.38055 300.462842 
L 45.961312 317.790461 
L 46.542075 271.583477 
L 47.122837 238.578489 
L 47.7036 213.824747 
L 48.284362 233.077657 
L 48.865125 213.824747 
L 50.02665 242.704112 
L 51.188175 263.33223 
L 52.3497 278.803318 
L 53.511225 290.836387 
L 54.67275 300.462842 
L 55.834275 308.339033 
L 56.9958 314.902525 
L 58.157325 320.456249 
L 59.31885 325.216584 
L 61.061137 331.205392 
L 62.803425 336.137352 
L 64.545712 340.269535 
L 66.288 343.78189 
L 68.030287 346.804149 
L 69.772574 349.4322 
L 71.514862 351.73845 
L 73.837912 354.407317 
L 76.160962 356.701606 
L 78.484012 358.695005 
L 81.387824 360.846969 
L 84.291637 362.69584 
L 87.195449 364.301439 
L 90.680024 365.969695 
L 94.745362 367.631703 
L 98.810699 369.051334 
L 103.456799 370.439765 
L 108.683661 371.766761 
L 114.491286 373.013442 
L 121.460436 374.265664 
L 129.010348 375.393087 
L 137.721786 376.470496 
L 148.175511 377.527667 
L 160.371523 378.522908 
L 174.309823 379.433849 
L 191.151935 380.305793 
L 211.478622 381.125896 
L 235.870646 381.881775 
L 266.070296 382.588537 
L 303.819858 383.24178 
L 352.023144 383.843866 
L 414.745493 384.393497 
L 498.375291 384.890782 
L 612.785502 385.334615 
L 705.7075 385.582303 
L 705.7075 385.582303 
" clip-path="url(#p5d45c6fe0c)" style="fill: none; stroke: #e31818; stroke-width: 2.5; stroke-linecap: square"/>
    <defs>
     <path id="m4b4635a85c" d="M 0 1.5 
C 0.397805 1.5 0.77937 1.341951 1.06066 1.06066 
C 1.341951 0.77937 1.5 0.397805 1.5 0 
C 1.5 -0.397805 1.341951 -0.77937 1.06066 -1.06066 
C 0.77937 -1.341951 0.397805 -1.5 0 -1.5 
C -0.397805 -1.5 -0.77937 -1.341951 -1.06066 -1.06066 
C -1.341951 -0.77937 -1.5 -0.397805 -1.5 0 
C -1.5 0.397805 -1.341951 0.77937 -1.06066 1.06066 
C -0.77937 1.341951 -0.397805 1.5 0 1.5 
z
" style="stroke: #e31818"/>
    </defs>
    <g clip-path="url(#p5d45c6fe0c)">
     <use xlink:href="#m4b4635a85c" x="43.638262" y="40.548557" style="fill: #e31818; stroke: #e31818"/>
     <use xlink:href="#m4b4635a85c" x="59.899612" y="327.350527" style="fill: #e31818; stroke: #e31818"/>
     <use xlink:href="#m4b4635a85c" x="76.160962" y="356.701606" style="fill: #e31818; stroke: #e31818"/>
     <use xlink:href="#m4b4635a85c" x="92.422312" y="366.715503" style="fill: #e31818; stroke: #e31818"/>
     <use xlink:href="#m4b4635a85c" x="108.683661" y="371.766761" style="fill: #e31818; stroke: #e31818"/>
     <use xlink:href="#m4b4635a85c" x="124.945011" y="374.811846" style="fill: #e31818; stroke: #e31818"/>
     <use xlink:href="#m4b4635a85c" x="141.206361" y="376.847908" style="fill: #e31818; stroke: #e31818"/>
     <use xlink:href="#m4b4635a85c" x="157.46771" y="378.305192" style="fill: #e31818; stroke: #e31818"/>
     <use xlink:href="#m4b4635a85c" x="173.72906" y="379.399773" style="fill: #e31818; stroke: #e31818"/>
     <use xlink:href="#m4b4635a85c" x="189.99041" y="380.252076" style="fill: #e31818; stroke: #e31818"/>
     <use xlink:href="#m4b4635a85c" x="206.251759" y="380.934525" style="fill: #e31818; stroke: #e31818"/>
     <use xlink:href="#m4b4635a85c" x="222.513109" y="381.493294" style="fill: #e31818; stroke: #e31818"/>
     <use xlink:href="#m4b4635a85c" x="238.774459" y="381.959211" style="fill: #e31818; stroke: #e31818"/>
     <use xlink:href="#m4b4635a85c" x="255.035809" y="382.353645" style="fill: #e31818; stroke: #e31818"/>
     <use xlink:href="#m4b4635a85c" x="271.297158" y="382.691874" style="fill: #e31818; stroke: #e31818"/>
     <use xlink:href="#m4b4635a85c" x="287.558508" y="382.985113" style="fill: #e31818; stroke: #e31818"/>
     <use xlink:href="#m4b4635a85c" x="303.819858" y="383.24178" style="fill: #e31818; stroke: #e31818"/>
     <use xlink:href="#m4b4635a85c" x="320.081207" y="383.468313" style="fill: #e31818; stroke: #e31818"/>
     <use xlink:href="#m4b4635a85c" x="336.342557" y="383.669726" style="fill: #e31818; stroke: #e31818"/>
     <use xlink:href="#m4b4635a85c" x="352.603907" y="383.849977" style="fill: #e31818; stroke: #e31818"/>
     <use xlink:href="#m4b4635a85c" x="368.865256" y="384.012235" style="fill: #e31818; stroke: #e31818"/>
     <use xlink:href="#m4b4635a85c" x="385.126606" y="384.159067" style="fill: #e31818; stroke: #e31818"/>
     <use xlink:href="#m4b4635a85c" x="401.387956" y="384.292571" style="fill: #e31818; stroke: #e31818"/>
     <use xlink:href="#m4b4635a85c" x="417.649305" y="384.414485" style="fill: #e31818; stroke: #e31818"/>
     <use xlink:href="#m4b4635a85c" x="433.910655" y="384.526254" style="fill: #e31818; stroke: #e31818"/>
     <use xlink:href="#m4b4635a85c" x="450.172005" y="384.629095" style="fill: #e31818; stroke: #e31818"/>
     <use xlink:href="#m4b4635a85c" x="466.433355" y="384.724035" style="fill: #e31818; stroke: #e31818"/>
     <use xlink:href="#m4b4635a85c" x="482.694704" y="384.811952" style="fill: #e31818; stroke: #e31818"/>
     <use xlink:href="#m4b4635a85c" x="498.956054" y="384.893597" style="fill: #e31818; stroke: #e31818"/>
     <use xlink:href="#m4b4635a85c" x="515.217404" y="384.969619" style="fill: #e31818; stroke: #e31818"/>
     <use xlink:href="#m4b4635a85c" x="531.478753" y="385.040579" style="fill: #e31818; stroke: #e31818"/>
     <use xlink:href="#m4b4635a85c" x="547.740103" y="385.106965" style="fill: #e31818; stroke: #e31818"/>
     <use xlink:href="#m4b4635a85c" x="564.001453" y="385.169207" style="fill: #e31818; stroke: #e31818"/>
     <use xlink:href="#m4b4635a85c" x="580.262802" y="385.227681" style="fill: #e31818; stroke: #e31818"/>
     <use xlink:href="#m4b4635a85c" x="596.524152" y="385.282719" style="fill: #e31818; stroke: #e31818"/>
     <use xlink:href="#m4b4635a85c" x="612.785502" y="385.334615" style="fill: #e31818; stroke: #e31818"/>
     <use xlink:href="#m4b4635a85c" x="629.046851" y="385.383631" style="fill: #e31818; stroke: #e31818"/>
     <use xlink:href="#m4b4635a85c" x="645.308201" y="385.43" style="fill: #e31818; stroke: #e31818"/>
     <use xlink:href="#m4b4635a85c" x="661.569551" y="385.473931" style="fill: #e31818; stroke: #e31818"/>
     <use xlink:href="#m4b4635a85c" x="677.830901" y="385.515611" style="fill: #e31818; stroke: #e31818"/>
     <use xlink:href="#m4b4635a85c" x="694.09225" y="385.555209" style="fill: #e31818; stroke: #e31818"/>
    </g>
   </g>
   <g id="patch_3">
    <path d="M 43.0575 387.100937 
L 43.0575 23.220937 
" style="fill: none; stroke: #000000; stroke-width: 0.8; stroke-linejoin: miter; stroke-linecap: square"/>
   </g>
   <g id="patch_4">
    <path d="M 705.7075 387.100937 
L 705.7075 23.220937 
" style="fill: none; stroke: #000000; stroke-width: 0.8; stroke-linejoin: miter; stroke-linecap: square"/>
   </g>
   <g id="patch_5">
    <path d="M 43.0575 387.100937 
L 705.7075 387.100937 
" style="fill: none; stroke: #000000; stroke-width: 0.8; stroke-linejoin: miter; stroke-linecap: square"/>
   </g>
   <g id="patch_6">
    <path d="M 43.0575 23.220937 
L 705.7075 23.220937 
" style="fill: none; stroke: #000000; stroke-width: 0.8; stroke-linejoin: miter; stroke-linecap: square"/>
   </g>
   <g id="text_15">
    <!-- Precision vs k - yeast -->
    <g transform="translate(303.181563 17.220937) scale(0.14 -0.14)">
     <defs>
      <path id="Arial-BoldMT-76" d="M 1372 0 
L 34 3319 
L 956 3319 
L 1581 1625 
L 1763 1059 
Q 1834 1275 1853 1344 
Q 1897 1484 1947 1625 
L 2578 3319 
L 3481 3319 
L 2163 0 
L 1372 0 
z
" transform="scale(0.015625)"/>
      <path id="Arial-BoldMT-2d" d="M 359 1222 
L 359 2100 
L 2084 2100 
L 2084 1222 
L 359 1222 
z
" transform="scale(0.015625)"/>
      <path id="Arial-BoldMT-79" d="M 44 3319 
L 978 3319 
L 1772 963 
L 2547 3319 
L 3456 3319 
L 2284 125 
L 2075 -453 
Q 1959 -744 1854 -897 
Q 1750 -1050 1614 -1145 
Q 1478 -1241 1279 -1294 
Q 1081 -1347 831 -1347 
Q 578 -1347 334 -1294 
L 256 -606 
Q 463 -647 628 -647 
Q 934 -647 1081 -467 
Q 1228 -288 1306 -9 
L 44 3319 
z
" transform="scale(0.015625)"/>
      <path id="Arial-BoldMT-61" d="M 1116 2306 
L 319 2450 
Q 453 2931 781 3162 
Q 1109 3394 1756 3394 
Q 2344 3394 2631 3255 
Q 2919 3116 3036 2902 
Q 3153 2688 3153 2116 
L 3144 1091 
Q 3144 653 3186 445 
Q 3228 238 3344 0 
L 2475 0 
Q 2441 88 2391 259 
Q 2369 338 2359 363 
Q 2134 144 1878 34 
Q 1622 -75 1331 -75 
Q 819 -75 523 203 
Q 228 481 228 906 
Q 228 1188 362 1408 
Q 497 1628 739 1745 
Q 981 1863 1438 1950 
Q 2053 2066 2291 2166 
L 2291 2253 
Q 2291 2506 2166 2614 
Q 2041 2722 1694 2722 
Q 1459 2722 1328 2630 
Q 1197 2538 1116 2306 
z
M 2291 1594 
Q 2122 1538 1756 1459 
Q 1391 1381 1278 1306 
Q 1106 1184 1106 997 
Q 1106 813 1243 678 
Q 1381 544 1594 544 
Q 1831 544 2047 700 
Q 2206 819 2256 991 
Q 2291 1103 2291 1419 
L 2291 1594 
z
" transform="scale(0.015625)"/>
      <path id="Arial-BoldMT-74" d="M 1981 3319 
L 1981 2619 
L 1381 2619 
L 1381 1281 
Q 1381 875 1398 808 
Q 1416 741 1477 697 
Q 1538 653 1625 653 
Q 1747 653 1978 738 
L 2053 56 
Q 1747 -75 1359 -75 
Q 1122 -75 931 4 
Q 741 84 652 211 
Q 563 338 528 553 
Q 500 706 500 1172 
L 500 2619 
L 97 2619 
L 97 3319 
L 500 3319 
L 500 3978 
L 1381 4491 
L 1381 3319 
L 1981 3319 
z
" transform="scale(0.015625)"/>
     </defs>
     <use xlink:href="#Arial-BoldMT-50"/>
     <use xlink:href="#Arial-BoldMT-72" transform="translate(66.699219 0)"/>
     <use xlink:href="#Arial-BoldMT-65" transform="translate(105.615234 0)"/>
     <use xlink:href="#Arial-BoldMT-63" transform="translate(161.230469 0)"/>
     <use xlink:href="#Arial-BoldMT-69" transform="translate(216.845703 0)"/>
     <use xlink:href="#Arial-BoldMT-73" transform="translate(244.628906 0)"/>
     <use xlink:href="#Arial-BoldMT-69" transform="translate(300.244141 0)"/>
     <use xlink:href="#Arial-BoldMT-6f" transform="translate(328.027344 0)"/>
     <use xlink:href="#Arial-BoldMT-6e" transform="translate(389.111328 0)"/>
     <use xlink:href="#Arial-BoldMT-20" transform="translate(450.195312 0)"/>
     <use xlink:href="#Arial-BoldMT-76" transform="translate(477.978516 0)"/>
     <use xlink:href="#Arial-BoldMT-73" transform="translate(533.59375 0)"/>
     <use xlink:href="#Arial-BoldMT-20" transform="translate(589.208984 0)"/>
     <use xlink:href="#Arial-BoldMT-6b" transform="translate(616.992188 0)"/>
     <use xlink:href="#Arial-BoldMT-20" transform="translate(672.607422 0)"/>
     <use xlink:href="#Arial-BoldMT-2d" transform="translate(700.390625 0)"/>
     <use xlink:href="#Arial-BoldMT-20" transform="translate(733.691406 0)"/>
     <use xlink:href="#Arial-BoldMT-79" transform="translate(761.474609 0)"/>
     <use xlink:href="#Arial-BoldMT-65" transform="translate(817.089844 0)"/>
     <use xlink:href="#Arial-BoldMT-61" transform="translate(872.705078 0)"/>
     <use xlink:href="#Arial-BoldMT-73" transform="translate(928.320312 0)"/>
     <use xlink:href="#Arial-BoldMT-74" transform="translate(983.935547 0)"/>
    </g>
   </g>
   <g id="legend_1">
    <g id="patch_7">
     <path d="M 633.610469 132.267187 
L 699.4075 132.267187 
Q 701.2075 132.267187 701.2075 130.467187 
L 701.2075 29.520938 
Q 701.2075 27.720937 699.4075 27.720937 
L 633.610469 27.720937 
Q 631.810469 27.720937 631.810469 29.520938 
L 631.810469 130.467187 
Q 631.810469 132.267187 633.610469 132.267187 
z
" style="fill: #ffffff; opacity: 0.8; stroke: #cccccc; stroke-linejoin: miter"/>
    </g>
    <g id="line2d_33">
     <path d="M 635.410469 34.612969 
L 644.410469 34.612969 
L 653.410469 34.612969 
" style="fill: none; stroke: #1f77b4; stroke-width: 2; stroke-linecap: square"/>
     <g>
      <use xlink:href="#ma24f2d2942" x="644.410469" y="34.612969" style="fill: #1f77b4; stroke: #1f77b4"/>
     </g>
    </g>
    <g id="text_16">
     <!-- ADFNR -->
     <g transform="translate(660.610469 37.762969) scale(0.09 -0.09)">
      <defs>
       <path id="ArialMT-41" d="M -9 0 
L 1750 4581 
L 2403 4581 
L 4278 0 
L 3588 0 
L 3053 1388 
L 1138 1388 
L 634 0 
L -9 0 
z
M 1313 1881 
L 2866 1881 
L 2388 3150 
Q 2169 3728 2063 4100 
Q 1975 3659 1816 3225 
L 1313 1881 
z
" transform="scale(0.015625)"/>
       <path id="ArialMT-44" d="M 494 0 
L 494 4581 
L 2072 4581 
Q 2606 4581 2888 4516 
Q 3281 4425 3559 4188 
Q 3922 3881 4101 3404 
Q 4281 2928 4281 2316 
Q 4281 1794 4159 1391 
Q 4038 988 3847 723 
Q 3656 459 3429 307 
Q 3203 156 2883 78 
Q 2563 0 2147 0 
L 494 0 
z
M 1100 541 
L 2078 541 
Q 2531 541 2789 625 
Q 3047 709 3200 863 
Q 3416 1078 3536 1442 
Q 3656 1806 3656 2325 
Q 3656 3044 3420 3430 
Q 3184 3816 2847 3947 
Q 2603 4041 2063 4041 
L 1100 4041 
L 1100 541 
z
" transform="scale(0.015625)"/>
       <path id="ArialMT-46" d="M 525 0 
L 525 4581 
L 3616 4581 
L 3616 4041 
L 1131 4041 
L 1131 2622 
L 3281 2622 
L 3281 2081 
L 1131 2081 
L 1131 0 
L 525 0 
z
" transform="scale(0.015625)"/>
       <path id="ArialMT-4e" d="M 488 0 
L 488 4581 
L 1109 4581 
L 3516 984 
L 3516 4581 
L 4097 4581 
L 4097 0 
L 3475 0 
L 1069 3600 
L 1069 0 
L 488 0 
z
" transform="scale(0.015625)"/>
       <path id="ArialMT-52" d="M 503 0 
L 503 4581 
L 2534 4581 
Q 3147 4581 3465 4457 
Q 3784 4334 3975 4021 
Q 4166 3709 4166 3331 
Q 4166 2844 3850 2509 
Q 3534 2175 2875 2084 
Q 3116 1969 3241 1856 
Q 3506 1613 3744 1247 
L 4541 0 
L 3778 0 
L 3172 953 
Q 2906 1366 2734 1584 
Q 2563 1803 2427 1890 
Q 2291 1978 2150 2013 
Q 2047 2034 1813 2034 
L 1109 2034 
L 1109 0 
L 503 0 
z
M 1109 2559 
L 2413 2559 
Q 2828 2559 3062 2645 
Q 3297 2731 3419 2920 
Q 3541 3109 3541 3331 
Q 3541 3656 3305 3865 
Q 3069 4075 2559 4075 
L 1109 4075 
L 1109 2559 
z
" transform="scale(0.015625)"/>
      </defs>
      <use xlink:href="#ArialMT-41"/>
      <use xlink:href="#ArialMT-44" transform="translate(66.699219 0)"/>
      <use xlink:href="#ArialMT-46" transform="translate(138.916016 0)"/>
      <use xlink:href="#ArialMT-4e" transform="translate(200 0)"/>
      <use xlink:href="#ArialMT-52" transform="translate(272.216797 0)"/>
     </g>
    </g>
    <g id="line2d_34">
     <path d="M 635.410469 47.34375 
L 644.410469 47.34375 
L 653.410469 47.34375 
" style="fill: none; stroke: #ff7f0e; stroke-width: 2; stroke-linecap: square"/>
     <g>
      <use xlink:href="#m68cfdebda0" x="644.410469" y="47.34375" style="fill: #ff7f0e; stroke: #ff7f0e"/>
     </g>
    </g>
    <g id="text_17">
     <!-- DASOD -->
     <g transform="translate(660.610469 50.49375) scale(0.09 -0.09)">
      <defs>
       <path id="ArialMT-53" d="M 288 1472 
L 859 1522 
Q 900 1178 1048 958 
Q 1197 738 1509 602 
Q 1822 466 2213 466 
Q 2559 466 2825 569 
Q 3091 672 3220 851 
Q 3350 1031 3350 1244 
Q 3350 1459 3225 1620 
Q 3100 1781 2813 1891 
Q 2628 1963 1997 2114 
Q 1366 2266 1113 2400 
Q 784 2572 623 2826 
Q 463 3081 463 3397 
Q 463 3744 659 4045 
Q 856 4347 1234 4503 
Q 1613 4659 2075 4659 
Q 2584 4659 2973 4495 
Q 3363 4331 3572 4012 
Q 3781 3694 3797 3291 
L 3216 3247 
Q 3169 3681 2898 3903 
Q 2628 4125 2100 4125 
Q 1550 4125 1298 3923 
Q 1047 3722 1047 3438 
Q 1047 3191 1225 3031 
Q 1400 2872 2139 2705 
Q 2878 2538 3153 2413 
Q 3553 2228 3743 1945 
Q 3934 1663 3934 1294 
Q 3934 928 3725 604 
Q 3516 281 3123 101 
Q 2731 -78 2241 -78 
Q 1619 -78 1198 103 
Q 778 284 539 648 
Q 300 1013 288 1472 
z
" transform="scale(0.015625)"/>
       <path id="ArialMT-4f" d="M 309 2231 
Q 309 3372 921 4017 
Q 1534 4663 2503 4663 
Q 3138 4663 3647 4359 
Q 4156 4056 4423 3514 
Q 4691 2972 4691 2284 
Q 4691 1588 4409 1038 
Q 4128 488 3612 205 
Q 3097 -78 2500 -78 
Q 1853 -78 1343 234 
Q 834 547 571 1087 
Q 309 1628 309 2231 
z
M 934 2222 
Q 934 1394 1379 917 
Q 1825 441 2497 441 
Q 3181 441 3623 922 
Q 4066 1403 4066 2288 
Q 4066 2847 3877 3264 
Q 3688 3681 3323 3911 
Q 2959 4141 2506 4141 
Q 1863 4141 1398 3698 
Q 934 3256 934 2222 
z
" transform="scale(0.015625)"/>
      </defs>
      <use xlink:href="#ArialMT-44"/>
      <use xlink:href="#ArialMT-41" transform="translate(72.216797 0)"/>
      <use xlink:href="#ArialMT-53" transform="translate(138.916016 0)"/>
      <use xlink:href="#ArialMT-4f" transform="translate(205.615234 0)"/>
      <use xlink:href="#ArialMT-44" transform="translate(283.398438 0)"/>
     </g>
    </g>
    <g id="line2d_35">
     <path d="M 635.410469 60.074531 
L 644.410469 60.074531 
L 653.410469 60.074531 
" style="fill: none; stroke: #2ca02c; stroke-width: 2; stroke-linecap: square"/>
     <g>
      <use xlink:href="#m448feeed9f" x="644.410469" y="60.074531" style="fill: #2ca02c; stroke: #2ca02c"/>
     </g>
    </g>
    <g id="text_18">
     <!-- GCN -->
     <g transform="translate(660.610469 63.224531) scale(0.09 -0.09)">
      <defs>
       <path id="ArialMT-47" d="M 2638 1797 
L 2638 2334 
L 4578 2338 
L 4578 638 
Q 4131 281 3656 101 
Q 3181 -78 2681 -78 
Q 2006 -78 1454 211 
Q 903 500 622 1047 
Q 341 1594 341 2269 
Q 341 2938 620 3517 
Q 900 4097 1425 4378 
Q 1950 4659 2634 4659 
Q 3131 4659 3532 4498 
Q 3934 4338 4162 4050 
Q 4391 3763 4509 3300 
L 3963 3150 
Q 3859 3500 3706 3700 
Q 3553 3900 3268 4020 
Q 2984 4141 2638 4141 
Q 2222 4141 1919 4014 
Q 1616 3888 1430 3681 
Q 1244 3475 1141 3228 
Q 966 2803 966 2306 
Q 966 1694 1177 1281 
Q 1388 869 1791 669 
Q 2194 469 2647 469 
Q 3041 469 3416 620 
Q 3791 772 3984 944 
L 3984 1797 
L 2638 1797 
z
" transform="scale(0.015625)"/>
       <path id="ArialMT-43" d="M 3763 1606 
L 4369 1453 
Q 4178 706 3683 314 
Q 3188 -78 2472 -78 
Q 1731 -78 1267 223 
Q 803 525 561 1097 
Q 319 1669 319 2325 
Q 319 3041 592 3573 
Q 866 4106 1370 4382 
Q 1875 4659 2481 4659 
Q 3169 4659 3637 4309 
Q 4106 3959 4291 3325 
L 3694 3184 
Q 3534 3684 3231 3912 
Q 2928 4141 2469 4141 
Q 1941 4141 1586 3887 
Q 1231 3634 1087 3207 
Q 944 2781 944 2328 
Q 944 1744 1114 1308 
Q 1284 872 1643 656 
Q 2003 441 2422 441 
Q 2931 441 3284 734 
Q 3638 1028 3763 1606 
z
" transform="scale(0.015625)"/>
      </defs>
      <use xlink:href="#ArialMT-47"/>
      <use xlink:href="#ArialMT-43" transform="translate(77.783203 0)"/>
      <use xlink:href="#ArialMT-4e" transform="translate(150 0)"/>
     </g>
    </g>
    <g id="line2d_36">
     <path d="M 635.410469 72.805312 
L 644.410469 72.805312 
L 653.410469 72.805312 
" style="fill: none; stroke: #9467bd; stroke-width: 2; stroke-linecap: square"/>
     <g>
      <use xlink:href="#m5b0acd17a1" x="644.410469" y="72.805312" style="fill: #9467bd; stroke: #9467bd"/>
     </g>
    </g>
    <g id="text_19">
     <!-- GCOD -->
     <g transform="translate(660.610469 75.955312) scale(0.09 -0.09)">
      <use xlink:href="#ArialMT-47"/>
      <use xlink:href="#ArialMT-43" transform="translate(77.783203 0)"/>
      <use xlink:href="#ArialMT-4f" transform="translate(150 0)"/>
      <use xlink:href="#ArialMT-44" transform="translate(227.783203 0)"/>
     </g>
    </g>
    <g id="line2d_37">
     <path d="M 635.410469 85.536094 
L 644.410469 85.536094 
L 653.410469 85.536094 
" style="fill: none; stroke: #8c564b; stroke-width: 2; stroke-linecap: square"/>
     <g>
      <use xlink:href="#m5b9ce17380" x="644.410469" y="85.536094" style="fill: #8c564b; stroke: #8c564b"/>
     </g>
    </g>
    <g id="text_20">
     <!-- IE -->
     <g transform="translate(660.610469 88.686094) scale(0.09 -0.09)">
      <defs>
       <path id="ArialMT-49" d="M 597 0 
L 597 4581 
L 1203 4581 
L 1203 0 
L 597 0 
z
" transform="scale(0.015625)"/>
       <path id="ArialMT-45" d="M 506 0 
L 506 4581 
L 3819 4581 
L 3819 4041 
L 1113 4041 
L 1113 2638 
L 3647 2638 
L 3647 2100 
L 1113 2100 
L 1113 541 
L 3925 541 
L 3925 0 
L 506 0 
z
" transform="scale(0.015625)"/>
      </defs>
      <use xlink:href="#ArialMT-49"/>
      <use xlink:href="#ArialMT-45" transform="translate(27.783203 0)"/>
     </g>
    </g>
    <g id="line2d_38">
     <path d="M 635.410469 98.266875 
L 644.410469 98.266875 
L 653.410469 98.266875 
" style="fill: none; stroke: #e377c2; stroke-width: 2; stroke-linecap: square"/>
     <g>
      <use xlink:href="#m81f2d1352d" x="644.410469" y="98.266875" style="fill: #e377c2; stroke: #e377c2"/>
     </g>
    </g>
    <g id="text_21">
     <!-- KNN -->
     <g transform="translate(660.610469 101.416875) scale(0.09 -0.09)">
      <defs>
       <path id="ArialMT-4b" d="M 469 0 
L 469 4581 
L 1075 4581 
L 1075 2309 
L 3350 4581 
L 4172 4581 
L 2250 2725 
L 4256 0 
L 3456 0 
L 1825 2319 
L 1075 1588 
L 1075 0 
L 469 0 
z
" transform="scale(0.015625)"/>
      </defs>
      <use xlink:href="#ArialMT-4b"/>
      <use xlink:href="#ArialMT-4e" transform="translate(66.699219 0)"/>
      <use xlink:href="#ArialMT-4e" transform="translate(138.916016 0)"/>
     </g>
    </g>
    <g id="line2d_39">
     <path d="M 635.410469 110.997656 
L 644.410469 110.997656 
L 653.410469 110.997656 
" style="fill: none; stroke: #17becf; stroke-width: 2; stroke-linecap: square"/>
     <g>
      <use xlink:href="#mc3bd9b9269" x="644.410469" y="110.997656" style="fill: #17becf; stroke: #17becf"/>
     </g>
    </g>
    <g id="text_22">
     <!-- NIEOD -->
     <g transform="translate(660.610469 114.147656) scale(0.09 -0.09)">
      <use xlink:href="#ArialMT-4e"/>
      <use xlink:href="#ArialMT-49" transform="translate(72.216797 0)"/>
      <use xlink:href="#ArialMT-45" transform="translate(100 0)"/>
      <use xlink:href="#ArialMT-4f" transform="translate(166.699219 0)"/>
      <use xlink:href="#ArialMT-44" transform="translate(244.482422 0)"/>
     </g>
    </g>
    <g id="line2d_40">
     <path d="M 635.410469 123.728437 
L 644.410469 123.728437 
L 653.410469 123.728437 
" style="fill: none; stroke: #e31818; stroke-width: 2.5; stroke-linecap: square"/>
     <g>
      <use xlink:href="#m4b4635a85c" x="644.410469" y="123.728437" style="fill: #e31818; stroke: #e31818"/>
     </g>
    </g>
    <g id="text_23">
     <!-- NMIGOD -->
     <g transform="translate(660.610469 126.878437) scale(0.09 -0.09)">
      <defs>
       <path id="ArialMT-4d" d="M 475 0 
L 475 4581 
L 1388 4581 
L 2472 1338 
Q 2622 884 2691 659 
Q 2769 909 2934 1394 
L 4031 4581 
L 4847 4581 
L 4847 0 
L 4263 0 
L 4263 3834 
L 2931 0 
L 2384 0 
L 1059 3900 
L 1059 0 
L 475 0 
z
" transform="scale(0.015625)"/>
      </defs>
      <use xlink:href="#ArialMT-4e"/>
      <use xlink:href="#ArialMT-4d" transform="translate(72.216797 0)"/>
      <use xlink:href="#ArialMT-49" transform="translate(155.517578 0)"/>
      <use xlink:href="#ArialMT-47" transform="translate(183.300781 0)"/>
      <use xlink:href="#ArialMT-4f" transform="translate(261.083984 0)"/>
      <use xlink:href="#ArialMT-44" transform="translate(338.867188 0)"/>
     </g>
    </g>
   </g>
  </g>
 </g>
 <defs>
  <clipPath id="p5d45c6fe0c">
   <rect x="43.0575" y="23.220937" width="662.65" height="363.88"/>
  </clipPath>
 </defs>
</svg>
