<?xml version="1.0" encoding="utf-8" standalone="no"?>
<!DOCTYPE svg PUBLIC "-//W3C//DTD SVG 1.1//EN"
  "http://www.w3.org/Graphics/SVG/1.1/DTD/svg11.dtd">
<svg xmlns:xlink="http://www.w3.org/1999/xlink" width="712.9075pt" height="425.878125pt" viewBox="0 0 712.9075 425.878125" xmlns="http://www.w3.org/2000/svg" version="1.1">
 <metadata>
  <rdf:RDF xmlns:dc="http://purl.org/dc/elements/1.1/" xmlns:cc="http://creativecommons.org/ns#" xmlns:rdf="http://www.w3.org/1999/02/22-rdf-syntax-ns#">
   <cc:Work>
    <dc:type rdf:resource="http://purl.org/dc/dcmitype/StillImage"/>
    <dc:date>2026-06-11T18:29:03.966259</dc:date>
    <dc:format>image/svg+xml</dc:format>
    <dc:creator>
     <cc:Agent>
      <dc:title>Matplotlib v3.10.0, https://matplotlib.org/</dc:title>
     </cc:Agent>
    </dc:creator>
   </cc:Work>
  </rdf:RDF>
 </metadata>
 <defs>
  <style type="text/css">*{stroke-linejoin: round; stroke-linecap: butt}</style>
 </defs>
 <g id="figure_1">
  <g id="patch_1">
   <path d="M -0 425.878125 
L 712.9075 425.878125 
L 712.9075 0 
L -0 0 
z
" style="fill: #ffffff"/>
  </g>
  <g id="axes_1">
   <g id="patch_2">
    <path d="M 43.0575 387.271562 
L 705.7075 387.271562 
L 705.7075 23.391562 
L 43.0575 23.391562 
z
" style="fill: #ffffff"/>
   </g>
   <g id="matplotlib.axis_1">
    <g id="xtick_1">
     <g id="line2d_1">
      <path d="M 43.0575 387.271562 
L 43.0575 23.391562 
" clip-path="url(#p08ac35f215)" style="fill: none; stroke-dasharray: 2.96,1.28; stroke-dashoffset: 0; stroke: #b0b0b0; stroke-opacity: 0.5; stroke-width: 0.8"/>
     </g>
     <g id="line2d_2">
      <defs>
       <path id="ma40a2687fc" d="M 0 0 
L 0 3.5 
" style="stroke: #000000; stroke-width: 0.8"/>
      </defs>
      <g>
       <use xlink:href="#ma40a2687fc" x="43.0575" y="387.271562" style="stroke: #000000; stroke-width: 0.8"/>
      </g>
     </g>
     <g id="text_1">
      <!-- 0 -->
      <g transform="translate(40.277031 401.429375) scale(0.1 -0.1)">
       <defs>
        <path id="ArialMT-30" d="M 266 2259 
Q 266 3072 433 3567 
Q 600 4063 929 4331 
Q 1259 4600 1759 4600 
Q 2128 4600 2406 4451 
Q 2684 4303 2865 4023 
Q 3047 3744 3150 3342 
Q 3253 2941 3253 2259 
Q 3253 1453 3087 958 
Q 2922 463 2592 192 
Q 2263 -78 1759 -78 
Q 1097 -78 719 397 
Q 266 969 266 2259 
z
M 844 2259 
Q 844 1131 1108 757 
Q 1372 384 1759 384 
Q 2147 384 2411 759 
Q 2675 1134 2675 2259 
Q 2675 3391 2411 3762 
Q 2147 4134 1753 4134 
Q 1366 4134 1134 3806 
Q 844 3388 844 2259 
z
" transform="scale(0.015625)"/>
       </defs>
       <use xlink:href="#ArialMT-30"/>
      </g>
     </g>
    </g>
    <g id="xtick_2">
     <g id="line2d_3">
      <path d="M 159.209998 387.271562 
L 159.209998 23.391562 
" clip-path="url(#p08ac35f215)" style="fill: none; stroke-dasharray: 2.96,1.28; stroke-dashoffset: 0; stroke: #b0b0b0; stroke-opacity: 0.5; stroke-width: 0.8"/>
     </g>
     <g id="line2d_4">
      <g>
       <use xlink:href="#ma40a2687fc" x="159.209998" y="387.271562" style="stroke: #000000; stroke-width: 0.8"/>
      </g>
     </g>
     <g id="text_2">
      <!-- 200 -->
      <g transform="translate(150.868592 401.429375) scale(0.1 -0.1)">
       <defs>
        <path id="ArialMT-32" d="M 3222 541 
L 3222 0 
L 194 0 
Q 188 203 259 391 
Q 375 700 629 1000 
Q 884 1300 1366 1694 
Q 2113 2306 2375 2664 
Q 2638 3022 2638 3341 
Q 2638 3675 2398 3904 
Q 2159 4134 1775 4134 
Q 1369 4134 1125 3890 
Q 881 3647 878 3216 
L 300 3275 
Q 359 3922 746 4261 
Q 1134 4600 1788 4600 
Q 2447 4600 2831 4234 
Q 3216 3869 3216 3328 
Q 3216 3053 3103 2787 
Q 2991 2522 2730 2228 
Q 2469 1934 1863 1422 
Q 1356 997 1212 845 
Q 1069 694 975 541 
L 3222 541 
z
" transform="scale(0.015625)"/>
       </defs>
       <use xlink:href="#ArialMT-32"/>
       <use xlink:href="#ArialMT-30" transform="translate(55.615234 0)"/>
       <use xlink:href="#ArialMT-30" transform="translate(111.230469 0)"/>
      </g>
     </g>
    </g>
    <g id="xtick_3">
     <g id="line2d_5">
      <path d="M 275.362496 387.271562 
L 275.362496 23.391562 
" clip-path="url(#p08ac35f215)" style="fill: none; stroke-dasharray: 2.96,1.28; stroke-dashoffset: 0; stroke: #b0b0b0; stroke-opacity: 0.5; stroke-width: 0.8"/>
     </g>
     <g id="line2d_6">
      <g>
       <use xlink:href="#ma40a2687fc" x="275.362496" y="387.271562" style="stroke: #000000; stroke-width: 0.8"/>
      </g>
     </g>
     <g id="text_3">
      <!-- 400 -->
      <g transform="translate(267.021089 401.429375) scale(0.1 -0.1)">
       <defs>
        <path id="ArialMT-34" d="M 2069 0 
L 2069 1097 
L 81 1097 
L 81 1613 
L 2172 4581 
L 2631 4581 
L 2631 1613 
L 3250 1613 
L 3250 1097 
L 2631 1097 
L 2631 0 
L 2069 0 
z
M 2069 1613 
L 2069 3678 
L 634 1613 
L 2069 1613 
z
" transform="scale(0.015625)"/>
       </defs>
       <use xlink:href="#ArialMT-34"/>
       <use xlink:href="#ArialMT-30" transform="translate(55.615234 0)"/>
       <use xlink:href="#ArialMT-30" transform="translate(111.230469 0)"/>
      </g>
     </g>
    </g>
    <g id="xtick_4">
     <g id="line2d_7">
      <path d="M 391.514993 387.271562 
L 391.514993 23.391562 
" clip-path="url(#p08ac35f215)" style="fill: none; stroke-dasharray: 2.96,1.28; stroke-dashoffset: 0; stroke: #b0b0b0; stroke-opacity: 0.5; stroke-width: 0.8"/>
     </g>
     <g id="line2d_8">
      <g>
       <use xlink:href="#ma40a2687fc" x="391.514993" y="387.271562" style="stroke: #000000; stroke-width: 0.8"/>
      </g>
     </g>
     <g id="text_4">
      <!-- 600 -->
      <g transform="translate(383.173587 401.429375) scale(0.1 -0.1)">
       <defs>
        <path id="ArialMT-36" d="M 3184 3459 
L 2625 3416 
Q 2550 3747 2413 3897 
Q 2184 4138 1850 4138 
Q 1581 4138 1378 3988 
Q 1113 3794 959 3422 
Q 806 3050 800 2363 
Q 1003 2672 1297 2822 
Q 1591 2972 1913 2972 
Q 2475 2972 2870 2558 
Q 3266 2144 3266 1488 
Q 3266 1056 3080 686 
Q 2894 316 2569 119 
Q 2244 -78 1831 -78 
Q 1128 -78 684 439 
Q 241 956 241 2144 
Q 241 3472 731 4075 
Q 1159 4600 1884 4600 
Q 2425 4600 2770 4297 
Q 3116 3994 3184 3459 
z
M 888 1484 
Q 888 1194 1011 928 
Q 1134 663 1356 523 
Q 1578 384 1822 384 
Q 2178 384 2434 671 
Q 2691 959 2691 1453 
Q 2691 1928 2437 2201 
Q 2184 2475 1800 2475 
Q 1419 2475 1153 2201 
Q 888 1928 888 1484 
z
" transform="scale(0.015625)"/>
       </defs>
       <use xlink:href="#ArialMT-36"/>
       <use xlink:href="#ArialMT-30" transform="translate(55.615234 0)"/>
       <use xlink:href="#ArialMT-30" transform="translate(111.230469 0)"/>
      </g>
     </g>
    </g>
    <g id="xtick_5">
     <g id="line2d_9">
      <path d="M 507.667491 387.271562 
L 507.667491 23.391562 
" clip-path="url(#p08ac35f215)" style="fill: none; stroke-dasharray: 2.96,1.28; stroke-dashoffset: 0; stroke: #b0b0b0; stroke-opacity: 0.5; stroke-width: 0.8"/>
     </g>
     <g id="line2d_10">
      <g>
       <use xlink:href="#ma40a2687fc" x="507.667491" y="387.271562" style="stroke: #000000; stroke-width: 0.8"/>
      </g>
     </g>
     <g id="text_5">
      <!-- 800 -->
      <g transform="translate(499.326085 401.429375) scale(0.1 -0.1)">
       <defs>
        <path id="ArialMT-38" d="M 1131 2484 
Q 781 2613 612 2850 
Q 444 3088 444 3419 
Q 444 3919 803 4259 
Q 1163 4600 1759 4600 
Q 2359 4600 2725 4251 
Q 3091 3903 3091 3403 
Q 3091 3084 2923 2848 
Q 2756 2613 2416 2484 
Q 2838 2347 3058 2040 
Q 3278 1734 3278 1309 
Q 3278 722 2862 322 
Q 2447 -78 1769 -78 
Q 1091 -78 675 323 
Q 259 725 259 1325 
Q 259 1772 486 2073 
Q 713 2375 1131 2484 
z
M 1019 3438 
Q 1019 3113 1228 2906 
Q 1438 2700 1772 2700 
Q 2097 2700 2305 2904 
Q 2513 3109 2513 3406 
Q 2513 3716 2298 3927 
Q 2084 4138 1766 4138 
Q 1444 4138 1231 3931 
Q 1019 3725 1019 3438 
z
M 838 1322 
Q 838 1081 952 856 
Q 1066 631 1291 507 
Q 1516 384 1775 384 
Q 2178 384 2440 643 
Q 2703 903 2703 1303 
Q 2703 1709 2433 1975 
Q 2163 2241 1756 2241 
Q 1359 2241 1098 1978 
Q 838 1716 838 1322 
z
" transform="scale(0.015625)"/>
       </defs>
       <use xlink:href="#ArialMT-38"/>
       <use xlink:href="#ArialMT-30" transform="translate(55.615234 0)"/>
       <use xlink:href="#ArialMT-30" transform="translate(111.230469 0)"/>
      </g>
     </g>
    </g>
    <g id="xtick_6">
     <g id="line2d_11">
      <path d="M 623.819989 387.271562 
L 623.819989 23.391562 
" clip-path="url(#p08ac35f215)" style="fill: none; stroke-dasharray: 2.96,1.28; stroke-dashoffset: 0; stroke: #b0b0b0; stroke-opacity: 0.5; stroke-width: 0.8"/>
     </g>
     <g id="line2d_12">
      <g>
       <use xlink:href="#ma40a2687fc" x="623.819989" y="387.271562" style="stroke: #000000; stroke-width: 0.8"/>
      </g>
     </g>
     <g id="text_6">
      <!-- 1000 -->
      <g transform="translate(612.698114 401.429375) scale(0.1 -0.1)">
       <defs>
        <path id="ArialMT-31" d="M 2384 0 
L 1822 0 
L 1822 3584 
Q 1619 3391 1289 3197 
Q 959 3003 697 2906 
L 697 3450 
Q 1169 3672 1522 3987 
Q 1875 4303 2022 4600 
L 2384 4600 
L 2384 0 
z
" transform="scale(0.015625)"/>
       </defs>
       <use xlink:href="#ArialMT-31"/>
       <use xlink:href="#ArialMT-30" transform="translate(55.615234 0)"/>
       <use xlink:href="#ArialMT-30" transform="translate(111.230469 0)"/>
       <use xlink:href="#ArialMT-30" transform="translate(166.845703 0)"/>
      </g>
     </g>
    </g>
    <g id="text_7">
     <!-- k (Threshold Index) -->
     <g transform="translate(319.048438 416.1525) scale(0.12 -0.12)">
      <defs>
       <path id="Arial-BoldMT-6b" d="M 428 0 
L 428 4581 
L 1306 4581 
L 1306 2150 
L 2334 3319 
L 3416 3319 
L 2281 2106 
L 3497 0 
L 2550 0 
L 1716 1491 
L 1306 1063 
L 1306 0 
L 428 0 
z
" transform="scale(0.015625)"/>
       <path id="Arial-BoldMT-20" transform="scale(0.015625)"/>
       <path id="Arial-BoldMT-28" d="M 1916 -1347 
L 1313 -1347 
Q 834 -625 584 153 
Q 334 931 334 1659 
Q 334 2563 644 3369 
Q 913 4069 1325 4659 
L 1925 4659 
Q 1497 3713 1336 3048 
Q 1175 2384 1175 1641 
Q 1175 1128 1270 590 
Q 1366 53 1531 -431 
Q 1641 -750 1916 -1347 
z
" transform="scale(0.015625)"/>
       <path id="Arial-BoldMT-54" d="M 1497 0 
L 1497 3806 
L 138 3806 
L 138 4581 
L 3778 4581 
L 3778 3806 
L 2422 3806 
L 2422 0 
L 1497 0 
z
" transform="scale(0.015625)"/>
       <path id="Arial-BoldMT-68" d="M 1334 4581 
L 1334 2897 
Q 1759 3394 2350 3394 
Q 2653 3394 2897 3281 
Q 3141 3169 3264 2994 
Q 3388 2819 3433 2606 
Q 3478 2394 3478 1947 
L 3478 0 
L 2600 0 
L 2600 1753 
Q 2600 2275 2550 2415 
Q 2500 2556 2373 2639 
Q 2247 2722 2056 2722 
Q 1838 2722 1666 2615 
Q 1494 2509 1414 2295 
Q 1334 2081 1334 1663 
L 1334 0 
L 456 0 
L 456 4581 
L 1334 4581 
z
" transform="scale(0.015625)"/>
       <path id="Arial-BoldMT-72" d="M 1300 0 
L 422 0 
L 422 3319 
L 1238 3319 
L 1238 2847 
Q 1447 3181 1614 3287 
Q 1781 3394 1994 3394 
Q 2294 3394 2572 3228 
L 2300 2463 
Q 2078 2606 1888 2606 
Q 1703 2606 1575 2504 
Q 1447 2403 1373 2137 
Q 1300 1872 1300 1025 
L 1300 0 
z
" transform="scale(0.015625)"/>
       <path id="Arial-BoldMT-65" d="M 2381 1056 
L 3256 909 
Q 3088 428 2723 176 
Q 2359 -75 1813 -75 
Q 947 -75 531 491 
Q 203 944 203 1634 
Q 203 2459 634 2926 
Q 1066 3394 1725 3394 
Q 2466 3394 2894 2905 
Q 3322 2416 3303 1406 
L 1103 1406 
Q 1113 1016 1316 798 
Q 1519 581 1822 581 
Q 2028 581 2168 693 
Q 2309 806 2381 1056 
z
M 2431 1944 
Q 2422 2325 2234 2523 
Q 2047 2722 1778 2722 
Q 1491 2722 1303 2513 
Q 1116 2303 1119 1944 
L 2431 1944 
z
" transform="scale(0.015625)"/>
       <path id="Arial-BoldMT-73" d="M 150 947 
L 1031 1081 
Q 1088 825 1259 692 
Q 1431 559 1741 559 
Q 2081 559 2253 684 
Q 2369 772 2369 919 
Q 2369 1019 2306 1084 
Q 2241 1147 2013 1200 
Q 950 1434 666 1628 
Q 272 1897 272 2375 
Q 272 2806 612 3100 
Q 953 3394 1669 3394 
Q 2350 3394 2681 3172 
Q 3013 2950 3138 2516 
L 2309 2363 
Q 2256 2556 2107 2659 
Q 1959 2763 1684 2763 
Q 1338 2763 1188 2666 
Q 1088 2597 1088 2488 
Q 1088 2394 1175 2328 
Q 1294 2241 1995 2081 
Q 2697 1922 2975 1691 
Q 3250 1456 3250 1038 
Q 3250 581 2869 253 
Q 2488 -75 1741 -75 
Q 1063 -75 667 200 
Q 272 475 150 947 
z
" transform="scale(0.015625)"/>
       <path id="Arial-BoldMT-6f" d="M 256 1706 
Q 256 2144 472 2553 
Q 688 2963 1083 3178 
Q 1478 3394 1966 3394 
Q 2719 3394 3200 2905 
Q 3681 2416 3681 1669 
Q 3681 916 3195 420 
Q 2709 -75 1972 -75 
Q 1516 -75 1102 131 
Q 688 338 472 736 
Q 256 1134 256 1706 
z
M 1156 1659 
Q 1156 1166 1390 903 
Q 1625 641 1969 641 
Q 2313 641 2545 903 
Q 2778 1166 2778 1666 
Q 2778 2153 2545 2415 
Q 2313 2678 1969 2678 
Q 1625 2678 1390 2415 
Q 1156 2153 1156 1659 
z
" transform="scale(0.015625)"/>
       <path id="Arial-BoldMT-6c" d="M 459 0 
L 459 4581 
L 1338 4581 
L 1338 0 
L 459 0 
z
" transform="scale(0.015625)"/>
       <path id="Arial-BoldMT-64" d="M 3503 0 
L 2688 0 
L 2688 488 
Q 2484 203 2207 64 
Q 1931 -75 1650 -75 
Q 1078 -75 670 386 
Q 263 847 263 1672 
Q 263 2516 659 2955 
Q 1056 3394 1663 3394 
Q 2219 3394 2625 2931 
L 2625 4581 
L 3503 4581 
L 3503 0 
z
M 1159 1731 
Q 1159 1200 1306 963 
Q 1519 619 1900 619 
Q 2203 619 2415 876 
Q 2628 1134 2628 1647 
Q 2628 2219 2422 2470 
Q 2216 2722 1894 2722 
Q 1581 2722 1370 2473 
Q 1159 2225 1159 1731 
z
" transform="scale(0.015625)"/>
       <path id="Arial-BoldMT-49" d="M 438 0 
L 438 4581 
L 1363 4581 
L 1363 0 
L 438 0 
z
" transform="scale(0.015625)"/>
       <path id="Arial-BoldMT-6e" d="M 3478 0 
L 2600 0 
L 2600 1694 
Q 2600 2231 2544 2389 
Q 2488 2547 2361 2634 
Q 2234 2722 2056 2722 
Q 1828 2722 1647 2597 
Q 1466 2472 1398 2265 
Q 1331 2059 1331 1503 
L 1331 0 
L 453 0 
L 453 3319 
L 1269 3319 
L 1269 2831 
Q 1703 3394 2363 3394 
Q 2653 3394 2893 3289 
Q 3134 3184 3257 3021 
Q 3381 2859 3429 2653 
Q 3478 2447 3478 2063 
L 3478 0 
z
" transform="scale(0.015625)"/>
       <path id="Arial-BoldMT-78" d="M 38 0 
L 1234 1709 
L 88 3319 
L 1159 3319 
L 1747 2406 
L 2366 3319 
L 3397 3319 
L 2272 1747 
L 3500 0 
L 2422 0 
L 1747 1028 
L 1066 0 
L 38 0 
z
" transform="scale(0.015625)"/>
       <path id="Arial-BoldMT-29" d="M 216 -1347 
Q 475 -791 581 -494 
Q 688 -197 778 190 
Q 869 578 912 926 
Q 956 1275 956 1641 
Q 956 2384 797 3048 
Q 638 3713 209 4659 
L 806 4659 
Q 1278 3988 1539 3234 
Q 1800 2481 1800 1706 
Q 1800 1053 1594 306 
Q 1359 -531 822 -1347 
L 216 -1347 
z
" transform="scale(0.015625)"/>
      </defs>
      <use xlink:href="#Arial-BoldMT-6b"/>
      <use xlink:href="#Arial-BoldMT-20" transform="translate(55.615234 0)"/>
      <use xlink:href="#Arial-BoldMT-28" transform="translate(83.398438 0)"/>
      <use xlink:href="#Arial-BoldMT-54" transform="translate(116.699219 0)"/>
      <use xlink:href="#Arial-BoldMT-68" transform="translate(177.783203 0)"/>
      <use xlink:href="#Arial-BoldMT-72" transform="translate(238.867188 0)"/>
      <use xlink:href="#Arial-BoldMT-65" transform="translate(277.783203 0)"/>
      <use xlink:href="#Arial-BoldMT-73" transform="translate(333.398438 0)"/>
      <use xlink:href="#Arial-BoldMT-68" transform="translate(389.013672 0)"/>
      <use xlink:href="#Arial-BoldMT-6f" transform="translate(450.097656 0)"/>
      <use xlink:href="#Arial-BoldMT-6c" transform="translate(511.181641 0)"/>
      <use xlink:href="#Arial-BoldMT-64" transform="translate(538.964844 0)"/>
      <use xlink:href="#Arial-BoldMT-20" transform="translate(600.048828 0)"/>
      <use xlink:href="#Arial-BoldMT-49" transform="translate(627.832031 0)"/>
      <use xlink:href="#Arial-BoldMT-6e" transform="translate(655.615234 0)"/>
      <use xlink:href="#Arial-BoldMT-64" transform="translate(716.699219 0)"/>
      <use xlink:href="#Arial-BoldMT-65" transform="translate(777.783203 0)"/>
      <use xlink:href="#Arial-BoldMT-78" transform="translate(833.398438 0)"/>
      <use xlink:href="#Arial-BoldMT-29" transform="translate(889.013672 0)"/>
     </g>
    </g>
   </g>
   <g id="matplotlib.axis_2">
    <g id="ytick_1">
     <g id="line2d_13">
      <path d="M 43.0575 387.271562 
L 705.7075 387.271562 
" clip-path="url(#p08ac35f215)" style="fill: none; stroke-dasharray: 2.96,1.28; stroke-dashoffset: 0; stroke: #b0b0b0; stroke-opacity: 0.5; stroke-width: 0.8"/>
     </g>
     <g id="line2d_14">
      <defs>
       <path id="me5974b478d" d="M 0 0 
L -3.5 0 
" style="stroke: #000000; stroke-width: 0.8"/>
      </defs>
      <g>
       <use xlink:href="#me5974b478d" x="43.0575" y="387.271562" style="stroke: #000000; stroke-width: 0.8"/>
      </g>
     </g>
     <g id="text_8">
      <!-- 0.0 -->
      <g transform="translate(22.1575 390.850469) scale(0.1 -0.1)">
       <defs>
        <path id="ArialMT-2e" d="M 581 0 
L 581 641 
L 1222 641 
L 1222 0 
L 581 0 
z
" transform="scale(0.015625)"/>
       </defs>
       <use xlink:href="#ArialMT-30"/>
       <use xlink:href="#ArialMT-2e" transform="translate(55.615234 0)"/>
       <use xlink:href="#ArialMT-30" transform="translate(83.398438 0)"/>
      </g>
     </g>
    </g>
    <g id="ytick_2">
     <g id="line2d_15">
      <path d="M 43.0575 317.961086 
L 705.7075 317.961086 
" clip-path="url(#p08ac35f215)" style="fill: none; stroke-dasharray: 2.96,1.28; stroke-dashoffset: 0; stroke: #b0b0b0; stroke-opacity: 0.5; stroke-width: 0.8"/>
     </g>
     <g id="line2d_16">
      <g>
       <use xlink:href="#me5974b478d" x="43.0575" y="317.961086" style="stroke: #000000; stroke-width: 0.8"/>
      </g>
     </g>
     <g id="text_9">
      <!-- 0.2 -->
      <g transform="translate(22.1575 321.539993) scale(0.1 -0.1)">
       <use xlink:href="#ArialMT-30"/>
       <use xlink:href="#ArialMT-2e" transform="translate(55.615234 0)"/>
       <use xlink:href="#ArialMT-32" transform="translate(83.398438 0)"/>
      </g>
     </g>
    </g>
    <g id="ytick_3">
     <g id="line2d_17">
      <path d="M 43.0575 248.65061 
L 705.7075 248.65061 
" clip-path="url(#p08ac35f215)" style="fill: none; stroke-dasharray: 2.96,1.28; stroke-dashoffset: 0; stroke: #b0b0b0; stroke-opacity: 0.5; stroke-width: 0.8"/>
     </g>
     <g id="line2d_18">
      <g>
       <use xlink:href="#me5974b478d" x="43.0575" y="248.65061" style="stroke: #000000; stroke-width: 0.8"/>
      </g>
     </g>
     <g id="text_10">
      <!-- 0.4 -->
      <g transform="translate(22.1575 252.229516) scale(0.1 -0.1)">
       <use xlink:href="#ArialMT-30"/>
       <use xlink:href="#ArialMT-2e" transform="translate(55.615234 0)"/>
       <use xlink:href="#ArialMT-34" transform="translate(83.398438 0)"/>
      </g>
     </g>
    </g>
    <g id="ytick_4">
     <g id="line2d_19">
      <path d="M 43.0575 179.340134 
L 705.7075 179.340134 
" clip-path="url(#p08ac35f215)" style="fill: none; stroke-dasharray: 2.96,1.28; stroke-dashoffset: 0; stroke: #b0b0b0; stroke-opacity: 0.5; stroke-width: 0.8"/>
     </g>
     <g id="line2d_20">
      <g>
       <use xlink:href="#me5974b478d" x="43.0575" y="179.340134" style="stroke: #000000; stroke-width: 0.8"/>
      </g>
     </g>
     <g id="text_11">
      <!-- 0.6 -->
      <g transform="translate(22.1575 182.91904) scale(0.1 -0.1)">
       <use xlink:href="#ArialMT-30"/>
       <use xlink:href="#ArialMT-2e" transform="translate(55.615234 0)"/>
       <use xlink:href="#ArialMT-36" transform="translate(83.398438 0)"/>
      </g>
     </g>
    </g>
    <g id="ytick_5">
     <g id="line2d_21">
      <path d="M 43.0575 110.029658 
L 705.7075 110.029658 
" clip-path="url(#p08ac35f215)" style="fill: none; stroke-dasharray: 2.96,1.28; stroke-dashoffset: 0; stroke: #b0b0b0; stroke-opacity: 0.5; stroke-width: 0.8"/>
     </g>
     <g id="line2d_22">
      <g>
       <use xlink:href="#me5974b478d" x="43.0575" y="110.029658" style="stroke: #000000; stroke-width: 0.8"/>
      </g>
     </g>
     <g id="text_12">
      <!-- 0.8 -->
      <g transform="translate(22.1575 113.608564) scale(0.1 -0.1)">
       <use xlink:href="#ArialMT-30"/>
       <use xlink:href="#ArialMT-2e" transform="translate(55.615234 0)"/>
       <use xlink:href="#ArialMT-38" transform="translate(83.398438 0)"/>
      </g>
     </g>
    </g>
    <g id="ytick_6">
     <g id="line2d_23">
      <path d="M 43.0575 40.719182 
L 705.7075 40.719182 
" clip-path="url(#p08ac35f215)" style="fill: none; stroke-dasharray: 2.96,1.28; stroke-dashoffset: 0; stroke: #b0b0b0; stroke-opacity: 0.5; stroke-width: 0.8"/>
     </g>
     <g id="line2d_24">
      <g>
       <use xlink:href="#me5974b478d" x="43.0575" y="40.719182" style="stroke: #000000; stroke-width: 0.8"/>
      </g>
     </g>
     <g id="text_13">
      <!-- 1.0 -->
      <g transform="translate(22.1575 44.298088) scale(0.1 -0.1)">
       <use xlink:href="#ArialMT-31"/>
       <use xlink:href="#ArialMT-2e" transform="translate(55.615234 0)"/>
       <use xlink:href="#ArialMT-30" transform="translate(83.398438 0)"/>
      </g>
     </g>
    </g>
    <g id="text_14">
     <!-- F1-Score -->
     <g transform="translate(15.789375 231.005937) rotate(-90) scale(0.12 -0.12)">
      <defs>
       <path id="Arial-BoldMT-46" d="M 472 0 
L 472 4581 
L 3613 4581 
L 3613 3806 
L 1397 3806 
L 1397 2722 
L 3309 2722 
L 3309 1947 
L 1397 1947 
L 1397 0 
L 472 0 
z
" transform="scale(0.015625)"/>
       <path id="Arial-BoldMT-31" d="M 2519 0 
L 1641 0 
L 1641 3309 
Q 1159 2859 506 2644 
L 506 3441 
Q 850 3553 1253 3867 
Q 1656 4181 1806 4600 
L 2519 4600 
L 2519 0 
z
" transform="scale(0.015625)"/>
       <path id="Arial-BoldMT-2d" d="M 359 1222 
L 359 2100 
L 2084 2100 
L 2084 1222 
L 359 1222 
z
" transform="scale(0.015625)"/>
       <path id="Arial-BoldMT-53" d="M 231 1491 
L 1131 1578 
Q 1213 1125 1461 912 
Q 1709 700 2131 700 
Q 2578 700 2804 889 
Q 3031 1078 3031 1331 
Q 3031 1494 2936 1608 
Q 2841 1722 2603 1806 
Q 2441 1863 1863 2006 
Q 1119 2191 819 2459 
Q 397 2838 397 3381 
Q 397 3731 595 4036 
Q 794 4341 1167 4500 
Q 1541 4659 2069 4659 
Q 2931 4659 3367 4281 
Q 3803 3903 3825 3272 
L 2900 3231 
Q 2841 3584 2645 3739 
Q 2450 3894 2059 3894 
Q 1656 3894 1428 3728 
Q 1281 3622 1281 3444 
Q 1281 3281 1419 3166 
Q 1594 3019 2269 2859 
Q 2944 2700 3267 2529 
Q 3591 2359 3773 2064 
Q 3956 1769 3956 1334 
Q 3956 941 3737 597 
Q 3519 253 3119 86 
Q 2719 -81 2122 -81 
Q 1253 -81 787 320 
Q 322 722 231 1491 
z
" transform="scale(0.015625)"/>
       <path id="Arial-BoldMT-63" d="M 3353 2338 
L 2488 2181 
Q 2444 2441 2289 2572 
Q 2134 2703 1888 2703 
Q 1559 2703 1364 2476 
Q 1169 2250 1169 1719 
Q 1169 1128 1367 884 
Q 1566 641 1900 641 
Q 2150 641 2309 783 
Q 2469 925 2534 1272 
L 3397 1125 
Q 3263 531 2881 228 
Q 2500 -75 1859 -75 
Q 1131 -75 698 384 
Q 266 844 266 1656 
Q 266 2478 700 2936 
Q 1134 3394 1875 3394 
Q 2481 3394 2839 3133 
Q 3197 2872 3353 2338 
z
" transform="scale(0.015625)"/>
      </defs>
      <use xlink:href="#Arial-BoldMT-46"/>
      <use xlink:href="#Arial-BoldMT-31" transform="translate(61.083984 0)"/>
      <use xlink:href="#Arial-BoldMT-2d" transform="translate(116.699219 0)"/>
      <use xlink:href="#Arial-BoldMT-53" transform="translate(150 0)"/>
      <use xlink:href="#Arial-BoldMT-63" transform="translate(216.699219 0)"/>
      <use xlink:href="#Arial-BoldMT-6f" transform="translate(272.314453 0)"/>
      <use xlink:href="#Arial-BoldMT-72" transform="translate(333.398438 0)"/>
      <use xlink:href="#Arial-BoldMT-65" transform="translate(372.314453 0)"/>
     </g>
    </g>
   </g>
   <g id="line2d_25">
    <path d="M 43.638262 387.271562 
L 44.219025 387.271562 
L 44.799787 300.633467 
L 45.38055 233.248282 
L 46.542075 135.233467 
L 47.122837 98.477912 
L 48.284362 139.734148 
L 49.445887 170.676324 
L 50.607412 194.742462 
L 51.768937 213.995372 
L 52.930462 229.747753 
L 54.091987 242.874737 
L 55.253512 253.982185 
L 56.415037 263.502855 
L 57.576562 271.754102 
L 59.31885 282.255689 
L 61.061137 291.007012 
L 62.803425 298.411978 
L 64.545712 304.759091 
L 66.288 310.259922 
L 68.030287 315.07315 
L 69.772574 319.320115 
L 71.514862 323.095196 
L 73.837912 327.521152 
L 76.160962 331.376017 
L 78.484012 334.763626 
L 80.807062 337.76408 
L 83.130112 340.44016 
L 86.033924 343.404173 
L 88.937737 346.015327 
L 91.841549 348.333093 
L 95.326124 350.792365 
L 98.810699 352.959446 
L 102.295274 354.88349 
L 106.360611 356.872231 
L 111.006711 358.86563 
L 115.652811 360.613687 
L 120.879674 362.339737 
L 126.687298 364.013013 
L 133.075686 365.612039 
L 140.044836 367.123168 
L 147.594748 368.539001 
L 156.306185 369.943943 
L 166.179148 371.301407 
L 177.213635 372.58714 
L 189.99041 373.8393 
L 204.509472 375.025895 
L 220.770822 376.128399 
L 239.935984 377.197365 
L 262.004958 378.199511 
L 288.13927 379.155582 
L 318.919682 380.051721 
L 355.507719 380.889382 
L 400.226431 381.682008 
L 454.818105 382.417888 
L 522.767316 383.101257 
L 608.139402 383.728082 
L 705.7075 384.247545 
L 705.7075 384.247545 
" clip-path="url(#p08ac35f215)" style="fill: none; stroke: #1f77b4; stroke-width: 2; stroke-linecap: square"/>
    <defs>
     <path id="m68672c2212" d="M 0 1.5 
C 0.397805 1.5 0.77937 1.341951 1.06066 1.06066 
C 1.341951 0.77937 1.5 0.397805 1.5 0 
C 1.5 -0.397805 1.341951 -0.77937 1.06066 -1.06066 
C 0.77937 -1.341951 0.397805 -1.5 0 -1.5 
C -0.397805 -1.5 -0.77937 -1.341951 -1.06066 -1.06066 
C -1.341951 -0.77937 -1.5 -0.397805 -1.5 0 
C -1.5 0.397805 -1.341951 0.77937 -1.06066 1.06066 
C -0.77937 1.341951 -0.397805 1.5 0 1.5 
z
" style="stroke: #1f77b4"/>
    </defs>
    <g clip-path="url(#p08ac35f215)">
     <use xlink:href="#m68672c2212" x="43.638262" y="387.271562" style="fill: #1f77b4; stroke: #1f77b4"/>
     <use xlink:href="#m68672c2212" x="59.899612" y="285.344392" style="fill: #1f77b4; stroke: #1f77b4"/>
     <use xlink:href="#m68672c2212" x="76.160962" y="331.376017" style="fill: #1f77b4; stroke: #1f77b4"/>
     <use xlink:href="#m68672c2212" x="92.422312" y="348.765742" style="fill: #1f77b4; stroke: #1f77b4"/>
     <use xlink:href="#m68672c2212" x="108.683661" y="357.902717" style="fill: #1f77b4; stroke: #1f77b4"/>
     <use xlink:href="#m68672c2212" x="124.945011" y="363.535098" style="fill: #1f77b4; stroke: #1f77b4"/>
     <use xlink:href="#m68672c2212" x="141.206361" y="367.354759" style="fill: #1f77b4; stroke: #1f77b4"/>
     <use xlink:href="#m68672c2212" x="157.46771" y="370.115504" style="fill: #1f77b4; stroke: #1f77b4"/>
     <use xlink:href="#m68672c2212" x="173.72906" y="372.204068" style="fill: #1f77b4; stroke: #1f77b4"/>
     <use xlink:href="#m68672c2212" x="189.99041" y="373.8393" style="fill: #1f77b4; stroke: #1f77b4"/>
     <use xlink:href="#m68672c2212" x="206.251759" y="375.154346" style="fill: #1f77b4; stroke: #1f77b4"/>
     <use xlink:href="#m68672c2212" x="222.513109" y="376.234862" style="fill: #1f77b4; stroke: #1f77b4"/>
     <use xlink:href="#m68672c2212" x="238.774459" y="377.138452" style="fill: #1f77b4; stroke: #1f77b4"/>
     <use xlink:href="#m68672c2212" x="255.035809" y="377.905282" style="fill: #1f77b4; stroke: #1f77b4"/>
     <use xlink:href="#m68672c2212" x="271.297158" y="378.564216" style="fill: #1f77b4; stroke: #1f77b4"/>
     <use xlink:href="#m68672c2212" x="287.558508" y="379.13653" style="fill: #1f77b4; stroke: #1f77b4"/>
     <use xlink:href="#m68672c2212" x="303.819858" y="379.63825" style="fill: #1f77b4; stroke: #1f77b4"/>
     <use xlink:href="#m68672c2212" x="320.081207" y="380.081679" style="fill: #1f77b4; stroke: #1f77b4"/>
     <use xlink:href="#m68672c2212" x="336.342557" y="380.476418" style="fill: #1f77b4; stroke: #1f77b4"/>
     <use xlink:href="#m68672c2212" x="352.603907" y="380.830068" style="fill: #1f77b4; stroke: #1f77b4"/>
     <use xlink:href="#m68672c2212" x="368.865256" y="381.148729" style="fill: #1f77b4; stroke: #1f77b4"/>
     <use xlink:href="#m68672c2212" x="385.126606" y="381.437347" style="fill: #1f77b4; stroke: #1f77b4"/>
     <use xlink:href="#m68672c2212" x="401.387956" y="381.699981" style="fill: #1f77b4; stroke: #1f77b4"/>
     <use xlink:href="#m68672c2212" x="417.649305" y="381.939987" style="fill: #1f77b4; stroke: #1f77b4"/>
     <use xlink:href="#m68672c2212" x="433.910655" y="382.16017" style="fill: #1f77b4; stroke: #1f77b4"/>
     <use xlink:href="#m68672c2212" x="450.172005" y="382.362889" style="fill: #1f77b4; stroke: #1f77b4"/>
     <use xlink:href="#m68672c2212" x="466.433355" y="382.55014" style="fill: #1f77b4; stroke: #1f77b4"/>
     <use xlink:href="#m68672c2212" x="482.694704" y="382.723631" style="fill: #1f77b4; stroke: #1f77b4"/>
     <use xlink:href="#m68672c2212" x="498.956054" y="382.884824" style="fill: #1f77b4; stroke: #1f77b4"/>
     <use xlink:href="#m68672c2212" x="515.217404" y="383.034981" style="fill: #1f77b4; stroke: #1f77b4"/>
     <use xlink:href="#m68672c2212" x="531.478753" y="383.175199" style="fill: #1f77b4; stroke: #1f77b4"/>
     <use xlink:href="#m68672c2212" x="547.740103" y="383.306432" style="fill: #1f77b4; stroke: #1f77b4"/>
     <use xlink:href="#m68672c2212" x="564.001453" y="383.429518" style="fill: #1f77b4; stroke: #1f77b4"/>
     <use xlink:href="#m68672c2212" x="580.262802" y="383.545193" style="fill: #1f77b4; stroke: #1f77b4"/>
     <use xlink:href="#m68672c2212" x="596.524152" y="383.654105" style="fill: #1f77b4; stroke: #1f77b4"/>
     <use xlink:href="#m68672c2212" x="612.785502" y="383.756832" style="fill: #1f77b4; stroke: #1f77b4"/>
     <use xlink:href="#m68672c2212" x="629.046851" y="383.853886" style="fill: #1f77b4; stroke: #1f77b4"/>
     <use xlink:href="#m68672c2212" x="645.308201" y="383.945724" style="fill: #1f77b4; stroke: #1f77b4"/>
     <use xlink:href="#m68672c2212" x="661.569551" y="384.032755" style="fill: #1f77b4; stroke: #1f77b4"/>
     <use xlink:href="#m68672c2212" x="677.830901" y="384.115348" style="fill: #1f77b4; stroke: #1f77b4"/>
     <use xlink:href="#m68672c2212" x="694.09225" y="384.193833" style="fill: #1f77b4; stroke: #1f77b4"/>
    </g>
   </g>
   <g id="line2d_26">
    <path d="M 43.638262 387.271562 
L 44.799787 387.271562 
L 45.38055 310.259922 
L 46.542075 324.262039 
L 47.7036 333.955812 
L 48.865125 341.064578 
L 50.02665 346.500694 
L 50.607412 348.765742 
L 51.188175 314.313167 
L 52.3497 321.261585 
L 53.511225 327.001583 
L 54.67275 331.823182 
L 55.834275 335.930469 
L 57.576562 341.064578 
L 59.31885 345.265213 
L 61.061137 348.765742 
L 62.803425 351.727729 
L 64.545712 354.266574 
L 66.288 356.466906 
L 68.61105 358.981572 
L 70.934099 361.116666 
L 73.257149 362.952097 
L 76.160962 364.913344 
L 79.064774 366.581868 
L 82.549349 368.282391 
L 83.710874 368.788769 
L 84.291637 359.912164 
L 87.776212 361.914071 
L 91.260787 363.642991 
L 95.326124 365.384044 
L 99.391461 366.886128 
L 104.037561 368.368705 
L 109.264424 369.798333 
L 109.845186 369.943943 
L 110.425949 364.359008 
L 115.652811 365.945262 
L 121.460436 367.468569 
L 127.848823 368.911171 
L 134.817973 370.262857 
L 142.948648 371.608178 
L 152.240848 372.906697 
L 162.694573 374.132136 
L 174.309823 375.269748 
L 187.66736 376.356527 
L 203.347947 377.405303 
L 221.932347 378.413994 
L 243.420559 379.350365 
L 247.485896 379.505683 
L 248.066659 377.591328 
L 271.877921 378.586039 
L 299.75452 379.518713 
L 332.857982 380.395523 
L 372.349831 381.212954 
L 420.553118 381.980686 
L 479.790892 382.693592 
L 554.12849 383.355716 
L 648.212014 383.961607 
L 705.7075 384.247545 
L 705.7075 384.247545 
" clip-path="url(#p08ac35f215)" style="fill: none; stroke: #ff7f0e; stroke-width: 2; stroke-linecap: square"/>
    <defs>
     <path id="mf991674920" d="M 0 1.5 
C 0.397805 1.5 0.77937 1.341951 1.06066 1.06066 
C 1.341951 0.77937 1.5 0.397805 1.5 0 
C 1.5 -0.397805 1.341951 -0.77937 1.06066 -1.06066 
C 0.77937 -1.341951 0.397805 -1.5 0 -1.5 
C -0.397805 -1.5 -0.77937 -1.341951 -1.06066 -1.06066 
C -1.341951 -0.77937 -1.5 -0.397805 -1.5 0 
C -1.5 0.397805 -1.341951 0.77937 -1.06066 1.06066 
C -0.77937 1.341951 -0.397805 1.5 0 1.5 
z
" style="stroke: #ff7f0e"/>
    </defs>
    <g clip-path="url(#p08ac35f215)">
     <use xlink:href="#mf991674920" x="43.638262" y="387.271562" style="fill: #ff7f0e; stroke: #ff7f0e"/>
     <use xlink:href="#mf991674920" x="59.899612" y="346.500694" style="fill: #ff7f0e; stroke: #ff7f0e"/>
     <use xlink:href="#mf991674920" x="76.160962" y="364.913344" style="fill: #ff7f0e; stroke: #ff7f0e"/>
     <use xlink:href="#mf991674920" x="92.422312" y="364.16807" style="fill: #ff7f0e; stroke: #ff7f0e"/>
     <use xlink:href="#mf991674920" x="108.683661" y="369.650255" style="fill: #ff7f0e; stroke: #ff7f0e"/>
     <use xlink:href="#mf991674920" x="124.945011" y="368.282391" style="fill: #ff7f0e; stroke: #ff7f0e"/>
     <use xlink:href="#mf991674920" x="141.206361" y="371.33812" style="fill: #ff7f0e; stroke: #ff7f0e"/>
     <use xlink:href="#mf991674920" x="157.46771" y="373.546716" style="fill: #ff7f0e; stroke: #ff7f0e"/>
     <use xlink:href="#mf991674920" x="173.72906" y="375.217567" style="fill: #ff7f0e; stroke: #ff7f0e"/>
     <use xlink:href="#mf991674920" x="189.99041" y="376.525752" style="fill: #ff7f0e; stroke: #ff7f0e"/>
     <use xlink:href="#mf991674920" x="206.251759" y="377.57779" style="fill: #ff7f0e; stroke: #ff7f0e"/>
     <use xlink:href="#mf991674920" x="222.513109" y="378.442202" style="fill: #ff7f0e; stroke: #ff7f0e"/>
     <use xlink:href="#mf991674920" x="238.774459" y="379.165074" style="fill: #ff7f0e; stroke: #ff7f0e"/>
     <use xlink:href="#mf991674920" x="255.035809" y="377.905282" style="fill: #ff7f0e; stroke: #ff7f0e"/>
     <use xlink:href="#mf991674920" x="271.297158" y="378.564216" style="fill: #ff7f0e; stroke: #ff7f0e"/>
     <use xlink:href="#mf991674920" x="287.558508" y="379.13653" style="fill: #ff7f0e; stroke: #ff7f0e"/>
     <use xlink:href="#mf991674920" x="303.819858" y="379.63825" style="fill: #ff7f0e; stroke: #ff7f0e"/>
     <use xlink:href="#mf991674920" x="320.081207" y="380.081679" style="fill: #ff7f0e; stroke: #ff7f0e"/>
     <use xlink:href="#mf991674920" x="336.342557" y="380.476418" style="fill: #ff7f0e; stroke: #ff7f0e"/>
     <use xlink:href="#mf991674920" x="352.603907" y="380.830068" style="fill: #ff7f0e; stroke: #ff7f0e"/>
     <use xlink:href="#mf991674920" x="368.865256" y="381.148729" style="fill: #ff7f0e; stroke: #ff7f0e"/>
     <use xlink:href="#mf991674920" x="385.126606" y="381.437347" style="fill: #ff7f0e; stroke: #ff7f0e"/>
     <use xlink:href="#mf991674920" x="401.387956" y="381.699981" style="fill: #ff7f0e; stroke: #ff7f0e"/>
     <use xlink:href="#mf991674920" x="417.649305" y="381.939987" style="fill: #ff7f0e; stroke: #ff7f0e"/>
     <use xlink:href="#mf991674920" x="433.910655" y="382.16017" style="fill: #ff7f0e; stroke: #ff7f0e"/>
     <use xlink:href="#mf991674920" x="450.172005" y="382.362889" style="fill: #ff7f0e; stroke: #ff7f0e"/>
     <use xlink:href="#mf991674920" x="466.433355" y="382.55014" style="fill: #ff7f0e; stroke: #ff7f0e"/>
     <use xlink:href="#mf991674920" x="482.694704" y="382.723631" style="fill: #ff7f0e; stroke: #ff7f0e"/>
     <use xlink:href="#mf991674920" x="498.956054" y="382.884824" style="fill: #ff7f0e; stroke: #ff7f0e"/>
     <use xlink:href="#mf991674920" x="515.217404" y="383.034981" style="fill: #ff7f0e; stroke: #ff7f0e"/>
     <use xlink:href="#mf991674920" x="531.478753" y="383.175199" style="fill: #ff7f0e; stroke: #ff7f0e"/>
     <use xlink:href="#mf991674920" x="547.740103" y="383.306432" style="fill: #ff7f0e; stroke: #ff7f0e"/>
     <use xlink:href="#mf991674920" x="564.001453" y="383.429518" style="fill: #ff7f0e; stroke: #ff7f0e"/>
     <use xlink:href="#mf991674920" x="580.262802" y="383.545193" style="fill: #ff7f0e; stroke: #ff7f0e"/>
     <use xlink:href="#mf991674920" x="596.524152" y="383.654105" style="fill: #ff7f0e; stroke: #ff7f0e"/>
     <use xlink:href="#mf991674920" x="612.785502" y="383.756832" style="fill: #ff7f0e; stroke: #ff7f0e"/>
     <use xlink:href="#mf991674920" x="629.046851" y="383.853886" style="fill: #ff7f0e; stroke: #ff7f0e"/>
     <use xlink:href="#mf991674920" x="645.308201" y="383.945724" style="fill: #ff7f0e; stroke: #ff7f0e"/>
     <use xlink:href="#mf991674920" x="661.569551" y="384.032755" style="fill: #ff7f0e; stroke: #ff7f0e"/>
     <use xlink:href="#mf991674920" x="677.830901" y="384.115348" style="fill: #ff7f0e; stroke: #ff7f0e"/>
     <use xlink:href="#mf991674920" x="694.09225" y="384.193833" style="fill: #ff7f0e; stroke: #ff7f0e"/>
    </g>
   </g>
   <g id="line2d_27">
    <path d="M 43.638262 387.271562 
L 44.219025 288.256597 
L 44.799787 213.995372 
L 45.38055 233.248282 
L 46.542075 261.252515 
L 47.122837 271.754102 
L 47.7036 227.32431 
L 48.284362 238.749114 
L 49.445887 170.676324 
L 50.607412 194.742462 
L 51.768937 213.995372 
L 52.930462 229.747753 
L 54.091987 242.874737 
L 55.253512 253.982185 
L 56.415037 263.502855 
L 57.576562 271.754102 
L 59.31885 282.255689 
L 61.061137 291.007012 
L 62.803425 298.411978 
L 64.545712 304.759091 
L 66.288 310.259922 
L 68.030287 315.07315 
L 69.772574 319.320115 
L 71.514862 323.095196 
L 73.837912 327.521152 
L 76.160962 331.376017 
L 78.484012 334.763626 
L 80.807062 337.76408 
L 83.130112 340.44016 
L 86.033924 343.404173 
L 88.937737 346.015327 
L 91.841549 348.333093 
L 95.326124 350.792365 
L 98.810699 352.959446 
L 102.295274 354.88349 
L 106.360611 356.872231 
L 111.006711 358.86563 
L 115.652811 360.613687 
L 120.879674 362.339737 
L 126.687298 364.013013 
L 133.075686 365.612039 
L 140.044836 367.123168 
L 147.594748 368.539001 
L 156.306185 369.943943 
L 166.179148 371.301407 
L 177.213635 372.58714 
L 189.99041 373.8393 
L 204.509472 375.025895 
L 220.770822 376.128399 
L 239.935984 377.197365 
L 262.004958 378.199511 
L 288.13927 379.155582 
L 318.919682 380.051721 
L 355.507719 380.889382 
L 400.226431 381.682008 
L 454.818105 382.417888 
L 522.767316 383.101257 
L 608.139402 383.728082 
L 705.7075 384.247545 
L 705.7075 384.247545 
" clip-path="url(#p08ac35f215)" style="fill: none; stroke: #2ca02c; stroke-width: 2; stroke-linecap: square"/>
    <defs>
     <path id="m1e1c405af4" d="M 0 1.5 
C 0.397805 1.5 0.77937 1.341951 1.06066 1.06066 
C 1.341951 0.77937 1.5 0.397805 1.5 0 
C 1.5 -0.397805 1.341951 -0.77937 1.06066 -1.06066 
C 0.77937 -1.341951 0.397805 -1.5 0 -1.5 
C -0.397805 -1.5 -0.77937 -1.341951 -1.06066 -1.06066 
C -1.341951 -0.77937 -1.5 -0.397805 -1.5 0 
C -1.5 0.397805 -1.341951 0.77937 -1.06066 1.06066 
C -0.77937 1.341951 -0.397805 1.5 0 1.5 
z
" style="stroke: #2ca02c"/>
    </defs>
    <g clip-path="url(#p08ac35f215)">
     <use xlink:href="#m1e1c405af4" x="43.638262" y="387.271562" style="fill: #2ca02c; stroke: #2ca02c"/>
     <use xlink:href="#m1e1c405af4" x="59.899612" y="285.344392" style="fill: #2ca02c; stroke: #2ca02c"/>
     <use xlink:href="#m1e1c405af4" x="76.160962" y="331.376017" style="fill: #2ca02c; stroke: #2ca02c"/>
     <use xlink:href="#m1e1c405af4" x="92.422312" y="348.765742" style="fill: #2ca02c; stroke: #2ca02c"/>
     <use xlink:href="#m1e1c405af4" x="108.683661" y="357.902717" style="fill: #2ca02c; stroke: #2ca02c"/>
     <use xlink:href="#m1e1c405af4" x="124.945011" y="363.535098" style="fill: #2ca02c; stroke: #2ca02c"/>
     <use xlink:href="#m1e1c405af4" x="141.206361" y="367.354759" style="fill: #2ca02c; stroke: #2ca02c"/>
     <use xlink:href="#m1e1c405af4" x="157.46771" y="370.115504" style="fill: #2ca02c; stroke: #2ca02c"/>
     <use xlink:href="#m1e1c405af4" x="173.72906" y="372.204068" style="fill: #2ca02c; stroke: #2ca02c"/>
     <use xlink:href="#m1e1c405af4" x="189.99041" y="373.8393" style="fill: #2ca02c; stroke: #2ca02c"/>
     <use xlink:href="#m1e1c405af4" x="206.251759" y="375.154346" style="fill: #2ca02c; stroke: #2ca02c"/>
     <use xlink:href="#m1e1c405af4" x="222.513109" y="376.234862" style="fill: #2ca02c; stroke: #2ca02c"/>
     <use xlink:href="#m1e1c405af4" x="238.774459" y="377.138452" style="fill: #2ca02c; stroke: #2ca02c"/>
     <use xlink:href="#m1e1c405af4" x="255.035809" y="377.905282" style="fill: #2ca02c; stroke: #2ca02c"/>
     <use xlink:href="#m1e1c405af4" x="271.297158" y="378.564216" style="fill: #2ca02c; stroke: #2ca02c"/>
     <use xlink:href="#m1e1c405af4" x="287.558508" y="379.13653" style="fill: #2ca02c; stroke: #2ca02c"/>
     <use xlink:href="#m1e1c405af4" x="303.819858" y="379.63825" style="fill: #2ca02c; stroke: #2ca02c"/>
     <use xlink:href="#m1e1c405af4" x="320.081207" y="380.081679" style="fill: #2ca02c; stroke: #2ca02c"/>
     <use xlink:href="#m1e1c405af4" x="336.342557" y="380.476418" style="fill: #2ca02c; stroke: #2ca02c"/>
     <use xlink:href="#m1e1c405af4" x="352.603907" y="380.830068" style="fill: #2ca02c; stroke: #2ca02c"/>
     <use xlink:href="#m1e1c405af4" x="368.865256" y="381.148729" style="fill: #2ca02c; stroke: #2ca02c"/>
     <use xlink:href="#m1e1c405af4" x="385.126606" y="381.437347" style="fill: #2ca02c; stroke: #2ca02c"/>
     <use xlink:href="#m1e1c405af4" x="401.387956" y="381.699981" style="fill: #2ca02c; stroke: #2ca02c"/>
     <use xlink:href="#m1e1c405af4" x="417.649305" y="381.939987" style="fill: #2ca02c; stroke: #2ca02c"/>
     <use xlink:href="#m1e1c405af4" x="433.910655" y="382.16017" style="fill: #2ca02c; stroke: #2ca02c"/>
     <use xlink:href="#m1e1c405af4" x="450.172005" y="382.362889" style="fill: #2ca02c; stroke: #2ca02c"/>
     <use xlink:href="#m1e1c405af4" x="466.433355" y="382.55014" style="fill: #2ca02c; stroke: #2ca02c"/>
     <use xlink:href="#m1e1c405af4" x="482.694704" y="382.723631" style="fill: #2ca02c; stroke: #2ca02c"/>
     <use xlink:href="#m1e1c405af4" x="498.956054" y="382.884824" style="fill: #2ca02c; stroke: #2ca02c"/>
     <use xlink:href="#m1e1c405af4" x="515.217404" y="383.034981" style="fill: #2ca02c; stroke: #2ca02c"/>
     <use xlink:href="#m1e1c405af4" x="531.478753" y="383.175199" style="fill: #2ca02c; stroke: #2ca02c"/>
     <use xlink:href="#m1e1c405af4" x="547.740103" y="383.306432" style="fill: #2ca02c; stroke: #2ca02c"/>
     <use xlink:href="#m1e1c405af4" x="564.001453" y="383.429518" style="fill: #2ca02c; stroke: #2ca02c"/>
     <use xlink:href="#m1e1c405af4" x="580.262802" y="383.545193" style="fill: #2ca02c; stroke: #2ca02c"/>
     <use xlink:href="#m1e1c405af4" x="596.524152" y="383.654105" style="fill: #2ca02c; stroke: #2ca02c"/>
     <use xlink:href="#m1e1c405af4" x="612.785502" y="383.756832" style="fill: #2ca02c; stroke: #2ca02c"/>
     <use xlink:href="#m1e1c405af4" x="629.046851" y="383.853886" style="fill: #2ca02c; stroke: #2ca02c"/>
     <use xlink:href="#m1e1c405af4" x="645.308201" y="383.945724" style="fill: #2ca02c; stroke: #2ca02c"/>
     <use xlink:href="#m1e1c405af4" x="661.569551" y="384.032755" style="fill: #2ca02c; stroke: #2ca02c"/>
     <use xlink:href="#m1e1c405af4" x="677.830901" y="384.115348" style="fill: #2ca02c; stroke: #2ca02c"/>
     <use xlink:href="#m1e1c405af4" x="694.09225" y="384.193833" style="fill: #2ca02c; stroke: #2ca02c"/>
    </g>
   </g>
   <g id="line2d_28">
    <path d="M 43.638262 387.271562 
L 52.3497 387.271562 
L 52.930462 355.766801 
L 54.091987 358.392197 
L 55.253512 360.613687 
L 56.9958 363.371398 
L 58.157325 364.913344 
L 59.31885 324.262039 
L 61.061137 329.512832 
L 62.803425 333.955812 
L 63.384187 335.288705 
L 63.96495 319.651586 
L 65.707237 324.262039 
L 67.449525 328.283923 
L 69.191812 331.823182 
L 69.772574 332.910405 
L 70.353337 320.626874 
L 72.095624 324.262039 
L 74.418674 328.533871 
L 76.741724 332.263248 
L 79.064774 335.547327 
L 81.387824 338.461368 
L 83.710874 341.064578 
L 86.614687 343.952515 
L 89.518499 346.500694 
L 92.422312 348.765742 
L 95.906887 351.172356 
L 99.391461 353.295839 
L 103.456799 355.477766 
L 107.522136 357.396357 
L 112.168236 359.32379 
L 116.814336 361.017594 
L 122.041199 362.693379 
L 127.848823 364.321074 
L 134.237211 365.87944 
L 141.206361 367.354759 
L 149.337035 368.837925 
L 158.048473 370.200017 
L 167.921435 371.519182 
L 178.955922 372.771463 
L 191.732697 373.993693 
L 206.251759 375.154346 
L 223.093872 376.2699 
L 242.259034 377.313161 
L 264.908771 378.316721 
L 291.623845 379.268043 
L 322.98502 380.155497 
L 360.734582 380.99344 
L 406.614818 381.779449 
L 462.368017 382.50468 
L 532.059516 383.180035 
L 620.335414 383.80257 
L 705.7075 384.247545 
L 705.7075 384.247545 
" clip-path="url(#p08ac35f215)" style="fill: none; stroke: #9467bd; stroke-width: 2; stroke-linecap: square"/>
    <defs>
     <path id="m90b10027d0" d="M 0 1.5 
C 0.397805 1.5 0.77937 1.341951 1.06066 1.06066 
C 1.341951 0.77937 1.5 0.397805 1.5 0 
C 1.5 -0.397805 1.341951 -0.77937 1.06066 -1.06066 
C 0.77937 -1.341951 0.397805 -1.5 0 -1.5 
C -0.397805 -1.5 -0.77937 -1.341951 -1.06066 -1.06066 
C -1.341951 -0.77937 -1.5 -0.397805 -1.5 0 
C -1.5 0.397805 -1.341951 0.77937 -1.06066 1.06066 
C -0.77937 1.341951 -0.397805 1.5 0 1.5 
z
" style="stroke: #9467bd"/>
    </defs>
    <g clip-path="url(#p08ac35f215)">
     <use xlink:href="#m90b10027d0" x="43.638262" y="387.271562" style="fill: #9467bd; stroke: #9467bd"/>
     <use xlink:href="#m90b10027d0" x="59.899612" y="326.11526" style="fill: #9467bd; stroke: #9467bd"/>
     <use xlink:href="#m90b10027d0" x="76.160962" y="331.376017" style="fill: #9467bd; stroke: #9467bd"/>
     <use xlink:href="#m90b10027d0" x="92.422312" y="348.765742" style="fill: #9467bd; stroke: #9467bd"/>
     <use xlink:href="#m90b10027d0" x="108.683661" y="357.902717" style="fill: #9467bd; stroke: #9467bd"/>
     <use xlink:href="#m90b10027d0" x="124.945011" y="363.535098" style="fill: #9467bd; stroke: #9467bd"/>
     <use xlink:href="#m90b10027d0" x="141.206361" y="367.354759" style="fill: #9467bd; stroke: #9467bd"/>
     <use xlink:href="#m90b10027d0" x="157.46771" y="370.115504" style="fill: #9467bd; stroke: #9467bd"/>
     <use xlink:href="#m90b10027d0" x="173.72906" y="372.204068" style="fill: #9467bd; stroke: #9467bd"/>
     <use xlink:href="#m90b10027d0" x="189.99041" y="373.8393" style="fill: #9467bd; stroke: #9467bd"/>
     <use xlink:href="#m90b10027d0" x="206.251759" y="375.154346" style="fill: #9467bd; stroke: #9467bd"/>
     <use xlink:href="#m90b10027d0" x="222.513109" y="376.234862" style="fill: #9467bd; stroke: #9467bd"/>
     <use xlink:href="#m90b10027d0" x="238.774459" y="377.138452" style="fill: #9467bd; stroke: #9467bd"/>
     <use xlink:href="#m90b10027d0" x="255.035809" y="377.905282" style="fill: #9467bd; stroke: #9467bd"/>
     <use xlink:href="#m90b10027d0" x="271.297158" y="378.564216" style="fill: #9467bd; stroke: #9467bd"/>
     <use xlink:href="#m90b10027d0" x="287.558508" y="379.13653" style="fill: #9467bd; stroke: #9467bd"/>
     <use xlink:href="#m90b10027d0" x="303.819858" y="379.63825" style="fill: #9467bd; stroke: #9467bd"/>
     <use xlink:href="#m90b10027d0" x="320.081207" y="380.081679" style="fill: #9467bd; stroke: #9467bd"/>
     <use xlink:href="#m90b10027d0" x="336.342557" y="380.476418" style="fill: #9467bd; stroke: #9467bd"/>
     <use xlink:href="#m90b10027d0" x="352.603907" y="380.830068" style="fill: #9467bd; stroke: #9467bd"/>
     <use xlink:href="#m90b10027d0" x="368.865256" y="381.148729" style="fill: #9467bd; stroke: #9467bd"/>
     <use xlink:href="#m90b10027d0" x="385.126606" y="381.437347" style="fill: #9467bd; stroke: #9467bd"/>
     <use xlink:href="#m90b10027d0" x="401.387956" y="381.699981" style="fill: #9467bd; stroke: #9467bd"/>
     <use xlink:href="#m90b10027d0" x="417.649305" y="381.939987" style="fill: #9467bd; stroke: #9467bd"/>
     <use xlink:href="#m90b10027d0" x="433.910655" y="382.16017" style="fill: #9467bd; stroke: #9467bd"/>
     <use xlink:href="#m90b10027d0" x="450.172005" y="382.362889" style="fill: #9467bd; stroke: #9467bd"/>
     <use xlink:href="#m90b10027d0" x="466.433355" y="382.55014" style="fill: #9467bd; stroke: #9467bd"/>
     <use xlink:href="#m90b10027d0" x="482.694704" y="382.723631" style="fill: #9467bd; stroke: #9467bd"/>
     <use xlink:href="#m90b10027d0" x="498.956054" y="382.884824" style="fill: #9467bd; stroke: #9467bd"/>
     <use xlink:href="#m90b10027d0" x="515.217404" y="383.034981" style="fill: #9467bd; stroke: #9467bd"/>
     <use xlink:href="#m90b10027d0" x="531.478753" y="383.175199" style="fill: #9467bd; stroke: #9467bd"/>
     <use xlink:href="#m90b10027d0" x="547.740103" y="383.306432" style="fill: #9467bd; stroke: #9467bd"/>
     <use xlink:href="#m90b10027d0" x="564.001453" y="383.429518" style="fill: #9467bd; stroke: #9467bd"/>
     <use xlink:href="#m90b10027d0" x="580.262802" y="383.545193" style="fill: #9467bd; stroke: #9467bd"/>
     <use xlink:href="#m90b10027d0" x="596.524152" y="383.654105" style="fill: #9467bd; stroke: #9467bd"/>
     <use xlink:href="#m90b10027d0" x="612.785502" y="383.756832" style="fill: #9467bd; stroke: #9467bd"/>
     <use xlink:href="#m90b10027d0" x="629.046851" y="383.853886" style="fill: #9467bd; stroke: #9467bd"/>
     <use xlink:href="#m90b10027d0" x="645.308201" y="383.945724" style="fill: #9467bd; stroke: #9467bd"/>
     <use xlink:href="#m90b10027d0" x="661.569551" y="384.032755" style="fill: #9467bd; stroke: #9467bd"/>
     <use xlink:href="#m90b10027d0" x="677.830901" y="384.115348" style="fill: #9467bd; stroke: #9467bd"/>
     <use xlink:href="#m90b10027d0" x="694.09225" y="384.193833" style="fill: #9467bd; stroke: #9467bd"/>
    </g>
   </g>
   <g id="line2d_29">
    <path d="M 43.638262 387.271562 
L 44.219025 288.256597 
L 44.799787 213.995372 
L 45.38055 233.248282 
L 46.542075 261.252515 
L 47.122837 271.754102 
L 47.7036 227.32431 
L 48.865125 248.65061 
L 49.445887 213.995372 
L 50.02665 224.188089 
L 50.607412 194.742462 
L 51.768937 213.995372 
L 52.930462 229.747753 
L 54.091987 242.874737 
L 55.253512 253.982185 
L 56.415037 263.502855 
L 57.576562 271.754102 
L 59.31885 282.255689 
L 61.061137 291.007012 
L 62.803425 298.411978 
L 64.545712 304.759091 
L 66.288 310.259922 
L 68.030287 315.07315 
L 69.772574 319.320115 
L 71.514862 323.095196 
L 73.837912 327.521152 
L 76.160962 331.376017 
L 78.484012 334.763626 
L 80.807062 337.76408 
L 83.130112 340.44016 
L 86.033924 343.404173 
L 88.937737 346.015327 
L 91.841549 348.333093 
L 95.326124 350.792365 
L 98.810699 352.959446 
L 102.295274 354.88349 
L 106.360611 356.872231 
L 111.006711 358.86563 
L 115.652811 360.613687 
L 120.879674 362.339737 
L 126.687298 364.013013 
L 133.075686 365.612039 
L 140.044836 367.123168 
L 147.594748 368.539001 
L 156.306185 369.943943 
L 166.179148 371.301407 
L 177.213635 372.58714 
L 189.99041 373.8393 
L 204.509472 375.025895 
L 220.770822 376.128399 
L 239.935984 377.197365 
L 262.004958 378.199511 
L 288.13927 379.155582 
L 318.919682 380.051721 
L 355.507719 380.889382 
L 400.226431 381.682008 
L 454.818105 382.417888 
L 522.767316 383.101257 
L 608.139402 383.728082 
L 705.7075 384.247545 
L 705.7075 384.247545 
" clip-path="url(#p08ac35f215)" style="fill: none; stroke: #8c564b; stroke-width: 2; stroke-linecap: square"/>
    <defs>
     <path id="md53dde4773" d="M 0 1.5 
C 0.397805 1.5 0.77937 1.341951 1.06066 1.06066 
C 1.341951 0.77937 1.5 0.397805 1.5 0 
C 1.5 -0.397805 1.341951 -0.77937 1.06066 -1.06066 
C 0.77937 -1.341951 0.397805 -1.5 0 -1.5 
C -0.397805 -1.5 -0.77937 -1.341951 -1.06066 -1.06066 
C -1.341951 -0.77937 -1.5 -0.397805 -1.5 0 
C -1.5 0.397805 -1.341951 0.77937 -1.06066 1.06066 
C -0.77937 1.341951 -0.397805 1.5 0 1.5 
z
" style="stroke: #8c564b"/>
    </defs>
    <g clip-path="url(#p08ac35f215)">
     <use xlink:href="#md53dde4773" x="43.638262" y="387.271562" style="fill: #8c564b; stroke: #8c564b"/>
     <use xlink:href="#md53dde4773" x="59.899612" y="285.344392" style="fill: #8c564b; stroke: #8c564b"/>
     <use xlink:href="#md53dde4773" x="76.160962" y="331.376017" style="fill: #8c564b; stroke: #8c564b"/>
     <use xlink:href="#md53dde4773" x="92.422312" y="348.765742" style="fill: #8c564b; stroke: #8c564b"/>
     <use xlink:href="#md53dde4773" x="108.683661" y="357.902717" style="fill: #8c564b; stroke: #8c564b"/>
     <use xlink:href="#md53dde4773" x="124.945011" y="363.535098" style="fill: #8c564b; stroke: #8c564b"/>
     <use xlink:href="#md53dde4773" x="141.206361" y="367.354759" style="fill: #8c564b; stroke: #8c564b"/>
     <use xlink:href="#md53dde4773" x="157.46771" y="370.115504" style="fill: #8c564b; stroke: #8c564b"/>
     <use xlink:href="#md53dde4773" x="173.72906" y="372.204068" style="fill: #8c564b; stroke: #8c564b"/>
     <use xlink:href="#md53dde4773" x="189.99041" y="373.8393" style="fill: #8c564b; stroke: #8c564b"/>
     <use xlink:href="#md53dde4773" x="206.251759" y="375.154346" style="fill: #8c564b; stroke: #8c564b"/>
     <use xlink:href="#md53dde4773" x="222.513109" y="376.234862" style="fill: #8c564b; stroke: #8c564b"/>
     <use xlink:href="#md53dde4773" x="238.774459" y="377.138452" style="fill: #8c564b; stroke: #8c564b"/>
     <use xlink:href="#md53dde4773" x="255.035809" y="377.905282" style="fill: #8c564b; stroke: #8c564b"/>
     <use xlink:href="#md53dde4773" x="271.297158" y="378.564216" style="fill: #8c564b; stroke: #8c564b"/>
     <use xlink:href="#md53dde4773" x="287.558508" y="379.13653" style="fill: #8c564b; stroke: #8c564b"/>
     <use xlink:href="#md53dde4773" x="303.819858" y="379.63825" style="fill: #8c564b; stroke: #8c564b"/>
     <use xlink:href="#md53dde4773" x="320.081207" y="380.081679" style="fill: #8c564b; stroke: #8c564b"/>
     <use xlink:href="#md53dde4773" x="336.342557" y="380.476418" style="fill: #8c564b; stroke: #8c564b"/>
     <use xlink:href="#md53dde4773" x="352.603907" y="380.830068" style="fill: #8c564b; stroke: #8c564b"/>
     <use xlink:href="#md53dde4773" x="368.865256" y="381.148729" style="fill: #8c564b; stroke: #8c564b"/>
     <use xlink:href="#md53dde4773" x="385.126606" y="381.437347" style="fill: #8c564b; stroke: #8c564b"/>
     <use xlink:href="#md53dde4773" x="401.387956" y="381.699981" style="fill: #8c564b; stroke: #8c564b"/>
     <use xlink:href="#md53dde4773" x="417.649305" y="381.939987" style="fill: #8c564b; stroke: #8c564b"/>
     <use xlink:href="#md53dde4773" x="433.910655" y="382.16017" style="fill: #8c564b; stroke: #8c564b"/>
     <use xlink:href="#md53dde4773" x="450.172005" y="382.362889" style="fill: #8c564b; stroke: #8c564b"/>
     <use xlink:href="#md53dde4773" x="466.433355" y="382.55014" style="fill: #8c564b; stroke: #8c564b"/>
     <use xlink:href="#md53dde4773" x="482.694704" y="382.723631" style="fill: #8c564b; stroke: #8c564b"/>
     <use xlink:href="#md53dde4773" x="498.956054" y="382.884824" style="fill: #8c564b; stroke: #8c564b"/>
     <use xlink:href="#md53dde4773" x="515.217404" y="383.034981" style="fill: #8c564b; stroke: #8c564b"/>
     <use xlink:href="#md53dde4773" x="531.478753" y="383.175199" style="fill: #8c564b; stroke: #8c564b"/>
     <use xlink:href="#md53dde4773" x="547.740103" y="383.306432" style="fill: #8c564b; stroke: #8c564b"/>
     <use xlink:href="#md53dde4773" x="564.001453" y="383.429518" style="fill: #8c564b; stroke: #8c564b"/>
     <use xlink:href="#md53dde4773" x="580.262802" y="383.545193" style="fill: #8c564b; stroke: #8c564b"/>
     <use xlink:href="#md53dde4773" x="596.524152" y="383.654105" style="fill: #8c564b; stroke: #8c564b"/>
     <use xlink:href="#md53dde4773" x="612.785502" y="383.756832" style="fill: #8c564b; stroke: #8c564b"/>
     <use xlink:href="#md53dde4773" x="629.046851" y="383.853886" style="fill: #8c564b; stroke: #8c564b"/>
     <use xlink:href="#md53dde4773" x="645.308201" y="383.945724" style="fill: #8c564b; stroke: #8c564b"/>
     <use xlink:href="#md53dde4773" x="661.569551" y="384.032755" style="fill: #8c564b; stroke: #8c564b"/>
     <use xlink:href="#md53dde4773" x="677.830901" y="384.115348" style="fill: #8c564b; stroke: #8c564b"/>
     <use xlink:href="#md53dde4773" x="694.09225" y="384.193833" style="fill: #8c564b; stroke: #8c564b"/>
    </g>
   </g>
   <g id="line2d_30">
    <path d="M 43.638262 387.271562 
L 47.7036 387.271562 
L 48.865125 294.857594 
L 50.02665 305.729826 
L 50.607412 271.754102 
L 51.188175 277.833969 
L 51.768937 248.65061 
L 52.930462 261.252515 
L 53.511225 236.596614 
L 54.67275 248.65061 
L 55.834275 258.918829 
L 56.9958 267.770741 
L 58.738087 278.973943 
L 60.480375 288.256597 
L 62.222662 296.073568 
L 63.96495 302.746592 
L 65.707237 308.509658 
L 67.449525 313.537013 
L 69.191812 317.961086 
L 70.934099 321.884321 
L 73.257149 326.472899 
L 75.580199 330.459697 
L 77.903249 333.955812 
L 80.226299 337.04658 
L 82.549349 339.798634 
L 85.453162 342.84177 
L 88.356974 345.518264 
L 91.260787 347.89061 
L 94.164599 350.007866 
L 97.649174 352.266271 
L 101.133749 354.266574 
L 105.199086 356.329386 
L 109.264424 358.149514 
L 113.910524 359.983973 
L 119.137386 361.78977 
L 124.945011 363.535098 
L 131.333398 365.198162 
L 138.302548 366.765504 
L 145.852461 368.230223 
L 154.563898 369.680071 
L 163.856098 371.001498 
L 174.309823 372.269295 
L 186.505835 373.519484 
L 200.444135 374.715317 
L 216.124722 375.83419 
L 234.128359 376.895743 
L 255.616571 377.930528 
L 280.589358 378.900732 
L 310.208245 379.818823 
L 345.053994 380.670565 
L 387.449656 381.476372 
L 439.137518 382.227132 
L 503.021391 382.923352 
L 583.166615 383.56512 
L 685.961575 384.155084 
L 705.7075 384.247545 
L 705.7075 384.247545 
" clip-path="url(#p08ac35f215)" style="fill: none; stroke: #e377c2; stroke-width: 2; stroke-linecap: square"/>
    <defs>
     <path id="m79ef75a8b2" d="M 0 1.5 
C 0.397805 1.5 0.77937 1.341951 1.06066 1.06066 
C 1.341951 0.77937 1.5 0.397805 1.5 0 
C 1.5 -0.397805 1.341951 -0.77937 1.06066 -1.06066 
C 0.77937 -1.341951 0.397805 -1.5 0 -1.5 
C -0.397805 -1.5 -0.77937 -1.341951 -1.06066 -1.06066 
C -1.341951 -0.77937 -1.5 -0.397805 -1.5 0 
C -1.5 0.397805 -1.341951 0.77937 -1.06066 1.06066 
C -0.77937 1.341951 -0.397805 1.5 0 1.5 
z
" style="stroke: #e377c2"/>
    </defs>
    <g clip-path="url(#p08ac35f215)">
     <use xlink:href="#m79ef75a8b2" x="43.638262" y="387.271562" style="fill: #e377c2; stroke: #e377c2"/>
     <use xlink:href="#m79ef75a8b2" x="59.899612" y="285.344392" style="fill: #e377c2; stroke: #e377c2"/>
     <use xlink:href="#m79ef75a8b2" x="76.160962" y="331.376017" style="fill: #e377c2; stroke: #e377c2"/>
     <use xlink:href="#m79ef75a8b2" x="92.422312" y="348.765742" style="fill: #e377c2; stroke: #e377c2"/>
     <use xlink:href="#m79ef75a8b2" x="108.683661" y="357.902717" style="fill: #e377c2; stroke: #e377c2"/>
     <use xlink:href="#m79ef75a8b2" x="124.945011" y="363.535098" style="fill: #e377c2; stroke: #e377c2"/>
     <use xlink:href="#m79ef75a8b2" x="141.206361" y="367.354759" style="fill: #e377c2; stroke: #e377c2"/>
     <use xlink:href="#m79ef75a8b2" x="157.46771" y="370.115504" style="fill: #e377c2; stroke: #e377c2"/>
     <use xlink:href="#m79ef75a8b2" x="173.72906" y="372.204068" style="fill: #e377c2; stroke: #e377c2"/>
     <use xlink:href="#m79ef75a8b2" x="189.99041" y="373.8393" style="fill: #e377c2; stroke: #e377c2"/>
     <use xlink:href="#m79ef75a8b2" x="206.251759" y="375.154346" style="fill: #e377c2; stroke: #e377c2"/>
     <use xlink:href="#m79ef75a8b2" x="222.513109" y="376.234862" style="fill: #e377c2; stroke: #e377c2"/>
     <use xlink:href="#m79ef75a8b2" x="238.774459" y="377.138452" style="fill: #e377c2; stroke: #e377c2"/>
     <use xlink:href="#m79ef75a8b2" x="255.035809" y="377.905282" style="fill: #e377c2; stroke: #e377c2"/>
     <use xlink:href="#m79ef75a8b2" x="271.297158" y="378.564216" style="fill: #e377c2; stroke: #e377c2"/>
     <use xlink:href="#m79ef75a8b2" x="287.558508" y="379.13653" style="fill: #e377c2; stroke: #e377c2"/>
     <use xlink:href="#m79ef75a8b2" x="303.819858" y="379.63825" style="fill: #e377c2; stroke: #e377c2"/>
     <use xlink:href="#m79ef75a8b2" x="320.081207" y="380.081679" style="fill: #e377c2; stroke: #e377c2"/>
     <use xlink:href="#m79ef75a8b2" x="336.342557" y="380.476418" style="fill: #e377c2; stroke: #e377c2"/>
     <use xlink:href="#m79ef75a8b2" x="352.603907" y="380.830068" style="fill: #e377c2; stroke: #e377c2"/>
     <use xlink:href="#m79ef75a8b2" x="368.865256" y="381.148729" style="fill: #e377c2; stroke: #e377c2"/>
     <use xlink:href="#m79ef75a8b2" x="385.126606" y="381.437347" style="fill: #e377c2; stroke: #e377c2"/>
     <use xlink:href="#m79ef75a8b2" x="401.387956" y="381.699981" style="fill: #e377c2; stroke: #e377c2"/>
     <use xlink:href="#m79ef75a8b2" x="417.649305" y="381.939987" style="fill: #e377c2; stroke: #e377c2"/>
     <use xlink:href="#m79ef75a8b2" x="433.910655" y="382.16017" style="fill: #e377c2; stroke: #e377c2"/>
     <use xlink:href="#m79ef75a8b2" x="450.172005" y="382.362889" style="fill: #e377c2; stroke: #e377c2"/>
     <use xlink:href="#m79ef75a8b2" x="466.433355" y="382.55014" style="fill: #e377c2; stroke: #e377c2"/>
     <use xlink:href="#m79ef75a8b2" x="482.694704" y="382.723631" style="fill: #e377c2; stroke: #e377c2"/>
     <use xlink:href="#m79ef75a8b2" x="498.956054" y="382.884824" style="fill: #e377c2; stroke: #e377c2"/>
     <use xlink:href="#m79ef75a8b2" x="515.217404" y="383.034981" style="fill: #e377c2; stroke: #e377c2"/>
     <use xlink:href="#m79ef75a8b2" x="531.478753" y="383.175199" style="fill: #e377c2; stroke: #e377c2"/>
     <use xlink:href="#m79ef75a8b2" x="547.740103" y="383.306432" style="fill: #e377c2; stroke: #e377c2"/>
     <use xlink:href="#m79ef75a8b2" x="564.001453" y="383.429518" style="fill: #e377c2; stroke: #e377c2"/>
     <use xlink:href="#m79ef75a8b2" x="580.262802" y="383.545193" style="fill: #e377c2; stroke: #e377c2"/>
     <use xlink:href="#m79ef75a8b2" x="596.524152" y="383.654105" style="fill: #e377c2; stroke: #e377c2"/>
     <use xlink:href="#m79ef75a8b2" x="612.785502" y="383.756832" style="fill: #e377c2; stroke: #e377c2"/>
     <use xlink:href="#m79ef75a8b2" x="629.046851" y="383.853886" style="fill: #e377c2; stroke: #e377c2"/>
     <use xlink:href="#m79ef75a8b2" x="645.308201" y="383.945724" style="fill: #e377c2; stroke: #e377c2"/>
     <use xlink:href="#m79ef75a8b2" x="661.569551" y="384.032755" style="fill: #e377c2; stroke: #e377c2"/>
     <use xlink:href="#m79ef75a8b2" x="677.830901" y="384.115348" style="fill: #e377c2; stroke: #e377c2"/>
     <use xlink:href="#m79ef75a8b2" x="694.09225" y="384.193833" style="fill: #e377c2; stroke: #e377c2"/>
    </g>
   </g>
   <g id="line2d_31">
    <path d="M 43.638262 387.271562 
L 45.38055 387.271562 
L 45.961312 317.961086 
L 46.542075 324.262039 
L 47.122837 271.754102 
L 47.7036 280.640061 
L 48.865125 202.443626 
L 50.02665 224.188089 
L 51.188175 241.354771 
L 52.3497 255.251608 
L 53.511225 266.731604 
L 54.67275 276.374801 
L 55.253512 253.982185 
L 56.415037 263.502855 
L 57.576562 271.754102 
L 59.31885 282.255689 
L 61.061137 291.007012 
L 62.803425 298.411978 
L 64.545712 304.759091 
L 66.288 310.259922 
L 68.030287 315.07315 
L 69.772574 319.320115 
L 71.514862 323.095196 
L 73.837912 327.521152 
L 76.160962 331.376017 
L 78.484012 334.763626 
L 80.807062 337.76408 
L 83.130112 340.44016 
L 86.033924 343.404173 
L 88.937737 346.015327 
L 91.841549 348.333093 
L 95.326124 350.792365 
L 98.810699 352.959446 
L 102.295274 354.88349 
L 106.360611 356.872231 
L 111.006711 358.86563 
L 115.652811 360.613687 
L 120.879674 362.339737 
L 126.687298 364.013013 
L 133.075686 365.612039 
L 140.044836 367.123168 
L 147.594748 368.539001 
L 156.306185 369.943943 
L 166.179148 371.301407 
L 177.213635 372.58714 
L 189.99041 373.8393 
L 204.509472 375.025895 
L 220.770822 376.128399 
L 239.935984 377.197365 
L 262.004958 378.199511 
L 288.13927 379.155582 
L 318.919682 380.051721 
L 355.507719 380.889382 
L 400.226431 381.682008 
L 454.818105 382.417888 
L 522.767316 383.101257 
L 608.139402 383.728082 
L 705.7075 384.247545 
L 705.7075 384.247545 
" clip-path="url(#p08ac35f215)" style="fill: none; stroke: #17becf; stroke-width: 2; stroke-linecap: square"/>
    <defs>
     <path id="m140c61c508" d="M 0 1.5 
C 0.397805 1.5 0.77937 1.341951 1.06066 1.06066 
C 1.341951 0.77937 1.5 0.397805 1.5 0 
C 1.5 -0.397805 1.341951 -0.77937 1.06066 -1.06066 
C 0.77937 -1.341951 0.397805 -1.5 0 -1.5 
C -0.397805 -1.5 -0.77937 -1.341951 -1.06066 -1.06066 
C -1.341951 -0.77937 -1.5 -0.397805 -1.5 0 
C -1.5 0.397805 -1.341951 0.77937 -1.06066 1.06066 
C -0.77937 1.341951 -0.397805 1.5 0 1.5 
z
" style="stroke: #17becf"/>
    </defs>
    <g clip-path="url(#p08ac35f215)">
     <use xlink:href="#m140c61c508" x="43.638262" y="387.271562" style="fill: #17becf; stroke: #17becf"/>
     <use xlink:href="#m140c61c508" x="59.899612" y="285.344392" style="fill: #17becf; stroke: #17becf"/>
     <use xlink:href="#m140c61c508" x="76.160962" y="331.376017" style="fill: #17becf; stroke: #17becf"/>
     <use xlink:href="#m140c61c508" x="92.422312" y="348.765742" style="fill: #17becf; stroke: #17becf"/>
     <use xlink:href="#m140c61c508" x="108.683661" y="357.902717" style="fill: #17becf; stroke: #17becf"/>
     <use xlink:href="#m140c61c508" x="124.945011" y="363.535098" style="fill: #17becf; stroke: #17becf"/>
     <use xlink:href="#m140c61c508" x="141.206361" y="367.354759" style="fill: #17becf; stroke: #17becf"/>
     <use xlink:href="#m140c61c508" x="157.46771" y="370.115504" style="fill: #17becf; stroke: #17becf"/>
     <use xlink:href="#m140c61c508" x="173.72906" y="372.204068" style="fill: #17becf; stroke: #17becf"/>
     <use xlink:href="#m140c61c508" x="189.99041" y="373.8393" style="fill: #17becf; stroke: #17becf"/>
     <use xlink:href="#m140c61c508" x="206.251759" y="375.154346" style="fill: #17becf; stroke: #17becf"/>
     <use xlink:href="#m140c61c508" x="222.513109" y="376.234862" style="fill: #17becf; stroke: #17becf"/>
     <use xlink:href="#m140c61c508" x="238.774459" y="377.138452" style="fill: #17becf; stroke: #17becf"/>
     <use xlink:href="#m140c61c508" x="255.035809" y="377.905282" style="fill: #17becf; stroke: #17becf"/>
     <use xlink:href="#m140c61c508" x="271.297158" y="378.564216" style="fill: #17becf; stroke: #17becf"/>
     <use xlink:href="#m140c61c508" x="287.558508" y="379.13653" style="fill: #17becf; stroke: #17becf"/>
     <use xlink:href="#m140c61c508" x="303.819858" y="379.63825" style="fill: #17becf; stroke: #17becf"/>
     <use xlink:href="#m140c61c508" x="320.081207" y="380.081679" style="fill: #17becf; stroke: #17becf"/>
     <use xlink:href="#m140c61c508" x="336.342557" y="380.476418" style="fill: #17becf; stroke: #17becf"/>
     <use xlink:href="#m140c61c508" x="352.603907" y="380.830068" style="fill: #17becf; stroke: #17becf"/>
     <use xlink:href="#m140c61c508" x="368.865256" y="381.148729" style="fill: #17becf; stroke: #17becf"/>
     <use xlink:href="#m140c61c508" x="385.126606" y="381.437347" style="fill: #17becf; stroke: #17becf"/>
     <use xlink:href="#m140c61c508" x="401.387956" y="381.699981" style="fill: #17becf; stroke: #17becf"/>
     <use xlink:href="#m140c61c508" x="417.649305" y="381.939987" style="fill: #17becf; stroke: #17becf"/>
     <use xlink:href="#m140c61c508" x="433.910655" y="382.16017" style="fill: #17becf; stroke: #17becf"/>
     <use xlink:href="#m140c61c508" x="450.172005" y="382.362889" style="fill: #17becf; stroke: #17becf"/>
     <use xlink:href="#m140c61c508" x="466.433355" y="382.55014" style="fill: #17becf; stroke: #17becf"/>
     <use xlink:href="#m140c61c508" x="482.694704" y="382.723631" style="fill: #17becf; stroke: #17becf"/>
     <use xlink:href="#m140c61c508" x="498.956054" y="382.884824" style="fill: #17becf; stroke: #17becf"/>
     <use xlink:href="#m140c61c508" x="515.217404" y="383.034981" style="fill: #17becf; stroke: #17becf"/>
     <use xlink:href="#m140c61c508" x="531.478753" y="383.175199" style="fill: #17becf; stroke: #17becf"/>
     <use xlink:href="#m140c61c508" x="547.740103" y="383.306432" style="fill: #17becf; stroke: #17becf"/>
     <use xlink:href="#m140c61c508" x="564.001453" y="383.429518" style="fill: #17becf; stroke: #17becf"/>
     <use xlink:href="#m140c61c508" x="580.262802" y="383.545193" style="fill: #17becf; stroke: #17becf"/>
     <use xlink:href="#m140c61c508" x="596.524152" y="383.654105" style="fill: #17becf; stroke: #17becf"/>
     <use xlink:href="#m140c61c508" x="612.785502" y="383.756832" style="fill: #17becf; stroke: #17becf"/>
     <use xlink:href="#m140c61c508" x="629.046851" y="383.853886" style="fill: #17becf; stroke: #17becf"/>
     <use xlink:href="#m140c61c508" x="645.308201" y="383.945724" style="fill: #17becf; stroke: #17becf"/>
     <use xlink:href="#m140c61c508" x="661.569551" y="384.032755" style="fill: #17becf; stroke: #17becf"/>
     <use xlink:href="#m140c61c508" x="677.830901" y="384.115348" style="fill: #17becf; stroke: #17becf"/>
     <use xlink:href="#m140c61c508" x="694.09225" y="384.193833" style="fill: #17becf; stroke: #17becf"/>
    </g>
   </g>
   <g id="line2d_32">
    <path d="M 43.638262 271.754102 
L 44.219025 288.256597 
L 44.799787 300.633467 
L 45.38055 310.259922 
L 45.961312 317.961086 
L 47.122837 213.995372 
L 47.7036 174.008559 
L 48.284362 189.241631 
L 48.865125 156.236642 
L 50.02665 183.417221 
L 51.188175 204.875573 
L 52.3497 222.246619 
L 53.511225 236.596614 
L 54.67275 248.65061 
L 55.834275 258.918829 
L 56.9958 267.770741 
L 58.738087 278.973943 
L 60.480375 288.256597 
L 62.222662 296.073568 
L 63.96495 302.746592 
L 65.707237 308.509658 
L 67.449525 313.537013 
L 69.191812 317.961086 
L 70.934099 321.884321 
L 73.257149 326.472899 
L 75.580199 330.459697 
L 77.903249 333.955812 
L 80.226299 337.04658 
L 82.549349 339.798634 
L 85.453162 342.84177 
L 88.356974 345.518264 
L 91.260787 347.89061 
L 94.164599 350.007866 
L 97.649174 352.266271 
L 101.133749 354.266574 
L 105.199086 356.329386 
L 109.264424 358.149514 
L 113.910524 359.983973 
L 119.137386 361.78977 
L 124.945011 363.535098 
L 131.333398 365.198162 
L 138.302548 366.765504 
L 145.852461 368.230223 
L 154.563898 369.680071 
L 163.856098 371.001498 
L 174.309823 372.269295 
L 186.505835 373.519484 
L 200.444135 374.715317 
L 216.124722 375.83419 
L 234.128359 376.895743 
L 255.616571 377.930528 
L 280.589358 378.900732 
L 310.208245 379.818823 
L 345.053994 380.670565 
L 387.449656 381.476372 
L 439.137518 382.227132 
L 503.021391 382.923352 
L 583.166615 383.56512 
L 685.961575 384.155084 
L 705.7075 384.247545 
L 705.7075 384.247545 
" clip-path="url(#p08ac35f215)" style="fill: none; stroke: #e31818; stroke-width: 2.5; stroke-linecap: square"/>
    <defs>
     <path id="m56e012df25" d="M 0 1.5 
C 0.397805 1.5 0.77937 1.341951 1.06066 1.06066 
C 1.341951 0.77937 1.5 0.397805 1.5 0 
C 1.5 -0.397805 1.341951 -0.77937 1.06066 -1.06066 
C 0.77937 -1.341951 0.397805 -1.5 0 -1.5 
C -0.397805 -1.5 -0.77937 -1.341951 -1.06066 -1.06066 
C -1.341951 -0.77937 -1.5 -0.397805 -1.5 0 
C -1.5 0.397805 -1.341951 0.77937 -1.06066 1.06066 
C -0.77937 1.341951 -0.397805 1.5 0 1.5 
z
" style="stroke: #e31818"/>
    </defs>
    <g clip-path="url(#p08ac35f215)">
     <use xlink:href="#m56e012df25" x="43.638262" y="271.754102" style="fill: #e31818; stroke: #e31818"/>
     <use xlink:href="#m56e012df25" x="59.899612" y="285.344392" style="fill: #e31818; stroke: #e31818"/>
     <use xlink:href="#m56e012df25" x="76.160962" y="331.376017" style="fill: #e31818; stroke: #e31818"/>
     <use xlink:href="#m56e012df25" x="92.422312" y="348.765742" style="fill: #e31818; stroke: #e31818"/>
     <use xlink:href="#m56e012df25" x="108.683661" y="357.902717" style="fill: #e31818; stroke: #e31818"/>
     <use xlink:href="#m56e012df25" x="124.945011" y="363.535098" style="fill: #e31818; stroke: #e31818"/>
     <use xlink:href="#m56e012df25" x="141.206361" y="367.354759" style="fill: #e31818; stroke: #e31818"/>
     <use xlink:href="#m56e012df25" x="157.46771" y="370.115504" style="fill: #e31818; stroke: #e31818"/>
     <use xlink:href="#m56e012df25" x="173.72906" y="372.204068" style="fill: #e31818; stroke: #e31818"/>
     <use xlink:href="#m56e012df25" x="189.99041" y="373.8393" style="fill: #e31818; stroke: #e31818"/>
     <use xlink:href="#m56e012df25" x="206.251759" y="375.154346" style="fill: #e31818; stroke: #e31818"/>
     <use xlink:href="#m56e012df25" x="222.513109" y="376.234862" style="fill: #e31818; stroke: #e31818"/>
     <use xlink:href="#m56e012df25" x="238.774459" y="377.138452" style="fill: #e31818; stroke: #e31818"/>
     <use xlink:href="#m56e012df25" x="255.035809" y="377.905282" style="fill: #e31818; stroke: #e31818"/>
     <use xlink:href="#m56e012df25" x="271.297158" y="378.564216" style="fill: #e31818; stroke: #e31818"/>
     <use xlink:href="#m56e012df25" x="287.558508" y="379.13653" style="fill: #e31818; stroke: #e31818"/>
     <use xlink:href="#m56e012df25" x="303.819858" y="379.63825" style="fill: #e31818; stroke: #e31818"/>
     <use xlink:href="#m56e012df25" x="320.081207" y="380.081679" style="fill: #e31818; stroke: #e31818"/>
     <use xlink:href="#m56e012df25" x="336.342557" y="380.476418" style="fill: #e31818; stroke: #e31818"/>
     <use xlink:href="#m56e012df25" x="352.603907" y="380.830068" style="fill: #e31818; stroke: #e31818"/>
     <use xlink:href="#m56e012df25" x="368.865256" y="381.148729" style="fill: #e31818; stroke: #e31818"/>
     <use xlink:href="#m56e012df25" x="385.126606" y="381.437347" style="fill: #e31818; stroke: #e31818"/>
     <use xlink:href="#m56e012df25" x="401.387956" y="381.699981" style="fill: #e31818; stroke: #e31818"/>
     <use xlink:href="#m56e012df25" x="417.649305" y="381.939987" style="fill: #e31818; stroke: #e31818"/>
     <use xlink:href="#m56e012df25" x="433.910655" y="382.16017" style="fill: #e31818; stroke: #e31818"/>
     <use xlink:href="#m56e012df25" x="450.172005" y="382.362889" style="fill: #e31818; stroke: #e31818"/>
     <use xlink:href="#m56e012df25" x="466.433355" y="382.55014" style="fill: #e31818; stroke: #e31818"/>
     <use xlink:href="#m56e012df25" x="482.694704" y="382.723631" style="fill: #e31818; stroke: #e31818"/>
     <use xlink:href="#m56e012df25" x="498.956054" y="382.884824" style="fill: #e31818; stroke: #e31818"/>
     <use xlink:href="#m56e012df25" x="515.217404" y="383.034981" style="fill: #e31818; stroke: #e31818"/>
     <use xlink:href="#m56e012df25" x="531.478753" y="383.175199" style="fill: #e31818; stroke: #e31818"/>
     <use xlink:href="#m56e012df25" x="547.740103" y="383.306432" style="fill: #e31818; stroke: #e31818"/>
     <use xlink:href="#m56e012df25" x="564.001453" y="383.429518" style="fill: #e31818; stroke: #e31818"/>
     <use xlink:href="#m56e012df25" x="580.262802" y="383.545193" style="fill: #e31818; stroke: #e31818"/>
     <use xlink:href="#m56e012df25" x="596.524152" y="383.654105" style="fill: #e31818; stroke: #e31818"/>
     <use xlink:href="#m56e012df25" x="612.785502" y="383.756832" style="fill: #e31818; stroke: #e31818"/>
     <use xlink:href="#m56e012df25" x="629.046851" y="383.853886" style="fill: #e31818; stroke: #e31818"/>
     <use xlink:href="#m56e012df25" x="645.308201" y="383.945724" style="fill: #e31818; stroke: #e31818"/>
     <use xlink:href="#m56e012df25" x="661.569551" y="384.032755" style="fill: #e31818; stroke: #e31818"/>
     <use xlink:href="#m56e012df25" x="677.830901" y="384.115348" style="fill: #e31818; stroke: #e31818"/>
     <use xlink:href="#m56e012df25" x="694.09225" y="384.193833" style="fill: #e31818; stroke: #e31818"/>
    </g>
   </g>
   <g id="patch_3">
    <path d="M 43.0575 387.271562 
L 43.0575 23.391562 
" style="fill: none; stroke: #000000; stroke-width: 0.8; stroke-linejoin: miter; stroke-linecap: square"/>
   </g>
   <g id="patch_4">
    <path d="M 705.7075 387.271562 
L 705.7075 23.391562 
" style="fill: none; stroke: #000000; stroke-width: 0.8; stroke-linejoin: miter; stroke-linecap: square"/>
   </g>
   <g id="patch_5">
    <path d="M 43.0575 387.271562 
L 705.7075 387.271562 
" style="fill: none; stroke: #000000; stroke-width: 0.8; stroke-linejoin: miter; stroke-linecap: square"/>
   </g>
   <g id="patch_6">
    <path d="M 43.0575 23.391562 
L 705.7075 23.391562 
" style="fill: none; stroke: #000000; stroke-width: 0.8; stroke-linejoin: miter; stroke-linecap: square"/>
   </g>
   <g id="text_15">
    <!-- F1-Score vs k - yeast -->
    <g transform="translate(304.740156 17.391562) scale(0.14 -0.14)">
     <defs>
      <path id="Arial-BoldMT-76" d="M 1372 0 
L 34 3319 
L 956 3319 
L 1581 1625 
L 1763 1059 
Q 1834 1275 1853 1344 
Q 1897 1484 1947 1625 
L 2578 3319 
L 3481 3319 
L 2163 0 
L 1372 0 
z
" transform="scale(0.015625)"/>
      <path id="Arial-BoldMT-79" d="M 44 3319 
L 978 3319 
L 1772 963 
L 2547 3319 
L 3456 3319 
L 2284 125 
L 2075 -453 
Q 1959 -744 1854 -897 
Q 1750 -1050 1614 -1145 
Q 1478 -1241 1279 -1294 
Q 1081 -1347 831 -1347 
Q 578 -1347 334 -1294 
L 256 -606 
Q 463 -647 628 -647 
Q 934 -647 1081 -467 
Q 1228 -288 1306 -9 
L 44 3319 
z
" transform="scale(0.015625)"/>
      <path id="Arial-BoldMT-61" d="M 1116 2306 
L 319 2450 
Q 453 2931 781 3162 
Q 1109 3394 1756 3394 
Q 2344 3394 2631 3255 
Q 2919 3116 3036 2902 
Q 3153 2688 3153 2116 
L 3144 1091 
Q 3144 653 3186 445 
Q 3228 238 3344 0 
L 2475 0 
Q 2441 88 2391 259 
Q 2369 338 2359 363 
Q 2134 144 1878 34 
Q 1622 -75 1331 -75 
Q 819 -75 523 203 
Q 228 481 228 906 
Q 228 1188 362 1408 
Q 497 1628 739 1745 
Q 981 1863 1438 1950 
Q 2053 2066 2291 2166 
L 2291 2253 
Q 2291 2506 2166 2614 
Q 2041 2722 1694 2722 
Q 1459 2722 1328 2630 
Q 1197 2538 1116 2306 
z
M 2291 1594 
Q 2122 1538 1756 1459 
Q 1391 1381 1278 1306 
Q 1106 1184 1106 997 
Q 1106 813 1243 678 
Q 1381 544 1594 544 
Q 1831 544 2047 700 
Q 2206 819 2256 991 
Q 2291 1103 2291 1419 
L 2291 1594 
z
" transform="scale(0.015625)"/>
      <path id="Arial-BoldMT-74" d="M 1981 3319 
L 1981 2619 
L 1381 2619 
L 1381 1281 
Q 1381 875 1398 808 
Q 1416 741 1477 697 
Q 1538 653 1625 653 
Q 1747 653 1978 738 
L 2053 56 
Q 1747 -75 1359 -75 
Q 1122 -75 931 4 
Q 741 84 652 211 
Q 563 338 528 553 
Q 500 706 500 1172 
L 500 2619 
L 97 2619 
L 97 3319 
L 500 3319 
L 500 3978 
L 1381 4491 
L 1381 3319 
L 1981 3319 
z
" transform="scale(0.015625)"/>
     </defs>
     <use xlink:href="#Arial-BoldMT-46"/>
     <use xlink:href="#Arial-BoldMT-31" transform="translate(61.083984 0)"/>
     <use xlink:href="#Arial-BoldMT-2d" transform="translate(116.699219 0)"/>
     <use xlink:href="#Arial-BoldMT-53" transform="translate(150 0)"/>
     <use xlink:href="#Arial-BoldMT-63" transform="translate(216.699219 0)"/>
     <use xlink:href="#Arial-BoldMT-6f" transform="translate(272.314453 0)"/>
     <use xlink:href="#Arial-BoldMT-72" transform="translate(333.398438 0)"/>
     <use xlink:href="#Arial-BoldMT-65" transform="translate(372.314453 0)"/>
     <use xlink:href="#Arial-BoldMT-20" transform="translate(427.929688 0)"/>
     <use xlink:href="#Arial-BoldMT-76" transform="translate(455.712891 0)"/>
     <use xlink:href="#Arial-BoldMT-73" transform="translate(511.328125 0)"/>
     <use xlink:href="#Arial-BoldMT-20" transform="translate(566.943359 0)"/>
     <use xlink:href="#Arial-BoldMT-6b" transform="translate(594.726562 0)"/>
     <use xlink:href="#Arial-BoldMT-20" transform="translate(650.341797 0)"/>
     <use xlink:href="#Arial-BoldMT-2d" transform="translate(678.125 0)"/>
     <use xlink:href="#Arial-BoldMT-20" transform="translate(711.425781 0)"/>
     <use xlink:href="#Arial-BoldMT-79" transform="translate(739.208984 0)"/>
     <use xlink:href="#Arial-BoldMT-65" transform="translate(794.824219 0)"/>
     <use xlink:href="#Arial-BoldMT-61" transform="translate(850.439453 0)"/>
     <use xlink:href="#Arial-BoldMT-73" transform="translate(906.054688 0)"/>
     <use xlink:href="#Arial-BoldMT-74" transform="translate(961.669922 0)"/>
    </g>
   </g>
   <g id="legend_1">
    <g id="patch_7">
     <path d="M 633.610469 132.437812 
L 699.4075 132.437812 
Q 701.2075 132.437812 701.2075 130.637812 
L 701.2075 29.691562 
Q 701.2075 27.891562 699.4075 27.891562 
L 633.610469 27.891562 
Q 631.810469 27.891562 631.810469 29.691562 
L 631.810469 130.637812 
Q 631.810469 132.437812 633.610469 132.437812 
z
" style="fill: #ffffff; opacity: 0.8; stroke: #cccccc; stroke-linejoin: miter"/>
    </g>
    <g id="line2d_33">
     <path d="M 635.410469 34.783594 
L 644.410469 34.783594 
L 653.410469 34.783594 
" style="fill: none; stroke: #1f77b4; stroke-width: 2; stroke-linecap: square"/>
     <g>
      <use xlink:href="#m68672c2212" x="644.410469" y="34.783594" style="fill: #1f77b4; stroke: #1f77b4"/>
     </g>
    </g>
    <g id="text_16">
     <!-- ADFNR -->
     <g transform="translate(660.610469 37.933594) scale(0.09 -0.09)">
      <defs>
       <path id="ArialMT-41" d="M -9 0 
L 1750 4581 
L 2403 4581 
L 4278 0 
L 3588 0 
L 3053 1388 
L 1138 1388 
L 634 0 
L -9 0 
z
M 1313 1881 
L 2866 1881 
L 2388 3150 
Q 2169 3728 2063 4100 
Q 1975 3659 1816 3225 
L 1313 1881 
z
" transform="scale(0.015625)"/>
       <path id="ArialMT-44" d="M 494 0 
L 494 4581 
L 2072 4581 
Q 2606 4581 2888 4516 
Q 3281 4425 3559 4188 
Q 3922 3881 4101 3404 
Q 4281 2928 4281 2316 
Q 4281 1794 4159 1391 
Q 4038 988 3847 723 
Q 3656 459 3429 307 
Q 3203 156 2883 78 
Q 2563 0 2147 0 
L 494 0 
z
M 1100 541 
L 2078 541 
Q 2531 541 2789 625 
Q 3047 709 3200 863 
Q 3416 1078 3536 1442 
Q 3656 1806 3656 2325 
Q 3656 3044 3420 3430 
Q 3184 3816 2847 3947 
Q 2603 4041 2063 4041 
L 1100 4041 
L 1100 541 
z
" transform="scale(0.015625)"/>
       <path id="ArialMT-46" d="M 525 0 
L 525 4581 
L 3616 4581 
L 3616 4041 
L 1131 4041 
L 1131 2622 
L 3281 2622 
L 3281 2081 
L 1131 2081 
L 1131 0 
L 525 0 
z
" transform="scale(0.015625)"/>
       <path id="ArialMT-4e" d="M 488 0 
L 488 4581 
L 1109 4581 
L 3516 984 
L 3516 4581 
L 4097 4581 
L 4097 0 
L 3475 0 
L 1069 3600 
L 1069 0 
L 488 0 
z
" transform="scale(0.015625)"/>
       <path id="ArialMT-52" d="M 503 0 
L 503 4581 
L 2534 4581 
Q 3147 4581 3465 4457 
Q 3784 4334 3975 4021 
Q 4166 3709 4166 3331 
Q 4166 2844 3850 2509 
Q 3534 2175 2875 2084 
Q 3116 1969 3241 1856 
Q 3506 1613 3744 1247 
L 4541 0 
L 3778 0 
L 3172 953 
Q 2906 1366 2734 1584 
Q 2563 1803 2427 1890 
Q 2291 1978 2150 2013 
Q 2047 2034 1813 2034 
L 1109 2034 
L 1109 0 
L 503 0 
z
M 1109 2559 
L 2413 2559 
Q 2828 2559 3062 2645 
Q 3297 2731 3419 2920 
Q 3541 3109 3541 3331 
Q 3541 3656 3305 3865 
Q 3069 4075 2559 4075 
L 1109 4075 
L 1109 2559 
z
" transform="scale(0.015625)"/>
      </defs>
      <use xlink:href="#ArialMT-41"/>
      <use xlink:href="#ArialMT-44" transform="translate(66.699219 0)"/>
      <use xlink:href="#ArialMT-46" transform="translate(138.916016 0)"/>
      <use xlink:href="#ArialMT-4e" transform="translate(200 0)"/>
      <use xlink:href="#ArialMT-52" transform="translate(272.216797 0)"/>
     </g>
    </g>
    <g id="line2d_34">
     <path d="M 635.410469 47.514375 
L 644.410469 47.514375 
L 653.410469 47.514375 
" style="fill: none; stroke: #ff7f0e; stroke-width: 2; stroke-linecap: square"/>
     <g>
      <use xlink:href="#mf991674920" x="644.410469" y="47.514375" style="fill: #ff7f0e; stroke: #ff7f0e"/>
     </g>
    </g>
    <g id="text_17">
     <!-- DASOD -->
     <g transform="translate(660.610469 50.664375) scale(0.09 -0.09)">
      <defs>
       <path id="ArialMT-53" d="M 288 1472 
L 859 1522 
Q 900 1178 1048 958 
Q 1197 738 1509 602 
Q 1822 466 2213 466 
Q 2559 466 2825 569 
Q 3091 672 3220 851 
Q 3350 1031 3350 1244 
Q 3350 1459 3225 1620 
Q 3100 1781 2813 1891 
Q 2628 1963 1997 2114 
Q 1366 2266 1113 2400 
Q 784 2572 623 2826 
Q 463 3081 463 3397 
Q 463 3744 659 4045 
Q 856 4347 1234 4503 
Q 1613 4659 2075 4659 
Q 2584 4659 2973 4495 
Q 3363 4331 3572 4012 
Q 3781 3694 3797 3291 
L 3216 3247 
Q 3169 3681 2898 3903 
Q 2628 4125 2100 4125 
Q 1550 4125 1298 3923 
Q 1047 3722 1047 3438 
Q 1047 3191 1225 3031 
Q 1400 2872 2139 2705 
Q 2878 2538 3153 2413 
Q 3553 2228 3743 1945 
Q 3934 1663 3934 1294 
Q 3934 928 3725 604 
Q 3516 281 3123 101 
Q 2731 -78 2241 -78 
Q 1619 -78 1198 103 
Q 778 284 539 648 
Q 300 1013 288 1472 
z
" transform="scale(0.015625)"/>
       <path id="ArialMT-4f" d="M 309 2231 
Q 309 3372 921 4017 
Q 1534 4663 2503 4663 
Q 3138 4663 3647 4359 
Q 4156 4056 4423 3514 
Q 4691 2972 4691 2284 
Q 4691 1588 4409 1038 
Q 4128 488 3612 205 
Q 3097 -78 2500 -78 
Q 1853 -78 1343 234 
Q 834 547 571 1087 
Q 309 1628 309 2231 
z
M 934 2222 
Q 934 1394 1379 917 
Q 1825 441 2497 441 
Q 3181 441 3623 922 
Q 4066 1403 4066 2288 
Q 4066 2847 3877 3264 
Q 3688 3681 3323 3911 
Q 2959 4141 2506 4141 
Q 1863 4141 1398 3698 
Q 934 3256 934 2222 
z
" transform="scale(0.015625)"/>
      </defs>
      <use xlink:href="#ArialMT-44"/>
      <use xlink:href="#ArialMT-41" transform="translate(72.216797 0)"/>
      <use xlink:href="#ArialMT-53" transform="translate(138.916016 0)"/>
      <use xlink:href="#ArialMT-4f" transform="translate(205.615234 0)"/>
      <use xlink:href="#ArialMT-44" transform="translate(283.398438 0)"/>
     </g>
    </g>
    <g id="line2d_35">
     <path d="M 635.410469 60.245156 
L 644.410469 60.245156 
L 653.410469 60.245156 
" style="fill: none; stroke: #2ca02c; stroke-width: 2; stroke-linecap: square"/>
     <g>
      <use xlink:href="#m1e1c405af4" x="644.410469" y="60.245156" style="fill: #2ca02c; stroke: #2ca02c"/>
     </g>
    </g>
    <g id="text_18">
     <!-- GCN -->
     <g transform="translate(660.610469 63.395156) scale(0.09 -0.09)">
      <defs>
       <path id="ArialMT-47" d="M 2638 1797 
L 2638 2334 
L 4578 2338 
L 4578 638 
Q 4131 281 3656 101 
Q 3181 -78 2681 -78 
Q 2006 -78 1454 211 
Q 903 500 622 1047 
Q 341 1594 341 2269 
Q 341 2938 620 3517 
Q 900 4097 1425 4378 
Q 1950 4659 2634 4659 
Q 3131 4659 3532 4498 
Q 3934 4338 4162 4050 
Q 4391 3763 4509 3300 
L 3963 3150 
Q 3859 3500 3706 3700 
Q 3553 3900 3268 4020 
Q 2984 4141 2638 4141 
Q 2222 4141 1919 4014 
Q 1616 3888 1430 3681 
Q 1244 3475 1141 3228 
Q 966 2803 966 2306 
Q 966 1694 1177 1281 
Q 1388 869 1791 669 
Q 2194 469 2647 469 
Q 3041 469 3416 620 
Q 3791 772 3984 944 
L 3984 1797 
L 2638 1797 
z
" transform="scale(0.015625)"/>
       <path id="ArialMT-43" d="M 3763 1606 
L 4369 1453 
Q 4178 706 3683 314 
Q 3188 -78 2472 -78 
Q 1731 -78 1267 223 
Q 803 525 561 1097 
Q 319 1669 319 2325 
Q 319 3041 592 3573 
Q 866 4106 1370 4382 
Q 1875 4659 2481 4659 
Q 3169 4659 3637 4309 
Q 4106 3959 4291 3325 
L 3694 3184 
Q 3534 3684 3231 3912 
Q 2928 4141 2469 4141 
Q 1941 4141 1586 3887 
Q 1231 3634 1087 3207 
Q 944 2781 944 2328 
Q 944 1744 1114 1308 
Q 1284 872 1643 656 
Q 2003 441 2422 441 
Q 2931 441 3284 734 
Q 3638 1028 3763 1606 
z
" transform="scale(0.015625)"/>
      </defs>
      <use xlink:href="#ArialMT-47"/>
      <use xlink:href="#ArialMT-43" transform="translate(77.783203 0)"/>
      <use xlink:href="#ArialMT-4e" transform="translate(150 0)"/>
     </g>
    </g>
    <g id="line2d_36">
     <path d="M 635.410469 72.975937 
L 644.410469 72.975937 
L 653.410469 72.975937 
" style="fill: none; stroke: #9467bd; stroke-width: 2; stroke-linecap: square"/>
     <g>
      <use xlink:href="#m90b10027d0" x="644.410469" y="72.975937" style="fill: #9467bd; stroke: #9467bd"/>
     </g>
    </g>
    <g id="text_19">
     <!-- GCOD -->
     <g transform="translate(660.610469 76.125937) scale(0.09 -0.09)">
      <use xlink:href="#ArialMT-47"/>
      <use xlink:href="#ArialMT-43" transform="translate(77.783203 0)"/>
      <use xlink:href="#ArialMT-4f" transform="translate(150 0)"/>
      <use xlink:href="#ArialMT-44" transform="translate(227.783203 0)"/>
     </g>
    </g>
    <g id="line2d_37">
     <path d="M 635.410469 85.706719 
L 644.410469 85.706719 
L 653.410469 85.706719 
" style="fill: none; stroke: #8c564b; stroke-width: 2; stroke-linecap: square"/>
     <g>
      <use xlink:href="#md53dde4773" x="644.410469" y="85.706719" style="fill: #8c564b; stroke: #8c564b"/>
     </g>
    </g>
    <g id="text_20">
     <!-- IE -->
     <g transform="translate(660.610469 88.856719) scale(0.09 -0.09)">
      <defs>
       <path id="ArialMT-49" d="M 597 0 
L 597 4581 
L 1203 4581 
L 1203 0 
L 597 0 
z
" transform="scale(0.015625)"/>
       <path id="ArialMT-45" d="M 506 0 
L 506 4581 
L 3819 4581 
L 3819 4041 
L 1113 4041 
L 1113 2638 
L 3647 2638 
L 3647 2100 
L 1113 2100 
L 1113 541 
L 3925 541 
L 3925 0 
L 506 0 
z
" transform="scale(0.015625)"/>
      </defs>
      <use xlink:href="#ArialMT-49"/>
      <use xlink:href="#ArialMT-45" transform="translate(27.783203 0)"/>
     </g>
    </g>
    <g id="line2d_38">
     <path d="M 635.410469 98.4375 
L 644.410469 98.4375 
L 653.410469 98.4375 
" style="fill: none; stroke: #e377c2; stroke-width: 2; stroke-linecap: square"/>
     <g>
      <use xlink:href="#m79ef75a8b2" x="644.410469" y="98.4375" style="fill: #e377c2; stroke: #e377c2"/>
     </g>
    </g>
    <g id="text_21">
     <!-- KNN -->
     <g transform="translate(660.610469 101.5875) scale(0.09 -0.09)">
      <defs>
       <path id="ArialMT-4b" d="M 469 0 
L 469 4581 
L 1075 4581 
L 1075 2309 
L 3350 4581 
L 4172 4581 
L 2250 2725 
L 4256 0 
L 3456 0 
L 1825 2319 
L 1075 1588 
L 1075 0 
L 469 0 
z
" transform="scale(0.015625)"/>
      </defs>
      <use xlink:href="#ArialMT-4b"/>
      <use xlink:href="#ArialMT-4e" transform="translate(66.699219 0)"/>
      <use xlink:href="#ArialMT-4e" transform="translate(138.916016 0)"/>
     </g>
    </g>
    <g id="line2d_39">
     <path d="M 635.410469 111.168281 
L 644.410469 111.168281 
L 653.410469 111.168281 
" style="fill: none; stroke: #17becf; stroke-width: 2; stroke-linecap: square"/>
     <g>
      <use xlink:href="#m140c61c508" x="644.410469" y="111.168281" style="fill: #17becf; stroke: #17becf"/>
     </g>
    </g>
    <g id="text_22">
     <!-- NIEOD -->
     <g transform="translate(660.610469 114.318281) scale(0.09 -0.09)">
      <use xlink:href="#ArialMT-4e"/>
      <use xlink:href="#ArialMT-49" transform="translate(72.216797 0)"/>
      <use xlink:href="#ArialMT-45" transform="translate(100 0)"/>
      <use xlink:href="#ArialMT-4f" transform="translate(166.699219 0)"/>
      <use xlink:href="#ArialMT-44" transform="translate(244.482422 0)"/>
     </g>
    </g>
    <g id="line2d_40">
     <path d="M 635.410469 123.899062 
L 644.410469 123.899062 
L 653.410469 123.899062 
" style="fill: none; stroke: #e31818; stroke-width: 2.5; stroke-linecap: square"/>
     <g>
      <use xlink:href="#m56e012df25" x="644.410469" y="123.899062" style="fill: #e31818; stroke: #e31818"/>
     </g>
    </g>
    <g id="text_23">
     <!-- NMIGOD -->
     <g transform="translate(660.610469 127.049062) scale(0.09 -0.09)">
      <defs>
       <path id="ArialMT-4d" d="M 475 0 
L 475 4581 
L 1388 4581 
L 2472 1338 
Q 2622 884 2691 659 
Q 2769 909 2934 1394 
L 4031 4581 
L 4847 4581 
L 4847 0 
L 4263 0 
L 4263 3834 
L 2931 0 
L 2384 0 
L 1059 3900 
L 1059 0 
L 475 0 
z
" transform="scale(0.015625)"/>
      </defs>
      <use xlink:href="#ArialMT-4e"/>
      <use xlink:href="#ArialMT-4d" transform="translate(72.216797 0)"/>
      <use xlink:href="#ArialMT-49" transform="translate(155.517578 0)"/>
      <use xlink:href="#ArialMT-47" transform="translate(183.300781 0)"/>
      <use xlink:href="#ArialMT-4f" transform="translate(261.083984 0)"/>
      <use xlink:href="#ArialMT-44" transform="translate(338.867188 0)"/>
     </g>
    </g>
   </g>
  </g>
 </g>
 <defs>
  <clipPath id="p08ac35f215">
   <rect x="43.0575" y="23.391562" width="662.65" height="363.88"/>
  </clipPath>
 </defs>
</svg>
